const midi = {
  "header": {
    "PPQ": 480,
    "timeSignature": [
      3,
      4
    ],
    "bpm": 72.00002880001152,
    "name": "Conquest Of Paradise"
  },
  "startTime": 0,
  "duration": 292.4998830000006,
  "tracks": [
    {
      "startTime": 0,
      "duration": 0,
      "length": 0,
      "notes": [],
      "controlChanges": {},
      "id": 0,
      "name": "Conquest Of Paradise"
    },
    {
      "startTime": 106.666624,
      "duration": 232.09365716249988,
      "length": 65,
      "notes": [
        {
          "name": "E4",
          "midi": 64,
          "time": 106.666624,
          "velocity": 0.84251968503937,
          "duration": 0.7326385958333503
        },
        {
          "name": "E5",
          "midi": 76,
          "time": 106.666624,
          "velocity": 0.984251968503937,
          "duration": 0.7065969395833491
        },
        {
          "name": "A5",
          "midi": 81,
          "time": 107.49995700000001,
          "velocity": 1,
          "duration": 2.342012952083337
        },
        {
          "name": "A4",
          "midi": 69,
          "time": 107.49995700000001,
          "velocity": 0.984251968503937,
          "duration": 2.392360154166667
        },
        {
          "name": "A4",
          "midi": 69,
          "time": 110.28294199791668,
          "velocity": 0.984251968503937,
          "duration": 2.2083324500000003
        },
        {
          "name": "B4",
          "midi": 71,
          "time": 112.45828835000002,
          "velocity": 1,
          "duration": 0.918402410416661
        },
        {
          "name": "A4",
          "midi": 69,
          "time": 113.33328800000001,
          "velocity": 0.8818897637795275,
          "duration": 0.8298607791666655
        },
        {
          "name": "G4",
          "midi": 67,
          "time": 114.15620433750001,
          "velocity": 0.8740157480314961,
          "duration": 0.8402774416666574
        },
        {
          "name": "A4",
          "midi": 69,
          "time": 115.00516233125,
          "velocity": 0.984251968503937,
          "duration": 2.4861101166666657
        },
        {
          "name": "B4",
          "midi": 71,
          "time": 117.45828635000001,
          "velocity": 1,
          "duration": 0.918402410416661
        },
        {
          "name": "A4",
          "midi": 69,
          "time": 118.333286,
          "velocity": 0.8818897637795275,
          "duration": 0.8298607791666655
        },
        {
          "name": "G4",
          "midi": 67,
          "time": 119.1562023375,
          "velocity": 0.8740157480314961,
          "duration": 0.8402774416666574
        },
        {
          "name": "A4",
          "midi": 69,
          "time": 120.00516033125,
          "velocity": 0.984251968503937,
          "duration": 2.4861101166666657
        },
        {
          "name": "B4",
          "midi": 71,
          "time": 122.45828435,
          "velocity": 1,
          "duration": 0.918402410416661
        },
        {
          "name": "C#5",
          "midi": 73,
          "time": 123.33328399999999,
          "velocity": 0.8818897637795275,
          "duration": 0.8298607791666655
        },
        {
          "name": "D5",
          "midi": 74,
          "time": 124.1562003375,
          "velocity": 0.8740157480314961,
          "duration": 0.8402774416666574
        },
        {
          "name": "F#4",
          "midi": 66,
          "time": 124.99994999999998,
          "velocity": 1,
          "duration": 2.4999990000000025
        },
        {
          "name": "E4",
          "midi": 64,
          "time": 127.51036566249999,
          "velocity": 1,
          "duration": 0.8680552083333168
        },
        {
          "name": "F#4",
          "midi": 66,
          "time": 128.34717088333332,
          "velocity": 0.968503937007874,
          "duration": 0.8298607791666655
        },
        {
          "name": "G4",
          "midi": 67,
          "time": 129.17182333124998,
          "velocity": 0.8976377952755905,
          "duration": 0.8229163375000041
        },
        {
          "name": "A4",
          "midi": 69,
          "time": 130.00515633125,
          "velocity": 0.9763779527559056,
          "duration": 2.4739573437500155
        },
        {
          "name": "B4",
          "midi": 71,
          "time": 132.45828035,
          "velocity": 1,
          "duration": 0.918402410416661
        },
        {
          "name": "A4",
          "midi": 69,
          "time": 133.33328,
          "velocity": 0.8818897637795275,
          "duration": 0.829860779166637
        },
        {
          "name": "G4",
          "midi": 67,
          "time": 134.15619633749998,
          "velocity": 0.8740157480314961,
          "duration": 0.8402774416666716
        },
        {
          "name": "A4",
          "midi": 69,
          "time": 135.00515433124997,
          "velocity": 0.984251968503937,
          "duration": 2.48611011666668
        },
        {
          "name": "B4",
          "midi": 71,
          "time": 137.45827834999997,
          "velocity": 1,
          "duration": 0.918402410416661
        },
        {
          "name": "A4",
          "midi": 69,
          "time": 138.33327799999998,
          "velocity": 0.8818897637795275,
          "duration": 0.829860779166637
        },
        {
          "name": "G4",
          "midi": 67,
          "time": 139.15619433749995,
          "velocity": 0.8740157480314961,
          "duration": 0.8402774416666716
        },
        {
          "name": "A4",
          "midi": 69,
          "time": 140.00515233124995,
          "velocity": 0.984251968503937,
          "duration": 2.48611011666668
        },
        {
          "name": "B4",
          "midi": 71,
          "time": 142.45827634999995,
          "velocity": 1,
          "duration": 0.918402410416661
        },
        {
          "name": "C#5",
          "midi": 73,
          "time": 143.33327599999996,
          "velocity": 0.8818897637795275,
          "duration": 0.829860779166637
        },
        {
          "name": "D5",
          "midi": 74,
          "time": 144.15619233749993,
          "velocity": 0.8740157480314961,
          "duration": 0.8402774416666716
        },
        {
          "name": "F#4",
          "midi": 66,
          "time": 144.99994199999995,
          "velocity": 1,
          "duration": 2.4999990000000025
        },
        {
          "name": "E4",
          "midi": 64,
          "time": 147.51035766249996,
          "velocity": 1,
          "duration": 2.0833325000000116
        },
        {
          "name": "D4",
          "midi": 62,
          "time": 150.58500921041664,
          "velocity": 0.7244094488188977,
          "duration": 2.2343741062499873
        },
        {
          "name": "A4",
          "midi": 69,
          "time": 192.78290899791662,
          "velocity": 0.984251968503937,
          "duration": 2.2083324500000003
        },
        {
          "name": "B4",
          "midi": 71,
          "time": 194.95825534999994,
          "velocity": 1,
          "duration": 0.918402410416661
        },
        {
          "name": "A4",
          "midi": 69,
          "time": 195.83325499999995,
          "velocity": 0.8818897637795275,
          "duration": 0.829860779166637
        },
        {
          "name": "G4",
          "midi": 67,
          "time": 196.65617133749993,
          "velocity": 0.8740157480314961,
          "duration": 0.8402774416666716
        },
        {
          "name": "A4",
          "midi": 69,
          "time": 197.50512933124992,
          "velocity": 0.984251968503937,
          "duration": 2.48611011666668
        },
        {
          "name": "B4",
          "midi": 71,
          "time": 199.95825334999992,
          "velocity": 1,
          "duration": 0.918402410416661
        },
        {
          "name": "A4",
          "midi": 69,
          "time": 200.83325299999993,
          "velocity": 0.8818897637795275,
          "duration": 0.829860779166637
        },
        {
          "name": "G4",
          "midi": 67,
          "time": 201.6561693374999,
          "velocity": 0.8740157480314961,
          "duration": 0.8402774416666716
        },
        {
          "name": "A4",
          "midi": 69,
          "time": 202.5051273312499,
          "velocity": 0.984251968503937,
          "duration": 2.48611011666668
        },
        {
          "name": "B4",
          "midi": 71,
          "time": 204.9582513499999,
          "velocity": 1,
          "duration": 0.918402410416661
        },
        {
          "name": "C#5",
          "midi": 73,
          "time": 205.8332509999999,
          "velocity": 0.8818897637795275,
          "duration": 0.829860779166637
        },
        {
          "name": "D5",
          "midi": 74,
          "time": 206.65616733749988,
          "velocity": 0.8740157480314961,
          "duration": 0.8402774416666716
        },
        {
          "name": "F#4",
          "midi": 66,
          "time": 207.4999169999999,
          "velocity": 1,
          "duration": 2.4999990000000025
        },
        {
          "name": "E4",
          "midi": 64,
          "time": 210.0103326624999,
          "velocity": 1,
          "duration": 0.8680552083333168
        },
        {
          "name": "F#4",
          "midi": 66,
          "time": 210.84713788333323,
          "velocity": 0.968503937007874,
          "duration": 0.8298607791666655
        },
        {
          "name": "G4",
          "midi": 67,
          "time": 211.6717903312499,
          "velocity": 0.8976377952755905,
          "duration": 0.8229163375000041
        },
        {
          "name": "A4",
          "midi": 69,
          "time": 212.5051233312499,
          "velocity": 0.9763779527559056,
          "duration": 2.4739573437500155
        },
        {
          "name": "B4",
          "midi": 71,
          "time": 214.9582473499999,
          "velocity": 1,
          "duration": 0.918402410416661
        },
        {
          "name": "A4",
          "midi": 69,
          "time": 215.83324699999991,
          "velocity": 0.8818897637795275,
          "duration": 0.829860779166637
        },
        {
          "name": "G4",
          "midi": 67,
          "time": 216.6561633374999,
          "velocity": 0.8740157480314961,
          "duration": 0.8402774416666716
        },
        {
          "name": "A4",
          "midi": 69,
          "time": 217.50512133124988,
          "velocity": 0.984251968503937,
          "duration": 2.48611011666668
        },
        {
          "name": "B4",
          "midi": 71,
          "time": 219.95824534999988,
          "velocity": 1,
          "duration": 0.918402410416661
        },
        {
          "name": "A4",
          "midi": 69,
          "time": 220.8332449999999,
          "velocity": 0.8818897637795275,
          "duration": 0.829860779166637
        },
        {
          "name": "G4",
          "midi": 67,
          "time": 221.65616133749987,
          "velocity": 0.8740157480314961,
          "duration": 0.8402774416666716
        },
        {
          "name": "A4",
          "midi": 69,
          "time": 222.50511933124986,
          "velocity": 0.984251968503937,
          "duration": 2.48611011666668
        },
        {
          "name": "B4",
          "midi": 71,
          "time": 224.95824334999986,
          "velocity": 1,
          "duration": 0.918402410416661
        },
        {
          "name": "C#5",
          "midi": 73,
          "time": 225.83324299999987,
          "velocity": 0.8818897637795275,
          "duration": 0.829860779166637
        },
        {
          "name": "D5",
          "midi": 74,
          "time": 226.65615933749984,
          "velocity": 0.8740157480314961,
          "duration": 0.8402774416666716
        },
        {
          "name": "F#4",
          "midi": 66,
          "time": 227.49990899999986,
          "velocity": 1,
          "duration": 2.4999990000000025
        },
        {
          "name": "E4",
          "midi": 64,
          "time": 230.01032466249987,
          "velocity": 1,
          "duration": 2.0833325000000116
        }
      ],
      "controlChanges": {
        "6": [
          {
            "number": 6,
            "time": 0.07812496875,
            "value": 0.015748031496062992
          },
          {
            "number": 6,
            "time": 0.08680552083333333,
            "value": 0.5039370078740157
          },
          {
            "number": 6,
            "time": 0.09548607291666666,
            "value": 0.5039370078740157
          },
          {
            "number": 6,
            "time": 0.104166625,
            "value": 0.5039370078740157
          },
          {
            "number": 6,
            "time": 0.11284717708333333,
            "value": 0.5039370078740157
          },
          {
            "number": 6,
            "time": 0.12152772916666667,
            "value": 0.5039370078740157
          },
          {
            "number": 6,
            "time": 0.13020828125,
            "value": 0.5590551181102362
          },
          {
            "number": 6,
            "time": 0.13888883333333332,
            "value": 0.5039370078740157
          },
          {
            "number": 6,
            "time": 0.14756938541666664,
            "value": 0.5039370078740157
          },
          {
            "number": 6,
            "time": 12.499994999999998,
            "value": 0.5669291338582677
          },
          {
            "number": 6,
            "time": 104.99995799999999,
            "value": 0.5590551181102362
          }
        ],
        "7": [
          {
            "number": 7,
            "time": 0.043402760416666665,
            "value": 0.7874015748031497
          },
          {
            "number": 7,
            "time": 106.18572141458333,
            "value": 0.3228346456692913
          },
          {
            "number": 7,
            "time": 106.87322113958334,
            "value": 0.4330708661417323
          },
          {
            "number": 7,
            "time": 106.93398500416667,
            "value": 0.44881889763779526
          },
          {
            "number": 7,
            "time": 107.07460994791667,
            "value": 0.47244094488188976
          },
          {
            "number": 7,
            "time": 107.18224879375,
            "value": 0.4881889763779528
          },
          {
            "number": 7,
            "time": 107.28988763958334,
            "value": 0.5118110236220472
          },
          {
            "number": 7,
            "time": 107.39926259583335,
            "value": 0.5275590551181102
          },
          {
            "number": 7,
            "time": 107.47565145416668,
            "value": 0.5511811023622047
          },
          {
            "number": 7,
            "time": 107.53815142916667,
            "value": 0.5669291338582677
          },
          {
            "number": 7,
            "time": 107.67704026250001,
            "value": 0.5905511811023622
          },
          {
            "number": 7,
            "time": 107.80030410208335,
            "value": 0.6062992125984252
          },
          {
            "number": 7,
            "time": 107.97217903333335,
            "value": 0.6299212598425197
          },
          {
            "number": 7,
            "time": 108.11106786666669,
            "value": 0.6456692913385826
          },
          {
            "number": 7,
            "time": 108.18745672500002,
            "value": 0.6692913385826772
          },
          {
            "number": 7,
            "time": 108.26558169375002,
            "value": 0.6929133858267716
          },
          {
            "number": 7,
            "time": 108.32634555833336,
            "value": 0.7086614173228346
          },
          {
            "number": 7,
            "time": 108.38884553333335,
            "value": 0.7322834645669292
          },
          {
            "number": 7,
            "time": 108.45134550833335,
            "value": 0.7559055118110236
          },
          {
            "number": 7,
            "time": 108.49648437916667,
            "value": 0.7716535433070866
          },
          {
            "number": 7,
            "time": 108.55724824375001,
            "value": 0.7952755905511811
          },
          {
            "number": 7,
            "time": 108.60585933541668,
            "value": 0.8110236220472441
          },
          {
            "number": 7,
            "time": 108.66662320000002,
            "value": 0.8346456692913385
          },
          {
            "number": 7,
            "time": 108.71349818125002,
            "value": 0.8503937007874016
          },
          {
            "number": 7,
            "time": 108.77426204583335,
            "value": 0.8740157480314961
          },
          {
            "number": 7,
            "time": 108.83676202083335,
            "value": 0.889763779527559
          },
          {
            "number": 7,
            "time": 108.89752588541668,
            "value": 0.9212598425196851
          },
          {
            "number": 7,
            "time": 108.94440086666668,
            "value": 0.9448818897637795
          },
          {
            "number": 7,
            "time": 108.97565085416669,
            "value": 0.968503937007874
          },
          {
            "number": 7,
            "time": 108.98953973750002,
            "value": 0.9763779527559056
          },
          {
            "number": 7,
            "time": 109.06940081666669,
            "value": 1
          }
        ],
        "10": [
          {
            "number": 10,
            "time": 0.0520833125,
            "value": 0.5039370078740157
          }
        ],
        "32": [
          {
            "number": 32,
            "time": 0.026041656249999996,
            "value": 1
          }
        ],
        "38": [
          {
            "number": 38,
            "time": 12.499994999999998,
            "value": 0
          },
          {
            "number": 38,
            "time": 104.99995799999999,
            "value": 0
          }
        ],
        "91": [
          {
            "number": 91,
            "time": 0.060763864583333334,
            "value": 0.31496062992125984
          }
        ],
        "93": [
          {
            "number": 93,
            "time": 0.06944441666666666,
            "value": 0
          }
        ],
        "98": [
          {
            "number": 98,
            "time": 0.08680552083333333,
            "value": 0.06299212598425197
          },
          {
            "number": 98,
            "time": 0.09548607291666666,
            "value": 0.07086614173228346
          },
          {
            "number": 98,
            "time": 0.104166625,
            "value": 0.07874015748031496
          },
          {
            "number": 98,
            "time": 0.11284717708333333,
            "value": 0.25196850393700787
          },
          {
            "number": 98,
            "time": 0.12152772916666667,
            "value": 0.25984251968503935
          },
          {
            "number": 98,
            "time": 0.13020828125,
            "value": 0.7795275590551181
          },
          {
            "number": 98,
            "time": 0.13888883333333332,
            "value": 0.7874015748031497
          },
          {
            "number": 98,
            "time": 0.14756938541666664,
            "value": 0.8031496062992126
          },
          {
            "number": 98,
            "time": 12.499994999999998,
            "value": 0.7795275590551181
          },
          {
            "number": 98,
            "time": 104.99995799999999,
            "value": 0.7795275590551181
          }
        ],
        "99": [
          {
            "number": 99,
            "time": 0.08680552083333333,
            "value": 0.007874015748031496
          },
          {
            "number": 99,
            "time": 0.09548607291666666,
            "value": 0.007874015748031496
          },
          {
            "number": 99,
            "time": 0.104166625,
            "value": 0.007874015748031496
          },
          {
            "number": 99,
            "time": 0.11284717708333333,
            "value": 0.007874015748031496
          },
          {
            "number": 99,
            "time": 0.12152772916666667,
            "value": 0.007874015748031496
          },
          {
            "number": 99,
            "time": 0.13020828125,
            "value": 0.007874015748031496
          },
          {
            "number": 99,
            "time": 0.13888883333333332,
            "value": 0.007874015748031496
          },
          {
            "number": 99,
            "time": 0.14756938541666664,
            "value": 0.007874015748031496
          },
          {
            "number": 99,
            "time": 12.499994999999998,
            "value": 0.007874015748031496
          },
          {
            "number": 99,
            "time": 104.99995799999999,
            "value": 0.007874015748031496
          }
        ],
        "100": [
          {
            "number": 100,
            "time": 0.07812496875,
            "value": 0
          }
        ],
        "101": [
          {
            "number": 101,
            "time": 0.07812496875,
            "value": 0
          }
        ]
      },
      "id": 1,
      "name": "Synth Br.1",
      "instrumentNumber": 62,
      "instrument": "synthbrass 1",
      "instrumentFamily": "brass",
      "channelNumber": 0,
      "isPercussion": false
    },
    {
      "startTime": 21.68054688333333,
      "duration": 287.4946766687508,
      "length": 530,
      "notes": [
        {
          "name": "A3",
          "midi": 57,
          "time": 21.68054688333333,
          "velocity": 0.6929133858267716,
          "duration": 0.8194441166666664
        },
        {
          "name": "A2",
          "midi": 45,
          "time": 21.68054688333333,
          "velocity": 0.8503937007874016,
          "duration": 0.8194441166666664
        },
        {
          "name": "F4",
          "midi": 65,
          "time": 22.520824325,
          "velocity": 0.6692913385826772,
          "duration": 0.6458330750000023
        },
        {
          "name": "F3",
          "midi": 53,
          "time": 22.524296545833334,
          "velocity": 0.7716535433070866,
          "duration": 0.5972219833333341
        },
        {
          "name": "E3",
          "midi": 52,
          "time": 23.138879633333335,
          "velocity": 0.7086614173228346,
          "duration": 0.23784712708333444
        },
        {
          "name": "E4",
          "midi": 64,
          "time": 23.138879633333335,
          "velocity": 0.6692913385826772,
          "duration": 0.23090268541666603
        },
        {
          "name": "D4",
          "midi": 62,
          "time": 23.342004552083335,
          "velocity": 0.7716535433070866,
          "duration": 0.8906246437500016
        },
        {
          "name": "D3",
          "midi": 50,
          "time": 23.357629545833333,
          "velocity": 0.5354330708661418,
          "duration": 0.8368052208333374
        },
        {
          "name": "C#4",
          "midi": 61,
          "time": 24.182281993750003,
          "velocity": 0.6850393700787402,
          "duration": 0.6163191979166669
        },
        {
          "name": "C#3",
          "midi": 49,
          "time": 24.185754214583337,
          "velocity": 0.8661417322834646,
          "duration": 0.6076386458333332
        },
        {
          "name": "D3",
          "midi": 50,
          "time": 24.796865081250004,
          "velocity": 0.6299212598425197,
          "duration": 0.2031249187499995
        },
        {
          "name": "D4",
          "midi": 62,
          "time": 24.79860119166667,
          "velocity": 0.6850393700787402,
          "duration": 0.20138880833333417
        },
        {
          "name": "E4",
          "midi": 64,
          "time": 25.019087214583337,
          "velocity": 0.7086614173228346,
          "duration": 0.6302080812500002
        },
        {
          "name": "E3",
          "midi": 52,
          "time": 25.020823325000002,
          "velocity": 0.6850393700787402,
          "duration": 0.6406247437500028
        },
        {
          "name": "C#4",
          "midi": 61,
          "time": 25.656239737500005,
          "velocity": 0.6850393700787402,
          "duration": 0.19791658749999996
        },
        {
          "name": "C#3",
          "midi": 49,
          "time": 25.656239737500005,
          "velocity": 0.7637795275590551,
          "duration": 0.17534715208333296
        },
        {
          "name": "A2",
          "midi": 45,
          "time": 25.85762854583334,
          "velocity": 0.7874015748031497,
          "duration": 1.1059023354166655
        },
        {
          "name": "A3",
          "midi": 57,
          "time": 25.86804520833334,
          "velocity": 0.7401574803149606,
          "duration": 1.112846777083334
        },
        {
          "name": "A2",
          "midi": 45,
          "time": 27.093739162500007,
          "velocity": 0.6614173228346457,
          "duration": 0.36979151875000227
        },
        {
          "name": "A3",
          "midi": 57,
          "time": 27.09721138333334,
          "velocity": 0.6850393700787402,
          "duration": 0.38020818125000133
        },
        {
          "name": "F4",
          "midi": 65,
          "time": 27.50519733125001,
          "velocity": 0.5354330708661418,
          "duration": 0.6423608541666646
        },
        {
          "name": "F3",
          "midi": 53,
          "time": 27.506933441666675,
          "velocity": 0.7401574803149606,
          "duration": 0.6302080812500002
        },
        {
          "name": "E4",
          "midi": 64,
          "time": 28.13540541250001,
          "velocity": 0.6692913385826772,
          "duration": 0.2187499124999981
        },
        {
          "name": "E3",
          "midi": 52,
          "time": 28.13540541250001,
          "velocity": 0.6299212598425197,
          "duration": 0.19618047708333108
        },
        {
          "name": "D4",
          "midi": 62,
          "time": 28.340266441666675,
          "velocity": 0.6850393700787402,
          "duration": 0.8506941041666671
        },
        {
          "name": "D3",
          "midi": 50,
          "time": 28.34373866250001,
          "velocity": 0.6929133858267716,
          "duration": 0.8142357854166669
        },
        {
          "name": "C#3",
          "midi": 49,
          "time": 29.168391110416675,
          "velocity": 0.7952755905511811,
          "duration": 0.5798608791666666
        },
        {
          "name": "C#4",
          "midi": 61,
          "time": 29.178807772916674,
          "velocity": 0.7480314960629921,
          "duration": 0.6006942041666683
        },
        {
          "name": "D3",
          "midi": 50,
          "time": 29.78644641875001,
          "velocity": 0.5984251968503937,
          "duration": 0.20833324999999903
        },
        {
          "name": "D4",
          "midi": 62,
          "time": 29.788182529166676,
          "velocity": 0.6220472440944882,
          "duration": 0.21180547083333323
        },
        {
          "name": "E3",
          "midi": 52,
          "time": 30.003460220833343,
          "velocity": 0.7401574803149606,
          "duration": 1.5364577187499968
        },
        {
          "name": "E4",
          "midi": 64,
          "time": 30.00519633125001,
          "velocity": 0.6220472440944882,
          "duration": 1.5434021604166652
        },
        {
          "name": "C4",
          "midi": 60,
          "time": 31.64408456458334,
          "velocity": 0.6692913385826772,
          "duration": 0.8559024354166702
        },
        {
          "name": "C3",
          "midi": 48,
          "time": 31.647556785416675,
          "velocity": 0.7086614173228346,
          "duration": 0.852430214583336
        },
        {
          "name": "A4",
          "midi": 69,
          "time": 32.50345922083334,
          "velocity": 0.7244094488188977,
          "duration": 0.6753469520833377
        },
        {
          "name": "A3",
          "midi": 57,
          "time": 32.508667552083345,
          "velocity": 0.6850393700787402,
          "duration": 0.6093747562499985
        },
        {
          "name": "G3",
          "midi": 55,
          "time": 33.13019508125001,
          "velocity": 0.6929133858267716,
          "duration": 0.18923603541666978
        },
        {
          "name": "G4",
          "midi": 67,
          "time": 33.13540341250001,
          "velocity": 0.6850393700787402,
          "duration": 0.20659713958333015
        },
        {
          "name": "F3",
          "midi": 53,
          "time": 33.32811166875001,
          "velocity": 0.6614173228346457,
          "duration": 0.8663190979166657
        },
        {
          "name": "F4",
          "midi": 65,
          "time": 33.33852833125001,
          "velocity": 0.7165354330708661,
          "duration": 0.8628468770833351
        },
        {
          "name": "E4",
          "midi": 64,
          "time": 34.178805772916675,
          "velocity": 0.6692913385826772,
          "duration": 0.6649302895833387
        },
        {
          "name": "E3",
          "midi": 52,
          "time": 34.18054188333334,
          "velocity": 0.6299212598425197,
          "duration": 0.6093747562500056
        },
        {
          "name": "F3",
          "midi": 53,
          "time": 34.80380552291668,
          "velocity": 0.5905511811023622,
          "duration": 0.190972145833328
        },
        {
          "name": "F4",
          "midi": 65,
          "time": 34.807277743750014,
          "velocity": 0.6535433070866141,
          "duration": 0.19270825625000043
        },
        {
          "name": "G4",
          "midi": 67,
          "time": 35.01213877291668,
          "velocity": 0.6299212598425197,
          "duration": 0.651041406250009
        },
        {
          "name": "G3",
          "midi": 55,
          "time": 35.01213877291668,
          "velocity": 0.8031496062992126,
          "duration": 0.6145830875000016
        },
        {
          "name": "E3",
          "midi": 52,
          "time": 35.64061074375002,
          "velocity": 0.6377952755905512,
          "duration": 0.19444436666667286
        },
        {
          "name": "E4",
          "midi": 64,
          "time": 35.64581907500002,
          "velocity": 0.6929133858267716,
          "duration": 0.1909721458333351
        },
        {
          "name": "C4",
          "midi": 60,
          "time": 35.847207883333354,
          "velocity": 0.7244094488188977,
          "duration": 1.1319439916666596
        },
        {
          "name": "C3",
          "midi": 48,
          "time": 35.84894399375002,
          "velocity": 0.7244094488188977,
          "duration": 1.1267356604166636
        },
        {
          "name": "C3",
          "midi": 48,
          "time": 37.09894349375001,
          "velocity": 0.7244094488188977,
          "duration": 0.3958331749999999
        },
        {
          "name": "C4",
          "midi": 60,
          "time": 37.10067960416668,
          "velocity": 0.7165354330708661,
          "duration": 0.3993053958333377
        },
        {
          "name": "A#2",
          "midi": 46,
          "time": 37.50345722083335,
          "velocity": 0.9133858267716536,
          "duration": 0.6059025354166607
        },
        {
          "name": "A#3",
          "midi": 58,
          "time": 37.50692944166668,
          "velocity": 0.7165354330708661,
          "duration": 0.6493052958333365
        },
        {
          "name": "C3",
          "midi": 48,
          "time": 38.13540141250001,
          "velocity": 0.7086614173228346,
          "duration": 0.20486102916667193
        },
        {
          "name": "C4",
          "midi": 60,
          "time": 38.14060974375001,
          "velocity": 0.6692913385826772,
          "duration": 0.19965269791666884
        },
        {
          "name": "D3",
          "midi": 50,
          "time": 38.34720688333335,
          "velocity": 0.7244094488188977,
          "duration": 0.8107635645833327
        },
        {
          "name": "D4",
          "midi": 62,
          "time": 38.35067910416668,
          "velocity": 0.6614173228346457,
          "duration": 0.8298607791666655
        },
        {
          "name": "C3",
          "midi": 48,
          "time": 39.17012322083335,
          "velocity": 0.7716535433070866,
          "duration": 0.5798608791666666
        },
        {
          "name": "C4",
          "midi": 60,
          "time": 39.17185933125001,
          "velocity": 0.8031496062992126,
          "duration": 0.6232636395833353
        },
        {
          "name": "A#2",
          "midi": 46,
          "time": 39.776025756250014,
          "velocity": 0.7952755905511811,
          "duration": 0.2031249187499995
        },
        {
          "name": "A#3",
          "midi": 58,
          "time": 39.779497977083345,
          "velocity": 0.7007874015748031,
          "duration": 0.21354158125000566
        },
        {
          "name": "A3",
          "midi": 57,
          "time": 39.99651177916668,
          "velocity": 0.7480314960629921,
          "duration": 4.156248337500003
        },
        {
          "name": "A2",
          "midi": 45,
          "time": 40.001720110416684,
          "velocity": 0.7637795275590551,
          "duration": 4.140623343750001
        },
        {
          "name": "A2",
          "midi": 45,
          "time": 44.18053788333335,
          "velocity": 0.8503937007874016,
          "duration": 0.8194441166666664
        },
        {
          "name": "A3",
          "midi": 57,
          "time": 44.18053788333335,
          "velocity": 0.8110236220472441,
          "duration": 0.8194441166666664
        },
        {
          "name": "F4",
          "midi": 65,
          "time": 45.020815325000015,
          "velocity": 0.6692913385826772,
          "duration": 0.6458330749999988
        },
        {
          "name": "F3",
          "midi": 53,
          "time": 45.024287545833346,
          "velocity": 0.7716535433070866,
          "duration": 0.5972219833333341
        },
        {
          "name": "E3",
          "midi": 52,
          "time": 45.63887063333335,
          "velocity": 0.7086614173228346,
          "duration": 0.23784712708333444
        },
        {
          "name": "E4",
          "midi": 64,
          "time": 45.63887063333335,
          "velocity": 0.6692913385826772,
          "duration": 0.23090268541666603
        },
        {
          "name": "D4",
          "midi": 62,
          "time": 45.84199555208335,
          "velocity": 0.7716535433070866,
          "duration": 0.8906246437500016
        },
        {
          "name": "D3",
          "midi": 50,
          "time": 45.85762054583335,
          "velocity": 0.5354330708661418,
          "duration": 0.8368052208333339
        },
        {
          "name": "C#4",
          "midi": 61,
          "time": 46.68227299375002,
          "velocity": 0.6850393700787402,
          "duration": 0.6163191979166598
        },
        {
          "name": "C#3",
          "midi": 49,
          "time": 46.68574521458335,
          "velocity": 0.8661417322834646,
          "duration": 0.6076386458333332
        },
        {
          "name": "D3",
          "midi": 50,
          "time": 47.29685608125001,
          "velocity": 0.6299212598425197,
          "duration": 0.2031249187499995
        },
        {
          "name": "D4",
          "midi": 62,
          "time": 47.29859219166668,
          "velocity": 0.6850393700787402,
          "duration": 0.20138880833333417
        },
        {
          "name": "E4",
          "midi": 64,
          "time": 47.519078214583345,
          "velocity": 0.7086614173228346,
          "duration": 0.6302080812499966
        },
        {
          "name": "E3",
          "midi": 52,
          "time": 47.52081432500001,
          "velocity": 0.6850393700787402,
          "duration": 0.6406247437500028
        },
        {
          "name": "C#4",
          "midi": 61,
          "time": 48.15623073750001,
          "velocity": 0.6850393700787402,
          "duration": 0.1979165874999964
        },
        {
          "name": "C#3",
          "midi": 49,
          "time": 48.15623073750001,
          "velocity": 0.7637795275590551,
          "duration": 0.17534715208333296
        },
        {
          "name": "A2",
          "midi": 45,
          "time": 48.35761954583334,
          "velocity": 0.7874015748031497,
          "duration": 1.1059023354166655
        },
        {
          "name": "A3",
          "midi": 57,
          "time": 48.368036208333336,
          "velocity": 0.7401574803149606,
          "duration": 1.112846777083334
        },
        {
          "name": "A2",
          "midi": 45,
          "time": 49.5937301625,
          "velocity": 0.6614173228346457,
          "duration": 0.3697915187499987
        },
        {
          "name": "A3",
          "midi": 57,
          "time": 49.59720238333333,
          "velocity": 0.6850393700787402,
          "duration": 0.3802081812500049
        },
        {
          "name": "F4",
          "midi": 65,
          "time": 50.005188331250004,
          "velocity": 0.5354330708661418,
          "duration": 0.642360854166661
        },
        {
          "name": "F3",
          "midi": 53,
          "time": 50.00692444166667,
          "velocity": 0.7401574803149606,
          "duration": 0.6302080812499966
        },
        {
          "name": "E4",
          "midi": 64,
          "time": 50.6353964125,
          "velocity": 0.6692913385826772,
          "duration": 0.21874991249999454
        },
        {
          "name": "E3",
          "midi": 52,
          "time": 50.6353964125,
          "velocity": 0.6299212598425197,
          "duration": 0.19618047708333108
        },
        {
          "name": "D4",
          "midi": 62,
          "time": 50.840257441666665,
          "velocity": 0.6850393700787402,
          "duration": 0.8298607791666583
        },
        {
          "name": "D3",
          "midi": 50,
          "time": 50.843729662499996,
          "velocity": 0.6929133858267716,
          "duration": 0.828124668749993
        },
        {
          "name": "C#3",
          "midi": 49,
          "time": 51.66838211041666,
          "velocity": 0.7952755905511811,
          "duration": 0.6076386458333332
        },
        {
          "name": "C#4",
          "midi": 61,
          "time": 51.67879877291666,
          "velocity": 0.7480314960629921,
          "duration": 0.6006942041666647
        },
        {
          "name": "D3",
          "midi": 50,
          "time": 52.28643741874999,
          "velocity": 0.5984251968503937,
          "duration": 0.20833324999999547
        },
        {
          "name": "D4",
          "midi": 62,
          "time": 52.288173529166656,
          "velocity": 0.6220472440944882,
          "duration": 0.21180547083333323
        },
        {
          "name": "E3",
          "midi": 52,
          "time": 52.50345122083332,
          "velocity": 0.7401574803149606,
          "duration": 1.5364577187500004
        },
        {
          "name": "E4",
          "midi": 64,
          "time": 52.505187331249985,
          "velocity": 0.6220472440944882,
          "duration": 1.5434021604166688
        },
        {
          "name": "C4",
          "midi": 60,
          "time": 54.14407556458332,
          "velocity": 0.6692913385826772,
          "duration": 0.8559024354166667
        },
        {
          "name": "C3",
          "midi": 48,
          "time": 54.14754778541665,
          "velocity": 0.7086614173228346,
          "duration": 0.852430214583336
        },
        {
          "name": "A4",
          "midi": 69,
          "time": 55.003450220833315,
          "velocity": 0.7244094488188977,
          "duration": 0.6753469520833377
        },
        {
          "name": "A3",
          "midi": 57,
          "time": 55.00865855208332,
          "velocity": 0.6850393700787402,
          "duration": 0.6093747562499985
        },
        {
          "name": "G3",
          "midi": 55,
          "time": 55.63018608124998,
          "velocity": 0.6929133858267716,
          "duration": 0.18923603541666978
        },
        {
          "name": "G4",
          "midi": 67,
          "time": 55.635394412499984,
          "velocity": 0.6850393700787402,
          "duration": 0.20659713958333015
        },
        {
          "name": "F3",
          "midi": 53,
          "time": 55.828102668749985,
          "velocity": 0.6614173228346457,
          "duration": 0.8663190979166657
        },
        {
          "name": "F4",
          "midi": 65,
          "time": 55.838519331249984,
          "velocity": 0.7165354330708661,
          "duration": 0.8628468770833351
        },
        {
          "name": "E4",
          "midi": 64,
          "time": 56.67879677291665,
          "velocity": 0.6692913385826772,
          "duration": 0.6649302895833387
        },
        {
          "name": "E3",
          "midi": 52,
          "time": 56.68053288333331,
          "velocity": 0.6299212598425197,
          "duration": 0.6093747562500056
        },
        {
          "name": "F3",
          "midi": 53,
          "time": 57.303796522916656,
          "velocity": 0.5905511811023622,
          "duration": 0.190972145833328
        },
        {
          "name": "F4",
          "midi": 65,
          "time": 57.30726874374999,
          "velocity": 0.6535433070866141,
          "duration": 0.19270825625000043
        },
        {
          "name": "G4",
          "midi": 67,
          "time": 57.51212977291665,
          "velocity": 0.6299212598425197,
          "duration": 0.651041406250009
        },
        {
          "name": "G3",
          "midi": 55,
          "time": 57.51212977291665,
          "velocity": 0.8031496062992126,
          "duration": 0.6145830875000016
        },
        {
          "name": "E3",
          "midi": 52,
          "time": 58.14060174374999,
          "velocity": 0.6377952755905512,
          "duration": 0.19444436666667286
        },
        {
          "name": "E4",
          "midi": 64,
          "time": 58.14581007499999,
          "velocity": 0.6929133858267716,
          "duration": 0.1909721458333351
        },
        {
          "name": "C4",
          "midi": 60,
          "time": 58.34719888333333,
          "velocity": 0.7244094488188977,
          "duration": 1.1319439916666596
        },
        {
          "name": "C3",
          "midi": 48,
          "time": 58.34893499374999,
          "velocity": 0.7244094488188977,
          "duration": 1.1267356604166636
        },
        {
          "name": "C3",
          "midi": 48,
          "time": 59.59893449374999,
          "velocity": 0.7244094488188977,
          "duration": 0.3958331749999999
        },
        {
          "name": "C4",
          "midi": 60,
          "time": 59.60067060416665,
          "velocity": 0.7165354330708661,
          "duration": 0.3993053958333377
        },
        {
          "name": "A#2",
          "midi": 46,
          "time": 60.00344822083332,
          "velocity": 0.9133858267716536,
          "duration": 0.6059025354166607
        },
        {
          "name": "A#3",
          "midi": 58,
          "time": 60.00692044166665,
          "velocity": 0.7165354330708661,
          "duration": 0.6493052958333365
        },
        {
          "name": "C3",
          "midi": 48,
          "time": 60.63539241249998,
          "velocity": 0.7086614173228346,
          "duration": 0.20486102916667193
        },
        {
          "name": "C4",
          "midi": 60,
          "time": 60.640600743749985,
          "velocity": 0.6692913385826772,
          "duration": 0.19965269791666884
        },
        {
          "name": "D3",
          "midi": 50,
          "time": 60.84719788333332,
          "velocity": 0.7244094488188977,
          "duration": 0.8107635645833327
        },
        {
          "name": "D4",
          "midi": 62,
          "time": 60.85067010416665,
          "velocity": 0.6614173228346457,
          "duration": 0.8298607791666655
        },
        {
          "name": "C3",
          "midi": 48,
          "time": 61.67011422083332,
          "velocity": 0.7716535433070866,
          "duration": 0.5798608791666666
        },
        {
          "name": "C4",
          "midi": 60,
          "time": 61.671850331249985,
          "velocity": 0.8031496062992126,
          "duration": 0.6232636395833353
        },
        {
          "name": "A#2",
          "midi": 46,
          "time": 62.27601675624999,
          "velocity": 0.7952755905511811,
          "duration": 0.2031249187499995
        },
        {
          "name": "A#3",
          "midi": 58,
          "time": 62.27948897708332,
          "velocity": 0.7007874015748031,
          "duration": 0.21354158125000566
        },
        {
          "name": "A3",
          "midi": 57,
          "time": 62.496502779166654,
          "velocity": 0.7637795275590551,
          "duration": 1.579860479166662
        },
        {
          "name": "A2",
          "midi": 45,
          "time": 62.50171111041666,
          "velocity": 0.7559055118110236,
          "duration": 1.595485472916657
        },
        {
          "name": "A3",
          "midi": 57,
          "time": 64.22219653333332,
          "velocity": 0.8661417322834646,
          "duration": 0.7777774666666772
        },
        {
          "name": "A2",
          "midi": 45,
          "time": 64.22393264374999,
          "velocity": 0.9606299212598425,
          "duration": 0.7760413562500048
        },
        {
          "name": "F4",
          "midi": 65,
          "time": 65.00171011041667,
          "velocity": 0.6692913385826772,
          "duration": 0.6249997500000006
        },
        {
          "name": "F3",
          "midi": 53,
          "time": 65.00171011041667,
          "velocity": 0.7716535433070866,
          "duration": 0.6197914187499975
        },
        {
          "name": "E3",
          "midi": 52,
          "time": 65.62670986041667,
          "velocity": 0.7086614173228346,
          "duration": 0.20833325000000968
        },
        {
          "name": "E4",
          "midi": 64,
          "time": 65.62670986041667,
          "velocity": 0.6692913385826772,
          "duration": 0.20659713958333725
        },
        {
          "name": "D4",
          "midi": 62,
          "time": 65.83504311041668,
          "velocity": 0.7716535433070866,
          "duration": 0.8350691104166827
        },
        {
          "name": "D3",
          "midi": 50,
          "time": 65.83504311041668,
          "velocity": 0.5354330708661418,
          "duration": 0.8315968895833379
        },
        {
          "name": "C#4",
          "midi": 61,
          "time": 66.66837611041669,
          "velocity": 0.6850393700787402,
          "duration": 0.6215275291666842
        },
        {
          "name": "C#3",
          "midi": 49,
          "time": 66.66837611041669,
          "velocity": 0.8661417322834646,
          "duration": 0.6197914187500118
        },
        {
          "name": "D4",
          "midi": 62,
          "time": 67.29163975000004,
          "velocity": 0.6850393700787402,
          "duration": 0.20833324999999547
        },
        {
          "name": "D3",
          "midi": 50,
          "time": 67.29163975000004,
          "velocity": 0.6299212598425197,
          "duration": 0.20833324999999547
        },
        {
          "name": "E4",
          "midi": 64,
          "time": 67.50170911041671,
          "velocity": 0.7086614173228346,
          "duration": 0.6232636395833282
        },
        {
          "name": "E3",
          "midi": 52,
          "time": 67.50170911041671,
          "velocity": 0.6850393700787402,
          "duration": 0.6232636395833282
        },
        {
          "name": "C#4",
          "midi": 61,
          "time": 68.12844497083337,
          "velocity": 0.6850393700787402,
          "duration": 0.2031249187500066
        },
        {
          "name": "C#3",
          "midi": 49,
          "time": 68.12844497083337,
          "velocity": 0.7637795275590551,
          "duration": 0.20138880833333417
        },
        {
          "name": "A2",
          "midi": 45,
          "time": 68.33504211041671,
          "velocity": 0.7874015748031497,
          "duration": 1.2413189479166675
        },
        {
          "name": "A3",
          "midi": 57,
          "time": 68.33677822083338,
          "velocity": 0.7401574803149606,
          "duration": 1.2326383958333338
        },
        {
          "name": "A3",
          "midi": 57,
          "time": 69.58504161041671,
          "velocity": 0.6850393700787402,
          "duration": 0.40972205833334385
        },
        {
          "name": "A2",
          "midi": 45,
          "time": 69.58504161041671,
          "velocity": 0.6614173228346457,
          "duration": 0.4079859479166714
        },
        {
          "name": "F4",
          "midi": 65,
          "time": 69.99997200000006,
          "velocity": 0.5354330708661418,
          "duration": 0.6249997500000006
        },
        {
          "name": "F3",
          "midi": 53,
          "time": 69.99997200000006,
          "velocity": 0.7401574803149606,
          "duration": 0.6232636395833282
        },
        {
          "name": "E4",
          "midi": 64,
          "time": 70.62670786041673,
          "velocity": 0.6692913385826772,
          "duration": 0.20486102916667903
        },
        {
          "name": "E3",
          "midi": 52,
          "time": 70.62670786041673,
          "velocity": 0.6299212598425197,
          "duration": 0.2031249187500066
        },
        {
          "name": "D4",
          "midi": 62,
          "time": 70.83330500000008,
          "velocity": 0.6850393700787402,
          "duration": 0.8333329999999961
        },
        {
          "name": "D3",
          "midi": 50,
          "time": 70.83504111041675,
          "velocity": 0.6929133858267716,
          "duration": 0.828124668749993
        },
        {
          "name": "C#3",
          "midi": 49,
          "time": 71.66663800000008,
          "velocity": 0.7952755905511811,
          "duration": 0.6180553083333393
        },
        {
          "name": "C#4",
          "midi": 61,
          "time": 71.66837411041675,
          "velocity": 0.7480314960629921,
          "duration": 0.6180553083333393
        },
        {
          "name": "D4",
          "midi": 62,
          "time": 72.29163775000009,
          "velocity": 0.6220472440944882,
          "duration": 0.20486102916666482
        },
        {
          "name": "D3",
          "midi": 50,
          "time": 72.29163775000009,
          "velocity": 0.5984251968503937,
          "duration": 0.20486102916666482
        },
        {
          "name": "E4",
          "midi": 64,
          "time": 72.49997100000009,
          "velocity": 0.6220472440944882,
          "duration": 1.640624343749991
        },
        {
          "name": "E3",
          "midi": 52,
          "time": 72.49997100000009,
          "velocity": 0.7401574803149606,
          "duration": 1.6336799020833297
        },
        {
          "name": "C4",
          "midi": 60,
          "time": 74.16490088958341,
          "velocity": 0.6692913385826772,
          "duration": 0.8350691104166685
        },
        {
          "name": "C3",
          "midi": 48,
          "time": 74.16490088958341,
          "velocity": 0.7086614173228346,
          "duration": 0.8315968895833379
        },
        {
          "name": "A4",
          "midi": 69,
          "time": 74.99997000000008,
          "velocity": 0.7244094488188977,
          "duration": 0.6267358604166731
        },
        {
          "name": "A3",
          "midi": 57,
          "time": 75.00170611041675,
          "velocity": 0.6850393700787402,
          "duration": 0.6197914187499975
        },
        {
          "name": "G3",
          "midi": 55,
          "time": 75.62496975000008,
          "velocity": 0.6929133858267716,
          "duration": 0.2031249187500066
        },
        {
          "name": "G4",
          "midi": 67,
          "time": 75.62670586041675,
          "velocity": 0.6850393700787402,
          "duration": 0.20486102916666482
        },
        {
          "name": "F4",
          "midi": 65,
          "time": 75.83330300000009,
          "velocity": 0.7165354330708661,
          "duration": 0.8333329999999961
        },
        {
          "name": "F3",
          "midi": 53,
          "time": 75.83330300000009,
          "velocity": 0.6614173228346457,
          "duration": 0.8333329999999961
        },
        {
          "name": "E4",
          "midi": 64,
          "time": 76.66837211041675,
          "velocity": 0.6692913385826772,
          "duration": 0.6249997500000006
        },
        {
          "name": "E3",
          "midi": 52,
          "time": 76.66837211041675,
          "velocity": 0.6299212598425197,
          "duration": 0.6197914187499975
        },
        {
          "name": "F4",
          "midi": 65,
          "time": 77.29337186041676,
          "velocity": 0.6535433070866141,
          "duration": 0.2031249187500066
        },
        {
          "name": "F3",
          "midi": 53,
          "time": 77.29337186041676,
          "velocity": 0.5905511811023622,
          "duration": 0.2031249187500066
        },
        {
          "name": "G4",
          "midi": 67,
          "time": 77.50170511041676,
          "velocity": 0.6299212598425197,
          "duration": 0.6232636395833282
        },
        {
          "name": "G3",
          "midi": 55,
          "time": 77.50170511041676,
          "velocity": 0.8031496062992126,
          "duration": 0.6197914187499975
        },
        {
          "name": "E4",
          "midi": 64,
          "time": 78.12670486041677,
          "velocity": 0.6929133858267716,
          "duration": 0.2031249187500066
        },
        {
          "name": "E3",
          "midi": 52,
          "time": 78.12670486041677,
          "velocity": 0.6377952755905512,
          "duration": 0.2031249187500066
        },
        {
          "name": "C3",
          "midi": 48,
          "time": 78.33503811041678,
          "velocity": 0.6929133858267716,
          "duration": 1.2378467270833369
        },
        {
          "name": "C4",
          "midi": 60,
          "time": 78.33503811041678,
          "velocity": 0.7244094488188977,
          "duration": 1.2343745062500062
        },
        {
          "name": "C4",
          "midi": 60,
          "time": 79.58503761041678,
          "velocity": 0.7165354330708661,
          "duration": 0.4149303895833327
        },
        {
          "name": "C3",
          "midi": 48,
          "time": 79.58503761041678,
          "velocity": 0.7244094488188977,
          "duration": 0.4114581687500021
        },
        {
          "name": "A#3",
          "midi": 58,
          "time": 79.99996800000011,
          "velocity": 0.7165354330708661,
          "duration": 0.6249997500000006
        },
        {
          "name": "A#2",
          "midi": 46,
          "time": 79.99996800000011,
          "velocity": 0.9133858267716536,
          "duration": 0.6197914187499975
        },
        {
          "name": "C4",
          "midi": 60,
          "time": 80.62670386041678,
          "velocity": 0.6692913385826772,
          "duration": 0.20486102916666482
        },
        {
          "name": "C3",
          "midi": 48,
          "time": 80.62670386041678,
          "velocity": 0.7086614173228346,
          "duration": 0.20486102916666482
        },
        {
          "name": "D4",
          "midi": 62,
          "time": 80.83503711041678,
          "velocity": 0.6614173228346457,
          "duration": 0.8298607791666655
        },
        {
          "name": "D3",
          "midi": 50,
          "time": 80.83503711041678,
          "velocity": 0.7244094488188977,
          "duration": 0.828124668749993
        },
        {
          "name": "C4",
          "midi": 60,
          "time": 81.66663400000012,
          "velocity": 0.8031496062992126,
          "duration": 0.62152752916667
        },
        {
          "name": "C3",
          "midi": 48,
          "time": 81.66663400000012,
          "velocity": 0.7716535433070866,
          "duration": 0.6180553083333393
        },
        {
          "name": "A#3",
          "midi": 58,
          "time": 82.28989763958346,
          "velocity": 0.7007874015748031,
          "duration": 0.20659713958333725
        },
        {
          "name": "A#2",
          "midi": 46,
          "time": 82.28989763958346,
          "velocity": 0.7952755905511811,
          "duration": 0.20486102916666482
        },
        {
          "name": "A3",
          "midi": 57,
          "time": 82.49996700000013,
          "velocity": 0.7480314960629921,
          "duration": 4.161456668750006
        },
        {
          "name": "A2",
          "midi": 45,
          "time": 82.49996700000013,
          "velocity": 0.7637795275590551,
          "duration": 4.161456668750006
        },
        {
          "name": "A3",
          "midi": 57,
          "time": 86.6683681104168,
          "velocity": 0.6929133858267716,
          "duration": 0.8315968895833379
        },
        {
          "name": "A2",
          "midi": 45,
          "time": 86.6683681104168,
          "velocity": 0.8503937007874016,
          "duration": 0.8298607791666655
        },
        {
          "name": "F4",
          "midi": 65,
          "time": 87.5017011104168,
          "velocity": 0.6692913385826772,
          "duration": 0.6249997500000006
        },
        {
          "name": "F3",
          "midi": 53,
          "time": 87.5017011104168,
          "velocity": 0.7716535433070866,
          "duration": 0.6197914187499975
        },
        {
          "name": "E3",
          "midi": 52,
          "time": 88.1267008604168,
          "velocity": 0.7086614173228346,
          "duration": 0.20833325000000968
        },
        {
          "name": "E4",
          "midi": 64,
          "time": 88.1267008604168,
          "velocity": 0.6692913385826772,
          "duration": 0.20659713958333725
        },
        {
          "name": "D4",
          "midi": 62,
          "time": 88.33503411041681,
          "velocity": 0.7716535433070866,
          "duration": 0.8350691104166827
        },
        {
          "name": "D3",
          "midi": 50,
          "time": 88.33503411041681,
          "velocity": 0.5354330708661418,
          "duration": 0.8315968895833379
        },
        {
          "name": "C#4",
          "midi": 61,
          "time": 89.16836711041682,
          "velocity": 0.6850393700787402,
          "duration": 0.6215275291666842
        },
        {
          "name": "C#3",
          "midi": 49,
          "time": 89.16836711041682,
          "velocity": 0.8661417322834646,
          "duration": 0.6197914187500118
        },
        {
          "name": "D4",
          "midi": 62,
          "time": 89.79163075000018,
          "velocity": 0.6850393700787402,
          "duration": 0.20833324999999547
        },
        {
          "name": "D3",
          "midi": 50,
          "time": 89.79163075000018,
          "velocity": 0.6299212598425197,
          "duration": 0.20833324999999547
        },
        {
          "name": "E4",
          "midi": 64,
          "time": 90.00170011041685,
          "velocity": 0.7086614173228346,
          "duration": 0.6232636395833282
        },
        {
          "name": "E3",
          "midi": 52,
          "time": 90.00170011041685,
          "velocity": 0.6850393700787402,
          "duration": 0.6232636395833282
        },
        {
          "name": "C#4",
          "midi": 61,
          "time": 90.62843597083351,
          "velocity": 0.6850393700787402,
          "duration": 0.2031249187500066
        },
        {
          "name": "C#3",
          "midi": 49,
          "time": 90.62843597083351,
          "velocity": 0.7637795275590551,
          "duration": 0.20138880833333417
        },
        {
          "name": "A2",
          "midi": 45,
          "time": 90.83503311041684,
          "velocity": 0.7874015748031497,
          "duration": 1.0451384708333364
        },
        {
          "name": "A3",
          "midi": 57,
          "time": 90.83676922083352,
          "velocity": 0.7401574803149606,
          "duration": 1.2326383958333338
        },
        {
          "name": "A3",
          "midi": 57,
          "time": 92.08503261041685,
          "velocity": 0.6850393700787402,
          "duration": 0.40972205833334385
        },
        {
          "name": "A2",
          "midi": 45,
          "time": 92.08503261041685,
          "velocity": 0.6614173228346457,
          "duration": 0.4079859479166714
        },
        {
          "name": "F4",
          "midi": 65,
          "time": 92.49996300000019,
          "velocity": 0.5354330708661418,
          "duration": 0.6249997500000006
        },
        {
          "name": "F3",
          "midi": 53,
          "time": 92.49996300000019,
          "velocity": 0.7401574803149606,
          "duration": 0.6232636395833282
        },
        {
          "name": "E4",
          "midi": 64,
          "time": 93.12669886041687,
          "velocity": 0.6692913385826772,
          "duration": 0.20486102916667903
        },
        {
          "name": "E3",
          "midi": 52,
          "time": 93.12669886041687,
          "velocity": 0.6299212598425197,
          "duration": 0.2031249187500066
        },
        {
          "name": "D4",
          "midi": 62,
          "time": 93.33329600000022,
          "velocity": 0.6850393700787402,
          "duration": 0.8333329999999961
        },
        {
          "name": "D3",
          "midi": 50,
          "time": 93.33503211041689,
          "velocity": 0.6929133858267716,
          "duration": 0.828124668749993
        },
        {
          "name": "C#3",
          "midi": 49,
          "time": 94.16662900000021,
          "velocity": 0.7952755905511811,
          "duration": 0.6180553083333393
        },
        {
          "name": "C#4",
          "midi": 61,
          "time": 94.16836511041689,
          "velocity": 0.7480314960629921,
          "duration": 0.6180553083333393
        },
        {
          "name": "D4",
          "midi": 62,
          "time": 94.79162875000023,
          "velocity": 0.6220472440944882,
          "duration": 0.20486102916666482
        },
        {
          "name": "D3",
          "midi": 50,
          "time": 94.79162875000023,
          "velocity": 0.5984251968503937,
          "duration": 0.20486102916666482
        },
        {
          "name": "E4",
          "midi": 64,
          "time": 94.99996200000022,
          "velocity": 0.6220472440944882,
          "duration": 1.4635410812499998
        },
        {
          "name": "E3",
          "midi": 52,
          "time": 94.99996200000022,
          "velocity": 0.7401574803149606,
          "duration": 1.4635410812499998
        },
        {
          "name": "C4",
          "midi": 60,
          "time": 96.66489188958356,
          "velocity": 0.6692913385826772,
          "duration": 0.8350691104166685
        },
        {
          "name": "C3",
          "midi": 48,
          "time": 96.66489188958356,
          "velocity": 0.7086614173228346,
          "duration": 0.8315968895833379
        },
        {
          "name": "A4",
          "midi": 69,
          "time": 97.49996100000023,
          "velocity": 0.7244094488188977,
          "duration": 0.6267358604166731
        },
        {
          "name": "A3",
          "midi": 57,
          "time": 97.5016971104169,
          "velocity": 0.6850393700787402,
          "duration": 0.6197914187499975
        },
        {
          "name": "G3",
          "midi": 55,
          "time": 98.12496075000023,
          "velocity": 0.6929133858267716,
          "duration": 0.2031249187500066
        },
        {
          "name": "G4",
          "midi": 67,
          "time": 98.1266968604169,
          "velocity": 0.6850393700787402,
          "duration": 0.20486102916666482
        },
        {
          "name": "F4",
          "midi": 65,
          "time": 98.33329400000024,
          "velocity": 0.7165354330708661,
          "duration": 0.8333329999999961
        },
        {
          "name": "F3",
          "midi": 53,
          "time": 98.33329400000024,
          "velocity": 0.6614173228346457,
          "duration": 0.8333329999999961
        },
        {
          "name": "E4",
          "midi": 64,
          "time": 99.1683631104169,
          "velocity": 0.6692913385826772,
          "duration": 0.6249997500000006
        },
        {
          "name": "E3",
          "midi": 52,
          "time": 99.1683631104169,
          "velocity": 0.6299212598425197,
          "duration": 0.6197914187499975
        },
        {
          "name": "F4",
          "midi": 65,
          "time": 99.7933628604169,
          "velocity": 0.6535433070866141,
          "duration": 0.2031249187500066
        },
        {
          "name": "F3",
          "midi": 53,
          "time": 99.7933628604169,
          "velocity": 0.5905511811023622,
          "duration": 0.2031249187500066
        },
        {
          "name": "G4",
          "midi": 67,
          "time": 100.00169611041692,
          "velocity": 0.6299212598425197,
          "duration": 0.6232636395833282
        },
        {
          "name": "G3",
          "midi": 55,
          "time": 100.00169611041692,
          "velocity": 0.8031496062992126,
          "duration": 0.6197914187499975
        },
        {
          "name": "E4",
          "midi": 64,
          "time": 100.62669586041692,
          "velocity": 0.6929133858267716,
          "duration": 0.2031249187500066
        },
        {
          "name": "E3",
          "midi": 52,
          "time": 100.62669586041692,
          "velocity": 0.6377952755905512,
          "duration": 0.2031249187500066
        },
        {
          "name": "C4",
          "midi": 60,
          "time": 100.83502911041693,
          "velocity": 0.7244094488188977,
          "duration": 1.234374506249992
        },
        {
          "name": "C3",
          "midi": 48,
          "time": 100.83502911041693,
          "velocity": 0.7244094488188977,
          "duration": 1.0468745812499947
        },
        {
          "name": "C4",
          "midi": 60,
          "time": 102.08502861041691,
          "velocity": 0.7165354330708661,
          "duration": 0.4149303895833327
        },
        {
          "name": "C3",
          "midi": 48,
          "time": 102.08502861041691,
          "velocity": 0.7244094488188977,
          "duration": 0.4114581687500021
        },
        {
          "name": "A#3",
          "midi": 58,
          "time": 102.49995900000025,
          "velocity": 0.7165354330708661,
          "duration": 0.6249997500000006
        },
        {
          "name": "A#2",
          "midi": 46,
          "time": 102.49995900000025,
          "velocity": 0.9133858267716536,
          "duration": 0.6197914187499975
        },
        {
          "name": "C4",
          "midi": 60,
          "time": 103.12669486041692,
          "velocity": 0.6692913385826772,
          "duration": 0.20486102916666482
        },
        {
          "name": "C3",
          "midi": 48,
          "time": 103.12669486041692,
          "velocity": 0.7086614173228346,
          "duration": 0.20486102916666482
        },
        {
          "name": "D4",
          "midi": 62,
          "time": 103.33502811041691,
          "velocity": 0.6614173228346457,
          "duration": 0.8298607791666655
        },
        {
          "name": "D3",
          "midi": 50,
          "time": 103.33502811041691,
          "velocity": 0.7244094488188977,
          "duration": 0.828124668749993
        },
        {
          "name": "C4",
          "midi": 60,
          "time": 104.16662500000025,
          "velocity": 0.8031496062992126,
          "duration": 0.62152752916667
        },
        {
          "name": "C3",
          "midi": 48,
          "time": 104.16662500000025,
          "velocity": 0.7716535433070866,
          "duration": 0.6180553083333393
        },
        {
          "name": "A#3",
          "midi": 58,
          "time": 104.7898886395836,
          "velocity": 0.7007874015748031,
          "duration": 0.20659713958333725
        },
        {
          "name": "A#2",
          "midi": 46,
          "time": 104.7898886395836,
          "velocity": 0.7952755905511811,
          "duration": 0.20486102916666482
        },
        {
          "name": "A3",
          "midi": 57,
          "time": 104.99995800000026,
          "velocity": 0.7480314960629921,
          "duration": 4.161456668750006
        },
        {
          "name": "A2",
          "midi": 45,
          "time": 104.99995800000026,
          "velocity": 0.7637795275590551,
          "duration": 4.161456668750006
        },
        {
          "name": "A3",
          "midi": 57,
          "time": 109.16835911041693,
          "velocity": 0.6929133858267716,
          "duration": 0.8315968895833379
        },
        {
          "name": "A2",
          "midi": 45,
          "time": 109.16835911041693,
          "velocity": 0.8503937007874016,
          "duration": 0.8298607791666655
        },
        {
          "name": "D4",
          "midi": 62,
          "time": 109.99995600000027,
          "velocity": 0.8188976377952756,
          "duration": 17.48610411666668
        },
        {
          "name": "F#4",
          "midi": 66,
          "time": 109.99995600000027,
          "velocity": 0.9133858267716536,
          "duration": 2.4895823374999964
        },
        {
          "name": "D3",
          "midi": 50,
          "time": 109.99995600000027,
          "velocity": 1,
          "duration": 17.473951343750016
        },
        {
          "name": "A4",
          "midi": 69,
          "time": 109.99995600000027,
          "velocity": 0.8188976377952756,
          "duration": 19.963533681250013
        },
        {
          "name": "G4",
          "midi": 67,
          "time": 112.48085778541693,
          "velocity": 0.84251968503937,
          "duration": 2.503471220833333
        },
        {
          "name": "F#4",
          "midi": 66,
          "time": 114.96349568125027,
          "velocity": 0.889763779527559,
          "duration": 2.5190962145833424
        },
        {
          "name": "G4",
          "midi": 67,
          "time": 117.4513419083336,
          "velocity": 0.8976377952755905,
          "duration": 2.541665650000013
        },
        {
          "name": "F#4",
          "midi": 66,
          "time": 119.98259089583361,
          "velocity": 0.984251968503937,
          "duration": 2.5052073312500056
        },
        {
          "name": "G4",
          "midi": 67,
          "time": 122.43571491458361,
          "velocity": 0.7952755905511811,
          "duration": 2.532985097916665
        },
        {
          "name": "F#4",
          "midi": 66,
          "time": 124.96349168125028,
          "velocity": 0.8976377952755905,
          "duration": 2.527776766666676
        },
        {
          "name": "E4",
          "midi": 64,
          "time": 127.45133790833361,
          "velocity": 0.7952755905511811,
          "duration": 2.522568435416673
        },
        {
          "name": "A2",
          "midi": 45,
          "time": 127.49821288958361,
          "velocity": 0.7952755905511811,
          "duration": 2.437499024999994
        },
        {
          "name": "C#4",
          "midi": 61,
          "time": 127.51383788333361,
          "velocity": 0.5826771653543307,
          "duration": 2.4548601291666756
        },
        {
          "name": "D4",
          "midi": 62,
          "time": 129.99994800000027,
          "velocity": 0.8188976377952756,
          "duration": 17.486104116666667
        },
        {
          "name": "F#4",
          "midi": 66,
          "time": 129.99994800000027,
          "velocity": 0.9133858267716536,
          "duration": 2.4895823374999964
        },
        {
          "name": "D3",
          "midi": 50,
          "time": 129.99994800000027,
          "velocity": 1,
          "duration": 17.473951343750002
        },
        {
          "name": "A4",
          "midi": 69,
          "time": 129.99994800000027,
          "velocity": 0.8188976377952756,
          "duration": 19.963533681250027
        },
        {
          "name": "G4",
          "midi": 67,
          "time": 132.48084978541695,
          "velocity": 0.84251968503937,
          "duration": 2.503471220833319
        },
        {
          "name": "F#4",
          "midi": 66,
          "time": 134.96348768125026,
          "velocity": 0.889763779527559,
          "duration": 2.519096214583328
        },
        {
          "name": "G4",
          "midi": 67,
          "time": 137.4513339083336,
          "velocity": 0.8976377952755905,
          "duration": 2.5416656499999988
        },
        {
          "name": "F#4",
          "midi": 66,
          "time": 139.9825828958336,
          "velocity": 0.984251968503937,
          "duration": 2.5052073312500056
        },
        {
          "name": "G4",
          "midi": 67,
          "time": 142.4357069145836,
          "velocity": 0.7952755905511811,
          "duration": 2.5329850979166793
        },
        {
          "name": "F#4",
          "midi": 66,
          "time": 144.96348368125027,
          "velocity": 0.8976377952755905,
          "duration": 2.527776766666676
        },
        {
          "name": "E4",
          "midi": 64,
          "time": 147.4513299083336,
          "velocity": 0.6377952755905512,
          "duration": 2.5225684354167015
        },
        {
          "name": "A2",
          "midi": 45,
          "time": 147.4982048895836,
          "velocity": 0.6377952755905512,
          "duration": 2.4374990250000224
        },
        {
          "name": "C#4",
          "midi": 61,
          "time": 147.5138298833336,
          "velocity": 0.4251968503937008,
          "duration": 2.45486012916669
        },
        {
          "name": "A2",
          "midi": 45,
          "time": 169.58152938958364,
          "velocity": 0.8503937007874016,
          "duration": 0.41840261041664917
        },
        {
          "name": "A3",
          "midi": 57,
          "time": 169.5832655000003,
          "velocity": 0.6929133858267716,
          "duration": 0.41666649999999095
        },
        {
          "name": "F4",
          "midi": 65,
          "time": 170.00166811041694,
          "velocity": 0.6692913385826772,
          "duration": 0.6249997500000006
        },
        {
          "name": "F3",
          "midi": 53,
          "time": 170.00166811041694,
          "velocity": 0.7716535433070866,
          "duration": 0.6197914187499975
        },
        {
          "name": "E3",
          "midi": 52,
          "time": 170.62666786041694,
          "velocity": 0.7086614173228346,
          "duration": 0.20833324999998126
        },
        {
          "name": "E4",
          "midi": 64,
          "time": 170.62666786041694,
          "velocity": 0.6692913385826772,
          "duration": 0.20659713958332304
        },
        {
          "name": "D4",
          "midi": 62,
          "time": 170.83500111041693,
          "velocity": 0.7716535433070866,
          "duration": 0.8350691104166401
        },
        {
          "name": "D3",
          "midi": 50,
          "time": 170.83500111041693,
          "velocity": 0.5354330708661418,
          "duration": 0.8315968895833237
        },
        {
          "name": "C#4",
          "midi": 61,
          "time": 171.6683341104169,
          "velocity": 0.6850393700787402,
          "duration": 0.6215275291666558
        },
        {
          "name": "C#3",
          "midi": 49,
          "time": 171.6683341104169,
          "velocity": 0.8661417322834646,
          "duration": 0.6197914187499975
        },
        {
          "name": "D4",
          "midi": 62,
          "time": 172.29159775000022,
          "velocity": 0.6850393700787402,
          "duration": 0.20833325000000968
        },
        {
          "name": "D3",
          "midi": 50,
          "time": 172.29159775000022,
          "velocity": 0.6299212598425197,
          "duration": 0.20833325000000968
        },
        {
          "name": "E4",
          "midi": 64,
          "time": 172.5016671104169,
          "velocity": 0.7086614173228346,
          "duration": 0.6232636395833424
        },
        {
          "name": "E3",
          "midi": 52,
          "time": 172.5016671104169,
          "velocity": 0.6850393700787402,
          "duration": 0.6232636395833424
        },
        {
          "name": "C#4",
          "midi": 61,
          "time": 173.12840297083358,
          "velocity": 0.6850393700787402,
          "duration": 0.20312491874997818
        },
        {
          "name": "C#3",
          "midi": 49,
          "time": 173.12840297083358,
          "velocity": 0.7637795275590551,
          "duration": 0.20138880833331996
        },
        {
          "name": "A2",
          "midi": 45,
          "time": 173.3350001104169,
          "velocity": 0.7874015748031497,
          "duration": 1.0451384708333364
        },
        {
          "name": "A3",
          "midi": 57,
          "time": 173.33673622083356,
          "velocity": 0.7401574803149606,
          "duration": 1.2326383958333338
        },
        {
          "name": "A3",
          "midi": 57,
          "time": 174.5849996104169,
          "velocity": 0.6850393700787402,
          "duration": 0.40972205833332964
        },
        {
          "name": "A2",
          "midi": 45,
          "time": 174.5849996104169,
          "velocity": 0.6614173228346457,
          "duration": 0.4079859479166714
        },
        {
          "name": "F4",
          "midi": 65,
          "time": 174.99993000000023,
          "velocity": 0.5354330708661418,
          "duration": 0.6249997500000006
        },
        {
          "name": "F3",
          "midi": 53,
          "time": 174.99993000000023,
          "velocity": 0.7401574803149606,
          "duration": 0.6232636395833424
        },
        {
          "name": "E4",
          "midi": 64,
          "time": 175.6266658604169,
          "velocity": 0.6692913385826772,
          "duration": 0.20486102916666482
        },
        {
          "name": "E3",
          "midi": 52,
          "time": 175.6266658604169,
          "velocity": 0.6299212598425197,
          "duration": 0.2031249187500066
        },
        {
          "name": "D4",
          "midi": 62,
          "time": 175.83326300000022,
          "velocity": 0.6850393700787402,
          "duration": 0.8333330000000103
        },
        {
          "name": "D3",
          "midi": 50,
          "time": 175.83499911041687,
          "velocity": 0.6929133858267716,
          "duration": 0.8281246687500072
        },
        {
          "name": "C#3",
          "midi": 49,
          "time": 176.66659600000023,
          "velocity": 0.7952755905511811,
          "duration": 0.6180553083333109
        },
        {
          "name": "C#4",
          "midi": 61,
          "time": 176.66833211041688,
          "velocity": 0.7480314960629921,
          "duration": 0.6180553083333109
        },
        {
          "name": "D4",
          "midi": 62,
          "time": 177.2915957500002,
          "velocity": 0.6220472440944882,
          "duration": 0.20486102916666482
        },
        {
          "name": "D3",
          "midi": 50,
          "time": 177.2915957500002,
          "velocity": 0.5984251968503937,
          "duration": 0.20486102916666482
        },
        {
          "name": "E4",
          "midi": 64,
          "time": 177.4999290000002,
          "velocity": 0.6220472440944882,
          "duration": 1.463541081250014
        },
        {
          "name": "E3",
          "midi": 52,
          "time": 177.4999290000002,
          "velocity": 0.7401574803149606,
          "duration": 1.463541081250014
        },
        {
          "name": "C4",
          "midi": 60,
          "time": 179.16485888958354,
          "velocity": 0.6692913385826772,
          "duration": 0.8350691104166685
        },
        {
          "name": "C3",
          "midi": 48,
          "time": 179.16485888958354,
          "velocity": 0.7086614173228346,
          "duration": 0.8315968895833237
        },
        {
          "name": "A4",
          "midi": 69,
          "time": 179.9999280000002,
          "velocity": 0.7244094488188977,
          "duration": 0.6267358604166589
        },
        {
          "name": "A3",
          "midi": 57,
          "time": 180.00166411041687,
          "velocity": 0.6850393700787402,
          "duration": 0.6197914187499975
        },
        {
          "name": "G3",
          "midi": 55,
          "time": 180.6249277500002,
          "velocity": 0.6929133858267716,
          "duration": 0.20312491874997818
        },
        {
          "name": "G4",
          "midi": 67,
          "time": 180.62666386041687,
          "velocity": 0.6850393700787402,
          "duration": 0.20486102916666482
        },
        {
          "name": "F4",
          "midi": 65,
          "time": 180.8332610000002,
          "velocity": 0.7165354330708661,
          "duration": 0.8333330000000103
        },
        {
          "name": "F3",
          "midi": 53,
          "time": 180.8332610000002,
          "velocity": 0.6614173228346457,
          "duration": 0.8333330000000103
        },
        {
          "name": "E4",
          "midi": 64,
          "time": 181.66833011041686,
          "velocity": 0.6692913385826772,
          "duration": 0.6249997500000006
        },
        {
          "name": "E3",
          "midi": 52,
          "time": 181.66833011041686,
          "velocity": 0.6299212598425197,
          "duration": 0.6197914187499975
        },
        {
          "name": "F4",
          "midi": 65,
          "time": 182.29332986041686,
          "velocity": 0.6535433070866141,
          "duration": 0.2031249187500066
        },
        {
          "name": "F3",
          "midi": 53,
          "time": 182.29332986041686,
          "velocity": 0.5905511811023622,
          "duration": 0.2031249187500066
        },
        {
          "name": "G4",
          "midi": 67,
          "time": 182.50166311041687,
          "velocity": 0.6299212598425197,
          "duration": 0.6232636395833424
        },
        {
          "name": "G3",
          "midi": 55,
          "time": 182.50166311041687,
          "velocity": 0.8031496062992126,
          "duration": 0.6197914187499975
        },
        {
          "name": "E4",
          "midi": 64,
          "time": 183.12666286041687,
          "velocity": 0.6929133858267716,
          "duration": 0.2031249187500066
        },
        {
          "name": "E3",
          "midi": 52,
          "time": 183.12666286041687,
          "velocity": 0.6377952755905512,
          "duration": 0.2031249187500066
        },
        {
          "name": "C4",
          "midi": 60,
          "time": 183.33499611041688,
          "velocity": 0.7244094488188977,
          "duration": 1.234374506249992
        },
        {
          "name": "C3",
          "midi": 48,
          "time": 183.33499611041688,
          "velocity": 0.7244094488188977,
          "duration": 1.0468745812499947
        },
        {
          "name": "C4",
          "midi": 60,
          "time": 184.58499561041688,
          "velocity": 0.7165354330708661,
          "duration": 0.4149303895833327
        },
        {
          "name": "C3",
          "midi": 48,
          "time": 184.58499561041688,
          "velocity": 0.7244094488188977,
          "duration": 0.41145816874998786
        },
        {
          "name": "A#3",
          "midi": 58,
          "time": 184.99992600000022,
          "velocity": 0.7165354330708661,
          "duration": 0.6249997500000006
        },
        {
          "name": "A#2",
          "midi": 46,
          "time": 184.99992600000022,
          "velocity": 0.9133858267716536,
          "duration": 0.6197914187499975
        },
        {
          "name": "C4",
          "midi": 60,
          "time": 185.62666186041687,
          "velocity": 0.6692913385826772,
          "duration": 0.20486102916666482
        },
        {
          "name": "C3",
          "midi": 48,
          "time": 185.62666186041687,
          "velocity": 0.7086614173228346,
          "duration": 0.20486102916666482
        },
        {
          "name": "D4",
          "midi": 62,
          "time": 185.83499511041688,
          "velocity": 0.6614173228346457,
          "duration": 0.8298607791666655
        },
        {
          "name": "D3",
          "midi": 50,
          "time": 185.83499511041688,
          "velocity": 0.7244094488188977,
          "duration": 0.8281246687500072
        },
        {
          "name": "C4",
          "midi": 60,
          "time": 186.6665920000002,
          "velocity": 0.8031496062992126,
          "duration": 0.6215275291666842
        },
        {
          "name": "C3",
          "midi": 48,
          "time": 186.6665920000002,
          "velocity": 0.7716535433070866,
          "duration": 0.6180553083333393
        },
        {
          "name": "A#3",
          "midi": 58,
          "time": 187.28985563958355,
          "velocity": 0.7007874015748031,
          "duration": 0.20659713958332304
        },
        {
          "name": "A#2",
          "midi": 46,
          "time": 187.28985563958355,
          "velocity": 0.7952755905511811,
          "duration": 0.20486102916666482
        },
        {
          "name": "A2",
          "midi": 45,
          "time": 187.50166111041688,
          "velocity": 0.6771653543307087,
          "duration": 4.17013722083334
        },
        {
          "name": "A3",
          "midi": 57,
          "time": 187.51207777291688,
          "velocity": 0.6377952755905512,
          "duration": 4.1649288895833365
        },
        {
          "name": "D4",
          "midi": 62,
          "time": 192.49992300000022,
          "velocity": 0.8188976377952756,
          "duration": 17.486104116666667
        },
        {
          "name": "F#4",
          "midi": 66,
          "time": 192.49992300000022,
          "velocity": 0.9133858267716536,
          "duration": 2.4895823374999964
        },
        {
          "name": "D3",
          "midi": 50,
          "time": 192.49992300000022,
          "velocity": 1,
          "duration": 17.473951343750002
        },
        {
          "name": "A4",
          "midi": 69,
          "time": 192.49992300000022,
          "velocity": 0.8188976377952756,
          "duration": 19.963533681250027
        },
        {
          "name": "G4",
          "midi": 67,
          "time": 194.9808247854169,
          "velocity": 0.84251968503937,
          "duration": 2.503471220833319
        },
        {
          "name": "F#4",
          "midi": 66,
          "time": 197.4634626812502,
          "velocity": 0.889763779527559,
          "duration": 2.519096214583328
        },
        {
          "name": "G4",
          "midi": 67,
          "time": 199.95130890833354,
          "velocity": 0.8976377952755905,
          "duration": 2.5416656499999988
        },
        {
          "name": "F#4",
          "midi": 66,
          "time": 202.48255789583354,
          "velocity": 0.984251968503937,
          "duration": 2.5052073312500056
        },
        {
          "name": "G4",
          "midi": 67,
          "time": 204.93568191458354,
          "velocity": 0.7952755905511811,
          "duration": 2.5329850979166793
        },
        {
          "name": "F#4",
          "midi": 66,
          "time": 207.46345868125022,
          "velocity": 0.8976377952755905,
          "duration": 2.527776766666676
        },
        {
          "name": "E4",
          "midi": 64,
          "time": 209.95130490833355,
          "velocity": 0.7952755905511811,
          "duration": 2.5225684354167015
        },
        {
          "name": "A2",
          "midi": 45,
          "time": 209.99817988958355,
          "velocity": 0.7952755905511811,
          "duration": 2.4374990250000224
        },
        {
          "name": "C#4",
          "midi": 61,
          "time": 210.01380488333356,
          "velocity": 0.5826771653543307,
          "duration": 2.45486012916669
        },
        {
          "name": "A4",
          "midi": 69,
          "time": 212.49991500000024,
          "velocity": 0.8188976377952756,
          "duration": 19.149297895833314
        },
        {
          "name": "D4",
          "midi": 62,
          "time": 212.49991500000024,
          "velocity": 0.8188976377952756,
          "duration": 17.486104116666667
        },
        {
          "name": "F#4",
          "midi": 66,
          "time": 212.49991500000024,
          "velocity": 0.9133858267716536,
          "duration": 2.4895823374999964
        },
        {
          "name": "D3",
          "midi": 50,
          "time": 212.49991500000024,
          "velocity": 1,
          "duration": 17.473951343750002
        },
        {
          "name": "G4",
          "midi": 67,
          "time": 214.98081678541692,
          "velocity": 0.84251968503937,
          "duration": 2.503471220833319
        },
        {
          "name": "F#4",
          "midi": 66,
          "time": 217.46345468125023,
          "velocity": 0.889763779527559,
          "duration": 2.519096214583328
        },
        {
          "name": "G4",
          "midi": 67,
          "time": 219.95130090833356,
          "velocity": 0.8976377952755905,
          "duration": 2.5416656499999988
        },
        {
          "name": "F#4",
          "midi": 66,
          "time": 222.48254989583356,
          "velocity": 0.984251968503937,
          "duration": 2.5052073312500056
        },
        {
          "name": "G4",
          "midi": 67,
          "time": 224.93567391458356,
          "velocity": 0.7952755905511811,
          "duration": 2.5329850979166793
        },
        {
          "name": "F#4",
          "midi": 66,
          "time": 227.46345068125024,
          "velocity": 0.8976377952755905,
          "duration": 2.527776766666676
        },
        {
          "name": "E4",
          "midi": 64,
          "time": 229.95129690833357,
          "velocity": 0.6299212598425197,
          "duration": 1.6944437666666659
        },
        {
          "name": "A2",
          "midi": 45,
          "time": 229.99817188958357,
          "velocity": 0.6535433070866141,
          "duration": 1.6354160125000021
        },
        {
          "name": "C#4",
          "midi": 61,
          "time": 230.01379688333358,
          "velocity": 0.41732283464566927,
          "duration": 1.6336799020833155
        },
        {
          "name": "A2",
          "midi": 45,
          "time": 232.08150438958356,
          "velocity": 0.8503937007874016,
          "duration": 0.41840261041664917
        },
        {
          "name": "A3",
          "midi": 57,
          "time": 232.08324050000022,
          "velocity": 0.6929133858267716,
          "duration": 0.41666649999999095
        },
        {
          "name": "F4",
          "midi": 65,
          "time": 232.50164311041686,
          "velocity": 0.6692913385826772,
          "duration": 0.6249997500000006
        },
        {
          "name": "F3",
          "midi": 53,
          "time": 232.50164311041686,
          "velocity": 0.7716535433070866,
          "duration": 0.6197914187499975
        },
        {
          "name": "E3",
          "midi": 52,
          "time": 233.12664286041687,
          "velocity": 0.7086614173228346,
          "duration": 0.20833324999998126
        },
        {
          "name": "E4",
          "midi": 64,
          "time": 233.12664286041687,
          "velocity": 0.6692913385826772,
          "duration": 0.20659713958332304
        },
        {
          "name": "D4",
          "midi": 62,
          "time": 233.33497611041685,
          "velocity": 0.7716535433070866,
          "duration": 0.8350691104166401
        },
        {
          "name": "D3",
          "midi": 50,
          "time": 233.33497611041685,
          "velocity": 0.5354330708661418,
          "duration": 0.8315968895833237
        },
        {
          "name": "C#4",
          "midi": 61,
          "time": 234.16830911041683,
          "velocity": 0.6850393700787402,
          "duration": 0.6215275291666558
        },
        {
          "name": "C#3",
          "midi": 49,
          "time": 234.16830911041683,
          "velocity": 0.8661417322834646,
          "duration": 0.6197914187499975
        },
        {
          "name": "D4",
          "midi": 62,
          "time": 234.79157275000014,
          "velocity": 0.6850393700787402,
          "duration": 0.20833325000000968
        },
        {
          "name": "D3",
          "midi": 50,
          "time": 234.79157275000014,
          "velocity": 0.6299212598425197,
          "duration": 0.20833325000000968
        },
        {
          "name": "E4",
          "midi": 64,
          "time": 235.0016421104168,
          "velocity": 0.7086614173228346,
          "duration": 0.6232636395833424
        },
        {
          "name": "E3",
          "midi": 52,
          "time": 235.0016421104168,
          "velocity": 0.6850393700787402,
          "duration": 0.6232636395833424
        },
        {
          "name": "C#4",
          "midi": 61,
          "time": 235.6283779708335,
          "velocity": 0.6850393700787402,
          "duration": 0.20312491874997818
        },
        {
          "name": "C#3",
          "midi": 49,
          "time": 235.6283779708335,
          "velocity": 0.7637795275590551,
          "duration": 0.20138880833331996
        },
        {
          "name": "A2",
          "midi": 45,
          "time": 235.83497511041682,
          "velocity": 0.7874015748031497,
          "duration": 1.0451384708333364
        },
        {
          "name": "A3",
          "midi": 57,
          "time": 235.83671122083348,
          "velocity": 0.7401574803149606,
          "duration": 1.2326383958333338
        },
        {
          "name": "A3",
          "midi": 57,
          "time": 237.08497461041682,
          "velocity": 0.6850393700787402,
          "duration": 0.40972205833332964
        },
        {
          "name": "A2",
          "midi": 45,
          "time": 237.08497461041682,
          "velocity": 0.6614173228346457,
          "duration": 0.4079859479166714
        },
        {
          "name": "F4",
          "midi": 65,
          "time": 237.49990500000015,
          "velocity": 0.5354330708661418,
          "duration": 0.6249997500000006
        },
        {
          "name": "F3",
          "midi": 53,
          "time": 237.49990500000015,
          "velocity": 0.7401574803149606,
          "duration": 0.6232636395833424
        },
        {
          "name": "E4",
          "midi": 64,
          "time": 238.1266408604168,
          "velocity": 0.6692913385826772,
          "duration": 0.20486102916666482
        },
        {
          "name": "E3",
          "midi": 52,
          "time": 238.1266408604168,
          "velocity": 0.6299212598425197,
          "duration": 0.2031249187500066
        },
        {
          "name": "D4",
          "midi": 62,
          "time": 238.33323800000014,
          "velocity": 0.6850393700787402,
          "duration": 0.8333330000000103
        },
        {
          "name": "D3",
          "midi": 50,
          "time": 238.3349741104168,
          "velocity": 0.6929133858267716,
          "duration": 0.8281246687500072
        },
        {
          "name": "C#3",
          "midi": 49,
          "time": 239.16657100000015,
          "velocity": 0.7952755905511811,
          "duration": 0.6180553083333109
        },
        {
          "name": "C#4",
          "midi": 61,
          "time": 239.1683071104168,
          "velocity": 0.7480314960629921,
          "duration": 0.6180553083333109
        },
        {
          "name": "D4",
          "midi": 62,
          "time": 239.79157075000012,
          "velocity": 0.6220472440944882,
          "duration": 0.20486102916666482
        },
        {
          "name": "D3",
          "midi": 50,
          "time": 239.79157075000012,
          "velocity": 0.5984251968503937,
          "duration": 0.20486102916666482
        },
        {
          "name": "E4",
          "midi": 64,
          "time": 239.99990400000013,
          "velocity": 0.6220472440944882,
          "duration": 1.463541081250014
        },
        {
          "name": "E3",
          "midi": 52,
          "time": 239.99990400000013,
          "velocity": 0.7401574803149606,
          "duration": 1.463541081250014
        },
        {
          "name": "C4",
          "midi": 60,
          "time": 241.66483388958346,
          "velocity": 0.6692913385826772,
          "duration": 0.8350691104166685
        },
        {
          "name": "C3",
          "midi": 48,
          "time": 241.66483388958346,
          "velocity": 0.7086614173228346,
          "duration": 0.8315968895833237
        },
        {
          "name": "A4",
          "midi": 69,
          "time": 242.49990300000013,
          "velocity": 0.7244094488188977,
          "duration": 0.6267358604166589
        },
        {
          "name": "A3",
          "midi": 57,
          "time": 242.5016391104168,
          "velocity": 0.6850393700787402,
          "duration": 0.6197914187499975
        },
        {
          "name": "G3",
          "midi": 55,
          "time": 243.12490275000013,
          "velocity": 0.6929133858267716,
          "duration": 0.20312491874997818
        },
        {
          "name": "G4",
          "midi": 67,
          "time": 243.1266388604168,
          "velocity": 0.6850393700787402,
          "duration": 0.20486102916666482
        },
        {
          "name": "F4",
          "midi": 65,
          "time": 243.3332360000001,
          "velocity": 0.7165354330708661,
          "duration": 0.8333330000000103
        },
        {
          "name": "F3",
          "midi": 53,
          "time": 243.3332360000001,
          "velocity": 0.6614173228346457,
          "duration": 0.8333330000000103
        },
        {
          "name": "E4",
          "midi": 64,
          "time": 244.16830511041678,
          "velocity": 0.6692913385826772,
          "duration": 0.6249997500000006
        },
        {
          "name": "E3",
          "midi": 52,
          "time": 244.16830511041678,
          "velocity": 0.6299212598425197,
          "duration": 0.6197914187499975
        },
        {
          "name": "F4",
          "midi": 65,
          "time": 244.79330486041678,
          "velocity": 0.6535433070866141,
          "duration": 0.2031249187500066
        },
        {
          "name": "F3",
          "midi": 53,
          "time": 244.79330486041678,
          "velocity": 0.5905511811023622,
          "duration": 0.2031249187500066
        },
        {
          "name": "G4",
          "midi": 67,
          "time": 245.0016381104168,
          "velocity": 0.6299212598425197,
          "duration": 0.6232636395833424
        },
        {
          "name": "G3",
          "midi": 55,
          "time": 245.0016381104168,
          "velocity": 0.8031496062992126,
          "duration": 0.6197914187499975
        },
        {
          "name": "E4",
          "midi": 64,
          "time": 245.6266378604168,
          "velocity": 0.6929133858267716,
          "duration": 0.2031249187500066
        },
        {
          "name": "E3",
          "midi": 52,
          "time": 245.6266378604168,
          "velocity": 0.6377952755905512,
          "duration": 0.2031249187500066
        },
        {
          "name": "C4",
          "midi": 60,
          "time": 245.8349711104168,
          "velocity": 0.7244094488188977,
          "duration": 1.234374506249992
        },
        {
          "name": "C3",
          "midi": 48,
          "time": 245.8349711104168,
          "velocity": 0.7244094488188977,
          "duration": 1.0468745812499947
        },
        {
          "name": "C4",
          "midi": 60,
          "time": 247.0849706104168,
          "velocity": 0.7165354330708661,
          "duration": 0.4149303895833327
        },
        {
          "name": "C3",
          "midi": 48,
          "time": 247.0849706104168,
          "velocity": 0.7244094488188977,
          "duration": 0.41145816874998786
        },
        {
          "name": "A#3",
          "midi": 58,
          "time": 247.49990100000014,
          "velocity": 0.7165354330708661,
          "duration": 0.6249997500000006
        },
        {
          "name": "A#2",
          "midi": 46,
          "time": 247.49990100000014,
          "velocity": 0.9133858267716536,
          "duration": 0.6197914187499975
        },
        {
          "name": "C4",
          "midi": 60,
          "time": 248.1266368604168,
          "velocity": 0.6692913385826772,
          "duration": 0.20486102916666482
        },
        {
          "name": "C3",
          "midi": 48,
          "time": 248.1266368604168,
          "velocity": 0.7086614173228346,
          "duration": 0.20486102916666482
        },
        {
          "name": "D4",
          "midi": 62,
          "time": 248.3349701104168,
          "velocity": 0.6614173228346457,
          "duration": 0.8298607791666655
        },
        {
          "name": "D3",
          "midi": 50,
          "time": 248.3349701104168,
          "velocity": 0.7244094488188977,
          "duration": 0.8281246687500072
        },
        {
          "name": "C4",
          "midi": 60,
          "time": 249.16656700000013,
          "velocity": 0.8031496062992126,
          "duration": 0.6215275291666842
        },
        {
          "name": "C3",
          "midi": 48,
          "time": 249.16656700000013,
          "velocity": 0.7716535433070866,
          "duration": 0.6180553083333393
        },
        {
          "name": "A#3",
          "midi": 58,
          "time": 249.78983063958347,
          "velocity": 0.7007874015748031,
          "duration": 0.20659713958332304
        },
        {
          "name": "A#2",
          "midi": 46,
          "time": 249.78983063958347,
          "velocity": 0.7952755905511811,
          "duration": 0.20486102916666482
        },
        {
          "name": "A2",
          "midi": 45,
          "time": 250.0016361104168,
          "velocity": 0.6771653543307087,
          "duration": 2.498262889583316
        },
        {
          "name": "A3",
          "midi": 57,
          "time": 250.0120527729168,
          "velocity": 0.6377952755905512,
          "duration": 2.4878462270833097
        },
        {
          "name": "A2",
          "midi": 45,
          "time": 252.08149638958346,
          "velocity": 0.8503937007874016,
          "duration": 0.41840261041664917
        },
        {
          "name": "A3",
          "midi": 57,
          "time": 252.08323250000012,
          "velocity": 0.6929133858267716,
          "duration": 0.41666649999999095
        },
        {
          "name": "F4",
          "midi": 65,
          "time": 252.50163511041677,
          "velocity": 0.6692913385826772,
          "duration": 0.6249997500000006
        },
        {
          "name": "F3",
          "midi": 53,
          "time": 252.50163511041677,
          "velocity": 0.7716535433070866,
          "duration": 0.6197914187499975
        },
        {
          "name": "E3",
          "midi": 52,
          "time": 253.12663486041677,
          "velocity": 0.7086614173228346,
          "duration": 0.20833324999998126
        },
        {
          "name": "E4",
          "midi": 64,
          "time": 253.12663486041677,
          "velocity": 0.6692913385826772,
          "duration": 0.20659713958332304
        },
        {
          "name": "D4",
          "midi": 62,
          "time": 253.33496811041675,
          "velocity": 0.7716535433070866,
          "duration": 0.8350691104166401
        },
        {
          "name": "D3",
          "midi": 50,
          "time": 253.33496811041675,
          "velocity": 0.5354330708661418,
          "duration": 0.8315968895833237
        },
        {
          "name": "C#4",
          "midi": 61,
          "time": 254.16830111041673,
          "velocity": 0.6850393700787402,
          "duration": 0.6215275291666558
        },
        {
          "name": "C#3",
          "midi": 49,
          "time": 254.16830111041673,
          "velocity": 0.8661417322834646,
          "duration": 0.6197914187499975
        },
        {
          "name": "D4",
          "midi": 62,
          "time": 254.79156475000005,
          "velocity": 0.6850393700787402,
          "duration": 0.20833325000000968
        },
        {
          "name": "D3",
          "midi": 50,
          "time": 254.79156475000005,
          "velocity": 0.6299212598425197,
          "duration": 0.20833325000000968
        },
        {
          "name": "E4",
          "midi": 64,
          "time": 255.00163411041672,
          "velocity": 0.7086614173228346,
          "duration": 0.6232636395833424
        },
        {
          "name": "E3",
          "midi": 52,
          "time": 255.00163411041672,
          "velocity": 0.6850393700787402,
          "duration": 0.6232636395833424
        },
        {
          "name": "C#4",
          "midi": 61,
          "time": 255.6283699708334,
          "velocity": 0.6850393700787402,
          "duration": 0.20312491874997818
        },
        {
          "name": "C#3",
          "midi": 49,
          "time": 255.6283699708334,
          "velocity": 0.7637795275590551,
          "duration": 0.20138880833331996
        },
        {
          "name": "A2",
          "midi": 45,
          "time": 255.83496711041673,
          "velocity": 0.7874015748031497,
          "duration": 1.0451384708333364
        },
        {
          "name": "A3",
          "midi": 57,
          "time": 255.83670322083339,
          "velocity": 0.7401574803149606,
          "duration": 1.2326383958333622
        },
        {
          "name": "A3",
          "midi": 57,
          "time": 257.08496661041676,
          "velocity": 0.6850393700787402,
          "duration": 0.40972205833332964
        },
        {
          "name": "A2",
          "midi": 45,
          "time": 257.08496661041676,
          "velocity": 0.6614173228346457,
          "duration": 0.407985947916643
        },
        {
          "name": "F4",
          "midi": 65,
          "time": 257.4998970000001,
          "velocity": 0.5354330708661418,
          "duration": 0.624999750000029
        },
        {
          "name": "F3",
          "midi": 53,
          "time": 257.4998970000001,
          "velocity": 0.7401574803149606,
          "duration": 0.6232636395833424
        },
        {
          "name": "E4",
          "midi": 64,
          "time": 258.1266328604168,
          "velocity": 0.6692913385826772,
          "duration": 0.20486102916669324
        },
        {
          "name": "E3",
          "midi": 52,
          "time": 258.1266328604168,
          "velocity": 0.6299212598425197,
          "duration": 0.2031249187500066
        },
        {
          "name": "D4",
          "midi": 62,
          "time": 258.3332300000002,
          "velocity": 0.6850393700787402,
          "duration": 0.8333329999999819
        },
        {
          "name": "D3",
          "midi": 50,
          "time": 258.3349661104169,
          "velocity": 0.6929133858267716,
          "duration": 0.8281246687499788
        },
        {
          "name": "C#3",
          "midi": 49,
          "time": 259.16656300000017,
          "velocity": 0.7952755905511811,
          "duration": 0.6180553083333393
        },
        {
          "name": "C#4",
          "midi": 61,
          "time": 259.16829911041685,
          "velocity": 0.7480314960629921,
          "duration": 0.6180553083333393
        },
        {
          "name": "D4",
          "midi": 62,
          "time": 259.7915627500002,
          "velocity": 0.6220472440944882,
          "duration": 0.20486102916669324
        },
        {
          "name": "D3",
          "midi": 50,
          "time": 259.7915627500002,
          "velocity": 0.5984251968503937,
          "duration": 0.20486102916669324
        },
        {
          "name": "E4",
          "midi": 64,
          "time": 259.9998960000002,
          "velocity": 0.6220472440944882,
          "duration": 1.463541081250014
        },
        {
          "name": "E3",
          "midi": 52,
          "time": 259.9998960000002,
          "velocity": 0.7401574803149606,
          "duration": 1.463541081250014
        },
        {
          "name": "C4",
          "midi": 60,
          "time": 261.66482588958354,
          "velocity": 0.6692913385826772,
          "duration": 0.8350691104166685
        },
        {
          "name": "C3",
          "midi": 48,
          "time": 261.66482588958354,
          "velocity": 0.7086614173228346,
          "duration": 0.8315968895833521
        },
        {
          "name": "A4",
          "midi": 69,
          "time": 262.4998950000002,
          "velocity": 0.7244094488188977,
          "duration": 0.6267358604167157
        },
        {
          "name": "A3",
          "midi": 57,
          "time": 262.5016311104169,
          "velocity": 0.6850393700787402,
          "duration": 0.619791418750026
        },
        {
          "name": "G3",
          "midi": 55,
          "time": 263.12489475000024,
          "velocity": 0.6929133858267716,
          "duration": 0.2031249187500066
        },
        {
          "name": "G4",
          "midi": 67,
          "time": 263.1266308604169,
          "velocity": 0.6850393700787402,
          "duration": 0.2048610291666364
        },
        {
          "name": "F4",
          "midi": 65,
          "time": 263.33322800000025,
          "velocity": 0.7165354330708661,
          "duration": 0.8333329999999819
        },
        {
          "name": "F3",
          "midi": 53,
          "time": 263.33322800000025,
          "velocity": 0.6614173228346457,
          "duration": 0.8333329999999819
        },
        {
          "name": "E4",
          "midi": 64,
          "time": 264.1682971104169,
          "velocity": 0.6692913385826772,
          "duration": 0.624999750000029
        },
        {
          "name": "E3",
          "midi": 52,
          "time": 264.1682971104169,
          "velocity": 0.6299212598425197,
          "duration": 0.619791418750026
        },
        {
          "name": "F4",
          "midi": 65,
          "time": 264.79329686041694,
          "velocity": 0.6535433070866141,
          "duration": 0.2031249187500066
        },
        {
          "name": "F3",
          "midi": 53,
          "time": 264.79329686041694,
          "velocity": 0.5905511811023622,
          "duration": 0.2031249187500066
        },
        {
          "name": "G4",
          "midi": 67,
          "time": 265.00163011041695,
          "velocity": 0.6299212598425197,
          "duration": 0.6232636395833424
        },
        {
          "name": "G3",
          "midi": 55,
          "time": 265.00163011041695,
          "velocity": 0.8031496062992126,
          "duration": 0.619791418750026
        },
        {
          "name": "E4",
          "midi": 64,
          "time": 265.626629860417,
          "velocity": 0.6929133858267716,
          "duration": 0.2031249187500066
        },
        {
          "name": "E3",
          "midi": 52,
          "time": 265.626629860417,
          "velocity": 0.6377952755905512,
          "duration": 0.2031249187500066
        },
        {
          "name": "C4",
          "midi": 60,
          "time": 265.834963110417,
          "velocity": 0.7244094488188977,
          "duration": 1.234374506249992
        },
        {
          "name": "C3",
          "midi": 48,
          "time": 265.834963110417,
          "velocity": 0.7244094488188977,
          "duration": 1.0468745812499947
        },
        {
          "name": "C4",
          "midi": 60,
          "time": 267.084962610417,
          "velocity": 0.7165354330708661,
          "duration": 0.4149303895833327
        },
        {
          "name": "C3",
          "midi": 48,
          "time": 267.084962610417,
          "velocity": 0.7244094488188977,
          "duration": 0.4114581687500163
        },
        {
          "name": "A#3",
          "midi": 58,
          "time": 267.4998930000003,
          "velocity": 0.7165354330708661,
          "duration": 0.624999750000029
        },
        {
          "name": "A#2",
          "midi": 46,
          "time": 267.4998930000003,
          "velocity": 0.9133858267716536,
          "duration": 0.619791418750026
        },
        {
          "name": "C4",
          "midi": 60,
          "time": 268.12662886041704,
          "velocity": 0.6692913385826772,
          "duration": 0.20486102916669324
        },
        {
          "name": "C3",
          "midi": 48,
          "time": 268.12662886041704,
          "velocity": 0.7086614173228346,
          "duration": 0.20486102916669324
        },
        {
          "name": "D4",
          "midi": 62,
          "time": 268.33496211041705,
          "velocity": 0.6614173228346457,
          "duration": 0.8298607791666655
        },
        {
          "name": "D3",
          "midi": 50,
          "time": 268.33496211041705,
          "velocity": 0.7244094488188977,
          "duration": 0.8281246687499788
        },
        {
          "name": "C4",
          "midi": 60,
          "time": 269.1665590000004,
          "velocity": 0.8031496062992126,
          "duration": 0.6215275291666558
        },
        {
          "name": "C3",
          "midi": 48,
          "time": 269.1665590000004,
          "velocity": 0.7716535433070866,
          "duration": 0.6180553083333393
        },
        {
          "name": "A#3",
          "midi": 58,
          "time": 269.78982263958375,
          "velocity": 0.7007874015748031,
          "duration": 0.20659713958337989
        },
        {
          "name": "A#2",
          "midi": 46,
          "time": 269.78982263958375,
          "velocity": 0.7952755905511811,
          "duration": 0.20486102916669324
        },
        {
          "name": "A3",
          "midi": 57,
          "time": 269.9964197791671,
          "velocity": 0.7874015748031497,
          "duration": 2.060763064583341
        },
        {
          "name": "A2",
          "midi": 45,
          "time": 270.00162811041713,
          "velocity": 0.7716535433070866,
          "duration": 2.050346402083335
        },
        {
          "name": "A3",
          "midi": 57,
          "time": 272.0919050520838,
          "velocity": 0.8346456692913385,
          "duration": 0.37847207083331114
        },
        {
          "name": "A2",
          "midi": 45,
          "time": 272.0971133833338,
          "velocity": 0.8740157480314961,
          "duration": 0.38715262291663066
        },
        {
          "name": "A#3",
          "midi": 58,
          "time": 272.49989100000045,
          "velocity": 0.7165354330708661,
          "duration": 0.624999750000029
        },
        {
          "name": "A#2",
          "midi": 46,
          "time": 272.49989100000045,
          "velocity": 0.9133858267716536,
          "duration": 0.619791418750026
        },
        {
          "name": "C4",
          "midi": 60,
          "time": 273.12662686041716,
          "velocity": 0.6692913385826772,
          "duration": 0.20486102916669324
        },
        {
          "name": "C3",
          "midi": 48,
          "time": 273.12662686041716,
          "velocity": 0.7086614173228346,
          "duration": 0.20486102916669324
        },
        {
          "name": "D4",
          "midi": 62,
          "time": 273.33496011041717,
          "velocity": 0.6614173228346457,
          "duration": 0.8298607791666655
        },
        {
          "name": "D3",
          "midi": 50,
          "time": 273.33496011041717,
          "velocity": 0.7244094488188977,
          "duration": 0.8281246687499788
        },
        {
          "name": "C4",
          "midi": 60,
          "time": 274.1665570000005,
          "velocity": 0.8031496062992126,
          "duration": 0.6215275291666558
        },
        {
          "name": "C3",
          "midi": 48,
          "time": 274.1665570000005,
          "velocity": 0.7716535433070866,
          "duration": 0.6180553083333393
        },
        {
          "name": "A#3",
          "midi": 58,
          "time": 274.78982063958387,
          "velocity": 0.7007874015748031,
          "duration": 0.20659713958337989
        },
        {
          "name": "A#2",
          "midi": 46,
          "time": 274.78982063958387,
          "velocity": 0.7952755905511811,
          "duration": 0.20486102916669324
        },
        {
          "name": "A3",
          "midi": 57,
          "time": 274.99641777916725,
          "velocity": 0.7874015748031497,
          "duration": 2.060763064583341
        },
        {
          "name": "A2",
          "midi": 45,
          "time": 275.00162611041725,
          "velocity": 0.7716535433070866,
          "duration": 2.050346402083335
        },
        {
          "name": "A3",
          "midi": 57,
          "time": 277.0919030520839,
          "velocity": 0.8346456692913385,
          "duration": 0.37847207083331114
        },
        {
          "name": "A2",
          "midi": 45,
          "time": 277.0971113833339,
          "velocity": 0.8740157480314961,
          "duration": 0.38715262291663066
        },
        {
          "name": "A#3",
          "midi": 58,
          "time": 277.49988900000056,
          "velocity": 0.7165354330708661,
          "duration": 0.624999750000029
        },
        {
          "name": "A#2",
          "midi": 46,
          "time": 277.49988900000056,
          "velocity": 0.9133858267716536,
          "duration": 0.619791418750026
        },
        {
          "name": "C4",
          "midi": 60,
          "time": 278.1266248604173,
          "velocity": 0.6692913385826772,
          "duration": 0.20486102916669324
        },
        {
          "name": "C3",
          "midi": 48,
          "time": 278.1266248604173,
          "velocity": 0.7086614173228346,
          "duration": 0.20486102916669324
        },
        {
          "name": "D4",
          "midi": 62,
          "time": 278.3349581104173,
          "velocity": 0.6614173228346457,
          "duration": 0.8298607791666655
        },
        {
          "name": "D3",
          "midi": 50,
          "time": 278.3349581104173,
          "velocity": 0.7244094488188977,
          "duration": 0.8281246687499788
        },
        {
          "name": "C4",
          "midi": 60,
          "time": 279.16655500000064,
          "velocity": 0.8031496062992126,
          "duration": 0.6215275291666558
        },
        {
          "name": "C3",
          "midi": 48,
          "time": 279.16655500000064,
          "velocity": 0.7716535433070866,
          "duration": 0.6180553083333393
        },
        {
          "name": "A#3",
          "midi": 58,
          "time": 279.789818639584,
          "velocity": 0.7007874015748031,
          "duration": 0.20659713958337989
        },
        {
          "name": "A#2",
          "midi": 46,
          "time": 279.789818639584,
          "velocity": 0.7952755905511811,
          "duration": 0.20486102916669324
        },
        {
          "name": "A3",
          "midi": 57,
          "time": 279.99641577916736,
          "velocity": 0.7559055118110236,
          "duration": 7.482635895833425
        },
        {
          "name": "A2",
          "midi": 45,
          "time": 280.00162411041737,
          "velocity": 0.6929133858267716,
          "duration": 7.4930525583334315
        }
      ],
      "controlChanges": {
        "6": [
          {
            "number": 6,
            "time": 0.21701380208333323,
            "value": 0.015748031496062992
          },
          {
            "number": 6,
            "time": 0.22569435416666656,
            "value": 0.5039370078740157
          },
          {
            "number": 6,
            "time": 0.23437490624999988,
            "value": 0.5039370078740157
          },
          {
            "number": 6,
            "time": 0.2430554583333332,
            "value": 0.5039370078740157
          },
          {
            "number": 6,
            "time": 0.25173601041666654,
            "value": 0.5039370078740157
          },
          {
            "number": 6,
            "time": 0.2604165624999999,
            "value": 0.5039370078740157
          },
          {
            "number": 6,
            "time": 0.26909711458333324,
            "value": 0.5039370078740157
          },
          {
            "number": 6,
            "time": 0.2777776666666666,
            "value": 0.5039370078740157
          },
          {
            "number": 6,
            "time": 0.28645821874999994,
            "value": 0.5039370078740157
          }
        ],
        "7": [
          {
            "number": 7,
            "time": 0.18229159374999995,
            "value": 1
          },
          {
            "number": 7,
            "time": 285.36099696666736,
            "value": 0.7952755905511811
          },
          {
            "number": 7,
            "time": 285.409608058334,
            "value": 0.7795275590551181
          },
          {
            "number": 7,
            "time": 285.518983014584,
            "value": 0.7559055118110236
          },
          {
            "number": 7,
            "time": 285.6144690875007,
            "value": 0.7401574803149606
          },
          {
            "number": 7,
            "time": 285.68044128333406,
            "value": 0.7165354330708661
          },
          {
            "number": 7,
            "time": 285.7273162645841,
            "value": 0.7007874015748031
          },
          {
            "number": 7,
            "time": 285.77592735625075,
            "value": 0.6771653543307087
          },
          {
            "number": 7,
            "time": 285.8384273312507,
            "value": 0.6535433070866141
          },
          {
            "number": 7,
            "time": 285.9026634166674,
            "value": 0.6377952755905512
          },
          {
            "number": 7,
            "time": 285.95127450833405,
            "value": 0.6141732283464567
          },
          {
            "number": 7,
            "time": 285.9651633916674,
            "value": 0.6062992125984252
          },
          {
            "number": 7,
            "time": 285.9807883854174,
            "value": 0.5905511811023622
          },
          {
            "number": 7,
            "time": 285.998149489584,
            "value": 0.5826771653543307
          },
          {
            "number": 7,
            "time": 286.01377448333403,
            "value": 0.5669291338582677
          },
          {
            "number": 7,
            "time": 286.02939947708404,
            "value": 0.5590551181102362
          },
          {
            "number": 7,
            "time": 286.0623855750007,
            "value": 0.5354330708661418
          },
          {
            "number": 7,
            "time": 286.0936355625007,
            "value": 0.5196850393700787
          },
          {
            "number": 7,
            "time": 286.14051054375074,
            "value": 0.49606299212598426
          },
          {
            "number": 7,
            "time": 286.18738552500076,
            "value": 0.47244094488188976
          },
          {
            "number": 7,
            "time": 286.2359966166674,
            "value": 0.4566929133858268
          },
          {
            "number": 7,
            "time": 286.2984965916674,
            "value": 0.4330708661417323
          },
          {
            "number": 7,
            "time": 286.3957187750007,
            "value": 0.41732283464566927
          },
          {
            "number": 7,
            "time": 286.4738437437507,
            "value": 0.3937007874015748
          },
          {
            "number": 7,
            "time": 286.5380798291674,
            "value": 0.3700787401574803
          },
          {
            "number": 7,
            "time": 286.60231591458404,
            "value": 0.3464566929133858
          },
          {
            "number": 7,
            "time": 286.64919089583407,
            "value": 0.3228346456692913
          },
          {
            "number": 7,
            "time": 286.6978019875007,
            "value": 0.2992125984251969
          },
          {
            "number": 7,
            "time": 286.74467696875075,
            "value": 0.2755905511811024
          },
          {
            "number": 7,
            "time": 286.7932880604174,
            "value": 0.25196850393700787
          },
          {
            "number": 7,
            "time": 286.8089130541674,
            "value": 0.2440944881889764
          },
          {
            "number": 7,
            "time": 286.85578803541745,
            "value": 0.2204724409448819
          },
          {
            "number": 7,
            "time": 286.9043991270841,
            "value": 0.1968503937007874
          },
          {
            "number": 7,
            "time": 286.95127410833413,
            "value": 0.18110236220472442
          },
          {
            "number": 7,
            "time": 287.0155101937508,
            "value": 0.15748031496062992
          },
          {
            "number": 7,
            "time": 287.0936351625008,
            "value": 0.13385826771653545
          },
          {
            "number": 7,
            "time": 287.1908573458341,
            "value": 0.11811023622047244
          },
          {
            "number": 7,
            "time": 287.2863434187508,
            "value": 0.09448818897637795
          }
        ],
        "10": [
          {
            "number": 10,
            "time": 0.19097214583333327,
            "value": 0.5039370078740157
          }
        ],
        "32": [
          {
            "number": 32,
            "time": 0.1649304895833333,
            "value": 1
          }
        ],
        "91": [
          {
            "number": 91,
            "time": 0.1996526979166666,
            "value": 0.8267716535433071
          }
        ],
        "93": [
          {
            "number": 93,
            "time": 0.20833324999999991,
            "value": 0.7165354330708661
          }
        ],
        "98": [
          {
            "number": 98,
            "time": 0.22569435416666656,
            "value": 0.06299212598425197
          },
          {
            "number": 98,
            "time": 0.23437490624999988,
            "value": 0.07086614173228346
          },
          {
            "number": 98,
            "time": 0.2430554583333332,
            "value": 0.07874015748031496
          },
          {
            "number": 98,
            "time": 0.25173601041666654,
            "value": 0.25196850393700787
          },
          {
            "number": 98,
            "time": 0.2604165624999999,
            "value": 0.25984251968503935
          },
          {
            "number": 98,
            "time": 0.26909711458333324,
            "value": 0.7795275590551181
          },
          {
            "number": 98,
            "time": 0.2777776666666666,
            "value": 0.7874015748031497
          },
          {
            "number": 98,
            "time": 0.28645821874999994,
            "value": 0.8031496062992126
          }
        ],
        "99": [
          {
            "number": 99,
            "time": 0.22569435416666656,
            "value": 0.007874015748031496
          },
          {
            "number": 99,
            "time": 0.23437490624999988,
            "value": 0.007874015748031496
          },
          {
            "number": 99,
            "time": 0.2430554583333332,
            "value": 0.007874015748031496
          },
          {
            "number": 99,
            "time": 0.25173601041666654,
            "value": 0.007874015748031496
          },
          {
            "number": 99,
            "time": 0.2604165624999999,
            "value": 0.007874015748031496
          },
          {
            "number": 99,
            "time": 0.26909711458333324,
            "value": 0.007874015748031496
          },
          {
            "number": 99,
            "time": 0.2777776666666666,
            "value": 0.007874015748031496
          },
          {
            "number": 99,
            "time": 0.28645821874999994,
            "value": 0.007874015748031496
          }
        ],
        "100": [
          {
            "number": 100,
            "time": 0.21701380208333323,
            "value": 0
          }
        ],
        "101": [
          {
            "number": 101,
            "time": 0.21701380208333323,
            "value": 0
          }
        ]
      },
      "id": 2,
      "name": "Vocal",
      "instrumentNumber": 54,
      "instrument": "synth voice",
      "instrumentFamily": "ensemble",
      "channelNumber": 1,
      "isPercussion": false
    },
    {
      "startTime": 22.499991,
      "duration": 291.6196750187501,
      "length": 236,
      "notes": [
        {
          "name": "A4",
          "midi": 69,
          "time": 22.499991,
          "velocity": 0.5118110236220472,
          "duration": 7.498260889583332
        },
        {
          "name": "F4",
          "midi": 65,
          "time": 22.499991,
          "velocity": 0.3700787401574803,
          "duration": 2.493054558333334
        },
        {
          "name": "D4",
          "midi": 62,
          "time": 22.499991,
          "velocity": 0.4566929133858268,
          "duration": 2.4635406812499987
        },
        {
          "name": "G4",
          "midi": 67,
          "time": 24.972212233333334,
          "velocity": 0.5118110236220472,
          "duration": 2.5086795520833327
        },
        {
          "name": "E4",
          "midi": 64,
          "time": 24.972212233333334,
          "velocity": 0.5196850393700787,
          "duration": 2.4895823375
        },
        {
          "name": "D4",
          "midi": 62,
          "time": 27.44269735625,
          "velocity": 0.4251968503937008,
          "duration": 2.5052073312499985
        },
        {
          "name": "F4",
          "midi": 65,
          "time": 27.461794570833334,
          "velocity": 0.3937007874015748,
          "duration": 2.5381934291666646
        },
        {
          "name": "C4",
          "midi": 60,
          "time": 29.94269635625,
          "velocity": 0.47244094488188976,
          "duration": 7.529510877083336
        },
        {
          "name": "E4",
          "midi": 64,
          "time": 29.94269635625,
          "velocity": 0.5118110236220472,
          "duration": 2.5225684354166695
        },
        {
          "name": "G4",
          "midi": 67,
          "time": 29.946168577083334,
          "velocity": 0.48031496062992124,
          "duration": 2.5052073312499985
        },
        {
          "name": "F4",
          "midi": 65,
          "time": 32.4270703625,
          "velocity": 0.4566929133858268,
          "duration": 2.527776766666669
        },
        {
          "name": "A4",
          "midi": 69,
          "time": 32.45137590833333,
          "velocity": 0.4566929133858268,
          "duration": 2.4999990000000025
        },
        {
          "name": "E4",
          "midi": 64,
          "time": 34.914916589583335,
          "velocity": 0.4645669291338583,
          "duration": 2.562498974999997
        },
        {
          "name": "G4",
          "midi": 67,
          "time": 34.9166527,
          "velocity": 0.5039370078740157,
          "duration": 2.5798600791666644
        },
        {
          "name": "D4",
          "midi": 62,
          "time": 37.472207233333336,
          "velocity": 0.5511811023622047,
          "duration": 2.4861101166666657
        },
        {
          "name": "F4",
          "midi": 65,
          "time": 37.47394334375,
          "velocity": 0.4251968503937008,
          "duration": 2.5243045458333313
        },
        {
          "name": "A#4",
          "midi": 70,
          "time": 37.479151675,
          "velocity": 0.2755905511811024,
          "duration": 2.5208323250000007
        },
        {
          "name": "E4",
          "midi": 64,
          "time": 39.9687340125,
          "velocity": 0.5590551181102362,
          "duration": 4.991317447916664
        },
        {
          "name": "A4",
          "midi": 69,
          "time": 39.97220623333333,
          "velocity": 0.4645669291338583,
          "duration": 5.013886883333335
        },
        {
          "name": "C#4",
          "midi": 61,
          "time": 39.984359006249996,
          "velocity": 0.5511811023622047,
          "duration": 4.980900785416672
        },
        {
          "name": "A4",
          "midi": 69,
          "time": 44.999982,
          "velocity": 0.5118110236220472,
          "duration": 7.498260889583328
        },
        {
          "name": "F4",
          "midi": 65,
          "time": 44.999982,
          "velocity": 0.3700787401574803,
          "duration": 2.493054558333334
        },
        {
          "name": "D4",
          "midi": 62,
          "time": 44.999982,
          "velocity": 0.4566929133858268,
          "duration": 2.4635406812500023
        },
        {
          "name": "G4",
          "midi": 67,
          "time": 47.47220323333334,
          "velocity": 0.5118110236220472,
          "duration": 2.508679552083329
        },
        {
          "name": "E4",
          "midi": 64,
          "time": 47.47220323333334,
          "velocity": 0.5196850393700787,
          "duration": 2.4895823374999964
        },
        {
          "name": "D4",
          "midi": 62,
          "time": 49.94268835625,
          "velocity": 0.4251968503937008,
          "duration": 2.5052073312499985
        },
        {
          "name": "F4",
          "midi": 65,
          "time": 49.961785570833335,
          "velocity": 0.3937007874015748,
          "duration": 2.538193429166661
        },
        {
          "name": "C4",
          "midi": 60,
          "time": 52.442687356250005,
          "velocity": 0.47244094488188976,
          "duration": 7.529510877083332
        },
        {
          "name": "E4",
          "midi": 64,
          "time": 52.442687356250005,
          "velocity": 0.5118110236220472,
          "duration": 2.522568435416666
        },
        {
          "name": "G4",
          "midi": 67,
          "time": 52.446159577083336,
          "velocity": 0.48031496062992124,
          "duration": 2.5052073312499985
        },
        {
          "name": "F4",
          "midi": 65,
          "time": 54.9270613625,
          "velocity": 0.4566929133858268,
          "duration": 2.527776766666669
        },
        {
          "name": "A4",
          "midi": 69,
          "time": 54.951366908333334,
          "velocity": 0.4566929133858268,
          "duration": 2.4999990000000025
        },
        {
          "name": "E4",
          "midi": 64,
          "time": 57.414907589583336,
          "velocity": 0.4645669291338583,
          "duration": 2.562498974999997
        },
        {
          "name": "G4",
          "midi": 67,
          "time": 57.4166437,
          "velocity": 0.5039370078740157,
          "duration": 2.5798600791666644
        },
        {
          "name": "D4",
          "midi": 62,
          "time": 59.97219823333334,
          "velocity": 0.5511811023622047,
          "duration": 2.4861101166666586
        },
        {
          "name": "F4",
          "midi": 65,
          "time": 59.97393434375,
          "velocity": 0.4251968503937008,
          "duration": 2.524304545833324
        },
        {
          "name": "A#4",
          "midi": 70,
          "time": 59.979142675,
          "velocity": 0.2755905511811024,
          "duration": 2.5208323249999935
        },
        {
          "name": "E4",
          "midi": 64,
          "time": 62.468725012499995,
          "velocity": 0.5590551181102362,
          "duration": 2.5312489874999997
        },
        {
          "name": "A4",
          "midi": 69,
          "time": 62.472197233333326,
          "velocity": 0.4645669291338583,
          "duration": 2.527776766666669
        },
        {
          "name": "C#4",
          "midi": 61,
          "time": 62.48435000624999,
          "velocity": 0.5511811023622047,
          "duration": 2.5156239937500047
        },
        {
          "name": "A4",
          "midi": 69,
          "time": 64.999974,
          "velocity": 0.7086614173228346,
          "duration": 7.498260889583349
        },
        {
          "name": "F4",
          "midi": 65,
          "time": 64.999974,
          "velocity": 0.5669291338582677,
          "duration": 2.493054558333327
        },
        {
          "name": "D4",
          "midi": 62,
          "time": 64.999974,
          "velocity": 0.6535433070866141,
          "duration": 2.463540681249995
        },
        {
          "name": "G4",
          "midi": 67,
          "time": 67.47219523333332,
          "velocity": 0.7086614173228346,
          "duration": 2.5086795520833505
        },
        {
          "name": "E4",
          "midi": 64,
          "time": 67.47219523333332,
          "velocity": 0.7165354330708661,
          "duration": 2.4895823375000106
        },
        {
          "name": "D4",
          "midi": 62,
          "time": 69.94268035625,
          "velocity": 0.6220472440944882,
          "duration": 2.50520733125002
        },
        {
          "name": "F4",
          "midi": 65,
          "time": 69.96177757083333,
          "velocity": 0.5905511811023622,
          "duration": 2.5381934291666823
        },
        {
          "name": "C4",
          "midi": 60,
          "time": 72.44267935625001,
          "velocity": 0.6692913385826772,
          "duration": 7.529510877083354
        },
        {
          "name": "E4",
          "midi": 64,
          "time": 72.44267935625001,
          "velocity": 0.7086614173228346,
          "duration": 2.522568435416673
        },
        {
          "name": "G4",
          "midi": 67,
          "time": 72.44615157708334,
          "velocity": 0.6771653543307087,
          "duration": 2.5052073312500056
        },
        {
          "name": "F4",
          "midi": 65,
          "time": 74.92705336250002,
          "velocity": 0.6535433070866141,
          "duration": 2.527776766666676
        },
        {
          "name": "A4",
          "midi": 69,
          "time": 74.95135890833335,
          "velocity": 0.6535433070866141,
          "duration": 2.4999990000000167
        },
        {
          "name": "E4",
          "midi": 64,
          "time": 77.41489958958336,
          "velocity": 0.6614173228346457,
          "duration": 2.562498975000011
        },
        {
          "name": "G4",
          "midi": 67,
          "time": 77.41663570000003,
          "velocity": 0.7007874015748031,
          "duration": 2.5798600791666786
        },
        {
          "name": "D4",
          "midi": 62,
          "time": 79.97219023333336,
          "velocity": 0.7480314960629921,
          "duration": 2.48611011666668
        },
        {
          "name": "F4",
          "midi": 65,
          "time": 79.97392634375004,
          "velocity": 0.6220472440944882,
          "duration": 2.5243045458333455
        },
        {
          "name": "A#4",
          "midi": 70,
          "time": 79.97913467500004,
          "velocity": 0.47244094488188976,
          "duration": 2.520832325000015
        },
        {
          "name": "E4",
          "midi": 64,
          "time": 82.46871701250005,
          "velocity": 0.7559055118110236,
          "duration": 4.991317447916671
        },
        {
          "name": "A4",
          "midi": 69,
          "time": 82.47218923333338,
          "velocity": 0.6614173228346457,
          "duration": 5.013886883333342
        },
        {
          "name": "C#4",
          "midi": 61,
          "time": 82.48434200625005,
          "velocity": 0.7480314960629921,
          "duration": 4.980900785416679
        },
        {
          "name": "A4",
          "midi": 69,
          "time": 87.49996500000006,
          "velocity": 0.905511811023622,
          "duration": 7.498260889583349
        },
        {
          "name": "F4",
          "midi": 65,
          "time": 87.49996500000006,
          "velocity": 0.7637795275590551,
          "duration": 2.493054558333327
        },
        {
          "name": "D4",
          "midi": 62,
          "time": 87.49996500000006,
          "velocity": 0.8503937007874016,
          "duration": 2.463540681249995
        },
        {
          "name": "G4",
          "midi": 67,
          "time": 89.97218623333339,
          "velocity": 0.905511811023622,
          "duration": 2.5086795520833505
        },
        {
          "name": "E4",
          "midi": 64,
          "time": 89.97218623333339,
          "velocity": 0.9133858267716536,
          "duration": 2.4895823375000106
        },
        {
          "name": "D4",
          "midi": 62,
          "time": 92.44267135625006,
          "velocity": 0.8188976377952756,
          "duration": 2.50520733125002
        },
        {
          "name": "F4",
          "midi": 65,
          "time": 92.4617685708334,
          "velocity": 0.7874015748031497,
          "duration": 2.5381934291666823
        },
        {
          "name": "C4",
          "midi": 60,
          "time": 94.94267035625008,
          "velocity": 0.8661417322834646,
          "duration": 7.529510877083354
        },
        {
          "name": "E4",
          "midi": 64,
          "time": 94.94267035625008,
          "velocity": 0.905511811023622,
          "duration": 2.522568435416673
        },
        {
          "name": "G4",
          "midi": 67,
          "time": 94.9461425770834,
          "velocity": 0.8740157480314961,
          "duration": 2.5052073312500056
        },
        {
          "name": "F4",
          "midi": 65,
          "time": 97.42704436250008,
          "velocity": 0.8503937007874016,
          "duration": 2.527776766666676
        },
        {
          "name": "A4",
          "midi": 69,
          "time": 97.45134990833341,
          "velocity": 0.8503937007874016,
          "duration": 2.4999990000000167
        },
        {
          "name": "E4",
          "midi": 64,
          "time": 99.91489058958342,
          "velocity": 0.8582677165354331,
          "duration": 2.562498975000011
        },
        {
          "name": "G4",
          "midi": 67,
          "time": 99.9166267000001,
          "velocity": 0.8976377952755905,
          "duration": 2.5798600791666786
        },
        {
          "name": "D4",
          "midi": 62,
          "time": 102.47218123333343,
          "velocity": 0.9448818897637795,
          "duration": 2.48611011666668
        },
        {
          "name": "F4",
          "midi": 65,
          "time": 102.4739173437501,
          "velocity": 0.8188976377952756,
          "duration": 2.5243045458333455
        },
        {
          "name": "A#4",
          "midi": 70,
          "time": 102.4791256750001,
          "velocity": 0.6692913385826772,
          "duration": 2.520832325000015
        },
        {
          "name": "E4",
          "midi": 64,
          "time": 104.96870801250012,
          "velocity": 0.952755905511811,
          "duration": 4.9913174479166145
        },
        {
          "name": "A4",
          "midi": 69,
          "time": 104.97218023333345,
          "velocity": 0.8582677165354331,
          "duration": 5.013886883333285
        },
        {
          "name": "C#4",
          "midi": 61,
          "time": 104.98433300625011,
          "velocity": 0.9448818897637795,
          "duration": 4.9809007854166225
        },
        {
          "name": "E6",
          "midi": 88,
          "time": 127.51036566250006,
          "velocity": 0.9448818897637795,
          "duration": 0.8038191229166642
        },
        {
          "name": "F#6",
          "midi": 90,
          "time": 128.31071256458338,
          "velocity": 0.889763779527559,
          "duration": 0.8211802270833459
        },
        {
          "name": "G6",
          "midi": 91,
          "time": 129.14751778541674,
          "velocity": 0.9448818897637795,
          "duration": 0.8263885583333206
        },
        {
          "name": "A6",
          "midi": 93,
          "time": 130.00168411041673,
          "velocity": 0.9212598425196851,
          "duration": 2.4965267791666577
        },
        {
          "name": "B6",
          "midi": 95,
          "time": 132.52251643541672,
          "velocity": 0.6377952755905512,
          "duration": 0.7916663499999856
        },
        {
          "name": "A6",
          "midi": 93,
          "time": 133.30723834375004,
          "velocity": 0.6141732283464567,
          "duration": 0.8420135520833298
        },
        {
          "name": "G6",
          "midi": 91,
          "time": 134.14404356458337,
          "velocity": 0.6141732283464567,
          "duration": 0.8506941041666778
        },
        {
          "name": "A6",
          "midi": 93,
          "time": 135.01383488333337,
          "velocity": 0.7086614173228346,
          "duration": 2.4340268041666775
        },
        {
          "name": "B6",
          "midi": 95,
          "time": 137.46001446041672,
          "velocity": 0.5590551181102362,
          "duration": 0.8281246687500072
        },
        {
          "name": "A6",
          "midi": 93,
          "time": 138.3193891166667,
          "velocity": 0.6535433070866141,
          "duration": 0.8211802270833459
        },
        {
          "name": "G6",
          "midi": 91,
          "time": 139.15793044791673,
          "velocity": 0.6220472440944882,
          "duration": 0.8385413312500134
        },
        {
          "name": "D7",
          "midi": 98,
          "time": 140.0086245520834,
          "velocity": 0.8661417322834646,
          "duration": 0.6024303145833301
        },
        {
          "name": "A6",
          "midi": 93,
          "time": 140.6336243020834,
          "velocity": 0.9212598425196851,
          "duration": 1.7951381708333258
        },
        {
          "name": "B6",
          "midi": 95,
          "time": 142.46001246041672,
          "velocity": 0.5039370078740157,
          "duration": 0.8281246687500072
        },
        {
          "name": "C#7",
          "midi": 97,
          "time": 143.30897045416674,
          "velocity": 0.47244094488188976,
          "duration": 0.8420135520833298
        },
        {
          "name": "D7",
          "midi": 98,
          "time": 144.16140066875008,
          "velocity": 0.6299212598425197,
          "duration": 0.8385413312500134
        },
        {
          "name": "F#6",
          "midi": 90,
          "time": 145.0051503312501,
          "velocity": 0.7007874015748031,
          "duration": 2.3177074062500083
        },
        {
          "name": "A4",
          "midi": 69,
          "time": 149.9999400000001,
          "velocity": 0.7480314960629921,
          "duration": 7.498260889583349
        },
        {
          "name": "F4",
          "midi": 65,
          "time": 149.9999400000001,
          "velocity": 0.6062992125984252,
          "duration": 2.493054558333341
        },
        {
          "name": "D4",
          "midi": 62,
          "time": 149.9999400000001,
          "velocity": 0.6929133858267716,
          "duration": 2.4635406812500094
        },
        {
          "name": "G4",
          "midi": 67,
          "time": 152.47216123333342,
          "velocity": 0.7480314960629921,
          "duration": 2.5086795520833505
        },
        {
          "name": "E4",
          "midi": 64,
          "time": 152.47216123333342,
          "velocity": 0.7559055118110236,
          "duration": 2.4895823375000248
        },
        {
          "name": "A5",
          "midi": 81,
          "time": 153.29681368125011,
          "velocity": 0.8503937007874016,
          "duration": 0.8420135520833298
        },
        {
          "name": "C#6",
          "midi": 85,
          "time": 154.15445222708345,
          "velocity": 0.7637795275590551,
          "duration": 0.8420135520833298
        },
        {
          "name": "D4",
          "midi": 62,
          "time": 154.94264635625012,
          "velocity": 0.6614173228346457,
          "duration": 2.505207331249977
        },
        {
          "name": "F4",
          "midi": 65,
          "time": 154.96174357083345,
          "velocity": 0.6299212598425197,
          "duration": 2.538193429166654
        },
        {
          "name": "A5",
          "midi": 81,
          "time": 155.02250743541677,
          "velocity": 0.7165354330708661,
          "duration": 2.477429564583332
        },
        {
          "name": "C4",
          "midi": 60,
          "time": 157.4426453562501,
          "velocity": 0.7086614173228346,
          "duration": 7.529510877083226
        },
        {
          "name": "E4",
          "midi": 64,
          "time": 157.4426453562501,
          "velocity": 0.7480314960629921,
          "duration": 2.5225684354166447
        },
        {
          "name": "G4",
          "midi": 67,
          "time": 157.44611757708344,
          "velocity": 0.7165354330708661,
          "duration": 2.505207331249977
        },
        {
          "name": "G6",
          "midi": 91,
          "time": 159.1666030000001,
          "velocity": 0.7637795275590551,
          "duration": 0.8333329999999819
        },
        {
          "name": "F4",
          "midi": 65,
          "time": 159.9270193625001,
          "velocity": 0.6929133858267716,
          "duration": 2.5277767666666477
        },
        {
          "name": "A4",
          "midi": 69,
          "time": 159.95132490833342,
          "velocity": 0.6929133858267716,
          "duration": 2.499998999999974
        },
        {
          "name": "A6",
          "midi": 93,
          "time": 160.00688044166674,
          "velocity": 0.6614173228346457,
          "duration": 0.8194441166666593
        },
        {
          "name": "G6",
          "midi": 91,
          "time": 160.8367412208334,
          "velocity": 0.6850393700787402,
          "duration": 0.8749996500000066
        },
        {
          "name": "F6",
          "midi": 89,
          "time": 161.70479642916675,
          "velocity": 0.7244094488188977,
          "duration": 0.7586802520833089
        },
        {
          "name": "E4",
          "midi": 64,
          "time": 162.4148655895834,
          "velocity": 0.7007874015748031,
          "duration": 2.562498974999926
        },
        {
          "name": "G4",
          "midi": 67,
          "time": 162.41660170000006,
          "velocity": 0.7401574803149606,
          "duration": 2.5798600791665933
        },
        {
          "name": "E6",
          "midi": 88,
          "time": 162.47215723333338,
          "velocity": 0.7401574803149606,
          "duration": 0.90451352708331
        },
        {
          "name": "G6",
          "midi": 91,
          "time": 163.33326800000003,
          "velocity": 0.7874015748031497,
          "duration": 0.8107635645833113
        },
        {
          "name": "C7",
          "midi": 96,
          "time": 164.15271211666666,
          "velocity": 0.7244094488188977,
          "duration": 0.8368052208333268
        },
        {
          "name": "D4",
          "midi": 62,
          "time": 164.97215623333332,
          "velocity": 0.7874015748031497,
          "duration": 2.4861101166666515
        },
        {
          "name": "F4",
          "midi": 65,
          "time": 164.97389234374998,
          "velocity": 0.6614173228346457,
          "duration": 2.5243045458333313
        },
        {
          "name": "A#6",
          "midi": 94,
          "time": 164.97910067499998,
          "velocity": 0.8661417322834646,
          "duration": 2.453124018750003
        },
        {
          "name": "A#4",
          "midi": 70,
          "time": 164.97910067499998,
          "velocity": 0.5118110236220472,
          "duration": 2.5208323249999864
        },
        {
          "name": "D6",
          "midi": 86,
          "time": 164.999934,
          "velocity": 0.5905511811023622,
          "duration": 2.499998999999974
        },
        {
          "name": "C#7",
          "midi": 97,
          "time": 167.41486358958332,
          "velocity": 0.6141732283464567,
          "duration": 2.5312489874999926
        },
        {
          "name": "C#4",
          "midi": 61,
          "time": 167.49993299999997,
          "velocity": 0.7480314960629921,
          "duration": 2.4652767916666676
        },
        {
          "name": "E4",
          "midi": 64,
          "time": 167.49993299999997,
          "velocity": 0.7559055118110236,
          "duration": 2.4600684604166645
        },
        {
          "name": "A4",
          "midi": 69,
          "time": 167.49993299999997,
          "velocity": 0.6614173228346457,
          "duration": 2.48611011666668
        },
        {
          "name": "A4",
          "midi": 69,
          "time": 169.99993199999997,
          "velocity": 0.905511811023622,
          "duration": 7.498260889583321
        },
        {
          "name": "F4",
          "midi": 65,
          "time": 169.99993199999997,
          "velocity": 0.7637795275590551,
          "duration": 2.493054558333341
        },
        {
          "name": "D4",
          "midi": 62,
          "time": 169.99993199999997,
          "velocity": 0.8503937007874016,
          "duration": 2.4635406812500094
        },
        {
          "name": "G4",
          "midi": 67,
          "time": 172.4721532333333,
          "velocity": 0.905511811023622,
          "duration": 2.508679552083322
        },
        {
          "name": "E4",
          "midi": 64,
          "time": 172.4721532333333,
          "velocity": 0.9133858267716536,
          "duration": 2.4895823374999964
        },
        {
          "name": "D4",
          "midi": 62,
          "time": 174.94263835624997,
          "velocity": 0.8188976377952756,
          "duration": 2.505207331249977
        },
        {
          "name": "F4",
          "midi": 65,
          "time": 174.9617355708333,
          "velocity": 0.7874015748031497,
          "duration": 2.538193429166654
        },
        {
          "name": "C4",
          "midi": 60,
          "time": 177.44263735624995,
          "velocity": 0.8661417322834646,
          "duration": 7.529510877083311
        },
        {
          "name": "E4",
          "midi": 64,
          "time": 177.44263735624995,
          "velocity": 0.905511811023622,
          "duration": 2.5225684354166447
        },
        {
          "name": "G4",
          "midi": 67,
          "time": 177.4461095770833,
          "velocity": 0.8740157480314961,
          "duration": 2.505207331249977
        },
        {
          "name": "C7",
          "midi": 96,
          "time": 177.50513733124995,
          "velocity": 0.7716535433070866,
          "duration": 0.8593746562499973
        },
        {
          "name": "G6",
          "midi": 91,
          "time": 178.35583143541663,
          "velocity": 0.8346456692913385,
          "duration": 0.7881941291666408
        },
        {
          "name": "C6",
          "midi": 84,
          "time": 179.15965055833328,
          "velocity": 0.8818897637795275,
          "duration": 2.07812416874998
        },
        {
          "name": "F4",
          "midi": 65,
          "time": 179.92701136249994,
          "velocity": 0.8503937007874016,
          "duration": 2.527776766666676
        },
        {
          "name": "A4",
          "midi": 69,
          "time": 179.95131690833327,
          "velocity": 0.8503937007874016,
          "duration": 2.4999990000000025
        },
        {
          "name": "A6",
          "midi": 93,
          "time": 181.70305231874994,
          "velocity": 0.8976377952755905,
          "duration": 0.7534719208333343
        },
        {
          "name": "E4",
          "midi": 64,
          "time": 182.41485758958328,
          "velocity": 0.8582677165354331,
          "duration": 2.5624989749999827
        },
        {
          "name": "G4",
          "midi": 67,
          "time": 182.41659369999994,
          "velocity": 0.8976377952755905,
          "duration": 2.57986007916665
        },
        {
          "name": "C7",
          "midi": 96,
          "time": 182.46346868124994,
          "velocity": 0.8503937007874016,
          "duration": 2.5364573187499957
        },
        {
          "name": "D4",
          "midi": 62,
          "time": 184.97214823333326,
          "velocity": 0.9448818897637795,
          "duration": 2.48611011666668
        },
        {
          "name": "F4",
          "midi": 65,
          "time": 184.97388434374992,
          "velocity": 0.8188976377952756,
          "duration": 2.5243045458333597
        },
        {
          "name": "A#4",
          "midi": 70,
          "time": 184.97909267499992,
          "velocity": 0.6692913385826772,
          "duration": 2.520832325000015
        },
        {
          "name": "D6",
          "midi": 86,
          "time": 185.01902321458326,
          "velocity": 0.8503937007874016,
          "duration": 2.480901785416677
        },
        {
          "name": "E4",
          "midi": 64,
          "time": 187.46867501249994,
          "velocity": 0.7952755905511811,
          "duration": 4.991317447916657
        },
        {
          "name": "A4",
          "midi": 69,
          "time": 187.4721472333333,
          "velocity": 0.7007874015748031,
          "duration": 5.013886883333328
        },
        {
          "name": "C#4",
          "midi": 61,
          "time": 187.48430000624995,
          "velocity": 0.7874015748031497,
          "duration": 4.980900785416651
        },
        {
          "name": "C#6",
          "midi": 85,
          "time": 187.5172861041666,
          "velocity": 0.6456692913385826,
          "duration": 3.496526379166653
        },
        {
          "name": "E6",
          "midi": 88,
          "time": 210.01033266249993,
          "velocity": 0.9448818897637795,
          "duration": 0.8038191229166785
        },
        {
          "name": "F#6",
          "midi": 90,
          "time": 210.81067956458327,
          "velocity": 0.889763779527559,
          "duration": 0.8211802270833459
        },
        {
          "name": "G6",
          "midi": 91,
          "time": 211.64748478541662,
          "velocity": 0.9448818897637795,
          "duration": 0.8263885583333206
        },
        {
          "name": "A6",
          "midi": 93,
          "time": 212.50165111041662,
          "velocity": 0.9212598425196851,
          "duration": 2.4965267791666577
        },
        {
          "name": "B6",
          "midi": 95,
          "time": 215.0224834354166,
          "velocity": 0.6377952755905512,
          "duration": 0.7916663499999856
        },
        {
          "name": "A6",
          "midi": 93,
          "time": 215.80720534374993,
          "velocity": 0.6141732283464567,
          "duration": 0.8420135520833298
        },
        {
          "name": "G6",
          "midi": 91,
          "time": 216.64401056458325,
          "velocity": 0.6141732283464567,
          "duration": 0.8506941041666778
        },
        {
          "name": "A6",
          "midi": 93,
          "time": 217.51380188333326,
          "velocity": 0.7086614173228346,
          "duration": 2.4340268041666775
        },
        {
          "name": "B6",
          "midi": 95,
          "time": 219.9599814604166,
          "velocity": 0.5590551181102362,
          "duration": 0.8281246687500072
        },
        {
          "name": "A6",
          "midi": 93,
          "time": 220.8193561166666,
          "velocity": 0.6535433070866141,
          "duration": 0.8211802270833459
        },
        {
          "name": "G6",
          "midi": 91,
          "time": 221.6578974479166,
          "velocity": 0.6220472440944882,
          "duration": 0.8385413312500134
        },
        {
          "name": "D7",
          "midi": 98,
          "time": 222.5085915520833,
          "velocity": 0.8661417322834646,
          "duration": 0.6024303145833301
        },
        {
          "name": "A6",
          "midi": 93,
          "time": 223.1335913020833,
          "velocity": 0.9212598425196851,
          "duration": 1.7951381708333258
        },
        {
          "name": "B6",
          "midi": 95,
          "time": 224.9599794604166,
          "velocity": 0.5039370078740157,
          "duration": 0.8281246687500072
        },
        {
          "name": "C#7",
          "midi": 97,
          "time": 225.80893745416662,
          "velocity": 0.47244094488188976,
          "duration": 0.8420135520833298
        },
        {
          "name": "D7",
          "midi": 98,
          "time": 226.66136766874996,
          "velocity": 0.6299212598425197,
          "duration": 0.8385413312500134
        },
        {
          "name": "F#6",
          "midi": 90,
          "time": 227.50511733124998,
          "velocity": 0.7007874015748031,
          "duration": 2.3177074062500083
        },
        {
          "name": "A4",
          "midi": 69,
          "time": 232.49990699999998,
          "velocity": 0.7480314960629921,
          "duration": 7.4982608895832925
        },
        {
          "name": "F4",
          "midi": 65,
          "time": 232.49990699999998,
          "velocity": 0.6062992125984252,
          "duration": 2.493054558333341
        },
        {
          "name": "D4",
          "midi": 62,
          "time": 232.49990699999998,
          "velocity": 0.6929133858267716,
          "duration": 2.4635406812500094
        },
        {
          "name": "G4",
          "midi": 67,
          "time": 234.9721282333333,
          "velocity": 0.7480314960629921,
          "duration": 2.508679552083322
        },
        {
          "name": "E4",
          "midi": 64,
          "time": 234.9721282333333,
          "velocity": 0.7559055118110236,
          "duration": 2.4895823374999964
        },
        {
          "name": "C#6",
          "midi": 85,
          "time": 236.65268311666665,
          "velocity": 0.8503937007874016,
          "duration": 0.8350691104166401
        },
        {
          "name": "D4",
          "midi": 62,
          "time": 237.44261335624998,
          "velocity": 0.6614173228346457,
          "duration": 2.505207331249977
        },
        {
          "name": "F4",
          "midi": 65,
          "time": 237.4617105708333,
          "velocity": 0.6299212598425197,
          "duration": 2.5381934291666255
        },
        {
          "name": "D6",
          "midi": 86,
          "time": 237.4964327791666,
          "velocity": 0.7716535433070866,
          "duration": 2.493054558333341
        },
        {
          "name": "C4",
          "midi": 60,
          "time": 239.94261235624995,
          "velocity": 0.7086614173228346,
          "duration": 7.529510877083283
        },
        {
          "name": "E4",
          "midi": 64,
          "time": 239.94261235624995,
          "velocity": 0.7480314960629921,
          "duration": 2.5225684354166162
        },
        {
          "name": "G4",
          "midi": 67,
          "time": 239.9460845770833,
          "velocity": 0.7165354330708661,
          "duration": 2.5052073312499488
        },
        {
          "name": "G6",
          "midi": 91,
          "time": 241.66656999999992,
          "velocity": 0.7637795275590551,
          "duration": 0.8333329999999819
        },
        {
          "name": "F4",
          "midi": 65,
          "time": 242.42698636249992,
          "velocity": 0.6929133858267716,
          "duration": 2.5277767666666477
        },
        {
          "name": "A4",
          "midi": 69,
          "time": 242.45129190833325,
          "velocity": 0.6929133858267716,
          "duration": 2.499998999999974
        },
        {
          "name": "F6",
          "midi": 89,
          "time": 242.50684744166657,
          "velocity": 0.6850393700787402,
          "duration": 2.477429564583332
        },
        {
          "name": "E4",
          "midi": 64,
          "time": 244.91483258958323,
          "velocity": 0.7007874015748031,
          "duration": 2.562498975000011
        },
        {
          "name": "G4",
          "midi": 67,
          "time": 244.91656869999989,
          "velocity": 0.7401574803149606,
          "duration": 2.5798600791666786
        },
        {
          "name": "E6",
          "midi": 88,
          "time": 244.97212423333323,
          "velocity": 0.6299212598425197,
          "duration": 2.506943441666664
        },
        {
          "name": "D4",
          "midi": 62,
          "time": 247.47212323333324,
          "velocity": 0.7874015748031497,
          "duration": 2.48611011666668
        },
        {
          "name": "F4",
          "midi": 65,
          "time": 247.4738593437499,
          "velocity": 0.6614173228346457,
          "duration": 2.5243045458333597
        },
        {
          "name": "A#4",
          "midi": 70,
          "time": 247.4790676749999,
          "velocity": 0.5118110236220472,
          "duration": 2.520832325000015
        },
        {
          "name": "D6",
          "midi": 86,
          "time": 247.4999009999999,
          "velocity": 0.5905511811023622,
          "duration": 2.4999990000000025
        },
        {
          "name": "C#4",
          "midi": 61,
          "time": 249.9998999999999,
          "velocity": 0.7480314960629921,
          "duration": 2.465276791666639
        },
        {
          "name": "E4",
          "midi": 64,
          "time": 249.9998999999999,
          "velocity": 0.7559055118110236,
          "duration": 2.460068460416636
        },
        {
          "name": "A4",
          "midi": 69,
          "time": 249.9998999999999,
          "velocity": 0.6614173228346457,
          "duration": 2.4861101166666515
        },
        {
          "name": "C#6",
          "midi": 85,
          "time": 250.00858055208323,
          "velocity": 0.5511811023622047,
          "duration": 1.7552076312499878
        },
        {
          "name": "A4",
          "midi": 69,
          "time": 252.49989899999989,
          "velocity": 0.905511811023622,
          "duration": 7.498260889583349
        },
        {
          "name": "F4",
          "midi": 65,
          "time": 252.49989899999989,
          "velocity": 0.7637795275590551,
          "duration": 2.493054558333341
        },
        {
          "name": "D4",
          "midi": 62,
          "time": 252.49989899999989,
          "velocity": 0.8503937007874016,
          "duration": 2.4635406812500094
        },
        {
          "name": "G4",
          "midi": 67,
          "time": 254.97212023333321,
          "velocity": 0.905511811023622,
          "duration": 2.508679552083322
        },
        {
          "name": "E4",
          "midi": 64,
          "time": 254.97212023333321,
          "velocity": 0.9133858267716536,
          "duration": 2.4895823374999964
        },
        {
          "name": "D4",
          "midi": 62,
          "time": 257.4426053562499,
          "velocity": 0.8188976377952756,
          "duration": 2.5052073312500056
        },
        {
          "name": "F4",
          "midi": 65,
          "time": 257.4617025708332,
          "velocity": 0.7874015748031497,
          "duration": 2.5381934291667108
        },
        {
          "name": "C4",
          "midi": 60,
          "time": 259.9426043562499,
          "velocity": 0.8661417322834646,
          "duration": 7.529510877083339
        },
        {
          "name": "E4",
          "midi": 64,
          "time": 259.9426043562499,
          "velocity": 0.905511811023622,
          "duration": 2.5225684354167015
        },
        {
          "name": "G4",
          "midi": 67,
          "time": 259.9460765770832,
          "velocity": 0.8740157480314961,
          "duration": 2.5052073312500625
        },
        {
          "name": "F4",
          "midi": 65,
          "time": 262.42697836249994,
          "velocity": 0.8503937007874016,
          "duration": 2.5277767666666477
        },
        {
          "name": "A4",
          "midi": 69,
          "time": 262.45128390833327,
          "velocity": 0.8503937007874016,
          "duration": 2.4999990000000025
        },
        {
          "name": "E4",
          "midi": 64,
          "time": 264.91482458958325,
          "velocity": 0.8582677165354331,
          "duration": 2.5624989749999827
        },
        {
          "name": "G4",
          "midi": 67,
          "time": 264.91656069999993,
          "velocity": 0.8976377952755905,
          "duration": 2.5798600791666217
        },
        {
          "name": "D4",
          "midi": 62,
          "time": 267.4721152333332,
          "velocity": 0.9448818897637795,
          "duration": 2.48611011666668
        },
        {
          "name": "F4",
          "midi": 65,
          "time": 267.4738513437499,
          "velocity": 0.8188976377952756,
          "duration": 2.5243045458333313
        },
        {
          "name": "A#4",
          "midi": 70,
          "time": 267.4790596749999,
          "velocity": 0.6692913385826772,
          "duration": 2.520832325000015
        },
        {
          "name": "E4",
          "midi": 64,
          "time": 269.9686420124999,
          "velocity": 0.5590551181102362,
          "duration": 2.531248987500078
        },
        {
          "name": "A4",
          "midi": 69,
          "time": 269.97211423333323,
          "velocity": 0.4645669291338583,
          "duration": 2.5277767666667614
        },
        {
          "name": "C#4",
          "midi": 61,
          "time": 269.9842670062499,
          "velocity": 0.5511811023622047,
          "duration": 2.5156239937500686
        },
        {
          "name": "D4",
          "midi": 62,
          "time": 272.4721132333333,
          "velocity": 0.9448818897637795,
          "duration": 2.48611011666668
        },
        {
          "name": "F4",
          "midi": 65,
          "time": 272.47384934375,
          "velocity": 0.8188976377952756,
          "duration": 2.5243045458333313
        },
        {
          "name": "A#4",
          "midi": 70,
          "time": 272.479057675,
          "velocity": 0.6692913385826772,
          "duration": 2.520832325000015
        },
        {
          "name": "E4",
          "midi": 64,
          "time": 274.9686400125,
          "velocity": 0.5590551181102362,
          "duration": 2.531248987500078
        },
        {
          "name": "A4",
          "midi": 69,
          "time": 274.9721122333333,
          "velocity": 0.4645669291338583,
          "duration": 2.5277767666667614
        },
        {
          "name": "C#4",
          "midi": 61,
          "time": 274.98426500625,
          "velocity": 0.5511811023622047,
          "duration": 2.5156239937500686
        },
        {
          "name": "D4",
          "midi": 62,
          "time": 277.47211123333335,
          "velocity": 0.9448818897637795,
          "duration": 2.48611011666668
        },
        {
          "name": "F4",
          "midi": 65,
          "time": 277.47384734375004,
          "velocity": 0.8188976377952756,
          "duration": 2.5243045458333313
        },
        {
          "name": "A#4",
          "midi": 70,
          "time": 277.47905567500004,
          "velocity": 0.6692913385826772,
          "duration": 2.520832325000015
        },
        {
          "name": "E4",
          "midi": 64,
          "time": 279.96863801250004,
          "velocity": 0.5590551181102362,
          "duration": 2.531248987500021
        },
        {
          "name": "A4",
          "midi": 69,
          "time": 279.97211023333335,
          "velocity": 0.4645669291338583,
          "duration": 2.5277767666667046
        },
        {
          "name": "C#4",
          "midi": 61,
          "time": 279.98426300625005,
          "velocity": 0.5511811023622047,
          "duration": 2.5156239937500118
        },
        {
          "name": "F#4",
          "midi": 66,
          "time": 282.50509533125006,
          "velocity": 0.5984251968503937,
          "duration": 9.109371356250051
        },
        {
          "name": "D4",
          "midi": 62,
          "time": 282.5085675520834,
          "velocity": 0.6535433070866141,
          "duration": 9.137149122916753
        },
        {
          "name": "A4",
          "midi": 69,
          "time": 282.5189842145834,
          "velocity": 0.5669291338582677,
          "duration": 9.100690804166732
        }
      ],
      "controlChanges": {
        "6": [
          {
            "number": 6,
            "time": 0.3559026354166668,
            "value": 0.015748031496062992
          },
          {
            "number": 6,
            "time": 0.3645831875000001,
            "value": 0.5039370078740157
          },
          {
            "number": 6,
            "time": 0.3732637395833335,
            "value": 0.5039370078740157
          },
          {
            "number": 6,
            "time": 0.3819442916666668,
            "value": 0.5039370078740157
          },
          {
            "number": 6,
            "time": 0.3906248437500002,
            "value": 0.5039370078740157
          },
          {
            "number": 6,
            "time": 0.3993053958333335,
            "value": 0.5039370078740157
          },
          {
            "number": 6,
            "time": 0.40798594791666687,
            "value": 0.5039370078740157
          },
          {
            "number": 6,
            "time": 0.4166665000000002,
            "value": 0.5039370078740157
          },
          {
            "number": 6,
            "time": 0.42534705208333357,
            "value": 0.5039370078740157
          }
        ],
        "7": [
          {
            "number": 7,
            "time": 0.3211804270833334,
            "value": 0.6299212598425197
          },
          {
            "number": 7,
            "time": 106.49995740000011,
            "value": 0.5354330708661418
          },
          {
            "number": 7,
            "time": 106.60759624583345,
            "value": 0.5590551181102362
          },
          {
            "number": 7,
            "time": 106.76211007291678,
            "value": 0.5748031496062992
          },
          {
            "number": 7,
            "time": 106.97912387500011,
            "value": 0.5984251968503937
          },
          {
            "number": 7,
            "time": 107.07113772708344,
            "value": 0.6141732283464567
          },
          {
            "number": 7,
            "time": 107.38190149166677,
            "value": 0.6377952755905512
          },
          {
            "number": 7,
            "time": 107.48780422708343,
            "value": 0.6535433070866141
          },
          {
            "number": 7,
            "time": 107.59717918333342,
            "value": 0.6771653543307087
          },
          {
            "number": 7,
            "time": 107.76731800416675,
            "value": 0.7165354330708661
          },
          {
            "number": 7,
            "time": 107.82981797916675,
            "value": 0.7322834645669292
          },
          {
            "number": 7,
            "time": 107.90620683750008,
            "value": 0.7559055118110236
          },
          {
            "number": 7,
            "time": 107.98259569583341,
            "value": 0.7795275590551181
          },
          {
            "number": 7,
            "time": 108.07634565833341,
            "value": 0.8031496062992126
          },
          {
            "number": 7,
            "time": 108.15273451666674,
            "value": 0.8188976377952756
          },
          {
            "number": 7,
            "time": 108.26210947291673,
            "value": 0.8582677165354331
          },
          {
            "number": 7,
            "time": 108.35585943541673,
            "value": 0.8818897637795275
          },
          {
            "number": 7,
            "time": 108.41662330000007,
            "value": 0.905511811023622
          },
          {
            "number": 7,
            "time": 108.51037326250007,
            "value": 0.9448818897637795
          },
          {
            "number": 7,
            "time": 108.6023871145834,
            "value": 0.9606299212598425
          },
          {
            "number": 7,
            "time": 108.67877597291672,
            "value": 0.984251968503937
          },
          {
            "number": 7,
            "time": 108.97391474375006,
            "value": 1
          },
          {
            "number": 7,
            "time": 149.9999400000001,
            "value": 0.6062992125984252
          },
          {
            "number": 7,
            "time": 188.99992439999994,
            "value": 0.5354330708661418
          },
          {
            "number": 7,
            "time": 189.10756324583326,
            "value": 0.5590551181102362
          },
          {
            "number": 7,
            "time": 189.26207707291658,
            "value": 0.5748031496062992
          },
          {
            "number": 7,
            "time": 189.4790908749999,
            "value": 0.5984251968503937
          },
          {
            "number": 7,
            "time": 189.57110472708325,
            "value": 0.6141732283464567
          },
          {
            "number": 7,
            "time": 189.88186849166658,
            "value": 0.6377952755905512
          },
          {
            "number": 7,
            "time": 189.98777122708324,
            "value": 0.6535433070866141
          },
          {
            "number": 7,
            "time": 190.09714618333325,
            "value": 0.6771653543307087
          },
          {
            "number": 7,
            "time": 190.26728500416658,
            "value": 0.7165354330708661
          },
          {
            "number": 7,
            "time": 190.3297849791666,
            "value": 0.7322834645669292
          },
          {
            "number": 7,
            "time": 190.40617383749992,
            "value": 0.7559055118110236
          },
          {
            "number": 7,
            "time": 190.48256269583325,
            "value": 0.7795275590551181
          },
          {
            "number": 7,
            "time": 190.57631265833325,
            "value": 0.8031496062992126
          },
          {
            "number": 7,
            "time": 190.65270151666658,
            "value": 0.8188976377952756
          },
          {
            "number": 7,
            "time": 190.7620764729166,
            "value": 0.8582677165354331
          },
          {
            "number": 7,
            "time": 190.8558264354166,
            "value": 0.8818897637795275
          },
          {
            "number": 7,
            "time": 190.9165902999999,
            "value": 0.905511811023622
          },
          {
            "number": 7,
            "time": 191.0103402624999,
            "value": 0.9448818897637795
          },
          {
            "number": 7,
            "time": 191.10235411458325,
            "value": 0.9606299212598425
          },
          {
            "number": 7,
            "time": 191.17874297291658,
            "value": 0.984251968503937
          },
          {
            "number": 7,
            "time": 191.47388174374993,
            "value": 1
          },
          {
            "number": 7,
            "time": 232.49990699999998,
            "value": 0.6062992125984252
          },
          {
            "number": 7,
            "time": 252.49989899999989,
            "value": 0.4015748031496063
          },
          {
            "number": 7,
            "time": 287.4339128041667,
            "value": 0.5511811023622047
          },
          {
            "number": 7,
            "time": 287.6891210354167,
            "value": 0.5354330708661418
          },
          {
            "number": 7,
            "time": 287.86273207708336,
            "value": 0.5118110236220472
          },
          {
            "number": 7,
            "time": 288.0693292166667,
            "value": 0.49606299212598426
          },
          {
            "number": 7,
            "time": 288.27592635625,
            "value": 0.47244094488188976
          },
          {
            "number": 7,
            "time": 288.3714124291667,
            "value": 0.4566929133858268
          },
          {
            "number": 7,
            "time": 288.51550959375004,
            "value": 0.4330708661417323
          },
          {
            "number": 7,
            "time": 288.6578706479167,
            "value": 0.41732283464566927
          },
          {
            "number": 7,
            "time": 288.8627316770834,
            "value": 0.3937007874015748
          },
          {
            "number": 7,
            "time": 288.9912038479167,
            "value": 0.3779527559055118
          },
          {
            "number": 7,
            "time": 289.1335649020834,
            "value": 0.3543307086614173
          },
          {
            "number": 7,
            "time": 289.2603009625,
            "value": 0.33858267716535434
          },
          {
            "number": 7,
            "time": 289.4356481145834,
            "value": 0.31496062992125984
          },
          {
            "number": 7,
            "time": 289.78634241875005,
            "value": 0.2992125984251969
          },
          {
            "number": 7,
            "time": 289.89745348541675,
            "value": 0.2755905511811024
          },
          {
            "number": 7,
            "time": 290.1526617166667,
            "value": 0.25984251968503935
          },
          {
            "number": 7,
            "time": 290.4061338375001,
            "value": 0.23622047244094488
          },
          {
            "number": 7,
            "time": 290.6127309770834,
            "value": 0.2204724409448819
          },
          {
            "number": 7,
            "time": 290.78807812916676,
            "value": 0.1968503937007874
          },
          {
            "number": 7,
            "time": 290.9321752937501,
            "value": 0.18110236220472442
          },
          {
            "number": 7,
            "time": 291.0259252562501,
            "value": 0.15748031496062992
          },
          {
            "number": 7,
            "time": 291.2325223958334,
            "value": 0.14173228346456693
          },
          {
            "number": 7,
            "time": 291.3123834750001,
            "value": 0.11811023622047244
          },
          {
            "number": 7,
            "time": 291.43911953541675,
            "value": 0.10236220472440945
          },
          {
            "number": 7,
            "time": 291.53460560833344,
            "value": 0.07874015748031496
          },
          {
            "number": 7,
            "time": 291.6144666875001,
            "value": 0.05511811023622047
          },
          {
            "number": 7,
            "time": 291.67696666250015,
            "value": 0.03937007874015748
          },
          {
            "number": 7,
            "time": 291.77245273541683,
            "value": 0.015748031496062992
          },
          {
            "number": 7,
            "time": 291.98078598541684,
            "value": 0
          }
        ],
        "10": [
          {
            "number": 10,
            "time": 0.32986097916666673,
            "value": 0.5039370078740157
          }
        ],
        "32": [
          {
            "number": 32,
            "time": 0.3038193229166667,
            "value": 1
          }
        ],
        "91": [
          {
            "number": 91,
            "time": 0.3385415312500001,
            "value": 0.6141732283464567
          }
        ],
        "93": [
          {
            "number": 93,
            "time": 0.34722208333333343,
            "value": 0
          }
        ],
        "98": [
          {
            "number": 98,
            "time": 0.3645831875000001,
            "value": 0.06299212598425197
          },
          {
            "number": 98,
            "time": 0.3732637395833335,
            "value": 0.07086614173228346
          },
          {
            "number": 98,
            "time": 0.3819442916666668,
            "value": 0.07874015748031496
          },
          {
            "number": 98,
            "time": 0.3906248437500002,
            "value": 0.25196850393700787
          },
          {
            "number": 98,
            "time": 0.3993053958333335,
            "value": 0.25984251968503935
          },
          {
            "number": 98,
            "time": 0.40798594791666687,
            "value": 0.7795275590551181
          },
          {
            "number": 98,
            "time": 0.4166665000000002,
            "value": 0.7874015748031497
          },
          {
            "number": 98,
            "time": 0.42534705208333357,
            "value": 0.8031496062992126
          }
        ],
        "99": [
          {
            "number": 99,
            "time": 0.3645831875000001,
            "value": 0.007874015748031496
          },
          {
            "number": 99,
            "time": 0.3732637395833335,
            "value": 0.007874015748031496
          },
          {
            "number": 99,
            "time": 0.3819442916666668,
            "value": 0.007874015748031496
          },
          {
            "number": 99,
            "time": 0.3906248437500002,
            "value": 0.007874015748031496
          },
          {
            "number": 99,
            "time": 0.3993053958333335,
            "value": 0.007874015748031496
          },
          {
            "number": 99,
            "time": 0.40798594791666687,
            "value": 0.007874015748031496
          },
          {
            "number": 99,
            "time": 0.4166665000000002,
            "value": 0.007874015748031496
          },
          {
            "number": 99,
            "time": 0.42534705208333357,
            "value": 0.007874015748031496
          }
        ],
        "100": [
          {
            "number": 100,
            "time": 0.3559026354166668,
            "value": 0
          }
        ],
        "101": [
          {
            "number": 101,
            "time": 0.3559026354166668,
            "value": 0
          }
        ]
      },
      "id": 3,
      "name": "Slow Str.",
      "instrumentNumber": 49,
      "instrument": "string ensemble 2",
      "instrumentFamily": "ensemble",
      "channelNumber": 2,
      "isPercussion": false
    },
    {
      "startTime": 86.68746532499999,
      "duration": 292.2099525604167,
      "length": 159,
      "notes": [
        {
          "name": "A4",
          "midi": 69,
          "time": 86.68746532499999,
          "velocity": 0.9763779527559056,
          "duration": 0.8090274541666673
        },
        {
          "name": "F6",
          "midi": 89,
          "time": 87.51211777291665,
          "velocity": 1,
          "duration": 0.6041664250000025
        },
        {
          "name": "E6",
          "midi": 88,
          "time": 88.12322863958332,
          "velocity": 0.8267716535433071,
          "duration": 0.19965269791666174
        },
        {
          "name": "D6",
          "midi": 86,
          "time": 88.32808966874998,
          "velocity": 0.8740157480314961,
          "duration": 0.8506941041666636
        },
        {
          "name": "C#6",
          "midi": 85,
          "time": 89.17878377291665,
          "velocity": 0.8976377952755905,
          "duration": 0.5746525479166706
        },
        {
          "name": "D6",
          "midi": 86,
          "time": 89.77079742499998,
          "velocity": 0.8503937007874016,
          "duration": 0.22569435416666295
        },
        {
          "name": "E6",
          "midi": 88,
          "time": 90.01038066249998,
          "velocity": 0.7637795275590551,
          "duration": 0.6649302895833245
        },
        {
          "name": "C#6",
          "midi": 85,
          "time": 90.63885263333331,
          "velocity": 0.8582677165354331,
          "duration": 0.1979165874999893
        },
        {
          "name": "A5",
          "midi": 81,
          "time": 90.86628309791664,
          "velocity": 0.8818897637795275,
          "duration": 1.0017357104166678
        },
        {
          "name": "A5",
          "midi": 81,
          "time": 92.13017148124997,
          "velocity": 0.8976377952755905,
          "duration": 0.3697915187500058
        },
        {
          "name": "F6",
          "midi": 89,
          "time": 92.55725464374999,
          "velocity": 0.9763779527559056,
          "duration": 0.6024303145833301
        },
        {
          "name": "E6",
          "midi": 88,
          "time": 93.16315717916665,
          "velocity": 0.8976377952755905,
          "duration": 0.22048602291667407
        },
        {
          "name": "D6",
          "midi": 86,
          "time": 93.35239321458332,
          "velocity": 0.9606299212598425,
          "duration": 0.8784718708333372
        },
        {
          "name": "C#6",
          "midi": 85,
          "time": 94.19787898749999,
          "velocity": 0.9212598425196851,
          "duration": 0.5711803270833258
        },
        {
          "name": "D6",
          "midi": 86,
          "time": 94.77947597708332,
          "velocity": 0.8818897637795275,
          "duration": 0.22048602291665986
        },
        {
          "name": "E6",
          "midi": 88,
          "time": 95.01732310416665,
          "velocity": 0.9133858267716536,
          "duration": 1.4461799770833323
        },
        {
          "name": "C6",
          "midi": 84,
          "time": 96.70829464999998,
          "velocity": 0.9448818897637795,
          "duration": 0.7708330250000017
        },
        {
          "name": "A6",
          "midi": 93,
          "time": 97.51905821458332,
          "velocity": 1,
          "duration": 0.6059025354166607
        },
        {
          "name": "G6",
          "midi": 91,
          "time": 98.12669686041666,
          "velocity": 0.8976377952755905,
          "duration": 0.22395824374999052
        },
        {
          "name": "F6",
          "midi": 89,
          "time": 98.33503011041665,
          "velocity": 0.9606299212598425,
          "duration": 0.836805220833341
        },
        {
          "name": "E6",
          "midi": 88,
          "time": 99.16141866874999,
          "velocity": 0.8818897637795275,
          "duration": 0.6354164125000068
        },
        {
          "name": "F6",
          "midi": 89,
          "time": 99.79509897083332,
          "velocity": 0.8818897637795275,
          "duration": 0.20486102916667903
        },
        {
          "name": "G6",
          "midi": 91,
          "time": 100.00516833125,
          "velocity": 0.9133858267716536,
          "duration": 0.6145830874999945
        },
        {
          "name": "E6",
          "midi": 88,
          "time": 100.64058474375,
          "velocity": 0.8976377952755905,
          "duration": 0.20138880833333417
        },
        {
          "name": "C6",
          "midi": 84,
          "time": 100.833293,
          "velocity": 0.84251968503937,
          "duration": 1.0711801270833377
        },
        {
          "name": "C6",
          "midi": 84,
          "time": 102.29857019166667,
          "velocity": 0.9133858267716536,
          "duration": 0.20138880833333417
        },
        {
          "name": "A#5",
          "midi": 82,
          "time": 102.51211177291667,
          "velocity": 0.8976377952755905,
          "duration": 0.6111108666666638
        },
        {
          "name": "C6",
          "midi": 84,
          "time": 103.13711152291667,
          "velocity": 0.8503937007874016,
          "duration": 0.18749992499999735
        },
        {
          "name": "D6",
          "midi": 86,
          "time": 103.34718088333334,
          "velocity": 0.905511811023622,
          "duration": 0.6597219583333356
        },
        {
          "name": "E6",
          "midi": 88,
          "time": 103.99648617916667,
          "velocity": 0.7716535433070866,
          "duration": 0.08680552083333737
        },
        {
          "name": "D6",
          "midi": 86,
          "time": 104.06593059583334,
          "velocity": 0.7952755905511811,
          "duration": 0.14236105416667044
        },
        {
          "name": "C6",
          "midi": 84,
          "time": 104.18224999375,
          "velocity": 0.8503937007874016,
          "duration": 0.5937497624999963
        },
        {
          "name": "A#5",
          "midi": 82,
          "time": 104.79509697083334,
          "velocity": 0.7952755905511811,
          "duration": 0.20486102916666482
        },
        {
          "name": "A5",
          "midi": 81,
          "time": 105.00343022083334,
          "velocity": 0.9921259842519685,
          "duration": 3.1267348604166614
        },
        {
          "name": "A4",
          "midi": 69,
          "time": 149.187440325,
          "velocity": 1,
          "duration": 0.8090274541666531
        },
        {
          "name": "F6",
          "midi": 89,
          "time": 150.01209277291667,
          "velocity": 1,
          "duration": 0.6041664249999883
        },
        {
          "name": "E6",
          "midi": 88,
          "time": 150.62320363958332,
          "velocity": 0.8267716535433071,
          "duration": 0.19965269791666174
        },
        {
          "name": "D6",
          "midi": 86,
          "time": 150.82806466875,
          "velocity": 0.8740157480314961,
          "duration": 0.8506941041666778
        },
        {
          "name": "C#6",
          "midi": 85,
          "time": 151.67875877291667,
          "velocity": 0.8976377952755905,
          "duration": 0.5746525479166564
        },
        {
          "name": "D6",
          "midi": 86,
          "time": 152.270772425,
          "velocity": 0.8503937007874016,
          "duration": 0.22569435416667716
        },
        {
          "name": "E6",
          "midi": 88,
          "time": 152.5103556625,
          "velocity": 0.7637795275590551,
          "duration": 0.6649302895833387
        },
        {
          "name": "C#6",
          "midi": 85,
          "time": 153.13882763333334,
          "velocity": 0.8582677165354331,
          "duration": 0.19791658750000352
        },
        {
          "name": "A5",
          "midi": 81,
          "time": 153.36625809791667,
          "velocity": 0.8818897637795275,
          "duration": 1.0017357104166535
        },
        {
          "name": "A5",
          "midi": 81,
          "time": 154.63014648125,
          "velocity": 0.8976377952755905,
          "duration": 0.3697915187499916
        },
        {
          "name": "F6",
          "midi": 89,
          "time": 155.05722964375,
          "velocity": 0.9763779527559056,
          "duration": 0.6024303145833301
        },
        {
          "name": "E6",
          "midi": 88,
          "time": 155.66313217916667,
          "velocity": 0.8976377952755905,
          "duration": 0.22048602291664565
        },
        {
          "name": "D6",
          "midi": 86,
          "time": 155.85236821458332,
          "velocity": 0.9606299212598425,
          "duration": 0.878471870833323
        },
        {
          "name": "C#6",
          "midi": 85,
          "time": 156.69785398749997,
          "velocity": 0.9212598425196851,
          "duration": 0.57118032708334
        },
        {
          "name": "D6",
          "midi": 86,
          "time": 157.27945097708331,
          "velocity": 0.8818897637795275,
          "duration": 0.22048602291667407
        },
        {
          "name": "E6",
          "midi": 88,
          "time": 157.51729810416666,
          "velocity": 0.9133858267716536,
          "duration": 1.4461799770833466
        },
        {
          "name": "C6",
          "midi": 84,
          "time": 159.20826965,
          "velocity": 0.9448818897637795,
          "duration": 0.7708330250000017
        },
        {
          "name": "A6",
          "midi": 93,
          "time": 160.01903321458335,
          "velocity": 1,
          "duration": 0.6059025354166749
        },
        {
          "name": "G6",
          "midi": 91,
          "time": 160.62667186041668,
          "velocity": 0.8976377952755905,
          "duration": 0.22395824375001894
        },
        {
          "name": "F6",
          "midi": 89,
          "time": 160.8350051104167,
          "velocity": 0.9606299212598425,
          "duration": 0.8368052208333552
        },
        {
          "name": "E6",
          "midi": 88,
          "time": 161.66139366875004,
          "velocity": 0.8818897637795275,
          "duration": 0.6354164125000068
        },
        {
          "name": "F6",
          "midi": 89,
          "time": 162.29507397083339,
          "velocity": 0.8818897637795275,
          "duration": 0.20486102916666482
        },
        {
          "name": "G6",
          "midi": 91,
          "time": 162.50514333125005,
          "velocity": 0.9133858267716536,
          "duration": 0.6145830874999945
        },
        {
          "name": "E6",
          "midi": 88,
          "time": 163.14055974375006,
          "velocity": 0.8976377952755905,
          "duration": 0.20138880833331996
        },
        {
          "name": "C6",
          "midi": 84,
          "time": 163.33326800000006,
          "velocity": 0.84251968503937,
          "duration": 1.0711801270833234
        },
        {
          "name": "C6",
          "midi": 84,
          "time": 164.7985451916667,
          "velocity": 0.9133858267716536,
          "duration": 0.20138880833331996
        },
        {
          "name": "A#5",
          "midi": 82,
          "time": 165.0120867729167,
          "velocity": 0.8976377952755905,
          "duration": 0.611110866666678
        },
        {
          "name": "C6",
          "midi": 84,
          "time": 165.6370865229167,
          "velocity": 0.8503937007874016,
          "duration": 0.18749992499999735
        },
        {
          "name": "D6",
          "midi": 86,
          "time": 165.84715588333336,
          "velocity": 0.905511811023622,
          "duration": 0.6597219583333356
        },
        {
          "name": "E6",
          "midi": 88,
          "time": 166.4964611791667,
          "velocity": 0.7716535433070866,
          "duration": 0.08680552083333737
        },
        {
          "name": "D6",
          "midi": 86,
          "time": 166.56590559583336,
          "velocity": 0.7952755905511811,
          "duration": 0.14236105416665623
        },
        {
          "name": "C6",
          "midi": 84,
          "time": 166.68222499375003,
          "velocity": 0.8503937007874016,
          "duration": 0.5937497624999821
        },
        {
          "name": "A#5",
          "midi": 82,
          "time": 167.29507197083333,
          "velocity": 0.7952755905511811,
          "duration": 0.20486102916666482
        },
        {
          "name": "A5",
          "midi": 81,
          "time": 167.499933,
          "velocity": 0.9921259842519685,
          "duration": 1.6493048958333247
        },
        {
          "name": "A4",
          "midi": 69,
          "time": 169.187432325,
          "velocity": 1,
          "duration": 0.8090274541666531
        },
        {
          "name": "F6",
          "midi": 89,
          "time": 170.01208477291667,
          "velocity": 1,
          "duration": 0.6041664249999883
        },
        {
          "name": "E6",
          "midi": 88,
          "time": 170.62319563958332,
          "velocity": 0.8267716535433071,
          "duration": 0.19965269791666174
        },
        {
          "name": "D6",
          "midi": 86,
          "time": 170.82805666874998,
          "velocity": 0.8740157480314961,
          "duration": 0.8506941041666778
        },
        {
          "name": "C#6",
          "midi": 85,
          "time": 171.67875077291666,
          "velocity": 0.8976377952755905,
          "duration": 0.5746525479166564
        },
        {
          "name": "D6",
          "midi": 86,
          "time": 172.27076442499998,
          "velocity": 0.8503937007874016,
          "duration": 0.22569435416667716
        },
        {
          "name": "E6",
          "midi": 88,
          "time": 172.51034766249998,
          "velocity": 0.7637795275590551,
          "duration": 0.6649302895833387
        },
        {
          "name": "C#6",
          "midi": 85,
          "time": 173.13881963333333,
          "velocity": 0.8582677165354331,
          "duration": 0.19791658750000352
        },
        {
          "name": "A5",
          "midi": 81,
          "time": 173.36625009791666,
          "velocity": 0.8818897637795275,
          "duration": 1.0017357104166535
        },
        {
          "name": "A5",
          "midi": 81,
          "time": 174.63013848125,
          "velocity": 0.8976377952755905,
          "duration": 0.3697915187499916
        },
        {
          "name": "F6",
          "midi": 89,
          "time": 175.05722164374998,
          "velocity": 0.9763779527559056,
          "duration": 0.6024303145833301
        },
        {
          "name": "E6",
          "midi": 88,
          "time": 175.66312417916666,
          "velocity": 0.8976377952755905,
          "duration": 0.22048602291664565
        },
        {
          "name": "D6",
          "midi": 86,
          "time": 175.8523602145833,
          "velocity": 0.9606299212598425,
          "duration": 0.878471870833323
        },
        {
          "name": "C#6",
          "midi": 85,
          "time": 176.69784598749996,
          "velocity": 0.9212598425196851,
          "duration": 0.57118032708334
        },
        {
          "name": "D6",
          "midi": 86,
          "time": 177.2794429770833,
          "velocity": 0.8818897637795275,
          "duration": 0.22048602291667407
        },
        {
          "name": "E6",
          "midi": 88,
          "time": 177.51729010416665,
          "velocity": 0.9133858267716536,
          "duration": 1.4461799770833466
        },
        {
          "name": "C6",
          "midi": 84,
          "time": 179.20826165,
          "velocity": 0.9448818897637795,
          "duration": 0.7708330250000017
        },
        {
          "name": "A6",
          "midi": 93,
          "time": 180.01902521458334,
          "velocity": 1,
          "duration": 0.6059025354166749
        },
        {
          "name": "G6",
          "midi": 91,
          "time": 180.62666386041667,
          "velocity": 0.8976377952755905,
          "duration": 0.22395824375001894
        },
        {
          "name": "F6",
          "midi": 89,
          "time": 180.83499711041668,
          "velocity": 0.9606299212598425,
          "duration": 0.8368052208333552
        },
        {
          "name": "E6",
          "midi": 88,
          "time": 181.66138566875003,
          "velocity": 0.8818897637795275,
          "duration": 0.6354164125000068
        },
        {
          "name": "F6",
          "midi": 89,
          "time": 182.29506597083338,
          "velocity": 0.8818897637795275,
          "duration": 0.20486102916666482
        },
        {
          "name": "G6",
          "midi": 91,
          "time": 182.50513533125005,
          "velocity": 0.9133858267716536,
          "duration": 0.6145830874999945
        },
        {
          "name": "E6",
          "midi": 88,
          "time": 183.14055174375005,
          "velocity": 0.8976377952755905,
          "duration": 0.20138880833331996
        },
        {
          "name": "C6",
          "midi": 84,
          "time": 183.33326000000005,
          "velocity": 0.84251968503937,
          "duration": 1.0711801270833234
        },
        {
          "name": "C6",
          "midi": 84,
          "time": 184.7985371916667,
          "velocity": 0.9133858267716536,
          "duration": 0.20138880833331996
        },
        {
          "name": "A#5",
          "midi": 82,
          "time": 185.01207877291668,
          "velocity": 0.8976377952755905,
          "duration": 0.611110866666678
        },
        {
          "name": "C6",
          "midi": 84,
          "time": 185.63707852291668,
          "velocity": 0.8503937007874016,
          "duration": 0.18749992499999735
        },
        {
          "name": "D6",
          "midi": 86,
          "time": 185.84714788333335,
          "velocity": 0.905511811023622,
          "duration": 0.6597219583333356
        },
        {
          "name": "E6",
          "midi": 88,
          "time": 186.49645317916668,
          "velocity": 0.7716535433070866,
          "duration": 0.08680552083333737
        },
        {
          "name": "D6",
          "midi": 86,
          "time": 186.56589759583335,
          "velocity": 0.7952755905511811,
          "duration": 0.14236105416665623
        },
        {
          "name": "C6",
          "midi": 84,
          "time": 186.68221699375002,
          "velocity": 0.8503937007874016,
          "duration": 0.5937497624999821
        },
        {
          "name": "A#5",
          "midi": 82,
          "time": 187.29506397083333,
          "velocity": 0.7952755905511811,
          "duration": 0.20486102916666482
        },
        {
          "name": "A5",
          "midi": 81,
          "time": 187.50339722083334,
          "velocity": 0.9921259842519685,
          "duration": 3.1267348604166614
        },
        {
          "name": "A5",
          "midi": 81,
          "time": 249.9999,
          "velocity": 0.9921259842519685,
          "duration": 1.6493048958333247
        },
        {
          "name": "A4",
          "midi": 69,
          "time": 251.687399325,
          "velocity": 1,
          "duration": 0.8090274541666531
        },
        {
          "name": "F6",
          "midi": 89,
          "time": 252.51205177291666,
          "velocity": 1,
          "duration": 0.6041664249999883
        },
        {
          "name": "E6",
          "midi": 88,
          "time": 253.1231626395833,
          "velocity": 0.8267716535433071,
          "duration": 0.19965269791666174
        },
        {
          "name": "D6",
          "midi": 86,
          "time": 253.32802366874998,
          "velocity": 0.8740157480314961,
          "duration": 0.8506941041666778
        },
        {
          "name": "C#6",
          "midi": 85,
          "time": 254.17871777291666,
          "velocity": 0.8976377952755905,
          "duration": 0.5746525479166564
        },
        {
          "name": "D6",
          "midi": 86,
          "time": 254.77073142499998,
          "velocity": 0.8503937007874016,
          "duration": 0.22569435416667716
        },
        {
          "name": "E6",
          "midi": 88,
          "time": 255.01031466249998,
          "velocity": 0.7637795275590551,
          "duration": 0.6649302895833387
        },
        {
          "name": "C#6",
          "midi": 85,
          "time": 255.63878663333332,
          "velocity": 0.8582677165354331,
          "duration": 0.19791658750000352
        },
        {
          "name": "A5",
          "midi": 81,
          "time": 255.86621709791666,
          "velocity": 0.8818897637795275,
          "duration": 1.0017357104166535
        },
        {
          "name": "A5",
          "midi": 81,
          "time": 257.13010548125,
          "velocity": 0.8976377952755905,
          "duration": 0.3697915187499916
        },
        {
          "name": "F6",
          "midi": 89,
          "time": 257.55718864374995,
          "velocity": 0.9763779527559056,
          "duration": 0.6024303145833301
        },
        {
          "name": "E6",
          "midi": 88,
          "time": 258.1630911791666,
          "velocity": 0.8976377952755905,
          "duration": 0.2204860229167025
        },
        {
          "name": "D6",
          "midi": 86,
          "time": 258.3523272145833,
          "velocity": 0.9606299212598425,
          "duration": 0.878471870833323
        },
        {
          "name": "C#6",
          "midi": 85,
          "time": 259.19781298749996,
          "velocity": 0.9212598425196851,
          "duration": 0.5711803270833116
        },
        {
          "name": "D6",
          "midi": 86,
          "time": 259.7794099770833,
          "velocity": 0.8818897637795275,
          "duration": 0.22048602291664565
        },
        {
          "name": "E6",
          "midi": 88,
          "time": 260.01725710416656,
          "velocity": 0.9133858267716536,
          "duration": 1.4461799770833181
        },
        {
          "name": "C6",
          "midi": 84,
          "time": 261.70822864999985,
          "velocity": 0.9448818897637795,
          "duration": 0.7708330250000017
        },
        {
          "name": "A6",
          "midi": 93,
          "time": 262.5189922145832,
          "velocity": 1,
          "duration": 0.6059025354166465
        },
        {
          "name": "G6",
          "midi": 91,
          "time": 263.1266308604165,
          "velocity": 0.8976377952755905,
          "duration": 0.22395824375001894
        },
        {
          "name": "F6",
          "midi": 89,
          "time": 263.33496411041654,
          "velocity": 0.9606299212598425,
          "duration": 0.8368052208333552
        },
        {
          "name": "E6",
          "midi": 88,
          "time": 264.1613526687499,
          "velocity": 0.8818897637795275,
          "duration": 0.6354164125000352
        },
        {
          "name": "F6",
          "midi": 89,
          "time": 264.79503297083323,
          "velocity": 0.8818897637795275,
          "duration": 0.20486102916669324
        },
        {
          "name": "G6",
          "midi": 91,
          "time": 265.00510233124993,
          "velocity": 0.9133858267716536,
          "duration": 0.6145830875000229
        },
        {
          "name": "E6",
          "midi": 88,
          "time": 265.64051874374996,
          "velocity": 0.8976377952755905,
          "duration": 0.20138880833331996
        },
        {
          "name": "C6",
          "midi": 84,
          "time": 265.83322699999997,
          "velocity": 0.84251968503937,
          "duration": 1.0711801270833234
        },
        {
          "name": "C6",
          "midi": 84,
          "time": 267.2985041916666,
          "velocity": 0.9133858267716536,
          "duration": 0.20138880833331996
        },
        {
          "name": "A#5",
          "midi": 82,
          "time": 267.5120457729166,
          "velocity": 0.8976377952755905,
          "duration": 0.6111108666666496
        },
        {
          "name": "C6",
          "midi": 84,
          "time": 268.1370455229166,
          "velocity": 0.8503937007874016,
          "duration": 0.18749992499999735
        },
        {
          "name": "D6",
          "midi": 86,
          "time": 268.34711488333323,
          "velocity": 0.905511811023622,
          "duration": 0.659721958333364
        },
        {
          "name": "E6",
          "midi": 88,
          "time": 268.9964201791666,
          "velocity": 0.7716535433070866,
          "duration": 0.08680552083330895
        },
        {
          "name": "D6",
          "midi": 86,
          "time": 269.06586459583326,
          "velocity": 0.7952755905511811,
          "duration": 0.14236105416665623
        },
        {
          "name": "C6",
          "midi": 84,
          "time": 269.1821839937499,
          "velocity": 0.8503937007874016,
          "duration": 0.5937497625000105
        },
        {
          "name": "A#5",
          "midi": 82,
          "time": 269.79503097083324,
          "velocity": 0.7952755905511811,
          "duration": 0.20486102916669324
        },
        {
          "name": "A5",
          "midi": 81,
          "time": 270.04676698124996,
          "velocity": 0.8818897637795275,
          "duration": 1.5138882833333582
        },
        {
          "name": "A4",
          "midi": 69,
          "time": 272.1283633708333,
          "velocity": 0.7165354330708661,
          "duration": 0.3611109666666721
        },
        {
          "name": "A#4",
          "midi": 70,
          "time": 272.5120437729166,
          "velocity": 0.8976377952755905,
          "duration": 0.6111108666666496
        },
        {
          "name": "C5",
          "midi": 72,
          "time": 273.1370435229166,
          "velocity": 0.8503937007874016,
          "duration": 0.18749992499999735
        },
        {
          "name": "D5",
          "midi": 74,
          "time": 273.34711288333324,
          "velocity": 0.905511811023622,
          "duration": 0.659721958333364
        },
        {
          "name": "E5",
          "midi": 76,
          "time": 273.9964181791666,
          "velocity": 0.7716535433070866,
          "duration": 0.08680552083330895
        },
        {
          "name": "D5",
          "midi": 74,
          "time": 274.06586259583327,
          "velocity": 0.7952755905511811,
          "duration": 0.14236105416665623
        },
        {
          "name": "C5",
          "midi": 72,
          "time": 274.1821819937499,
          "velocity": 0.8503937007874016,
          "duration": 0.5937497625000105
        },
        {
          "name": "A#4",
          "midi": 70,
          "time": 274.79502897083324,
          "velocity": 0.7952755905511811,
          "duration": 0.20486102916669324
        },
        {
          "name": "A4",
          "midi": 69,
          "time": 275.04676498124996,
          "velocity": 0.8818897637795275,
          "duration": 1.5138882833333582
        },
        {
          "name": "A4",
          "midi": 69,
          "time": 277.08669472083335,
          "velocity": 0.7244094488188977,
          "duration": 0.3472220833333495
        },
        {
          "name": "A#4",
          "midi": 70,
          "time": 277.5120417729167,
          "velocity": 0.8976377952755905,
          "duration": 0.6111108666666496
        },
        {
          "name": "C5",
          "midi": 72,
          "time": 278.13704152291666,
          "velocity": 0.8503937007874016,
          "duration": 0.18749992499999735
        },
        {
          "name": "D5",
          "midi": 74,
          "time": 278.3471108833333,
          "velocity": 0.905511811023622,
          "duration": 0.659721958333364
        },
        {
          "name": "E5",
          "midi": 76,
          "time": 278.99641617916666,
          "velocity": 0.7716535433070866,
          "duration": 0.08680552083330895
        },
        {
          "name": "D5",
          "midi": 74,
          "time": 279.0658605958333,
          "velocity": 0.7952755905511811,
          "duration": 0.14236105416665623
        },
        {
          "name": "C5",
          "midi": 72,
          "time": 279.18217999374997,
          "velocity": 0.8503937007874016,
          "duration": 0.5937497625000105
        },
        {
          "name": "A#4",
          "midi": 70,
          "time": 279.7950269708333,
          "velocity": 0.7952755905511811,
          "duration": 0.20486102916669324
        },
        {
          "name": "A4",
          "midi": 69,
          "time": 280.0189852145833,
          "velocity": 0.8740157480314961,
          "duration": 1.5677077062500189
        },
        {
          "name": "A4",
          "midi": 69,
          "time": 281.67176233125,
          "velocity": 0.6929133858267716,
          "duration": 0.6180553083333393
        },
        {
          "name": "D4",
          "midi": 62,
          "time": 282.47210923333336,
          "velocity": 0.6299212598425197,
          "duration": 9.739579437500026
        },
        {
          "name": "F#4",
          "midi": 66,
          "time": 282.5033592208334,
          "velocity": 0.7795275590551181,
          "duration": 9.68402390416668
        },
        {
          "name": "A4",
          "midi": 69,
          "time": 282.52592865625,
          "velocity": 0.5433070866141733,
          "duration": 9.68402390416668
        }
      ],
      "controlChanges": {
        "6": [
          {
            "number": 6,
            "time": 0.49479146875000013,
            "value": 0.015748031496062992
          },
          {
            "number": 6,
            "time": 0.5034720208333334,
            "value": 0.5039370078740157
          },
          {
            "number": 6,
            "time": 0.5121525729166667,
            "value": 0.5039370078740157
          },
          {
            "number": 6,
            "time": 0.520833125,
            "value": 0.5039370078740157
          },
          {
            "number": 6,
            "time": 0.5295136770833333,
            "value": 0.5039370078740157
          },
          {
            "number": 6,
            "time": 0.5381942291666666,
            "value": 0.5039370078740157
          },
          {
            "number": 6,
            "time": 0.5468747812499999,
            "value": 0.5039370078740157
          },
          {
            "number": 6,
            "time": 0.5555553333333332,
            "value": 0.5039370078740157
          },
          {
            "number": 6,
            "time": 0.5642358854166665,
            "value": 0.5039370078740157
          }
        ],
        "7": [
          {
            "number": 7,
            "time": 0.46006926041666674,
            "value": 0.7874015748031497
          },
          {
            "number": 7,
            "time": 249.9999,
            "value": 0.5039370078740157
          },
          {
            "number": 7,
            "time": 286.53634371875,
            "value": 0.4645669291338583
          },
          {
            "number": 7,
            "time": 287.10926015625,
            "value": 0.4409448818897638
          },
          {
            "number": 7,
            "time": 287.8731487395833,
            "value": 0.4251968503937008
          },
          {
            "number": 7,
            "time": 288.1439819645833,
            "value": 0.4015748031496063
          },
          {
            "number": 7,
            "time": 288.4287040729166,
            "value": 0.3858267716535433
          },
          {
            "number": 7,
            "time": 288.6995372979166,
            "value": 0.36220472440944884
          },
          {
            "number": 7,
            "time": 288.8106483645833,
            "value": 0.3464566929133858
          },
          {
            "number": 7,
            "time": 288.8731483395833,
            "value": 0.3228346456692913
          },
          {
            "number": 7,
            "time": 288.95300941874996,
            "value": 0.2992125984251969
          },
          {
            "number": 7,
            "time": 289.0172455041666,
            "value": 0.28346456692913385
          },
          {
            "number": 7,
            "time": 289.1283565708333,
            "value": 0.25984251968503935
          },
          {
            "number": 7,
            "time": 289.28807872916667,
            "value": 0.2440944881889764
          },
          {
            "number": 7,
            "time": 289.46168977083335,
            "value": 0.2204724409448819
          },
          {
            "number": 7,
            "time": 289.6214119291667,
            "value": 0.2047244094488189
          },
          {
            "number": 7,
            "time": 289.85925905625004,
            "value": 0.18110236220472442
          },
          {
            "number": 7,
            "time": 290.03634231875003,
            "value": 0.16535433070866143
          },
          {
            "number": 7,
            "time": 290.32106442708334,
            "value": 0.14173228346456693
          },
          {
            "number": 7,
            "time": 290.59189765208333,
            "value": 0.12598425196850394
          },
          {
            "number": 7,
            "time": 290.7359948166667,
            "value": 0.10236220472440945
          },
          {
            "number": 7,
            "time": 290.94085584583337,
            "value": 0.08661417322834646
          },
          {
            "number": 7,
            "time": 291.1005780041667,
            "value": 0.06299212598425197
          },
          {
            "number": 7,
            "time": 291.2429390583334,
            "value": 0.047244094488188976
          },
          {
            "number": 7,
            "time": 291.33842513125006,
            "value": 0.023622047244094488
          },
          {
            "number": 7,
            "time": 291.60925835625005,
            "value": 0.007874015748031496
          }
        ],
        "10": [
          {
            "number": 10,
            "time": 0.4687498125000001,
            "value": 0.5039370078740157
          }
        ],
        "32": [
          {
            "number": 32,
            "time": 0.44270815625000004,
            "value": 1
          }
        ],
        "91": [
          {
            "number": 91,
            "time": 0.47743036458333343,
            "value": 0.31496062992125984
          }
        ],
        "93": [
          {
            "number": 93,
            "time": 0.4861109166666668,
            "value": 0
          }
        ],
        "98": [
          {
            "number": 98,
            "time": 0.5034720208333334,
            "value": 0.06299212598425197
          },
          {
            "number": 98,
            "time": 0.5121525729166667,
            "value": 0.07086614173228346
          },
          {
            "number": 98,
            "time": 0.520833125,
            "value": 0.07874015748031496
          },
          {
            "number": 98,
            "time": 0.5295136770833333,
            "value": 0.25196850393700787
          },
          {
            "number": 98,
            "time": 0.5381942291666666,
            "value": 0.25984251968503935
          },
          {
            "number": 98,
            "time": 0.5468747812499999,
            "value": 0.7795275590551181
          },
          {
            "number": 98,
            "time": 0.5555553333333332,
            "value": 0.7874015748031497
          },
          {
            "number": 98,
            "time": 0.5642358854166665,
            "value": 0.8031496062992126
          }
        ],
        "99": [
          {
            "number": 99,
            "time": 0.5034720208333334,
            "value": 0.007874015748031496
          },
          {
            "number": 99,
            "time": 0.5121525729166667,
            "value": 0.007874015748031496
          },
          {
            "number": 99,
            "time": 0.520833125,
            "value": 0.007874015748031496
          },
          {
            "number": 99,
            "time": 0.5295136770833333,
            "value": 0.007874015748031496
          },
          {
            "number": 99,
            "time": 0.5381942291666666,
            "value": 0.007874015748031496
          },
          {
            "number": 99,
            "time": 0.5468747812499999,
            "value": 0.007874015748031496
          },
          {
            "number": 99,
            "time": 0.5555553333333332,
            "value": 0.007874015748031496
          },
          {
            "number": 99,
            "time": 0.5642358854166665,
            "value": 0.007874015748031496
          }
        ],
        "100": [
          {
            "number": 100,
            "time": 0.49479146875000013,
            "value": 0
          }
        ],
        "101": [
          {
            "number": 101,
            "time": 0.49479146875000013,
            "value": 0
          }
        ]
      },
      "id": 4,
      "name": "AcouPiano2",
      "instrumentNumber": 1,
      "instrument": "bright acoustic piano",
      "instrumentFamily": "piano",
      "channelNumber": 3,
      "isPercussion": false
    },
    {
      "startTime": 2.4999989999999994,
      "duration": 282.1821787937518,
      "length": 2672,
      "notes": [
        {
          "name": "D3",
          "midi": 50,
          "time": 2.4999989999999994,
          "velocity": 0.7244094488188977,
          "duration": 0.1440971645833331
        },
        {
          "name": "A4",
          "midi": 69,
          "time": 2.506943441666666,
          "velocity": 0.6614173228346457,
          "duration": 0.14583327499999976
        },
        {
          "name": "D2",
          "midi": 38,
          "time": 2.506943441666666,
          "velocity": 0.7874015748031497,
          "duration": 0.13368050208333315
        },
        {
          "name": "D4",
          "midi": 62,
          "time": 2.5086795520833327,
          "velocity": 0.6299212598425197,
          "duration": 0.1527777166666664
        },
        {
          "name": "D4",
          "midi": 62,
          "time": 2.923609941666666,
          "velocity": 0.5511811023622047,
          "duration": 0.10416662499999996
        },
        {
          "name": "A4",
          "midi": 69,
          "time": 2.923609941666666,
          "velocity": 0.5826771653543307,
          "duration": 0.09027774166666669
        },
        {
          "name": "D4",
          "midi": 62,
          "time": 3.130207081249999,
          "velocity": 0.5039370078740157,
          "duration": 0.09027774166666669
        },
        {
          "name": "A4",
          "midi": 69,
          "time": 3.130207081249999,
          "velocity": 0.5433070866141733,
          "duration": 0.07465274791666676
        },
        {
          "name": "A4",
          "midi": 69,
          "time": 3.3368042208333324,
          "velocity": 0.6377952755905512,
          "duration": 0.09548607291666666
        },
        {
          "name": "D4",
          "midi": 62,
          "time": 3.338540331249999,
          "velocity": 0.5905511811023622,
          "duration": 0.09722218333333332
        },
        {
          "name": "D2",
          "midi": 38,
          "time": 3.380206981249999,
          "velocity": 0.7244094488188977,
          "duration": 0.10763884583333327
        },
        {
          "name": "D3",
          "midi": 50,
          "time": 3.383679202083332,
          "velocity": 0.7165354330708661,
          "duration": 0.09548607291666666
        },
        {
          "name": "D4",
          "midi": 62,
          "time": 3.753470720833332,
          "velocity": 0.5433070866141733,
          "duration": 0.10069440416666664
        },
        {
          "name": "A4",
          "midi": 69,
          "time": 3.753470720833332,
          "velocity": 0.5748031496062992,
          "duration": 0.08333330000000005
        },
        {
          "name": "D4",
          "midi": 62,
          "time": 3.961803970833332,
          "velocity": 0.4645669291338583,
          "duration": 0.08854163124999959
        },
        {
          "name": "A4",
          "midi": 69,
          "time": 3.9652761916666655,
          "velocity": 0.5196850393700787,
          "duration": 0.06770830624999968
        },
        {
          "name": "A4",
          "midi": 69,
          "time": 4.170137220833332,
          "velocity": 0.4881889763779528,
          "duration": 0.09548607291666755
        },
        {
          "name": "D4",
          "midi": 62,
          "time": 4.175345552083332,
          "velocity": 0.5433070866141733,
          "duration": 0.07812496875000008
        },
        {
          "name": "D2",
          "midi": 38,
          "time": 4.192706656249999,
          "velocity": 0.7716535433070866,
          "duration": 0.09374996250000134
        },
        {
          "name": "D3",
          "midi": 50,
          "time": 4.194442766666666,
          "velocity": 0.6614173228346457,
          "duration": 0.0833333000000005
        },
        {
          "name": "A4",
          "midi": 69,
          "time": 4.586803720833333,
          "velocity": 0.5826771653543307,
          "duration": 0.10590273541666662
        },
        {
          "name": "D4",
          "midi": 62,
          "time": 4.5902759416666665,
          "velocity": 0.5511811023622047,
          "duration": 0.11111106666666704
        },
        {
          "name": "D2",
          "midi": 38,
          "time": 4.9982618895833335,
          "velocity": 0.6535433070866141,
          "duration": 0.12326383958333498
        },
        {
          "name": "A4",
          "midi": 69,
          "time": 4.999998000000001,
          "velocity": 0.6535433070866141,
          "duration": 0.11979161875000077
        },
        {
          "name": "D4",
          "midi": 62,
          "time": 5.003470220833334,
          "velocity": 0.6141732283464567,
          "duration": 0.11284717708333414
        },
        {
          "name": "D3",
          "midi": 50,
          "time": 5.015622993750001,
          "velocity": 0.6929133858267716,
          "duration": 0.11111106666666792
        },
        {
          "name": "D4",
          "midi": 62,
          "time": 5.418400610416668,
          "velocity": 0.5354330708661418,
          "duration": 0.08854163125000003
        },
        {
          "name": "A4",
          "midi": 69,
          "time": 5.418400610416668,
          "velocity": 0.5590551181102362,
          "duration": 0.0798610791666663
        },
        {
          "name": "A4",
          "midi": 69,
          "time": 5.623261639583335,
          "velocity": 0.5511811023622047,
          "duration": 0.08506941041666671
        },
        {
          "name": "D4",
          "midi": 62,
          "time": 5.624997750000002,
          "velocity": 0.5039370078740157,
          "duration": 0.08680552083333293
        },
        {
          "name": "A4",
          "midi": 69,
          "time": 5.833331000000002,
          "velocity": 0.5826771653543307,
          "duration": 0.09722218333333466
        },
        {
          "name": "D4",
          "midi": 62,
          "time": 5.835067110416669,
          "velocity": 0.5669291338582677,
          "duration": 0.09027774166666713
        },
        {
          "name": "D3",
          "midi": 50,
          "time": 5.843747662500003,
          "velocity": 0.6535433070866141,
          "duration": 0.08854163125000092
        },
        {
          "name": "D2",
          "midi": 38,
          "time": 5.84548377291667,
          "velocity": 0.7637795275590551,
          "duration": 0.08854163125000092
        },
        {
          "name": "A4",
          "midi": 69,
          "time": 6.251733610416671,
          "velocity": 0.5196850393700787,
          "duration": 0.08854163125000003
        },
        {
          "name": "D4",
          "midi": 62,
          "time": 6.253469720833338,
          "velocity": 0.4881889763779528,
          "duration": 0.09027774166666624
        },
        {
          "name": "A4",
          "midi": 69,
          "time": 6.460066860416671,
          "velocity": 0.4881889763779528,
          "duration": 0.07291663750000055
        },
        {
          "name": "D4",
          "midi": 62,
          "time": 6.461802970833338,
          "velocity": 0.4645669291338583,
          "duration": 0.06770830625000013
        },
        {
          "name": "A4",
          "midi": 69,
          "time": 6.6684001104166715,
          "velocity": 0.5669291338582677,
          "duration": 0.09722218333333377
        },
        {
          "name": "D4",
          "midi": 62,
          "time": 6.670136220833339,
          "velocity": 0.5196850393700787,
          "duration": 0.09548607291666666
        },
        {
          "name": "D2",
          "midi": 38,
          "time": 6.6909695458333385,
          "velocity": 0.6850393700787402,
          "duration": 0.09201385208333335
        },
        {
          "name": "D3",
          "midi": 50,
          "time": 6.696177877083339,
          "velocity": 0.6692913385826772,
          "duration": 0.08333329999999961
        },
        {
          "name": "A4",
          "midi": 69,
          "time": 7.086802720833338,
          "velocity": 0.5905511811023622,
          "duration": 0.1024305145833333
        },
        {
          "name": "D4",
          "midi": 62,
          "time": 7.090274941666672,
          "velocity": 0.5354330708661418,
          "duration": 0.1024305145833333
        },
        {
          "name": "A4",
          "midi": 69,
          "time": 7.505205331250005,
          "velocity": 0.6377952755905512,
          "duration": 0.11805550833333367
        },
        {
          "name": "D2",
          "midi": 38,
          "time": 7.505205331250005,
          "velocity": 0.7165354330708661,
          "duration": 0.09027774166666713
        },
        {
          "name": "D3",
          "midi": 50,
          "time": 7.505205331250005,
          "velocity": 0.6299212598425197,
          "duration": 0.07812496875000008
        },
        {
          "name": "D4",
          "midi": 62,
          "time": 7.510413662500006,
          "velocity": 0.5748031496062992,
          "duration": 0.11805550833333367
        },
        {
          "name": "A4",
          "midi": 69,
          "time": 7.909719058333339,
          "velocity": 0.5354330708661418,
          "duration": 0.09374996250000045
        },
        {
          "name": "D4",
          "midi": 62,
          "time": 7.913191279166672,
          "velocity": 0.5196850393700787,
          "duration": 0.09201385208333424
        },
        {
          "name": "D4",
          "midi": 62,
          "time": 8.119788418750007,
          "velocity": 0.5118110236220472,
          "duration": 0.10243051458333241
        },
        {
          "name": "A4",
          "midi": 69,
          "time": 8.119788418750007,
          "velocity": 0.5511811023622047,
          "duration": 0.09548607291666578
        },
        {
          "name": "D2",
          "midi": 38,
          "time": 8.324649447916673,
          "velocity": 0.6771653543307087,
          "duration": 0.08159718958333428
        },
        {
          "name": "A4",
          "midi": 69,
          "time": 8.324649447916673,
          "velocity": 0.5669291338582677,
          "duration": 0.1076388458333355
        },
        {
          "name": "D4",
          "midi": 62,
          "time": 8.32638555833334,
          "velocity": 0.5354330708661418,
          "duration": 0.10069440416666886
        },
        {
          "name": "D3",
          "midi": 50,
          "time": 8.328121668750008,
          "velocity": 0.6377952755905512,
          "duration": 0.08159718958333428
        },
        {
          "name": "A4",
          "midi": 69,
          "time": 8.748260389583342,
          "velocity": 0.5196850393700787,
          "duration": 0.09722218333333288
        },
        {
          "name": "D4",
          "midi": 62,
          "time": 8.753468720833341,
          "velocity": 0.47244094488188976,
          "duration": 0.09201385208333335
        },
        {
          "name": "A4",
          "midi": 69,
          "time": 8.961801970833342,
          "velocity": 0.5354330708661418,
          "duration": 0.10243051458333419
        },
        {
          "name": "D4",
          "midi": 62,
          "time": 8.96353808125001,
          "velocity": 0.47244094488188976,
          "duration": 0.09374996250000045
        },
        {
          "name": "D2",
          "midi": 38,
          "time": 9.14062134375001,
          "velocity": 0.7637795275590551,
          "duration": 0.09374996250000045
        },
        {
          "name": "D3",
          "midi": 50,
          "time": 9.145829675000009,
          "velocity": 0.6692913385826772,
          "duration": 0.07812496875000008
        },
        {
          "name": "A4",
          "midi": 69,
          "time": 9.166663000000009,
          "velocity": 0.5748031496062992,
          "duration": 0.10937495625000082
        },
        {
          "name": "D4",
          "midi": 62,
          "time": 9.168399110416676,
          "velocity": 0.5275590551181102,
          "duration": 0.10069440416666708
        },
        {
          "name": "A4",
          "midi": 69,
          "time": 9.58853783125001,
          "velocity": 0.5748031496062992,
          "duration": 0.10937495625000082
        },
        {
          "name": "D4",
          "midi": 62,
          "time": 9.592010052083344,
          "velocity": 0.5354330708661418,
          "duration": 0.10069440416666708
        },
        {
          "name": "A4",
          "midi": 69,
          "time": 9.998259889583345,
          "velocity": 0.6771653543307087,
          "duration": 0.11284717708333503
        },
        {
          "name": "D4",
          "midi": 62,
          "time": 9.999996000000012,
          "velocity": 0.6220472440944882,
          "duration": 0.11631939791666746
        },
        {
          "name": "D3",
          "midi": 50,
          "time": 10.003468220833346,
          "velocity": 0.6771653543307087,
          "duration": 0.09027774166666624
        },
        {
          "name": "D2",
          "midi": 38,
          "time": 10.005204331250013,
          "velocity": 0.8031496062992126,
          "duration": 0.08333329999999961
        },
        {
          "name": "D4",
          "midi": 62,
          "time": 10.409718058333347,
          "velocity": 0.5354330708661418,
          "duration": 0.10069440416666708
        },
        {
          "name": "A4",
          "midi": 69,
          "time": 10.409718058333347,
          "velocity": 0.5511811023622047,
          "duration": 0.07638885833333298
        },
        {
          "name": "D4",
          "midi": 62,
          "time": 10.61631519791668,
          "velocity": 0.49606299212598426,
          "duration": 0.09722218333333466
        },
        {
          "name": "A4",
          "midi": 69,
          "time": 10.61631519791668,
          "velocity": 0.5354330708661418,
          "duration": 0.08680552083333382
        },
        {
          "name": "A4",
          "midi": 69,
          "time": 10.824648447916681,
          "velocity": 0.6299212598425197,
          "duration": 0.09722218333333466
        },
        {
          "name": "D4",
          "midi": 62,
          "time": 10.826384558333348,
          "velocity": 0.5354330708661418,
          "duration": 0.08680552083333382
        },
        {
          "name": "D3",
          "midi": 50,
          "time": 10.828120668750016,
          "velocity": 0.6299212598425197,
          "duration": 0.09027774166666624
        },
        {
          "name": "D2",
          "midi": 38,
          "time": 10.829856779166683,
          "velocity": 0.7165354330708661,
          "duration": 0.08854163124999914
        },
        {
          "name": "D4",
          "midi": 62,
          "time": 11.244787168750015,
          "velocity": 0.5039370078740157,
          "duration": 0.09027774166666802
        },
        {
          "name": "A4",
          "midi": 69,
          "time": 11.244787168750015,
          "velocity": 0.5511811023622047,
          "duration": 0.07986107916666718
        },
        {
          "name": "D4",
          "midi": 62,
          "time": 11.454856529166683,
          "velocity": 0.47244094488188976,
          "duration": 0.08680552083333382
        },
        {
          "name": "A4",
          "midi": 69,
          "time": 11.454856529166683,
          "velocity": 0.5196850393700787,
          "duration": 0.07986107916666718
        },
        {
          "name": "A4",
          "midi": 69,
          "time": 11.661453668750017,
          "velocity": 0.5748031496062992,
          "duration": 0.09722218333333466
        },
        {
          "name": "D3",
          "midi": 50,
          "time": 11.663189779166684,
          "velocity": 0.6062992125984252,
          "duration": 0.08680552083333382
        },
        {
          "name": "D4",
          "midi": 62,
          "time": 11.663189779166684,
          "velocity": 0.4881889763779528,
          "duration": 0.08854163125000092
        },
        {
          "name": "D2",
          "midi": 38,
          "time": 11.664925889583351,
          "velocity": 0.6692913385826772,
          "duration": 0.09201385208333335
        },
        {
          "name": "A4",
          "midi": 69,
          "time": 12.076384058333351,
          "velocity": 0.5196850393700787,
          "duration": 0.09895829374999998
        },
        {
          "name": "D4",
          "midi": 62,
          "time": 12.078120168750019,
          "velocity": 0.4645669291338583,
          "duration": 0.10416662499999951
        },
        {
          "name": "D3",
          "midi": 50,
          "time": 12.499995000000018,
          "velocity": 0.7244094488188977,
          "duration": 0.144097164583334
        },
        {
          "name": "A4",
          "midi": 69,
          "time": 12.506939441666685,
          "velocity": 0.6614173228346457,
          "duration": 0.1458332750000011
        },
        {
          "name": "D2",
          "midi": 38,
          "time": 12.506939441666685,
          "velocity": 0.7874015748031497,
          "duration": 0.13368050208333315
        },
        {
          "name": "D4",
          "midi": 62,
          "time": 12.508675552083352,
          "velocity": 0.6299212598425197,
          "duration": 0.15277771666666773
        },
        {
          "name": "D4",
          "midi": 62,
          "time": 12.923605941666686,
          "velocity": 0.5511811023622047,
          "duration": 0.10416662499999951
        },
        {
          "name": "A4",
          "midi": 69,
          "time": 12.923605941666686,
          "velocity": 0.5826771653543307,
          "duration": 0.09027774166666624
        },
        {
          "name": "D4",
          "midi": 62,
          "time": 13.13020308125002,
          "velocity": 0.5039370078740157,
          "duration": 0.09027774166666624
        },
        {
          "name": "A4",
          "midi": 69,
          "time": 13.13020308125002,
          "velocity": 0.5433070866141733,
          "duration": 0.07465274791666587
        },
        {
          "name": "D2",
          "midi": 38,
          "time": 13.321175227083353,
          "velocity": 0.6692913385826772,
          "duration": 0.10590273541666662
        },
        {
          "name": "D3",
          "midi": 50,
          "time": 13.321175227083353,
          "velocity": 0.7086614173228346,
          "duration": 0.09201385208333335
        },
        {
          "name": "A4",
          "midi": 69,
          "time": 13.336800220833354,
          "velocity": 0.6377952755905512,
          "duration": 0.09548607291666578
        },
        {
          "name": "D4",
          "midi": 62,
          "time": 13.33853633125002,
          "velocity": 0.5905511811023622,
          "duration": 0.09722218333333288
        },
        {
          "name": "D4",
          "midi": 62,
          "time": 13.753466720833353,
          "velocity": 0.5433070866141733,
          "duration": 0.10069440416666708
        },
        {
          "name": "A4",
          "midi": 69,
          "time": 13.753466720833353,
          "velocity": 0.5748031496062992,
          "duration": 0.08333329999999961
        },
        {
          "name": "D4",
          "midi": 62,
          "time": 13.961799970833354,
          "velocity": 0.4645669291338583,
          "duration": 0.08854163125000092
        },
        {
          "name": "A4",
          "midi": 69,
          "time": 13.965272191666688,
          "velocity": 0.5196850393700787,
          "duration": 0.06770830624999924
        },
        {
          "name": "D2",
          "midi": 38,
          "time": 14.157980447916689,
          "velocity": 0.7086614173228346,
          "duration": 0.09722218333333466
        },
        {
          "name": "D3",
          "midi": 50,
          "time": 14.159716558333356,
          "velocity": 0.6062992125984252,
          "duration": 0.09548607291666755
        },
        {
          "name": "A4",
          "midi": 69,
          "time": 14.170133220833357,
          "velocity": 0.4881889763779528,
          "duration": 0.09548607291666755
        },
        {
          "name": "D4",
          "midi": 62,
          "time": 14.175341552083356,
          "velocity": 0.5433070866141733,
          "duration": 0.07812496875000008
        },
        {
          "name": "A4",
          "midi": 69,
          "time": 14.586799720833358,
          "velocity": 0.5826771653543307,
          "duration": 0.10590273541666839
        },
        {
          "name": "D4",
          "midi": 62,
          "time": 14.590271941666693,
          "velocity": 0.5511811023622047,
          "duration": 0.11111106666666792
        },
        {
          "name": "D2",
          "midi": 38,
          "time": 14.99825788958336,
          "velocity": 0.6535433070866141,
          "duration": 0.12326383958333587
        },
        {
          "name": "A4",
          "midi": 69,
          "time": 14.999994000000028,
          "velocity": 0.6535433070866141,
          "duration": 0.11979161875000166
        },
        {
          "name": "D4",
          "midi": 62,
          "time": 15.003466220833362,
          "velocity": 0.6141732283464567,
          "duration": 0.11284717708333325
        },
        {
          "name": "D3",
          "midi": 50,
          "time": 15.015618993750028,
          "velocity": 0.6929133858267716,
          "duration": 0.11111106666666792
        },
        {
          "name": "D4",
          "midi": 62,
          "time": 15.418396610416696,
          "velocity": 0.5354330708661418,
          "duration": 0.08854163125000092
        },
        {
          "name": "A4",
          "midi": 69,
          "time": 15.418396610416696,
          "velocity": 0.5590551181102362,
          "duration": 0.07986107916666718
        },
        {
          "name": "A4",
          "midi": 69,
          "time": 15.623257639583365,
          "velocity": 0.5511811023622047,
          "duration": 0.08506941041666671
        },
        {
          "name": "D4",
          "midi": 62,
          "time": 15.624993750000032,
          "velocity": 0.5039370078740157,
          "duration": 0.08680552083333382
        },
        {
          "name": "D2",
          "midi": 38,
          "time": 15.803813122916699,
          "velocity": 0.6850393700787402,
          "duration": 0.10937495625000082
        },
        {
          "name": "D3",
          "midi": 50,
          "time": 15.812493675000033,
          "velocity": 0.6141732283464567,
          "duration": 0.08854163125000092
        },
        {
          "name": "A4",
          "midi": 69,
          "time": 15.833327000000033,
          "velocity": 0.5826771653543307,
          "duration": 0.09722218333333288
        },
        {
          "name": "D4",
          "midi": 62,
          "time": 15.8350631104167,
          "velocity": 0.5669291338582677,
          "duration": 0.09027774166666624
        },
        {
          "name": "A4",
          "midi": 69,
          "time": 16.2517296104167,
          "velocity": 0.5196850393700787,
          "duration": 0.08854163124999914
        },
        {
          "name": "D4",
          "midi": 62,
          "time": 16.253465720833365,
          "velocity": 0.4881889763779528,
          "duration": 0.09027774166666802
        },
        {
          "name": "A4",
          "midi": 69,
          "time": 16.4600628604167,
          "velocity": 0.4881889763779528,
          "duration": 0.07291663750000055
        },
        {
          "name": "D4",
          "midi": 62,
          "time": 16.461798970833364,
          "velocity": 0.4645669291338583,
          "duration": 0.06770830625000102
        },
        {
          "name": "D2",
          "midi": 38,
          "time": 16.6527711166667,
          "velocity": 0.7086614173228346,
          "duration": 0.1076388458333355
        },
        {
          "name": "D3",
          "midi": 50,
          "time": 16.656243337500033,
          "velocity": 0.6299212598425197,
          "duration": 0.09722218333333288
        },
        {
          "name": "A4",
          "midi": 69,
          "time": 16.6683961104167,
          "velocity": 0.5669291338582677,
          "duration": 0.09722218333333288
        },
        {
          "name": "D4",
          "midi": 62,
          "time": 16.670132220833366,
          "velocity": 0.5196850393700787,
          "duration": 0.09548607291666755
        },
        {
          "name": "A4",
          "midi": 69,
          "time": 17.086798720833368,
          "velocity": 0.5905511811023622,
          "duration": 0.10243051458333596
        },
        {
          "name": "D4",
          "midi": 62,
          "time": 17.090270941666702,
          "velocity": 0.5354330708661418,
          "duration": 0.10243051458333596
        },
        {
          "name": "A4",
          "midi": 69,
          "time": 17.50520133125004,
          "velocity": 0.6377952755905512,
          "duration": 0.11805550833333456
        },
        {
          "name": "D2",
          "midi": 38,
          "time": 17.50520133125004,
          "velocity": 0.7165354330708661,
          "duration": 0.09027774166666802
        },
        {
          "name": "D3",
          "midi": 50,
          "time": 17.50520133125004,
          "velocity": 0.6299212598425197,
          "duration": 0.07812496875000008
        },
        {
          "name": "D4",
          "midi": 62,
          "time": 17.510409662500038,
          "velocity": 0.5748031496062992,
          "duration": 0.11805550833333456
        },
        {
          "name": "A4",
          "midi": 69,
          "time": 17.909715058333372,
          "velocity": 0.5354330708661418,
          "duration": 0.09374996250000223
        },
        {
          "name": "D4",
          "midi": 62,
          "time": 17.913187279166706,
          "velocity": 0.5196850393700787,
          "duration": 0.09201385208333335
        },
        {
          "name": "D4",
          "midi": 62,
          "time": 18.11978441875004,
          "velocity": 0.5118110236220472,
          "duration": 0.10243051458333596
        },
        {
          "name": "A4",
          "midi": 69,
          "time": 18.11978441875004,
          "velocity": 0.5511811023622047,
          "duration": 0.09548607291666755
        },
        {
          "name": "D2",
          "midi": 38,
          "time": 18.322909337500043,
          "velocity": 0.7165354330708661,
          "duration": 0.095486072916664
        },
        {
          "name": "D3",
          "midi": 50,
          "time": 18.32464544791671,
          "velocity": 0.5826771653543307,
          "duration": 0.09027774166666447
        },
        {
          "name": "A4",
          "midi": 69,
          "time": 18.32464544791671,
          "velocity": 0.5669291338582677,
          "duration": 0.10763884583333194
        },
        {
          "name": "D4",
          "midi": 62,
          "time": 18.326381558333374,
          "velocity": 0.5354330708661418,
          "duration": 0.10069440416666708
        },
        {
          "name": "A4",
          "midi": 69,
          "time": 18.748256389583375,
          "velocity": 0.5196850393700787,
          "duration": 0.09722218333333288
        },
        {
          "name": "D4",
          "midi": 62,
          "time": 18.753464720833374,
          "velocity": 0.47244094488188976,
          "duration": 0.09201385208333335
        },
        {
          "name": "A4",
          "midi": 69,
          "time": 18.961797970833373,
          "velocity": 0.5354330708661418,
          "duration": 0.10243051458333241
        },
        {
          "name": "D4",
          "midi": 62,
          "time": 18.96353408125004,
          "velocity": 0.47244094488188976,
          "duration": 0.09374996249999867
        },
        {
          "name": "D2",
          "midi": 38,
          "time": 19.154506227083374,
          "velocity": 0.6771653543307087,
          "duration": 0.10416662500000129
        },
        {
          "name": "A4",
          "midi": 69,
          "time": 19.166659000000042,
          "velocity": 0.5748031496062992,
          "duration": 0.10937495625000082
        },
        {
          "name": "D3",
          "midi": 50,
          "time": 19.168395110416707,
          "velocity": 0.5984251968503937,
          "duration": 0.08680552083333382
        },
        {
          "name": "D4",
          "midi": 62,
          "time": 19.168395110416707,
          "velocity": 0.5275590551181102,
          "duration": 0.10069440416666708
        },
        {
          "name": "A4",
          "midi": 69,
          "time": 19.588533831250043,
          "velocity": 0.5748031496062992,
          "duration": 0.10937495625000082
        },
        {
          "name": "D4",
          "midi": 62,
          "time": 19.592006052083377,
          "velocity": 0.5354330708661418,
          "duration": 0.10069440416666708
        },
        {
          "name": "A4",
          "midi": 69,
          "time": 19.998255889583376,
          "velocity": 0.6771653543307087,
          "duration": 0.11284717708333147
        },
        {
          "name": "D4",
          "midi": 62,
          "time": 19.99999200000004,
          "velocity": 0.6220472440944882,
          "duration": 0.11631939791666568
        },
        {
          "name": "D3",
          "midi": 50,
          "time": 20.003464220833376,
          "velocity": 0.6771653543307087,
          "duration": 0.09027774166666447
        },
        {
          "name": "D2",
          "midi": 38,
          "time": 20.00520033125004,
          "velocity": 0.8031496062992126,
          "duration": 0.08333329999999961
        },
        {
          "name": "D4",
          "midi": 62,
          "time": 20.409714058333375,
          "velocity": 0.5354330708661418,
          "duration": 0.10069440416666708
        },
        {
          "name": "A4",
          "midi": 69,
          "time": 20.409714058333375,
          "velocity": 0.5511811023622047,
          "duration": 0.07638885833333475
        },
        {
          "name": "D4",
          "midi": 62,
          "time": 20.61631119791671,
          "velocity": 0.49606299212598426,
          "duration": 0.09722218333333288
        },
        {
          "name": "A4",
          "midi": 69,
          "time": 20.61631119791671,
          "velocity": 0.5354330708661418,
          "duration": 0.08680552083333382
        },
        {
          "name": "D2",
          "midi": 38,
          "time": 20.822908337500042,
          "velocity": 0.6850393700787402,
          "duration": 0.09374996249999512
        },
        {
          "name": "A4",
          "midi": 69,
          "time": 20.824644447916707,
          "velocity": 0.6299212598425197,
          "duration": 0.09722218333332933
        },
        {
          "name": "D4",
          "midi": 62,
          "time": 20.826380558333373,
          "velocity": 0.5354330708661418,
          "duration": 0.08680552083333026
        },
        {
          "name": "D3",
          "midi": 50,
          "time": 20.828116668750038,
          "velocity": 0.6299212598425197,
          "duration": 0.08333329999999961
        },
        {
          "name": "D4",
          "midi": 62,
          "time": 21.244783168750036,
          "velocity": 0.5039370078740157,
          "duration": 0.09027774166666447
        },
        {
          "name": "A4",
          "midi": 69,
          "time": 21.244783168750036,
          "velocity": 0.5511811023622047,
          "duration": 0.0798610791666654
        },
        {
          "name": "D4",
          "midi": 62,
          "time": 21.4548525291667,
          "velocity": 0.47244094488188976,
          "duration": 0.08680552083333382
        },
        {
          "name": "A4",
          "midi": 69,
          "time": 21.4548525291667,
          "velocity": 0.5196850393700787,
          "duration": 0.0798610791666654
        },
        {
          "name": "A4",
          "midi": 69,
          "time": 21.661449668750034,
          "velocity": 0.5748031496062992,
          "duration": 0.09722218333333288
        },
        {
          "name": "D4",
          "midi": 62,
          "time": 21.6631857791667,
          "velocity": 0.4881889763779528,
          "duration": 0.08854163124999914
        },
        {
          "name": "D2",
          "midi": 38,
          "time": 21.687491325000032,
          "velocity": 0.6850393700787402,
          "duration": 0.0885416312500027
        },
        {
          "name": "D3",
          "midi": 50,
          "time": 21.6944357666667,
          "velocity": 0.6299212598425197,
          "duration": 0.07812496875000008
        },
        {
          "name": "A4",
          "midi": 69,
          "time": 22.076380058333367,
          "velocity": 0.5196850393700787,
          "duration": 0.0989582937499982
        },
        {
          "name": "D4",
          "midi": 62,
          "time": 22.078116168750032,
          "velocity": 0.4645669291338583,
          "duration": 0.10416662500000129
        },
        {
          "name": "D3",
          "midi": 50,
          "time": 22.499991000000033,
          "velocity": 0.7244094488188977,
          "duration": 0.14409716458333577
        },
        {
          "name": "A4",
          "midi": 69,
          "time": 22.506935441666702,
          "velocity": 0.6614173228346457,
          "duration": 0.1458332750000011
        },
        {
          "name": "D2",
          "midi": 38,
          "time": 22.506935441666702,
          "velocity": 0.7874015748031497,
          "duration": 0.13368050208333315
        },
        {
          "name": "D4",
          "midi": 62,
          "time": 22.508671552083367,
          "velocity": 0.6299212598425197,
          "duration": 0.1527777166666695
        },
        {
          "name": "D4",
          "midi": 62,
          "time": 22.923601941666703,
          "velocity": 0.5511811023622047,
          "duration": 0.10416662500000129
        },
        {
          "name": "A4",
          "midi": 69,
          "time": 22.923601941666703,
          "velocity": 0.5826771653543307,
          "duration": 0.09027774166666802
        },
        {
          "name": "D4",
          "midi": 62,
          "time": 23.130199081250037,
          "velocity": 0.5039370078740157,
          "duration": 0.09027774166666447
        },
        {
          "name": "A4",
          "midi": 69,
          "time": 23.130199081250037,
          "velocity": 0.5433070866141733,
          "duration": 0.07465274791666587
        },
        {
          "name": "D2",
          "midi": 38,
          "time": 23.3142267854167,
          "velocity": 0.6535433070866141,
          "duration": 0.09548607291666755
        },
        {
          "name": "D3",
          "midi": 50,
          "time": 23.32117122708337,
          "velocity": 0.5511811023622047,
          "duration": 0.0798610791666654
        },
        {
          "name": "A4",
          "midi": 69,
          "time": 23.336796220833367,
          "velocity": 0.6377952755905512,
          "duration": 0.09548607291666755
        },
        {
          "name": "D4",
          "midi": 62,
          "time": 23.338532331250033,
          "velocity": 0.5905511811023622,
          "duration": 0.09722218333333643
        },
        {
          "name": "D4",
          "midi": 62,
          "time": 23.75346272083337,
          "velocity": 0.5433070866141733,
          "duration": 0.10069440416666708
        },
        {
          "name": "A4",
          "midi": 69,
          "time": 23.75346272083337,
          "velocity": 0.5748031496062992,
          "duration": 0.08333329999999961
        },
        {
          "name": "D4",
          "midi": 62,
          "time": 23.961795970833368,
          "velocity": 0.4645669291338583,
          "duration": 0.0885416312500027
        },
        {
          "name": "A4",
          "midi": 69,
          "time": 23.965268191666702,
          "velocity": 0.5196850393700787,
          "duration": 0.06770830625000102
        },
        {
          "name": "D2",
          "midi": 38,
          "time": 24.137143122916704,
          "velocity": 0.6614173228346457,
          "duration": 0.10243051458333241
        },
        {
          "name": "D3",
          "midi": 50,
          "time": 24.142351454166704,
          "velocity": 0.6141732283464567,
          "duration": 0.09374996249999867
        },
        {
          "name": "A4",
          "midi": 69,
          "time": 24.17012922083337,
          "velocity": 0.4881889763779528,
          "duration": 0.09548607291666755
        },
        {
          "name": "D4",
          "midi": 62,
          "time": 24.17533755208337,
          "velocity": 0.5433070866141733,
          "duration": 0.07812496875000008
        },
        {
          "name": "A4",
          "midi": 69,
          "time": 24.586795720833372,
          "velocity": 0.5826771653543307,
          "duration": 0.10590273541666662
        },
        {
          "name": "D4",
          "midi": 62,
          "time": 24.590267941666706,
          "velocity": 0.5511811023622047,
          "duration": 0.11111106666666615
        },
        {
          "name": "D2",
          "midi": 38,
          "time": 24.998253889583374,
          "velocity": 0.6535433070866141,
          "duration": 0.12326383958333409
        },
        {
          "name": "A4",
          "midi": 69,
          "time": 24.99999000000004,
          "velocity": 0.6535433070866141,
          "duration": 0.11979161875000344
        },
        {
          "name": "D4",
          "midi": 62,
          "time": 25.003462220833374,
          "velocity": 0.6141732283464567,
          "duration": 0.11284717708333503
        },
        {
          "name": "D3",
          "midi": 50,
          "time": 25.01561499375004,
          "velocity": 0.6929133858267716,
          "duration": 0.11111106666666615
        },
        {
          "name": "D4",
          "midi": 62,
          "time": 25.418392610416706,
          "velocity": 0.5354330708661418,
          "duration": 0.08854163124999914
        },
        {
          "name": "A4",
          "midi": 69,
          "time": 25.418392610416706,
          "velocity": 0.5590551181102362,
          "duration": 0.0798610791666654
        },
        {
          "name": "A4",
          "midi": 69,
          "time": 25.62325363958337,
          "velocity": 0.5511811023622047,
          "duration": 0.08506941041666494
        },
        {
          "name": "D4",
          "midi": 62,
          "time": 25.624989750000037,
          "velocity": 0.5039370078740157,
          "duration": 0.08680552083333382
        },
        {
          "name": "D3",
          "midi": 50,
          "time": 25.82117022708337,
          "velocity": 0.7165354330708661,
          "duration": 0.08680552083333382
        },
        {
          "name": "D2",
          "midi": 38,
          "time": 25.824642447916705,
          "velocity": 0.7874015748031497,
          "duration": 0.08680552083333382
        },
        {
          "name": "A4",
          "midi": 69,
          "time": 25.83332300000004,
          "velocity": 0.5826771653543307,
          "duration": 0.09722218333333288
        },
        {
          "name": "D4",
          "midi": 62,
          "time": 25.835059110416704,
          "velocity": 0.5669291338582677,
          "duration": 0.09027774166666802
        },
        {
          "name": "A4",
          "midi": 69,
          "time": 26.251725610416706,
          "velocity": 0.5196850393700787,
          "duration": 0.08854163124999914
        },
        {
          "name": "D4",
          "midi": 62,
          "time": 26.25346172083337,
          "velocity": 0.4881889763779528,
          "duration": 0.09027774166666802
        },
        {
          "name": "A4",
          "midi": 69,
          "time": 26.460058860416705,
          "velocity": 0.4881889763779528,
          "duration": 0.07291663750000055
        },
        {
          "name": "D4",
          "midi": 62,
          "time": 26.46179497083337,
          "velocity": 0.4645669291338583,
          "duration": 0.06770830625000102
        },
        {
          "name": "D2",
          "midi": 38,
          "time": 26.65450322708337,
          "velocity": 0.7086614173228346,
          "duration": 0.08854163124999914
        },
        {
          "name": "D3",
          "midi": 50,
          "time": 26.663183779166705,
          "velocity": 0.6692913385826772,
          "duration": 0.08159718958333073
        },
        {
          "name": "A4",
          "midi": 69,
          "time": 26.668392110416704,
          "velocity": 0.5669291338582677,
          "duration": 0.09722218333333288
        },
        {
          "name": "D4",
          "midi": 62,
          "time": 26.67012822083337,
          "velocity": 0.5196850393700787,
          "duration": 0.09548607291666755
        },
        {
          "name": "A4",
          "midi": 69,
          "time": 27.08679472083337,
          "velocity": 0.5905511811023622,
          "duration": 0.10243051458333596
        },
        {
          "name": "D4",
          "midi": 62,
          "time": 27.090266941666705,
          "velocity": 0.5354330708661418,
          "duration": 0.10243051458333596
        },
        {
          "name": "A4",
          "midi": 69,
          "time": 27.50519733125004,
          "velocity": 0.6377952755905512,
          "duration": 0.11805550833333456
        },
        {
          "name": "D2",
          "midi": 38,
          "time": 27.50519733125004,
          "velocity": 0.7165354330708661,
          "duration": 0.09027774166666802
        },
        {
          "name": "D3",
          "midi": 50,
          "time": 27.50519733125004,
          "velocity": 0.6299212598425197,
          "duration": 0.07812496875000008
        },
        {
          "name": "D4",
          "midi": 62,
          "time": 27.51040566250004,
          "velocity": 0.5748031496062992,
          "duration": 0.11805550833333456
        },
        {
          "name": "A4",
          "midi": 69,
          "time": 27.909711058333375,
          "velocity": 0.5354330708661418,
          "duration": 0.09374996250000223
        },
        {
          "name": "D4",
          "midi": 62,
          "time": 27.91318327916671,
          "velocity": 0.5196850393700787,
          "duration": 0.09201385208333335
        },
        {
          "name": "D4",
          "midi": 62,
          "time": 28.119780418750043,
          "velocity": 0.5118110236220472,
          "duration": 0.10243051458333596
        },
        {
          "name": "A4",
          "midi": 69,
          "time": 28.119780418750043,
          "velocity": 0.5511811023622047,
          "duration": 0.09548607291666755
        },
        {
          "name": "D2",
          "midi": 38,
          "time": 28.310752564583378,
          "velocity": 0.7086614173228346,
          "duration": 0.10416662499999774
        },
        {
          "name": "D3",
          "midi": 50,
          "time": 28.315960895833378,
          "velocity": 0.6535433070866141,
          "duration": 0.08854163124999914
        },
        {
          "name": "A4",
          "midi": 69,
          "time": 28.32464144791671,
          "velocity": 0.5669291338582677,
          "duration": 0.10763884583333194
        },
        {
          "name": "D4",
          "midi": 62,
          "time": 28.326377558333377,
          "velocity": 0.5354330708661418,
          "duration": 0.10069440416666708
        },
        {
          "name": "A4",
          "midi": 69,
          "time": 28.748252389583378,
          "velocity": 0.5196850393700787,
          "duration": 0.09722218333333288
        },
        {
          "name": "D4",
          "midi": 62,
          "time": 28.753460720833377,
          "velocity": 0.47244094488188976,
          "duration": 0.09201385208333335
        },
        {
          "name": "A4",
          "midi": 69,
          "time": 28.961793970833376,
          "velocity": 0.5354330708661418,
          "duration": 0.10243051458333241
        },
        {
          "name": "D4",
          "midi": 62,
          "time": 28.963530081250042,
          "velocity": 0.47244094488188976,
          "duration": 0.09374996249999867
        },
        {
          "name": "D2",
          "midi": 38,
          "time": 29.133668902083375,
          "velocity": 0.6929133858267716,
          "duration": 0.10416662499999774
        },
        {
          "name": "D3",
          "midi": 50,
          "time": 29.13714112291671,
          "velocity": 0.6692913385826772,
          "duration": 0.09027774166666447
        },
        {
          "name": "A4",
          "midi": 69,
          "time": 29.16665500000004,
          "velocity": 0.5748031496062992,
          "duration": 0.10937495625000082
        },
        {
          "name": "D4",
          "midi": 62,
          "time": 29.168391110416707,
          "velocity": 0.5275590551181102,
          "duration": 0.10069440416666708
        },
        {
          "name": "A4",
          "midi": 69,
          "time": 29.588529831250042,
          "velocity": 0.5748031496062992,
          "duration": 0.10937495625000082
        },
        {
          "name": "D4",
          "midi": 62,
          "time": 29.592002052083377,
          "velocity": 0.5354330708661418,
          "duration": 0.10069440416666708
        },
        {
          "name": "G4",
          "midi": 67,
          "time": 29.998251889583376,
          "velocity": 0.6771653543307087,
          "duration": 0.11284717708333147
        },
        {
          "name": "C4",
          "midi": 60,
          "time": 29.99998800000004,
          "velocity": 0.6220472440944882,
          "duration": 0.11631939791666568
        },
        {
          "name": "C3",
          "midi": 48,
          "time": 30.003460220833375,
          "velocity": 0.6771653543307087,
          "duration": 0.09027774166666447
        },
        {
          "name": "C2",
          "midi": 36,
          "time": 30.00519633125004,
          "velocity": 0.8031496062992126,
          "duration": 0.08333329999999961
        },
        {
          "name": "C4",
          "midi": 60,
          "time": 30.409710058333374,
          "velocity": 0.5354330708661418,
          "duration": 0.10069440416666708
        },
        {
          "name": "G4",
          "midi": 67,
          "time": 30.409710058333374,
          "velocity": 0.5511811023622047,
          "duration": 0.07638885833333475
        },
        {
          "name": "C4",
          "midi": 60,
          "time": 30.616307197916708,
          "velocity": 0.49606299212598426,
          "duration": 0.09722218333333288
        },
        {
          "name": "G4",
          "midi": 67,
          "time": 30.616307197916708,
          "velocity": 0.5354330708661418,
          "duration": 0.08680552083333382
        },
        {
          "name": "G4",
          "midi": 67,
          "time": 30.824640447916707,
          "velocity": 0.6299212598425197,
          "duration": 0.09722218333333643
        },
        {
          "name": "C4",
          "midi": 60,
          "time": 30.826376558333372,
          "velocity": 0.5354330708661418,
          "duration": 0.08680552083333737
        },
        {
          "name": "C2",
          "midi": 36,
          "time": 30.83332100000004,
          "velocity": 0.7480314960629921,
          "duration": 0.10243051458333952
        },
        {
          "name": "C3",
          "midi": 48,
          "time": 30.84547377291671,
          "velocity": 0.6220472440944882,
          "duration": 0.08333330000000316
        },
        {
          "name": "C4",
          "midi": 60,
          "time": 31.244779168750046,
          "velocity": 0.5039370078740157,
          "duration": 0.09027774166666447
        },
        {
          "name": "G4",
          "midi": 67,
          "time": 31.244779168750046,
          "velocity": 0.5511811023622047,
          "duration": 0.0798610791666654
        },
        {
          "name": "C4",
          "midi": 60,
          "time": 31.45484852916671,
          "velocity": 0.47244094488188976,
          "duration": 0.08680552083333382
        },
        {
          "name": "G4",
          "midi": 67,
          "time": 31.45484852916671,
          "velocity": 0.5196850393700787,
          "duration": 0.0798610791666654
        },
        {
          "name": "G4",
          "midi": 67,
          "time": 31.661445668750044,
          "velocity": 0.5748031496062992,
          "duration": 0.09722218333333288
        },
        {
          "name": "C4",
          "midi": 60,
          "time": 31.66318177916671,
          "velocity": 0.4881889763779528,
          "duration": 0.08854163124999914
        },
        {
          "name": "C2",
          "midi": 36,
          "time": 31.682278993750042,
          "velocity": 0.6614173228346457,
          "duration": 0.23958323749999977
        },
        {
          "name": "C3",
          "midi": 48,
          "time": 31.690959545833376,
          "velocity": 0.6299212598425197,
          "duration": 0.1614582687499997
        },
        {
          "name": "G4",
          "midi": 67,
          "time": 32.07637605833337,
          "velocity": 0.5196850393700787,
          "duration": 0.09895829375000176
        },
        {
          "name": "C4",
          "midi": 60,
          "time": 32.07811216875004,
          "velocity": 0.4645669291338583,
          "duration": 0.10416662500000484
        },
        {
          "name": "F3",
          "midi": 53,
          "time": 32.49998700000005,
          "velocity": 0.7244094488188977,
          "duration": 0.14409716458332866
        },
        {
          "name": "C5",
          "midi": 72,
          "time": 32.506931441666715,
          "velocity": 0.6614173228346457,
          "duration": 0.145833274999994
        },
        {
          "name": "F2",
          "midi": 41,
          "time": 32.506931441666715,
          "velocity": 0.7874015748031497,
          "duration": 0.1336805020833296
        },
        {
          "name": "F4",
          "midi": 65,
          "time": 32.50866755208338,
          "velocity": 0.6299212598425197,
          "duration": 0.1527777166666624
        },
        {
          "name": "F4",
          "midi": 65,
          "time": 32.923597941666706,
          "velocity": 0.5511811023622047,
          "duration": 0.10416662500000484
        },
        {
          "name": "C5",
          "midi": 72,
          "time": 32.923597941666706,
          "velocity": 0.5826771653543307,
          "duration": 0.09027774166666802
        },
        {
          "name": "F4",
          "midi": 65,
          "time": 33.130195081250044,
          "velocity": 0.5039370078740157,
          "duration": 0.09027774166666802
        },
        {
          "name": "C5",
          "midi": 72,
          "time": 33.130195081250044,
          "velocity": 0.5433070866141733,
          "duration": 0.07465274791666587
        },
        {
          "name": "C5",
          "midi": 72,
          "time": 33.33679222083338,
          "velocity": 0.6377952755905512,
          "duration": 0.095486072916664
        },
        {
          "name": "F4",
          "midi": 65,
          "time": 33.338528331250046,
          "velocity": 0.5905511811023622,
          "duration": 0.09722218333332933
        },
        {
          "name": "F2",
          "midi": 41,
          "time": 33.36283387708338,
          "velocity": 0.6377952755905512,
          "duration": 0.15624993749999305
        },
        {
          "name": "F3",
          "midi": 53,
          "time": 33.36456998750005,
          "velocity": 0.5748031496062992,
          "duration": 0.13541661249999493
        },
        {
          "name": "F4",
          "midi": 65,
          "time": 33.75345872083337,
          "velocity": 0.5433070866141733,
          "duration": 0.10069440416666708
        },
        {
          "name": "C5",
          "midi": 72,
          "time": 33.75345872083337,
          "velocity": 0.5748031496062992,
          "duration": 0.08333329999999961
        },
        {
          "name": "F4",
          "midi": 65,
          "time": 33.961791970833374,
          "velocity": 0.4645669291338583,
          "duration": 0.08854163124999559
        },
        {
          "name": "C5",
          "midi": 72,
          "time": 33.965264191666705,
          "velocity": 0.5196850393700787,
          "duration": 0.06770830624999746
        },
        {
          "name": "C5",
          "midi": 72,
          "time": 34.17012522083337,
          "velocity": 0.4881889763779528,
          "duration": 0.095486072916664
        },
        {
          "name": "F4",
          "midi": 65,
          "time": 34.17533355208337,
          "velocity": 0.5433070866141733,
          "duration": 0.07812496874999653
        },
        {
          "name": "F2",
          "midi": 41,
          "time": 34.21352798125004,
          "velocity": 0.7480314960629921,
          "duration": 0.1458332750000011
        },
        {
          "name": "F3",
          "midi": 53,
          "time": 34.21352798125004,
          "velocity": 0.7086614173228346,
          "duration": 0.11284717708333147
        },
        {
          "name": "C5",
          "midi": 72,
          "time": 34.586791720833375,
          "velocity": 0.5826771653543307,
          "duration": 0.10590273541666306
        },
        {
          "name": "F4",
          "midi": 65,
          "time": 34.590263941666706,
          "velocity": 0.5511811023622047,
          "duration": 0.11111106666666615
        },
        {
          "name": "G4",
          "midi": 67,
          "time": 34.99824988958337,
          "velocity": 0.6771653543307087,
          "duration": 0.11284717708333147
        },
        {
          "name": "C4",
          "midi": 60,
          "time": 34.999986000000035,
          "velocity": 0.6220472440944882,
          "duration": 0.11631939791666923
        },
        {
          "name": "C3",
          "midi": 48,
          "time": 35.003458220833366,
          "velocity": 0.6771653543307087,
          "duration": 0.09027774166666802
        },
        {
          "name": "C2",
          "midi": 36,
          "time": 35.00519433125003,
          "velocity": 0.8031496062992126,
          "duration": 0.08333329999999961
        },
        {
          "name": "C4",
          "midi": 60,
          "time": 35.40970805833337,
          "velocity": 0.5354330708661418,
          "duration": 0.10069440416666708
        },
        {
          "name": "G4",
          "midi": 67,
          "time": 35.40970805833337,
          "velocity": 0.5511811023622047,
          "duration": 0.0763888583333312
        },
        {
          "name": "C4",
          "midi": 60,
          "time": 35.61630519791671,
          "velocity": 0.49606299212598426,
          "duration": 0.09722218333332933
        },
        {
          "name": "G4",
          "midi": 67,
          "time": 35.61630519791671,
          "velocity": 0.5354330708661418,
          "duration": 0.08680552083333026
        },
        {
          "name": "G4",
          "midi": 67,
          "time": 35.824638447916705,
          "velocity": 0.6299212598425197,
          "duration": 0.09722218333332933
        },
        {
          "name": "C4",
          "midi": 60,
          "time": 35.82637455833337,
          "velocity": 0.5354330708661418,
          "duration": 0.08680552083333026
        },
        {
          "name": "C3",
          "midi": 48,
          "time": 35.84720788333337,
          "velocity": 0.5748031496062992,
          "duration": 0.13194439166666427
        },
        {
          "name": "C2",
          "midi": 36,
          "time": 35.8506801041667,
          "velocity": 0.5905511811023622,
          "duration": 0.18055548333333604
        },
        {
          "name": "C4",
          "midi": 60,
          "time": 36.24477716875003,
          "velocity": 0.5039370078740157,
          "duration": 0.09027774166666802
        },
        {
          "name": "G4",
          "midi": 67,
          "time": 36.24477716875003,
          "velocity": 0.5511811023622047,
          "duration": 0.07986107916666896
        },
        {
          "name": "C4",
          "midi": 60,
          "time": 36.4548465291667,
          "velocity": 0.47244094488188976,
          "duration": 0.08680552083333737
        },
        {
          "name": "G4",
          "midi": 67,
          "time": 36.4548465291667,
          "velocity": 0.5196850393700787,
          "duration": 0.07986107916666896
        },
        {
          "name": "G4",
          "midi": 67,
          "time": 36.66144366875004,
          "velocity": 0.5748031496062992,
          "duration": 0.09722218333333643
        },
        {
          "name": "C4",
          "midi": 60,
          "time": 36.663179779166704,
          "velocity": 0.4881889763779528,
          "duration": 0.0885416312500027
        },
        {
          "name": "C2",
          "midi": 36,
          "time": 36.678804772916706,
          "velocity": 0.6377952755905512,
          "duration": 0.17534715208333296
        },
        {
          "name": "C3",
          "midi": 48,
          "time": 36.68227699375004,
          "velocity": 0.5748031496062992,
          "duration": 0.14930549583333885
        },
        {
          "name": "G4",
          "midi": 67,
          "time": 37.07637405833337,
          "velocity": 0.5196850393700787,
          "duration": 0.09895829375000176
        },
        {
          "name": "C4",
          "midi": 60,
          "time": 37.07811016875004,
          "velocity": 0.4645669291338583,
          "duration": 0.10416662500000484
        },
        {
          "name": "F4",
          "midi": 65,
          "time": 37.50519333125005,
          "velocity": 0.6377952755905512,
          "duration": 0.11805550833333456
        },
        {
          "name": "A#1",
          "midi": 34,
          "time": 37.50519333125005,
          "velocity": 0.7165354330708661,
          "duration": 0.09027774166666802
        },
        {
          "name": "A#2",
          "midi": 46,
          "time": 37.50519333125005,
          "velocity": 0.6299212598425197,
          "duration": 0.07812496875000363
        },
        {
          "name": "A#3",
          "midi": 58,
          "time": 37.51040166250005,
          "velocity": 0.5748031496062992,
          "duration": 0.11805550833333456
        },
        {
          "name": "F4",
          "midi": 65,
          "time": 37.90970705833339,
          "velocity": 0.5354330708661418,
          "duration": 0.09374996249999867
        },
        {
          "name": "A#3",
          "midi": 58,
          "time": 37.91317927916672,
          "velocity": 0.5196850393700787,
          "duration": 0.09201385208333335
        },
        {
          "name": "A#3",
          "midi": 58,
          "time": 38.11977641875005,
          "velocity": 0.5118110236220472,
          "duration": 0.10243051458333241
        },
        {
          "name": "F4",
          "midi": 65,
          "time": 38.11977641875005,
          "velocity": 0.5511811023622047,
          "duration": 0.095486072916664
        },
        {
          "name": "F4",
          "midi": 65,
          "time": 38.324637447916714,
          "velocity": 0.5669291338582677,
          "duration": 0.1076388458333355
        },
        {
          "name": "A#3",
          "midi": 58,
          "time": 38.32637355833338,
          "velocity": 0.5354330708661418,
          "duration": 0.10069440416666708
        },
        {
          "name": "A#2",
          "midi": 46,
          "time": 38.33505411041671,
          "velocity": 0.6456692913385826,
          "duration": 0.11631939791666923
        },
        {
          "name": "A#1",
          "midi": 34,
          "time": 38.34026244166672,
          "velocity": 0.6614173228346457,
          "duration": 0.11979161874999988
        },
        {
          "name": "F4",
          "midi": 65,
          "time": 38.74824838958338,
          "velocity": 0.5196850393700787,
          "duration": 0.09722218333333643
        },
        {
          "name": "A#3",
          "midi": 58,
          "time": 38.753456720833384,
          "velocity": 0.47244094488188976,
          "duration": 0.09201385208333335
        },
        {
          "name": "F4",
          "midi": 65,
          "time": 38.96178997083339,
          "velocity": 0.5354330708661418,
          "duration": 0.10243051458333241
        },
        {
          "name": "A#3",
          "midi": 58,
          "time": 38.96352608125005,
          "velocity": 0.47244094488188976,
          "duration": 0.09374996249999867
        },
        {
          "name": "A#2",
          "midi": 46,
          "time": 39.161442668750055,
          "velocity": 0.7007874015748031,
          "duration": 0.1145832875000039
        },
        {
          "name": "F4",
          "midi": 65,
          "time": 39.16665100000006,
          "velocity": 0.5748031496062992,
          "duration": 0.10937495625000082
        },
        {
          "name": "A#1",
          "midi": 34,
          "time": 39.168387110416724,
          "velocity": 0.6850393700787402,
          "duration": 0.1267360604166683
        },
        {
          "name": "A#3",
          "midi": 58,
          "time": 39.168387110416724,
          "velocity": 0.5275590551181102,
          "duration": 0.10069440416666708
        },
        {
          "name": "F4",
          "midi": 65,
          "time": 39.58852583125006,
          "velocity": 0.5748031496062992,
          "duration": 0.10937495625000082
        },
        {
          "name": "A#3",
          "midi": 58,
          "time": 39.59199805208339,
          "velocity": 0.5354330708661418,
          "duration": 0.10069440416666708
        },
        {
          "name": "E4",
          "midi": 64,
          "time": 39.998247889583396,
          "velocity": 0.6771653543307087,
          "duration": 0.11284717708333147
        },
        {
          "name": "A3",
          "midi": 57,
          "time": 39.99998400000006,
          "velocity": 0.6220472440944882,
          "duration": 0.11631939791666923
        },
        {
          "name": "A2",
          "midi": 45,
          "time": 40.00345622083339,
          "velocity": 0.6771653543307087,
          "duration": 0.09027774166666802
        },
        {
          "name": "A1",
          "midi": 33,
          "time": 40.00519233125006,
          "velocity": 0.8031496062992126,
          "duration": 0.08333329999999961
        },
        {
          "name": "A3",
          "midi": 57,
          "time": 40.4097060583334,
          "velocity": 0.5354330708661418,
          "duration": 0.10069440416666708
        },
        {
          "name": "E4",
          "midi": 64,
          "time": 40.4097060583334,
          "velocity": 0.5511811023622047,
          "duration": 0.0763888583333312
        },
        {
          "name": "A3",
          "midi": 57,
          "time": 40.616303197916736,
          "velocity": 0.49606299212598426,
          "duration": 0.09722218333332933
        },
        {
          "name": "E4",
          "midi": 64,
          "time": 40.616303197916736,
          "velocity": 0.5354330708661418,
          "duration": 0.08680552083333026
        },
        {
          "name": "E4",
          "midi": 64,
          "time": 40.82463644791673,
          "velocity": 0.6299212598425197,
          "duration": 0.09722218333332933
        },
        {
          "name": "A3",
          "midi": 57,
          "time": 40.8263725583334,
          "velocity": 0.5354330708661418,
          "duration": 0.08680552083333026
        },
        {
          "name": "A2",
          "midi": 45,
          "time": 40.83852533125006,
          "velocity": 0.6299212598425197,
          "duration": 0.11284717708333147
        },
        {
          "name": "A1",
          "midi": 33,
          "time": 40.84546977291673,
          "velocity": 0.6771653543307087,
          "duration": 0.13541661249999493
        },
        {
          "name": "A3",
          "midi": 57,
          "time": 41.24477516875006,
          "velocity": 0.5039370078740157,
          "duration": 0.09027774166666802
        },
        {
          "name": "E4",
          "midi": 64,
          "time": 41.24477516875006,
          "velocity": 0.5511811023622047,
          "duration": 0.07986107916666896
        },
        {
          "name": "A3",
          "midi": 57,
          "time": 41.45484452916673,
          "velocity": 0.47244094488188976,
          "duration": 0.08680552083333737
        },
        {
          "name": "E4",
          "midi": 64,
          "time": 41.45484452916673,
          "velocity": 0.5196850393700787,
          "duration": 0.07986107916666896
        },
        {
          "name": "A2",
          "midi": 45,
          "time": 41.64234445416673,
          "velocity": 0.6299212598425197,
          "duration": 0.10937495625000793
        },
        {
          "name": "A1",
          "midi": 33,
          "time": 41.647552785416735,
          "velocity": 0.7716535433070866,
          "duration": 0.10590273541667017
        },
        {
          "name": "E4",
          "midi": 64,
          "time": 41.66144166875007,
          "velocity": 0.5748031496062992,
          "duration": 0.09722218333333643
        },
        {
          "name": "A3",
          "midi": 57,
          "time": 41.66317777916674,
          "velocity": 0.4881889763779528,
          "duration": 0.0885416312500027
        },
        {
          "name": "E4",
          "midi": 64,
          "time": 42.07637205833341,
          "velocity": 0.5196850393700787,
          "duration": 0.09895829375000176
        },
        {
          "name": "A3",
          "midi": 57,
          "time": 42.07810816875008,
          "velocity": 0.4645669291338583,
          "duration": 0.10416662500000484
        },
        {
          "name": "E4",
          "midi": 64,
          "time": 42.49824688958341,
          "velocity": 0.6771653543307087,
          "duration": 0.11284717708333147
        },
        {
          "name": "A3",
          "midi": 57,
          "time": 42.49998300000008,
          "velocity": 0.6220472440944882,
          "duration": 0.11631939791666923
        },
        {
          "name": "A2",
          "midi": 45,
          "time": 42.50345522083341,
          "velocity": 0.6771653543307087,
          "duration": 0.09027774166666802
        },
        {
          "name": "A1",
          "midi": 33,
          "time": 42.505191331250074,
          "velocity": 0.8031496062992126,
          "duration": 0.08333329999999961
        },
        {
          "name": "A3",
          "midi": 57,
          "time": 42.909705058333415,
          "velocity": 0.5354330708661418,
          "duration": 0.10069440416666708
        },
        {
          "name": "E4",
          "midi": 64,
          "time": 42.909705058333415,
          "velocity": 0.5511811023622047,
          "duration": 0.0763888583333312
        },
        {
          "name": "A3",
          "midi": 57,
          "time": 43.11630219791675,
          "velocity": 0.49606299212598426,
          "duration": 0.09722218333332933
        },
        {
          "name": "E4",
          "midi": 64,
          "time": 43.11630219791675,
          "velocity": 0.5354330708661418,
          "duration": 0.08680552083333026
        },
        {
          "name": "A1",
          "midi": 33,
          "time": 43.309010454166746,
          "velocity": 0.6220472440944882,
          "duration": 0.16145826874999614
        },
        {
          "name": "A2",
          "midi": 45,
          "time": 43.312482675000076,
          "velocity": 0.5669291338582677,
          "duration": 0.1336805020833296
        },
        {
          "name": "E4",
          "midi": 64,
          "time": 43.32463544791674,
          "velocity": 0.6299212598425197,
          "duration": 0.09722218333332933
        },
        {
          "name": "A3",
          "midi": 57,
          "time": 43.326371558333406,
          "velocity": 0.5354330708661418,
          "duration": 0.08680552083333026
        },
        {
          "name": "A3",
          "midi": 57,
          "time": 43.74477416875008,
          "velocity": 0.5039370078740157,
          "duration": 0.09027774166666802
        },
        {
          "name": "E4",
          "midi": 64,
          "time": 43.74477416875008,
          "velocity": 0.5511811023622047,
          "duration": 0.07986107916666896
        },
        {
          "name": "A3",
          "midi": 57,
          "time": 43.954843529166745,
          "velocity": 0.47244094488188976,
          "duration": 0.08680552083333737
        },
        {
          "name": "E4",
          "midi": 64,
          "time": 43.954843529166745,
          "velocity": 0.5196850393700787,
          "duration": 0.07986107916666896
        },
        {
          "name": "A1",
          "midi": 33,
          "time": 44.15796844791675,
          "velocity": 0.7244094488188977,
          "duration": 0.11631939791666923
        },
        {
          "name": "E4",
          "midi": 64,
          "time": 44.16144066875008,
          "velocity": 0.5748031496062992,
          "duration": 0.09722218333333643
        },
        {
          "name": "A3",
          "midi": 57,
          "time": 44.16317677916675,
          "velocity": 0.4881889763779528,
          "duration": 0.0885416312500027
        },
        {
          "name": "A2",
          "midi": 45,
          "time": 44.16838511041675,
          "velocity": 0.7244094488188977,
          "duration": 0.10069440416666708
        },
        {
          "name": "E4",
          "midi": 64,
          "time": 44.57637105833342,
          "velocity": 0.5196850393700787,
          "duration": 0.09895829375000176
        },
        {
          "name": "A3",
          "midi": 57,
          "time": 44.57810716875009,
          "velocity": 0.4645669291338583,
          "duration": 0.10416662500000484
        },
        {
          "name": "D3",
          "midi": 50,
          "time": 44.999982000000095,
          "velocity": 0.7244094488188977,
          "duration": 0.14409716458332866
        },
        {
          "name": "A4",
          "midi": 69,
          "time": 45.006926441666764,
          "velocity": 0.6614173228346457,
          "duration": 0.145833274999994
        },
        {
          "name": "D2",
          "midi": 38,
          "time": 45.006926441666764,
          "velocity": 0.7874015748031497,
          "duration": 0.1336805020833296
        },
        {
          "name": "D4",
          "midi": 62,
          "time": 45.00866255208343,
          "velocity": 0.6299212598425197,
          "duration": 0.1527777166666624
        },
        {
          "name": "D4",
          "midi": 62,
          "time": 45.423592941666755,
          "velocity": 0.5511811023622047,
          "duration": 0.10416662500000484
        },
        {
          "name": "A4",
          "midi": 69,
          "time": 45.423592941666755,
          "velocity": 0.5826771653543307,
          "duration": 0.09027774166666802
        },
        {
          "name": "D4",
          "midi": 62,
          "time": 45.63019008125009,
          "velocity": 0.5039370078740157,
          "duration": 0.09027774166666802
        },
        {
          "name": "A4",
          "midi": 69,
          "time": 45.63019008125009,
          "velocity": 0.5433070866141733,
          "duration": 0.07465274791666587
        },
        {
          "name": "D2",
          "midi": 38,
          "time": 45.81421778541676,
          "velocity": 0.6535433070866141,
          "duration": 0.0954860729166711
        },
        {
          "name": "D3",
          "midi": 50,
          "time": 45.82116222708343,
          "velocity": 0.5511811023622047,
          "duration": 0.07986107916666896
        },
        {
          "name": "A4",
          "midi": 69,
          "time": 45.83678722083343,
          "velocity": 0.6377952755905512,
          "duration": 0.095486072916664
        },
        {
          "name": "D4",
          "midi": 62,
          "time": 45.838523331250094,
          "velocity": 0.5905511811023622,
          "duration": 0.09722218333332933
        },
        {
          "name": "D4",
          "midi": 62,
          "time": 46.25345372083343,
          "velocity": 0.5433070866141733,
          "duration": 0.10069440416666708
        },
        {
          "name": "A4",
          "midi": 69,
          "time": 46.25345372083343,
          "velocity": 0.5748031496062992,
          "duration": 0.08333329999999961
        },
        {
          "name": "D4",
          "midi": 62,
          "time": 46.46178697083343,
          "velocity": 0.4645669291338583,
          "duration": 0.08854163124999559
        },
        {
          "name": "A4",
          "midi": 69,
          "time": 46.46525919166676,
          "velocity": 0.5196850393700787,
          "duration": 0.06770830624999746
        },
        {
          "name": "D2",
          "midi": 38,
          "time": 46.637134122916756,
          "velocity": 0.6614173228346457,
          "duration": 0.10243051458333952
        },
        {
          "name": "D3",
          "midi": 50,
          "time": 46.64234245416676,
          "velocity": 0.6141732283464567,
          "duration": 0.09374996250000578
        },
        {
          "name": "A4",
          "midi": 69,
          "time": 46.670120220833425,
          "velocity": 0.4881889763779528,
          "duration": 0.0954860729166711
        },
        {
          "name": "D4",
          "midi": 62,
          "time": 46.67532855208343,
          "velocity": 0.5433070866141733,
          "duration": 0.07812496875000363
        },
        {
          "name": "A4",
          "midi": 69,
          "time": 47.08678672083343,
          "velocity": 0.5826771653543307,
          "duration": 0.10590273541666306
        },
        {
          "name": "D4",
          "midi": 62,
          "time": 47.09025894166676,
          "velocity": 0.5511811023622047,
          "duration": 0.11111106666666615
        },
        {
          "name": "D2",
          "midi": 38,
          "time": 47.498244889583425,
          "velocity": 0.6535433070866141,
          "duration": 0.12326383958332343
        },
        {
          "name": "A4",
          "midi": 69,
          "time": 47.49998100000009,
          "velocity": 0.6535433070866141,
          "duration": 0.11979161874999278
        },
        {
          "name": "D4",
          "midi": 62,
          "time": 47.50345322083342,
          "velocity": 0.6141732283464567,
          "duration": 0.11284717708333147
        },
        {
          "name": "D3",
          "midi": 50,
          "time": 47.515605993750086,
          "velocity": 0.6929133858267716,
          "duration": 0.11111106666666615
        },
        {
          "name": "D4",
          "midi": 62,
          "time": 47.918383610416754,
          "velocity": 0.5354330708661418,
          "duration": 0.0885416312500027
        },
        {
          "name": "A4",
          "midi": 69,
          "time": 47.918383610416754,
          "velocity": 0.5590551181102362,
          "duration": 0.07986107916666896
        },
        {
          "name": "A4",
          "midi": 69,
          "time": 48.123244639583426,
          "velocity": 0.5511811023622047,
          "duration": 0.08506941041666494
        },
        {
          "name": "D4",
          "midi": 62,
          "time": 48.12498075000009,
          "velocity": 0.5039370078740157,
          "duration": 0.08680552083333026
        },
        {
          "name": "D3",
          "midi": 50,
          "time": 48.32116122708342,
          "velocity": 0.7165354330708661,
          "duration": 0.08680552083333026
        },
        {
          "name": "D2",
          "midi": 38,
          "time": 48.32463344791675,
          "velocity": 0.7874015748031497,
          "duration": 0.08680552083333026
        },
        {
          "name": "A4",
          "midi": 69,
          "time": 48.33331400000009,
          "velocity": 0.5826771653543307,
          "duration": 0.09722218333333643
        },
        {
          "name": "D4",
          "midi": 62,
          "time": 48.33505011041675,
          "velocity": 0.5669291338582677,
          "duration": 0.09027774166666802
        },
        {
          "name": "A4",
          "midi": 69,
          "time": 48.75171661041676,
          "velocity": 0.5196850393700787,
          "duration": 0.08854163124999559
        },
        {
          "name": "D4",
          "midi": 62,
          "time": 48.75345272083342,
          "velocity": 0.4881889763779528,
          "duration": 0.09027774166666092
        },
        {
          "name": "A4",
          "midi": 69,
          "time": 48.96004986041675,
          "velocity": 0.4881889763779528,
          "duration": 0.07291663749999344
        },
        {
          "name": "D4",
          "midi": 62,
          "time": 48.96178597083342,
          "velocity": 0.4645669291338583,
          "duration": 0.06770830624999746
        },
        {
          "name": "D2",
          "midi": 38,
          "time": 49.15449422708341,
          "velocity": 0.7086614173228346,
          "duration": 0.0885416312500027
        },
        {
          "name": "D3",
          "midi": 50,
          "time": 49.163174779166745,
          "velocity": 0.6692913385826772,
          "duration": 0.08159718958333428
        },
        {
          "name": "A4",
          "midi": 69,
          "time": 49.16838311041675,
          "velocity": 0.5669291338582677,
          "duration": 0.09722218333332933
        },
        {
          "name": "D4",
          "midi": 62,
          "time": 49.17011922083341,
          "velocity": 0.5196850393700787,
          "duration": 0.095486072916664
        },
        {
          "name": "A4",
          "midi": 69,
          "time": 49.58678572083341,
          "velocity": 0.5905511811023622,
          "duration": 0.10243051458333241
        },
        {
          "name": "D4",
          "midi": 62,
          "time": 49.59025794166674,
          "velocity": 0.5354330708661418,
          "duration": 0.10243051458333241
        },
        {
          "name": "A4",
          "midi": 69,
          "time": 50.005188331250075,
          "velocity": 0.6377952755905512,
          "duration": 0.11805550833333456
        },
        {
          "name": "D2",
          "midi": 38,
          "time": 50.005188331250075,
          "velocity": 0.7165354330708661,
          "duration": 0.09027774166666802
        },
        {
          "name": "D3",
          "midi": 50,
          "time": 50.005188331250075,
          "velocity": 0.6299212598425197,
          "duration": 0.07812496875000363
        },
        {
          "name": "D4",
          "midi": 62,
          "time": 50.01039666250008,
          "velocity": 0.5748031496062992,
          "duration": 0.11805550833333456
        },
        {
          "name": "A4",
          "midi": 69,
          "time": 50.409702058333416,
          "velocity": 0.5354330708661418,
          "duration": 0.09374996249999867
        },
        {
          "name": "D4",
          "midi": 62,
          "time": 50.413174279166746,
          "velocity": 0.5196850393700787,
          "duration": 0.09201385208333335
        },
        {
          "name": "D4",
          "midi": 62,
          "time": 50.61977141875008,
          "velocity": 0.5118110236220472,
          "duration": 0.10243051458333241
        },
        {
          "name": "A4",
          "midi": 69,
          "time": 50.61977141875008,
          "velocity": 0.5511811023622047,
          "duration": 0.095486072916664
        },
        {
          "name": "D2",
          "midi": 38,
          "time": 50.81074356458341,
          "velocity": 0.7086614173228346,
          "duration": 0.10416662499999774
        },
        {
          "name": "D3",
          "midi": 50,
          "time": 50.815951895833415,
          "velocity": 0.6535433070866141,
          "duration": 0.08854163124999559
        },
        {
          "name": "A4",
          "midi": 69,
          "time": 50.82463244791675,
          "velocity": 0.5669291338582677,
          "duration": 0.10763884583332839
        },
        {
          "name": "D4",
          "midi": 62,
          "time": 50.826368558333414,
          "velocity": 0.5354330708661418,
          "duration": 0.10069440416665998
        },
        {
          "name": "A4",
          "midi": 69,
          "time": 51.24824338958341,
          "velocity": 0.5196850393700787,
          "duration": 0.09722218333333643
        },
        {
          "name": "D4",
          "midi": 62,
          "time": 51.25345172083341,
          "velocity": 0.47244094488188976,
          "duration": 0.09201385208333335
        },
        {
          "name": "A4",
          "midi": 69,
          "time": 51.46178497083341,
          "velocity": 0.5354330708661418,
          "duration": 0.10243051458333241
        },
        {
          "name": "D4",
          "midi": 62,
          "time": 51.46352108125008,
          "velocity": 0.47244094488188976,
          "duration": 0.09374996249999867
        },
        {
          "name": "D2",
          "midi": 38,
          "time": 51.633659902083416,
          "velocity": 0.6929133858267716,
          "duration": 0.10416662499999063
        },
        {
          "name": "D3",
          "midi": 50,
          "time": 51.637132122916746,
          "velocity": 0.6692913385826772,
          "duration": 0.09027774166666092
        },
        {
          "name": "A4",
          "midi": 69,
          "time": 51.66664600000008,
          "velocity": 0.5748031496062992,
          "duration": 0.10937495624999372
        },
        {
          "name": "D4",
          "midi": 62,
          "time": 51.668382110416744,
          "velocity": 0.5275590551181102,
          "duration": 0.10069440416665998
        },
        {
          "name": "A4",
          "midi": 69,
          "time": 52.08852083125007,
          "velocity": 0.5748031496062992,
          "duration": 0.10937495625000082
        },
        {
          "name": "D4",
          "midi": 62,
          "time": 52.0919930520834,
          "velocity": 0.5354330708661418,
          "duration": 0.10069440416666708
        },
        {
          "name": "G4",
          "midi": 67,
          "time": 52.49824288958341,
          "velocity": 0.6771653543307087,
          "duration": 0.11284717708333147
        },
        {
          "name": "C4",
          "midi": 60,
          "time": 52.499979000000074,
          "velocity": 0.6220472440944882,
          "duration": 0.11631939791666923
        },
        {
          "name": "C3",
          "midi": 48,
          "time": 52.503451220833405,
          "velocity": 0.6771653543307087,
          "duration": 0.09027774166666802
        },
        {
          "name": "C2",
          "midi": 36,
          "time": 52.50518733125007,
          "velocity": 0.8031496062992126,
          "duration": 0.08333329999999961
        },
        {
          "name": "C4",
          "midi": 60,
          "time": 52.90970105833341,
          "velocity": 0.5354330708661418,
          "duration": 0.10069440416666708
        },
        {
          "name": "G4",
          "midi": 67,
          "time": 52.90970105833341,
          "velocity": 0.5511811023622047,
          "duration": 0.0763888583333312
        },
        {
          "name": "C4",
          "midi": 60,
          "time": 53.11629819791675,
          "velocity": 0.49606299212598426,
          "duration": 0.09722218333332933
        },
        {
          "name": "G4",
          "midi": 67,
          "time": 53.11629819791675,
          "velocity": 0.5354330708661418,
          "duration": 0.08680552083333026
        },
        {
          "name": "G4",
          "midi": 67,
          "time": 53.324631447916744,
          "velocity": 0.6299212598425197,
          "duration": 0.09722218333332933
        },
        {
          "name": "C4",
          "midi": 60,
          "time": 53.32636755833341,
          "velocity": 0.5354330708661418,
          "duration": 0.08680552083333026
        },
        {
          "name": "C2",
          "midi": 36,
          "time": 53.33331200000008,
          "velocity": 0.7480314960629921,
          "duration": 0.10243051458333241
        },
        {
          "name": "C3",
          "midi": 48,
          "time": 53.34546477291674,
          "velocity": 0.6220472440944882,
          "duration": 0.08333329999999961
        },
        {
          "name": "C4",
          "midi": 60,
          "time": 53.74477016875008,
          "velocity": 0.5039370078740157,
          "duration": 0.09027774166666802
        },
        {
          "name": "G4",
          "midi": 67,
          "time": 53.74477016875008,
          "velocity": 0.5511811023622047,
          "duration": 0.07986107916666896
        },
        {
          "name": "C4",
          "midi": 60,
          "time": 53.95483952916675,
          "velocity": 0.47244094488188976,
          "duration": 0.08680552083333737
        },
        {
          "name": "G4",
          "midi": 67,
          "time": 53.95483952916675,
          "velocity": 0.5196850393700787,
          "duration": 0.07986107916666896
        },
        {
          "name": "G4",
          "midi": 67,
          "time": 54.161436668750085,
          "velocity": 0.5748031496062992,
          "duration": 0.09722218333333643
        },
        {
          "name": "C4",
          "midi": 60,
          "time": 54.16317277916675,
          "velocity": 0.4881889763779528,
          "duration": 0.0885416312500027
        },
        {
          "name": "C2",
          "midi": 36,
          "time": 54.18226999375008,
          "velocity": 0.6614173228346457,
          "duration": 0.23958323750000687
        },
        {
          "name": "C3",
          "midi": 48,
          "time": 54.19095054583342,
          "velocity": 0.6299212598425197,
          "duration": 0.16145826875000324
        },
        {
          "name": "G4",
          "midi": 67,
          "time": 54.576367058333425,
          "velocity": 0.5196850393700787,
          "duration": 0.09895829375000176
        },
        {
          "name": "C4",
          "midi": 60,
          "time": 54.57810316875009,
          "velocity": 0.4645669291338583,
          "duration": 0.10416662500000484
        },
        {
          "name": "F3",
          "midi": 53,
          "time": 54.9999780000001,
          "velocity": 0.7244094488188977,
          "duration": 0.14409716458332866
        },
        {
          "name": "C5",
          "midi": 72,
          "time": 55.00692244166677,
          "velocity": 0.6614173228346457,
          "duration": 0.145833274999994
        },
        {
          "name": "F2",
          "midi": 41,
          "time": 55.00692244166677,
          "velocity": 0.7874015748031497,
          "duration": 0.1336805020833296
        },
        {
          "name": "F4",
          "midi": 65,
          "time": 55.00865855208343,
          "velocity": 0.6299212598425197,
          "duration": 0.1527777166666624
        },
        {
          "name": "F4",
          "midi": 65,
          "time": 55.42358894166676,
          "velocity": 0.5511811023622047,
          "duration": 0.10416662500000484
        },
        {
          "name": "C5",
          "midi": 72,
          "time": 55.42358894166676,
          "velocity": 0.5826771653543307,
          "duration": 0.09027774166666802
        },
        {
          "name": "F4",
          "midi": 65,
          "time": 55.630186081250095,
          "velocity": 0.5039370078740157,
          "duration": 0.09027774166666802
        },
        {
          "name": "C5",
          "midi": 72,
          "time": 55.630186081250095,
          "velocity": 0.5433070866141733,
          "duration": 0.07465274791666587
        },
        {
          "name": "C5",
          "midi": 72,
          "time": 55.83678322083343,
          "velocity": 0.6377952755905512,
          "duration": 0.095486072916664
        },
        {
          "name": "F4",
          "midi": 65,
          "time": 55.8385193312501,
          "velocity": 0.5905511811023622,
          "duration": 0.09722218333332933
        },
        {
          "name": "F2",
          "midi": 41,
          "time": 55.86282487708343,
          "velocity": 0.6377952755905512,
          "duration": 0.15624993749999305
        },
        {
          "name": "F3",
          "midi": 53,
          "time": 55.8645609875001,
          "velocity": 0.5748031496062992,
          "duration": 0.13541661249999493
        },
        {
          "name": "F4",
          "midi": 65,
          "time": 56.25344972083342,
          "velocity": 0.5433070866141733,
          "duration": 0.10069440416666708
        },
        {
          "name": "C5",
          "midi": 72,
          "time": 56.25344972083342,
          "velocity": 0.5748031496062992,
          "duration": 0.08333329999999961
        },
        {
          "name": "F4",
          "midi": 65,
          "time": 56.461782970833426,
          "velocity": 0.4645669291338583,
          "duration": 0.08854163124999559
        },
        {
          "name": "C5",
          "midi": 72,
          "time": 56.465255191666756,
          "velocity": 0.5196850393700787,
          "duration": 0.06770830624999746
        },
        {
          "name": "C5",
          "midi": 72,
          "time": 56.67011622083342,
          "velocity": 0.4881889763779528,
          "duration": 0.095486072916664
        },
        {
          "name": "F4",
          "midi": 65,
          "time": 56.675324552083424,
          "velocity": 0.5433070866141733,
          "duration": 0.07812496874999653
        },
        {
          "name": "F2",
          "midi": 41,
          "time": 56.71351898125009,
          "velocity": 0.7480314960629921,
          "duration": 0.1458332750000011
        },
        {
          "name": "F3",
          "midi": 53,
          "time": 56.71351898125009,
          "velocity": 0.7086614173228346,
          "duration": 0.11284717708333147
        },
        {
          "name": "C5",
          "midi": 72,
          "time": 57.086782720833426,
          "velocity": 0.5826771653543307,
          "duration": 0.10590273541666306
        },
        {
          "name": "F4",
          "midi": 65,
          "time": 57.09025494166676,
          "velocity": 0.5511811023622047,
          "duration": 0.11111106666666615
        },
        {
          "name": "G4",
          "midi": 67,
          "time": 57.49824088958342,
          "velocity": 0.6771653543307087,
          "duration": 0.11284717708333147
        },
        {
          "name": "C4",
          "midi": 60,
          "time": 57.49997700000009,
          "velocity": 0.6220472440944882,
          "duration": 0.11631939791666923
        },
        {
          "name": "C3",
          "midi": 48,
          "time": 57.50344922083342,
          "velocity": 0.6771653543307087,
          "duration": 0.09027774166666802
        },
        {
          "name": "C2",
          "midi": 36,
          "time": 57.50518533125008,
          "velocity": 0.8031496062992126,
          "duration": 0.08333329999999961
        },
        {
          "name": "C4",
          "midi": 60,
          "time": 57.90969905833342,
          "velocity": 0.5354330708661418,
          "duration": 0.10069440416666708
        },
        {
          "name": "G4",
          "midi": 67,
          "time": 57.90969905833342,
          "velocity": 0.5511811023622047,
          "duration": 0.0763888583333312
        },
        {
          "name": "C4",
          "midi": 60,
          "time": 58.11629619791676,
          "velocity": 0.49606299212598426,
          "duration": 0.09722218333332933
        },
        {
          "name": "G4",
          "midi": 67,
          "time": 58.11629619791676,
          "velocity": 0.5354330708661418,
          "duration": 0.08680552083333026
        },
        {
          "name": "G4",
          "midi": 67,
          "time": 58.324629447916756,
          "velocity": 0.6299212598425197,
          "duration": 0.09722218333332933
        },
        {
          "name": "C4",
          "midi": 60,
          "time": 58.32636555833342,
          "velocity": 0.5354330708661418,
          "duration": 0.08680552083333026
        },
        {
          "name": "C3",
          "midi": 48,
          "time": 58.34719888333342,
          "velocity": 0.5748031496062992,
          "duration": 0.13194439166666427
        },
        {
          "name": "C2",
          "midi": 36,
          "time": 58.35067110416675,
          "velocity": 0.5905511811023622,
          "duration": 0.18055548333333604
        },
        {
          "name": "C4",
          "midi": 60,
          "time": 58.744768168750085,
          "velocity": 0.5039370078740157,
          "duration": 0.09027774166666802
        },
        {
          "name": "G4",
          "midi": 67,
          "time": 58.744768168750085,
          "velocity": 0.5511811023622047,
          "duration": 0.07986107916666896
        },
        {
          "name": "C4",
          "midi": 60,
          "time": 58.95483752916675,
          "velocity": 0.47244094488188976,
          "duration": 0.08680552083333737
        },
        {
          "name": "G4",
          "midi": 67,
          "time": 58.95483752916675,
          "velocity": 0.5196850393700787,
          "duration": 0.07986107916666896
        },
        {
          "name": "G4",
          "midi": 67,
          "time": 59.16143466875009,
          "velocity": 0.5748031496062992,
          "duration": 0.09722218333333643
        },
        {
          "name": "C4",
          "midi": 60,
          "time": 59.163170779166755,
          "velocity": 0.4881889763779528,
          "duration": 0.0885416312500027
        },
        {
          "name": "C2",
          "midi": 36,
          "time": 59.17879577291676,
          "velocity": 0.6377952755905512,
          "duration": 0.17534715208333296
        },
        {
          "name": "C3",
          "midi": 48,
          "time": 59.18226799375009,
          "velocity": 0.5748031496062992,
          "duration": 0.14930549583333885
        },
        {
          "name": "G4",
          "midi": 67,
          "time": 59.57636505833342,
          "velocity": 0.5196850393700787,
          "duration": 0.09895829375000176
        },
        {
          "name": "C4",
          "midi": 60,
          "time": 59.57810116875009,
          "velocity": 0.4645669291338583,
          "duration": 0.10416662500000484
        },
        {
          "name": "F4",
          "midi": 65,
          "time": 60.00518433125009,
          "velocity": 0.6377952755905512,
          "duration": 0.11805550833333456
        },
        {
          "name": "A#1",
          "midi": 34,
          "time": 60.00518433125009,
          "velocity": 0.7165354330708661,
          "duration": 0.09027774166666802
        },
        {
          "name": "A#2",
          "midi": 46,
          "time": 60.00518433125009,
          "velocity": 0.6299212598425197,
          "duration": 0.07812496875000363
        },
        {
          "name": "A#3",
          "midi": 58,
          "time": 60.010392662500095,
          "velocity": 0.5748031496062992,
          "duration": 0.11805550833333456
        },
        {
          "name": "F4",
          "midi": 65,
          "time": 60.40969805833343,
          "velocity": 0.5354330708661418,
          "duration": 0.09374996249999867
        },
        {
          "name": "A#3",
          "midi": 58,
          "time": 60.41317027916676,
          "velocity": 0.5196850393700787,
          "duration": 0.09201385208333335
        },
        {
          "name": "A#3",
          "midi": 58,
          "time": 60.619767418750094,
          "velocity": 0.5118110236220472,
          "duration": 0.10243051458333241
        },
        {
          "name": "F4",
          "midi": 65,
          "time": 60.619767418750094,
          "velocity": 0.5511811023622047,
          "duration": 0.095486072916664
        },
        {
          "name": "F4",
          "midi": 65,
          "time": 60.82462844791676,
          "velocity": 0.5669291338582677,
          "duration": 0.1076388458333355
        },
        {
          "name": "A#3",
          "midi": 58,
          "time": 60.826364558333424,
          "velocity": 0.5354330708661418,
          "duration": 0.10069440416666708
        },
        {
          "name": "A#2",
          "midi": 46,
          "time": 60.83504511041676,
          "velocity": 0.6456692913385826,
          "duration": 0.11631939791666923
        },
        {
          "name": "A#1",
          "midi": 34,
          "time": 60.84025344166676,
          "velocity": 0.6614173228346457,
          "duration": 0.11979161874999988
        },
        {
          "name": "F4",
          "midi": 65,
          "time": 61.248239389583425,
          "velocity": 0.5196850393700787,
          "duration": 0.09722218333333643
        },
        {
          "name": "A#3",
          "midi": 58,
          "time": 61.25344772083343,
          "velocity": 0.47244094488188976,
          "duration": 0.09201385208333335
        },
        {
          "name": "F4",
          "midi": 65,
          "time": 61.46178097083343,
          "velocity": 0.5354330708661418,
          "duration": 0.10243051458333241
        },
        {
          "name": "A#3",
          "midi": 58,
          "time": 61.463517081250096,
          "velocity": 0.47244094488188976,
          "duration": 0.09374996249999867
        },
        {
          "name": "A#2",
          "midi": 46,
          "time": 61.6614336687501,
          "velocity": 0.7007874015748031,
          "duration": 0.1145832875000039
        },
        {
          "name": "F4",
          "midi": 65,
          "time": 61.6666420000001,
          "velocity": 0.5748031496062992,
          "duration": 0.10937495625000082
        },
        {
          "name": "A#1",
          "midi": 34,
          "time": 61.66837811041677,
          "velocity": 0.6850393700787402,
          "duration": 0.1267360604166683
        },
        {
          "name": "A#3",
          "midi": 58,
          "time": 61.66837811041677,
          "velocity": 0.5275590551181102,
          "duration": 0.10069440416666708
        },
        {
          "name": "F4",
          "midi": 65,
          "time": 62.088516831250104,
          "velocity": 0.5748031496062992,
          "duration": 0.10937495625000082
        },
        {
          "name": "A#3",
          "midi": 58,
          "time": 62.091989052083434,
          "velocity": 0.5354330708661418,
          "duration": 0.10069440416666708
        },
        {
          "name": "E4",
          "midi": 64,
          "time": 62.49823888958344,
          "velocity": 0.6771653543307087,
          "duration": 0.11284717708333147
        },
        {
          "name": "A3",
          "midi": 57,
          "time": 62.499975000000106,
          "velocity": 0.6220472440944882,
          "duration": 0.11631939791666923
        },
        {
          "name": "A2",
          "midi": 45,
          "time": 62.503447220833436,
          "velocity": 0.6771653543307087,
          "duration": 0.09027774166666802
        },
        {
          "name": "A1",
          "midi": 33,
          "time": 62.5051833312501,
          "velocity": 0.8031496062992126,
          "duration": 0.08333329999999961
        },
        {
          "name": "A3",
          "midi": 57,
          "time": 62.90969705833344,
          "velocity": 0.5354330708661418,
          "duration": 0.10069440416666708
        },
        {
          "name": "E4",
          "midi": 64,
          "time": 62.90969705833344,
          "velocity": 0.5511811023622047,
          "duration": 0.0763888583333312
        },
        {
          "name": "A3",
          "midi": 57,
          "time": 63.11629419791678,
          "velocity": 0.49606299212598426,
          "duration": 0.09722218333332933
        },
        {
          "name": "E4",
          "midi": 64,
          "time": 63.11629419791678,
          "velocity": 0.5354330708661418,
          "duration": 0.08680552083333026
        },
        {
          "name": "E4",
          "midi": 64,
          "time": 63.324627447916775,
          "velocity": 0.6299212598425197,
          "duration": 0.09722218333332933
        },
        {
          "name": "A3",
          "midi": 57,
          "time": 63.32636355833344,
          "velocity": 0.5354330708661418,
          "duration": 0.08680552083333026
        },
        {
          "name": "A2",
          "midi": 45,
          "time": 63.338516331250105,
          "velocity": 0.6299212598425197,
          "duration": 0.11284717708333147
        },
        {
          "name": "A1",
          "midi": 33,
          "time": 63.34546077291677,
          "velocity": 0.6771653543307087,
          "duration": 0.13541661249999493
        },
        {
          "name": "A3",
          "midi": 57,
          "time": 63.744766168750104,
          "velocity": 0.5039370078740157,
          "duration": 0.09027774166666802
        },
        {
          "name": "E4",
          "midi": 64,
          "time": 63.744766168750104,
          "velocity": 0.5511811023622047,
          "duration": 0.07986107916666896
        },
        {
          "name": "A3",
          "midi": 57,
          "time": 63.95483552916677,
          "velocity": 0.47244094488188976,
          "duration": 0.08680552083332316
        },
        {
          "name": "E4",
          "midi": 64,
          "time": 63.95483552916677,
          "velocity": 0.5196850393700787,
          "duration": 0.07986107916666185
        },
        {
          "name": "A2",
          "midi": 45,
          "time": 64.14233545416675,
          "velocity": 0.6299212598425197,
          "duration": 0.10937495625000793
        },
        {
          "name": "A1",
          "midi": 33,
          "time": 64.14754378541676,
          "velocity": 0.7716535433070866,
          "duration": 0.10590273541667727
        },
        {
          "name": "E4",
          "midi": 64,
          "time": 64.1614326687501,
          "velocity": 0.5748031496062992,
          "duration": 0.09722218333334354
        },
        {
          "name": "A3",
          "midi": 57,
          "time": 64.16316877916677,
          "velocity": 0.4881889763779528,
          "duration": 0.08854163124999559
        },
        {
          "name": "E4",
          "midi": 64,
          "time": 64.57636305833344,
          "velocity": 0.5196850393700787,
          "duration": 0.09895829375000176
        },
        {
          "name": "A3",
          "midi": 57,
          "time": 64.57809916875011,
          "velocity": 0.4645669291338583,
          "duration": 0.10416662499999063
        },
        {
          "name": "D3",
          "midi": 50,
          "time": 64.99997400000011,
          "velocity": 0.7244094488188977,
          "duration": 0.14409716458332866
        },
        {
          "name": "A4",
          "midi": 69,
          "time": 65.00691844166677,
          "velocity": 0.6614173228346457,
          "duration": 0.1458332750000011
        },
        {
          "name": "D2",
          "midi": 38,
          "time": 65.00691844166677,
          "velocity": 0.7874015748031497,
          "duration": 0.1336805020833367
        },
        {
          "name": "D4",
          "midi": 62,
          "time": 65.00865455208344,
          "velocity": 0.6299212598425197,
          "duration": 0.1527777166666624
        },
        {
          "name": "D4",
          "midi": 62,
          "time": 65.42358494166677,
          "velocity": 0.5511811023622047,
          "duration": 0.10416662500000484
        },
        {
          "name": "A4",
          "midi": 69,
          "time": 65.42358494166677,
          "velocity": 0.5826771653543307,
          "duration": 0.09027774166666802
        },
        {
          "name": "D4",
          "midi": 62,
          "time": 65.63018208125011,
          "velocity": 0.5039370078740157,
          "duration": 0.09027774166666802
        },
        {
          "name": "A4",
          "midi": 69,
          "time": 65.63018208125011,
          "velocity": 0.5433070866141733,
          "duration": 0.07465274791667298
        },
        {
          "name": "D2",
          "midi": 38,
          "time": 65.81420978541678,
          "velocity": 0.6535433070866141,
          "duration": 0.0954860729166569
        },
        {
          "name": "D3",
          "midi": 50,
          "time": 65.82115422708344,
          "velocity": 0.5511811023622047,
          "duration": 0.07986107916666185
        },
        {
          "name": "A4",
          "midi": 69,
          "time": 65.83677922083344,
          "velocity": 0.6377952755905512,
          "duration": 0.0954860729166711
        },
        {
          "name": "D4",
          "midi": 62,
          "time": 65.83851533125011,
          "velocity": 0.5905511811023622,
          "duration": 0.09722218333332933
        },
        {
          "name": "D4",
          "midi": 62,
          "time": 66.25344572083344,
          "velocity": 0.5433070866141733,
          "duration": 0.10069440416667419
        },
        {
          "name": "A4",
          "midi": 69,
          "time": 66.25344572083344,
          "velocity": 0.5748031496062992,
          "duration": 0.08333330000000672
        },
        {
          "name": "D4",
          "midi": 62,
          "time": 66.46177897083345,
          "velocity": 0.4645669291338583,
          "duration": 0.08854163124999559
        },
        {
          "name": "A4",
          "midi": 69,
          "time": 66.46525119166678,
          "velocity": 0.5196850393700787,
          "duration": 0.06770830624999746
        },
        {
          "name": "D2",
          "midi": 38,
          "time": 66.63712612291678,
          "velocity": 0.6614173228346457,
          "duration": 0.10243051458334662
        },
        {
          "name": "D3",
          "midi": 50,
          "time": 66.64233445416679,
          "velocity": 0.6141732283464567,
          "duration": 0.09374996250001288
        },
        {
          "name": "A4",
          "midi": 69,
          "time": 66.67011222083346,
          "velocity": 0.4881889763779528,
          "duration": 0.0954860729166711
        },
        {
          "name": "D4",
          "midi": 62,
          "time": 66.67532055208346,
          "velocity": 0.5433070866141733,
          "duration": 0.07812496875000363
        },
        {
          "name": "A4",
          "midi": 69,
          "time": 67.08677872083346,
          "velocity": 0.5826771653543307,
          "duration": 0.10590273541666306
        },
        {
          "name": "D4",
          "midi": 62,
          "time": 67.0902509416668,
          "velocity": 0.5511811023622047,
          "duration": 0.11111106666666615
        },
        {
          "name": "D2",
          "midi": 38,
          "time": 67.49823688958347,
          "velocity": 0.6535433070866141,
          "duration": 0.12326383958333054
        },
        {
          "name": "A4",
          "midi": 69,
          "time": 67.49997300000014,
          "velocity": 0.6535433070866141,
          "duration": 0.11979161874998567
        },
        {
          "name": "D4",
          "midi": 62,
          "time": 67.50344522083347,
          "velocity": 0.6141732283464567,
          "duration": 0.11284717708332437
        },
        {
          "name": "D3",
          "midi": 50,
          "time": 67.51559799375013,
          "velocity": 0.6929133858267716,
          "duration": 0.11111106666666615
        },
        {
          "name": "D4",
          "midi": 62,
          "time": 67.9183756104168,
          "velocity": 0.5354330708661418,
          "duration": 0.08854163124999559
        },
        {
          "name": "A4",
          "midi": 69,
          "time": 67.9183756104168,
          "velocity": 0.5590551181102362,
          "duration": 0.07986107916666185
        },
        {
          "name": "A4",
          "midi": 69,
          "time": 68.12323663958347,
          "velocity": 0.5511811023622047,
          "duration": 0.08506941041667915
        },
        {
          "name": "D4",
          "midi": 62,
          "time": 68.12497275000014,
          "velocity": 0.5039370078740157,
          "duration": 0.08680552083333737
        },
        {
          "name": "D3",
          "midi": 50,
          "time": 68.32115322708347,
          "velocity": 0.7165354330708661,
          "duration": 0.08680552083333737
        },
        {
          "name": "D2",
          "midi": 38,
          "time": 68.3246254479168,
          "velocity": 0.7874015748031497,
          "duration": 0.08680552083333737
        },
        {
          "name": "A4",
          "midi": 69,
          "time": 68.33330600000014,
          "velocity": 0.5826771653543307,
          "duration": 0.09722218333334354
        },
        {
          "name": "D4",
          "midi": 62,
          "time": 68.33504211041681,
          "velocity": 0.5669291338582677,
          "duration": 0.09027774166666802
        },
        {
          "name": "A4",
          "midi": 69,
          "time": 68.75170861041681,
          "velocity": 0.5196850393700787,
          "duration": 0.0885416312500098
        },
        {
          "name": "D4",
          "midi": 62,
          "time": 68.75344472083349,
          "velocity": 0.4881889763779528,
          "duration": 0.09027774166666802
        },
        {
          "name": "A4",
          "midi": 69,
          "time": 68.96004186041682,
          "velocity": 0.4881889763779528,
          "duration": 0.07291663750000055
        },
        {
          "name": "D4",
          "midi": 62,
          "time": 68.9617779708335,
          "velocity": 0.4645669291338583,
          "duration": 0.06770830624999746
        },
        {
          "name": "D2",
          "midi": 38,
          "time": 69.1544862270835,
          "velocity": 0.7086614173228346,
          "duration": 0.0885416312500098
        },
        {
          "name": "D3",
          "midi": 50,
          "time": 69.16316677916683,
          "velocity": 0.6692913385826772,
          "duration": 0.0815971895833485
        },
        {
          "name": "A4",
          "midi": 69,
          "time": 69.16837511041683,
          "velocity": 0.5669291338582677,
          "duration": 0.09722218333334354
        },
        {
          "name": "D4",
          "midi": 62,
          "time": 69.1701112208335,
          "velocity": 0.5196850393700787,
          "duration": 0.0954860729166711
        },
        {
          "name": "A4",
          "midi": 69,
          "time": 69.58677772083351,
          "velocity": 0.5905511811023622,
          "duration": 0.10243051458333241
        },
        {
          "name": "D4",
          "midi": 62,
          "time": 69.59024994166684,
          "velocity": 0.5354330708661418,
          "duration": 0.10243051458333241
        },
        {
          "name": "A4",
          "midi": 69,
          "time": 70.00518033125017,
          "velocity": 0.6377952755905512,
          "duration": 0.11805550833334166
        },
        {
          "name": "D2",
          "midi": 38,
          "time": 70.00518033125017,
          "velocity": 0.7165354330708661,
          "duration": 0.09027774166666802
        },
        {
          "name": "D3",
          "midi": 50,
          "time": 70.00518033125017,
          "velocity": 0.6299212598425197,
          "duration": 0.07812496875000363
        },
        {
          "name": "D4",
          "midi": 62,
          "time": 70.01038866250018,
          "velocity": 0.5748031496062992,
          "duration": 0.11805550833334166
        },
        {
          "name": "A4",
          "midi": 69,
          "time": 70.40969405833351,
          "velocity": 0.5354330708661418,
          "duration": 0.09374996249999867
        },
        {
          "name": "D4",
          "midi": 62,
          "time": 70.41316627916684,
          "velocity": 0.5196850393700787,
          "duration": 0.09201385208334045
        },
        {
          "name": "D4",
          "midi": 62,
          "time": 70.61976341875018,
          "velocity": 0.5118110236220472,
          "duration": 0.10243051458333241
        },
        {
          "name": "A4",
          "midi": 69,
          "time": 70.61976341875018,
          "velocity": 0.5511811023622047,
          "duration": 0.0954860729166711
        },
        {
          "name": "D2",
          "midi": 38,
          "time": 70.81073556458351,
          "velocity": 0.7086614173228346,
          "duration": 0.10416662500001905
        },
        {
          "name": "D3",
          "midi": 50,
          "time": 70.81594389583351,
          "velocity": 0.6535433070866141,
          "duration": 0.0885416312500098
        },
        {
          "name": "A4",
          "midi": 69,
          "time": 70.82462444791685,
          "velocity": 0.5669291338582677,
          "duration": 0.1076388458333497
        },
        {
          "name": "D4",
          "midi": 62,
          "time": 70.82636055833352,
          "velocity": 0.5354330708661418,
          "duration": 0.10069440416667419
        },
        {
          "name": "A4",
          "midi": 69,
          "time": 71.24823538958353,
          "velocity": 0.5196850393700787,
          "duration": 0.09722218333332933
        },
        {
          "name": "D4",
          "midi": 62,
          "time": 71.25344372083353,
          "velocity": 0.47244094488188976,
          "duration": 0.09201385208332624
        },
        {
          "name": "A4",
          "midi": 69,
          "time": 71.46177697083353,
          "velocity": 0.5354330708661418,
          "duration": 0.10243051458333241
        },
        {
          "name": "D4",
          "midi": 62,
          "time": 71.4635130812502,
          "velocity": 0.47244094488188976,
          "duration": 0.09374996249999867
        },
        {
          "name": "D2",
          "midi": 38,
          "time": 71.63365190208353,
          "velocity": 0.6929133858267716,
          "duration": 0.10416662500000484
        },
        {
          "name": "D3",
          "midi": 50,
          "time": 71.63712412291686,
          "velocity": 0.6692913385826772,
          "duration": 0.09027774166666802
        },
        {
          "name": "A4",
          "midi": 69,
          "time": 71.66663800000019,
          "velocity": 0.5748031496062992,
          "duration": 0.10937495625000793
        },
        {
          "name": "D4",
          "midi": 62,
          "time": 71.66837411041686,
          "velocity": 0.5275590551181102,
          "duration": 0.10069440416667419
        },
        {
          "name": "A4",
          "midi": 69,
          "time": 72.0885128312502,
          "velocity": 0.5748031496062992,
          "duration": 0.10937495624999372
        },
        {
          "name": "D4",
          "midi": 62,
          "time": 72.09198505208353,
          "velocity": 0.5354330708661418,
          "duration": 0.10069440416665998
        },
        {
          "name": "G4",
          "midi": 67,
          "time": 72.49823488958353,
          "velocity": 0.6771653543307087,
          "duration": 0.11284717708335279
        },
        {
          "name": "C4",
          "midi": 60,
          "time": 72.4999710000002,
          "velocity": 0.6220472440944882,
          "duration": 0.11631939791668344
        },
        {
          "name": "C3",
          "midi": 48,
          "time": 72.50344322083353,
          "velocity": 0.6771653543307087,
          "duration": 0.09027774166668223
        },
        {
          "name": "C2",
          "midi": 36,
          "time": 72.5051793312502,
          "velocity": 0.8031496062992126,
          "duration": 0.08333330000000672
        },
        {
          "name": "C4",
          "midi": 60,
          "time": 72.90969305833354,
          "velocity": 0.5354330708661418,
          "duration": 0.10069440416665998
        },
        {
          "name": "G4",
          "midi": 67,
          "time": 72.90969305833354,
          "velocity": 0.5511811023622047,
          "duration": 0.0763888583333312
        },
        {
          "name": "C4",
          "midi": 60,
          "time": 73.11629019791687,
          "velocity": 0.49606299212598426,
          "duration": 0.09722218333334354
        },
        {
          "name": "G4",
          "midi": 67,
          "time": 73.11629019791687,
          "velocity": 0.5354330708661418,
          "duration": 0.08680552083333737
        },
        {
          "name": "G4",
          "midi": 67,
          "time": 73.32462344791688,
          "velocity": 0.6299212598425197,
          "duration": 0.09722218333332933
        },
        {
          "name": "C4",
          "midi": 60,
          "time": 73.32635955833355,
          "velocity": 0.5354330708661418,
          "duration": 0.08680552083332316
        },
        {
          "name": "C2",
          "midi": 36,
          "time": 73.33330400000021,
          "velocity": 0.7480314960629921,
          "duration": 0.1024305145833182
        },
        {
          "name": "C3",
          "midi": 48,
          "time": 73.34545677291688,
          "velocity": 0.6220472440944882,
          "duration": 0.0833332999999925
        },
        {
          "name": "C4",
          "midi": 60,
          "time": 73.7447621687502,
          "velocity": 0.5039370078740157,
          "duration": 0.09027774166666802
        },
        {
          "name": "G4",
          "midi": 67,
          "time": 73.7447621687502,
          "velocity": 0.5511811023622047,
          "duration": 0.07986107916666185
        },
        {
          "name": "C4",
          "midi": 60,
          "time": 73.95483152916687,
          "velocity": 0.47244094488188976,
          "duration": 0.08680552083332316
        },
        {
          "name": "G4",
          "midi": 67,
          "time": 73.95483152916687,
          "velocity": 0.5196850393700787,
          "duration": 0.07986107916666185
        },
        {
          "name": "G4",
          "midi": 67,
          "time": 74.16142866875019,
          "velocity": 0.5748031496062992,
          "duration": 0.09722218333334354
        },
        {
          "name": "C4",
          "midi": 60,
          "time": 74.16316477916686,
          "velocity": 0.4881889763779528,
          "duration": 0.0885416312500098
        },
        {
          "name": "C2",
          "midi": 36,
          "time": 74.1822619937502,
          "velocity": 0.6614173228346457,
          "duration": 0.23958323749999977
        },
        {
          "name": "C3",
          "midi": 48,
          "time": 74.19094254583354,
          "velocity": 0.6299212598425197,
          "duration": 0.16145826874999614
        },
        {
          "name": "G4",
          "midi": 67,
          "time": 74.57635905833354,
          "velocity": 0.5196850393700787,
          "duration": 0.09895829375000176
        },
        {
          "name": "C4",
          "midi": 60,
          "time": 74.57809516875021,
          "velocity": 0.4645669291338583,
          "duration": 0.10416662499999063
        },
        {
          "name": "F3",
          "midi": 53,
          "time": 74.9999700000002,
          "velocity": 0.7244094488188977,
          "duration": 0.14409716458332866
        },
        {
          "name": "C5",
          "midi": 72,
          "time": 75.00691444166686,
          "velocity": 0.6614173228346457,
          "duration": 0.1458332750000011
        },
        {
          "name": "F2",
          "midi": 41,
          "time": 75.00691444166686,
          "velocity": 0.7874015748031497,
          "duration": 0.1336805020833367
        },
        {
          "name": "F4",
          "midi": 65,
          "time": 75.00865055208354,
          "velocity": 0.6299212598425197,
          "duration": 0.1527777166666624
        },
        {
          "name": "F4",
          "midi": 65,
          "time": 75.42358094166687,
          "velocity": 0.5511811023622047,
          "duration": 0.10416662500000484
        },
        {
          "name": "C5",
          "midi": 72,
          "time": 75.42358094166687,
          "velocity": 0.5826771653543307,
          "duration": 0.09027774166666802
        },
        {
          "name": "F4",
          "midi": 65,
          "time": 75.63017808125021,
          "velocity": 0.5039370078740157,
          "duration": 0.09027774166666802
        },
        {
          "name": "C5",
          "midi": 72,
          "time": 75.63017808125021,
          "velocity": 0.5433070866141733,
          "duration": 0.07465274791667298
        },
        {
          "name": "C5",
          "midi": 72,
          "time": 75.83677522083354,
          "velocity": 0.6377952755905512,
          "duration": 0.0954860729166711
        },
        {
          "name": "F4",
          "midi": 65,
          "time": 75.83851133125022,
          "velocity": 0.5905511811023622,
          "duration": 0.09722218333332933
        },
        {
          "name": "F2",
          "midi": 41,
          "time": 75.86281687708355,
          "velocity": 0.6377952755905512,
          "duration": 0.15624993750000726
        },
        {
          "name": "F3",
          "midi": 53,
          "time": 75.86455298750022,
          "velocity": 0.5748031496062992,
          "duration": 0.13541661249999493
        },
        {
          "name": "F4",
          "midi": 65,
          "time": 76.25344172083355,
          "velocity": 0.5433070866141733,
          "duration": 0.10069440416667419
        },
        {
          "name": "C5",
          "midi": 72,
          "time": 76.25344172083355,
          "velocity": 0.5748031496062992,
          "duration": 0.08333330000000672
        },
        {
          "name": "F4",
          "midi": 65,
          "time": 76.46177497083356,
          "velocity": 0.4645669291338583,
          "duration": 0.08854163124999559
        },
        {
          "name": "C5",
          "midi": 72,
          "time": 76.46524719166689,
          "velocity": 0.5196850393700787,
          "duration": 0.06770830624999746
        },
        {
          "name": "C5",
          "midi": 72,
          "time": 76.67010822083355,
          "velocity": 0.4881889763779528,
          "duration": 0.0954860729166711
        },
        {
          "name": "F4",
          "midi": 65,
          "time": 76.67531655208356,
          "velocity": 0.5433070866141733,
          "duration": 0.07812496875000363
        },
        {
          "name": "F2",
          "midi": 41,
          "time": 76.71351098125022,
          "velocity": 0.7480314960629921,
          "duration": 0.1458332750000011
        },
        {
          "name": "F3",
          "midi": 53,
          "time": 76.71351098125022,
          "velocity": 0.7086614173228346,
          "duration": 0.11284717708333858
        },
        {
          "name": "C5",
          "midi": 72,
          "time": 77.08677472083356,
          "velocity": 0.5826771653543307,
          "duration": 0.10590273541666306
        },
        {
          "name": "F4",
          "midi": 65,
          "time": 77.09024694166689,
          "velocity": 0.5511811023622047,
          "duration": 0.11111106666666615
        },
        {
          "name": "G4",
          "midi": 67,
          "time": 77.49823288958356,
          "velocity": 0.6771653543307087,
          "duration": 0.11284717708335279
        },
        {
          "name": "C4",
          "midi": 60,
          "time": 77.49996900000023,
          "velocity": 0.6220472440944882,
          "duration": 0.11631939791668344
        },
        {
          "name": "C3",
          "midi": 48,
          "time": 77.50344122083357,
          "velocity": 0.6771653543307087,
          "duration": 0.09027774166668223
        },
        {
          "name": "C2",
          "midi": 36,
          "time": 77.50517733125024,
          "velocity": 0.8031496062992126,
          "duration": 0.08333330000000672
        },
        {
          "name": "C4",
          "midi": 60,
          "time": 77.90969105833358,
          "velocity": 0.5354330708661418,
          "duration": 0.10069440416665998
        },
        {
          "name": "G4",
          "midi": 67,
          "time": 77.90969105833358,
          "velocity": 0.5511811023622047,
          "duration": 0.0763888583333312
        },
        {
          "name": "C4",
          "midi": 60,
          "time": 78.1162881979169,
          "velocity": 0.49606299212598426,
          "duration": 0.09722218333334354
        },
        {
          "name": "G4",
          "midi": 67,
          "time": 78.1162881979169,
          "velocity": 0.5354330708661418,
          "duration": 0.08680552083333737
        },
        {
          "name": "G4",
          "midi": 67,
          "time": 78.32462144791691,
          "velocity": 0.6299212598425197,
          "duration": 0.09722218333332933
        },
        {
          "name": "C4",
          "midi": 60,
          "time": 78.32635755833358,
          "velocity": 0.5354330708661418,
          "duration": 0.08680552083332316
        },
        {
          "name": "C3",
          "midi": 48,
          "time": 78.34719088333358,
          "velocity": 0.5748031496062992,
          "duration": 0.13194439166666427
        },
        {
          "name": "C2",
          "midi": 36,
          "time": 78.35066310416691,
          "velocity": 0.5905511811023622,
          "duration": 0.18055548333333604
        },
        {
          "name": "C4",
          "midi": 60,
          "time": 78.74476016875025,
          "velocity": 0.5039370078740157,
          "duration": 0.09027774166666802
        },
        {
          "name": "G4",
          "midi": 67,
          "time": 78.74476016875025,
          "velocity": 0.5511811023622047,
          "duration": 0.07986107916666185
        },
        {
          "name": "C4",
          "midi": 60,
          "time": 78.95482952916691,
          "velocity": 0.47244094488188976,
          "duration": 0.08680552083332316
        },
        {
          "name": "G4",
          "midi": 67,
          "time": 78.95482952916691,
          "velocity": 0.5196850393700787,
          "duration": 0.07986107916666185
        },
        {
          "name": "G4",
          "midi": 67,
          "time": 79.16142666875024,
          "velocity": 0.5748031496062992,
          "duration": 0.09722218333332933
        },
        {
          "name": "C4",
          "midi": 60,
          "time": 79.16316277916691,
          "velocity": 0.4881889763779528,
          "duration": 0.08854163124999559
        },
        {
          "name": "C2",
          "midi": 36,
          "time": 79.1787877729169,
          "velocity": 0.6377952755905512,
          "duration": 0.17534715208333296
        },
        {
          "name": "C3",
          "midi": 48,
          "time": 79.18225999375024,
          "velocity": 0.5748031496062992,
          "duration": 0.14930549583333175
        },
        {
          "name": "G4",
          "midi": 67,
          "time": 79.57635705833357,
          "velocity": 0.5196850393700787,
          "duration": 0.09895829375000176
        },
        {
          "name": "C4",
          "midi": 60,
          "time": 79.57809316875024,
          "velocity": 0.4645669291338583,
          "duration": 0.10416662499999063
        },
        {
          "name": "F4",
          "midi": 65,
          "time": 80.00517633125024,
          "velocity": 0.6377952755905512,
          "duration": 0.11805550833334166
        },
        {
          "name": "A#1",
          "midi": 34,
          "time": 80.00517633125024,
          "velocity": 0.7165354330708661,
          "duration": 0.09027774166666802
        },
        {
          "name": "A#2",
          "midi": 46,
          "time": 80.00517633125024,
          "velocity": 0.6299212598425197,
          "duration": 0.07812496875000363
        },
        {
          "name": "A#3",
          "midi": 58,
          "time": 80.01038466250024,
          "velocity": 0.5748031496062992,
          "duration": 0.11805550833334166
        },
        {
          "name": "F4",
          "midi": 65,
          "time": 80.40969005833358,
          "velocity": 0.5354330708661418,
          "duration": 0.09374996249999867
        },
        {
          "name": "A#3",
          "midi": 58,
          "time": 80.41316227916691,
          "velocity": 0.5196850393700787,
          "duration": 0.09201385208334045
        },
        {
          "name": "A#3",
          "midi": 58,
          "time": 80.61975941875025,
          "velocity": 0.5118110236220472,
          "duration": 0.10243051458333241
        },
        {
          "name": "F4",
          "midi": 65,
          "time": 80.61975941875025,
          "velocity": 0.5511811023622047,
          "duration": 0.0954860729166711
        },
        {
          "name": "F4",
          "midi": 65,
          "time": 80.82462044791691,
          "velocity": 0.5669291338582677,
          "duration": 0.1076388458333497
        },
        {
          "name": "A#3",
          "midi": 58,
          "time": 80.82635655833359,
          "velocity": 0.5354330708661418,
          "duration": 0.10069440416667419
        },
        {
          "name": "A#2",
          "midi": 46,
          "time": 80.83503711041692,
          "velocity": 0.6456692913385826,
          "duration": 0.11631939791668344
        },
        {
          "name": "A#1",
          "midi": 34,
          "time": 80.84024544166692,
          "velocity": 0.6614173228346457,
          "duration": 0.1197916187500141
        },
        {
          "name": "F4",
          "midi": 65,
          "time": 81.24823138958361,
          "velocity": 0.5196850393700787,
          "duration": 0.09722218333332933
        },
        {
          "name": "A#3",
          "midi": 58,
          "time": 81.25343972083361,
          "velocity": 0.47244094488188976,
          "duration": 0.09201385208332624
        },
        {
          "name": "F4",
          "midi": 65,
          "time": 81.46177297083361,
          "velocity": 0.5354330708661418,
          "duration": 0.10243051458333241
        },
        {
          "name": "A#3",
          "midi": 58,
          "time": 81.46350908125028,
          "velocity": 0.47244094488188976,
          "duration": 0.09374996249999867
        },
        {
          "name": "A#2",
          "midi": 46,
          "time": 81.66142566875027,
          "velocity": 0.7007874015748031,
          "duration": 0.1145832874999968
        },
        {
          "name": "F4",
          "midi": 65,
          "time": 81.66663400000027,
          "velocity": 0.5748031496062992,
          "duration": 0.10937495624999372
        },
        {
          "name": "A#1",
          "midi": 34,
          "time": 81.66837011041694,
          "velocity": 0.6850393700787402,
          "duration": 0.1267360604166612
        },
        {
          "name": "A#3",
          "midi": 58,
          "time": 81.66837011041694,
          "velocity": 0.5275590551181102,
          "duration": 0.10069440416665998
        },
        {
          "name": "F4",
          "midi": 65,
          "time": 82.08850883125027,
          "velocity": 0.5748031496062992,
          "duration": 0.10937495624999372
        },
        {
          "name": "A#3",
          "midi": 58,
          "time": 82.0919810520836,
          "velocity": 0.5354330708661418,
          "duration": 0.10069440416665998
        },
        {
          "name": "E4",
          "midi": 64,
          "time": 82.4982308895836,
          "velocity": 0.6771653543307087,
          "duration": 0.11284717708335279
        },
        {
          "name": "A3",
          "midi": 57,
          "time": 82.49996700000027,
          "velocity": 0.6220472440944882,
          "duration": 0.11631939791668344
        },
        {
          "name": "A2",
          "midi": 45,
          "time": 82.5034392208336,
          "velocity": 0.6771653543307087,
          "duration": 0.09027774166668223
        },
        {
          "name": "A1",
          "midi": 33,
          "time": 82.50517533125027,
          "velocity": 0.8031496062992126,
          "duration": 0.08333330000000672
        },
        {
          "name": "A3",
          "midi": 57,
          "time": 82.90968905833361,
          "velocity": 0.5354330708661418,
          "duration": 0.10069440416665998
        },
        {
          "name": "E4",
          "midi": 64,
          "time": 82.90968905833361,
          "velocity": 0.5511811023622047,
          "duration": 0.0763888583333312
        },
        {
          "name": "A3",
          "midi": 57,
          "time": 83.11628619791693,
          "velocity": 0.49606299212598426,
          "duration": 0.09722218333334354
        },
        {
          "name": "E4",
          "midi": 64,
          "time": 83.11628619791693,
          "velocity": 0.5354330708661418,
          "duration": 0.08680552083333737
        },
        {
          "name": "E4",
          "midi": 64,
          "time": 83.32461944791694,
          "velocity": 0.6299212598425197,
          "duration": 0.09722218333332933
        },
        {
          "name": "A3",
          "midi": 57,
          "time": 83.32635555833362,
          "velocity": 0.5354330708661418,
          "duration": 0.08680552083332316
        },
        {
          "name": "A2",
          "midi": 45,
          "time": 83.33850833125028,
          "velocity": 0.6299212598425197,
          "duration": 0.11284717708332437
        },
        {
          "name": "A1",
          "midi": 33,
          "time": 83.34545277291694,
          "velocity": 0.6771653543307087,
          "duration": 0.13541661249999493
        },
        {
          "name": "A3",
          "midi": 57,
          "time": 83.74475816875027,
          "velocity": 0.5039370078740157,
          "duration": 0.09027774166666802
        },
        {
          "name": "E4",
          "midi": 64,
          "time": 83.74475816875027,
          "velocity": 0.5511811023622047,
          "duration": 0.07986107916666185
        },
        {
          "name": "A3",
          "midi": 57,
          "time": 83.95482752916693,
          "velocity": 0.47244094488188976,
          "duration": 0.08680552083332316
        },
        {
          "name": "E4",
          "midi": 64,
          "time": 83.95482752916693,
          "velocity": 0.5196850393700787,
          "duration": 0.07986107916666185
        },
        {
          "name": "A2",
          "midi": 45,
          "time": 84.14232745416692,
          "velocity": 0.6299212598425197,
          "duration": 0.10937495625000793
        },
        {
          "name": "A1",
          "midi": 33,
          "time": 84.14753578541692,
          "velocity": 0.7716535433070866,
          "duration": 0.10590273541667727
        },
        {
          "name": "E4",
          "midi": 64,
          "time": 84.16142466875026,
          "velocity": 0.5748031496062992,
          "duration": 0.09722218333334354
        },
        {
          "name": "A3",
          "midi": 57,
          "time": 84.16316077916693,
          "velocity": 0.4881889763779528,
          "duration": 0.08854163124999559
        },
        {
          "name": "E4",
          "midi": 64,
          "time": 84.5763550583336,
          "velocity": 0.5196850393700787,
          "duration": 0.09895829375000176
        },
        {
          "name": "A3",
          "midi": 57,
          "time": 84.57809116875028,
          "velocity": 0.4645669291338583,
          "duration": 0.10416662499999063
        },
        {
          "name": "E4",
          "midi": 64,
          "time": 84.9982298895836,
          "velocity": 0.6771653543307087,
          "duration": 0.11284717708335279
        },
        {
          "name": "A3",
          "midi": 57,
          "time": 84.99996600000027,
          "velocity": 0.6220472440944882,
          "duration": 0.11631939791668344
        },
        {
          "name": "A2",
          "midi": 45,
          "time": 85.0034382208336,
          "velocity": 0.6771653543307087,
          "duration": 0.09027774166668223
        },
        {
          "name": "A1",
          "midi": 33,
          "time": 85.00517433125027,
          "velocity": 0.8031496062992126,
          "duration": 0.08333330000000672
        },
        {
          "name": "A3",
          "midi": 57,
          "time": 85.40968805833361,
          "velocity": 0.5354330708661418,
          "duration": 0.10069440416665998
        },
        {
          "name": "E4",
          "midi": 64,
          "time": 85.40968805833361,
          "velocity": 0.5511811023622047,
          "duration": 0.0763888583333312
        },
        {
          "name": "A3",
          "midi": 57,
          "time": 85.61628519791694,
          "velocity": 0.49606299212598426,
          "duration": 0.09722218333334354
        },
        {
          "name": "E4",
          "midi": 64,
          "time": 85.61628519791694,
          "velocity": 0.5354330708661418,
          "duration": 0.08680552083333737
        },
        {
          "name": "A1",
          "midi": 33,
          "time": 85.80899345416695,
          "velocity": 0.6220472440944882,
          "duration": 0.16145826874999614
        },
        {
          "name": "A2",
          "midi": 45,
          "time": 85.81246567500028,
          "velocity": 0.5669291338582677,
          "duration": 0.1336805020833367
        },
        {
          "name": "E4",
          "midi": 64,
          "time": 85.82461844791695,
          "velocity": 0.6299212598425197,
          "duration": 0.09722218333334354
        },
        {
          "name": "A3",
          "midi": 57,
          "time": 85.82635455833362,
          "velocity": 0.5354330708661418,
          "duration": 0.08680552083333737
        },
        {
          "name": "A3",
          "midi": 57,
          "time": 86.24475716875028,
          "velocity": 0.5039370078740157,
          "duration": 0.09027774166666802
        },
        {
          "name": "E4",
          "midi": 64,
          "time": 86.24475716875028,
          "velocity": 0.5511811023622047,
          "duration": 0.07986107916666185
        },
        {
          "name": "A3",
          "midi": 57,
          "time": 86.45482652916695,
          "velocity": 0.47244094488188976,
          "duration": 0.08680552083332316
        },
        {
          "name": "E4",
          "midi": 64,
          "time": 86.45482652916695,
          "velocity": 0.5196850393700787,
          "duration": 0.07986107916666185
        },
        {
          "name": "A1",
          "midi": 33,
          "time": 86.65795144791694,
          "velocity": 0.7244094488188977,
          "duration": 0.11631939791668344
        },
        {
          "name": "E4",
          "midi": 64,
          "time": 86.66142366875027,
          "velocity": 0.5748031496062992,
          "duration": 0.09722218333334354
        },
        {
          "name": "A3",
          "midi": 57,
          "time": 86.66315977916695,
          "velocity": 0.4881889763779528,
          "duration": 0.0885416312500098
        },
        {
          "name": "A2",
          "midi": 45,
          "time": 86.66836811041695,
          "velocity": 0.7244094488188977,
          "duration": 0.10069440416667419
        },
        {
          "name": "E4",
          "midi": 64,
          "time": 87.07635405833362,
          "velocity": 0.5196850393700787,
          "duration": 0.09895829375000176
        },
        {
          "name": "A3",
          "midi": 57,
          "time": 87.0780901687503,
          "velocity": 0.4645669291338583,
          "duration": 0.10416662499999063
        },
        {
          "name": "D3",
          "midi": 50,
          "time": 87.49996500000029,
          "velocity": 0.7244094488188977,
          "duration": 0.14409716458332866
        },
        {
          "name": "A4",
          "midi": 69,
          "time": 87.50690944166695,
          "velocity": 0.6614173228346457,
          "duration": 0.1458332750000011
        },
        {
          "name": "D2",
          "midi": 38,
          "time": 87.50690944166695,
          "velocity": 0.7874015748031497,
          "duration": 0.1336805020833367
        },
        {
          "name": "D4",
          "midi": 62,
          "time": 87.50864555208362,
          "velocity": 0.6299212598425197,
          "duration": 0.1527777166666624
        },
        {
          "name": "D4",
          "midi": 62,
          "time": 87.92357594166695,
          "velocity": 0.5511811023622047,
          "duration": 0.10416662500000484
        },
        {
          "name": "A4",
          "midi": 69,
          "time": 87.92357594166695,
          "velocity": 0.5826771653543307,
          "duration": 0.09027774166666802
        },
        {
          "name": "D4",
          "midi": 62,
          "time": 88.13017308125029,
          "velocity": 0.5039370078740157,
          "duration": 0.09027774166666802
        },
        {
          "name": "A4",
          "midi": 69,
          "time": 88.13017308125029,
          "velocity": 0.5433070866141733,
          "duration": 0.07465274791667298
        },
        {
          "name": "D2",
          "midi": 38,
          "time": 88.31420078541696,
          "velocity": 0.6535433070866141,
          "duration": 0.0954860729166569
        },
        {
          "name": "D3",
          "midi": 50,
          "time": 88.32114522708362,
          "velocity": 0.5511811023622047,
          "duration": 0.07986107916666185
        },
        {
          "name": "A4",
          "midi": 69,
          "time": 88.33677022083361,
          "velocity": 0.6377952755905512,
          "duration": 0.0954860729166711
        },
        {
          "name": "D4",
          "midi": 62,
          "time": 88.33850633125029,
          "velocity": 0.5905511811023622,
          "duration": 0.09722218333332933
        },
        {
          "name": "D4",
          "midi": 62,
          "time": 88.75343672083362,
          "velocity": 0.5433070866141733,
          "duration": 0.10069440416667419
        },
        {
          "name": "A4",
          "midi": 69,
          "time": 88.75343672083362,
          "velocity": 0.5748031496062992,
          "duration": 0.08333330000000672
        },
        {
          "name": "D4",
          "midi": 62,
          "time": 88.96176997083363,
          "velocity": 0.4645669291338583,
          "duration": 0.08854163124999559
        },
        {
          "name": "A4",
          "midi": 69,
          "time": 88.96524219166696,
          "velocity": 0.5196850393700787,
          "duration": 0.06770830624999746
        },
        {
          "name": "D2",
          "midi": 38,
          "time": 89.13711712291696,
          "velocity": 0.6614173228346457,
          "duration": 0.10243051458334662
        },
        {
          "name": "D3",
          "midi": 50,
          "time": 89.14232545416696,
          "velocity": 0.6141732283464567,
          "duration": 0.09374996250001288
        },
        {
          "name": "A4",
          "midi": 69,
          "time": 89.17010322083364,
          "velocity": 0.4881889763779528,
          "duration": 0.0954860729166711
        },
        {
          "name": "D4",
          "midi": 62,
          "time": 89.17531155208364,
          "velocity": 0.5433070866141733,
          "duration": 0.07812496875000363
        },
        {
          "name": "A4",
          "midi": 69,
          "time": 89.58676972083364,
          "velocity": 0.5826771653543307,
          "duration": 0.10590273541666306
        },
        {
          "name": "D4",
          "midi": 62,
          "time": 89.59024194166697,
          "velocity": 0.5511811023622047,
          "duration": 0.11111106666666615
        },
        {
          "name": "D2",
          "midi": 38,
          "time": 89.99822788958365,
          "velocity": 0.6535433070866141,
          "duration": 0.12326383958333054
        },
        {
          "name": "A4",
          "midi": 69,
          "time": 89.99996400000032,
          "velocity": 0.6535433070866141,
          "duration": 0.11979161874998567
        },
        {
          "name": "D4",
          "midi": 62,
          "time": 90.00343622083365,
          "velocity": 0.6141732283464567,
          "duration": 0.11284717708332437
        },
        {
          "name": "D3",
          "midi": 50,
          "time": 90.01558899375031,
          "velocity": 0.6929133858267716,
          "duration": 0.11111106666666615
        },
        {
          "name": "D4",
          "midi": 62,
          "time": 90.41836661041698,
          "velocity": 0.5354330708661418,
          "duration": 0.08854163124999559
        },
        {
          "name": "A4",
          "midi": 69,
          "time": 90.41836661041698,
          "velocity": 0.5590551181102362,
          "duration": 0.07986107916666185
        },
        {
          "name": "A4",
          "midi": 69,
          "time": 90.62322763958365,
          "velocity": 0.5511811023622047,
          "duration": 0.08506941041667915
        },
        {
          "name": "D4",
          "midi": 62,
          "time": 90.62496375000032,
          "velocity": 0.5039370078740157,
          "duration": 0.08680552083333737
        },
        {
          "name": "D3",
          "midi": 50,
          "time": 90.82114422708365,
          "velocity": 0.7165354330708661,
          "duration": 0.08680552083333737
        },
        {
          "name": "D2",
          "midi": 38,
          "time": 90.82461644791698,
          "velocity": 0.7874015748031497,
          "duration": 0.08680552083333737
        },
        {
          "name": "A4",
          "midi": 69,
          "time": 90.83329700000031,
          "velocity": 0.5826771653543307,
          "duration": 0.09722218333334354
        },
        {
          "name": "D4",
          "midi": 62,
          "time": 90.83503311041699,
          "velocity": 0.5669291338582677,
          "duration": 0.09027774166666802
        },
        {
          "name": "A4",
          "midi": 69,
          "time": 91.25169961041699,
          "velocity": 0.5196850393700787,
          "duration": 0.0885416312500098
        },
        {
          "name": "D4",
          "midi": 62,
          "time": 91.25343572083366,
          "velocity": 0.4881889763779528,
          "duration": 0.09027774166666802
        },
        {
          "name": "A4",
          "midi": 69,
          "time": 91.460032860417,
          "velocity": 0.4881889763779528,
          "duration": 0.07291663750000055
        },
        {
          "name": "D4",
          "midi": 62,
          "time": 91.46176897083367,
          "velocity": 0.4645669291338583,
          "duration": 0.06770830624999746
        },
        {
          "name": "D2",
          "midi": 38,
          "time": 91.65447722708367,
          "velocity": 0.7086614173228346,
          "duration": 0.0885416312500098
        },
        {
          "name": "D3",
          "midi": 50,
          "time": 91.66315777916701,
          "velocity": 0.6692913385826772,
          "duration": 0.0815971895833485
        },
        {
          "name": "A4",
          "midi": 69,
          "time": 91.66836611041701,
          "velocity": 0.5669291338582677,
          "duration": 0.09722218333334354
        },
        {
          "name": "D4",
          "midi": 62,
          "time": 91.67010222083368,
          "velocity": 0.5196850393700787,
          "duration": 0.0954860729166711
        },
        {
          "name": "A4",
          "midi": 69,
          "time": 92.08676872083369,
          "velocity": 0.5905511811023622,
          "duration": 0.10243051458333241
        },
        {
          "name": "D4",
          "midi": 62,
          "time": 92.09024094166702,
          "velocity": 0.5354330708661418,
          "duration": 0.10243051458333241
        },
        {
          "name": "A4",
          "midi": 69,
          "time": 92.50517133125035,
          "velocity": 0.6377952755905512,
          "duration": 0.11805550833334166
        },
        {
          "name": "D2",
          "midi": 38,
          "time": 92.50517133125035,
          "velocity": 0.7165354330708661,
          "duration": 0.09027774166666802
        },
        {
          "name": "D3",
          "midi": 50,
          "time": 92.50517133125035,
          "velocity": 0.6299212598425197,
          "duration": 0.07812496875000363
        },
        {
          "name": "D4",
          "midi": 62,
          "time": 92.51037966250036,
          "velocity": 0.5748031496062992,
          "duration": 0.11805550833334166
        },
        {
          "name": "A4",
          "midi": 69,
          "time": 92.9096850583337,
          "velocity": 0.5354330708661418,
          "duration": 0.09374996249999867
        },
        {
          "name": "D4",
          "midi": 62,
          "time": 92.91315727916702,
          "velocity": 0.5196850393700787,
          "duration": 0.09201385208334045
        },
        {
          "name": "D4",
          "midi": 62,
          "time": 93.11975441875036,
          "velocity": 0.5118110236220472,
          "duration": 0.10243051458333241
        },
        {
          "name": "A4",
          "midi": 69,
          "time": 93.11975441875036,
          "velocity": 0.5511811023622047,
          "duration": 0.0954860729166711
        },
        {
          "name": "D2",
          "midi": 38,
          "time": 93.31072656458369,
          "velocity": 0.7086614173228346,
          "duration": 0.10416662500001905
        },
        {
          "name": "D3",
          "midi": 50,
          "time": 93.31593489583369,
          "velocity": 0.6535433070866141,
          "duration": 0.0885416312500098
        },
        {
          "name": "A4",
          "midi": 69,
          "time": 93.32461544791703,
          "velocity": 0.5669291338582677,
          "duration": 0.1076388458333497
        },
        {
          "name": "D4",
          "midi": 62,
          "time": 93.3263515583337,
          "velocity": 0.5354330708661418,
          "duration": 0.10069440416667419
        },
        {
          "name": "A4",
          "midi": 69,
          "time": 93.7482263895837,
          "velocity": 0.5196850393700787,
          "duration": 0.09722218333332933
        },
        {
          "name": "D4",
          "midi": 62,
          "time": 93.75343472083371,
          "velocity": 0.47244094488188976,
          "duration": 0.09201385208332624
        },
        {
          "name": "A4",
          "midi": 69,
          "time": 93.9617679708337,
          "velocity": 0.5354330708661418,
          "duration": 0.10243051458333241
        },
        {
          "name": "D4",
          "midi": 62,
          "time": 93.96350408125038,
          "velocity": 0.47244094488188976,
          "duration": 0.09374996249999867
        },
        {
          "name": "D2",
          "midi": 38,
          "time": 94.13364290208371,
          "velocity": 0.6929133858267716,
          "duration": 0.10416662500000484
        },
        {
          "name": "D3",
          "midi": 50,
          "time": 94.13711512291704,
          "velocity": 0.6692913385826772,
          "duration": 0.09027774166666802
        },
        {
          "name": "A4",
          "midi": 69,
          "time": 94.16662900000037,
          "velocity": 0.5748031496062992,
          "duration": 0.10937495625000793
        },
        {
          "name": "D4",
          "midi": 62,
          "time": 94.16836511041704,
          "velocity": 0.5275590551181102,
          "duration": 0.10069440416667419
        },
        {
          "name": "A4",
          "midi": 69,
          "time": 94.58850383125038,
          "velocity": 0.5748031496062992,
          "duration": 0.10937495624999372
        },
        {
          "name": "D4",
          "midi": 62,
          "time": 94.59197605208371,
          "velocity": 0.5354330708661418,
          "duration": 0.10069440416665998
        },
        {
          "name": "G4",
          "midi": 67,
          "time": 94.99822588958371,
          "velocity": 0.6771653543307087,
          "duration": 0.11284717708335279
        },
        {
          "name": "C4",
          "midi": 60,
          "time": 94.99996200000038,
          "velocity": 0.6220472440944882,
          "duration": 0.11631939791668344
        },
        {
          "name": "C3",
          "midi": 48,
          "time": 95.00343422083371,
          "velocity": 0.6771653543307087,
          "duration": 0.09027774166668223
        },
        {
          "name": "C2",
          "midi": 36,
          "time": 95.00517033125038,
          "velocity": 0.8031496062992126,
          "duration": 0.08333330000000672
        },
        {
          "name": "C4",
          "midi": 60,
          "time": 95.40968405833372,
          "velocity": 0.5354330708661418,
          "duration": 0.10069440416665998
        },
        {
          "name": "G4",
          "midi": 67,
          "time": 95.40968405833372,
          "velocity": 0.5511811023622047,
          "duration": 0.0763888583333312
        },
        {
          "name": "C4",
          "midi": 60,
          "time": 95.61628119791705,
          "velocity": 0.49606299212598426,
          "duration": 0.09722218333334354
        },
        {
          "name": "G4",
          "midi": 67,
          "time": 95.61628119791705,
          "velocity": 0.5354330708661418,
          "duration": 0.08680552083333737
        },
        {
          "name": "G4",
          "midi": 67,
          "time": 95.82461444791706,
          "velocity": 0.6299212598425197,
          "duration": 0.09722218333332933
        },
        {
          "name": "C4",
          "midi": 60,
          "time": 95.82635055833373,
          "velocity": 0.5354330708661418,
          "duration": 0.08680552083332316
        },
        {
          "name": "C2",
          "midi": 36,
          "time": 95.83329500000039,
          "velocity": 0.7480314960629921,
          "duration": 0.1024305145833182
        },
        {
          "name": "C3",
          "midi": 48,
          "time": 95.84544777291705,
          "velocity": 0.6220472440944882,
          "duration": 0.0833332999999925
        },
        {
          "name": "C4",
          "midi": 60,
          "time": 96.24475316875038,
          "velocity": 0.5039370078740157,
          "duration": 0.09027774166666802
        },
        {
          "name": "G4",
          "midi": 67,
          "time": 96.24475316875038,
          "velocity": 0.5511811023622047,
          "duration": 0.07986107916666185
        },
        {
          "name": "C4",
          "midi": 60,
          "time": 96.45482252916705,
          "velocity": 0.47244094488188976,
          "duration": 0.08680552083332316
        },
        {
          "name": "G4",
          "midi": 67,
          "time": 96.45482252916705,
          "velocity": 0.5196850393700787,
          "duration": 0.07986107916666185
        },
        {
          "name": "G4",
          "midi": 67,
          "time": 96.66141966875037,
          "velocity": 0.5748031496062992,
          "duration": 0.09722218333334354
        },
        {
          "name": "C4",
          "midi": 60,
          "time": 96.66315577916704,
          "velocity": 0.4881889763779528,
          "duration": 0.0885416312500098
        },
        {
          "name": "C2",
          "midi": 36,
          "time": 96.68225299375038,
          "velocity": 0.6614173228346457,
          "duration": 0.23958323749999977
        },
        {
          "name": "C3",
          "midi": 48,
          "time": 96.69093354583372,
          "velocity": 0.6299212598425197,
          "duration": 0.16145826874999614
        },
        {
          "name": "G4",
          "midi": 67,
          "time": 97.07635005833372,
          "velocity": 0.5196850393700787,
          "duration": 0.09895829375000176
        },
        {
          "name": "C4",
          "midi": 60,
          "time": 97.07808616875039,
          "velocity": 0.4645669291338583,
          "duration": 0.10416662499999063
        },
        {
          "name": "F3",
          "midi": 53,
          "time": 97.49996100000038,
          "velocity": 0.7244094488188977,
          "duration": 0.14409716458332866
        },
        {
          "name": "C5",
          "midi": 72,
          "time": 97.50690544166704,
          "velocity": 0.6614173228346457,
          "duration": 0.1458332750000011
        },
        {
          "name": "F2",
          "midi": 41,
          "time": 97.50690544166704,
          "velocity": 0.7874015748031497,
          "duration": 0.1336805020833367
        },
        {
          "name": "F4",
          "midi": 65,
          "time": 97.50864155208372,
          "velocity": 0.6299212598425197,
          "duration": 0.1527777166666624
        },
        {
          "name": "F4",
          "midi": 65,
          "time": 97.92357194166705,
          "velocity": 0.5511811023622047,
          "duration": 0.10416662500000484
        },
        {
          "name": "C5",
          "midi": 72,
          "time": 97.92357194166705,
          "velocity": 0.5826771653543307,
          "duration": 0.09027774166666802
        },
        {
          "name": "F4",
          "midi": 65,
          "time": 98.13016908125039,
          "velocity": 0.5039370078740157,
          "duration": 0.09027774166666802
        },
        {
          "name": "C5",
          "midi": 72,
          "time": 98.13016908125039,
          "velocity": 0.5433070866141733,
          "duration": 0.07465274791667298
        },
        {
          "name": "C5",
          "midi": 72,
          "time": 98.33676622083372,
          "velocity": 0.6377952755905512,
          "duration": 0.0954860729166711
        },
        {
          "name": "F4",
          "midi": 65,
          "time": 98.3385023312504,
          "velocity": 0.5905511811023622,
          "duration": 0.09722218333332933
        },
        {
          "name": "F2",
          "midi": 41,
          "time": 98.36280787708372,
          "velocity": 0.6377952755905512,
          "duration": 0.15624993750000726
        },
        {
          "name": "F3",
          "midi": 53,
          "time": 98.3645439875004,
          "velocity": 0.5748031496062992,
          "duration": 0.13541661249999493
        },
        {
          "name": "F4",
          "midi": 65,
          "time": 98.75343272083373,
          "velocity": 0.5433070866141733,
          "duration": 0.10069440416667419
        },
        {
          "name": "C5",
          "midi": 72,
          "time": 98.75343272083373,
          "velocity": 0.5748031496062992,
          "duration": 0.08333330000000672
        },
        {
          "name": "F4",
          "midi": 65,
          "time": 98.96176597083374,
          "velocity": 0.4645669291338583,
          "duration": 0.08854163124999559
        },
        {
          "name": "C5",
          "midi": 72,
          "time": 98.96523819166707,
          "velocity": 0.5196850393700787,
          "duration": 0.06770830624999746
        },
        {
          "name": "C5",
          "midi": 72,
          "time": 99.17009922083373,
          "velocity": 0.4881889763779528,
          "duration": 0.0954860729166711
        },
        {
          "name": "F4",
          "midi": 65,
          "time": 99.17530755208374,
          "velocity": 0.5433070866141733,
          "duration": 0.07812496875000363
        },
        {
          "name": "F2",
          "midi": 41,
          "time": 99.2135019812504,
          "velocity": 0.7480314960629921,
          "duration": 0.1458332750000011
        },
        {
          "name": "F3",
          "midi": 53,
          "time": 99.2135019812504,
          "velocity": 0.7086614173228346,
          "duration": 0.11284717708333858
        },
        {
          "name": "C5",
          "midi": 72,
          "time": 99.58676572083374,
          "velocity": 0.5826771653543307,
          "duration": 0.10590273541666306
        },
        {
          "name": "F4",
          "midi": 65,
          "time": 99.59023794166707,
          "velocity": 0.5511811023622047,
          "duration": 0.11111106666666615
        },
        {
          "name": "G4",
          "midi": 67,
          "time": 99.99822388958374,
          "velocity": 0.6771653543307087,
          "duration": 0.11284717708335279
        },
        {
          "name": "C4",
          "midi": 60,
          "time": 99.99996000000041,
          "velocity": 0.6220472440944882,
          "duration": 0.11631939791668344
        },
        {
          "name": "C3",
          "midi": 48,
          "time": 100.00343222083374,
          "velocity": 0.6771653543307087,
          "duration": 0.09027774166668223
        },
        {
          "name": "C2",
          "midi": 36,
          "time": 100.00516833125042,
          "velocity": 0.8031496062992126,
          "duration": 0.08333330000000672
        },
        {
          "name": "C4",
          "midi": 60,
          "time": 100.40968205833376,
          "velocity": 0.5354330708661418,
          "duration": 0.10069440416665998
        },
        {
          "name": "G4",
          "midi": 67,
          "time": 100.40968205833376,
          "velocity": 0.5511811023622047,
          "duration": 0.0763888583333312
        },
        {
          "name": "C4",
          "midi": 60,
          "time": 100.61627919791708,
          "velocity": 0.49606299212598426,
          "duration": 0.09722218333334354
        },
        {
          "name": "G4",
          "midi": 67,
          "time": 100.61627919791708,
          "velocity": 0.5354330708661418,
          "duration": 0.08680552083333737
        },
        {
          "name": "G4",
          "midi": 67,
          "time": 100.82461244791709,
          "velocity": 0.6299212598425197,
          "duration": 0.09722218333332933
        },
        {
          "name": "C4",
          "midi": 60,
          "time": 100.82634855833376,
          "velocity": 0.5354330708661418,
          "duration": 0.08680552083332316
        },
        {
          "name": "C3",
          "midi": 48,
          "time": 100.84718188333376,
          "velocity": 0.5748031496062992,
          "duration": 0.13194439166666427
        },
        {
          "name": "C2",
          "midi": 36,
          "time": 100.85065410416709,
          "velocity": 0.5905511811023622,
          "duration": 0.18055548333333604
        },
        {
          "name": "C4",
          "midi": 60,
          "time": 101.24475116875043,
          "velocity": 0.5039370078740157,
          "duration": 0.09027774166666802
        },
        {
          "name": "G4",
          "midi": 67,
          "time": 101.24475116875043,
          "velocity": 0.5511811023622047,
          "duration": 0.07986107916666185
        },
        {
          "name": "C4",
          "midi": 60,
          "time": 101.4548205291671,
          "velocity": 0.47244094488188976,
          "duration": 0.08680552083332316
        },
        {
          "name": "G4",
          "midi": 67,
          "time": 101.4548205291671,
          "velocity": 0.5196850393700787,
          "duration": 0.07986107916666185
        },
        {
          "name": "G4",
          "midi": 67,
          "time": 101.66141766875042,
          "velocity": 0.5748031496062992,
          "duration": 0.09722218333332933
        },
        {
          "name": "C4",
          "midi": 60,
          "time": 101.66315377916709,
          "velocity": 0.4881889763779528,
          "duration": 0.08854163124999559
        },
        {
          "name": "C2",
          "midi": 36,
          "time": 101.67877877291708,
          "velocity": 0.6377952755905512,
          "duration": 0.17534715208333296
        },
        {
          "name": "C3",
          "midi": 48,
          "time": 101.68225099375042,
          "velocity": 0.5748031496062992,
          "duration": 0.14930549583333175
        },
        {
          "name": "G4",
          "midi": 67,
          "time": 102.07634805833375,
          "velocity": 0.5196850393700787,
          "duration": 0.09895829375000176
        },
        {
          "name": "C4",
          "midi": 60,
          "time": 102.07808416875042,
          "velocity": 0.4645669291338583,
          "duration": 0.10416662499999063
        },
        {
          "name": "F4",
          "midi": 65,
          "time": 102.50516733125042,
          "velocity": 0.6377952755905512,
          "duration": 0.11805550833334166
        },
        {
          "name": "A#1",
          "midi": 34,
          "time": 102.50516733125042,
          "velocity": 0.7165354330708661,
          "duration": 0.09027774166666802
        },
        {
          "name": "A#2",
          "midi": 46,
          "time": 102.50516733125042,
          "velocity": 0.6299212598425197,
          "duration": 0.07812496875000363
        },
        {
          "name": "A#3",
          "midi": 58,
          "time": 102.51037566250042,
          "velocity": 0.5748031496062992,
          "duration": 0.11805550833334166
        },
        {
          "name": "F4",
          "midi": 65,
          "time": 102.90968105833376,
          "velocity": 0.5354330708661418,
          "duration": 0.09374996249999867
        },
        {
          "name": "A#3",
          "midi": 58,
          "time": 102.91315327916709,
          "velocity": 0.5196850393700787,
          "duration": 0.09201385208334045
        },
        {
          "name": "A#3",
          "midi": 58,
          "time": 103.11975041875043,
          "velocity": 0.5118110236220472,
          "duration": 0.10243051458333241
        },
        {
          "name": "F4",
          "midi": 65,
          "time": 103.11975041875043,
          "velocity": 0.5511811023622047,
          "duration": 0.0954860729166711
        },
        {
          "name": "F4",
          "midi": 65,
          "time": 103.32461144791709,
          "velocity": 0.5669291338582677,
          "duration": 0.1076388458333497
        },
        {
          "name": "A#3",
          "midi": 58,
          "time": 103.32634755833377,
          "velocity": 0.5354330708661418,
          "duration": 0.10069440416667419
        },
        {
          "name": "A#2",
          "midi": 46,
          "time": 103.3350281104171,
          "velocity": 0.6456692913385826,
          "duration": 0.11631939791668344
        },
        {
          "name": "A#1",
          "midi": 34,
          "time": 103.3402364416671,
          "velocity": 0.6614173228346457,
          "duration": 0.1197916187500141
        },
        {
          "name": "F4",
          "midi": 65,
          "time": 103.74822238958379,
          "velocity": 0.5196850393700787,
          "duration": 0.09722218333332933
        },
        {
          "name": "A#3",
          "midi": 58,
          "time": 103.75343072083379,
          "velocity": 0.47244094488188976,
          "duration": 0.09201385208332624
        },
        {
          "name": "F4",
          "midi": 65,
          "time": 103.96176397083379,
          "velocity": 0.5354330708661418,
          "duration": 0.10243051458333241
        },
        {
          "name": "A#3",
          "midi": 58,
          "time": 103.96350008125046,
          "velocity": 0.47244094488188976,
          "duration": 0.09374996249999867
        },
        {
          "name": "A#2",
          "midi": 46,
          "time": 104.16141666875045,
          "velocity": 0.7007874015748031,
          "duration": 0.1145832874999968
        },
        {
          "name": "F4",
          "midi": 65,
          "time": 104.16662500000045,
          "velocity": 0.5748031496062992,
          "duration": 0.10937495624999372
        },
        {
          "name": "A#1",
          "midi": 34,
          "time": 104.16836111041712,
          "velocity": 0.6850393700787402,
          "duration": 0.1267360604166612
        },
        {
          "name": "A#3",
          "midi": 58,
          "time": 104.16836111041712,
          "velocity": 0.5275590551181102,
          "duration": 0.10069440416665998
        },
        {
          "name": "F4",
          "midi": 65,
          "time": 104.58849983125045,
          "velocity": 0.5748031496062992,
          "duration": 0.10937495624999372
        },
        {
          "name": "A#3",
          "midi": 58,
          "time": 104.59197205208378,
          "velocity": 0.5354330708661418,
          "duration": 0.10069440416665998
        },
        {
          "name": "E4",
          "midi": 64,
          "time": 104.99822188958377,
          "velocity": 0.6771653543307087,
          "duration": 0.11284717708335279
        },
        {
          "name": "A3",
          "midi": 57,
          "time": 104.99995800000045,
          "velocity": 0.6220472440944882,
          "duration": 0.11631939791668344
        },
        {
          "name": "A2",
          "midi": 45,
          "time": 105.00343022083378,
          "velocity": 0.6771653543307087,
          "duration": 0.09027774166668223
        },
        {
          "name": "A1",
          "midi": 33,
          "time": 105.00516633125045,
          "velocity": 0.8031496062992126,
          "duration": 0.08333330000000672
        },
        {
          "name": "A3",
          "midi": 57,
          "time": 105.40968005833379,
          "velocity": 0.5354330708661418,
          "duration": 0.10069440416665998
        },
        {
          "name": "E4",
          "midi": 64,
          "time": 105.40968005833379,
          "velocity": 0.5511811023622047,
          "duration": 0.0763888583333312
        },
        {
          "name": "A3",
          "midi": 57,
          "time": 105.61627719791711,
          "velocity": 0.49606299212598426,
          "duration": 0.09722218333334354
        },
        {
          "name": "E4",
          "midi": 64,
          "time": 105.61627719791711,
          "velocity": 0.5354330708661418,
          "duration": 0.08680552083333737
        },
        {
          "name": "E4",
          "midi": 64,
          "time": 105.82461044791712,
          "velocity": 0.6299212598425197,
          "duration": 0.09722218333332933
        },
        {
          "name": "A3",
          "midi": 57,
          "time": 105.8263465583338,
          "velocity": 0.5354330708661418,
          "duration": 0.08680552083332316
        },
        {
          "name": "A2",
          "midi": 45,
          "time": 105.83849933125046,
          "velocity": 0.6299212598425197,
          "duration": 0.11284717708332437
        },
        {
          "name": "A1",
          "midi": 33,
          "time": 105.84544377291712,
          "velocity": 0.6771653543307087,
          "duration": 0.13541661249999493
        },
        {
          "name": "A3",
          "midi": 57,
          "time": 106.24474916875045,
          "velocity": 0.5039370078740157,
          "duration": 0.09027774166666802
        },
        {
          "name": "E4",
          "midi": 64,
          "time": 106.24474916875045,
          "velocity": 0.5511811023622047,
          "duration": 0.07986107916666185
        },
        {
          "name": "A3",
          "midi": 57,
          "time": 106.45481852916711,
          "velocity": 0.47244094488188976,
          "duration": 0.08680552083332316
        },
        {
          "name": "E4",
          "midi": 64,
          "time": 106.45481852916711,
          "velocity": 0.5196850393700787,
          "duration": 0.07986107916666185
        },
        {
          "name": "A2",
          "midi": 45,
          "time": 106.6423184541671,
          "velocity": 0.6299212598425197,
          "duration": 0.10937495625000793
        },
        {
          "name": "A1",
          "midi": 33,
          "time": 106.6475267854171,
          "velocity": 0.7716535433070866,
          "duration": 0.10590273541667727
        },
        {
          "name": "E4",
          "midi": 64,
          "time": 106.66141566875044,
          "velocity": 0.5748031496062992,
          "duration": 0.09722218333334354
        },
        {
          "name": "A3",
          "midi": 57,
          "time": 106.66315177916711,
          "velocity": 0.4881889763779528,
          "duration": 0.08854163124999559
        },
        {
          "name": "E4",
          "midi": 64,
          "time": 107.07634605833378,
          "velocity": 0.5196850393700787,
          "duration": 0.09895829375000176
        },
        {
          "name": "A3",
          "midi": 57,
          "time": 107.07808216875046,
          "velocity": 0.4645669291338583,
          "duration": 0.10416662499999063
        },
        {
          "name": "E4",
          "midi": 64,
          "time": 107.49822088958378,
          "velocity": 0.6771653543307087,
          "duration": 0.11284717708335279
        },
        {
          "name": "A3",
          "midi": 57,
          "time": 107.49995700000045,
          "velocity": 0.6220472440944882,
          "duration": 0.11631939791668344
        },
        {
          "name": "A2",
          "midi": 45,
          "time": 107.50342922083378,
          "velocity": 0.6771653543307087,
          "duration": 0.09027774166668223
        },
        {
          "name": "A1",
          "midi": 33,
          "time": 107.50516533125045,
          "velocity": 0.8031496062992126,
          "duration": 0.08333330000000672
        },
        {
          "name": "A3",
          "midi": 57,
          "time": 107.9096790583338,
          "velocity": 0.5354330708661418,
          "duration": 0.10069440416665998
        },
        {
          "name": "E4",
          "midi": 64,
          "time": 107.9096790583338,
          "velocity": 0.5511811023622047,
          "duration": 0.0763888583333312
        },
        {
          "name": "A3",
          "midi": 57,
          "time": 108.11627619791712,
          "velocity": 0.49606299212598426,
          "duration": 0.09722218333334354
        },
        {
          "name": "E4",
          "midi": 64,
          "time": 108.11627619791712,
          "velocity": 0.5354330708661418,
          "duration": 0.08680552083333737
        },
        {
          "name": "A1",
          "midi": 33,
          "time": 108.30898445416713,
          "velocity": 0.6220472440944882,
          "duration": 0.16145826874999614
        },
        {
          "name": "A2",
          "midi": 45,
          "time": 108.31245667500046,
          "velocity": 0.5669291338582677,
          "duration": 0.1336805020833367
        },
        {
          "name": "E4",
          "midi": 64,
          "time": 108.32460944791713,
          "velocity": 0.6299212598425197,
          "duration": 0.09722218333334354
        },
        {
          "name": "A3",
          "midi": 57,
          "time": 108.3263455583338,
          "velocity": 0.5354330708661418,
          "duration": 0.08680552083333737
        },
        {
          "name": "A3",
          "midi": 57,
          "time": 108.74474816875046,
          "velocity": 0.5039370078740157,
          "duration": 0.09027774166666802
        },
        {
          "name": "E4",
          "midi": 64,
          "time": 108.74474816875046,
          "velocity": 0.5511811023622047,
          "duration": 0.07986107916666185
        },
        {
          "name": "A3",
          "midi": 57,
          "time": 108.95481752916713,
          "velocity": 0.47244094488188976,
          "duration": 0.08680552083332316
        },
        {
          "name": "E4",
          "midi": 64,
          "time": 108.95481752916713,
          "velocity": 0.5196850393700787,
          "duration": 0.07986107916666185
        },
        {
          "name": "A1",
          "midi": 33,
          "time": 109.15794244791712,
          "velocity": 0.7244094488188977,
          "duration": 0.11631939791668344
        },
        {
          "name": "E4",
          "midi": 64,
          "time": 109.16141466875045,
          "velocity": 0.5748031496062992,
          "duration": 0.09722218333334354
        },
        {
          "name": "A3",
          "midi": 57,
          "time": 109.16315077916713,
          "velocity": 0.4881889763779528,
          "duration": 0.0885416312500098
        },
        {
          "name": "A2",
          "midi": 45,
          "time": 109.16835911041713,
          "velocity": 0.7244094488188977,
          "duration": 0.10069440416667419
        },
        {
          "name": "E4",
          "midi": 64,
          "time": 109.5763450583338,
          "velocity": 0.5196850393700787,
          "duration": 0.09895829375000176
        },
        {
          "name": "A3",
          "midi": 57,
          "time": 109.57808116875047,
          "velocity": 0.4645669291338583,
          "duration": 0.10416662499999063
        },
        {
          "name": "D4",
          "midi": 62,
          "time": 109.99995600000047,
          "velocity": 0.8188976377952756,
          "duration": 0.09374996249999867
        },
        {
          "name": "A4",
          "midi": 69,
          "time": 109.99995600000047,
          "velocity": 0.6062992125984252,
          "duration": 0.08680552083333737
        },
        {
          "name": "D3",
          "midi": 50,
          "time": 109.99995600000047,
          "velocity": 0.8976377952755905,
          "duration": 0.1770832625000054
        },
        {
          "name": "D2",
          "midi": 38,
          "time": 109.99995600000047,
          "velocity": 0.9606299212598425,
          "duration": 0.15104160625000418
        },
        {
          "name": "A4",
          "midi": 69,
          "time": 110.2117614708338,
          "velocity": 0.5748031496062992,
          "duration": 0.08506941041667915
        },
        {
          "name": "D4",
          "midi": 62,
          "time": 110.21349758125048,
          "velocity": 0.7637795275590551,
          "duration": 0.08506941041667915
        },
        {
          "name": "A4",
          "midi": 69,
          "time": 110.42009472083383,
          "velocity": 0.6062992125984252,
          "duration": 0.08506941041667915
        },
        {
          "name": "D4",
          "midi": 62,
          "time": 110.4218308312505,
          "velocity": 0.7401574803149606,
          "duration": 0.0885416312500098
        },
        {
          "name": "A4",
          "midi": 69,
          "time": 110.63016408125051,
          "velocity": 0.6535433070866141,
          "duration": 0.07118052708334233
        },
        {
          "name": "D4",
          "midi": 62,
          "time": 110.63190019166719,
          "velocity": 0.7874015748031497,
          "duration": 0.08506941041666494
        },
        {
          "name": "D3",
          "midi": 50,
          "time": 110.83328900000052,
          "velocity": 0.8503937007874016,
          "duration": 0.14409716458332866
        },
        {
          "name": "D2",
          "midi": 38,
          "time": 110.83328900000052,
          "velocity": 0.9606299212598425,
          "duration": 0.11979161874999988
        },
        {
          "name": "A4",
          "midi": 69,
          "time": 110.83676122083385,
          "velocity": 0.7401574803149606,
          "duration": 0.07638885833334541
        },
        {
          "name": "D4",
          "midi": 62,
          "time": 110.83849733125052,
          "velocity": 0.8031496062992126,
          "duration": 0.08159718958333428
        },
        {
          "name": "D4",
          "midi": 62,
          "time": 111.04509447083385,
          "velocity": 0.7480314960629921,
          "duration": 0.07638885833334541
        },
        {
          "name": "A4",
          "midi": 69,
          "time": 111.04509447083385,
          "velocity": 0.6771653543307087,
          "duration": 0.06597219583333924
        },
        {
          "name": "A4",
          "midi": 69,
          "time": 111.2516916104172,
          "velocity": 0.7165354330708661,
          "duration": 0.06597219583333924
        },
        {
          "name": "D4",
          "midi": 62,
          "time": 111.25342772083387,
          "velocity": 0.7165354330708661,
          "duration": 0.07986107916666185
        },
        {
          "name": "A4",
          "midi": 69,
          "time": 111.45828875000053,
          "velocity": 0.6377952755905512,
          "duration": 0.06423608541666681
        },
        {
          "name": "D4",
          "midi": 62,
          "time": 111.4600248604172,
          "velocity": 0.7637795275590551,
          "duration": 0.08159718958333428
        },
        {
          "name": "A4",
          "midi": 69,
          "time": 111.66488588958387,
          "velocity": 0.7716535433070866,
          "duration": 0.0694444166666841
        },
        {
          "name": "D3",
          "midi": 50,
          "time": 111.66662200000054,
          "velocity": 0.7716535433070866,
          "duration": 0.16666660000001343
        },
        {
          "name": "D2",
          "midi": 38,
          "time": 111.66662200000054,
          "velocity": 0.8661417322834646,
          "duration": 0.1267360604166754
        },
        {
          "name": "D4",
          "midi": 62,
          "time": 111.66835811041722,
          "velocity": 0.7716535433070866,
          "duration": 0.08333330000000672
        },
        {
          "name": "A4",
          "midi": 69,
          "time": 111.8732191395839,
          "velocity": 0.7637795275590551,
          "duration": 0.0763888583333312
        },
        {
          "name": "D4",
          "midi": 62,
          "time": 111.87669136041723,
          "velocity": 0.7874015748031497,
          "duration": 0.07812496875000363
        },
        {
          "name": "A4",
          "midi": 69,
          "time": 112.08155238958389,
          "velocity": 0.7401574803149606,
          "duration": 0.07118052708334233
        },
        {
          "name": "D4",
          "midi": 62,
          "time": 112.0867607208339,
          "velocity": 0.7637795275590551,
          "duration": 0.08159718958333428
        },
        {
          "name": "A4",
          "midi": 69,
          "time": 112.29162175000056,
          "velocity": 0.7716535433070866,
          "duration": 0.06770830624999746
        },
        {
          "name": "D4",
          "midi": 62,
          "time": 112.29509397083389,
          "velocity": 0.7874015748031497,
          "duration": 0.08159718958333428
        },
        {
          "name": "G2",
          "midi": 43,
          "time": 112.49995500000055,
          "velocity": 0.8661417322834646,
          "duration": 0.1718749312500023
        },
        {
          "name": "G1",
          "midi": 31,
          "time": 112.49995500000055,
          "velocity": 0.8818897637795275,
          "duration": 0.13715272291666736
        },
        {
          "name": "A4",
          "midi": 69,
          "time": 112.50169111041723,
          "velocity": 0.8031496062992126,
          "duration": 0.06770830624999746
        },
        {
          "name": "G4",
          "midi": 67,
          "time": 112.50516333125056,
          "velocity": 0.8818897637795275,
          "duration": 0.08680552083333737
        },
        {
          "name": "A4",
          "midi": 69,
          "time": 112.70828825000055,
          "velocity": 0.7637795275590551,
          "duration": 0.0694444166666699
        },
        {
          "name": "G4",
          "midi": 67,
          "time": 112.71176047083388,
          "velocity": 0.7716535433070866,
          "duration": 0.07638885833334541
        },
        {
          "name": "A4",
          "midi": 69,
          "time": 112.91488538958389,
          "velocity": 0.8346456692913385,
          "duration": 0.07118052708332812
        },
        {
          "name": "G4",
          "midi": 67,
          "time": 112.91835761041722,
          "velocity": 0.7874015748031497,
          "duration": 0.0833332999999925
        },
        {
          "name": "A4",
          "midi": 69,
          "time": 113.12321863958388,
          "velocity": 0.7480314960629921,
          "duration": 0.06770830624999746
        },
        {
          "name": "G4",
          "midi": 67,
          "time": 113.12842697083389,
          "velocity": 0.8188976377952756,
          "duration": 0.08159718958333428
        },
        {
          "name": "A4",
          "midi": 69,
          "time": 113.32981577916722,
          "velocity": 0.7874015748031497,
          "duration": 0.0694444166666699
        },
        {
          "name": "G2",
          "midi": 43,
          "time": 113.33328800000055,
          "velocity": 0.8503937007874016,
          "duration": 0.14062494375001222
        },
        {
          "name": "G1",
          "midi": 31,
          "time": 113.33328800000055,
          "velocity": 0.8976377952755905,
          "duration": 0.13020828125000605
        },
        {
          "name": "G4",
          "midi": 67,
          "time": 113.33502411041722,
          "velocity": 0.8031496062992126,
          "duration": 0.08333330000000672
        },
        {
          "name": "A4",
          "midi": 69,
          "time": 113.53814902916723,
          "velocity": 0.7716535433070866,
          "duration": 0.0694444166666699
        },
        {
          "name": "G4",
          "midi": 67,
          "time": 113.54335736041723,
          "velocity": 0.8188976377952756,
          "duration": 0.07986107916666185
        },
        {
          "name": "A4",
          "midi": 69,
          "time": 113.7482183895839,
          "velocity": 0.7637795275590551,
          "duration": 0.06597219583333924
        },
        {
          "name": "G4",
          "midi": 67,
          "time": 113.7534267208339,
          "velocity": 0.8031496062992126,
          "duration": 0.08159718958333428
        },
        {
          "name": "A4",
          "midi": 69,
          "time": 113.9565516395839,
          "velocity": 0.7874015748031497,
          "duration": 0.0694444166666699
        },
        {
          "name": "G4",
          "midi": 67,
          "time": 113.96175997083391,
          "velocity": 0.8031496062992126,
          "duration": 0.08333330000000672
        },
        {
          "name": "A4",
          "midi": 69,
          "time": 114.16488488958392,
          "velocity": 0.7480314960629921,
          "duration": 0.0694444166666699
        },
        {
          "name": "G2",
          "midi": 43,
          "time": 114.16662100000059,
          "velocity": 0.8346456692913385,
          "duration": 0.14756938541667353
        },
        {
          "name": "G1",
          "midi": 31,
          "time": 114.16662100000059,
          "velocity": 0.8976377952755905,
          "duration": 0.12499995000000297
        },
        {
          "name": "G4",
          "midi": 67,
          "time": 114.17009322083392,
          "velocity": 0.7874015748031497,
          "duration": 0.07812496875000363
        },
        {
          "name": "A4",
          "midi": 69,
          "time": 114.3749542500006,
          "velocity": 0.7637795275590551,
          "duration": 0.06770830624999746
        },
        {
          "name": "G4",
          "midi": 67,
          "time": 114.37842647083393,
          "velocity": 0.8346456692913385,
          "duration": 0.07465274791667298
        },
        {
          "name": "A4",
          "midi": 69,
          "time": 114.58328750000061,
          "velocity": 0.7716535433070866,
          "duration": 0.0694444166666699
        },
        {
          "name": "G4",
          "midi": 67,
          "time": 114.58675972083394,
          "velocity": 0.7086614173228346,
          "duration": 0.07986107916667606
        },
        {
          "name": "A4",
          "midi": 69,
          "time": 114.79335686041728,
          "velocity": 0.7165354330708661,
          "duration": 0.06249997500000859
        },
        {
          "name": "G4",
          "midi": 67,
          "time": 114.79509297083395,
          "velocity": 0.8346456692913385,
          "duration": 0.0885416312500098
        },
        {
          "name": "D3",
          "midi": 50,
          "time": 114.99995400000063,
          "velocity": 0.8346456692913385,
          "duration": 0.17013882083334408
        },
        {
          "name": "D2",
          "midi": 38,
          "time": 114.99995400000063,
          "velocity": 0.8346456692913385,
          "duration": 0.11284717708333858
        },
        {
          "name": "A4",
          "midi": 69,
          "time": 115.0016901104173,
          "velocity": 0.7874015748031497,
          "duration": 0.06249997500000859
        },
        {
          "name": "D4",
          "midi": 62,
          "time": 115.00342622083397,
          "velocity": 0.8346456692913385,
          "duration": 0.08506941041666494
        },
        {
          "name": "A4",
          "midi": 69,
          "time": 115.21002336041731,
          "velocity": 0.7165354330708661,
          "duration": 0.06597219583333924
        },
        {
          "name": "D4",
          "midi": 62,
          "time": 115.21175947083398,
          "velocity": 0.7874015748031497,
          "duration": 0.07986107916666185
        },
        {
          "name": "A4",
          "midi": 69,
          "time": 115.4183566104173,
          "velocity": 0.7637795275590551,
          "duration": 0.0694444166666699
        },
        {
          "name": "D4",
          "midi": 62,
          "time": 115.42009272083398,
          "velocity": 0.7480314960629921,
          "duration": 0.08680552083333737
        },
        {
          "name": "A4",
          "midi": 69,
          "time": 115.62668986041732,
          "velocity": 0.7086614173228346,
          "duration": 0.06423608541666681
        },
        {
          "name": "D4",
          "midi": 62,
          "time": 115.63016208125065,
          "velocity": 0.8031496062992126,
          "duration": 0.07986107916667606
        },
        {
          "name": "D3",
          "midi": 50,
          "time": 115.83328700000065,
          "velocity": 0.8188976377952756,
          "duration": 0.164930489583341
        },
        {
          "name": "D2",
          "midi": 38,
          "time": 115.83328700000065,
          "velocity": 0.9212598425196851,
          "duration": 0.1197916187500141
        },
        {
          "name": "A4",
          "midi": 69,
          "time": 115.83502311041732,
          "velocity": 0.7401574803149606,
          "duration": 0.06770830624999746
        },
        {
          "name": "D4",
          "midi": 62,
          "time": 115.83849533125066,
          "velocity": 0.7480314960629921,
          "duration": 0.07465274791667298
        },
        {
          "name": "A4",
          "midi": 69,
          "time": 116.04162025000066,
          "velocity": 0.7165354330708661,
          "duration": 0.06597219583332503
        },
        {
          "name": "D4",
          "midi": 62,
          "time": 116.04509247083399,
          "velocity": 0.7401574803149606,
          "duration": 0.0833332999999925
        },
        {
          "name": "A4",
          "midi": 69,
          "time": 116.24821738958398,
          "velocity": 0.7244094488188977,
          "duration": 0.0694444166666699
        },
        {
          "name": "D4",
          "midi": 62,
          "time": 116.25342572083399,
          "velocity": 0.7716535433070866,
          "duration": 0.07465274791667298
        },
        {
          "name": "A4",
          "midi": 69,
          "time": 116.456550639584,
          "velocity": 0.7244094488188977,
          "duration": 0.06770830624999746
        },
        {
          "name": "D4",
          "midi": 62,
          "time": 116.461758970834,
          "velocity": 0.8188976377952756,
          "duration": 0.0833332999999925
        },
        {
          "name": "A4",
          "midi": 69,
          "time": 116.66314777916732,
          "velocity": 0.7401574803149606,
          "duration": 0.06770830624999746
        },
        {
          "name": "D3",
          "midi": 50,
          "time": 116.66662000000065,
          "velocity": 0.7480314960629921,
          "duration": 0.18576381458333913
        },
        {
          "name": "D2",
          "midi": 38,
          "time": 116.66662000000065,
          "velocity": 0.8503937007874016,
          "duration": 0.10243051458333241
        },
        {
          "name": "D4",
          "midi": 62,
          "time": 116.67009222083398,
          "velocity": 0.7480314960629921,
          "duration": 0.0763888583333312
        },
        {
          "name": "A4",
          "midi": 69,
          "time": 116.86974491875065,
          "velocity": 0.7086614173228346,
          "duration": 0.07812496874998942
        },
        {
          "name": "D4",
          "midi": 62,
          "time": 116.87668936041732,
          "velocity": 0.7480314960629921,
          "duration": 0.07291663750000055
        },
        {
          "name": "A4",
          "midi": 69,
          "time": 117.07807816875065,
          "velocity": 0.7401574803149606,
          "duration": 0.06944441666665568
        },
        {
          "name": "D4",
          "midi": 62,
          "time": 117.08502261041731,
          "velocity": 0.7716535433070866,
          "duration": 0.07986107916666185
        },
        {
          "name": "A4",
          "midi": 69,
          "time": 117.2881475291673,
          "velocity": 0.7480314960629921,
          "duration": 0.0763888583333312
        },
        {
          "name": "D4",
          "midi": 62,
          "time": 117.29335586041731,
          "velocity": 0.7637795275590551,
          "duration": 0.0833332999999925
        },
        {
          "name": "A4",
          "midi": 69,
          "time": 117.49821688958397,
          "velocity": 0.7401574803149606,
          "duration": 0.07638885833334541
        },
        {
          "name": "G2",
          "midi": 43,
          "time": 117.49995300000064,
          "velocity": 0.8188976377952756,
          "duration": 0.17881937291667782
        },
        {
          "name": "G1",
          "midi": 31,
          "time": 117.49995300000064,
          "velocity": 0.8818897637795275,
          "duration": 0.14409716458334287
        },
        {
          "name": "G4",
          "midi": 67,
          "time": 117.50168911041732,
          "velocity": 0.8346456692913385,
          "duration": 0.08680552083333737
        },
        {
          "name": "A4",
          "midi": 69,
          "time": 117.706550139584,
          "velocity": 0.7244094488188977,
          "duration": 0.0694444166666699
        },
        {
          "name": "G4",
          "midi": 67,
          "time": 117.70828625000067,
          "velocity": 0.8188976377952756,
          "duration": 0.08854163124999559
        },
        {
          "name": "A4",
          "midi": 69,
          "time": 117.91488338958399,
          "velocity": 0.7401574803149606,
          "duration": 0.07291663750000055
        },
        {
          "name": "G4",
          "midi": 67,
          "time": 117.91661950000066,
          "velocity": 0.7637795275590551,
          "duration": 0.09027774166666802
        },
        {
          "name": "G4",
          "midi": 67,
          "time": 118.123216639584,
          "velocity": 0.7244094488188977,
          "duration": 0.08159718958333428
        },
        {
          "name": "A4",
          "midi": 69,
          "time": 118.123216639584,
          "velocity": 0.7401574803149606,
          "duration": 0.0694444166666699
        },
        {
          "name": "G4",
          "midi": 67,
          "time": 118.331549889584,
          "velocity": 0.7165354330708661,
          "duration": 0.08333330000000672
        },
        {
          "name": "A4",
          "midi": 69,
          "time": 118.331549889584,
          "velocity": 0.7716535433070866,
          "duration": 0.06597219583333924
        },
        {
          "name": "G2",
          "midi": 43,
          "time": 118.33328600000067,
          "velocity": 0.8346456692913385,
          "duration": 0.16145826874999614
        },
        {
          "name": "G1",
          "midi": 31,
          "time": 118.33328600000067,
          "velocity": 0.9448818897637795,
          "duration": 0.11631939791666923
        },
        {
          "name": "A4",
          "midi": 69,
          "time": 118.53814702916733,
          "velocity": 0.7401574803149606,
          "duration": 0.07638885833334541
        },
        {
          "name": "G4",
          "midi": 67,
          "time": 118.539883139584,
          "velocity": 0.7244094488188977,
          "duration": 0.09027774166666802
        },
        {
          "name": "A4",
          "midi": 69,
          "time": 118.748216389584,
          "velocity": 0.7401574803149606,
          "duration": 0.07291663750000055
        },
        {
          "name": "G4",
          "midi": 67,
          "time": 118.74995250000067,
          "velocity": 0.7480314960629921,
          "duration": 0.09027774166666802
        },
        {
          "name": "A4",
          "midi": 69,
          "time": 118.95654963958401,
          "velocity": 0.7401574803149606,
          "duration": 0.07465274791667298
        },
        {
          "name": "G4",
          "midi": 67,
          "time": 118.95828575000068,
          "velocity": 0.7401574803149606,
          "duration": 0.08159718958333428
        },
        {
          "name": "A4",
          "midi": 69,
          "time": 119.16488288958402,
          "velocity": 0.7401574803149606,
          "duration": 0.08159718958333428
        },
        {
          "name": "G4",
          "midi": 67,
          "time": 119.1666190000007,
          "velocity": 0.8188976377952756,
          "duration": 0.08506941041666494
        },
        {
          "name": "G2",
          "midi": 43,
          "time": 119.1666190000007,
          "velocity": 0.8503937007874016,
          "duration": 0.14756938541665932
        },
        {
          "name": "G1",
          "midi": 31,
          "time": 119.1666190000007,
          "velocity": 0.9448818897637795,
          "duration": 0.13020828124999184
        },
        {
          "name": "G4",
          "midi": 67,
          "time": 119.37495225000069,
          "velocity": 0.7401574803149606,
          "duration": 0.08506941041666494
        },
        {
          "name": "A4",
          "midi": 69,
          "time": 119.37495225000069,
          "velocity": 0.7401574803149606,
          "duration": 0.0694444166666699
        },
        {
          "name": "G4",
          "midi": 67,
          "time": 119.58328550000068,
          "velocity": 0.7874015748031497,
          "duration": 0.07986107916666185
        },
        {
          "name": "A4",
          "midi": 69,
          "time": 119.58328550000068,
          "velocity": 0.7716535433070866,
          "duration": 0.0763888583333312
        },
        {
          "name": "G4",
          "midi": 67,
          "time": 119.79161875000068,
          "velocity": 0.8346456692913385,
          "duration": 0.08854163124999559
        },
        {
          "name": "A4",
          "midi": 69,
          "time": 119.79161875000068,
          "velocity": 0.7480314960629921,
          "duration": 0.06770830624999746
        },
        {
          "name": "D4",
          "midi": 62,
          "time": 119.99995200000068,
          "velocity": 0.7716535433070866,
          "duration": 0.08159718958333428
        },
        {
          "name": "A4",
          "midi": 69,
          "time": 119.99995200000068,
          "velocity": 0.7874015748031497,
          "duration": 0.06770830624999746
        },
        {
          "name": "D3",
          "midi": 50,
          "time": 119.99995200000068,
          "velocity": 0.8503937007874016,
          "duration": 0.15451382708333483
        },
        {
          "name": "D2",
          "midi": 38,
          "time": 119.99995200000068,
          "velocity": 0.7716535433070866,
          "duration": 0.10937495625000793
        },
        {
          "name": "D4",
          "midi": 62,
          "time": 120.20828525000067,
          "velocity": 0.7244094488188977,
          "duration": 0.08333330000000672
        },
        {
          "name": "A4",
          "midi": 69,
          "time": 120.20828525000067,
          "velocity": 0.7637795275590551,
          "duration": 0.0694444166666699
        },
        {
          "name": "D4",
          "midi": 62,
          "time": 120.41661850000068,
          "velocity": 0.7244094488188977,
          "duration": 0.09201385208334045
        },
        {
          "name": "A4",
          "midi": 69,
          "time": 120.41661850000068,
          "velocity": 0.8031496062992126,
          "duration": 0.06423608541666681
        },
        {
          "name": "A4",
          "midi": 69,
          "time": 120.62495175000069,
          "velocity": 0.8346456692913385,
          "duration": 0.07465274791667298
        },
        {
          "name": "D4",
          "midi": 62,
          "time": 120.62668786041736,
          "velocity": 0.7086614173228346,
          "duration": 0.08854163124999559
        },
        {
          "name": "A4",
          "midi": 69,
          "time": 120.83328500000069,
          "velocity": 0.7480314960629921,
          "duration": 0.07291663750000055
        },
        {
          "name": "D3",
          "midi": 50,
          "time": 120.83328500000069,
          "velocity": 0.8031496062992126,
          "duration": 0.14930549583334596
        },
        {
          "name": "D2",
          "midi": 38,
          "time": 120.83328500000069,
          "velocity": 0.8503937007874016,
          "duration": 0.11458328750001101
        },
        {
          "name": "D4",
          "midi": 62,
          "time": 120.83502111041736,
          "velocity": 0.7401574803149606,
          "duration": 0.09027774166666802
        },
        {
          "name": "A4",
          "midi": 69,
          "time": 121.03988213958404,
          "velocity": 0.7637795275590551,
          "duration": 0.06770830625001167
        },
        {
          "name": "D4",
          "midi": 62,
          "time": 121.04161825000071,
          "velocity": 0.6929133858267716,
          "duration": 0.09374996250001288
        },
        {
          "name": "A4",
          "midi": 69,
          "time": 121.24821538958406,
          "velocity": 0.8346456692913385,
          "duration": 0.06770830625001167
        },
        {
          "name": "D4",
          "midi": 62,
          "time": 121.24995150000073,
          "velocity": 0.7165354330708661,
          "duration": 0.09374996250001288
        },
        {
          "name": "A4",
          "midi": 69,
          "time": 121.45481252916741,
          "velocity": 0.7716535433070866,
          "duration": 0.0763888583333312
        },
        {
          "name": "D4",
          "midi": 62,
          "time": 121.45828475000074,
          "velocity": 0.7165354330708661,
          "duration": 0.08506941041666494
        },
        {
          "name": "A4",
          "midi": 69,
          "time": 121.66314577916741,
          "velocity": 0.7637795275590551,
          "duration": 0.0694444166666699
        },
        {
          "name": "D3",
          "midi": 50,
          "time": 121.66661800000074,
          "velocity": 0.8346456692913385,
          "duration": 0.16666660000001343
        },
        {
          "name": "D2",
          "midi": 38,
          "time": 121.66661800000074,
          "velocity": 0.8818897637795275,
          "duration": 0.11805550833334166
        },
        {
          "name": "D4",
          "midi": 62,
          "time": 121.66835411041741,
          "velocity": 0.7480314960629921,
          "duration": 0.0954860729166711
        },
        {
          "name": "A4",
          "midi": 69,
          "time": 121.87147902916742,
          "velocity": 0.7480314960629921,
          "duration": 0.07465274791667298
        },
        {
          "name": "D4",
          "midi": 62,
          "time": 121.87668736041742,
          "velocity": 0.7401574803149606,
          "duration": 0.08333330000000672
        },
        {
          "name": "A4",
          "midi": 69,
          "time": 122.0815483895841,
          "velocity": 0.7637795275590551,
          "duration": 0.0694444166666699
        },
        {
          "name": "D4",
          "midi": 62,
          "time": 122.08502061041743,
          "velocity": 0.7480314960629921,
          "duration": 0.08333330000000672
        },
        {
          "name": "A4",
          "midi": 69,
          "time": 122.28988163958411,
          "velocity": 0.8031496062992126,
          "duration": 0.06597219583333924
        },
        {
          "name": "D4",
          "midi": 62,
          "time": 122.29508997083411,
          "velocity": 0.7716535433070866,
          "duration": 0.08506941041666494
        },
        {
          "name": "A4",
          "midi": 69,
          "time": 122.4982148895841,
          "velocity": 0.8188976377952756,
          "duration": 0.07118052708334233
        },
        {
          "name": "G2",
          "midi": 43,
          "time": 122.49995100000078,
          "velocity": 0.8503937007874016,
          "duration": 0.16666659999999922
        },
        {
          "name": "G1",
          "midi": 31,
          "time": 122.49995100000078,
          "velocity": 0.9448818897637795,
          "duration": 0.12847217083333362
        },
        {
          "name": "G4",
          "midi": 67,
          "time": 122.50342322083411,
          "velocity": 0.8346456692913385,
          "duration": 0.08333330000000672
        },
        {
          "name": "A4",
          "midi": 69,
          "time": 122.70828425000077,
          "velocity": 0.7716535433070866,
          "duration": 0.06423608541666681
        },
        {
          "name": "G4",
          "midi": 67,
          "time": 122.7117564708341,
          "velocity": 0.7637795275590551,
          "duration": 0.08506941041666494
        },
        {
          "name": "A4",
          "midi": 69,
          "time": 122.9148813895841,
          "velocity": 0.7874015748031497,
          "duration": 0.0694444166666699
        },
        {
          "name": "G4",
          "midi": 67,
          "time": 122.91835361041743,
          "velocity": 0.7716535433070866,
          "duration": 0.09374996250001288
        },
        {
          "name": "A4",
          "midi": 69,
          "time": 123.1232146395841,
          "velocity": 0.7716535433070866,
          "duration": 0.06597219583332503
        },
        {
          "name": "G4",
          "midi": 67,
          "time": 123.12668686041744,
          "velocity": 0.7165354330708661,
          "duration": 0.08854163124999559
        },
        {
          "name": "A4",
          "midi": 69,
          "time": 123.3315478895841,
          "velocity": 0.7874015748031497,
          "duration": 0.07118052708334233
        },
        {
          "name": "G2",
          "midi": 43,
          "time": 123.33328400000077,
          "velocity": 0.8503937007874016,
          "duration": 0.16840271041667165
        },
        {
          "name": "G1",
          "midi": 31,
          "time": 123.33328400000077,
          "velocity": 0.9606299212598425,
          "duration": 0.13715272291666736
        },
        {
          "name": "G4",
          "midi": 67,
          "time": 123.33502011041745,
          "velocity": 0.7401574803149606,
          "duration": 0.09027774166666802
        },
        {
          "name": "A4",
          "midi": 69,
          "time": 123.53814502916744,
          "velocity": 0.6771653543307087,
          "duration": 0.07118052708334233
        },
        {
          "name": "G4",
          "midi": 67,
          "time": 123.54335336041744,
          "velocity": 0.7165354330708661,
          "duration": 0.0885416312500098
        },
        {
          "name": "A4",
          "midi": 69,
          "time": 123.74647827916745,
          "velocity": 0.7480314960629921,
          "duration": 0.07118052708332812
        },
        {
          "name": "G4",
          "midi": 67,
          "time": 123.75342272083411,
          "velocity": 0.7244094488188977,
          "duration": 0.08680552083333737
        },
        {
          "name": "A4",
          "midi": 69,
          "time": 123.95481152916744,
          "velocity": 0.7401574803149606,
          "duration": 0.07291663750000055
        },
        {
          "name": "G4",
          "midi": 67,
          "time": 123.96001986041745,
          "velocity": 0.7716535433070866,
          "duration": 0.07465274791665877
        },
        {
          "name": "A4",
          "midi": 69,
          "time": 124.16314477916744,
          "velocity": 0.7874015748031497,
          "duration": 0.06770830624999746
        },
        {
          "name": "G2",
          "midi": 43,
          "time": 124.16661700000077,
          "velocity": 0.8503937007874016,
          "duration": 0.1718749312500023
        },
        {
          "name": "G1",
          "midi": 31,
          "time": 124.16661700000077,
          "velocity": 0.8661417322834646,
          "duration": 0.13194439166666427
        },
        {
          "name": "G4",
          "midi": 67,
          "time": 124.16835311041744,
          "velocity": 0.7874015748031497,
          "duration": 0.07812496874998942
        },
        {
          "name": "A4",
          "midi": 69,
          "time": 124.37147802916743,
          "velocity": 0.7637795275590551,
          "duration": 0.06770830624999746
        },
        {
          "name": "G4",
          "midi": 67,
          "time": 124.37668636041744,
          "velocity": 0.8031496062992126,
          "duration": 0.07986107916666185
        },
        {
          "name": "A4",
          "midi": 69,
          "time": 124.5815473895841,
          "velocity": 0.7480314960629921,
          "duration": 0.07465274791667298
        },
        {
          "name": "G4",
          "midi": 67,
          "time": 124.5867557208341,
          "velocity": 0.7401574803149606,
          "duration": 0.07812496875000363
        },
        {
          "name": "A4",
          "midi": 69,
          "time": 124.79161675000077,
          "velocity": 0.7637795275590551,
          "duration": 0.0694444166666699
        },
        {
          "name": "G4",
          "midi": 67,
          "time": 124.79335286041744,
          "velocity": 0.8031496062992126,
          "duration": 0.09374996249999867
        },
        {
          "name": "D4",
          "midi": 62,
          "time": 124.99995000000078,
          "velocity": 0.7716535433070866,
          "duration": 0.08680552083333737
        },
        {
          "name": "D3",
          "midi": 50,
          "time": 124.99995000000078,
          "velocity": 0.8346456692913385,
          "duration": 0.19444436666667286
        },
        {
          "name": "D2",
          "midi": 38,
          "time": 124.99995000000078,
          "velocity": 0.8188976377952756,
          "duration": 0.12152772916667232
        },
        {
          "name": "A4",
          "midi": 69,
          "time": 125.00168611041745,
          "velocity": 0.7716535433070866,
          "duration": 0.07812496875000363
        },
        {
          "name": "D4",
          "midi": 62,
          "time": 125.20828325000079,
          "velocity": 0.6850393700787402,
          "duration": 0.08854163124999559
        },
        {
          "name": "A4",
          "midi": 69,
          "time": 125.21175547083412,
          "velocity": 0.7401574803149606,
          "duration": 0.043402760416668684
        },
        {
          "name": "D4",
          "midi": 62,
          "time": 125.41835261041746,
          "velocity": 0.7165354330708661,
          "duration": 0.0954860729166711
        },
        {
          "name": "A4",
          "midi": 69,
          "time": 125.42008872083413,
          "velocity": 0.7874015748031497,
          "duration": 0.07291663750000055
        },
        {
          "name": "D4",
          "midi": 62,
          "time": 125.62842197083413,
          "velocity": 0.7165354330708661,
          "duration": 0.08680552083332316
        },
        {
          "name": "A4",
          "midi": 69,
          "time": 125.62842197083413,
          "velocity": 0.7480314960629921,
          "duration": 0.07118052708332812
        },
        {
          "name": "D3",
          "midi": 50,
          "time": 125.83328300000078,
          "velocity": 0.7480314960629921,
          "duration": 0.21874991250003006
        },
        {
          "name": "D2",
          "midi": 38,
          "time": 125.83328300000078,
          "velocity": 0.8503937007874016,
          "duration": 0.13368050208335092
        },
        {
          "name": "D4",
          "midi": 62,
          "time": 125.83501911041745,
          "velocity": 0.7165354330708661,
          "duration": 0.09548607291668532
        },
        {
          "name": "A4",
          "midi": 69,
          "time": 125.83675522083412,
          "velocity": 0.7637795275590551,
          "duration": 0.06597219583333924
        },
        {
          "name": "A4",
          "midi": 69,
          "time": 126.04508847083413,
          "velocity": 0.7637795275590551,
          "duration": 0.06076386458333616
        },
        {
          "name": "D4",
          "midi": 62,
          "time": 126.0468245812508,
          "velocity": 0.7086614173228346,
          "duration": 0.09027774166666802
        },
        {
          "name": "A4",
          "midi": 69,
          "time": 126.25168561041747,
          "velocity": 0.7716535433070866,
          "duration": 0.0694444166666699
        },
        {
          "name": "D4",
          "midi": 62,
          "time": 126.25342172083414,
          "velocity": 0.6692913385826772,
          "duration": 0.09027774166666802
        },
        {
          "name": "A4",
          "midi": 69,
          "time": 126.46001886041748,
          "velocity": 0.6771653543307087,
          "duration": 0.06770830624999746
        },
        {
          "name": "D4",
          "midi": 62,
          "time": 126.46349108125081,
          "velocity": 0.6614173228346457,
          "duration": 0.08159718958333428
        },
        {
          "name": "A4",
          "midi": 69,
          "time": 126.66661600000081,
          "velocity": 0.7165354330708661,
          "duration": 0.07118052708332812
        },
        {
          "name": "D3",
          "midi": 50,
          "time": 126.66661600000081,
          "velocity": 0.8188976377952756,
          "duration": 0.1597221583333237
        },
        {
          "name": "D2",
          "midi": 38,
          "time": 126.66661600000081,
          "velocity": 0.8661417322834646,
          "duration": 0.12326383958333054
        },
        {
          "name": "D4",
          "midi": 62,
          "time": 126.67008822083415,
          "velocity": 0.6771653543307087,
          "duration": 0.09374996249999867
        },
        {
          "name": "A4",
          "midi": 69,
          "time": 126.87494925000081,
          "velocity": 0.7165354330708661,
          "duration": 0.07986107916666185
        },
        {
          "name": "D4",
          "midi": 62,
          "time": 126.87842147083414,
          "velocity": 0.6377952755905512,
          "duration": 0.08680552083333737
        },
        {
          "name": "A4",
          "midi": 69,
          "time": 127.0832825000008,
          "velocity": 0.7244094488188977,
          "duration": 0.07291663750000055
        },
        {
          "name": "D4",
          "midi": 62,
          "time": 127.08849083125081,
          "velocity": 0.6692913385826772,
          "duration": 0.0954860729166711
        },
        {
          "name": "A4",
          "midi": 69,
          "time": 127.28987963958414,
          "velocity": 0.6614173228346457,
          "duration": 0.07465274791667298
        },
        {
          "name": "D4",
          "midi": 62,
          "time": 127.29508797083415,
          "velocity": 0.6535433070866141,
          "duration": 0.09374996249999867
        },
        {
          "name": "A4",
          "midi": 69,
          "time": 127.49994900000081,
          "velocity": 0.7637795275590551,
          "duration": 0.07291663750000055
        },
        {
          "name": "A2",
          "midi": 45,
          "time": 127.49994900000081,
          "velocity": 0.7874015748031497,
          "duration": 0.16840271041665744
        },
        {
          "name": "A1",
          "midi": 33,
          "time": 127.49994900000081,
          "velocity": 0.9212598425196851,
          "duration": 0.14409716458332866
        },
        {
          "name": "A4",
          "midi": 69,
          "time": 127.7082822500008,
          "velocity": 0.7244094488188977,
          "duration": 0.07291663750000055
        },
        {
          "name": "A4",
          "midi": 69,
          "time": 127.91487938958414,
          "velocity": 0.7244094488188977,
          "duration": 0.07465274791667298
        },
        {
          "name": "A4",
          "midi": 69,
          "time": 128.12321263958415,
          "velocity": 0.6614173228346457,
          "duration": 0.07118052708332812
        },
        {
          "name": "A4",
          "midi": 69,
          "time": 128.33154588958413,
          "velocity": 0.7480314960629921,
          "duration": 0.07291663749998634
        },
        {
          "name": "A2",
          "midi": 45,
          "time": 128.3332820000008,
          "velocity": 0.8503937007874016,
          "duration": 0.16145826874998193
        },
        {
          "name": "A1",
          "midi": 33,
          "time": 128.3332820000008,
          "velocity": 0.9606299212598425,
          "duration": 0.1649304895833268
        },
        {
          "name": "A4",
          "midi": 69,
          "time": 128.53987913958412,
          "velocity": 0.7637795275590551,
          "duration": 0.07291663749998634
        },
        {
          "name": "A4",
          "midi": 69,
          "time": 128.7482123895841,
          "velocity": 0.7874015748031497,
          "duration": 0.06423608541666681
        },
        {
          "name": "A4",
          "midi": 69,
          "time": 128.95480952916742,
          "velocity": 0.7244094488188977,
          "duration": 0.0694444166666699
        },
        {
          "name": "A4",
          "midi": 69,
          "time": 129.16314277916743,
          "velocity": 0.7480314960629921,
          "duration": 0.07465274791667298
        },
        {
          "name": "A2",
          "midi": 45,
          "time": 129.16661500000077,
          "velocity": 0.8976377952755905,
          "duration": 0.14236105416665623
        },
        {
          "name": "A1",
          "midi": 33,
          "time": 129.16661500000077,
          "velocity": 1,
          "duration": 0.13194439166665006
        },
        {
          "name": "A4",
          "midi": 69,
          "time": 129.36973991875075,
          "velocity": 0.7244094488188977,
          "duration": 0.06770830625001167
        },
        {
          "name": "A4",
          "midi": 69,
          "time": 129.57807316875076,
          "velocity": 0.7637795275590551,
          "duration": 0.07118052708332812
        },
        {
          "name": "A4",
          "midi": 69,
          "time": 129.78814252916743,
          "velocity": 0.7716535433070866,
          "duration": 0.0694444166666699
        },
        {
          "name": "D4",
          "midi": 62,
          "time": 129.99994800000076,
          "velocity": 0.8188976377952756,
          "duration": 0.09374996249999867
        },
        {
          "name": "A4",
          "midi": 69,
          "time": 129.99994800000076,
          "velocity": 0.6062992125984252,
          "duration": 0.08680552083333737
        },
        {
          "name": "D3",
          "midi": 50,
          "time": 129.99994800000076,
          "velocity": 0.8976377952755905,
          "duration": 0.17708326249999118
        },
        {
          "name": "D2",
          "midi": 38,
          "time": 129.99994800000076,
          "velocity": 0.9606299212598425,
          "duration": 0.15104160625000418
        },
        {
          "name": "A4",
          "midi": 69,
          "time": 130.21175347083408,
          "velocity": 0.5748031496062992,
          "duration": 0.08506941041665073
        },
        {
          "name": "D4",
          "midi": 62,
          "time": 130.21348958125074,
          "velocity": 0.7637795275590551,
          "duration": 0.08506941041665073
        },
        {
          "name": "A4",
          "midi": 69,
          "time": 130.42008672083406,
          "velocity": 0.6062992125984252,
          "duration": 0.08506941041665073
        },
        {
          "name": "D4",
          "midi": 62,
          "time": 130.42182283125072,
          "velocity": 0.7401574803149606,
          "duration": 0.08854163124999559
        },
        {
          "name": "A4",
          "midi": 69,
          "time": 130.63015608125073,
          "velocity": 0.6535433070866141,
          "duration": 0.07118052708332812
        },
        {
          "name": "D4",
          "midi": 62,
          "time": 130.6318921916674,
          "velocity": 0.7874015748031497,
          "duration": 0.08506941041667915
        },
        {
          "name": "D3",
          "midi": 50,
          "time": 130.83328100000074,
          "velocity": 0.8503937007874016,
          "duration": 0.14409716458334287
        },
        {
          "name": "D2",
          "midi": 38,
          "time": 130.83328100000074,
          "velocity": 0.9606299212598425,
          "duration": 0.1197916187500141
        },
        {
          "name": "A4",
          "midi": 69,
          "time": 130.83675322083408,
          "velocity": 0.7401574803149606,
          "duration": 0.0763888583333312
        },
        {
          "name": "D4",
          "midi": 62,
          "time": 130.83848933125074,
          "velocity": 0.8031496062992126,
          "duration": 0.08159718958333428
        },
        {
          "name": "D4",
          "midi": 62,
          "time": 131.0450864708341,
          "velocity": 0.7480314960629921,
          "duration": 0.0763888583333312
        },
        {
          "name": "A4",
          "midi": 69,
          "time": 131.0450864708341,
          "velocity": 0.6771653543307087,
          "duration": 0.06597219583332503
        },
        {
          "name": "A4",
          "midi": 69,
          "time": 131.25168361041742,
          "velocity": 0.7165354330708661,
          "duration": 0.06597219583332503
        },
        {
          "name": "D4",
          "midi": 62,
          "time": 131.25341972083407,
          "velocity": 0.7165354330708661,
          "duration": 0.07986107916667606
        },
        {
          "name": "A4",
          "midi": 69,
          "time": 131.45828075000074,
          "velocity": 0.6377952755905512,
          "duration": 0.06423608541666681
        },
        {
          "name": "D4",
          "midi": 62,
          "time": 131.4600168604174,
          "velocity": 0.7637795275590551,
          "duration": 0.08159718958333428
        },
        {
          "name": "A4",
          "midi": 69,
          "time": 131.66487788958406,
          "velocity": 0.7716535433070866,
          "duration": 0.06944441666664147
        },
        {
          "name": "D3",
          "midi": 50,
          "time": 131.66661400000072,
          "velocity": 0.7716535433070866,
          "duration": 0.166666599999985
        },
        {
          "name": "D2",
          "midi": 38,
          "time": 131.66661400000072,
          "velocity": 0.8661417322834646,
          "duration": 0.12673606041664698
        },
        {
          "name": "D4",
          "midi": 62,
          "time": 131.66835011041738,
          "velocity": 0.7716535433070866,
          "duration": 0.0833332999999925
        },
        {
          "name": "A4",
          "midi": 69,
          "time": 131.87321113958404,
          "velocity": 0.7637795275590551,
          "duration": 0.0763888583333312
        },
        {
          "name": "D4",
          "midi": 62,
          "time": 131.8766833604174,
          "velocity": 0.7874015748031497,
          "duration": 0.07812496874998942
        },
        {
          "name": "A4",
          "midi": 69,
          "time": 132.08154438958405,
          "velocity": 0.7401574803149606,
          "duration": 0.07118052708332812
        },
        {
          "name": "D4",
          "midi": 62,
          "time": 132.08675272083406,
          "velocity": 0.7637795275590551,
          "duration": 0.08159718958333428
        },
        {
          "name": "A4",
          "midi": 69,
          "time": 132.29161375000072,
          "velocity": 0.7716535433070866,
          "duration": 0.06770830625001167
        },
        {
          "name": "D4",
          "midi": 62,
          "time": 132.29508597083407,
          "velocity": 0.7874015748031497,
          "duration": 0.08159718958333428
        },
        {
          "name": "G2",
          "midi": 43,
          "time": 132.49994700000073,
          "velocity": 0.8661417322834646,
          "duration": 0.17187493125001652
        },
        {
          "name": "G1",
          "midi": 31,
          "time": 132.49994700000073,
          "velocity": 0.8818897637795275,
          "duration": 0.13715272291668157
        },
        {
          "name": "A4",
          "midi": 69,
          "time": 132.5016831104174,
          "velocity": 0.8031496062992126,
          "duration": 0.06770830625001167
        },
        {
          "name": "G4",
          "midi": 67,
          "time": 132.50515533125073,
          "velocity": 0.8818897637795275,
          "duration": 0.08680552083333737
        },
        {
          "name": "A4",
          "midi": 69,
          "time": 132.70828025000074,
          "velocity": 0.7637795275590551,
          "duration": 0.0694444166666699
        },
        {
          "name": "G4",
          "midi": 67,
          "time": 132.71175247083409,
          "velocity": 0.7716535433070866,
          "duration": 0.0763888583333312
        },
        {
          "name": "A4",
          "midi": 69,
          "time": 132.9148773895841,
          "velocity": 0.8346456692913385,
          "duration": 0.07118052708335654
        },
        {
          "name": "G4",
          "midi": 67,
          "time": 132.91834961041744,
          "velocity": 0.7874015748031497,
          "duration": 0.08333330000002093
        },
        {
          "name": "A4",
          "midi": 69,
          "time": 133.12321063958413,
          "velocity": 0.7480314960629921,
          "duration": 0.06770830625001167
        },
        {
          "name": "G4",
          "midi": 67,
          "time": 133.12841897083413,
          "velocity": 0.8188976377952756,
          "duration": 0.08159718958333428
        },
        {
          "name": "A4",
          "midi": 69,
          "time": 133.32980777916748,
          "velocity": 0.7874015748031497,
          "duration": 0.0694444166666699
        },
        {
          "name": "G2",
          "midi": 43,
          "time": 133.33328000000083,
          "velocity": 0.8503937007874016,
          "duration": 0.140624943749998
        },
        {
          "name": "G1",
          "midi": 31,
          "time": 133.33328000000083,
          "velocity": 0.8976377952755905,
          "duration": 0.13020828124999184
        },
        {
          "name": "G4",
          "midi": 67,
          "time": 133.33501611041748,
          "velocity": 0.8031496062992126,
          "duration": 0.0833332999999925
        },
        {
          "name": "A4",
          "midi": 69,
          "time": 133.5381410291675,
          "velocity": 0.7716535433070866,
          "duration": 0.0694444166666699
        },
        {
          "name": "G4",
          "midi": 67,
          "time": 133.5433493604175,
          "velocity": 0.8188976377952756,
          "duration": 0.07986107916667606
        },
        {
          "name": "A4",
          "midi": 69,
          "time": 133.74821038958416,
          "velocity": 0.7637795275590551,
          "duration": 0.06597219583332503
        },
        {
          "name": "G4",
          "midi": 67,
          "time": 133.75341872083416,
          "velocity": 0.8031496062992126,
          "duration": 0.08159718958333428
        },
        {
          "name": "A4",
          "midi": 69,
          "time": 133.95654363958417,
          "velocity": 0.7874015748031497,
          "duration": 0.0694444166666699
        },
        {
          "name": "G4",
          "midi": 67,
          "time": 133.96175197083417,
          "velocity": 0.8031496062992126,
          "duration": 0.0833332999999925
        },
        {
          "name": "A4",
          "midi": 69,
          "time": 134.16487688958418,
          "velocity": 0.7480314960629921,
          "duration": 0.0694444166666699
        },
        {
          "name": "G2",
          "midi": 43,
          "time": 134.16661300000084,
          "velocity": 0.8346456692913385,
          "duration": 0.14756938541665932
        },
        {
          "name": "G1",
          "midi": 31,
          "time": 134.16661300000084,
          "velocity": 0.8976377952755905,
          "duration": 0.12499994999998876
        },
        {
          "name": "G4",
          "midi": 67,
          "time": 134.17008522083418,
          "velocity": 0.7874015748031497,
          "duration": 0.07812496874998942
        },
        {
          "name": "A4",
          "midi": 69,
          "time": 134.37494625000082,
          "velocity": 0.7637795275590551,
          "duration": 0.06770830625001167
        },
        {
          "name": "G4",
          "midi": 67,
          "time": 134.37841847083416,
          "velocity": 0.8346456692913385,
          "duration": 0.07465274791667298
        },
        {
          "name": "A4",
          "midi": 69,
          "time": 134.58327950000083,
          "velocity": 0.7716535433070866,
          "duration": 0.0694444166666699
        },
        {
          "name": "G4",
          "midi": 67,
          "time": 134.58675172083417,
          "velocity": 0.7086614173228346,
          "duration": 0.07986107916664764
        },
        {
          "name": "A4",
          "midi": 69,
          "time": 134.7933488604175,
          "velocity": 0.7165354330708661,
          "duration": 0.06249997499998017
        },
        {
          "name": "G4",
          "midi": 67,
          "time": 134.79508497083415,
          "velocity": 0.8346456692913385,
          "duration": 0.08854163124999559
        },
        {
          "name": "D3",
          "midi": 50,
          "time": 134.99994600000082,
          "velocity": 0.8346456692913385,
          "duration": 0.17013882083330145
        },
        {
          "name": "D2",
          "midi": 38,
          "time": 134.99994600000082,
          "velocity": 0.8346456692913385,
          "duration": 0.11284717708329595
        },
        {
          "name": "A4",
          "midi": 69,
          "time": 135.00168211041748,
          "velocity": 0.7874015748031497,
          "duration": 0.06249997499998017
        },
        {
          "name": "D4",
          "midi": 62,
          "time": 135.00341822083413,
          "velocity": 0.8346456692913385,
          "duration": 0.08506941041665073
        },
        {
          "name": "A4",
          "midi": 69,
          "time": 135.21001536041746,
          "velocity": 0.7165354330708661,
          "duration": 0.06597219583332503
        },
        {
          "name": "D4",
          "midi": 62,
          "time": 135.21175147083412,
          "velocity": 0.7874015748031497,
          "duration": 0.07986107916667606
        },
        {
          "name": "A4",
          "midi": 69,
          "time": 135.41834861041747,
          "velocity": 0.7637795275590551,
          "duration": 0.0694444166666699
        },
        {
          "name": "D4",
          "midi": 62,
          "time": 135.42008472083413,
          "velocity": 0.7480314960629921,
          "duration": 0.08680552083333737
        },
        {
          "name": "A4",
          "midi": 69,
          "time": 135.62668186041748,
          "velocity": 0.7086614173228346,
          "duration": 0.06423608541666681
        },
        {
          "name": "D4",
          "midi": 62,
          "time": 135.63015408125082,
          "velocity": 0.8031496062992126,
          "duration": 0.07986107916664764
        },
        {
          "name": "D3",
          "midi": 50,
          "time": 135.8332790000008,
          "velocity": 0.8188976377952756,
          "duration": 0.1649304895833552
        },
        {
          "name": "D2",
          "midi": 38,
          "time": 135.8332790000008,
          "velocity": 0.9212598425196851,
          "duration": 0.1197916187500141
        },
        {
          "name": "A4",
          "midi": 69,
          "time": 135.83501511041746,
          "velocity": 0.7401574803149606,
          "duration": 0.06770830625001167
        },
        {
          "name": "D4",
          "midi": 62,
          "time": 135.8384873312508,
          "velocity": 0.7480314960629921,
          "duration": 0.07465274791667298
        },
        {
          "name": "A4",
          "midi": 69,
          "time": 136.0416122500008,
          "velocity": 0.7165354330708661,
          "duration": 0.06597219583335345
        },
        {
          "name": "D4",
          "midi": 62,
          "time": 136.04508447083415,
          "velocity": 0.7401574803149606,
          "duration": 0.08333330000002093
        },
        {
          "name": "A4",
          "midi": 69,
          "time": 136.2482093895842,
          "velocity": 0.7244094488188977,
          "duration": 0.0694444166666699
        },
        {
          "name": "D4",
          "midi": 62,
          "time": 136.2534177208342,
          "velocity": 0.7716535433070866,
          "duration": 0.07465274791667298
        },
        {
          "name": "A4",
          "midi": 69,
          "time": 136.4565426395842,
          "velocity": 0.7244094488188977,
          "duration": 0.06770830625001167
        },
        {
          "name": "D4",
          "midi": 62,
          "time": 136.4617509708342,
          "velocity": 0.8188976377952756,
          "duration": 0.08333330000002093
        },
        {
          "name": "A4",
          "midi": 69,
          "time": 136.66313977916755,
          "velocity": 0.7401574803149606,
          "duration": 0.06770830625001167
        },
        {
          "name": "D3",
          "midi": 50,
          "time": 136.6666120000009,
          "velocity": 0.7480314960629921,
          "duration": 0.18576381458333913
        },
        {
          "name": "D2",
          "midi": 38,
          "time": 136.6666120000009,
          "velocity": 0.8503937007874016,
          "duration": 0.10243051458334662
        },
        {
          "name": "D4",
          "midi": 62,
          "time": 136.67008422083424,
          "velocity": 0.7480314960629921,
          "duration": 0.0763888583333312
        },
        {
          "name": "A4",
          "midi": 69,
          "time": 136.8697369187509,
          "velocity": 0.7086614173228346,
          "duration": 0.07812496874998942
        },
        {
          "name": "D4",
          "midi": 62,
          "time": 136.87668136041756,
          "velocity": 0.7480314960629921,
          "duration": 0.07291663749998634
        },
        {
          "name": "A4",
          "midi": 69,
          "time": 137.07807016875088,
          "velocity": 0.7401574803149606,
          "duration": 0.0694444166666699
        },
        {
          "name": "D4",
          "midi": 62,
          "time": 137.08501461041755,
          "velocity": 0.7716535433070866,
          "duration": 0.07986107916667606
        },
        {
          "name": "A4",
          "midi": 69,
          "time": 137.28813952916755,
          "velocity": 0.7480314960629921,
          "duration": 0.0763888583333312
        },
        {
          "name": "D4",
          "midi": 62,
          "time": 137.29334786041755,
          "velocity": 0.7637795275590551,
          "duration": 0.0833332999999925
        },
        {
          "name": "A4",
          "midi": 69,
          "time": 137.49820888958422,
          "velocity": 0.7401574803149606,
          "duration": 0.07638885833330278
        },
        {
          "name": "G2",
          "midi": 43,
          "time": 137.49994500000088,
          "velocity": 0.8188976377952756,
          "duration": 0.1788193729166494
        },
        {
          "name": "G1",
          "midi": 31,
          "time": 137.49994500000088,
          "velocity": 0.8818897637795275,
          "duration": 0.14409716458331445
        },
        {
          "name": "G4",
          "midi": 67,
          "time": 137.50168111041754,
          "velocity": 0.8346456692913385,
          "duration": 0.08680552083330895
        },
        {
          "name": "A4",
          "midi": 69,
          "time": 137.7065421395842,
          "velocity": 0.7244094488188977,
          "duration": 0.0694444166666699
        },
        {
          "name": "G4",
          "midi": 67,
          "time": 137.70827825000086,
          "velocity": 0.8188976377952756,
          "duration": 0.08854163125002401
        },
        {
          "name": "A4",
          "midi": 69,
          "time": 137.9148753895842,
          "velocity": 0.7401574803149606,
          "duration": 0.07291663749998634
        },
        {
          "name": "G4",
          "midi": 67,
          "time": 137.91661150000087,
          "velocity": 0.7637795275590551,
          "duration": 0.09027774166665381
        },
        {
          "name": "G4",
          "midi": 67,
          "time": 138.1232086395842,
          "velocity": 0.7244094488188977,
          "duration": 0.08159718958333428
        },
        {
          "name": "A4",
          "midi": 69,
          "time": 138.1232086395842,
          "velocity": 0.7401574803149606,
          "duration": 0.0694444166666699
        },
        {
          "name": "G4",
          "midi": 67,
          "time": 138.3315418895842,
          "velocity": 0.7165354330708661,
          "duration": 0.0833332999999925
        },
        {
          "name": "A4",
          "midi": 69,
          "time": 138.3315418895842,
          "velocity": 0.7716535433070866,
          "duration": 0.06597219583332503
        },
        {
          "name": "G2",
          "midi": 43,
          "time": 138.33327800000086,
          "velocity": 0.8346456692913385,
          "duration": 0.16145826875001035
        },
        {
          "name": "G1",
          "midi": 31,
          "time": 138.33327800000086,
          "velocity": 0.9448818897637795,
          "duration": 0.11631939791666923
        },
        {
          "name": "A4",
          "midi": 69,
          "time": 138.53813902916752,
          "velocity": 0.7401574803149606,
          "duration": 0.0763888583333312
        },
        {
          "name": "G4",
          "midi": 67,
          "time": 138.53987513958418,
          "velocity": 0.7244094488188977,
          "duration": 0.09027774166668223
        },
        {
          "name": "A4",
          "midi": 69,
          "time": 138.7482083895842,
          "velocity": 0.7401574803149606,
          "duration": 0.07291663749998634
        },
        {
          "name": "G4",
          "midi": 67,
          "time": 138.74994450000085,
          "velocity": 0.7480314960629921,
          "duration": 0.09027774166665381
        },
        {
          "name": "A4",
          "midi": 69,
          "time": 138.95654163958417,
          "velocity": 0.7401574803149606,
          "duration": 0.07465274791664456
        },
        {
          "name": "G4",
          "midi": 67,
          "time": 138.95827775000083,
          "velocity": 0.7401574803149606,
          "duration": 0.08159718958330586
        },
        {
          "name": "A4",
          "midi": 69,
          "time": 139.16487488958413,
          "velocity": 0.7401574803149606,
          "duration": 0.08159718958333428
        },
        {
          "name": "G4",
          "midi": 67,
          "time": 139.16661100000078,
          "velocity": 0.8188976377952756,
          "duration": 0.08506941041667915
        },
        {
          "name": "G2",
          "midi": 43,
          "time": 139.16661100000078,
          "velocity": 0.8503937007874016,
          "duration": 0.14756938541668774
        },
        {
          "name": "G1",
          "midi": 31,
          "time": 139.16661100000078,
          "velocity": 0.9448818897637795,
          "duration": 0.13020828125002026
        },
        {
          "name": "G4",
          "midi": 67,
          "time": 139.3749442500008,
          "velocity": 0.7401574803149606,
          "duration": 0.08506941041667915
        },
        {
          "name": "A4",
          "midi": 69,
          "time": 139.3749442500008,
          "velocity": 0.7401574803149606,
          "duration": 0.0694444166666699
        },
        {
          "name": "G4",
          "midi": 67,
          "time": 139.5832775000008,
          "velocity": 0.7874015748031497,
          "duration": 0.07986107916667606
        },
        {
          "name": "A4",
          "midi": 69,
          "time": 139.5832775000008,
          "velocity": 0.7716535433070866,
          "duration": 0.0763888583333312
        },
        {
          "name": "G4",
          "midi": 67,
          "time": 139.7916107500008,
          "velocity": 0.8346456692913385,
          "duration": 0.08854163125002401
        },
        {
          "name": "A4",
          "midi": 69,
          "time": 139.7916107500008,
          "velocity": 0.7480314960629921,
          "duration": 0.06770830625001167
        },
        {
          "name": "D4",
          "midi": 62,
          "time": 139.99994400000085,
          "velocity": 0.7716535433070866,
          "duration": 0.08159718958333428
        },
        {
          "name": "A4",
          "midi": 69,
          "time": 139.99994400000085,
          "velocity": 0.7874015748031497,
          "duration": 0.06770830625001167
        },
        {
          "name": "D3",
          "midi": 50,
          "time": 139.99994400000085,
          "velocity": 0.8503937007874016,
          "duration": 0.15451382708334904
        },
        {
          "name": "D2",
          "midi": 38,
          "time": 139.99994400000085,
          "velocity": 0.7716535433070866,
          "duration": 0.10937495625000793
        },
        {
          "name": "D4",
          "midi": 62,
          "time": 140.20827725000086,
          "velocity": 0.7244094488188977,
          "duration": 0.0833332999999925
        },
        {
          "name": "A4",
          "midi": 69,
          "time": 140.20827725000086,
          "velocity": 0.7637795275590551,
          "duration": 0.0694444166666699
        },
        {
          "name": "D4",
          "midi": 62,
          "time": 140.41661050000084,
          "velocity": 0.7244094488188977,
          "duration": 0.09201385208334045
        },
        {
          "name": "A4",
          "midi": 69,
          "time": 140.41661050000084,
          "velocity": 0.8031496062992126,
          "duration": 0.06423608541666681
        },
        {
          "name": "A4",
          "midi": 69,
          "time": 140.62494375000085,
          "velocity": 0.8346456692913385,
          "duration": 0.07465274791664456
        },
        {
          "name": "D4",
          "midi": 62,
          "time": 140.6266798604175,
          "velocity": 0.7086614173228346,
          "duration": 0.08854163124999559
        },
        {
          "name": "A4",
          "midi": 69,
          "time": 140.83327700000083,
          "velocity": 0.7480314960629921,
          "duration": 0.07291663749998634
        },
        {
          "name": "D3",
          "midi": 50,
          "time": 140.83327700000083,
          "velocity": 0.8031496062992126,
          "duration": 0.14930549583331754
        },
        {
          "name": "D2",
          "midi": 38,
          "time": 140.83327700000083,
          "velocity": 0.8503937007874016,
          "duration": 0.11458328749998259
        },
        {
          "name": "D4",
          "midi": 62,
          "time": 140.8350131104175,
          "velocity": 0.7401574803149606,
          "duration": 0.09027774166665381
        },
        {
          "name": "A4",
          "midi": 69,
          "time": 141.03987413958416,
          "velocity": 0.7637795275590551,
          "duration": 0.06770830624998325
        },
        {
          "name": "D4",
          "midi": 62,
          "time": 141.04161025000082,
          "velocity": 0.6929133858267716,
          "duration": 0.09374996249999867
        },
        {
          "name": "A4",
          "midi": 69,
          "time": 141.24820738958414,
          "velocity": 0.8346456692913385,
          "duration": 0.06770830624998325
        },
        {
          "name": "D4",
          "midi": 62,
          "time": 141.2499435000008,
          "velocity": 0.7165354330708661,
          "duration": 0.09374996249999867
        },
        {
          "name": "A4",
          "midi": 69,
          "time": 141.45480452916746,
          "velocity": 0.7716535433070866,
          "duration": 0.0763888583333312
        },
        {
          "name": "D4",
          "midi": 62,
          "time": 141.4582767500008,
          "velocity": 0.7165354330708661,
          "duration": 0.08506941041665073
        },
        {
          "name": "A4",
          "midi": 69,
          "time": 141.66313777916747,
          "velocity": 0.7637795275590551,
          "duration": 0.0694444166666699
        },
        {
          "name": "D3",
          "midi": 50,
          "time": 141.66661000000082,
          "velocity": 0.8346456692913385,
          "duration": 0.166666599999985
        },
        {
          "name": "D2",
          "midi": 38,
          "time": 141.66661000000082,
          "velocity": 0.8818897637795275,
          "duration": 0.11805550833332745
        },
        {
          "name": "D4",
          "midi": 62,
          "time": 141.66834611041747,
          "velocity": 0.7480314960629921,
          "duration": 0.0954860729166569
        },
        {
          "name": "A4",
          "midi": 69,
          "time": 141.87147102916748,
          "velocity": 0.7480314960629921,
          "duration": 0.07465274791667298
        },
        {
          "name": "D4",
          "midi": 62,
          "time": 141.87667936041748,
          "velocity": 0.7401574803149606,
          "duration": 0.0833332999999925
        },
        {
          "name": "A4",
          "midi": 69,
          "time": 142.08154038958415,
          "velocity": 0.7637795275590551,
          "duration": 0.0694444166666699
        },
        {
          "name": "D4",
          "midi": 62,
          "time": 142.0850126104175,
          "velocity": 0.7480314960629921,
          "duration": 0.0833332999999925
        },
        {
          "name": "A4",
          "midi": 69,
          "time": 142.28987363958416,
          "velocity": 0.8031496062992126,
          "duration": 0.06597219583332503
        },
        {
          "name": "D4",
          "midi": 62,
          "time": 142.29508197083416,
          "velocity": 0.7716535433070866,
          "duration": 0.08506941041665073
        },
        {
          "name": "A4",
          "midi": 69,
          "time": 142.49820688958414,
          "velocity": 0.8188976377952756,
          "duration": 0.07118052708332812
        },
        {
          "name": "G2",
          "midi": 43,
          "time": 142.4999430000008,
          "velocity": 0.8503937007874016,
          "duration": 0.16666660000001343
        },
        {
          "name": "G1",
          "midi": 31,
          "time": 142.4999430000008,
          "velocity": 0.9448818897637795,
          "duration": 0.12847217083333362
        },
        {
          "name": "G4",
          "midi": 67,
          "time": 142.50341522083414,
          "velocity": 0.8346456692913385,
          "duration": 0.0833332999999925
        },
        {
          "name": "A4",
          "midi": 69,
          "time": 142.7082762500008,
          "velocity": 0.7716535433070866,
          "duration": 0.06423608541666681
        },
        {
          "name": "G4",
          "midi": 67,
          "time": 142.71174847083415,
          "velocity": 0.7637795275590551,
          "duration": 0.08506941041665073
        },
        {
          "name": "A4",
          "midi": 69,
          "time": 142.91487338958413,
          "velocity": 0.7874015748031497,
          "duration": 0.0694444166666699
        },
        {
          "name": "G4",
          "midi": 67,
          "time": 142.91834561041748,
          "velocity": 0.7716535433070866,
          "duration": 0.09374996249999867
        },
        {
          "name": "A4",
          "midi": 69,
          "time": 143.12320663958414,
          "velocity": 0.7716535433070866,
          "duration": 0.06597219583335345
        },
        {
          "name": "G4",
          "midi": 67,
          "time": 143.12667886041748,
          "velocity": 0.7165354330708661,
          "duration": 0.08854163124999559
        },
        {
          "name": "A4",
          "midi": 69,
          "time": 143.33153988958415,
          "velocity": 0.7874015748031497,
          "duration": 0.07118052708332812
        },
        {
          "name": "G2",
          "midi": 43,
          "time": 143.3332760000008,
          "velocity": 0.8503937007874016,
          "duration": 0.16840271041667165
        },
        {
          "name": "G1",
          "midi": 31,
          "time": 143.3332760000008,
          "velocity": 0.9606299212598425,
          "duration": 0.13715272291668157
        },
        {
          "name": "G4",
          "midi": 67,
          "time": 143.33501211041747,
          "velocity": 0.7401574803149606,
          "duration": 0.09027774166668223
        },
        {
          "name": "A4",
          "midi": 69,
          "time": 143.53813702916747,
          "velocity": 0.6771653543307087,
          "duration": 0.07118052708332812
        },
        {
          "name": "G4",
          "midi": 67,
          "time": 143.54334536041748,
          "velocity": 0.7165354330708661,
          "duration": 0.08854163124999559
        },
        {
          "name": "A4",
          "midi": 69,
          "time": 143.74647027916748,
          "velocity": 0.7480314960629921,
          "duration": 0.07118052708332812
        },
        {
          "name": "G4",
          "midi": 67,
          "time": 143.75341472083414,
          "velocity": 0.7244094488188977,
          "duration": 0.08680552083333737
        },
        {
          "name": "A4",
          "midi": 69,
          "time": 143.9548035291675,
          "velocity": 0.7401574803149606,
          "duration": 0.07291663750001476
        },
        {
          "name": "G4",
          "midi": 67,
          "time": 143.9600118604175,
          "velocity": 0.7716535433070866,
          "duration": 0.07465274791667298
        },
        {
          "name": "A4",
          "midi": 69,
          "time": 144.1631367791675,
          "velocity": 0.7874015748031497,
          "duration": 0.06770830625001167
        },
        {
          "name": "G2",
          "midi": 43,
          "time": 144.16660900000085,
          "velocity": 0.8503937007874016,
          "duration": 0.17187493125001652
        },
        {
          "name": "G1",
          "midi": 31,
          "time": 144.16660900000085,
          "velocity": 0.8661417322834646,
          "duration": 0.13194439166667848
        },
        {
          "name": "G4",
          "midi": 67,
          "time": 144.1683451104175,
          "velocity": 0.7874015748031497,
          "duration": 0.07812496875001784
        },
        {
          "name": "A4",
          "midi": 69,
          "time": 144.37147002916754,
          "velocity": 0.7637795275590551,
          "duration": 0.06770830625001167
        },
        {
          "name": "G4",
          "midi": 67,
          "time": 144.37667836041754,
          "velocity": 0.8031496062992126,
          "duration": 0.07986107916667606
        },
        {
          "name": "A4",
          "midi": 69,
          "time": 144.5815393895842,
          "velocity": 0.7480314960629921,
          "duration": 0.07465274791667298
        },
        {
          "name": "G4",
          "midi": 67,
          "time": 144.5867477208342,
          "velocity": 0.7401574803149606,
          "duration": 0.07812496874998942
        },
        {
          "name": "A4",
          "midi": 69,
          "time": 144.79160875000088,
          "velocity": 0.7637795275590551,
          "duration": 0.0694444166666699
        },
        {
          "name": "G4",
          "midi": 67,
          "time": 144.79334486041753,
          "velocity": 0.8031496062992126,
          "duration": 0.09374996249999867
        },
        {
          "name": "D4",
          "midi": 62,
          "time": 144.99994200000086,
          "velocity": 0.7716535433070866,
          "duration": 0.08680552083330895
        },
        {
          "name": "D3",
          "midi": 50,
          "time": 144.99994200000086,
          "velocity": 0.8346456692913385,
          "duration": 0.19444436666663023
        },
        {
          "name": "D2",
          "midi": 38,
          "time": 144.99994200000086,
          "velocity": 0.8188976377952756,
          "duration": 0.1215277291666439
        },
        {
          "name": "A4",
          "midi": 69,
          "time": 145.00167811041752,
          "velocity": 0.7716535433070866,
          "duration": 0.07812496874998942
        },
        {
          "name": "D4",
          "midi": 62,
          "time": 145.2082752500008,
          "velocity": 0.6850393700787402,
          "duration": 0.08854163124999559
        },
        {
          "name": "A4",
          "midi": 69,
          "time": 145.21174747083415,
          "velocity": 0.7401574803149606,
          "duration": 0.04340276041665447
        },
        {
          "name": "D4",
          "midi": 62,
          "time": 145.41834461041748,
          "velocity": 0.7165354330708661,
          "duration": 0.0954860729166569
        },
        {
          "name": "A4",
          "midi": 69,
          "time": 145.42008072083414,
          "velocity": 0.7874015748031497,
          "duration": 0.07291663749998634
        },
        {
          "name": "D4",
          "midi": 62,
          "time": 145.62841397083415,
          "velocity": 0.7165354330708661,
          "duration": 0.08680552083333737
        },
        {
          "name": "A4",
          "midi": 69,
          "time": 145.62841397083415,
          "velocity": 0.7480314960629921,
          "duration": 0.07118052708332812
        },
        {
          "name": "D3",
          "midi": 50,
          "time": 145.8332750000008,
          "velocity": 0.7480314960629921,
          "duration": 0.218749912499959
        },
        {
          "name": "D2",
          "midi": 38,
          "time": 145.8332750000008,
          "velocity": 0.8503937007874016,
          "duration": 0.13368050208330828
        },
        {
          "name": "D4",
          "midi": 62,
          "time": 145.83501111041747,
          "velocity": 0.7165354330708661,
          "duration": 0.0954860729166569
        },
        {
          "name": "A4",
          "midi": 69,
          "time": 145.83674722083413,
          "velocity": 0.7637795275590551,
          "duration": 0.06597219583332503
        },
        {
          "name": "A4",
          "midi": 69,
          "time": 146.0450804708341,
          "velocity": 0.7637795275590551,
          "duration": 0.06076386458332195
        },
        {
          "name": "D4",
          "midi": 62,
          "time": 146.04681658125077,
          "velocity": 0.7086614173228346,
          "duration": 0.09027774166665381
        },
        {
          "name": "A4",
          "midi": 69,
          "time": 146.25167761041743,
          "velocity": 0.7716535433070866,
          "duration": 0.0694444166666699
        },
        {
          "name": "D4",
          "midi": 62,
          "time": 146.2534137208341,
          "velocity": 0.6692913385826772,
          "duration": 0.09027774166668223
        },
        {
          "name": "A4",
          "midi": 69,
          "time": 146.46001086041744,
          "velocity": 0.6771653543307087,
          "duration": 0.06770830625001167
        },
        {
          "name": "D4",
          "midi": 62,
          "time": 146.46348308125079,
          "velocity": 0.6614173228346457,
          "duration": 0.08159718958333428
        },
        {
          "name": "A4",
          "midi": 69,
          "time": 146.6666080000008,
          "velocity": 0.7165354330708661,
          "duration": 0.07118052708335654
        },
        {
          "name": "D3",
          "midi": 50,
          "time": 146.6666080000008,
          "velocity": 0.8188976377952756,
          "duration": 0.1597221583333237
        },
        {
          "name": "D2",
          "midi": 38,
          "time": 146.6666080000008,
          "velocity": 0.8661417322834646,
          "duration": 0.12326383958333054
        },
        {
          "name": "D4",
          "midi": 62,
          "time": 146.67008022083414,
          "velocity": 0.6771653543307087,
          "duration": 0.09374996249999867
        },
        {
          "name": "A4",
          "midi": 69,
          "time": 146.87494125000077,
          "velocity": 0.7165354330708661,
          "duration": 0.07986107916667606
        },
        {
          "name": "D4",
          "midi": 62,
          "time": 146.87841347083412,
          "velocity": 0.6377952755905512,
          "duration": 0.08680552083333737
        },
        {
          "name": "A4",
          "midi": 69,
          "time": 147.08327450000078,
          "velocity": 0.7244094488188977,
          "duration": 0.07291663750001476
        },
        {
          "name": "D4",
          "midi": 62,
          "time": 147.0884828312508,
          "velocity": 0.6692913385826772,
          "duration": 0.09548607291668532
        },
        {
          "name": "A4",
          "midi": 69,
          "time": 147.28987163958413,
          "velocity": 0.6614173228346457,
          "duration": 0.07465274791667298
        },
        {
          "name": "D4",
          "midi": 62,
          "time": 147.29507997083414,
          "velocity": 0.6535433070866141,
          "duration": 0.09374996249999867
        },
        {
          "name": "A4",
          "midi": 69,
          "time": 147.4999410000008,
          "velocity": 0.7637795275590551,
          "duration": 0.07291663749998634
        },
        {
          "name": "A2",
          "midi": 45,
          "time": 147.4999410000008,
          "velocity": 0.7874015748031497,
          "duration": 0.16840271041664323
        },
        {
          "name": "A1",
          "midi": 33,
          "time": 147.4999410000008,
          "velocity": 0.9212598425196851,
          "duration": 0.14409716458331445
        },
        {
          "name": "A4",
          "midi": 69,
          "time": 147.70827425000078,
          "velocity": 0.7244094488188977,
          "duration": 0.07291663749998634
        },
        {
          "name": "A4",
          "midi": 69,
          "time": 147.9148713895841,
          "velocity": 0.7244094488188977,
          "duration": 0.07465274791667298
        },
        {
          "name": "A4",
          "midi": 69,
          "time": 148.12320463958412,
          "velocity": 0.6614173228346457,
          "duration": 0.07118052708332812
        },
        {
          "name": "A4",
          "midi": 69,
          "time": 148.3315378895841,
          "velocity": 0.7480314960629921,
          "duration": 0.07291663749998634
        },
        {
          "name": "A2",
          "midi": 45,
          "time": 148.33327400000076,
          "velocity": 0.8503937007874016,
          "duration": 0.16145826874998193
        },
        {
          "name": "A1",
          "midi": 33,
          "time": 148.33327400000076,
          "velocity": 0.9606299212598425,
          "duration": 0.1649304895833268
        },
        {
          "name": "A4",
          "midi": 69,
          "time": 148.53987113958408,
          "velocity": 0.7637795275590551,
          "duration": 0.07291663749998634
        },
        {
          "name": "A4",
          "midi": 69,
          "time": 148.74820438958406,
          "velocity": 0.6929133858267716,
          "duration": 0.06423608541666681
        },
        {
          "name": "A4",
          "midi": 69,
          "time": 148.95480152916738,
          "velocity": 0.6299212598425197,
          "duration": 0.0763888583333312
        },
        {
          "name": "A4",
          "midi": 69,
          "time": 149.1631347791674,
          "velocity": 0.5826771653543307,
          "duration": 0.07465274791667298
        },
        {
          "name": "A2",
          "midi": 45,
          "time": 149.16660700000074,
          "velocity": 0.8976377952755905,
          "duration": 0.14236105416665623
        },
        {
          "name": "A1",
          "midi": 33,
          "time": 149.16660700000074,
          "velocity": 1,
          "duration": 0.13194439166665006
        },
        {
          "name": "A4",
          "midi": 69,
          "time": 149.36973191875072,
          "velocity": 0.5826771653543307,
          "duration": 0.06770830625001167
        },
        {
          "name": "A4",
          "midi": 69,
          "time": 149.57806516875073,
          "velocity": 0.5984251968503937,
          "duration": 0.07118052708332812
        },
        {
          "name": "A4",
          "midi": 69,
          "time": 149.7881345291674,
          "velocity": 0.5826771653543307,
          "duration": 0.0694444166666699
        },
        {
          "name": "D3",
          "midi": 50,
          "time": 149.99994000000072,
          "velocity": 0.7244094488188977,
          "duration": 0.14409716458334287
        },
        {
          "name": "A4",
          "midi": 69,
          "time": 150.00688444166738,
          "velocity": 0.6614173228346457,
          "duration": 0.1458332750000011
        },
        {
          "name": "D2",
          "midi": 38,
          "time": 150.00688444166738,
          "velocity": 0.7874015748031497,
          "duration": 0.1336805020833367
        },
        {
          "name": "D4",
          "midi": 62,
          "time": 150.00862055208404,
          "velocity": 0.6299212598425197,
          "duration": 0.1527777166666624
        },
        {
          "name": "D4",
          "midi": 62,
          "time": 150.42355094166737,
          "velocity": 0.5511811023622047,
          "duration": 0.10416662499997642
        },
        {
          "name": "A4",
          "midi": 69,
          "time": 150.42355094166737,
          "velocity": 0.5826771653543307,
          "duration": 0.09027774166665381
        },
        {
          "name": "D4",
          "midi": 62,
          "time": 150.6301480812507,
          "velocity": 0.5039370078740157,
          "duration": 0.09027774166668223
        },
        {
          "name": "A4",
          "midi": 69,
          "time": 150.6301480812507,
          "velocity": 0.5433070866141733,
          "duration": 0.07465274791667298
        },
        {
          "name": "D2",
          "midi": 38,
          "time": 150.81417578541738,
          "velocity": 0.6535433070866141,
          "duration": 0.0954860729166569
        },
        {
          "name": "D3",
          "midi": 50,
          "time": 150.82112022708404,
          "velocity": 0.5511811023622047,
          "duration": 0.07986107916667606
        },
        {
          "name": "A4",
          "midi": 69,
          "time": 150.83674522083405,
          "velocity": 0.6377952755905512,
          "duration": 0.0954860729166569
        },
        {
          "name": "D4",
          "midi": 62,
          "time": 150.8384813312507,
          "velocity": 0.5905511811023622,
          "duration": 0.09722218333334354
        },
        {
          "name": "D4",
          "midi": 62,
          "time": 151.25341172083404,
          "velocity": 0.5433070866141733,
          "duration": 0.10069440416665998
        },
        {
          "name": "A4",
          "midi": 69,
          "time": 151.25341172083404,
          "velocity": 0.5748031496062992,
          "duration": 0.0833332999999925
        },
        {
          "name": "D4",
          "midi": 62,
          "time": 151.46174497083402,
          "velocity": 0.4645669291338583,
          "duration": 0.08854163125002401
        },
        {
          "name": "A4",
          "midi": 69,
          "time": 151.46521719166736,
          "velocity": 0.5196850393700787,
          "duration": 0.06770830625001167
        },
        {
          "name": "D2",
          "midi": 38,
          "time": 151.63709212291738,
          "velocity": 0.6614173228346457,
          "duration": 0.10243051458334662
        },
        {
          "name": "D3",
          "midi": 50,
          "time": 151.64230045416738,
          "velocity": 0.6141732283464567,
          "duration": 0.09374996249999867
        },
        {
          "name": "A4",
          "midi": 69,
          "time": 151.67007822083406,
          "velocity": 0.4881889763779528,
          "duration": 0.0954860729166569
        },
        {
          "name": "D4",
          "midi": 62,
          "time": 151.67528655208406,
          "velocity": 0.5433070866141733,
          "duration": 0.07812496874998942
        },
        {
          "name": "A4",
          "midi": 69,
          "time": 152.08674472083405,
          "velocity": 0.5826771653543307,
          "duration": 0.10590273541669148
        },
        {
          "name": "D4",
          "midi": 62,
          "time": 152.0902169416674,
          "velocity": 0.5511811023622047,
          "duration": 0.11111106666666615
        },
        {
          "name": "D2",
          "midi": 38,
          "time": 152.49820288958406,
          "velocity": 0.6535433070866141,
          "duration": 0.12326383958333054
        },
        {
          "name": "A4",
          "midi": 69,
          "time": 152.49993900000072,
          "velocity": 0.6535433070866141,
          "duration": 0.1197916187500141
        },
        {
          "name": "D4",
          "midi": 62,
          "time": 152.50341122083407,
          "velocity": 0.6141732283464567,
          "duration": 0.11284717708332437
        },
        {
          "name": "D3",
          "midi": 50,
          "time": 152.51556399375073,
          "velocity": 0.6929133858267716,
          "duration": 0.11111106666666615
        },
        {
          "name": "D4",
          "midi": 62,
          "time": 152.9183416104174,
          "velocity": 0.5354330708661418,
          "duration": 0.08854163124999559
        },
        {
          "name": "A4",
          "midi": 69,
          "time": 152.9183416104174,
          "velocity": 0.5590551181102362,
          "duration": 0.07986107916667606
        },
        {
          "name": "A4",
          "midi": 69,
          "time": 153.12320263958406,
          "velocity": 0.5511811023622047,
          "duration": 0.08506941041665073
        },
        {
          "name": "D4",
          "midi": 62,
          "time": 153.12493875000072,
          "velocity": 0.5039370078740157,
          "duration": 0.08680552083333737
        },
        {
          "name": "D3",
          "midi": 50,
          "time": 153.32111922708407,
          "velocity": 0.7165354330708661,
          "duration": 0.08680552083330895
        },
        {
          "name": "D2",
          "midi": 38,
          "time": 153.3245914479174,
          "velocity": 0.7874015748031497,
          "duration": 0.08680552083330895
        },
        {
          "name": "A4",
          "midi": 69,
          "time": 153.33327200000073,
          "velocity": 0.5826771653543307,
          "duration": 0.09722218333331512
        },
        {
          "name": "D4",
          "midi": 62,
          "time": 153.3350081104174,
          "velocity": 0.5669291338582677,
          "duration": 0.09027774166665381
        },
        {
          "name": "A4",
          "midi": 69,
          "time": 153.75167461041738,
          "velocity": 0.5196850393700787,
          "duration": 0.08854163124999559
        },
        {
          "name": "D4",
          "midi": 62,
          "time": 153.75341072083404,
          "velocity": 0.4881889763779528,
          "duration": 0.09027774166668223
        },
        {
          "name": "A4",
          "midi": 69,
          "time": 153.9600078604174,
          "velocity": 0.4881889763779528,
          "duration": 0.07291663750001476
        },
        {
          "name": "D4",
          "midi": 62,
          "time": 153.96174397083405,
          "velocity": 0.4645669291338583,
          "duration": 0.06770830625001167
        },
        {
          "name": "D2",
          "midi": 38,
          "time": 154.15445222708408,
          "velocity": 0.7086614173228346,
          "duration": 0.08854163124996717
        },
        {
          "name": "D3",
          "midi": 50,
          "time": 154.1631327791674,
          "velocity": 0.6692913385826772,
          "duration": 0.08159718958330586
        },
        {
          "name": "A4",
          "midi": 69,
          "time": 154.1683411104174,
          "velocity": 0.5669291338582677,
          "duration": 0.09722218333331512
        },
        {
          "name": "D4",
          "midi": 62,
          "time": 154.17007722083406,
          "velocity": 0.5196850393700787,
          "duration": 0.0954860729166569
        },
        {
          "name": "A4",
          "midi": 69,
          "time": 154.58674372083405,
          "velocity": 0.5905511811023622,
          "duration": 0.10243051458334662
        },
        {
          "name": "D4",
          "midi": 62,
          "time": 154.5902159416674,
          "velocity": 0.5354330708661418,
          "duration": 0.10243051458334662
        },
        {
          "name": "A4",
          "midi": 69,
          "time": 155.00514633125073,
          "velocity": 0.6377952755905512,
          "duration": 0.11805550833332745
        },
        {
          "name": "D2",
          "midi": 38,
          "time": 155.00514633125073,
          "velocity": 0.7165354330708661,
          "duration": 0.09027774166665381
        },
        {
          "name": "D3",
          "midi": 50,
          "time": 155.00514633125073,
          "velocity": 0.6299212598425197,
          "duration": 0.07812496874998942
        },
        {
          "name": "D4",
          "midi": 62,
          "time": 155.01035466250073,
          "velocity": 0.5748031496062992,
          "duration": 0.11805550833332745
        },
        {
          "name": "A4",
          "midi": 69,
          "time": 155.40966005833405,
          "velocity": 0.5354330708661418,
          "duration": 0.09374996249999867
        },
        {
          "name": "D4",
          "midi": 62,
          "time": 155.4131322791674,
          "velocity": 0.5196850393700787,
          "duration": 0.09201385208331203
        },
        {
          "name": "D4",
          "midi": 62,
          "time": 155.61972941875072,
          "velocity": 0.5118110236220472,
          "duration": 0.1024305145833182
        },
        {
          "name": "A4",
          "midi": 69,
          "time": 155.61972941875072,
          "velocity": 0.5511811023622047,
          "duration": 0.0954860729166569
        },
        {
          "name": "D2",
          "midi": 38,
          "time": 155.81070156458404,
          "velocity": 0.7086614173228346,
          "duration": 0.10416662499997642
        },
        {
          "name": "D3",
          "midi": 50,
          "time": 155.81590989583404,
          "velocity": 0.6535433070866141,
          "duration": 0.08854163124996717
        },
        {
          "name": "A4",
          "midi": 69,
          "time": 155.82459044791736,
          "velocity": 0.5669291338582677,
          "duration": 0.10763884583332128
        },
        {
          "name": "D4",
          "midi": 62,
          "time": 155.82632655833402,
          "velocity": 0.5354330708661418,
          "duration": 0.10069440416665998
        },
        {
          "name": "A4",
          "midi": 69,
          "time": 156.248201389584,
          "velocity": 0.5196850393700787,
          "duration": 0.09722218333334354
        },
        {
          "name": "D4",
          "midi": 62,
          "time": 156.25340972083401,
          "velocity": 0.47244094488188976,
          "duration": 0.09201385208334045
        },
        {
          "name": "A4",
          "midi": 69,
          "time": 156.46174297083402,
          "velocity": 0.5354330708661418,
          "duration": 0.1024305145833182
        },
        {
          "name": "D4",
          "midi": 62,
          "time": 156.46347908125068,
          "velocity": 0.47244094488188976,
          "duration": 0.09374996249999867
        },
        {
          "name": "D2",
          "midi": 38,
          "time": 156.633617902084,
          "velocity": 0.6929133858267716,
          "duration": 0.10416662500000484
        },
        {
          "name": "D3",
          "midi": 50,
          "time": 156.63709012291736,
          "velocity": 0.6692913385826772,
          "duration": 0.09027774166665381
        },
        {
          "name": "A4",
          "midi": 69,
          "time": 156.6666040000007,
          "velocity": 0.5748031496062992,
          "duration": 0.1093749562499795
        },
        {
          "name": "D4",
          "midi": 62,
          "time": 156.66834011041735,
          "velocity": 0.5275590551181102,
          "duration": 0.10069440416665998
        },
        {
          "name": "A4",
          "midi": 69,
          "time": 157.08847883125065,
          "velocity": 0.5748031496062992,
          "duration": 0.10937495625000793
        },
        {
          "name": "D4",
          "midi": 62,
          "time": 157.091951052084,
          "velocity": 0.5354330708661418,
          "duration": 0.10069440416665998
        },
        {
          "name": "G4",
          "midi": 67,
          "time": 157.49820088958398,
          "velocity": 0.6771653543307087,
          "duration": 0.11284717708332437
        },
        {
          "name": "C4",
          "midi": 60,
          "time": 157.49993700000064,
          "velocity": 0.6220472440944882,
          "duration": 0.11631939791666923
        },
        {
          "name": "C3",
          "midi": 48,
          "time": 157.503409220834,
          "velocity": 0.6771653543307087,
          "duration": 0.09027774166665381
        },
        {
          "name": "C2",
          "midi": 36,
          "time": 157.50514533125065,
          "velocity": 0.8031496062992126,
          "duration": 0.0833332999999925
        },
        {
          "name": "C4",
          "midi": 60,
          "time": 157.90965905833397,
          "velocity": 0.5354330708661418,
          "duration": 0.10069440416665998
        },
        {
          "name": "G4",
          "midi": 67,
          "time": 157.90965905833397,
          "velocity": 0.5511811023622047,
          "duration": 0.0763888583333312
        },
        {
          "name": "C4",
          "midi": 60,
          "time": 158.1162561979173,
          "velocity": 0.49606299212598426,
          "duration": 0.09722218333334354
        },
        {
          "name": "G4",
          "midi": 67,
          "time": 158.1162561979173,
          "velocity": 0.5354330708661418,
          "duration": 0.08680552083333737
        },
        {
          "name": "G4",
          "midi": 67,
          "time": 158.3245894479173,
          "velocity": 0.6299212598425197,
          "duration": 0.09722218333331512
        },
        {
          "name": "C4",
          "midi": 60,
          "time": 158.32632555833396,
          "velocity": 0.5354330708661418,
          "duration": 0.08680552083333737
        },
        {
          "name": "C2",
          "midi": 36,
          "time": 158.33327000000062,
          "velocity": 0.7480314960629921,
          "duration": 0.1024305145833182
        },
        {
          "name": "C3",
          "midi": 48,
          "time": 158.3454227729173,
          "velocity": 0.6220472440944882,
          "duration": 0.0833332999999925
        },
        {
          "name": "C4",
          "midi": 60,
          "time": 158.7447281687506,
          "velocity": 0.5039370078740157,
          "duration": 0.09027774166668223
        },
        {
          "name": "G4",
          "midi": 67,
          "time": 158.7447281687506,
          "velocity": 0.5511811023622047,
          "duration": 0.07986107916667606
        },
        {
          "name": "C4",
          "midi": 60,
          "time": 158.9547975291673,
          "velocity": 0.47244094488188976,
          "duration": 0.08680552083333737
        },
        {
          "name": "G4",
          "midi": 67,
          "time": 158.9547975291673,
          "velocity": 0.5196850393700787,
          "duration": 0.07986107916667606
        },
        {
          "name": "G4",
          "midi": 67,
          "time": 159.16139466875066,
          "velocity": 0.5748031496062992,
          "duration": 0.0972221833332867
        },
        {
          "name": "C4",
          "midi": 60,
          "time": 159.16313077916732,
          "velocity": 0.4881889763779528,
          "duration": 0.08854163124996717
        },
        {
          "name": "C2",
          "midi": 36,
          "time": 159.18222799375064,
          "velocity": 0.6614173228346457,
          "duration": 0.23958323749997135
        },
        {
          "name": "C3",
          "midi": 48,
          "time": 159.19090854583396,
          "velocity": 0.6299212598425197,
          "duration": 0.16145826874998193
        },
        {
          "name": "G4",
          "midi": 67,
          "time": 159.57632505833394,
          "velocity": 0.5196850393700787,
          "duration": 0.09895829375000176
        },
        {
          "name": "C4",
          "midi": 60,
          "time": 159.5780611687506,
          "velocity": 0.4645669291338583,
          "duration": 0.10416662500000484
        },
        {
          "name": "F3",
          "midi": 53,
          "time": 159.9999360000006,
          "velocity": 0.7244094488188977,
          "duration": 0.14409716458334287
        },
        {
          "name": "C5",
          "midi": 72,
          "time": 160.00688044166725,
          "velocity": 0.6614173228346457,
          "duration": 0.1458332750000011
        },
        {
          "name": "F2",
          "midi": 41,
          "time": 160.00688044166725,
          "velocity": 0.7874015748031497,
          "duration": 0.1336805020833367
        },
        {
          "name": "F4",
          "midi": 65,
          "time": 160.0086165520839,
          "velocity": 0.6299212598425197,
          "duration": 0.1527777166666624
        },
        {
          "name": "F4",
          "midi": 65,
          "time": 160.42354694166724,
          "velocity": 0.5511811023622047,
          "duration": 0.10416662499997642
        },
        {
          "name": "C5",
          "midi": 72,
          "time": 160.42354694166724,
          "velocity": 0.5826771653543307,
          "duration": 0.09027774166665381
        },
        {
          "name": "F4",
          "midi": 65,
          "time": 160.63014408125056,
          "velocity": 0.5039370078740157,
          "duration": 0.09027774166668223
        },
        {
          "name": "C5",
          "midi": 72,
          "time": 160.63014408125056,
          "velocity": 0.5433070866141733,
          "duration": 0.07465274791667298
        },
        {
          "name": "C5",
          "midi": 72,
          "time": 160.83674122083391,
          "velocity": 0.6377952755905512,
          "duration": 0.0954860729166569
        },
        {
          "name": "F4",
          "midi": 65,
          "time": 160.83847733125057,
          "velocity": 0.5905511811023622,
          "duration": 0.09722218333334354
        },
        {
          "name": "F2",
          "midi": 41,
          "time": 160.8627828770839,
          "velocity": 0.6377952755905512,
          "duration": 0.15624993750000726
        },
        {
          "name": "F3",
          "midi": 53,
          "time": 160.86451898750056,
          "velocity": 0.5748031496062992,
          "duration": 0.13541661250002335
        },
        {
          "name": "F4",
          "midi": 65,
          "time": 161.2534077208339,
          "velocity": 0.5433070866141733,
          "duration": 0.10069440416665998
        },
        {
          "name": "C5",
          "midi": 72,
          "time": 161.2534077208339,
          "velocity": 0.5748031496062992,
          "duration": 0.0833332999999925
        },
        {
          "name": "F4",
          "midi": 65,
          "time": 161.4617409708339,
          "velocity": 0.4645669291338583,
          "duration": 0.08854163125002401
        },
        {
          "name": "C5",
          "midi": 72,
          "time": 161.46521319166723,
          "velocity": 0.5196850393700787,
          "duration": 0.06770830625001167
        },
        {
          "name": "C5",
          "midi": 72,
          "time": 161.67007422083392,
          "velocity": 0.4881889763779528,
          "duration": 0.09548607291668532
        },
        {
          "name": "F4",
          "midi": 65,
          "time": 161.67528255208393,
          "velocity": 0.5433070866141733,
          "duration": 0.07812496875001784
        },
        {
          "name": "F2",
          "midi": 41,
          "time": 161.7134769812506,
          "velocity": 0.7480314960629921,
          "duration": 0.1458332750000011
        },
        {
          "name": "F3",
          "midi": 53,
          "time": 161.7134769812506,
          "velocity": 0.7086614173228346,
          "duration": 0.11284717708332437
        },
        {
          "name": "C5",
          "midi": 72,
          "time": 162.08674072083394,
          "velocity": 0.5826771653543307,
          "duration": 0.10590273541669148
        },
        {
          "name": "F4",
          "midi": 65,
          "time": 162.0902129416673,
          "velocity": 0.5511811023622047,
          "duration": 0.11111106666666615
        },
        {
          "name": "G4",
          "midi": 67,
          "time": 162.49819888958396,
          "velocity": 0.6771653543307087,
          "duration": 0.11284717708332437
        },
        {
          "name": "C4",
          "midi": 60,
          "time": 162.49993500000062,
          "velocity": 0.6220472440944882,
          "duration": 0.11631939791666923
        },
        {
          "name": "C3",
          "midi": 48,
          "time": 162.50340722083396,
          "velocity": 0.6771653543307087,
          "duration": 0.09027774166665381
        },
        {
          "name": "C2",
          "midi": 36,
          "time": 162.50514333125062,
          "velocity": 0.8031496062992126,
          "duration": 0.0833332999999925
        },
        {
          "name": "C4",
          "midi": 60,
          "time": 162.90965705833395,
          "velocity": 0.5354330708661418,
          "duration": 0.10069440416665998
        },
        {
          "name": "G4",
          "midi": 67,
          "time": 162.90965705833395,
          "velocity": 0.5511811023622047,
          "duration": 0.0763888583333312
        },
        {
          "name": "C4",
          "midi": 60,
          "time": 163.11625419791727,
          "velocity": 0.49606299212598426,
          "duration": 0.09722218333334354
        },
        {
          "name": "G4",
          "midi": 67,
          "time": 163.11625419791727,
          "velocity": 0.5354330708661418,
          "duration": 0.08680552083333737
        },
        {
          "name": "G4",
          "midi": 67,
          "time": 163.32458744791728,
          "velocity": 0.6299212598425197,
          "duration": 0.09722218333334354
        },
        {
          "name": "C4",
          "midi": 60,
          "time": 163.32632355833394,
          "velocity": 0.5354330708661418,
          "duration": 0.08680552083336579
        },
        {
          "name": "C3",
          "midi": 48,
          "time": 163.34715688333395,
          "velocity": 0.5748031496062992,
          "duration": 0.13194439166667848
        },
        {
          "name": "C2",
          "midi": 36,
          "time": 163.3506291041673,
          "velocity": 0.5905511811023622,
          "duration": 0.18055548333333604
        },
        {
          "name": "C4",
          "midi": 60,
          "time": 163.74472616875065,
          "velocity": 0.5039370078740157,
          "duration": 0.09027774166668223
        },
        {
          "name": "G4",
          "midi": 67,
          "time": 163.74472616875065,
          "velocity": 0.5511811023622047,
          "duration": 0.07986107916667606
        },
        {
          "name": "C4",
          "midi": 60,
          "time": 163.95479552916734,
          "velocity": 0.47244094488188976,
          "duration": 0.08680552083333737
        },
        {
          "name": "G4",
          "midi": 67,
          "time": 163.95479552916734,
          "velocity": 0.5196850393700787,
          "duration": 0.07986107916667606
        },
        {
          "name": "G4",
          "midi": 67,
          "time": 164.1613926687507,
          "velocity": 0.5748031496062992,
          "duration": 0.09722218333334354
        },
        {
          "name": "C4",
          "midi": 60,
          "time": 164.16312877916735,
          "velocity": 0.4881889763779528,
          "duration": 0.08854163125002401
        },
        {
          "name": "C2",
          "midi": 36,
          "time": 164.17875377291736,
          "velocity": 0.6377952755905512,
          "duration": 0.17534715208333296
        },
        {
          "name": "C3",
          "midi": 48,
          "time": 164.1822259937507,
          "velocity": 0.5748031496062992,
          "duration": 0.14930549583331754
        },
        {
          "name": "G4",
          "midi": 67,
          "time": 164.57632305833403,
          "velocity": 0.5196850393700787,
          "duration": 0.09895829375000176
        },
        {
          "name": "C4",
          "midi": 60,
          "time": 164.57805916875068,
          "velocity": 0.4645669291338583,
          "duration": 0.10416662500000484
        },
        {
          "name": "F4",
          "midi": 65,
          "time": 165.00514233125068,
          "velocity": 0.6377952755905512,
          "duration": 0.11805550833332745
        },
        {
          "name": "A#1",
          "midi": 34,
          "time": 165.00514233125068,
          "velocity": 0.7165354330708661,
          "duration": 0.09027774166665381
        },
        {
          "name": "A#2",
          "midi": 46,
          "time": 165.00514233125068,
          "velocity": 0.6299212598425197,
          "duration": 0.07812496874998942
        },
        {
          "name": "A#3",
          "midi": 58,
          "time": 165.01035066250068,
          "velocity": 0.5748031496062992,
          "duration": 0.11805550833332745
        },
        {
          "name": "F4",
          "midi": 65,
          "time": 165.409656058334,
          "velocity": 0.5354330708661418,
          "duration": 0.09374996249999867
        },
        {
          "name": "A#3",
          "midi": 58,
          "time": 165.41312827916735,
          "velocity": 0.5196850393700787,
          "duration": 0.09201385208331203
        },
        {
          "name": "A#3",
          "midi": 58,
          "time": 165.61972541875068,
          "velocity": 0.5118110236220472,
          "duration": 0.1024305145833182
        },
        {
          "name": "F4",
          "midi": 65,
          "time": 165.61972541875068,
          "velocity": 0.5511811023622047,
          "duration": 0.0954860729166569
        },
        {
          "name": "F4",
          "midi": 65,
          "time": 165.82458644791734,
          "velocity": 0.5669291338582677,
          "duration": 0.10763884583332128
        },
        {
          "name": "A#3",
          "midi": 58,
          "time": 165.826322558334,
          "velocity": 0.5354330708661418,
          "duration": 0.10069440416665998
        },
        {
          "name": "A#2",
          "midi": 46,
          "time": 165.83500311041732,
          "velocity": 0.6456692913385826,
          "duration": 0.11631939791666923
        },
        {
          "name": "A#1",
          "midi": 34,
          "time": 165.84021144166732,
          "velocity": 0.6614173228346457,
          "duration": 0.11979161874998567
        },
        {
          "name": "F4",
          "midi": 65,
          "time": 166.24819738958396,
          "velocity": 0.5196850393700787,
          "duration": 0.09722218333334354
        },
        {
          "name": "A#3",
          "midi": 58,
          "time": 166.25340572083397,
          "velocity": 0.47244094488188976,
          "duration": 0.09201385208334045
        },
        {
          "name": "F4",
          "midi": 65,
          "time": 166.46173897083398,
          "velocity": 0.5354330708661418,
          "duration": 0.1024305145833182
        },
        {
          "name": "A#3",
          "midi": 58,
          "time": 166.46347508125064,
          "velocity": 0.47244094488188976,
          "duration": 0.09374996249999867
        },
        {
          "name": "A#2",
          "midi": 46,
          "time": 166.66139166875064,
          "velocity": 0.7007874015748031,
          "duration": 0.11458328749998259
        },
        {
          "name": "F4",
          "midi": 65,
          "time": 166.66660000000064,
          "velocity": 0.5748031496062992,
          "duration": 0.1093749562499795
        },
        {
          "name": "A#1",
          "midi": 34,
          "time": 166.6683361104173,
          "velocity": 0.6850393700787402,
          "duration": 0.12673606041664698
        },
        {
          "name": "A#3",
          "midi": 58,
          "time": 166.6683361104173,
          "velocity": 0.5275590551181102,
          "duration": 0.10069440416665998
        },
        {
          "name": "F4",
          "midi": 65,
          "time": 167.0884748312506,
          "velocity": 0.5748031496062992,
          "duration": 0.10937495625000793
        },
        {
          "name": "A#3",
          "midi": 58,
          "time": 167.09194705208395,
          "velocity": 0.5354330708661418,
          "duration": 0.10069440416665998
        },
        {
          "name": "E4",
          "midi": 64,
          "time": 167.49819688958394,
          "velocity": 0.6771653543307087,
          "duration": 0.11284717708332437
        },
        {
          "name": "A3",
          "midi": 57,
          "time": 167.4999330000006,
          "velocity": 0.6220472440944882,
          "duration": 0.11631939791666923
        },
        {
          "name": "A2",
          "midi": 45,
          "time": 167.50340522083394,
          "velocity": 0.6771653543307087,
          "duration": 0.09027774166665381
        },
        {
          "name": "A1",
          "midi": 33,
          "time": 167.5051413312506,
          "velocity": 0.8031496062992126,
          "duration": 0.0833332999999925
        },
        {
          "name": "A3",
          "midi": 57,
          "time": 167.90965505833393,
          "velocity": 0.5354330708661418,
          "duration": 0.10069440416665998
        },
        {
          "name": "E4",
          "midi": 64,
          "time": 167.90965505833393,
          "velocity": 0.5511811023622047,
          "duration": 0.0763888583333312
        },
        {
          "name": "A3",
          "midi": 57,
          "time": 168.11625219791725,
          "velocity": 0.49606299212598426,
          "duration": 0.09722218333334354
        },
        {
          "name": "E4",
          "midi": 64,
          "time": 168.11625219791725,
          "velocity": 0.5354330708661418,
          "duration": 0.08680552083333737
        },
        {
          "name": "A1",
          "midi": 33,
          "time": 168.30896045416725,
          "velocity": 0.6220472440944882,
          "duration": 0.16145826874998193
        },
        {
          "name": "A2",
          "midi": 45,
          "time": 168.3124326750006,
          "velocity": 0.5669291338582677,
          "duration": 0.13368050208330828
        },
        {
          "name": "E4",
          "midi": 64,
          "time": 168.32458544791726,
          "velocity": 0.6299212598425197,
          "duration": 0.09722218333331512
        },
        {
          "name": "A3",
          "midi": 57,
          "time": 168.32632155833392,
          "velocity": 0.5354330708661418,
          "duration": 0.08680552083333737
        },
        {
          "name": "A3",
          "midi": 57,
          "time": 168.74472416875057,
          "velocity": 0.5039370078740157,
          "duration": 0.09027774166668223
        },
        {
          "name": "E4",
          "midi": 64,
          "time": 168.74472416875057,
          "velocity": 0.5511811023622047,
          "duration": 0.07986107916667606
        },
        {
          "name": "A3",
          "midi": 57,
          "time": 168.95479352916726,
          "velocity": 0.47244094488188976,
          "duration": 0.08680552083333737
        },
        {
          "name": "E4",
          "midi": 64,
          "time": 168.95479352916726,
          "velocity": 0.5196850393700787,
          "duration": 0.07986107916667606
        },
        {
          "name": "A1",
          "midi": 33,
          "time": 169.15791844791727,
          "velocity": 0.7244094488188977,
          "duration": 0.11631939791666923
        },
        {
          "name": "E4",
          "midi": 64,
          "time": 169.1613906687506,
          "velocity": 0.5748031496062992,
          "duration": 0.09722218333331512
        },
        {
          "name": "A3",
          "midi": 57,
          "time": 169.16312677916727,
          "velocity": 0.4881889763779528,
          "duration": 0.08854163124999559
        },
        {
          "name": "A2",
          "midi": 45,
          "time": 169.16833511041727,
          "velocity": 0.7244094488188977,
          "duration": 0.10069440416665998
        },
        {
          "name": "E4",
          "midi": 64,
          "time": 169.57632105833395,
          "velocity": 0.5196850393700787,
          "duration": 0.09895829375000176
        },
        {
          "name": "A3",
          "midi": 57,
          "time": 169.5780571687506,
          "velocity": 0.4645669291338583,
          "duration": 0.10416662500000484
        },
        {
          "name": "D3",
          "midi": 50,
          "time": 169.9999320000006,
          "velocity": 0.7244094488188977,
          "duration": 0.14409716458334287
        },
        {
          "name": "A4",
          "midi": 69,
          "time": 170.00687644166726,
          "velocity": 0.6614173228346457,
          "duration": 0.1458332750000011
        },
        {
          "name": "D2",
          "midi": 38,
          "time": 170.00687644166726,
          "velocity": 0.7874015748031497,
          "duration": 0.1336805020833367
        },
        {
          "name": "D4",
          "midi": 62,
          "time": 170.00861255208392,
          "velocity": 0.6299212598425197,
          "duration": 0.1527777166666624
        },
        {
          "name": "D4",
          "midi": 62,
          "time": 170.42354294166725,
          "velocity": 0.5511811023622047,
          "duration": 0.10416662499997642
        },
        {
          "name": "A4",
          "midi": 69,
          "time": 170.42354294166725,
          "velocity": 0.5826771653543307,
          "duration": 0.09027774166665381
        },
        {
          "name": "D4",
          "midi": 62,
          "time": 170.63014008125057,
          "velocity": 0.5039370078740157,
          "duration": 0.09027774166668223
        },
        {
          "name": "A4",
          "midi": 69,
          "time": 170.63014008125057,
          "velocity": 0.5433070866141733,
          "duration": 0.07465274791667298
        },
        {
          "name": "D2",
          "midi": 38,
          "time": 170.81416778541725,
          "velocity": 0.6535433070866141,
          "duration": 0.0954860729166569
        },
        {
          "name": "D3",
          "midi": 50,
          "time": 170.82111222708392,
          "velocity": 0.5511811023622047,
          "duration": 0.07986107916667606
        },
        {
          "name": "A4",
          "midi": 69,
          "time": 170.83673722083392,
          "velocity": 0.6377952755905512,
          "duration": 0.0954860729166569
        },
        {
          "name": "D4",
          "midi": 62,
          "time": 170.83847333125058,
          "velocity": 0.5905511811023622,
          "duration": 0.09722218333334354
        },
        {
          "name": "D4",
          "midi": 62,
          "time": 171.25340372083392,
          "velocity": 0.5433070866141733,
          "duration": 0.10069440416665998
        },
        {
          "name": "A4",
          "midi": 69,
          "time": 171.25340372083392,
          "velocity": 0.5748031496062992,
          "duration": 0.0833332999999925
        },
        {
          "name": "D4",
          "midi": 62,
          "time": 171.4617369708339,
          "velocity": 0.4645669291338583,
          "duration": 0.08854163125002401
        },
        {
          "name": "A4",
          "midi": 69,
          "time": 171.46520919166724,
          "velocity": 0.5196850393700787,
          "duration": 0.06770830625001167
        },
        {
          "name": "D2",
          "midi": 38,
          "time": 171.63708412291726,
          "velocity": 0.6614173228346457,
          "duration": 0.10243051458334662
        },
        {
          "name": "D3",
          "midi": 50,
          "time": 171.64229245416726,
          "velocity": 0.6141732283464567,
          "duration": 0.09374996249999867
        },
        {
          "name": "A4",
          "midi": 69,
          "time": 171.67007022083394,
          "velocity": 0.4881889763779528,
          "duration": 0.0954860729166569
        },
        {
          "name": "D4",
          "midi": 62,
          "time": 171.67527855208394,
          "velocity": 0.5433070866141733,
          "duration": 0.07812496874998942
        },
        {
          "name": "A4",
          "midi": 69,
          "time": 172.08673672083393,
          "velocity": 0.5826771653543307,
          "duration": 0.10590273541669148
        },
        {
          "name": "D4",
          "midi": 62,
          "time": 172.09020894166727,
          "velocity": 0.5511811023622047,
          "duration": 0.11111106666666615
        },
        {
          "name": "D2",
          "midi": 38,
          "time": 172.49819488958394,
          "velocity": 0.6535433070866141,
          "duration": 0.12326383958333054
        },
        {
          "name": "A4",
          "midi": 69,
          "time": 172.4999310000006,
          "velocity": 0.6535433070866141,
          "duration": 0.1197916187500141
        },
        {
          "name": "D4",
          "midi": 62,
          "time": 172.50340322083395,
          "velocity": 0.6141732283464567,
          "duration": 0.11284717708332437
        },
        {
          "name": "D3",
          "midi": 50,
          "time": 172.5155559937506,
          "velocity": 0.6929133858267716,
          "duration": 0.11111106666666615
        },
        {
          "name": "D4",
          "midi": 62,
          "time": 172.91833361041728,
          "velocity": 0.5354330708661418,
          "duration": 0.08854163124999559
        },
        {
          "name": "A4",
          "midi": 69,
          "time": 172.91833361041728,
          "velocity": 0.5590551181102362,
          "duration": 0.07986107916667606
        },
        {
          "name": "A4",
          "midi": 69,
          "time": 173.12319463958394,
          "velocity": 0.5511811023622047,
          "duration": 0.08506941041665073
        },
        {
          "name": "D4",
          "midi": 62,
          "time": 173.1249307500006,
          "velocity": 0.5039370078740157,
          "duration": 0.08680552083333737
        },
        {
          "name": "D3",
          "midi": 50,
          "time": 173.32111122708395,
          "velocity": 0.7165354330708661,
          "duration": 0.08680552083330895
        },
        {
          "name": "D2",
          "midi": 38,
          "time": 173.3245834479173,
          "velocity": 0.7874015748031497,
          "duration": 0.08680552083330895
        },
        {
          "name": "A4",
          "midi": 69,
          "time": 173.3332640000006,
          "velocity": 0.5826771653543307,
          "duration": 0.09722218333331512
        },
        {
          "name": "D4",
          "midi": 62,
          "time": 173.33500011041727,
          "velocity": 0.5669291338582677,
          "duration": 0.09027774166665381
        },
        {
          "name": "A4",
          "midi": 69,
          "time": 173.75166661041726,
          "velocity": 0.5196850393700787,
          "duration": 0.08854163124999559
        },
        {
          "name": "D4",
          "midi": 62,
          "time": 173.75340272083392,
          "velocity": 0.4881889763779528,
          "duration": 0.09027774166668223
        },
        {
          "name": "A4",
          "midi": 69,
          "time": 173.95999986041727,
          "velocity": 0.4881889763779528,
          "duration": 0.07291663750001476
        },
        {
          "name": "D4",
          "midi": 62,
          "time": 173.96173597083393,
          "velocity": 0.4645669291338583,
          "duration": 0.06770830625001167
        },
        {
          "name": "D2",
          "midi": 38,
          "time": 174.15444422708396,
          "velocity": 0.7086614173228346,
          "duration": 0.08854163124996717
        },
        {
          "name": "D3",
          "midi": 50,
          "time": 174.16312477916728,
          "velocity": 0.6692913385826772,
          "duration": 0.08159718958330586
        },
        {
          "name": "A4",
          "midi": 69,
          "time": 174.16833311041728,
          "velocity": 0.5669291338582677,
          "duration": 0.09722218333331512
        },
        {
          "name": "D4",
          "midi": 62,
          "time": 174.17006922083394,
          "velocity": 0.5196850393700787,
          "duration": 0.0954860729166569
        },
        {
          "name": "A4",
          "midi": 69,
          "time": 174.58673572083393,
          "velocity": 0.5905511811023622,
          "duration": 0.10243051458334662
        },
        {
          "name": "D4",
          "midi": 62,
          "time": 174.59020794166727,
          "velocity": 0.5354330708661418,
          "duration": 0.10243051458334662
        },
        {
          "name": "A4",
          "midi": 69,
          "time": 175.0051383312506,
          "velocity": 0.6377952755905512,
          "duration": 0.11805550833332745
        },
        {
          "name": "D2",
          "midi": 38,
          "time": 175.0051383312506,
          "velocity": 0.7165354330708661,
          "duration": 0.09027774166665381
        },
        {
          "name": "D3",
          "midi": 50,
          "time": 175.0051383312506,
          "velocity": 0.6299212598425197,
          "duration": 0.07812496874998942
        },
        {
          "name": "D4",
          "midi": 62,
          "time": 175.0103466625006,
          "velocity": 0.5748031496062992,
          "duration": 0.11805550833332745
        },
        {
          "name": "A4",
          "midi": 69,
          "time": 175.40965205833393,
          "velocity": 0.5354330708661418,
          "duration": 0.09374996249999867
        },
        {
          "name": "D4",
          "midi": 62,
          "time": 175.41312427916728,
          "velocity": 0.5196850393700787,
          "duration": 0.09201385208331203
        },
        {
          "name": "D4",
          "midi": 62,
          "time": 175.6197214187506,
          "velocity": 0.5118110236220472,
          "duration": 0.1024305145833182
        },
        {
          "name": "A4",
          "midi": 69,
          "time": 175.6197214187506,
          "velocity": 0.5511811023622047,
          "duration": 0.0954860729166569
        },
        {
          "name": "D2",
          "midi": 38,
          "time": 175.81069356458391,
          "velocity": 0.7086614173228346,
          "duration": 0.10416662499997642
        },
        {
          "name": "D3",
          "midi": 50,
          "time": 175.81590189583392,
          "velocity": 0.6535433070866141,
          "duration": 0.08854163124996717
        },
        {
          "name": "A4",
          "midi": 69,
          "time": 175.82458244791724,
          "velocity": 0.5669291338582677,
          "duration": 0.10763884583332128
        },
        {
          "name": "D4",
          "midi": 62,
          "time": 175.8263185583339,
          "velocity": 0.5354330708661418,
          "duration": 0.10069440416665998
        },
        {
          "name": "A4",
          "midi": 69,
          "time": 176.2481933895839,
          "velocity": 0.5196850393700787,
          "duration": 0.09722218333334354
        },
        {
          "name": "D4",
          "midi": 62,
          "time": 176.2534017208339,
          "velocity": 0.47244094488188976,
          "duration": 0.09201385208334045
        },
        {
          "name": "A4",
          "midi": 69,
          "time": 176.4617349708339,
          "velocity": 0.5354330708661418,
          "duration": 0.1024305145833182
        },
        {
          "name": "D4",
          "midi": 62,
          "time": 176.46347108125056,
          "velocity": 0.47244094488188976,
          "duration": 0.09374996249999867
        },
        {
          "name": "D2",
          "midi": 38,
          "time": 176.6336099020839,
          "velocity": 0.6929133858267716,
          "duration": 0.10416662500000484
        },
        {
          "name": "D3",
          "midi": 50,
          "time": 176.63708212291723,
          "velocity": 0.6692913385826772,
          "duration": 0.09027774166665381
        },
        {
          "name": "A4",
          "midi": 69,
          "time": 176.66659600000057,
          "velocity": 0.5748031496062992,
          "duration": 0.1093749562499795
        },
        {
          "name": "D4",
          "midi": 62,
          "time": 176.66833211041723,
          "velocity": 0.5275590551181102,
          "duration": 0.10069440416665998
        },
        {
          "name": "A4",
          "midi": 69,
          "time": 177.08847083125053,
          "velocity": 0.5748031496062992,
          "duration": 0.10937495625000793
        },
        {
          "name": "D4",
          "midi": 62,
          "time": 177.09194305208388,
          "velocity": 0.5354330708661418,
          "duration": 0.10069440416665998
        },
        {
          "name": "G4",
          "midi": 67,
          "time": 177.49819288958386,
          "velocity": 0.6771653543307087,
          "duration": 0.11284717708332437
        },
        {
          "name": "C4",
          "midi": 60,
          "time": 177.49992900000052,
          "velocity": 0.6220472440944882,
          "duration": 0.11631939791666923
        },
        {
          "name": "C3",
          "midi": 48,
          "time": 177.50340122083387,
          "velocity": 0.6771653543307087,
          "duration": 0.09027774166665381
        },
        {
          "name": "C2",
          "midi": 36,
          "time": 177.50513733125052,
          "velocity": 0.8031496062992126,
          "duration": 0.0833332999999925
        },
        {
          "name": "C4",
          "midi": 60,
          "time": 177.90965105833385,
          "velocity": 0.5354330708661418,
          "duration": 0.10069440416665998
        },
        {
          "name": "G4",
          "midi": 67,
          "time": 177.90965105833385,
          "velocity": 0.5511811023622047,
          "duration": 0.0763888583333312
        },
        {
          "name": "C4",
          "midi": 60,
          "time": 178.11624819791717,
          "velocity": 0.49606299212598426,
          "duration": 0.09722218333334354
        },
        {
          "name": "G4",
          "midi": 67,
          "time": 178.11624819791717,
          "velocity": 0.5354330708661418,
          "duration": 0.08680552083333737
        },
        {
          "name": "G4",
          "midi": 67,
          "time": 178.32458144791718,
          "velocity": 0.6299212598425197,
          "duration": 0.09722218333331512
        },
        {
          "name": "C4",
          "midi": 60,
          "time": 178.32631755833384,
          "velocity": 0.5354330708661418,
          "duration": 0.08680552083333737
        },
        {
          "name": "C2",
          "midi": 36,
          "time": 178.3332620000005,
          "velocity": 0.7480314960629921,
          "duration": 0.1024305145833182
        },
        {
          "name": "C3",
          "midi": 48,
          "time": 178.34541477291717,
          "velocity": 0.6220472440944882,
          "duration": 0.0833332999999925
        },
        {
          "name": "C4",
          "midi": 60,
          "time": 178.7447201687505,
          "velocity": 0.5039370078740157,
          "duration": 0.09027774166668223
        },
        {
          "name": "G4",
          "midi": 67,
          "time": 178.7447201687505,
          "velocity": 0.5511811023622047,
          "duration": 0.07986107916667606
        },
        {
          "name": "C4",
          "midi": 60,
          "time": 178.9547895291672,
          "velocity": 0.47244094488188976,
          "duration": 0.08680552083333737
        },
        {
          "name": "G4",
          "midi": 67,
          "time": 178.9547895291672,
          "velocity": 0.5196850393700787,
          "duration": 0.07986107916667606
        },
        {
          "name": "G4",
          "midi": 67,
          "time": 179.16138666875054,
          "velocity": 0.5748031496062992,
          "duration": 0.0972221833332867
        },
        {
          "name": "C4",
          "midi": 60,
          "time": 179.1631227791672,
          "velocity": 0.4881889763779528,
          "duration": 0.08854163124996717
        },
        {
          "name": "C2",
          "midi": 36,
          "time": 179.18221999375052,
          "velocity": 0.6614173228346457,
          "duration": 0.23958323749997135
        },
        {
          "name": "C3",
          "midi": 48,
          "time": 179.19090054583384,
          "velocity": 0.6299212598425197,
          "duration": 0.16145826874998193
        },
        {
          "name": "G4",
          "midi": 67,
          "time": 179.5763170583338,
          "velocity": 0.5196850393700787,
          "duration": 0.09895829375000176
        },
        {
          "name": "C4",
          "midi": 60,
          "time": 179.57805316875047,
          "velocity": 0.4645669291338583,
          "duration": 0.10416662500000484
        },
        {
          "name": "F3",
          "midi": 53,
          "time": 179.99992800000047,
          "velocity": 0.7244094488188977,
          "duration": 0.14409716458334287
        },
        {
          "name": "C5",
          "midi": 72,
          "time": 180.00687244166713,
          "velocity": 0.6614173228346457,
          "duration": 0.1458332750000011
        },
        {
          "name": "F2",
          "midi": 41,
          "time": 180.00687244166713,
          "velocity": 0.7874015748031497,
          "duration": 0.1336805020833367
        },
        {
          "name": "F4",
          "midi": 65,
          "time": 180.00860855208379,
          "velocity": 0.6299212598425197,
          "duration": 0.1527777166666624
        },
        {
          "name": "F4",
          "midi": 65,
          "time": 180.42353894166712,
          "velocity": 0.5511811023622047,
          "duration": 0.10416662499997642
        },
        {
          "name": "C5",
          "midi": 72,
          "time": 180.42353894166712,
          "velocity": 0.5826771653543307,
          "duration": 0.09027774166665381
        },
        {
          "name": "F4",
          "midi": 65,
          "time": 180.63013608125044,
          "velocity": 0.5039370078740157,
          "duration": 0.09027774166668223
        },
        {
          "name": "C5",
          "midi": 72,
          "time": 180.63013608125044,
          "velocity": 0.5433070866141733,
          "duration": 0.07465274791667298
        },
        {
          "name": "C5",
          "midi": 72,
          "time": 180.8367332208338,
          "velocity": 0.6377952755905512,
          "duration": 0.0954860729166569
        },
        {
          "name": "F4",
          "midi": 65,
          "time": 180.83846933125045,
          "velocity": 0.5905511811023622,
          "duration": 0.09722218333334354
        },
        {
          "name": "F2",
          "midi": 41,
          "time": 180.86277487708378,
          "velocity": 0.6377952755905512,
          "duration": 0.15624993750000726
        },
        {
          "name": "F3",
          "midi": 53,
          "time": 180.86451098750044,
          "velocity": 0.5748031496062992,
          "duration": 0.13541661250002335
        },
        {
          "name": "F4",
          "midi": 65,
          "time": 181.25339972083378,
          "velocity": 0.5433070866141733,
          "duration": 0.10069440416665998
        },
        {
          "name": "C5",
          "midi": 72,
          "time": 181.25339972083378,
          "velocity": 0.5748031496062992,
          "duration": 0.0833332999999925
        },
        {
          "name": "F4",
          "midi": 65,
          "time": 181.46173297083376,
          "velocity": 0.4645669291338583,
          "duration": 0.08854163125002401
        },
        {
          "name": "C5",
          "midi": 72,
          "time": 181.4652051916671,
          "velocity": 0.5196850393700787,
          "duration": 0.06770830625001167
        },
        {
          "name": "C5",
          "midi": 72,
          "time": 181.6700662208338,
          "velocity": 0.4881889763779528,
          "duration": 0.09548607291668532
        },
        {
          "name": "F4",
          "midi": 65,
          "time": 181.6752745520838,
          "velocity": 0.5433070866141733,
          "duration": 0.07812496875001784
        },
        {
          "name": "F2",
          "midi": 41,
          "time": 181.7134689812505,
          "velocity": 0.7480314960629921,
          "duration": 0.1458332750000011
        },
        {
          "name": "F3",
          "midi": 53,
          "time": 181.7134689812505,
          "velocity": 0.7086614173228346,
          "duration": 0.11284717708332437
        },
        {
          "name": "C5",
          "midi": 72,
          "time": 182.08673272083382,
          "velocity": 0.5826771653543307,
          "duration": 0.10590273541669148
        },
        {
          "name": "F4",
          "midi": 65,
          "time": 182.09020494166717,
          "velocity": 0.5511811023622047,
          "duration": 0.11111106666666615
        },
        {
          "name": "G4",
          "midi": 67,
          "time": 182.49819088958384,
          "velocity": 0.6771653543307087,
          "duration": 0.11284717708332437
        },
        {
          "name": "C4",
          "midi": 60,
          "time": 182.4999270000005,
          "velocity": 0.6220472440944882,
          "duration": 0.11631939791666923
        },
        {
          "name": "C3",
          "midi": 48,
          "time": 182.50339922083384,
          "velocity": 0.6771653543307087,
          "duration": 0.09027774166665381
        },
        {
          "name": "C2",
          "midi": 36,
          "time": 182.5051353312505,
          "velocity": 0.8031496062992126,
          "duration": 0.0833332999999925
        },
        {
          "name": "C4",
          "midi": 60,
          "time": 182.90964905833383,
          "velocity": 0.5354330708661418,
          "duration": 0.10069440416665998
        },
        {
          "name": "G4",
          "midi": 67,
          "time": 182.90964905833383,
          "velocity": 0.5511811023622047,
          "duration": 0.0763888583333312
        },
        {
          "name": "C4",
          "midi": 60,
          "time": 183.11624619791715,
          "velocity": 0.49606299212598426,
          "duration": 0.09722218333334354
        },
        {
          "name": "G4",
          "midi": 67,
          "time": 183.11624619791715,
          "velocity": 0.5354330708661418,
          "duration": 0.08680552083333737
        },
        {
          "name": "G4",
          "midi": 67,
          "time": 183.32457944791716,
          "velocity": 0.6299212598425197,
          "duration": 0.09722218333334354
        },
        {
          "name": "C4",
          "midi": 60,
          "time": 183.32631555833382,
          "velocity": 0.5354330708661418,
          "duration": 0.08680552083336579
        },
        {
          "name": "C3",
          "midi": 48,
          "time": 183.34714888333383,
          "velocity": 0.5748031496062992,
          "duration": 0.13194439166667848
        },
        {
          "name": "C2",
          "midi": 36,
          "time": 183.35062110416717,
          "velocity": 0.5905511811023622,
          "duration": 0.18055548333333604
        },
        {
          "name": "C4",
          "midi": 60,
          "time": 183.74471816875052,
          "velocity": 0.5039370078740157,
          "duration": 0.09027774166668223
        },
        {
          "name": "G4",
          "midi": 67,
          "time": 183.74471816875052,
          "velocity": 0.5511811023622047,
          "duration": 0.07986107916667606
        },
        {
          "name": "C4",
          "midi": 60,
          "time": 183.95478752916722,
          "velocity": 0.47244094488188976,
          "duration": 0.08680552083333737
        },
        {
          "name": "G4",
          "midi": 67,
          "time": 183.95478752916722,
          "velocity": 0.5196850393700787,
          "duration": 0.07986107916667606
        },
        {
          "name": "G4",
          "midi": 67,
          "time": 184.16138466875057,
          "velocity": 0.5748031496062992,
          "duration": 0.09722218333334354
        },
        {
          "name": "C4",
          "midi": 60,
          "time": 184.16312077916723,
          "velocity": 0.4881889763779528,
          "duration": 0.08854163125002401
        },
        {
          "name": "C2",
          "midi": 36,
          "time": 184.17874577291724,
          "velocity": 0.6377952755905512,
          "duration": 0.17534715208333296
        },
        {
          "name": "C3",
          "midi": 48,
          "time": 184.18221799375058,
          "velocity": 0.5748031496062992,
          "duration": 0.14930549583331754
        },
        {
          "name": "G4",
          "midi": 67,
          "time": 184.5763150583339,
          "velocity": 0.5196850393700787,
          "duration": 0.09895829375000176
        },
        {
          "name": "C4",
          "midi": 60,
          "time": 184.57805116875056,
          "velocity": 0.4645669291338583,
          "duration": 0.10416662500000484
        },
        {
          "name": "F4",
          "midi": 65,
          "time": 185.00513433125056,
          "velocity": 0.6377952755905512,
          "duration": 0.11805550833332745
        },
        {
          "name": "A#1",
          "midi": 34,
          "time": 185.00513433125056,
          "velocity": 0.7165354330708661,
          "duration": 0.09027774166665381
        },
        {
          "name": "A#2",
          "midi": 46,
          "time": 185.00513433125056,
          "velocity": 0.6299212598425197,
          "duration": 0.07812496874998942
        },
        {
          "name": "A#3",
          "midi": 58,
          "time": 185.01034266250056,
          "velocity": 0.5748031496062992,
          "duration": 0.11805550833332745
        },
        {
          "name": "F4",
          "midi": 65,
          "time": 185.4096480583339,
          "velocity": 0.5354330708661418,
          "duration": 0.09374996249999867
        },
        {
          "name": "A#3",
          "midi": 58,
          "time": 185.41312027916723,
          "velocity": 0.5196850393700787,
          "duration": 0.09201385208331203
        },
        {
          "name": "A#3",
          "midi": 58,
          "time": 185.61971741875055,
          "velocity": 0.5118110236220472,
          "duration": 0.1024305145833182
        },
        {
          "name": "F4",
          "midi": 65,
          "time": 185.61971741875055,
          "velocity": 0.5511811023622047,
          "duration": 0.0954860729166569
        },
        {
          "name": "F4",
          "midi": 65,
          "time": 185.82457844791722,
          "velocity": 0.5669291338582677,
          "duration": 0.10763884583332128
        },
        {
          "name": "A#3",
          "midi": 58,
          "time": 185.82631455833388,
          "velocity": 0.5354330708661418,
          "duration": 0.10069440416665998
        },
        {
          "name": "A#2",
          "midi": 46,
          "time": 185.8349951104172,
          "velocity": 0.6456692913385826,
          "duration": 0.11631939791666923
        },
        {
          "name": "A#1",
          "midi": 34,
          "time": 185.8402034416672,
          "velocity": 0.6614173228346457,
          "duration": 0.11979161874998567
        },
        {
          "name": "F4",
          "midi": 65,
          "time": 186.24818938958384,
          "velocity": 0.5196850393700787,
          "duration": 0.09722218333334354
        },
        {
          "name": "A#3",
          "midi": 58,
          "time": 186.25339772083385,
          "velocity": 0.47244094488188976,
          "duration": 0.09201385208334045
        },
        {
          "name": "F4",
          "midi": 65,
          "time": 186.46173097083386,
          "velocity": 0.5354330708661418,
          "duration": 0.1024305145833182
        },
        {
          "name": "A#3",
          "midi": 58,
          "time": 186.4634670812505,
          "velocity": 0.47244094488188976,
          "duration": 0.09374996249999867
        },
        {
          "name": "A#2",
          "midi": 46,
          "time": 186.66138366875052,
          "velocity": 0.7007874015748031,
          "duration": 0.11458328749998259
        },
        {
          "name": "F4",
          "midi": 65,
          "time": 186.66659200000052,
          "velocity": 0.5748031496062992,
          "duration": 0.1093749562499795
        },
        {
          "name": "A#1",
          "midi": 34,
          "time": 186.66832811041718,
          "velocity": 0.6850393700787402,
          "duration": 0.12673606041664698
        },
        {
          "name": "A#3",
          "midi": 58,
          "time": 186.66832811041718,
          "velocity": 0.5275590551181102,
          "duration": 0.10069440416665998
        },
        {
          "name": "F4",
          "midi": 65,
          "time": 187.08846683125049,
          "velocity": 0.5748031496062992,
          "duration": 0.10937495625000793
        },
        {
          "name": "A#3",
          "midi": 58,
          "time": 187.09193905208383,
          "velocity": 0.5354330708661418,
          "duration": 0.10069440416665998
        },
        {
          "name": "E4",
          "midi": 64,
          "time": 187.49818888958382,
          "velocity": 0.6771653543307087,
          "duration": 0.11284717708332437
        },
        {
          "name": "A3",
          "midi": 57,
          "time": 187.49992500000047,
          "velocity": 0.6220472440944882,
          "duration": 0.11631939791666923
        },
        {
          "name": "A2",
          "midi": 45,
          "time": 187.50339722083382,
          "velocity": 0.6771653543307087,
          "duration": 0.09027774166665381
        },
        {
          "name": "A1",
          "midi": 33,
          "time": 187.50513333125048,
          "velocity": 0.8031496062992126,
          "duration": 0.0833332999999925
        },
        {
          "name": "A3",
          "midi": 57,
          "time": 187.9096470583338,
          "velocity": 0.5354330708661418,
          "duration": 0.10069440416665998
        },
        {
          "name": "E4",
          "midi": 64,
          "time": 187.9096470583338,
          "velocity": 0.5511811023622047,
          "duration": 0.0763888583333312
        },
        {
          "name": "A3",
          "midi": 57,
          "time": 188.11624419791713,
          "velocity": 0.49606299212598426,
          "duration": 0.09722218333334354
        },
        {
          "name": "E4",
          "midi": 64,
          "time": 188.11624419791713,
          "velocity": 0.5354330708661418,
          "duration": 0.08680552083333737
        },
        {
          "name": "E4",
          "midi": 64,
          "time": 188.32457744791714,
          "velocity": 0.6299212598425197,
          "duration": 0.09722218333331512
        },
        {
          "name": "A3",
          "midi": 57,
          "time": 188.3263135583338,
          "velocity": 0.5354330708661418,
          "duration": 0.08680552083333737
        },
        {
          "name": "A2",
          "midi": 45,
          "time": 188.33846633125046,
          "velocity": 0.6299212598425197,
          "duration": 0.11284717708332437
        },
        {
          "name": "A1",
          "midi": 33,
          "time": 188.34541077291712,
          "velocity": 0.6771653543307087,
          "duration": 0.13541661249999493
        },
        {
          "name": "A3",
          "midi": 57,
          "time": 188.74471616875044,
          "velocity": 0.5039370078740157,
          "duration": 0.09027774166668223
        },
        {
          "name": "E4",
          "midi": 64,
          "time": 188.74471616875044,
          "velocity": 0.5511811023622047,
          "duration": 0.07986107916667606
        },
        {
          "name": "A3",
          "midi": 57,
          "time": 188.95478552916714,
          "velocity": 0.47244094488188976,
          "duration": 0.08680552083333737
        },
        {
          "name": "E4",
          "midi": 64,
          "time": 188.95478552916714,
          "velocity": 0.5196850393700787,
          "duration": 0.07986107916667606
        },
        {
          "name": "A2",
          "midi": 45,
          "time": 189.14228545416714,
          "velocity": 0.6299212598425197,
          "duration": 0.1093749562499795
        },
        {
          "name": "A1",
          "midi": 33,
          "time": 189.14749378541714,
          "velocity": 0.7716535433070866,
          "duration": 0.10590273541663464
        },
        {
          "name": "E4",
          "midi": 64,
          "time": 189.16138266875046,
          "velocity": 0.5748031496062992,
          "duration": 0.09722218333331512
        },
        {
          "name": "A3",
          "midi": 57,
          "time": 189.16311877916712,
          "velocity": 0.4881889763779528,
          "duration": 0.08854163124999559
        },
        {
          "name": "E4",
          "midi": 64,
          "time": 189.57631305833377,
          "velocity": 0.5196850393700787,
          "duration": 0.09895829375000176
        },
        {
          "name": "A3",
          "midi": 57,
          "time": 189.57804916875043,
          "velocity": 0.4645669291338583,
          "duration": 0.10416662500000484
        },
        {
          "name": "E4",
          "midi": 64,
          "time": 189.99818788958376,
          "velocity": 0.6771653543307087,
          "duration": 0.11284717708332437
        },
        {
          "name": "A3",
          "midi": 57,
          "time": 189.99992400000042,
          "velocity": 0.6220472440944882,
          "duration": 0.11631939791666923
        },
        {
          "name": "A2",
          "midi": 45,
          "time": 190.00339622083376,
          "velocity": 0.6771653543307087,
          "duration": 0.09027774166665381
        },
        {
          "name": "A1",
          "midi": 33,
          "time": 190.00513233125042,
          "velocity": 0.8031496062992126,
          "duration": 0.0833332999999925
        },
        {
          "name": "A3",
          "midi": 57,
          "time": 190.40964605833375,
          "velocity": 0.5354330708661418,
          "duration": 0.10069440416665998
        },
        {
          "name": "E4",
          "midi": 64,
          "time": 190.40964605833375,
          "velocity": 0.5511811023622047,
          "duration": 0.0763888583333312
        },
        {
          "name": "A3",
          "midi": 57,
          "time": 190.61624319791707,
          "velocity": 0.49606299212598426,
          "duration": 0.09722218333334354
        },
        {
          "name": "E4",
          "midi": 64,
          "time": 190.61624319791707,
          "velocity": 0.5354330708661418,
          "duration": 0.08680552083333737
        },
        {
          "name": "A1",
          "midi": 33,
          "time": 190.80895145416707,
          "velocity": 0.6220472440944882,
          "duration": 0.16145826874998193
        },
        {
          "name": "A2",
          "midi": 45,
          "time": 190.81242367500042,
          "velocity": 0.5669291338582677,
          "duration": 0.13368050208330828
        },
        {
          "name": "E4",
          "midi": 64,
          "time": 190.82457644791708,
          "velocity": 0.6299212598425197,
          "duration": 0.09722218333331512
        },
        {
          "name": "A3",
          "midi": 57,
          "time": 190.82631255833374,
          "velocity": 0.5354330708661418,
          "duration": 0.08680552083333737
        },
        {
          "name": "A3",
          "midi": 57,
          "time": 191.2447151687504,
          "velocity": 0.5039370078740157,
          "duration": 0.09027774166668223
        },
        {
          "name": "E4",
          "midi": 64,
          "time": 191.2447151687504,
          "velocity": 0.5511811023622047,
          "duration": 0.07986107916667606
        },
        {
          "name": "A3",
          "midi": 57,
          "time": 191.45478452916709,
          "velocity": 0.47244094488188976,
          "duration": 0.08680552083333737
        },
        {
          "name": "E4",
          "midi": 64,
          "time": 191.45478452916709,
          "velocity": 0.5196850393700787,
          "duration": 0.07986107916667606
        },
        {
          "name": "A1",
          "midi": 33,
          "time": 191.6579094479171,
          "velocity": 0.7244094488188977,
          "duration": 0.11631939791666923
        },
        {
          "name": "E4",
          "midi": 64,
          "time": 191.66138166875044,
          "velocity": 0.5748031496062992,
          "duration": 0.09722218333331512
        },
        {
          "name": "A3",
          "midi": 57,
          "time": 191.6631177791671,
          "velocity": 0.4881889763779528,
          "duration": 0.08854163124999559
        },
        {
          "name": "A2",
          "midi": 45,
          "time": 191.6683261104171,
          "velocity": 0.7244094488188977,
          "duration": 0.10069440416665998
        },
        {
          "name": "E4",
          "midi": 64,
          "time": 192.07631205833377,
          "velocity": 0.5196850393700787,
          "duration": 0.09895829375000176
        },
        {
          "name": "A3",
          "midi": 57,
          "time": 192.07804816875043,
          "velocity": 0.4645669291338583,
          "duration": 0.10416662500000484
        },
        {
          "name": "D4",
          "midi": 62,
          "time": 192.49992300000042,
          "velocity": 0.8188976377952756,
          "duration": 0.09374996249999867
        },
        {
          "name": "A4",
          "midi": 69,
          "time": 192.49992300000042,
          "velocity": 0.6062992125984252,
          "duration": 0.08680552083333737
        },
        {
          "name": "D3",
          "midi": 50,
          "time": 192.49992300000042,
          "velocity": 0.8976377952755905,
          "duration": 0.17708326249999118
        },
        {
          "name": "D2",
          "midi": 38,
          "time": 192.49992300000042,
          "velocity": 0.9606299212598425,
          "duration": 0.15104160625000418
        },
        {
          "name": "A4",
          "midi": 69,
          "time": 192.71172847083375,
          "velocity": 0.5748031496062992,
          "duration": 0.08506941041665073
        },
        {
          "name": "D4",
          "midi": 62,
          "time": 192.7134645812504,
          "velocity": 0.7637795275590551,
          "duration": 0.08506941041665073
        },
        {
          "name": "A4",
          "midi": 69,
          "time": 192.92006172083373,
          "velocity": 0.6062992125984252,
          "duration": 0.08506941041665073
        },
        {
          "name": "D4",
          "midi": 62,
          "time": 192.9217978312504,
          "velocity": 0.7401574803149606,
          "duration": 0.08854163124999559
        },
        {
          "name": "A4",
          "midi": 69,
          "time": 193.1301310812504,
          "velocity": 0.6535433070866141,
          "duration": 0.07118052708332812
        },
        {
          "name": "D4",
          "midi": 62,
          "time": 193.13186719166706,
          "velocity": 0.7874015748031497,
          "duration": 0.08506941041667915
        },
        {
          "name": "D3",
          "midi": 50,
          "time": 193.3332560000004,
          "velocity": 0.8503937007874016,
          "duration": 0.14409716458334287
        },
        {
          "name": "D2",
          "midi": 38,
          "time": 193.3332560000004,
          "velocity": 0.9606299212598425,
          "duration": 0.1197916187500141
        },
        {
          "name": "A4",
          "midi": 69,
          "time": 193.33672822083375,
          "velocity": 0.7401574803149606,
          "duration": 0.0763888583333312
        },
        {
          "name": "D4",
          "midi": 62,
          "time": 193.3384643312504,
          "velocity": 0.8031496062992126,
          "duration": 0.08159718958333428
        },
        {
          "name": "D4",
          "midi": 62,
          "time": 193.54506147083376,
          "velocity": 0.7480314960629921,
          "duration": 0.0763888583333312
        },
        {
          "name": "A4",
          "midi": 69,
          "time": 193.54506147083376,
          "velocity": 0.6771653543307087,
          "duration": 0.06597219583332503
        },
        {
          "name": "A4",
          "midi": 69,
          "time": 193.75165861041708,
          "velocity": 0.7165354330708661,
          "duration": 0.06597219583332503
        },
        {
          "name": "D4",
          "midi": 62,
          "time": 193.75339472083374,
          "velocity": 0.7165354330708661,
          "duration": 0.07986107916667606
        },
        {
          "name": "A4",
          "midi": 69,
          "time": 193.9582557500004,
          "velocity": 0.6377952755905512,
          "duration": 0.06423608541666681
        },
        {
          "name": "D4",
          "midi": 62,
          "time": 193.95999186041706,
          "velocity": 0.7637795275590551,
          "duration": 0.08159718958333428
        },
        {
          "name": "A4",
          "midi": 69,
          "time": 194.16485288958373,
          "velocity": 0.7716535433070866,
          "duration": 0.06944441666664147
        },
        {
          "name": "D3",
          "midi": 50,
          "time": 194.16658900000039,
          "velocity": 0.7716535433070866,
          "duration": 0.166666599999985
        },
        {
          "name": "D2",
          "midi": 38,
          "time": 194.16658900000039,
          "velocity": 0.8661417322834646,
          "duration": 0.12673606041664698
        },
        {
          "name": "D4",
          "midi": 62,
          "time": 194.16832511041704,
          "velocity": 0.7716535433070866,
          "duration": 0.0833332999999925
        },
        {
          "name": "A4",
          "midi": 69,
          "time": 194.3731861395837,
          "velocity": 0.7637795275590551,
          "duration": 0.0763888583333312
        },
        {
          "name": "D4",
          "midi": 62,
          "time": 194.37665836041705,
          "velocity": 0.7874015748031497,
          "duration": 0.07812496874998942
        },
        {
          "name": "A4",
          "midi": 69,
          "time": 194.58151938958372,
          "velocity": 0.7401574803149606,
          "duration": 0.07118052708332812
        },
        {
          "name": "D4",
          "midi": 62,
          "time": 194.58672772083372,
          "velocity": 0.7637795275590551,
          "duration": 0.08159718958333428
        },
        {
          "name": "A4",
          "midi": 69,
          "time": 194.7915887500004,
          "velocity": 0.7716535433070866,
          "duration": 0.06770830625001167
        },
        {
          "name": "D4",
          "midi": 62,
          "time": 194.79506097083373,
          "velocity": 0.7874015748031497,
          "duration": 0.08159718958333428
        },
        {
          "name": "G2",
          "midi": 43,
          "time": 194.9999220000004,
          "velocity": 0.8661417322834646,
          "duration": 0.17187493125001652
        },
        {
          "name": "G1",
          "midi": 31,
          "time": 194.9999220000004,
          "velocity": 0.8818897637795275,
          "duration": 0.13715272291668157
        },
        {
          "name": "A4",
          "midi": 69,
          "time": 195.00165811041705,
          "velocity": 0.8031496062992126,
          "duration": 0.06770830625001167
        },
        {
          "name": "G4",
          "midi": 67,
          "time": 195.0051303312504,
          "velocity": 0.8818897637795275,
          "duration": 0.08680552083333737
        },
        {
          "name": "A4",
          "midi": 69,
          "time": 195.2082552500004,
          "velocity": 0.7637795275590551,
          "duration": 0.0694444166666699
        },
        {
          "name": "G4",
          "midi": 67,
          "time": 195.21172747083375,
          "velocity": 0.7716535433070866,
          "duration": 0.0763888583333312
        },
        {
          "name": "A4",
          "midi": 69,
          "time": 195.41485238958376,
          "velocity": 0.8346456692913385,
          "duration": 0.07118052708335654
        },
        {
          "name": "G4",
          "midi": 67,
          "time": 195.4183246104171,
          "velocity": 0.7874015748031497,
          "duration": 0.08333330000002093
        },
        {
          "name": "A4",
          "midi": 69,
          "time": 195.6231856395838,
          "velocity": 0.7480314960629921,
          "duration": 0.06770830625001167
        },
        {
          "name": "G4",
          "midi": 67,
          "time": 195.6283939708338,
          "velocity": 0.8188976377952756,
          "duration": 0.08159718958333428
        },
        {
          "name": "A4",
          "midi": 69,
          "time": 195.82978277916715,
          "velocity": 0.7874015748031497,
          "duration": 0.0694444166666699
        },
        {
          "name": "G2",
          "midi": 43,
          "time": 195.8332550000005,
          "velocity": 0.8503937007874016,
          "duration": 0.140624943749998
        },
        {
          "name": "G1",
          "midi": 31,
          "time": 195.8332550000005,
          "velocity": 0.8976377952755905,
          "duration": 0.13020828124999184
        },
        {
          "name": "G4",
          "midi": 67,
          "time": 195.83499111041715,
          "velocity": 0.8031496062992126,
          "duration": 0.0833332999999925
        },
        {
          "name": "A4",
          "midi": 69,
          "time": 196.03811602916716,
          "velocity": 0.7716535433070866,
          "duration": 0.0694444166666699
        },
        {
          "name": "G4",
          "midi": 67,
          "time": 196.04332436041716,
          "velocity": 0.8188976377952756,
          "duration": 0.07986107916667606
        },
        {
          "name": "A4",
          "midi": 69,
          "time": 196.24818538958382,
          "velocity": 0.7637795275590551,
          "duration": 0.06597219583332503
        },
        {
          "name": "G4",
          "midi": 67,
          "time": 196.25339372083383,
          "velocity": 0.8031496062992126,
          "duration": 0.08159718958333428
        },
        {
          "name": "A4",
          "midi": 69,
          "time": 196.45651863958383,
          "velocity": 0.7874015748031497,
          "duration": 0.0694444166666699
        },
        {
          "name": "G4",
          "midi": 67,
          "time": 196.46172697083384,
          "velocity": 0.8031496062992126,
          "duration": 0.0833332999999925
        },
        {
          "name": "A4",
          "midi": 69,
          "time": 196.66485188958384,
          "velocity": 0.7480314960629921,
          "duration": 0.0694444166666699
        },
        {
          "name": "G2",
          "midi": 43,
          "time": 196.6665880000005,
          "velocity": 0.8346456692913385,
          "duration": 0.14756938541665932
        },
        {
          "name": "G1",
          "midi": 31,
          "time": 196.6665880000005,
          "velocity": 0.8976377952755905,
          "duration": 0.12499994999998876
        },
        {
          "name": "G4",
          "midi": 67,
          "time": 196.67006022083385,
          "velocity": 0.7874015748031497,
          "duration": 0.07812496874998942
        },
        {
          "name": "A4",
          "midi": 69,
          "time": 196.87492125000048,
          "velocity": 0.7637795275590551,
          "duration": 0.06770830625001167
        },
        {
          "name": "G4",
          "midi": 67,
          "time": 196.87839347083383,
          "velocity": 0.8346456692913385,
          "duration": 0.07465274791667298
        },
        {
          "name": "A4",
          "midi": 69,
          "time": 197.0832545000005,
          "velocity": 0.7716535433070866,
          "duration": 0.0694444166666699
        },
        {
          "name": "G4",
          "midi": 67,
          "time": 197.08672672083384,
          "velocity": 0.7086614173228346,
          "duration": 0.07986107916664764
        },
        {
          "name": "A4",
          "midi": 69,
          "time": 197.29332386041716,
          "velocity": 0.7165354330708661,
          "duration": 0.06249997499998017
        },
        {
          "name": "G4",
          "midi": 67,
          "time": 197.29505997083382,
          "velocity": 0.8346456692913385,
          "duration": 0.08854163124999559
        },
        {
          "name": "D3",
          "midi": 50,
          "time": 197.49992100000048,
          "velocity": 0.8346456692913385,
          "duration": 0.17013882083330145
        },
        {
          "name": "D2",
          "midi": 38,
          "time": 197.49992100000048,
          "velocity": 0.8346456692913385,
          "duration": 0.11284717708329595
        },
        {
          "name": "A4",
          "midi": 69,
          "time": 197.50165711041714,
          "velocity": 0.7874015748031497,
          "duration": 0.06249997499998017
        },
        {
          "name": "D4",
          "midi": 62,
          "time": 197.5033932208338,
          "velocity": 0.8346456692913385,
          "duration": 0.08506941041665073
        },
        {
          "name": "A4",
          "midi": 69,
          "time": 197.70999036041712,
          "velocity": 0.7165354330708661,
          "duration": 0.06597219583332503
        },
        {
          "name": "D4",
          "midi": 62,
          "time": 197.71172647083378,
          "velocity": 0.7874015748031497,
          "duration": 0.07986107916667606
        },
        {
          "name": "A4",
          "midi": 69,
          "time": 197.91832361041713,
          "velocity": 0.7637795275590551,
          "duration": 0.0694444166666699
        },
        {
          "name": "D4",
          "midi": 62,
          "time": 197.9200597208338,
          "velocity": 0.7480314960629921,
          "duration": 0.08680552083333737
        },
        {
          "name": "A4",
          "midi": 69,
          "time": 198.12665686041714,
          "velocity": 0.7086614173228346,
          "duration": 0.06423608541666681
        },
        {
          "name": "D4",
          "midi": 62,
          "time": 198.1301290812505,
          "velocity": 0.8031496062992126,
          "duration": 0.07986107916664764
        },
        {
          "name": "D3",
          "midi": 50,
          "time": 198.33325400000047,
          "velocity": 0.8188976377952756,
          "duration": 0.1649304895833552
        },
        {
          "name": "D2",
          "midi": 38,
          "time": 198.33325400000047,
          "velocity": 0.9212598425196851,
          "duration": 0.1197916187500141
        },
        {
          "name": "A4",
          "midi": 69,
          "time": 198.33499011041712,
          "velocity": 0.7401574803149606,
          "duration": 0.06770830625001167
        },
        {
          "name": "D4",
          "midi": 62,
          "time": 198.33846233125047,
          "velocity": 0.7480314960629921,
          "duration": 0.07465274791667298
        },
        {
          "name": "A4",
          "midi": 69,
          "time": 198.54158725000048,
          "velocity": 0.7165354330708661,
          "duration": 0.06597219583335345
        },
        {
          "name": "D4",
          "midi": 62,
          "time": 198.54505947083382,
          "velocity": 0.7401574803149606,
          "duration": 0.08333330000002093
        },
        {
          "name": "A4",
          "midi": 69,
          "time": 198.74818438958386,
          "velocity": 0.7244094488188977,
          "duration": 0.0694444166666699
        },
        {
          "name": "D4",
          "midi": 62,
          "time": 198.75339272083386,
          "velocity": 0.7716535433070866,
          "duration": 0.07465274791667298
        },
        {
          "name": "A4",
          "midi": 69,
          "time": 198.95651763958386,
          "velocity": 0.7244094488188977,
          "duration": 0.06770830625001167
        },
        {
          "name": "D4",
          "midi": 62,
          "time": 198.96172597083387,
          "velocity": 0.8188976377952756,
          "duration": 0.08333330000002093
        },
        {
          "name": "A4",
          "midi": 69,
          "time": 199.16311477916722,
          "velocity": 0.7401574803149606,
          "duration": 0.06770830625001167
        },
        {
          "name": "D3",
          "midi": 50,
          "time": 199.16658700000056,
          "velocity": 0.7480314960629921,
          "duration": 0.18576381458333913
        },
        {
          "name": "D2",
          "midi": 38,
          "time": 199.16658700000056,
          "velocity": 0.8503937007874016,
          "duration": 0.10243051458334662
        },
        {
          "name": "D4",
          "midi": 62,
          "time": 199.1700592208339,
          "velocity": 0.7480314960629921,
          "duration": 0.0763888583333312
        },
        {
          "name": "A4",
          "midi": 69,
          "time": 199.36971191875057,
          "velocity": 0.7086614173228346,
          "duration": 0.07812496874998942
        },
        {
          "name": "D4",
          "midi": 62,
          "time": 199.37665636041723,
          "velocity": 0.7480314960629921,
          "duration": 0.07291663749998634
        },
        {
          "name": "A4",
          "midi": 69,
          "time": 199.57804516875055,
          "velocity": 0.7401574803149606,
          "duration": 0.0694444166666699
        },
        {
          "name": "D4",
          "midi": 62,
          "time": 199.5849896104172,
          "velocity": 0.7716535433070866,
          "duration": 0.07986107916667606
        },
        {
          "name": "A4",
          "midi": 69,
          "time": 199.78811452916722,
          "velocity": 0.7480314960629921,
          "duration": 0.0763888583333312
        },
        {
          "name": "D4",
          "midi": 62,
          "time": 199.79332286041722,
          "velocity": 0.7637795275590551,
          "duration": 0.0833332999999925
        },
        {
          "name": "A4",
          "midi": 69,
          "time": 199.99818388958388,
          "velocity": 0.7401574803149606,
          "duration": 0.07638885833330278
        },
        {
          "name": "G2",
          "midi": 43,
          "time": 199.99992000000054,
          "velocity": 0.8188976377952756,
          "duration": 0.1788193729166494
        },
        {
          "name": "G1",
          "midi": 31,
          "time": 199.99992000000054,
          "velocity": 0.8818897637795275,
          "duration": 0.14409716458331445
        },
        {
          "name": "G4",
          "midi": 67,
          "time": 200.0016561104172,
          "velocity": 0.8346456692913385,
          "duration": 0.08680552083330895
        },
        {
          "name": "A4",
          "midi": 69,
          "time": 200.20651713958387,
          "velocity": 0.7244094488188977,
          "duration": 0.0694444166666699
        },
        {
          "name": "G4",
          "midi": 67,
          "time": 200.20825325000052,
          "velocity": 0.8188976377952756,
          "duration": 0.08854163125002401
        },
        {
          "name": "A4",
          "midi": 69,
          "time": 200.41485038958388,
          "velocity": 0.7401574803149606,
          "duration": 0.07291663749998634
        },
        {
          "name": "G4",
          "midi": 67,
          "time": 200.41658650000053,
          "velocity": 0.7637795275590551,
          "duration": 0.09027774166665381
        },
        {
          "name": "G4",
          "midi": 67,
          "time": 200.62318363958386,
          "velocity": 0.7244094488188977,
          "duration": 0.08159718958333428
        },
        {
          "name": "A4",
          "midi": 69,
          "time": 200.62318363958386,
          "velocity": 0.7401574803149606,
          "duration": 0.0694444166666699
        },
        {
          "name": "G4",
          "midi": 67,
          "time": 200.83151688958387,
          "velocity": 0.7165354330708661,
          "duration": 0.0833332999999925
        },
        {
          "name": "A4",
          "midi": 69,
          "time": 200.83151688958387,
          "velocity": 0.7716535433070866,
          "duration": 0.06597219583332503
        },
        {
          "name": "G2",
          "midi": 43,
          "time": 200.83325300000052,
          "velocity": 0.8346456692913385,
          "duration": 0.16145826875001035
        },
        {
          "name": "G1",
          "midi": 31,
          "time": 200.83325300000052,
          "velocity": 0.9448818897637795,
          "duration": 0.11631939791666923
        },
        {
          "name": "A4",
          "midi": 69,
          "time": 201.0381140291672,
          "velocity": 0.7401574803149606,
          "duration": 0.0763888583333312
        },
        {
          "name": "G4",
          "midi": 67,
          "time": 201.03985013958385,
          "velocity": 0.7244094488188977,
          "duration": 0.09027774166668223
        },
        {
          "name": "A4",
          "midi": 69,
          "time": 201.24818338958386,
          "velocity": 0.7401574803149606,
          "duration": 0.07291663749998634
        },
        {
          "name": "G4",
          "midi": 67,
          "time": 201.24991950000052,
          "velocity": 0.7480314960629921,
          "duration": 0.09027774166665381
        },
        {
          "name": "A4",
          "midi": 69,
          "time": 201.45651663958384,
          "velocity": 0.7401574803149606,
          "duration": 0.07465274791664456
        },
        {
          "name": "G4",
          "midi": 67,
          "time": 201.4582527500005,
          "velocity": 0.7401574803149606,
          "duration": 0.08159718958330586
        },
        {
          "name": "A4",
          "midi": 69,
          "time": 201.6648498895838,
          "velocity": 0.7401574803149606,
          "duration": 0.08159718958333428
        },
        {
          "name": "G4",
          "midi": 67,
          "time": 201.66658600000045,
          "velocity": 0.8188976377952756,
          "duration": 0.08506941041667915
        },
        {
          "name": "G2",
          "midi": 43,
          "time": 201.66658600000045,
          "velocity": 0.8503937007874016,
          "duration": 0.14756938541668774
        },
        {
          "name": "G1",
          "midi": 31,
          "time": 201.66658600000045,
          "velocity": 0.9448818897637795,
          "duration": 0.13020828125002026
        },
        {
          "name": "G4",
          "midi": 67,
          "time": 201.87491925000046,
          "velocity": 0.7401574803149606,
          "duration": 0.08506941041667915
        },
        {
          "name": "A4",
          "midi": 69,
          "time": 201.87491925000046,
          "velocity": 0.7401574803149606,
          "duration": 0.0694444166666699
        },
        {
          "name": "G4",
          "midi": 67,
          "time": 202.08325250000047,
          "velocity": 0.7874015748031497,
          "duration": 0.07986107916667606
        },
        {
          "name": "A4",
          "midi": 69,
          "time": 202.08325250000047,
          "velocity": 0.7716535433070866,
          "duration": 0.0763888583333312
        },
        {
          "name": "G4",
          "midi": 67,
          "time": 202.29158575000048,
          "velocity": 0.8346456692913385,
          "duration": 0.08854163125002401
        },
        {
          "name": "A4",
          "midi": 69,
          "time": 202.29158575000048,
          "velocity": 0.7480314960629921,
          "duration": 0.06770830625001167
        },
        {
          "name": "D4",
          "midi": 62,
          "time": 202.49991900000052,
          "velocity": 0.7716535433070866,
          "duration": 0.08159718958333428
        },
        {
          "name": "A4",
          "midi": 69,
          "time": 202.49991900000052,
          "velocity": 0.7874015748031497,
          "duration": 0.06770830625001167
        },
        {
          "name": "D3",
          "midi": 50,
          "time": 202.49991900000052,
          "velocity": 0.8503937007874016,
          "duration": 0.15451382708334904
        },
        {
          "name": "D2",
          "midi": 38,
          "time": 202.49991900000052,
          "velocity": 0.7716535433070866,
          "duration": 0.10937495625000793
        },
        {
          "name": "D4",
          "midi": 62,
          "time": 202.70825225000053,
          "velocity": 0.7244094488188977,
          "duration": 0.0833332999999925
        },
        {
          "name": "A4",
          "midi": 69,
          "time": 202.70825225000053,
          "velocity": 0.7637795275590551,
          "duration": 0.0694444166666699
        },
        {
          "name": "D4",
          "midi": 62,
          "time": 202.9165855000005,
          "velocity": 0.7244094488188977,
          "duration": 0.09201385208334045
        },
        {
          "name": "A4",
          "midi": 69,
          "time": 202.9165855000005,
          "velocity": 0.8031496062992126,
          "duration": 0.06423608541666681
        },
        {
          "name": "A4",
          "midi": 69,
          "time": 203.12491875000052,
          "velocity": 0.8346456692913385,
          "duration": 0.07465274791664456
        },
        {
          "name": "D4",
          "midi": 62,
          "time": 203.12665486041718,
          "velocity": 0.7086614173228346,
          "duration": 0.08854163124999559
        },
        {
          "name": "A4",
          "midi": 69,
          "time": 203.3332520000005,
          "velocity": 0.7480314960629921,
          "duration": 0.07291663749998634
        },
        {
          "name": "D3",
          "midi": 50,
          "time": 203.3332520000005,
          "velocity": 0.8031496062992126,
          "duration": 0.14930549583331754
        },
        {
          "name": "D2",
          "midi": 38,
          "time": 203.3332520000005,
          "velocity": 0.8503937007874016,
          "duration": 0.11458328749998259
        },
        {
          "name": "D4",
          "midi": 62,
          "time": 203.33498811041716,
          "velocity": 0.7401574803149606,
          "duration": 0.09027774166665381
        },
        {
          "name": "A4",
          "midi": 69,
          "time": 203.53984913958382,
          "velocity": 0.7637795275590551,
          "duration": 0.06770830624998325
        },
        {
          "name": "D4",
          "midi": 62,
          "time": 203.54158525000048,
          "velocity": 0.6929133858267716,
          "duration": 0.09374996249999867
        },
        {
          "name": "A4",
          "midi": 69,
          "time": 203.7481823895838,
          "velocity": 0.8346456692913385,
          "duration": 0.06770830624998325
        },
        {
          "name": "D4",
          "midi": 62,
          "time": 203.74991850000046,
          "velocity": 0.7165354330708661,
          "duration": 0.09374996249999867
        },
        {
          "name": "A4",
          "midi": 69,
          "time": 203.95477952916713,
          "velocity": 0.7716535433070866,
          "duration": 0.0763888583333312
        },
        {
          "name": "D4",
          "midi": 62,
          "time": 203.95825175000047,
          "velocity": 0.7165354330708661,
          "duration": 0.08506941041665073
        },
        {
          "name": "A4",
          "midi": 69,
          "time": 204.16311277916714,
          "velocity": 0.7637795275590551,
          "duration": 0.0694444166666699
        },
        {
          "name": "D3",
          "midi": 50,
          "time": 204.16658500000048,
          "velocity": 0.8346456692913385,
          "duration": 0.166666599999985
        },
        {
          "name": "D2",
          "midi": 38,
          "time": 204.16658500000048,
          "velocity": 0.8818897637795275,
          "duration": 0.11805550833332745
        },
        {
          "name": "D4",
          "midi": 62,
          "time": 204.16832111041714,
          "velocity": 0.7480314960629921,
          "duration": 0.0954860729166569
        },
        {
          "name": "A4",
          "midi": 69,
          "time": 204.37144602916715,
          "velocity": 0.7480314960629921,
          "duration": 0.07465274791667298
        },
        {
          "name": "D4",
          "midi": 62,
          "time": 204.37665436041715,
          "velocity": 0.7401574803149606,
          "duration": 0.0833332999999925
        },
        {
          "name": "A4",
          "midi": 69,
          "time": 204.5815153895838,
          "velocity": 0.7637795275590551,
          "duration": 0.0694444166666699
        },
        {
          "name": "D4",
          "midi": 62,
          "time": 204.58498761041716,
          "velocity": 0.7480314960629921,
          "duration": 0.0833332999999925
        },
        {
          "name": "A4",
          "midi": 69,
          "time": 204.78984863958382,
          "velocity": 0.8031496062992126,
          "duration": 0.06597219583332503
        },
        {
          "name": "D4",
          "midi": 62,
          "time": 204.79505697083383,
          "velocity": 0.7716535433070866,
          "duration": 0.08506941041665073
        },
        {
          "name": "A4",
          "midi": 69,
          "time": 204.9981818895838,
          "velocity": 0.8188976377952756,
          "duration": 0.07118052708332812
        },
        {
          "name": "G2",
          "midi": 43,
          "time": 204.99991800000046,
          "velocity": 0.8503937007874016,
          "duration": 0.16666660000001343
        },
        {
          "name": "G1",
          "midi": 31,
          "time": 204.99991800000046,
          "velocity": 0.9448818897637795,
          "duration": 0.12847217083333362
        },
        {
          "name": "G4",
          "midi": 67,
          "time": 205.0033902208338,
          "velocity": 0.8346456692913385,
          "duration": 0.0833332999999925
        },
        {
          "name": "A4",
          "midi": 69,
          "time": 205.20825125000047,
          "velocity": 0.7716535433070866,
          "duration": 0.06423608541666681
        },
        {
          "name": "G4",
          "midi": 67,
          "time": 205.21172347083382,
          "velocity": 0.7637795275590551,
          "duration": 0.08506941041665073
        },
        {
          "name": "A4",
          "midi": 69,
          "time": 205.4148483895838,
          "velocity": 0.7874015748031497,
          "duration": 0.0694444166666699
        },
        {
          "name": "G4",
          "midi": 67,
          "time": 205.41832061041714,
          "velocity": 0.7716535433070866,
          "duration": 0.09374996249999867
        },
        {
          "name": "A4",
          "midi": 69,
          "time": 205.6231816395838,
          "velocity": 0.7716535433070866,
          "duration": 0.06597219583335345
        },
        {
          "name": "G4",
          "midi": 67,
          "time": 205.62665386041715,
          "velocity": 0.7165354330708661,
          "duration": 0.08854163124999559
        },
        {
          "name": "A4",
          "midi": 69,
          "time": 205.83151488958381,
          "velocity": 0.7874015748031497,
          "duration": 0.07118052708332812
        },
        {
          "name": "G2",
          "midi": 43,
          "time": 205.83325100000047,
          "velocity": 0.8503937007874016,
          "duration": 0.16840271041667165
        },
        {
          "name": "G1",
          "midi": 31,
          "time": 205.83325100000047,
          "velocity": 0.9606299212598425,
          "duration": 0.13715272291668157
        },
        {
          "name": "G4",
          "midi": 67,
          "time": 205.83498711041713,
          "velocity": 0.7401574803149606,
          "duration": 0.09027774166668223
        },
        {
          "name": "A4",
          "midi": 69,
          "time": 206.03811202916714,
          "velocity": 0.6771653543307087,
          "duration": 0.07118052708332812
        },
        {
          "name": "G4",
          "midi": 67,
          "time": 206.04332036041714,
          "velocity": 0.7165354330708661,
          "duration": 0.08854163124999559
        },
        {
          "name": "A4",
          "midi": 69,
          "time": 206.24644527916715,
          "velocity": 0.7480314960629921,
          "duration": 0.07118052708332812
        },
        {
          "name": "G4",
          "midi": 67,
          "time": 206.2533897208338,
          "velocity": 0.7244094488188977,
          "duration": 0.08680552083333737
        },
        {
          "name": "A4",
          "midi": 69,
          "time": 206.45477852916716,
          "velocity": 0.7401574803149606,
          "duration": 0.07291663750001476
        },
        {
          "name": "G4",
          "midi": 67,
          "time": 206.45998686041716,
          "velocity": 0.7716535433070866,
          "duration": 0.07465274791667298
        },
        {
          "name": "A4",
          "midi": 69,
          "time": 206.66311177916717,
          "velocity": 0.7874015748031497,
          "duration": 0.06770830625001167
        },
        {
          "name": "G2",
          "midi": 43,
          "time": 206.6665840000005,
          "velocity": 0.8503937007874016,
          "duration": 0.17187493125001652
        },
        {
          "name": "G1",
          "midi": 31,
          "time": 206.6665840000005,
          "velocity": 0.8661417322834646,
          "duration": 0.13194439166667848
        },
        {
          "name": "G4",
          "midi": 67,
          "time": 206.66832011041717,
          "velocity": 0.7874015748031497,
          "duration": 0.07812496875001784
        },
        {
          "name": "A4",
          "midi": 69,
          "time": 206.8714450291672,
          "velocity": 0.7637795275590551,
          "duration": 0.06770830625001167
        },
        {
          "name": "G4",
          "midi": 67,
          "time": 206.8766533604172,
          "velocity": 0.8031496062992126,
          "duration": 0.07986107916667606
        },
        {
          "name": "A4",
          "midi": 69,
          "time": 207.08151438958387,
          "velocity": 0.7480314960629921,
          "duration": 0.07465274791667298
        },
        {
          "name": "G4",
          "midi": 67,
          "time": 207.08672272083388,
          "velocity": 0.7401574803149606,
          "duration": 0.07812496874998942
        },
        {
          "name": "A4",
          "midi": 69,
          "time": 207.29158375000054,
          "velocity": 0.7637795275590551,
          "duration": 0.0694444166666699
        },
        {
          "name": "G4",
          "midi": 67,
          "time": 207.2933198604172,
          "velocity": 0.8031496062992126,
          "duration": 0.09374996249999867
        },
        {
          "name": "D4",
          "midi": 62,
          "time": 207.49991700000052,
          "velocity": 0.7716535433070866,
          "duration": 0.08680552083330895
        },
        {
          "name": "D3",
          "midi": 50,
          "time": 207.49991700000052,
          "velocity": 0.8346456692913385,
          "duration": 0.19444436666663023
        },
        {
          "name": "D2",
          "midi": 38,
          "time": 207.49991700000052,
          "velocity": 0.8188976377952756,
          "duration": 0.1215277291666439
        },
        {
          "name": "A4",
          "midi": 69,
          "time": 207.50165311041718,
          "velocity": 0.7716535433070866,
          "duration": 0.07812496874998942
        },
        {
          "name": "D4",
          "midi": 62,
          "time": 207.70825025000048,
          "velocity": 0.6850393700787402,
          "duration": 0.08854163124999559
        },
        {
          "name": "A4",
          "midi": 69,
          "time": 207.71172247083382,
          "velocity": 0.7401574803149606,
          "duration": 0.04340276041665447
        },
        {
          "name": "D4",
          "midi": 62,
          "time": 207.91831961041714,
          "velocity": 0.7165354330708661,
          "duration": 0.0954860729166569
        },
        {
          "name": "A4",
          "midi": 69,
          "time": 207.9200557208338,
          "velocity": 0.7874015748031497,
          "duration": 0.07291663749998634
        },
        {
          "name": "D4",
          "midi": 62,
          "time": 208.1283889708338,
          "velocity": 0.7165354330708661,
          "duration": 0.08680552083333737
        },
        {
          "name": "A4",
          "midi": 69,
          "time": 208.1283889708338,
          "velocity": 0.7480314960629921,
          "duration": 0.07118052708332812
        },
        {
          "name": "D3",
          "midi": 50,
          "time": 208.33325000000048,
          "velocity": 0.7480314960629921,
          "duration": 0.218749912499959
        },
        {
          "name": "D2",
          "midi": 38,
          "time": 208.33325000000048,
          "velocity": 0.8503937007874016,
          "duration": 0.13368050208330828
        },
        {
          "name": "D4",
          "midi": 62,
          "time": 208.33498611041713,
          "velocity": 0.7165354330708661,
          "duration": 0.0954860729166569
        },
        {
          "name": "A4",
          "midi": 69,
          "time": 208.3367222208338,
          "velocity": 0.7637795275590551,
          "duration": 0.06597219583332503
        },
        {
          "name": "A4",
          "midi": 69,
          "time": 208.54505547083377,
          "velocity": 0.7637795275590551,
          "duration": 0.06076386458332195
        },
        {
          "name": "D4",
          "midi": 62,
          "time": 208.54679158125043,
          "velocity": 0.7086614173228346,
          "duration": 0.09027774166665381
        },
        {
          "name": "A4",
          "midi": 69,
          "time": 208.7516526104171,
          "velocity": 0.7716535433070866,
          "duration": 0.0694444166666699
        },
        {
          "name": "D4",
          "midi": 62,
          "time": 208.75338872083375,
          "velocity": 0.6692913385826772,
          "duration": 0.09027774166668223
        },
        {
          "name": "A4",
          "midi": 69,
          "time": 208.9599858604171,
          "velocity": 0.6771653543307087,
          "duration": 0.06770830625001167
        },
        {
          "name": "D4",
          "midi": 62,
          "time": 208.96345808125045,
          "velocity": 0.6614173228346457,
          "duration": 0.08159718958333428
        },
        {
          "name": "A4",
          "midi": 69,
          "time": 209.16658300000046,
          "velocity": 0.7165354330708661,
          "duration": 0.07118052708335654
        },
        {
          "name": "D3",
          "midi": 50,
          "time": 209.16658300000046,
          "velocity": 0.8188976377952756,
          "duration": 0.1597221583333237
        },
        {
          "name": "D2",
          "midi": 38,
          "time": 209.16658300000046,
          "velocity": 0.8661417322834646,
          "duration": 0.12326383958333054
        },
        {
          "name": "D4",
          "midi": 62,
          "time": 209.1700552208338,
          "velocity": 0.6771653543307087,
          "duration": 0.09374996249999867
        },
        {
          "name": "A4",
          "midi": 69,
          "time": 209.37491625000044,
          "velocity": 0.7165354330708661,
          "duration": 0.07986107916667606
        },
        {
          "name": "D4",
          "midi": 62,
          "time": 209.37838847083378,
          "velocity": 0.6377952755905512,
          "duration": 0.08680552083333737
        },
        {
          "name": "A4",
          "midi": 69,
          "time": 209.58324950000045,
          "velocity": 0.7244094488188977,
          "duration": 0.07291663750001476
        },
        {
          "name": "D4",
          "midi": 62,
          "time": 209.58845783125045,
          "velocity": 0.6692913385826772,
          "duration": 0.09548607291668532
        },
        {
          "name": "A4",
          "midi": 69,
          "time": 209.7898466395838,
          "velocity": 0.6614173228346457,
          "duration": 0.07465274791667298
        },
        {
          "name": "D4",
          "midi": 62,
          "time": 209.7950549708338,
          "velocity": 0.6535433070866141,
          "duration": 0.09374996249999867
        },
        {
          "name": "A4",
          "midi": 69,
          "time": 209.99991600000047,
          "velocity": 0.7637795275590551,
          "duration": 0.07291663749998634
        },
        {
          "name": "A2",
          "midi": 45,
          "time": 209.99991600000047,
          "velocity": 0.7874015748031497,
          "duration": 0.16840271041664323
        },
        {
          "name": "A1",
          "midi": 33,
          "time": 209.99991600000047,
          "velocity": 0.9212598425196851,
          "duration": 0.14409716458331445
        },
        {
          "name": "A4",
          "midi": 69,
          "time": 210.20824925000045,
          "velocity": 0.7244094488188977,
          "duration": 0.07291663749998634
        },
        {
          "name": "A4",
          "midi": 69,
          "time": 210.41484638958377,
          "velocity": 0.7244094488188977,
          "duration": 0.07465274791667298
        },
        {
          "name": "A4",
          "midi": 69,
          "time": 210.62317963958378,
          "velocity": 0.6614173228346457,
          "duration": 0.07118052708332812
        },
        {
          "name": "A4",
          "midi": 69,
          "time": 210.83151288958376,
          "velocity": 0.7480314960629921,
          "duration": 0.07291663749998634
        },
        {
          "name": "A2",
          "midi": 45,
          "time": 210.83324900000042,
          "velocity": 0.8503937007874016,
          "duration": 0.16145826874998193
        },
        {
          "name": "A1",
          "midi": 33,
          "time": 210.83324900000042,
          "velocity": 0.9606299212598425,
          "duration": 0.1649304895833268
        },
        {
          "name": "A4",
          "midi": 69,
          "time": 211.03984613958374,
          "velocity": 0.7637795275590551,
          "duration": 0.07291663749998634
        },
        {
          "name": "A4",
          "midi": 69,
          "time": 211.24817938958373,
          "velocity": 0.7874015748031497,
          "duration": 0.06423608541666681
        },
        {
          "name": "A4",
          "midi": 69,
          "time": 211.45477652916705,
          "velocity": 0.7244094488188977,
          "duration": 0.0694444166666699
        },
        {
          "name": "A4",
          "midi": 69,
          "time": 211.66310977916706,
          "velocity": 0.7480314960629921,
          "duration": 0.07465274791667298
        },
        {
          "name": "A2",
          "midi": 45,
          "time": 211.6665820000004,
          "velocity": 0.8976377952755905,
          "duration": 0.14236105416665623
        },
        {
          "name": "A1",
          "midi": 33,
          "time": 211.6665820000004,
          "velocity": 1,
          "duration": 0.13194439166665006
        },
        {
          "name": "A4",
          "midi": 69,
          "time": 211.86970691875038,
          "velocity": 0.7244094488188977,
          "duration": 0.06770830625001167
        },
        {
          "name": "A4",
          "midi": 69,
          "time": 212.0780401687504,
          "velocity": 0.7637795275590551,
          "duration": 0.07118052708332812
        },
        {
          "name": "A4",
          "midi": 69,
          "time": 212.28810952916706,
          "velocity": 0.7716535433070866,
          "duration": 0.0694444166666699
        },
        {
          "name": "D4",
          "midi": 62,
          "time": 212.49991500000039,
          "velocity": 0.8188976377952756,
          "duration": 0.09374996249999867
        },
        {
          "name": "A4",
          "midi": 69,
          "time": 212.49991500000039,
          "velocity": 0.6062992125984252,
          "duration": 0.08680552083333737
        },
        {
          "name": "D3",
          "midi": 50,
          "time": 212.49991500000039,
          "velocity": 0.8976377952755905,
          "duration": 0.17708326249999118
        },
        {
          "name": "D2",
          "midi": 38,
          "time": 212.49991500000039,
          "velocity": 0.9606299212598425,
          "duration": 0.15104160625000418
        },
        {
          "name": "A4",
          "midi": 69,
          "time": 212.7117204708337,
          "velocity": 0.5748031496062992,
          "duration": 0.08506941041665073
        },
        {
          "name": "D4",
          "midi": 62,
          "time": 212.71345658125037,
          "velocity": 0.7637795275590551,
          "duration": 0.08506941041665073
        },
        {
          "name": "A4",
          "midi": 69,
          "time": 212.9200537208337,
          "velocity": 0.6062992125984252,
          "duration": 0.08506941041665073
        },
        {
          "name": "D4",
          "midi": 62,
          "time": 212.92178983125035,
          "velocity": 0.7401574803149606,
          "duration": 0.08854163124999559
        },
        {
          "name": "A4",
          "midi": 69,
          "time": 213.13012308125036,
          "velocity": 0.6535433070866141,
          "duration": 0.07118052708332812
        },
        {
          "name": "D4",
          "midi": 62,
          "time": 213.13185919166702,
          "velocity": 0.7874015748031497,
          "duration": 0.08506941041667915
        },
        {
          "name": "D3",
          "midi": 50,
          "time": 213.33324800000037,
          "velocity": 0.8503937007874016,
          "duration": 0.14409716458334287
        },
        {
          "name": "D2",
          "midi": 38,
          "time": 213.33324800000037,
          "velocity": 0.9606299212598425,
          "duration": 0.1197916187500141
        },
        {
          "name": "A4",
          "midi": 69,
          "time": 213.3367202208337,
          "velocity": 0.7401574803149606,
          "duration": 0.0763888583333312
        },
        {
          "name": "D4",
          "midi": 62,
          "time": 213.33845633125037,
          "velocity": 0.8031496062992126,
          "duration": 0.08159718958333428
        },
        {
          "name": "D4",
          "midi": 62,
          "time": 213.54505347083372,
          "velocity": 0.7480314960629921,
          "duration": 0.0763888583333312
        },
        {
          "name": "A4",
          "midi": 69,
          "time": 213.54505347083372,
          "velocity": 0.6771653543307087,
          "duration": 0.06597219583332503
        },
        {
          "name": "A4",
          "midi": 69,
          "time": 213.75165061041704,
          "velocity": 0.7165354330708661,
          "duration": 0.06597219583332503
        },
        {
          "name": "D4",
          "midi": 62,
          "time": 213.7533867208337,
          "velocity": 0.7165354330708661,
          "duration": 0.07986107916667606
        },
        {
          "name": "A4",
          "midi": 69,
          "time": 213.95824775000037,
          "velocity": 0.6377952755905512,
          "duration": 0.06423608541666681
        },
        {
          "name": "D4",
          "midi": 62,
          "time": 213.95998386041703,
          "velocity": 0.7637795275590551,
          "duration": 0.08159718958333428
        },
        {
          "name": "A4",
          "midi": 69,
          "time": 214.1648448895837,
          "velocity": 0.7716535433070866,
          "duration": 0.06944441666664147
        },
        {
          "name": "D3",
          "midi": 50,
          "time": 214.16658100000035,
          "velocity": 0.7716535433070866,
          "duration": 0.166666599999985
        },
        {
          "name": "D2",
          "midi": 38,
          "time": 214.16658100000035,
          "velocity": 0.8661417322834646,
          "duration": 0.12673606041664698
        },
        {
          "name": "D4",
          "midi": 62,
          "time": 214.168317110417,
          "velocity": 0.7716535433070866,
          "duration": 0.0833332999999925
        },
        {
          "name": "A4",
          "midi": 69,
          "time": 214.37317813958367,
          "velocity": 0.7637795275590551,
          "duration": 0.0763888583333312
        },
        {
          "name": "D4",
          "midi": 62,
          "time": 214.37665036041702,
          "velocity": 0.7874015748031497,
          "duration": 0.07812496874998942
        },
        {
          "name": "A4",
          "midi": 69,
          "time": 214.58151138958368,
          "velocity": 0.7401574803149606,
          "duration": 0.07118052708332812
        },
        {
          "name": "D4",
          "midi": 62,
          "time": 214.58671972083368,
          "velocity": 0.7637795275590551,
          "duration": 0.08159718958333428
        },
        {
          "name": "A4",
          "midi": 69,
          "time": 214.79158075000035,
          "velocity": 0.7716535433070866,
          "duration": 0.06770830625001167
        },
        {
          "name": "D4",
          "midi": 62,
          "time": 214.7950529708337,
          "velocity": 0.7874015748031497,
          "duration": 0.08159718958333428
        },
        {
          "name": "G2",
          "midi": 43,
          "time": 214.99991400000036,
          "velocity": 0.8661417322834646,
          "duration": 0.17187493125001652
        },
        {
          "name": "G1",
          "midi": 31,
          "time": 214.99991400000036,
          "velocity": 0.8818897637795275,
          "duration": 0.13715272291668157
        },
        {
          "name": "A4",
          "midi": 69,
          "time": 215.00165011041702,
          "velocity": 0.8031496062992126,
          "duration": 0.06770830625001167
        },
        {
          "name": "G4",
          "midi": 67,
          "time": 215.00512233125036,
          "velocity": 0.8818897637795275,
          "duration": 0.08680552083333737
        },
        {
          "name": "A4",
          "midi": 69,
          "time": 215.20824725000037,
          "velocity": 0.7637795275590551,
          "duration": 0.0694444166666699
        },
        {
          "name": "G4",
          "midi": 67,
          "time": 215.2117194708337,
          "velocity": 0.7716535433070866,
          "duration": 0.0763888583333312
        },
        {
          "name": "A4",
          "midi": 69,
          "time": 215.41484438958372,
          "velocity": 0.8346456692913385,
          "duration": 0.07118052708335654
        },
        {
          "name": "G4",
          "midi": 67,
          "time": 215.41831661041707,
          "velocity": 0.7874015748031497,
          "duration": 0.08333330000002093
        },
        {
          "name": "A4",
          "midi": 69,
          "time": 215.62317763958376,
          "velocity": 0.7480314960629921,
          "duration": 0.06770830625001167
        },
        {
          "name": "G4",
          "midi": 67,
          "time": 215.62838597083376,
          "velocity": 0.8188976377952756,
          "duration": 0.08159718958333428
        },
        {
          "name": "A4",
          "midi": 69,
          "time": 215.8297747791671,
          "velocity": 0.7874015748031497,
          "duration": 0.0694444166666699
        },
        {
          "name": "G2",
          "midi": 43,
          "time": 215.83324700000045,
          "velocity": 0.8503937007874016,
          "duration": 0.140624943749998
        },
        {
          "name": "G1",
          "midi": 31,
          "time": 215.83324700000045,
          "velocity": 0.8976377952755905,
          "duration": 0.13020828124999184
        },
        {
          "name": "G4",
          "midi": 67,
          "time": 215.8349831104171,
          "velocity": 0.8031496062992126,
          "duration": 0.0833332999999925
        },
        {
          "name": "A4",
          "midi": 69,
          "time": 216.03810802916712,
          "velocity": 0.7716535433070866,
          "duration": 0.0694444166666699
        },
        {
          "name": "G4",
          "midi": 67,
          "time": 216.04331636041712,
          "velocity": 0.8188976377952756,
          "duration": 0.07986107916667606
        },
        {
          "name": "A4",
          "midi": 69,
          "time": 216.2481773895838,
          "velocity": 0.7637795275590551,
          "duration": 0.06597219583332503
        },
        {
          "name": "G4",
          "midi": 67,
          "time": 216.2533857208338,
          "velocity": 0.8031496062992126,
          "duration": 0.08159718958333428
        },
        {
          "name": "A4",
          "midi": 69,
          "time": 216.4565106395838,
          "velocity": 0.7874015748031497,
          "duration": 0.0694444166666699
        },
        {
          "name": "G4",
          "midi": 67,
          "time": 216.4617189708338,
          "velocity": 0.8031496062992126,
          "duration": 0.0833332999999925
        },
        {
          "name": "A4",
          "midi": 69,
          "time": 216.6648438895838,
          "velocity": 0.7480314960629921,
          "duration": 0.0694444166666699
        },
        {
          "name": "G2",
          "midi": 43,
          "time": 216.66658000000047,
          "velocity": 0.8346456692913385,
          "duration": 0.14756938541665932
        },
        {
          "name": "G1",
          "midi": 31,
          "time": 216.66658000000047,
          "velocity": 0.8976377952755905,
          "duration": 0.12499994999998876
        },
        {
          "name": "G4",
          "midi": 67,
          "time": 216.6700522208338,
          "velocity": 0.7874015748031497,
          "duration": 0.07812496874998942
        },
        {
          "name": "A4",
          "midi": 69,
          "time": 216.87491325000045,
          "velocity": 0.7637795275590551,
          "duration": 0.06770830625001167
        },
        {
          "name": "G4",
          "midi": 67,
          "time": 216.8783854708338,
          "velocity": 0.8346456692913385,
          "duration": 0.07465274791667298
        },
        {
          "name": "A4",
          "midi": 69,
          "time": 217.08324650000046,
          "velocity": 0.7716535433070866,
          "duration": 0.0694444166666699
        },
        {
          "name": "G4",
          "midi": 67,
          "time": 217.0867187208338,
          "velocity": 0.7086614173228346,
          "duration": 0.07986107916664764
        },
        {
          "name": "A4",
          "midi": 69,
          "time": 217.29331586041712,
          "velocity": 0.7165354330708661,
          "duration": 0.06249997499998017
        },
        {
          "name": "G4",
          "midi": 67,
          "time": 217.29505197083378,
          "velocity": 0.8346456692913385,
          "duration": 0.08854163124999559
        },
        {
          "name": "D3",
          "midi": 50,
          "time": 217.49991300000045,
          "velocity": 0.8346456692913385,
          "duration": 0.17013882083330145
        },
        {
          "name": "D2",
          "midi": 38,
          "time": 217.49991300000045,
          "velocity": 0.8346456692913385,
          "duration": 0.11284717708329595
        },
        {
          "name": "A4",
          "midi": 69,
          "time": 217.5016491104171,
          "velocity": 0.7874015748031497,
          "duration": 0.06249997499998017
        },
        {
          "name": "D4",
          "midi": 62,
          "time": 217.50338522083376,
          "velocity": 0.8346456692913385,
          "duration": 0.08506941041665073
        },
        {
          "name": "A4",
          "midi": 69,
          "time": 217.7099823604171,
          "velocity": 0.7165354330708661,
          "duration": 0.06597219583332503
        },
        {
          "name": "D4",
          "midi": 62,
          "time": 217.71171847083374,
          "velocity": 0.7874015748031497,
          "duration": 0.07986107916667606
        },
        {
          "name": "A4",
          "midi": 69,
          "time": 217.9183156104171,
          "velocity": 0.7637795275590551,
          "duration": 0.0694444166666699
        },
        {
          "name": "D4",
          "midi": 62,
          "time": 217.92005172083375,
          "velocity": 0.7480314960629921,
          "duration": 0.08680552083333737
        },
        {
          "name": "A4",
          "midi": 69,
          "time": 218.1266488604171,
          "velocity": 0.7086614173228346,
          "duration": 0.06423608541666681
        },
        {
          "name": "D4",
          "midi": 62,
          "time": 218.13012108125045,
          "velocity": 0.8031496062992126,
          "duration": 0.07986107916664764
        },
        {
          "name": "D3",
          "midi": 50,
          "time": 218.33324600000043,
          "velocity": 0.8188976377952756,
          "duration": 0.1649304895833552
        },
        {
          "name": "D2",
          "midi": 38,
          "time": 218.33324600000043,
          "velocity": 0.9212598425196851,
          "duration": 0.1197916187500141
        },
        {
          "name": "A4",
          "midi": 69,
          "time": 218.3349821104171,
          "velocity": 0.7401574803149606,
          "duration": 0.06770830625001167
        },
        {
          "name": "D4",
          "midi": 62,
          "time": 218.33845433125043,
          "velocity": 0.7480314960629921,
          "duration": 0.07465274791667298
        },
        {
          "name": "A4",
          "midi": 69,
          "time": 218.54157925000044,
          "velocity": 0.7165354330708661,
          "duration": 0.06597219583335345
        },
        {
          "name": "D4",
          "midi": 62,
          "time": 218.54505147083378,
          "velocity": 0.7401574803149606,
          "duration": 0.08333330000002093
        },
        {
          "name": "A4",
          "midi": 69,
          "time": 218.74817638958382,
          "velocity": 0.7244094488188977,
          "duration": 0.0694444166666699
        },
        {
          "name": "D4",
          "midi": 62,
          "time": 218.75338472083382,
          "velocity": 0.7716535433070866,
          "duration": 0.07465274791667298
        },
        {
          "name": "A4",
          "midi": 69,
          "time": 218.95650963958383,
          "velocity": 0.7244094488188977,
          "duration": 0.06770830625001167
        },
        {
          "name": "D4",
          "midi": 62,
          "time": 218.96171797083383,
          "velocity": 0.8188976377952756,
          "duration": 0.08333330000002093
        },
        {
          "name": "A4",
          "midi": 69,
          "time": 219.16310677916718,
          "velocity": 0.7401574803149606,
          "duration": 0.06770830625001167
        },
        {
          "name": "D3",
          "midi": 50,
          "time": 219.16657900000052,
          "velocity": 0.7480314960629921,
          "duration": 0.18576381458333913
        },
        {
          "name": "D2",
          "midi": 38,
          "time": 219.16657900000052,
          "velocity": 0.8503937007874016,
          "duration": 0.10243051458334662
        },
        {
          "name": "D4",
          "midi": 62,
          "time": 219.17005122083387,
          "velocity": 0.7480314960629921,
          "duration": 0.0763888583333312
        },
        {
          "name": "A4",
          "midi": 69,
          "time": 219.36970391875053,
          "velocity": 0.7086614173228346,
          "duration": 0.07812496874998942
        },
        {
          "name": "D4",
          "midi": 62,
          "time": 219.3766483604172,
          "velocity": 0.7480314960629921,
          "duration": 0.07291663749998634
        },
        {
          "name": "A4",
          "midi": 69,
          "time": 219.5780371687505,
          "velocity": 0.7401574803149606,
          "duration": 0.0694444166666699
        },
        {
          "name": "D4",
          "midi": 62,
          "time": 219.58498161041717,
          "velocity": 0.7716535433070866,
          "duration": 0.07986107916667606
        },
        {
          "name": "A4",
          "midi": 69,
          "time": 219.78810652916718,
          "velocity": 0.7480314960629921,
          "duration": 0.0763888583333312
        },
        {
          "name": "D4",
          "midi": 62,
          "time": 219.79331486041718,
          "velocity": 0.7637795275590551,
          "duration": 0.0833332999999925
        },
        {
          "name": "A4",
          "midi": 69,
          "time": 219.99817588958385,
          "velocity": 0.7401574803149606,
          "duration": 0.07638885833330278
        },
        {
          "name": "G2",
          "midi": 43,
          "time": 219.9999120000005,
          "velocity": 0.8188976377952756,
          "duration": 0.1788193729166494
        },
        {
          "name": "G1",
          "midi": 31,
          "time": 219.9999120000005,
          "velocity": 0.8818897637795275,
          "duration": 0.14409716458331445
        },
        {
          "name": "G4",
          "midi": 67,
          "time": 220.00164811041716,
          "velocity": 0.8346456692913385,
          "duration": 0.08680552083330895
        },
        {
          "name": "A4",
          "midi": 69,
          "time": 220.20650913958383,
          "velocity": 0.7244094488188977,
          "duration": 0.0694444166666699
        },
        {
          "name": "G4",
          "midi": 67,
          "time": 220.2082452500005,
          "velocity": 0.8188976377952756,
          "duration": 0.08854163125002401
        },
        {
          "name": "A4",
          "midi": 69,
          "time": 220.41484238958384,
          "velocity": 0.7401574803149606,
          "duration": 0.07291663749998634
        },
        {
          "name": "G4",
          "midi": 67,
          "time": 220.4165785000005,
          "velocity": 0.7637795275590551,
          "duration": 0.09027774166665381
        },
        {
          "name": "G4",
          "midi": 67,
          "time": 220.62317563958382,
          "velocity": 0.7244094488188977,
          "duration": 0.08159718958333428
        },
        {
          "name": "A4",
          "midi": 69,
          "time": 220.62317563958382,
          "velocity": 0.7401574803149606,
          "duration": 0.0694444166666699
        },
        {
          "name": "G4",
          "midi": 67,
          "time": 220.83150888958383,
          "velocity": 0.7165354330708661,
          "duration": 0.0833332999999925
        },
        {
          "name": "A4",
          "midi": 69,
          "time": 220.83150888958383,
          "velocity": 0.7716535433070866,
          "duration": 0.06597219583332503
        },
        {
          "name": "G2",
          "midi": 43,
          "time": 220.8332450000005,
          "velocity": 0.8346456692913385,
          "duration": 0.16145826875001035
        },
        {
          "name": "G1",
          "midi": 31,
          "time": 220.8332450000005,
          "velocity": 0.9448818897637795,
          "duration": 0.11631939791666923
        },
        {
          "name": "A4",
          "midi": 69,
          "time": 221.03810602916715,
          "velocity": 0.7401574803149606,
          "duration": 0.0763888583333312
        },
        {
          "name": "G4",
          "midi": 67,
          "time": 221.0398421395838,
          "velocity": 0.7244094488188977,
          "duration": 0.09027774166668223
        },
        {
          "name": "A4",
          "midi": 69,
          "time": 221.24817538958382,
          "velocity": 0.7401574803149606,
          "duration": 0.07291663749998634
        },
        {
          "name": "G4",
          "midi": 67,
          "time": 221.24991150000048,
          "velocity": 0.7480314960629921,
          "duration": 0.09027774166665381
        },
        {
          "name": "A4",
          "midi": 69,
          "time": 221.4565086395838,
          "velocity": 0.7401574803149606,
          "duration": 0.07465274791664456
        },
        {
          "name": "G4",
          "midi": 67,
          "time": 221.45824475000046,
          "velocity": 0.7401574803149606,
          "duration": 0.08159718958330586
        },
        {
          "name": "A4",
          "midi": 69,
          "time": 221.66484188958376,
          "velocity": 0.7401574803149606,
          "duration": 0.08159718958333428
        },
        {
          "name": "G4",
          "midi": 67,
          "time": 221.6665780000004,
          "velocity": 0.8188976377952756,
          "duration": 0.08506941041667915
        },
        {
          "name": "G2",
          "midi": 43,
          "time": 221.6665780000004,
          "velocity": 0.8503937007874016,
          "duration": 0.14756938541668774
        },
        {
          "name": "G1",
          "midi": 31,
          "time": 221.6665780000004,
          "velocity": 0.9448818897637795,
          "duration": 0.13020828125002026
        },
        {
          "name": "G4",
          "midi": 67,
          "time": 221.87491125000042,
          "velocity": 0.7401574803149606,
          "duration": 0.08506941041667915
        },
        {
          "name": "A4",
          "midi": 69,
          "time": 221.87491125000042,
          "velocity": 0.7401574803149606,
          "duration": 0.0694444166666699
        },
        {
          "name": "G4",
          "midi": 67,
          "time": 222.08324450000043,
          "velocity": 0.7874015748031497,
          "duration": 0.07986107916667606
        },
        {
          "name": "A4",
          "midi": 69,
          "time": 222.08324450000043,
          "velocity": 0.7716535433070866,
          "duration": 0.0763888583333312
        },
        {
          "name": "G4",
          "midi": 67,
          "time": 222.29157775000044,
          "velocity": 0.8346456692913385,
          "duration": 0.08854163125002401
        },
        {
          "name": "A4",
          "midi": 69,
          "time": 222.29157775000044,
          "velocity": 0.7480314960629921,
          "duration": 0.06770830625001167
        },
        {
          "name": "D4",
          "midi": 62,
          "time": 222.49991100000048,
          "velocity": 0.7716535433070866,
          "duration": 0.08159718958333428
        },
        {
          "name": "A4",
          "midi": 69,
          "time": 222.49991100000048,
          "velocity": 0.7874015748031497,
          "duration": 0.06770830625001167
        },
        {
          "name": "D3",
          "midi": 50,
          "time": 222.49991100000048,
          "velocity": 0.8503937007874016,
          "duration": 0.15451382708334904
        },
        {
          "name": "D2",
          "midi": 38,
          "time": 222.49991100000048,
          "velocity": 0.7716535433070866,
          "duration": 0.10937495625000793
        },
        {
          "name": "D4",
          "midi": 62,
          "time": 222.7082442500005,
          "velocity": 0.7244094488188977,
          "duration": 0.0833332999999925
        },
        {
          "name": "A4",
          "midi": 69,
          "time": 222.7082442500005,
          "velocity": 0.7637795275590551,
          "duration": 0.0694444166666699
        },
        {
          "name": "D4",
          "midi": 62,
          "time": 222.91657750000047,
          "velocity": 0.7244094488188977,
          "duration": 0.09201385208334045
        },
        {
          "name": "A4",
          "midi": 69,
          "time": 222.91657750000047,
          "velocity": 0.8031496062992126,
          "duration": 0.06423608541666681
        },
        {
          "name": "A4",
          "midi": 69,
          "time": 223.12491075000048,
          "velocity": 0.8346456692913385,
          "duration": 0.07465274791664456
        },
        {
          "name": "D4",
          "midi": 62,
          "time": 223.12664686041714,
          "velocity": 0.7086614173228346,
          "duration": 0.08854163124999559
        },
        {
          "name": "A4",
          "midi": 69,
          "time": 223.33324400000046,
          "velocity": 0.7480314960629921,
          "duration": 0.07291663749998634
        },
        {
          "name": "D3",
          "midi": 50,
          "time": 223.33324400000046,
          "velocity": 0.8031496062992126,
          "duration": 0.14930549583331754
        },
        {
          "name": "D2",
          "midi": 38,
          "time": 223.33324400000046,
          "velocity": 0.8503937007874016,
          "duration": 0.11458328749998259
        },
        {
          "name": "D4",
          "midi": 62,
          "time": 223.33498011041712,
          "velocity": 0.7401574803149606,
          "duration": 0.09027774166665381
        },
        {
          "name": "A4",
          "midi": 69,
          "time": 223.53984113958379,
          "velocity": 0.7637795275590551,
          "duration": 0.06770830624998325
        },
        {
          "name": "D4",
          "midi": 62,
          "time": 223.54157725000044,
          "velocity": 0.6929133858267716,
          "duration": 0.09374996249999867
        },
        {
          "name": "A4",
          "midi": 69,
          "time": 223.74817438958377,
          "velocity": 0.8346456692913385,
          "duration": 0.06770830624998325
        },
        {
          "name": "D4",
          "midi": 62,
          "time": 223.74991050000042,
          "velocity": 0.7165354330708661,
          "duration": 0.09374996249999867
        },
        {
          "name": "A4",
          "midi": 69,
          "time": 223.9547715291671,
          "velocity": 0.7716535433070866,
          "duration": 0.0763888583333312
        },
        {
          "name": "D4",
          "midi": 62,
          "time": 223.95824375000043,
          "velocity": 0.7165354330708661,
          "duration": 0.08506941041665073
        },
        {
          "name": "A4",
          "midi": 69,
          "time": 224.1631047791671,
          "velocity": 0.7637795275590551,
          "duration": 0.0694444166666699
        },
        {
          "name": "D3",
          "midi": 50,
          "time": 224.16657700000044,
          "velocity": 0.8346456692913385,
          "duration": 0.166666599999985
        },
        {
          "name": "D2",
          "midi": 38,
          "time": 224.16657700000044,
          "velocity": 0.8818897637795275,
          "duration": 0.11805550833332745
        },
        {
          "name": "D4",
          "midi": 62,
          "time": 224.1683131104171,
          "velocity": 0.7480314960629921,
          "duration": 0.0954860729166569
        },
        {
          "name": "A4",
          "midi": 69,
          "time": 224.3714380291671,
          "velocity": 0.7480314960629921,
          "duration": 0.07465274791667298
        },
        {
          "name": "D4",
          "midi": 62,
          "time": 224.3766463604171,
          "velocity": 0.7401574803149606,
          "duration": 0.0833332999999925
        },
        {
          "name": "A4",
          "midi": 69,
          "time": 224.58150738958378,
          "velocity": 0.7637795275590551,
          "duration": 0.0694444166666699
        },
        {
          "name": "D4",
          "midi": 62,
          "time": 224.58497961041712,
          "velocity": 0.7480314960629921,
          "duration": 0.0833332999999925
        },
        {
          "name": "A4",
          "midi": 69,
          "time": 224.7898406395838,
          "velocity": 0.8031496062992126,
          "duration": 0.06597219583332503
        },
        {
          "name": "D4",
          "midi": 62,
          "time": 224.7950489708338,
          "velocity": 0.7716535433070866,
          "duration": 0.08506941041665073
        },
        {
          "name": "A4",
          "midi": 69,
          "time": 224.99817388958377,
          "velocity": 0.8188976377952756,
          "duration": 0.07118052708332812
        },
        {
          "name": "G2",
          "midi": 43,
          "time": 224.99991000000043,
          "velocity": 0.8503937007874016,
          "duration": 0.16666660000001343
        },
        {
          "name": "G1",
          "midi": 31,
          "time": 224.99991000000043,
          "velocity": 0.9448818897637795,
          "duration": 0.12847217083333362
        },
        {
          "name": "G4",
          "midi": 67,
          "time": 225.00338222083377,
          "velocity": 0.8346456692913385,
          "duration": 0.0833332999999925
        },
        {
          "name": "A4",
          "midi": 69,
          "time": 225.20824325000044,
          "velocity": 0.7716535433070866,
          "duration": 0.06423608541666681
        },
        {
          "name": "G4",
          "midi": 67,
          "time": 225.21171547083378,
          "velocity": 0.7637795275590551,
          "duration": 0.08506941041665073
        },
        {
          "name": "A4",
          "midi": 69,
          "time": 225.41484038958376,
          "velocity": 0.7874015748031497,
          "duration": 0.0694444166666699
        },
        {
          "name": "G4",
          "midi": 67,
          "time": 225.4183126104171,
          "velocity": 0.7716535433070866,
          "duration": 0.09374996249999867
        },
        {
          "name": "A4",
          "midi": 69,
          "time": 225.62317363958377,
          "velocity": 0.7716535433070866,
          "duration": 0.06597219583335345
        },
        {
          "name": "G4",
          "midi": 67,
          "time": 225.6266458604171,
          "velocity": 0.7165354330708661,
          "duration": 0.08854163124999559
        },
        {
          "name": "A4",
          "midi": 69,
          "time": 225.83150688958378,
          "velocity": 0.7874015748031497,
          "duration": 0.07118052708332812
        },
        {
          "name": "G2",
          "midi": 43,
          "time": 225.83324300000044,
          "velocity": 0.8503937007874016,
          "duration": 0.16840271041667165
        },
        {
          "name": "G1",
          "midi": 31,
          "time": 225.83324300000044,
          "velocity": 0.9606299212598425,
          "duration": 0.13715272291668157
        },
        {
          "name": "G4",
          "midi": 67,
          "time": 225.8349791104171,
          "velocity": 0.7401574803149606,
          "duration": 0.09027774166668223
        },
        {
          "name": "A4",
          "midi": 69,
          "time": 226.0381040291671,
          "velocity": 0.6771653543307087,
          "duration": 0.07118052708332812
        },
        {
          "name": "G4",
          "midi": 67,
          "time": 226.0433123604171,
          "velocity": 0.7165354330708661,
          "duration": 0.08854163124999559
        },
        {
          "name": "A4",
          "midi": 69,
          "time": 226.2464372791671,
          "velocity": 0.7480314960629921,
          "duration": 0.07118052708332812
        },
        {
          "name": "G4",
          "midi": 67,
          "time": 226.25338172083377,
          "velocity": 0.7244094488188977,
          "duration": 0.08680552083333737
        },
        {
          "name": "A4",
          "midi": 69,
          "time": 226.45477052916712,
          "velocity": 0.7401574803149606,
          "duration": 0.07291663750001476
        },
        {
          "name": "G4",
          "midi": 67,
          "time": 226.45997886041712,
          "velocity": 0.7716535433070866,
          "duration": 0.07465274791667298
        },
        {
          "name": "A4",
          "midi": 69,
          "time": 226.66310377916713,
          "velocity": 0.7874015748031497,
          "duration": 0.06770830625001167
        },
        {
          "name": "G2",
          "midi": 43,
          "time": 226.66657600000048,
          "velocity": 0.8503937007874016,
          "duration": 0.17187493125001652
        },
        {
          "name": "G1",
          "midi": 31,
          "time": 226.66657600000048,
          "velocity": 0.8661417322834646,
          "duration": 0.13194439166667848
        },
        {
          "name": "G4",
          "midi": 67,
          "time": 226.66831211041713,
          "velocity": 0.7874015748031497,
          "duration": 0.07812496875001784
        },
        {
          "name": "A4",
          "midi": 69,
          "time": 226.87143702916717,
          "velocity": 0.7637795275590551,
          "duration": 0.06770830625001167
        },
        {
          "name": "G4",
          "midi": 67,
          "time": 226.87664536041717,
          "velocity": 0.8031496062992126,
          "duration": 0.07986107916667606
        },
        {
          "name": "A4",
          "midi": 69,
          "time": 227.08150638958384,
          "velocity": 0.7480314960629921,
          "duration": 0.07465274791667298
        },
        {
          "name": "G4",
          "midi": 67,
          "time": 227.08671472083384,
          "velocity": 0.7401574803149606,
          "duration": 0.07812496874998942
        },
        {
          "name": "A4",
          "midi": 69,
          "time": 227.2915757500005,
          "velocity": 0.7637795275590551,
          "duration": 0.0694444166666699
        },
        {
          "name": "G4",
          "midi": 67,
          "time": 227.29331186041716,
          "velocity": 0.8031496062992126,
          "duration": 0.09374996249999867
        },
        {
          "name": "D4",
          "midi": 62,
          "time": 227.49990900000049,
          "velocity": 0.7716535433070866,
          "duration": 0.08680552083330895
        },
        {
          "name": "D3",
          "midi": 50,
          "time": 227.49990900000049,
          "velocity": 0.8346456692913385,
          "duration": 0.19444436666663023
        },
        {
          "name": "D2",
          "midi": 38,
          "time": 227.49990900000049,
          "velocity": 0.8188976377952756,
          "duration": 0.1215277291666439
        },
        {
          "name": "A4",
          "midi": 69,
          "time": 227.50164511041714,
          "velocity": 0.7716535433070866,
          "duration": 0.07812496874998942
        },
        {
          "name": "D4",
          "midi": 62,
          "time": 227.70824225000044,
          "velocity": 0.6850393700787402,
          "duration": 0.08854163124999559
        },
        {
          "name": "A4",
          "midi": 69,
          "time": 227.71171447083378,
          "velocity": 0.7401574803149606,
          "duration": 0.04340276041665447
        },
        {
          "name": "D4",
          "midi": 62,
          "time": 227.9183116104171,
          "velocity": 0.7165354330708661,
          "duration": 0.0954860729166569
        },
        {
          "name": "A4",
          "midi": 69,
          "time": 227.92004772083376,
          "velocity": 0.7874015748031497,
          "duration": 0.07291663749998634
        },
        {
          "name": "D4",
          "midi": 62,
          "time": 228.12838097083377,
          "velocity": 0.7165354330708661,
          "duration": 0.08680552083333737
        },
        {
          "name": "A4",
          "midi": 69,
          "time": 228.12838097083377,
          "velocity": 0.7480314960629921,
          "duration": 0.07118052708332812
        },
        {
          "name": "D3",
          "midi": 50,
          "time": 228.33324200000044,
          "velocity": 0.7480314960629921,
          "duration": 0.218749912499959
        },
        {
          "name": "D2",
          "midi": 38,
          "time": 228.33324200000044,
          "velocity": 0.8503937007874016,
          "duration": 0.13368050208330828
        },
        {
          "name": "D4",
          "midi": 62,
          "time": 228.3349781104171,
          "velocity": 0.7165354330708661,
          "duration": 0.0954860729166569
        },
        {
          "name": "A4",
          "midi": 69,
          "time": 228.33671422083376,
          "velocity": 0.7637795275590551,
          "duration": 0.06597219583332503
        },
        {
          "name": "A4",
          "midi": 69,
          "time": 228.54504747083374,
          "velocity": 0.7637795275590551,
          "duration": 0.06076386458332195
        },
        {
          "name": "D4",
          "midi": 62,
          "time": 228.5467835812504,
          "velocity": 0.7086614173228346,
          "duration": 0.09027774166665381
        },
        {
          "name": "A4",
          "midi": 69,
          "time": 228.75164461041706,
          "velocity": 0.7716535433070866,
          "duration": 0.0694444166666699
        },
        {
          "name": "D4",
          "midi": 62,
          "time": 228.75338072083372,
          "velocity": 0.6692913385826772,
          "duration": 0.09027774166668223
        },
        {
          "name": "A4",
          "midi": 69,
          "time": 228.95997786041707,
          "velocity": 0.6771653543307087,
          "duration": 0.06770830625001167
        },
        {
          "name": "D4",
          "midi": 62,
          "time": 228.96345008125041,
          "velocity": 0.6614173228346457,
          "duration": 0.08159718958333428
        },
        {
          "name": "A4",
          "midi": 69,
          "time": 229.16657500000042,
          "velocity": 0.7165354330708661,
          "duration": 0.07118052708335654
        },
        {
          "name": "D3",
          "midi": 50,
          "time": 229.16657500000042,
          "velocity": 0.8188976377952756,
          "duration": 0.1597221583333237
        },
        {
          "name": "D2",
          "midi": 38,
          "time": 229.16657500000042,
          "velocity": 0.8661417322834646,
          "duration": 0.12326383958333054
        },
        {
          "name": "D4",
          "midi": 62,
          "time": 229.17004722083377,
          "velocity": 0.6771653543307087,
          "duration": 0.09374996249999867
        },
        {
          "name": "A4",
          "midi": 69,
          "time": 229.3749082500004,
          "velocity": 0.7165354330708661,
          "duration": 0.07986107916667606
        },
        {
          "name": "D4",
          "midi": 62,
          "time": 229.37838047083375,
          "velocity": 0.6377952755905512,
          "duration": 0.08680552083333737
        },
        {
          "name": "A4",
          "midi": 69,
          "time": 229.5832415000004,
          "velocity": 0.7244094488188977,
          "duration": 0.07291663750001476
        },
        {
          "name": "D4",
          "midi": 62,
          "time": 229.58844983125041,
          "velocity": 0.6692913385826772,
          "duration": 0.09548607291668532
        },
        {
          "name": "A4",
          "midi": 69,
          "time": 229.78983863958376,
          "velocity": 0.6614173228346457,
          "duration": 0.07465274791667298
        },
        {
          "name": "D4",
          "midi": 62,
          "time": 229.79504697083377,
          "velocity": 0.6535433070866141,
          "duration": 0.09374996249999867
        },
        {
          "name": "A4",
          "midi": 69,
          "time": 229.99990800000043,
          "velocity": 0.7637795275590551,
          "duration": 0.07291663749998634
        },
        {
          "name": "A2",
          "midi": 45,
          "time": 229.99990800000043,
          "velocity": 0.7874015748031497,
          "duration": 0.16840271041664323
        },
        {
          "name": "A1",
          "midi": 33,
          "time": 229.99990800000043,
          "velocity": 0.9212598425196851,
          "duration": 0.14409716458331445
        },
        {
          "name": "A4",
          "midi": 69,
          "time": 230.2082412500004,
          "velocity": 0.7244094488188977,
          "duration": 0.07291663749998634
        },
        {
          "name": "A4",
          "midi": 69,
          "time": 230.41483838958374,
          "velocity": 0.7244094488188977,
          "duration": 0.07465274791667298
        },
        {
          "name": "A4",
          "midi": 69,
          "time": 230.62317163958375,
          "velocity": 0.6614173228346457,
          "duration": 0.07118052708332812
        },
        {
          "name": "A4",
          "midi": 69,
          "time": 230.83150488958373,
          "velocity": 0.7480314960629921,
          "duration": 0.07291663749998634
        },
        {
          "name": "A2",
          "midi": 45,
          "time": 230.83324100000038,
          "velocity": 0.8503937007874016,
          "duration": 0.16145826874998193
        },
        {
          "name": "A1",
          "midi": 33,
          "time": 230.83324100000038,
          "velocity": 0.9606299212598425,
          "duration": 0.1649304895833268
        },
        {
          "name": "A4",
          "midi": 69,
          "time": 231.0398381395837,
          "velocity": 0.7637795275590551,
          "duration": 0.07291663749998634
        },
        {
          "name": "A4",
          "midi": 69,
          "time": 231.2481713895837,
          "velocity": 0.6929133858267716,
          "duration": 0.06423608541666681
        },
        {
          "name": "A4",
          "midi": 69,
          "time": 231.454768529167,
          "velocity": 0.6299212598425197,
          "duration": 0.0763888583333312
        },
        {
          "name": "A4",
          "midi": 69,
          "time": 231.66310177916702,
          "velocity": 0.5826771653543307,
          "duration": 0.07465274791667298
        },
        {
          "name": "A2",
          "midi": 45,
          "time": 231.66657400000037,
          "velocity": 0.8976377952755905,
          "duration": 0.14236105416665623
        },
        {
          "name": "A1",
          "midi": 33,
          "time": 231.66657400000037,
          "velocity": 1,
          "duration": 0.13194439166665006
        },
        {
          "name": "A4",
          "midi": 69,
          "time": 231.86969891875034,
          "velocity": 0.5826771653543307,
          "duration": 0.06770830625001167
        },
        {
          "name": "A4",
          "midi": 69,
          "time": 232.07803216875035,
          "velocity": 0.5984251968503937,
          "duration": 0.07118052708332812
        },
        {
          "name": "A4",
          "midi": 69,
          "time": 232.28810152916702,
          "velocity": 0.5826771653543307,
          "duration": 0.0694444166666699
        },
        {
          "name": "D3",
          "midi": 50,
          "time": 232.49990700000035,
          "velocity": 0.7244094488188977,
          "duration": 0.14409716458334287
        },
        {
          "name": "A4",
          "midi": 69,
          "time": 232.506851441667,
          "velocity": 0.6614173228346457,
          "duration": 0.1458332750000011
        },
        {
          "name": "D2",
          "midi": 38,
          "time": 232.506851441667,
          "velocity": 0.7874015748031497,
          "duration": 0.1336805020833367
        },
        {
          "name": "D4",
          "midi": 62,
          "time": 232.50858755208367,
          "velocity": 0.6299212598425197,
          "duration": 0.1527777166666624
        },
        {
          "name": "D4",
          "midi": 62,
          "time": 232.923517941667,
          "velocity": 0.5511811023622047,
          "duration": 0.10416662499997642
        },
        {
          "name": "A4",
          "midi": 69,
          "time": 232.923517941667,
          "velocity": 0.5826771653543307,
          "duration": 0.09027774166665381
        },
        {
          "name": "D4",
          "midi": 62,
          "time": 233.13011508125032,
          "velocity": 0.5039370078740157,
          "duration": 0.09027774166668223
        },
        {
          "name": "A4",
          "midi": 69,
          "time": 233.13011508125032,
          "velocity": 0.5433070866141733,
          "duration": 0.07465274791667298
        },
        {
          "name": "D2",
          "midi": 38,
          "time": 233.314142785417,
          "velocity": 0.6535433070866141,
          "duration": 0.0954860729166569
        },
        {
          "name": "D3",
          "midi": 50,
          "time": 233.32108722708367,
          "velocity": 0.5511811023622047,
          "duration": 0.07986107916667606
        },
        {
          "name": "A4",
          "midi": 69,
          "time": 233.33671222083368,
          "velocity": 0.6377952755905512,
          "duration": 0.0954860729166569
        },
        {
          "name": "D4",
          "midi": 62,
          "time": 233.33844833125033,
          "velocity": 0.5905511811023622,
          "duration": 0.09722218333334354
        },
        {
          "name": "D4",
          "midi": 62,
          "time": 233.75337872083367,
          "velocity": 0.5433070866141733,
          "duration": 0.10069440416665998
        },
        {
          "name": "A4",
          "midi": 69,
          "time": 233.75337872083367,
          "velocity": 0.5748031496062992,
          "duration": 0.0833332999999925
        },
        {
          "name": "D4",
          "midi": 62,
          "time": 233.96171197083365,
          "velocity": 0.4645669291338583,
          "duration": 0.08854163125002401
        },
        {
          "name": "A4",
          "midi": 69,
          "time": 233.965184191667,
          "velocity": 0.5196850393700787,
          "duration": 0.06770830625001167
        },
        {
          "name": "D2",
          "midi": 38,
          "time": 234.137059122917,
          "velocity": 0.6614173228346457,
          "duration": 0.10243051458334662
        },
        {
          "name": "D3",
          "midi": 50,
          "time": 234.142267454167,
          "velocity": 0.6141732283464567,
          "duration": 0.09374996249999867
        },
        {
          "name": "A4",
          "midi": 69,
          "time": 234.17004522083369,
          "velocity": 0.4881889763779528,
          "duration": 0.0954860729166569
        },
        {
          "name": "D4",
          "midi": 62,
          "time": 234.1752535520837,
          "velocity": 0.5433070866141733,
          "duration": 0.07812496874998942
        },
        {
          "name": "A4",
          "midi": 69,
          "time": 234.58671172083368,
          "velocity": 0.5826771653543307,
          "duration": 0.10590273541669148
        },
        {
          "name": "D4",
          "midi": 62,
          "time": 234.59018394166702,
          "velocity": 0.5511811023622047,
          "duration": 0.11111106666666615
        },
        {
          "name": "D2",
          "midi": 38,
          "time": 234.9981698895837,
          "velocity": 0.6535433070866141,
          "duration": 0.12326383958333054
        },
        {
          "name": "A4",
          "midi": 69,
          "time": 234.99990600000035,
          "velocity": 0.6535433070866141,
          "duration": 0.1197916187500141
        },
        {
          "name": "D4",
          "midi": 62,
          "time": 235.0033782208337,
          "velocity": 0.6141732283464567,
          "duration": 0.11284717708332437
        },
        {
          "name": "D3",
          "midi": 50,
          "time": 235.01553099375036,
          "velocity": 0.6929133858267716,
          "duration": 0.11111106666666615
        },
        {
          "name": "D4",
          "midi": 62,
          "time": 235.41830861041703,
          "velocity": 0.5354330708661418,
          "duration": 0.08854163124999559
        },
        {
          "name": "A4",
          "midi": 69,
          "time": 235.41830861041703,
          "velocity": 0.5590551181102362,
          "duration": 0.07986107916667606
        },
        {
          "name": "A4",
          "midi": 69,
          "time": 235.6231696395837,
          "velocity": 0.5511811023622047,
          "duration": 0.08506941041665073
        },
        {
          "name": "D4",
          "midi": 62,
          "time": 235.62490575000035,
          "velocity": 0.5039370078740157,
          "duration": 0.08680552083333737
        },
        {
          "name": "D3",
          "midi": 50,
          "time": 235.8210862270837,
          "velocity": 0.7165354330708661,
          "duration": 0.08680552083330895
        },
        {
          "name": "D2",
          "midi": 38,
          "time": 235.82455844791704,
          "velocity": 0.7874015748031497,
          "duration": 0.08680552083330895
        },
        {
          "name": "A4",
          "midi": 69,
          "time": 235.83323900000036,
          "velocity": 0.5826771653543307,
          "duration": 0.09722218333331512
        },
        {
          "name": "D4",
          "midi": 62,
          "time": 235.83497511041702,
          "velocity": 0.5669291338582677,
          "duration": 0.09027774166665381
        },
        {
          "name": "A4",
          "midi": 69,
          "time": 236.251641610417,
          "velocity": 0.5196850393700787,
          "duration": 0.08854163124999559
        },
        {
          "name": "D4",
          "midi": 62,
          "time": 236.25337772083367,
          "velocity": 0.4881889763779528,
          "duration": 0.09027774166668223
        },
        {
          "name": "A4",
          "midi": 69,
          "time": 236.45997486041702,
          "velocity": 0.4881889763779528,
          "duration": 0.07291663750001476
        },
        {
          "name": "D4",
          "midi": 62,
          "time": 236.46171097083368,
          "velocity": 0.4645669291338583,
          "duration": 0.06770830625001167
        },
        {
          "name": "D2",
          "midi": 38,
          "time": 236.6544192270837,
          "velocity": 0.7086614173228346,
          "duration": 0.08854163124996717
        },
        {
          "name": "D3",
          "midi": 50,
          "time": 236.66309977916703,
          "velocity": 0.6692913385826772,
          "duration": 0.08159718958330586
        },
        {
          "name": "A4",
          "midi": 69,
          "time": 236.66830811041703,
          "velocity": 0.5669291338582677,
          "duration": 0.09722218333331512
        },
        {
          "name": "D4",
          "midi": 62,
          "time": 236.6700442208337,
          "velocity": 0.5196850393700787,
          "duration": 0.0954860729166569
        },
        {
          "name": "A4",
          "midi": 69,
          "time": 237.08671072083368,
          "velocity": 0.5905511811023622,
          "duration": 0.10243051458334662
        },
        {
          "name": "D4",
          "midi": 62,
          "time": 237.09018294166702,
          "velocity": 0.5354330708661418,
          "duration": 0.10243051458334662
        },
        {
          "name": "A4",
          "midi": 69,
          "time": 237.50511333125036,
          "velocity": 0.6377952755905512,
          "duration": 0.11805550833332745
        },
        {
          "name": "D2",
          "midi": 38,
          "time": 237.50511333125036,
          "velocity": 0.7165354330708661,
          "duration": 0.09027774166665381
        },
        {
          "name": "D3",
          "midi": 50,
          "time": 237.50511333125036,
          "velocity": 0.6299212598425197,
          "duration": 0.07812496874998942
        },
        {
          "name": "D4",
          "midi": 62,
          "time": 237.51032166250036,
          "velocity": 0.5748031496062992,
          "duration": 0.11805550833332745
        },
        {
          "name": "A4",
          "midi": 69,
          "time": 237.90962705833368,
          "velocity": 0.5354330708661418,
          "duration": 0.09374996249999867
        },
        {
          "name": "D4",
          "midi": 62,
          "time": 237.91309927916703,
          "velocity": 0.5196850393700787,
          "duration": 0.09201385208331203
        },
        {
          "name": "D4",
          "midi": 62,
          "time": 238.11969641875035,
          "velocity": 0.5118110236220472,
          "duration": 0.1024305145833182
        },
        {
          "name": "A4",
          "midi": 69,
          "time": 238.11969641875035,
          "velocity": 0.5511811023622047,
          "duration": 0.0954860729166569
        },
        {
          "name": "D2",
          "midi": 38,
          "time": 238.31066856458366,
          "velocity": 0.7086614173228346,
          "duration": 0.10416662499997642
        },
        {
          "name": "D3",
          "midi": 50,
          "time": 238.31587689583367,
          "velocity": 0.6535433070866141,
          "duration": 0.08854163124996717
        },
        {
          "name": "A4",
          "midi": 69,
          "time": 238.324557447917,
          "velocity": 0.5669291338582677,
          "duration": 0.10763884583332128
        },
        {
          "name": "D4",
          "midi": 62,
          "time": 238.32629355833365,
          "velocity": 0.5354330708661418,
          "duration": 0.10069440416665998
        },
        {
          "name": "A4",
          "midi": 69,
          "time": 238.74816838958364,
          "velocity": 0.5196850393700787,
          "duration": 0.09722218333334354
        },
        {
          "name": "D4",
          "midi": 62,
          "time": 238.75337672083364,
          "velocity": 0.47244094488188976,
          "duration": 0.09201385208334045
        },
        {
          "name": "A4",
          "midi": 69,
          "time": 238.96170997083365,
          "velocity": 0.5354330708661418,
          "duration": 0.1024305145833182
        },
        {
          "name": "D4",
          "midi": 62,
          "time": 238.9634460812503,
          "velocity": 0.47244094488188976,
          "duration": 0.09374996249999867
        },
        {
          "name": "D2",
          "midi": 38,
          "time": 239.13358490208364,
          "velocity": 0.6929133858267716,
          "duration": 0.10416662500000484
        },
        {
          "name": "D3",
          "midi": 50,
          "time": 239.13705712291699,
          "velocity": 0.6692913385826772,
          "duration": 0.09027774166665381
        },
        {
          "name": "A4",
          "midi": 69,
          "time": 239.16657100000032,
          "velocity": 0.5748031496062992,
          "duration": 0.1093749562499795
        },
        {
          "name": "D4",
          "midi": 62,
          "time": 239.16830711041698,
          "velocity": 0.5275590551181102,
          "duration": 0.10069440416665998
        },
        {
          "name": "A4",
          "midi": 69,
          "time": 239.58844583125028,
          "velocity": 0.5748031496062992,
          "duration": 0.10937495625000793
        },
        {
          "name": "D4",
          "midi": 62,
          "time": 239.59191805208363,
          "velocity": 0.5354330708661418,
          "duration": 0.10069440416665998
        },
        {
          "name": "G4",
          "midi": 67,
          "time": 239.9981678895836,
          "velocity": 0.6771653543307087,
          "duration": 0.11284717708332437
        },
        {
          "name": "C4",
          "midi": 60,
          "time": 239.99990400000027,
          "velocity": 0.6220472440944882,
          "duration": 0.11631939791666923
        },
        {
          "name": "C3",
          "midi": 48,
          "time": 240.00337622083362,
          "velocity": 0.6771653543307087,
          "duration": 0.09027774166665381
        },
        {
          "name": "C2",
          "midi": 36,
          "time": 240.00511233125027,
          "velocity": 0.8031496062992126,
          "duration": 0.0833332999999925
        },
        {
          "name": "C4",
          "midi": 60,
          "time": 240.4096260583336,
          "velocity": 0.5354330708661418,
          "duration": 0.10069440416665998
        },
        {
          "name": "G4",
          "midi": 67,
          "time": 240.4096260583336,
          "velocity": 0.5511811023622047,
          "duration": 0.0763888583333312
        },
        {
          "name": "C4",
          "midi": 60,
          "time": 240.61622319791692,
          "velocity": 0.49606299212598426,
          "duration": 0.09722218333334354
        },
        {
          "name": "G4",
          "midi": 67,
          "time": 240.61622319791692,
          "velocity": 0.5354330708661418,
          "duration": 0.08680552083333737
        },
        {
          "name": "G4",
          "midi": 67,
          "time": 240.82455644791693,
          "velocity": 0.6299212598425197,
          "duration": 0.09722218333331512
        },
        {
          "name": "C4",
          "midi": 60,
          "time": 240.8262925583336,
          "velocity": 0.5354330708661418,
          "duration": 0.08680552083333737
        },
        {
          "name": "C2",
          "midi": 36,
          "time": 240.83323700000025,
          "velocity": 0.7480314960629921,
          "duration": 0.1024305145833182
        },
        {
          "name": "C3",
          "midi": 48,
          "time": 240.84538977291692,
          "velocity": 0.6220472440944882,
          "duration": 0.0833332999999925
        },
        {
          "name": "C4",
          "midi": 60,
          "time": 241.24469516875024,
          "velocity": 0.5039370078740157,
          "duration": 0.09027774166668223
        },
        {
          "name": "G4",
          "midi": 67,
          "time": 241.24469516875024,
          "velocity": 0.5511811023622047,
          "duration": 0.07986107916667606
        },
        {
          "name": "C4",
          "midi": 60,
          "time": 241.45476452916694,
          "velocity": 0.47244094488188976,
          "duration": 0.08680552083333737
        },
        {
          "name": "G4",
          "midi": 67,
          "time": 241.45476452916694,
          "velocity": 0.5196850393700787,
          "duration": 0.07986107916667606
        },
        {
          "name": "G4",
          "midi": 67,
          "time": 241.6613616687503,
          "velocity": 0.5748031496062992,
          "duration": 0.0972221833332867
        },
        {
          "name": "C4",
          "midi": 60,
          "time": 241.66309777916695,
          "velocity": 0.4881889763779528,
          "duration": 0.08854163124996717
        },
        {
          "name": "C2",
          "midi": 36,
          "time": 241.68219499375027,
          "velocity": 0.6614173228346457,
          "duration": 0.23958323749997135
        },
        {
          "name": "C3",
          "midi": 48,
          "time": 241.6908755458336,
          "velocity": 0.6299212598425197,
          "duration": 0.16145826874998193
        },
        {
          "name": "G4",
          "midi": 67,
          "time": 242.07629205833356,
          "velocity": 0.5196850393700787,
          "duration": 0.09895829375000176
        },
        {
          "name": "C4",
          "midi": 60,
          "time": 242.07802816875022,
          "velocity": 0.4645669291338583,
          "duration": 0.10416662500000484
        },
        {
          "name": "F3",
          "midi": 53,
          "time": 242.49990300000022,
          "velocity": 0.7244094488188977,
          "duration": 0.14409716458334287
        },
        {
          "name": "C5",
          "midi": 72,
          "time": 242.50684744166688,
          "velocity": 0.6614173228346457,
          "duration": 0.1458332750000011
        },
        {
          "name": "F2",
          "midi": 41,
          "time": 242.50684744166688,
          "velocity": 0.7874015748031497,
          "duration": 0.1336805020833367
        },
        {
          "name": "F4",
          "midi": 65,
          "time": 242.50858355208354,
          "velocity": 0.6299212598425197,
          "duration": 0.1527777166666624
        },
        {
          "name": "F4",
          "midi": 65,
          "time": 242.92351394166687,
          "velocity": 0.5511811023622047,
          "duration": 0.10416662499997642
        },
        {
          "name": "C5",
          "midi": 72,
          "time": 242.92351394166687,
          "velocity": 0.5826771653543307,
          "duration": 0.09027774166665381
        },
        {
          "name": "F4",
          "midi": 65,
          "time": 243.1301110812502,
          "velocity": 0.5039370078740157,
          "duration": 0.09027774166668223
        },
        {
          "name": "C5",
          "midi": 72,
          "time": 243.1301110812502,
          "velocity": 0.5433070866141733,
          "duration": 0.07465274791667298
        },
        {
          "name": "C5",
          "midi": 72,
          "time": 243.33670822083354,
          "velocity": 0.6377952755905512,
          "duration": 0.0954860729166569
        },
        {
          "name": "F4",
          "midi": 65,
          "time": 243.3384443312502,
          "velocity": 0.5905511811023622,
          "duration": 0.09722218333334354
        },
        {
          "name": "F2",
          "midi": 41,
          "time": 243.36274987708353,
          "velocity": 0.6377952755905512,
          "duration": 0.15624993750000726
        },
        {
          "name": "F3",
          "midi": 53,
          "time": 243.3644859875002,
          "velocity": 0.5748031496062992,
          "duration": 0.13541661250002335
        },
        {
          "name": "F4",
          "midi": 65,
          "time": 243.75337472083353,
          "velocity": 0.5433070866141733,
          "duration": 0.10069440416665998
        },
        {
          "name": "C5",
          "midi": 72,
          "time": 243.75337472083353,
          "velocity": 0.5748031496062992,
          "duration": 0.0833332999999925
        },
        {
          "name": "F4",
          "midi": 65,
          "time": 243.96170797083352,
          "velocity": 0.4645669291338583,
          "duration": 0.08854163125002401
        },
        {
          "name": "C5",
          "midi": 72,
          "time": 243.96518019166686,
          "velocity": 0.5196850393700787,
          "duration": 0.06770830625001167
        },
        {
          "name": "C5",
          "midi": 72,
          "time": 244.17004122083355,
          "velocity": 0.4881889763779528,
          "duration": 0.09548607291668532
        },
        {
          "name": "F4",
          "midi": 65,
          "time": 244.17524955208356,
          "velocity": 0.5433070866141733,
          "duration": 0.07812496875001784
        },
        {
          "name": "F2",
          "midi": 41,
          "time": 244.21344398125024,
          "velocity": 0.7480314960629921,
          "duration": 0.1458332750000011
        },
        {
          "name": "F3",
          "midi": 53,
          "time": 244.21344398125024,
          "velocity": 0.7086614173228346,
          "duration": 0.11284717708332437
        },
        {
          "name": "C5",
          "midi": 72,
          "time": 244.58670772083357,
          "velocity": 0.5826771653543307,
          "duration": 0.10590273541669148
        },
        {
          "name": "F4",
          "midi": 65,
          "time": 244.59017994166692,
          "velocity": 0.5511811023622047,
          "duration": 0.11111106666666615
        },
        {
          "name": "G4",
          "midi": 67,
          "time": 244.9981658895836,
          "velocity": 0.6771653543307087,
          "duration": 0.11284717708332437
        },
        {
          "name": "C4",
          "midi": 60,
          "time": 244.99990200000025,
          "velocity": 0.6220472440944882,
          "duration": 0.11631939791666923
        },
        {
          "name": "C3",
          "midi": 48,
          "time": 245.0033742208336,
          "velocity": 0.6771653543307087,
          "duration": 0.09027774166665381
        },
        {
          "name": "C2",
          "midi": 36,
          "time": 245.00511033125025,
          "velocity": 0.8031496062992126,
          "duration": 0.0833332999999925
        },
        {
          "name": "C4",
          "midi": 60,
          "time": 245.40962405833358,
          "velocity": 0.5354330708661418,
          "duration": 0.10069440416665998
        },
        {
          "name": "G4",
          "midi": 67,
          "time": 245.40962405833358,
          "velocity": 0.5511811023622047,
          "duration": 0.0763888583333312
        },
        {
          "name": "C4",
          "midi": 60,
          "time": 245.6162211979169,
          "velocity": 0.49606299212598426,
          "duration": 0.09722218333334354
        },
        {
          "name": "G4",
          "midi": 67,
          "time": 245.6162211979169,
          "velocity": 0.5354330708661418,
          "duration": 0.08680552083333737
        },
        {
          "name": "G4",
          "midi": 67,
          "time": 245.8245544479169,
          "velocity": 0.6299212598425197,
          "duration": 0.09722218333334354
        },
        {
          "name": "C4",
          "midi": 60,
          "time": 245.82629055833357,
          "velocity": 0.5354330708661418,
          "duration": 0.08680552083336579
        },
        {
          "name": "C3",
          "midi": 48,
          "time": 245.84712388333358,
          "velocity": 0.5748031496062992,
          "duration": 0.13194439166667848
        },
        {
          "name": "C2",
          "midi": 36,
          "time": 245.85059610416693,
          "velocity": 0.5905511811023622,
          "duration": 0.18055548333333604
        },
        {
          "name": "C4",
          "midi": 60,
          "time": 246.24469316875027,
          "velocity": 0.5039370078740157,
          "duration": 0.09027774166668223
        },
        {
          "name": "G4",
          "midi": 67,
          "time": 246.24469316875027,
          "velocity": 0.5511811023622047,
          "duration": 0.07986107916667606
        },
        {
          "name": "C4",
          "midi": 60,
          "time": 246.45476252916697,
          "velocity": 0.47244094488188976,
          "duration": 0.08680552083333737
        },
        {
          "name": "G4",
          "midi": 67,
          "time": 246.45476252916697,
          "velocity": 0.5196850393700787,
          "duration": 0.07986107916667606
        },
        {
          "name": "G4",
          "midi": 67,
          "time": 246.66135966875032,
          "velocity": 0.5748031496062992,
          "duration": 0.09722218333334354
        },
        {
          "name": "C4",
          "midi": 60,
          "time": 246.66309577916698,
          "velocity": 0.4881889763779528,
          "duration": 0.08854163125002401
        },
        {
          "name": "C2",
          "midi": 36,
          "time": 246.678720772917,
          "velocity": 0.6377952755905512,
          "duration": 0.17534715208333296
        },
        {
          "name": "C3",
          "midi": 48,
          "time": 246.68219299375033,
          "velocity": 0.5748031496062992,
          "duration": 0.14930549583331754
        },
        {
          "name": "G4",
          "midi": 67,
          "time": 247.07629005833365,
          "velocity": 0.5196850393700787,
          "duration": 0.09895829375000176
        },
        {
          "name": "C4",
          "midi": 60,
          "time": 247.0780261687503,
          "velocity": 0.4645669291338583,
          "duration": 0.10416662500000484
        },
        {
          "name": "F4",
          "midi": 65,
          "time": 247.5051093312503,
          "velocity": 0.6377952755905512,
          "duration": 0.11805550833332745
        },
        {
          "name": "A#1",
          "midi": 34,
          "time": 247.5051093312503,
          "velocity": 0.7165354330708661,
          "duration": 0.09027774166665381
        },
        {
          "name": "A#2",
          "midi": 46,
          "time": 247.5051093312503,
          "velocity": 0.6299212598425197,
          "duration": 0.07812496874998942
        },
        {
          "name": "A#3",
          "midi": 58,
          "time": 247.5103176625003,
          "velocity": 0.5748031496062992,
          "duration": 0.11805550833332745
        },
        {
          "name": "F4",
          "midi": 65,
          "time": 247.90962305833364,
          "velocity": 0.5354330708661418,
          "duration": 0.09374996249999867
        },
        {
          "name": "A#3",
          "midi": 58,
          "time": 247.91309527916698,
          "velocity": 0.5196850393700787,
          "duration": 0.09201385208331203
        },
        {
          "name": "A#3",
          "midi": 58,
          "time": 248.1196924187503,
          "velocity": 0.5118110236220472,
          "duration": 0.1024305145833182
        },
        {
          "name": "F4",
          "midi": 65,
          "time": 248.1196924187503,
          "velocity": 0.5511811023622047,
          "duration": 0.0954860729166569
        },
        {
          "name": "F4",
          "midi": 65,
          "time": 248.32455344791697,
          "velocity": 0.5669291338582677,
          "duration": 0.10763884583332128
        },
        {
          "name": "A#3",
          "midi": 58,
          "time": 248.32628955833363,
          "velocity": 0.5354330708661418,
          "duration": 0.10069440416665998
        },
        {
          "name": "A#2",
          "midi": 46,
          "time": 248.33497011041695,
          "velocity": 0.6456692913385826,
          "duration": 0.11631939791666923
        },
        {
          "name": "A#1",
          "midi": 34,
          "time": 248.34017844166695,
          "velocity": 0.6614173228346457,
          "duration": 0.11979161874998567
        },
        {
          "name": "F4",
          "midi": 65,
          "time": 248.7481643895836,
          "velocity": 0.5196850393700787,
          "duration": 0.09722218333334354
        },
        {
          "name": "A#3",
          "midi": 58,
          "time": 248.7533727208336,
          "velocity": 0.47244094488188976,
          "duration": 0.09201385208334045
        },
        {
          "name": "F4",
          "midi": 65,
          "time": 248.9617059708336,
          "velocity": 0.5354330708661418,
          "duration": 0.1024305145833182
        },
        {
          "name": "A#3",
          "midi": 58,
          "time": 248.96344208125026,
          "velocity": 0.47244094488188976,
          "duration": 0.09374996249999867
        },
        {
          "name": "A#2",
          "midi": 46,
          "time": 249.16135866875027,
          "velocity": 0.7007874015748031,
          "duration": 0.11458328749998259
        },
        {
          "name": "F4",
          "midi": 65,
          "time": 249.16656700000027,
          "velocity": 0.5748031496062992,
          "duration": 0.1093749562499795
        },
        {
          "name": "A#1",
          "midi": 34,
          "time": 249.16830311041693,
          "velocity": 0.6850393700787402,
          "duration": 0.12673606041664698
        },
        {
          "name": "A#3",
          "midi": 58,
          "time": 249.16830311041693,
          "velocity": 0.5275590551181102,
          "duration": 0.10069440416665998
        },
        {
          "name": "F4",
          "midi": 65,
          "time": 249.58844183125024,
          "velocity": 0.5748031496062992,
          "duration": 0.10937495625000793
        },
        {
          "name": "A#3",
          "midi": 58,
          "time": 249.59191405208358,
          "velocity": 0.5354330708661418,
          "duration": 0.10069440416665998
        },
        {
          "name": "E4",
          "midi": 64,
          "time": 249.99816388958357,
          "velocity": 0.6771653543307087,
          "duration": 0.11284717708332437
        },
        {
          "name": "A3",
          "midi": 57,
          "time": 249.99990000000022,
          "velocity": 0.6220472440944882,
          "duration": 0.11631939791666923
        },
        {
          "name": "A2",
          "midi": 45,
          "time": 250.00337222083357,
          "velocity": 0.6771653543307087,
          "duration": 0.09027774166665381
        },
        {
          "name": "A1",
          "midi": 33,
          "time": 250.00510833125023,
          "velocity": 0.8031496062992126,
          "duration": 0.0833332999999925
        },
        {
          "name": "A3",
          "midi": 57,
          "time": 250.40962205833355,
          "velocity": 0.5354330708661418,
          "duration": 0.10069440416665998
        },
        {
          "name": "E4",
          "midi": 64,
          "time": 250.40962205833355,
          "velocity": 0.5511811023622047,
          "duration": 0.0763888583333312
        },
        {
          "name": "A3",
          "midi": 57,
          "time": 250.61621919791688,
          "velocity": 0.49606299212598426,
          "duration": 0.09722218333334354
        },
        {
          "name": "E4",
          "midi": 64,
          "time": 250.61621919791688,
          "velocity": 0.5354330708661418,
          "duration": 0.08680552083333737
        },
        {
          "name": "A1",
          "midi": 33,
          "time": 250.80892745416688,
          "velocity": 0.6220472440944882,
          "duration": 0.16145826874998193
        },
        {
          "name": "A2",
          "midi": 45,
          "time": 250.81239967500022,
          "velocity": 0.5669291338582677,
          "duration": 0.13368050208330828
        },
        {
          "name": "E4",
          "midi": 64,
          "time": 250.8245524479169,
          "velocity": 0.6299212598425197,
          "duration": 0.09722218333331512
        },
        {
          "name": "A3",
          "midi": 57,
          "time": 250.82628855833354,
          "velocity": 0.5354330708661418,
          "duration": 0.08680552083333737
        },
        {
          "name": "A3",
          "midi": 57,
          "time": 251.2446911687502,
          "velocity": 0.5039370078740157,
          "duration": 0.09027774166668223
        },
        {
          "name": "E4",
          "midi": 64,
          "time": 251.2446911687502,
          "velocity": 0.5511811023622047,
          "duration": 0.07986107916667606
        },
        {
          "name": "A3",
          "midi": 57,
          "time": 251.4547605291669,
          "velocity": 0.47244094488188976,
          "duration": 0.08680552083333737
        },
        {
          "name": "E4",
          "midi": 64,
          "time": 251.4547605291669,
          "velocity": 0.5196850393700787,
          "duration": 0.07986107916667606
        },
        {
          "name": "A1",
          "midi": 33,
          "time": 251.6578854479169,
          "velocity": 0.7244094488188977,
          "duration": 0.11631939791666923
        },
        {
          "name": "E4",
          "midi": 64,
          "time": 251.66135766875024,
          "velocity": 0.5748031496062992,
          "duration": 0.09722218333331512
        },
        {
          "name": "A3",
          "midi": 57,
          "time": 251.6630937791669,
          "velocity": 0.4881889763779528,
          "duration": 0.08854163124999559
        },
        {
          "name": "A2",
          "midi": 45,
          "time": 251.6683021104169,
          "velocity": 0.7244094488188977,
          "duration": 0.10069440416665998
        },
        {
          "name": "E4",
          "midi": 64,
          "time": 252.07628805833357,
          "velocity": 0.5196850393700787,
          "duration": 0.09895829375000176
        },
        {
          "name": "A3",
          "midi": 57,
          "time": 252.07802416875023,
          "velocity": 0.4645669291338583,
          "duration": 0.10416662500000484
        },
        {
          "name": "D3",
          "midi": 50,
          "time": 252.49989900000023,
          "velocity": 0.7244094488188977,
          "duration": 0.14409716458334287
        },
        {
          "name": "A4",
          "midi": 69,
          "time": 252.5068434416669,
          "velocity": 0.6614173228346457,
          "duration": 0.1458332750000011
        },
        {
          "name": "D2",
          "midi": 38,
          "time": 252.5068434416669,
          "velocity": 0.7874015748031497,
          "duration": 0.1336805020833367
        },
        {
          "name": "D4",
          "midi": 62,
          "time": 252.50857955208355,
          "velocity": 0.6299212598425197,
          "duration": 0.1527777166666624
        },
        {
          "name": "D4",
          "midi": 62,
          "time": 252.92350994166688,
          "velocity": 0.5511811023622047,
          "duration": 0.10416662499997642
        },
        {
          "name": "A4",
          "midi": 69,
          "time": 252.92350994166688,
          "velocity": 0.5826771653543307,
          "duration": 0.09027774166665381
        },
        {
          "name": "D4",
          "midi": 62,
          "time": 253.1301070812502,
          "velocity": 0.5039370078740157,
          "duration": 0.09027774166668223
        },
        {
          "name": "A4",
          "midi": 69,
          "time": 253.1301070812502,
          "velocity": 0.5433070866141733,
          "duration": 0.07465274791667298
        },
        {
          "name": "D2",
          "midi": 38,
          "time": 253.31413478541688,
          "velocity": 0.6535433070866141,
          "duration": 0.0954860729166569
        },
        {
          "name": "D3",
          "midi": 50,
          "time": 253.32107922708354,
          "velocity": 0.5511811023622047,
          "duration": 0.07986107916667606
        },
        {
          "name": "A4",
          "midi": 69,
          "time": 253.33670422083355,
          "velocity": 0.6377952755905512,
          "duration": 0.0954860729166569
        },
        {
          "name": "D4",
          "midi": 62,
          "time": 253.3384403312502,
          "velocity": 0.5905511811023622,
          "duration": 0.09722218333334354
        },
        {
          "name": "D4",
          "midi": 62,
          "time": 253.75337072083354,
          "velocity": 0.5433070866141733,
          "duration": 0.10069440416665998
        },
        {
          "name": "A4",
          "midi": 69,
          "time": 253.75337072083354,
          "velocity": 0.5748031496062992,
          "duration": 0.0833332999999925
        },
        {
          "name": "D4",
          "midi": 62,
          "time": 253.96170397083353,
          "velocity": 0.4645669291338583,
          "duration": 0.08854163125002401
        },
        {
          "name": "A4",
          "midi": 69,
          "time": 253.96517619166687,
          "velocity": 0.5196850393700787,
          "duration": 0.06770830625001167
        },
        {
          "name": "D2",
          "midi": 38,
          "time": 254.1370511229169,
          "velocity": 0.6614173228346457,
          "duration": 0.10243051458334662
        },
        {
          "name": "D3",
          "midi": 50,
          "time": 254.1422594541669,
          "velocity": 0.6141732283464567,
          "duration": 0.09374996249999867
        },
        {
          "name": "A4",
          "midi": 69,
          "time": 254.17003722083356,
          "velocity": 0.4881889763779528,
          "duration": 0.0954860729166569
        },
        {
          "name": "D4",
          "midi": 62,
          "time": 254.17524555208357,
          "velocity": 0.5433070866141733,
          "duration": 0.07812496874998942
        },
        {
          "name": "A4",
          "midi": 69,
          "time": 254.58670372083355,
          "velocity": 0.5826771653543307,
          "duration": 0.10590273541669148
        },
        {
          "name": "D4",
          "midi": 62,
          "time": 254.5901759416669,
          "velocity": 0.5511811023622047,
          "duration": 0.11111106666666615
        },
        {
          "name": "D2",
          "midi": 38,
          "time": 254.99816188958357,
          "velocity": 0.6535433070866141,
          "duration": 0.12326383958333054
        },
        {
          "name": "A4",
          "midi": 69,
          "time": 254.99989800000023,
          "velocity": 0.6535433070866141,
          "duration": 0.1197916187500141
        },
        {
          "name": "D4",
          "midi": 62,
          "time": 255.00337022083357,
          "velocity": 0.6141732283464567,
          "duration": 0.11284717708332437
        },
        {
          "name": "D3",
          "midi": 50,
          "time": 255.01552299375024,
          "velocity": 0.6929133858267716,
          "duration": 0.11111106666666615
        },
        {
          "name": "D4",
          "midi": 62,
          "time": 255.4183006104169,
          "velocity": 0.5354330708661418,
          "duration": 0.08854163124999559
        },
        {
          "name": "A4",
          "midi": 69,
          "time": 255.4183006104169,
          "velocity": 0.5590551181102362,
          "duration": 0.07986107916667606
        },
        {
          "name": "A4",
          "midi": 69,
          "time": 255.62316163958357,
          "velocity": 0.5511811023622047,
          "duration": 0.08506941041665073
        },
        {
          "name": "D4",
          "midi": 62,
          "time": 255.62489775000023,
          "velocity": 0.5039370078740157,
          "duration": 0.08680552083333737
        },
        {
          "name": "D3",
          "midi": 50,
          "time": 255.82107822708358,
          "velocity": 0.7165354330708661,
          "duration": 0.08680552083330895
        },
        {
          "name": "D2",
          "midi": 38,
          "time": 255.82455044791692,
          "velocity": 0.7874015748031497,
          "duration": 0.08680552083330895
        },
        {
          "name": "A4",
          "midi": 69,
          "time": 255.83323100000024,
          "velocity": 0.5826771653543307,
          "duration": 0.09722218333331512
        },
        {
          "name": "D4",
          "midi": 62,
          "time": 255.8349671104169,
          "velocity": 0.5669291338582677,
          "duration": 0.09027774166665381
        },
        {
          "name": "A4",
          "midi": 69,
          "time": 256.2516336104169,
          "velocity": 0.5196850393700787,
          "duration": 0.08854163124999559
        },
        {
          "name": "D4",
          "midi": 62,
          "time": 256.2533697208336,
          "velocity": 0.4881889763779528,
          "duration": 0.09027774166662539
        },
        {
          "name": "A4",
          "midi": 69,
          "time": 256.45996686041684,
          "velocity": 0.4881889763779528,
          "duration": 0.07291663749998634
        },
        {
          "name": "D4",
          "midi": 62,
          "time": 256.4617029708335,
          "velocity": 0.4645669291338583,
          "duration": 0.06770830624998325
        },
        {
          "name": "D2",
          "midi": 38,
          "time": 256.6544112270835,
          "velocity": 0.7086614173228346,
          "duration": 0.08854163124999559
        },
        {
          "name": "D3",
          "midi": 50,
          "time": 256.6630917791668,
          "velocity": 0.6692913385826772,
          "duration": 0.0815971895833627
        },
        {
          "name": "A4",
          "midi": 69,
          "time": 256.6683001104168,
          "velocity": 0.5669291338582677,
          "duration": 0.09722218333337196
        },
        {
          "name": "D4",
          "midi": 62,
          "time": 256.6700362208335,
          "velocity": 0.5196850393700787,
          "duration": 0.09548607291668532
        },
        {
          "name": "A4",
          "midi": 69,
          "time": 257.0867027208335,
          "velocity": 0.5905511811023622,
          "duration": 0.1024305145833182
        },
        {
          "name": "D4",
          "midi": 62,
          "time": 257.0901749416668,
          "velocity": 0.5354330708661418,
          "duration": 0.1024305145833182
        },
        {
          "name": "A4",
          "midi": 69,
          "time": 257.50510533125015,
          "velocity": 0.6377952755905512,
          "duration": 0.11805550833332745
        },
        {
          "name": "D2",
          "midi": 38,
          "time": 257.50510533125015,
          "velocity": 0.7165354330708661,
          "duration": 0.09027774166668223
        },
        {
          "name": "D3",
          "midi": 50,
          "time": 257.50510533125015,
          "velocity": 0.6299212598425197,
          "duration": 0.07812496874998942
        },
        {
          "name": "D4",
          "midi": 62,
          "time": 257.51031366250015,
          "velocity": 0.5748031496062992,
          "duration": 0.11805550833332745
        },
        {
          "name": "A4",
          "midi": 69,
          "time": 257.9096190583335,
          "velocity": 0.5354330708661418,
          "duration": 0.09374996249999867
        },
        {
          "name": "D4",
          "midi": 62,
          "time": 257.9130912791668,
          "velocity": 0.5196850393700787,
          "duration": 0.09201385208336887
        },
        {
          "name": "D4",
          "midi": 62,
          "time": 258.1196884187502,
          "velocity": 0.5118110236220472,
          "duration": 0.10243051458337504
        },
        {
          "name": "A4",
          "midi": 69,
          "time": 258.1196884187502,
          "velocity": 0.5511811023622047,
          "duration": 0.09548607291668532
        },
        {
          "name": "D2",
          "midi": 38,
          "time": 258.31066056458354,
          "velocity": 0.7086614173228346,
          "duration": 0.10416662500000484
        },
        {
          "name": "D3",
          "midi": 50,
          "time": 258.31586889583355,
          "velocity": 0.6535433070866141,
          "duration": 0.08854163124999559
        },
        {
          "name": "A4",
          "midi": 69,
          "time": 258.32454944791687,
          "velocity": 0.5669291338582677,
          "duration": 0.10763884583337813
        },
        {
          "name": "D4",
          "midi": 62,
          "time": 258.32628555833355,
          "velocity": 0.5354330708661418,
          "duration": 0.1006944041666884
        },
        {
          "name": "A4",
          "midi": 69,
          "time": 258.7481603895836,
          "velocity": 0.5196850393700787,
          "duration": 0.09722218333331512
        },
        {
          "name": "D4",
          "midi": 62,
          "time": 258.7533687208336,
          "velocity": 0.47244094488188976,
          "duration": 0.09201385208331203
        },
        {
          "name": "A4",
          "midi": 69,
          "time": 258.96170197083353,
          "velocity": 0.5354330708661418,
          "duration": 0.10243051458337504
        },
        {
          "name": "D4",
          "midi": 62,
          "time": 258.9634380812502,
          "velocity": 0.47244094488188976,
          "duration": 0.09374996249999867
        },
        {
          "name": "D2",
          "midi": 38,
          "time": 259.1335769020836,
          "velocity": 0.6929133858267716,
          "duration": 0.10416662500000484
        },
        {
          "name": "D3",
          "midi": 50,
          "time": 259.1370491229169,
          "velocity": 0.6692913385826772,
          "duration": 0.09027774166668223
        },
        {
          "name": "A4",
          "midi": 69,
          "time": 259.1665630000002,
          "velocity": 0.5748031496062992,
          "duration": 0.10937495625006477
        },
        {
          "name": "D4",
          "midi": 62,
          "time": 259.1682991104169,
          "velocity": 0.5275590551181102,
          "duration": 0.1006944041666884
        },
        {
          "name": "A4",
          "midi": 69,
          "time": 259.5884378312503,
          "velocity": 0.5748031496062992,
          "duration": 0.10937495625000793
        },
        {
          "name": "D4",
          "midi": 62,
          "time": 259.5919100520836,
          "velocity": 0.5354330708661418,
          "duration": 0.1006944041666884
        },
        {
          "name": "G4",
          "midi": 67,
          "time": 259.99815988958363,
          "velocity": 0.6771653543307087,
          "duration": 0.11284717708332437
        },
        {
          "name": "C4",
          "midi": 60,
          "time": 259.9998960000003,
          "velocity": 0.6220472440944882,
          "duration": 0.11631939791664081
        },
        {
          "name": "C3",
          "midi": 48,
          "time": 260.00336822083364,
          "velocity": 0.6771653543307087,
          "duration": 0.09027774166668223
        },
        {
          "name": "C2",
          "midi": 36,
          "time": 260.0051043312503,
          "velocity": 0.8031496062992126,
          "duration": 0.0833332999999925
        },
        {
          "name": "C4",
          "midi": 60,
          "time": 260.40961805833365,
          "velocity": 0.5354330708661418,
          "duration": 0.1006944041666884
        },
        {
          "name": "G4",
          "midi": 67,
          "time": 260.40961805833365,
          "velocity": 0.5511811023622047,
          "duration": 0.07638885833335962
        },
        {
          "name": "C4",
          "midi": 60,
          "time": 260.61621519791703,
          "velocity": 0.49606299212598426,
          "duration": 0.09722218333331512
        },
        {
          "name": "G4",
          "midi": 67,
          "time": 260.61621519791703,
          "velocity": 0.5354330708661418,
          "duration": 0.08680552083330895
        },
        {
          "name": "G4",
          "midi": 67,
          "time": 260.82454844791704,
          "velocity": 0.6299212598425197,
          "duration": 0.09722218333337196
        },
        {
          "name": "C4",
          "midi": 60,
          "time": 260.8262845583337,
          "velocity": 0.5354330708661418,
          "duration": 0.08680552083336579
        },
        {
          "name": "C2",
          "midi": 36,
          "time": 260.8332290000004,
          "velocity": 0.7480314960629921,
          "duration": 0.10243051458337504
        },
        {
          "name": "C3",
          "midi": 48,
          "time": 260.8453817729171,
          "velocity": 0.6220472440944882,
          "duration": 0.0833332999999925
        },
        {
          "name": "C4",
          "midi": 60,
          "time": 261.24468716875043,
          "velocity": 0.5039370078740157,
          "duration": 0.09027774166668223
        },
        {
          "name": "G4",
          "midi": 67,
          "time": 261.24468716875043,
          "velocity": 0.5511811023622047,
          "duration": 0.07986107916667606
        },
        {
          "name": "C4",
          "midi": 60,
          "time": 261.4547565291671,
          "velocity": 0.47244094488188976,
          "duration": 0.08680552083336579
        },
        {
          "name": "G4",
          "midi": 67,
          "time": 261.4547565291671,
          "velocity": 0.5196850393700787,
          "duration": 0.07986107916667606
        },
        {
          "name": "G4",
          "midi": 67,
          "time": 261.6613536687505,
          "velocity": 0.5748031496062992,
          "duration": 0.09722218333337196
        },
        {
          "name": "C4",
          "midi": 60,
          "time": 261.6630897791672,
          "velocity": 0.4881889763779528,
          "duration": 0.08854163124999559
        },
        {
          "name": "C2",
          "midi": 36,
          "time": 261.6821869937505,
          "velocity": 0.6614173228346457,
          "duration": 0.2395832375000282
        },
        {
          "name": "C3",
          "midi": 48,
          "time": 261.69086754583384,
          "velocity": 0.6299212598425197,
          "duration": 0.16145826875003877
        },
        {
          "name": "G4",
          "midi": 67,
          "time": 262.0762840583339,
          "velocity": 0.5196850393700787,
          "duration": 0.09895829375000176
        },
        {
          "name": "C4",
          "midi": 60,
          "time": 262.0780201687506,
          "velocity": 0.4645669291338583,
          "duration": 0.10416662500000484
        },
        {
          "name": "F3",
          "midi": 53,
          "time": 262.4998950000006,
          "velocity": 0.7244094488188977,
          "duration": 0.14409716458334287
        },
        {
          "name": "C5",
          "midi": 72,
          "time": 262.5068394416673,
          "velocity": 0.6614173228346457,
          "duration": 0.14583327499997267
        },
        {
          "name": "F2",
          "midi": 41,
          "time": 262.5068394416673,
          "velocity": 0.7874015748031497,
          "duration": 0.1336805020833367
        },
        {
          "name": "F4",
          "midi": 65,
          "time": 262.508575552084,
          "velocity": 0.6299212598425197,
          "duration": 0.15277771666660556
        },
        {
          "name": "F4",
          "midi": 65,
          "time": 262.92350594166726,
          "velocity": 0.5511811023622047,
          "duration": 0.10416662500000484
        },
        {
          "name": "C5",
          "midi": 72,
          "time": 262.92350594166726,
          "velocity": 0.5826771653543307,
          "duration": 0.09027774166668223
        },
        {
          "name": "F4",
          "midi": 65,
          "time": 263.1301030812506,
          "velocity": 0.5039370078740157,
          "duration": 0.09027774166668223
        },
        {
          "name": "C5",
          "midi": 72,
          "time": 263.1301030812506,
          "velocity": 0.5433070866141733,
          "duration": 0.07465274791667298
        },
        {
          "name": "C5",
          "midi": 72,
          "time": 263.3367002208339,
          "velocity": 0.6377952755905512,
          "duration": 0.09548607291668532
        },
        {
          "name": "F4",
          "midi": 65,
          "time": 263.3384363312506,
          "velocity": 0.5905511811023622,
          "duration": 0.09722218333331512
        },
        {
          "name": "F2",
          "midi": 41,
          "time": 263.3627418770839,
          "velocity": 0.6377952755905512,
          "duration": 0.15624993749997884
        },
        {
          "name": "F3",
          "midi": 53,
          "time": 263.3644779875006,
          "velocity": 0.5748031496062992,
          "duration": 0.1354166124999665
        },
        {
          "name": "F4",
          "midi": 65,
          "time": 263.7533667208339,
          "velocity": 0.5433070866141733,
          "duration": 0.10069440416663156
        },
        {
          "name": "C5",
          "midi": 72,
          "time": 263.7533667208339,
          "velocity": 0.5748031496062992,
          "duration": 0.0833332999999925
        },
        {
          "name": "F4",
          "midi": 65,
          "time": 263.9616999708339,
          "velocity": 0.4645669291338583,
          "duration": 0.08854163124993875
        },
        {
          "name": "C5",
          "midi": 72,
          "time": 263.9651721916672,
          "velocity": 0.5196850393700787,
          "duration": 0.06770830624998325
        },
        {
          "name": "C5",
          "midi": 72,
          "time": 264.17003322083383,
          "velocity": 0.4881889763779528,
          "duration": 0.09548607291668532
        },
        {
          "name": "F4",
          "midi": 65,
          "time": 264.17524155208383,
          "velocity": 0.5433070866141733,
          "duration": 0.07812496874998942
        },
        {
          "name": "F2",
          "midi": 41,
          "time": 264.2134359812505,
          "velocity": 0.7480314960629921,
          "duration": 0.14583327500002952
        },
        {
          "name": "F3",
          "midi": 53,
          "time": 264.2134359812505,
          "velocity": 0.7086614173228346,
          "duration": 0.11284717708338121
        },
        {
          "name": "C5",
          "midi": 72,
          "time": 264.58669972083385,
          "velocity": 0.5826771653543307,
          "duration": 0.10590273541663464
        },
        {
          "name": "F4",
          "midi": 65,
          "time": 264.59017194166717,
          "velocity": 0.5511811023622047,
          "duration": 0.11111106666663773
        },
        {
          "name": "G4",
          "midi": 67,
          "time": 264.9981578895838,
          "velocity": 0.6771653543307087,
          "duration": 0.11284717708332437
        },
        {
          "name": "C4",
          "midi": 60,
          "time": 264.9998940000005,
          "velocity": 0.6220472440944882,
          "duration": 0.11631939791664081
        },
        {
          "name": "C3",
          "midi": 48,
          "time": 265.0033662208338,
          "velocity": 0.6771653543307087,
          "duration": 0.09027774166668223
        },
        {
          "name": "C2",
          "midi": 36,
          "time": 265.0051023312505,
          "velocity": 0.8031496062992126,
          "duration": 0.0833332999999925
        },
        {
          "name": "C4",
          "midi": 60,
          "time": 265.4096160583338,
          "velocity": 0.5354330708661418,
          "duration": 0.1006944041666884
        },
        {
          "name": "G4",
          "midi": 67,
          "time": 265.4096160583338,
          "velocity": 0.5511811023622047,
          "duration": 0.07638885833335962
        },
        {
          "name": "C4",
          "midi": 60,
          "time": 265.6162131979172,
          "velocity": 0.49606299212598426,
          "duration": 0.09722218333331512
        },
        {
          "name": "G4",
          "midi": 67,
          "time": 265.6162131979172,
          "velocity": 0.5354330708661418,
          "duration": 0.08680552083330895
        },
        {
          "name": "G4",
          "midi": 67,
          "time": 265.8245464479172,
          "velocity": 0.6299212598425197,
          "duration": 0.09722218333331512
        },
        {
          "name": "C4",
          "midi": 60,
          "time": 265.8262825583339,
          "velocity": 0.5354330708661418,
          "duration": 0.08680552083330895
        },
        {
          "name": "C3",
          "midi": 48,
          "time": 265.8471158833339,
          "velocity": 0.5748031496062992,
          "duration": 0.13194439166659322
        },
        {
          "name": "C2",
          "midi": 36,
          "time": 265.85058810416723,
          "velocity": 0.5905511811023622,
          "duration": 0.18055548333325078
        },
        {
          "name": "C4",
          "midi": 60,
          "time": 266.2446851687505,
          "velocity": 0.5039370078740157,
          "duration": 0.09027774166668223
        },
        {
          "name": "G4",
          "midi": 67,
          "time": 266.2446851687505,
          "velocity": 0.5511811023622047,
          "duration": 0.07986107916667606
        },
        {
          "name": "C4",
          "midi": 60,
          "time": 266.4547545291672,
          "velocity": 0.47244094488188976,
          "duration": 0.08680552083336579
        },
        {
          "name": "G4",
          "midi": 67,
          "time": 266.4547545291672,
          "velocity": 0.5196850393700787,
          "duration": 0.07986107916667606
        },
        {
          "name": "G4",
          "midi": 67,
          "time": 266.66135166875057,
          "velocity": 0.5748031496062992,
          "duration": 0.09722218333337196
        },
        {
          "name": "C4",
          "midi": 60,
          "time": 266.66308777916726,
          "velocity": 0.4881889763779528,
          "duration": 0.08854163124999559
        },
        {
          "name": "C2",
          "midi": 36,
          "time": 266.67871277291727,
          "velocity": 0.6377952755905512,
          "duration": 0.17534715208330454
        },
        {
          "name": "C3",
          "midi": 48,
          "time": 266.6821849937506,
          "velocity": 0.5748031496062992,
          "duration": 0.14930549583334596
        },
        {
          "name": "G4",
          "midi": 67,
          "time": 267.0762820583339,
          "velocity": 0.5196850393700787,
          "duration": 0.09895829375000176
        },
        {
          "name": "C4",
          "midi": 60,
          "time": 267.0780181687506,
          "velocity": 0.4645669291338583,
          "duration": 0.10416662500000484
        },
        {
          "name": "F4",
          "midi": 65,
          "time": 267.5051013312506,
          "velocity": 0.6377952755905512,
          "duration": 0.11805550833332745
        },
        {
          "name": "A#1",
          "midi": 34,
          "time": 267.5051013312506,
          "velocity": 0.7165354330708661,
          "duration": 0.09027774166668223
        },
        {
          "name": "A#2",
          "midi": 46,
          "time": 267.5051013312506,
          "velocity": 0.6299212598425197,
          "duration": 0.07812496874998942
        },
        {
          "name": "A#3",
          "midi": 58,
          "time": 267.5103096625006,
          "velocity": 0.5748031496062992,
          "duration": 0.11805550833332745
        },
        {
          "name": "F4",
          "midi": 65,
          "time": 267.90961505833394,
          "velocity": 0.5354330708661418,
          "duration": 0.09374996249999867
        },
        {
          "name": "A#3",
          "midi": 58,
          "time": 267.91308727916726,
          "velocity": 0.5196850393700787,
          "duration": 0.09201385208336887
        },
        {
          "name": "A#3",
          "midi": 58,
          "time": 268.11968441875064,
          "velocity": 0.5118110236220472,
          "duration": 0.10243051458337504
        },
        {
          "name": "F4",
          "midi": 65,
          "time": 268.11968441875064,
          "velocity": 0.5511811023622047,
          "duration": 0.09548607291668532
        },
        {
          "name": "F4",
          "midi": 65,
          "time": 268.32454544791733,
          "velocity": 0.5669291338582677,
          "duration": 0.10763884583332128
        },
        {
          "name": "A#3",
          "midi": 58,
          "time": 268.326281558334,
          "velocity": 0.5354330708661418,
          "duration": 0.10069440416663156
        },
        {
          "name": "A#2",
          "midi": 46,
          "time": 268.33496211041734,
          "velocity": 0.6456692913385826,
          "duration": 0.11631939791664081
        },
        {
          "name": "A#1",
          "midi": 34,
          "time": 268.34017044166734,
          "velocity": 0.6614173228346457,
          "duration": 0.11979161874995725
        },
        {
          "name": "F4",
          "midi": 65,
          "time": 268.748156389584,
          "velocity": 0.5196850393700787,
          "duration": 0.09722218333331512
        },
        {
          "name": "A#3",
          "midi": 58,
          "time": 268.753364720834,
          "velocity": 0.47244094488188976,
          "duration": 0.09201385208331203
        },
        {
          "name": "F4",
          "midi": 65,
          "time": 268.96169797083394,
          "velocity": 0.5354330708661418,
          "duration": 0.10243051458337504
        },
        {
          "name": "A#3",
          "midi": 58,
          "time": 268.9634340812506,
          "velocity": 0.47244094488188976,
          "duration": 0.09374996249999867
        },
        {
          "name": "A#2",
          "midi": 46,
          "time": 269.16135066875063,
          "velocity": 0.7007874015748031,
          "duration": 0.11458328750006785
        },
        {
          "name": "F4",
          "midi": 65,
          "time": 269.16655900000063,
          "velocity": 0.5748031496062992,
          "duration": 0.10937495625006477
        },
        {
          "name": "A#1",
          "midi": 34,
          "time": 269.1682951104173,
          "velocity": 0.6850393700787402,
          "duration": 0.12673606041670382
        },
        {
          "name": "A#3",
          "midi": 58,
          "time": 269.1682951104173,
          "velocity": 0.5275590551181102,
          "duration": 0.1006944041666884
        },
        {
          "name": "F4",
          "midi": 65,
          "time": 269.5884338312507,
          "velocity": 0.5748031496062992,
          "duration": 0.10937495625000793
        },
        {
          "name": "A#3",
          "midi": 58,
          "time": 269.591906052084,
          "velocity": 0.5354330708661418,
          "duration": 0.1006944041666884
        },
        {
          "name": "E4",
          "midi": 64,
          "time": 269.99815588958404,
          "velocity": 0.6771653543307087,
          "duration": 0.11284717708332437
        },
        {
          "name": "A3",
          "midi": 57,
          "time": 269.9998920000007,
          "velocity": 0.6220472440944882,
          "duration": 0.11631939791664081
        },
        {
          "name": "A2",
          "midi": 45,
          "time": 270.00336422083404,
          "velocity": 0.6771653543307087,
          "duration": 0.09027774166668223
        },
        {
          "name": "A1",
          "midi": 33,
          "time": 270.00510033125073,
          "velocity": 0.8031496062992126,
          "duration": 0.0833332999999925
        },
        {
          "name": "A3",
          "midi": 57,
          "time": 270.40961405833406,
          "velocity": 0.5354330708661418,
          "duration": 0.1006944041666884
        },
        {
          "name": "E4",
          "midi": 64,
          "time": 270.40961405833406,
          "velocity": 0.5511811023622047,
          "duration": 0.07638885833335962
        },
        {
          "name": "A3",
          "midi": 57,
          "time": 270.61621119791744,
          "velocity": 0.49606299212598426,
          "duration": 0.09722218333331512
        },
        {
          "name": "E4",
          "midi": 64,
          "time": 270.61621119791744,
          "velocity": 0.5354330708661418,
          "duration": 0.08680552083330895
        },
        {
          "name": "E4",
          "midi": 64,
          "time": 270.82454444791745,
          "velocity": 0.6299212598425197,
          "duration": 0.09722218333337196
        },
        {
          "name": "A3",
          "midi": 57,
          "time": 270.82628055833413,
          "velocity": 0.5354330708661418,
          "duration": 0.08680552083336579
        },
        {
          "name": "A2",
          "midi": 45,
          "time": 270.8384333312508,
          "velocity": 0.6299212598425197,
          "duration": 0.11284717708332437
        },
        {
          "name": "A1",
          "midi": 33,
          "time": 270.8453777729175,
          "velocity": 0.6771653543307087,
          "duration": 0.1354166124999665
        },
        {
          "name": "A3",
          "midi": 57,
          "time": 271.24468316875084,
          "velocity": 0.5039370078740157,
          "duration": 0.09027774166668223
        },
        {
          "name": "E4",
          "midi": 64,
          "time": 271.24468316875084,
          "velocity": 0.5511811023622047,
          "duration": 0.07986107916667606
        },
        {
          "name": "A3",
          "midi": 57,
          "time": 271.45475252916754,
          "velocity": 0.47244094488188976,
          "duration": 0.08680552083336579
        },
        {
          "name": "E4",
          "midi": 64,
          "time": 271.45475252916754,
          "velocity": 0.5196850393700787,
          "duration": 0.07986107916667606
        },
        {
          "name": "A2",
          "midi": 45,
          "time": 271.6422524541676,
          "velocity": 0.6299212598425197,
          "duration": 0.10937495625000793
        },
        {
          "name": "A1",
          "midi": 33,
          "time": 271.6474607854176,
          "velocity": 0.7716535433070866,
          "duration": 0.10590273541669148
        },
        {
          "name": "E4",
          "midi": 64,
          "time": 271.6613496687509,
          "velocity": 0.5748031496062992,
          "duration": 0.09722218333337196
        },
        {
          "name": "A3",
          "midi": 57,
          "time": 271.6630857791676,
          "velocity": 0.4881889763779528,
          "duration": 0.08854163124999559
        },
        {
          "name": "E4",
          "midi": 64,
          "time": 272.0762800583343,
          "velocity": 0.5196850393700787,
          "duration": 0.09895829375000176
        },
        {
          "name": "A3",
          "midi": 57,
          "time": 272.078016168751,
          "velocity": 0.4645669291338583,
          "duration": 0.10416662500000484
        },
        {
          "name": "F4",
          "midi": 65,
          "time": 272.505099331251,
          "velocity": 0.6377952755905512,
          "duration": 0.11805550833332745
        },
        {
          "name": "A#1",
          "midi": 34,
          "time": 272.505099331251,
          "velocity": 0.7165354330708661,
          "duration": 0.09027774166668223
        },
        {
          "name": "A#2",
          "midi": 46,
          "time": 272.505099331251,
          "velocity": 0.6299212598425197,
          "duration": 0.07812496874998942
        },
        {
          "name": "A#3",
          "midi": 58,
          "time": 272.510307662501,
          "velocity": 0.5748031496062992,
          "duration": 0.11805550833332745
        },
        {
          "name": "F4",
          "midi": 65,
          "time": 272.90961305833434,
          "velocity": 0.5354330708661418,
          "duration": 0.09374996249999867
        },
        {
          "name": "A#3",
          "midi": 58,
          "time": 272.91308527916766,
          "velocity": 0.5196850393700787,
          "duration": 0.09201385208336887
        },
        {
          "name": "A#3",
          "midi": 58,
          "time": 273.11968241875104,
          "velocity": 0.5118110236220472,
          "duration": 0.10243051458337504
        },
        {
          "name": "F4",
          "midi": 65,
          "time": 273.11968241875104,
          "velocity": 0.5511811023622047,
          "duration": 0.09548607291668532
        },
        {
          "name": "F4",
          "midi": 65,
          "time": 273.32454344791773,
          "velocity": 0.5669291338582677,
          "duration": 0.10763884583332128
        },
        {
          "name": "A#3",
          "midi": 58,
          "time": 273.3262795583344,
          "velocity": 0.5354330708661418,
          "duration": 0.10069440416663156
        },
        {
          "name": "A#2",
          "midi": 46,
          "time": 273.33496011041774,
          "velocity": 0.6456692913385826,
          "duration": 0.11631939791664081
        },
        {
          "name": "A#1",
          "midi": 34,
          "time": 273.34016844166774,
          "velocity": 0.6614173228346457,
          "duration": 0.11979161874995725
        },
        {
          "name": "F4",
          "midi": 65,
          "time": 273.7481543895844,
          "velocity": 0.5196850393700787,
          "duration": 0.09722218333331512
        },
        {
          "name": "A#3",
          "midi": 58,
          "time": 273.7533627208344,
          "velocity": 0.47244094488188976,
          "duration": 0.09201385208331203
        },
        {
          "name": "F4",
          "midi": 65,
          "time": 273.96169597083434,
          "velocity": 0.5354330708661418,
          "duration": 0.10243051458337504
        },
        {
          "name": "A#3",
          "midi": 58,
          "time": 273.963432081251,
          "velocity": 0.47244094488188976,
          "duration": 0.09374996249999867
        },
        {
          "name": "A#2",
          "midi": 46,
          "time": 274.16134866875103,
          "velocity": 0.7007874015748031,
          "duration": 0.11458328750006785
        },
        {
          "name": "F4",
          "midi": 65,
          "time": 274.16655700000103,
          "velocity": 0.5748031496062992,
          "duration": 0.10937495625006477
        },
        {
          "name": "A#1",
          "midi": 34,
          "time": 274.1682931104177,
          "velocity": 0.6850393700787402,
          "duration": 0.12673606041670382
        },
        {
          "name": "A#3",
          "midi": 58,
          "time": 274.1682931104177,
          "velocity": 0.5275590551181102,
          "duration": 0.1006944041666884
        },
        {
          "name": "F4",
          "midi": 65,
          "time": 274.5884318312511,
          "velocity": 0.5748031496062992,
          "duration": 0.10937495625000793
        },
        {
          "name": "A#3",
          "midi": 58,
          "time": 274.59190405208443,
          "velocity": 0.5354330708661418,
          "duration": 0.1006944041666884
        },
        {
          "name": "E4",
          "midi": 64,
          "time": 274.99815388958444,
          "velocity": 0.6771653543307087,
          "duration": 0.11284717708332437
        },
        {
          "name": "A3",
          "midi": 57,
          "time": 274.99989000000113,
          "velocity": 0.6220472440944882,
          "duration": 0.11631939791664081
        },
        {
          "name": "A2",
          "midi": 45,
          "time": 275.00336222083445,
          "velocity": 0.6771653543307087,
          "duration": 0.09027774166668223
        },
        {
          "name": "A1",
          "midi": 33,
          "time": 275.00509833125113,
          "velocity": 0.8031496062992126,
          "duration": 0.0833332999999925
        },
        {
          "name": "A3",
          "midi": 57,
          "time": 275.40961205833446,
          "velocity": 0.5354330708661418,
          "duration": 0.1006944041666884
        },
        {
          "name": "E4",
          "midi": 64,
          "time": 275.40961205833446,
          "velocity": 0.5511811023622047,
          "duration": 0.07638885833335962
        },
        {
          "name": "A3",
          "midi": 57,
          "time": 275.61620919791784,
          "velocity": 0.49606299212598426,
          "duration": 0.09722218333331512
        },
        {
          "name": "E4",
          "midi": 64,
          "time": 275.61620919791784,
          "velocity": 0.5354330708661418,
          "duration": 0.08680552083330895
        },
        {
          "name": "E4",
          "midi": 64,
          "time": 275.82454244791785,
          "velocity": 0.6299212598425197,
          "duration": 0.09722218333337196
        },
        {
          "name": "A3",
          "midi": 57,
          "time": 275.82627855833454,
          "velocity": 0.5354330708661418,
          "duration": 0.08680552083336579
        },
        {
          "name": "A2",
          "midi": 45,
          "time": 275.83843133125123,
          "velocity": 0.6299212598425197,
          "duration": 0.11284717708332437
        },
        {
          "name": "A1",
          "midi": 33,
          "time": 275.8453757729179,
          "velocity": 0.6771653543307087,
          "duration": 0.1354166124999665
        },
        {
          "name": "A3",
          "midi": 57,
          "time": 276.24468116875124,
          "velocity": 0.5039370078740157,
          "duration": 0.09027774166668223
        },
        {
          "name": "E4",
          "midi": 64,
          "time": 276.24468116875124,
          "velocity": 0.5511811023622047,
          "duration": 0.07986107916667606
        },
        {
          "name": "A3",
          "midi": 57,
          "time": 276.45475052916794,
          "velocity": 0.47244094488188976,
          "duration": 0.08680552083336579
        },
        {
          "name": "E4",
          "midi": 64,
          "time": 276.45475052916794,
          "velocity": 0.5196850393700787,
          "duration": 0.07986107916667606
        },
        {
          "name": "A2",
          "midi": 45,
          "time": 276.642250454168,
          "velocity": 0.6299212598425197,
          "duration": 0.10937495625000793
        },
        {
          "name": "A1",
          "midi": 33,
          "time": 276.647458785418,
          "velocity": 0.7716535433070866,
          "duration": 0.10590273541669148
        },
        {
          "name": "E4",
          "midi": 64,
          "time": 276.6613476687513,
          "velocity": 0.5748031496062992,
          "duration": 0.09722218333337196
        },
        {
          "name": "A3",
          "midi": 57,
          "time": 276.663083779168,
          "velocity": 0.4881889763779528,
          "duration": 0.08854163124999559
        },
        {
          "name": "E4",
          "midi": 64,
          "time": 277.0762780583347,
          "velocity": 0.5196850393700787,
          "duration": 0.09895829375000176
        },
        {
          "name": "A3",
          "midi": 57,
          "time": 277.0780141687514,
          "velocity": 0.4645669291338583,
          "duration": 0.10416662500000484
        },
        {
          "name": "F4",
          "midi": 65,
          "time": 277.5050973312514,
          "velocity": 0.6377952755905512,
          "duration": 0.11805550833332745
        },
        {
          "name": "A#1",
          "midi": 34,
          "time": 277.5050973312514,
          "velocity": 0.7165354330708661,
          "duration": 0.09027774166668223
        },
        {
          "name": "A#2",
          "midi": 46,
          "time": 277.5050973312514,
          "velocity": 0.6299212598425197,
          "duration": 0.07812496874998942
        },
        {
          "name": "A#3",
          "midi": 58,
          "time": 277.5103056625014,
          "velocity": 0.5748031496062992,
          "duration": 0.11805550833332745
        },
        {
          "name": "F4",
          "midi": 65,
          "time": 277.90961105833475,
          "velocity": 0.5354330708661418,
          "duration": 0.09374996249999867
        },
        {
          "name": "A#3",
          "midi": 58,
          "time": 277.91308327916806,
          "velocity": 0.5196850393700787,
          "duration": 0.09201385208336887
        },
        {
          "name": "A#3",
          "midi": 58,
          "time": 278.11968041875144,
          "velocity": 0.5118110236220472,
          "duration": 0.10243051458337504
        },
        {
          "name": "F4",
          "midi": 65,
          "time": 278.11968041875144,
          "velocity": 0.5511811023622047,
          "duration": 0.09548607291668532
        },
        {
          "name": "F4",
          "midi": 65,
          "time": 278.32454144791814,
          "velocity": 0.5669291338582677,
          "duration": 0.10763884583332128
        },
        {
          "name": "A#3",
          "midi": 58,
          "time": 278.3262775583348,
          "velocity": 0.5354330708661418,
          "duration": 0.10069440416663156
        },
        {
          "name": "A#2",
          "midi": 46,
          "time": 278.33495811041814,
          "velocity": 0.6456692913385826,
          "duration": 0.11631939791664081
        },
        {
          "name": "A#1",
          "midi": 34,
          "time": 278.34016644166815,
          "velocity": 0.6614173228346457,
          "duration": 0.11979161874995725
        },
        {
          "name": "F4",
          "midi": 65,
          "time": 278.7481523895848,
          "velocity": 0.5196850393700787,
          "duration": 0.09722218333331512
        },
        {
          "name": "A#3",
          "midi": 58,
          "time": 278.7533607208348,
          "velocity": 0.47244094488188976,
          "duration": 0.09201385208331203
        },
        {
          "name": "F4",
          "midi": 65,
          "time": 278.96169397083474,
          "velocity": 0.5354330708661418,
          "duration": 0.10243051458337504
        },
        {
          "name": "A#3",
          "midi": 58,
          "time": 278.96343008125143,
          "velocity": 0.47244094488188976,
          "duration": 0.09374996249999867
        },
        {
          "name": "A#2",
          "midi": 46,
          "time": 279.16134666875143,
          "velocity": 0.7007874015748031,
          "duration": 0.11458328750006785
        },
        {
          "name": "F4",
          "midi": 65,
          "time": 279.16655500000144,
          "velocity": 0.5748031496062992,
          "duration": 0.10937495625006477
        },
        {
          "name": "A#1",
          "midi": 34,
          "time": 279.1682911104181,
          "velocity": 0.6850393700787402,
          "duration": 0.12673606041670382
        },
        {
          "name": "A#3",
          "midi": 58,
          "time": 279.1682911104181,
          "velocity": 0.5275590551181102,
          "duration": 0.1006944041666884
        },
        {
          "name": "F4",
          "midi": 65,
          "time": 279.5884298312515,
          "velocity": 0.5748031496062992,
          "duration": 0.10937495625000793
        },
        {
          "name": "A#3",
          "midi": 58,
          "time": 279.59190205208483,
          "velocity": 0.5354330708661418,
          "duration": 0.1006944041666884
        },
        {
          "name": "E4",
          "midi": 64,
          "time": 279.99815188958485,
          "velocity": 0.6771653543307087,
          "duration": 0.11284717708332437
        },
        {
          "name": "A3",
          "midi": 57,
          "time": 279.99988800000153,
          "velocity": 0.6220472440944882,
          "duration": 0.11631939791664081
        },
        {
          "name": "A2",
          "midi": 45,
          "time": 280.00336022083485,
          "velocity": 0.6771653543307087,
          "duration": 0.09027774166668223
        },
        {
          "name": "A1",
          "midi": 33,
          "time": 280.00509633125154,
          "velocity": 0.8031496062992126,
          "duration": 0.0833332999999925
        },
        {
          "name": "A3",
          "midi": 57,
          "time": 280.40961005833486,
          "velocity": 0.5354330708661418,
          "duration": 0.1006944041666884
        },
        {
          "name": "E4",
          "midi": 64,
          "time": 280.40961005833486,
          "velocity": 0.5511811023622047,
          "duration": 0.07638885833335962
        },
        {
          "name": "A3",
          "midi": 57,
          "time": 280.61620719791824,
          "velocity": 0.49606299212598426,
          "duration": 0.09722218333331512
        },
        {
          "name": "E4",
          "midi": 64,
          "time": 280.61620719791824,
          "velocity": 0.5354330708661418,
          "duration": 0.08680552083330895
        },
        {
          "name": "E4",
          "midi": 64,
          "time": 280.82454044791825,
          "velocity": 0.6299212598425197,
          "duration": 0.09722218333337196
        },
        {
          "name": "A3",
          "midi": 57,
          "time": 280.82627655833494,
          "velocity": 0.5354330708661418,
          "duration": 0.08680552083336579
        },
        {
          "name": "A2",
          "midi": 45,
          "time": 280.83842933125163,
          "velocity": 0.6299212598425197,
          "duration": 0.11284717708332437
        },
        {
          "name": "A1",
          "midi": 33,
          "time": 280.8453737729183,
          "velocity": 0.6771653543307087,
          "duration": 0.1354166124999665
        },
        {
          "name": "A3",
          "midi": 57,
          "time": 281.24467916875165,
          "velocity": 0.5039370078740157,
          "duration": 0.09027774166668223
        },
        {
          "name": "E4",
          "midi": 64,
          "time": 281.24467916875165,
          "velocity": 0.5511811023622047,
          "duration": 0.07986107916667606
        },
        {
          "name": "A3",
          "midi": 57,
          "time": 281.45474852916834,
          "velocity": 0.47244094488188976,
          "duration": 0.08680552083336579
        },
        {
          "name": "E4",
          "midi": 64,
          "time": 281.45474852916834,
          "velocity": 0.5196850393700787,
          "duration": 0.07986107916667606
        },
        {
          "name": "A2",
          "midi": 45,
          "time": 281.6422484541684,
          "velocity": 0.6299212598425197,
          "duration": 0.10937495625000793
        },
        {
          "name": "A1",
          "midi": 33,
          "time": 281.6474567854184,
          "velocity": 0.7716535433070866,
          "duration": 0.10590273541669148
        },
        {
          "name": "E4",
          "midi": 64,
          "time": 281.6613456687517,
          "velocity": 0.5748031496062992,
          "duration": 0.09722218333337196
        },
        {
          "name": "A3",
          "midi": 57,
          "time": 281.6630817791684,
          "velocity": 0.4881889763779528,
          "duration": 0.08854163124999559
        },
        {
          "name": "E4",
          "midi": 64,
          "time": 282.0762760583351,
          "velocity": 0.5196850393700787,
          "duration": 0.09895829375000176
        },
        {
          "name": "A3",
          "midi": 57,
          "time": 282.0780121687518,
          "velocity": 0.4645669291338583,
          "duration": 0.10416662500000484
        }
      ],
      "controlChanges": {
        "6": [
          {
            "number": 6,
            "time": 0.633680302083333,
            "value": 0.015748031496062992
          },
          {
            "number": 6,
            "time": 0.6423608541666663,
            "value": 0.5039370078740157
          },
          {
            "number": 6,
            "time": 0.6510414062499996,
            "value": 0.5039370078740157
          },
          {
            "number": 6,
            "time": 0.6597219583333329,
            "value": 0.5039370078740157
          },
          {
            "number": 6,
            "time": 0.6684025104166662,
            "value": 0.5039370078740157
          },
          {
            "number": 6,
            "time": 0.6770830624999995,
            "value": 0.5039370078740157
          },
          {
            "number": 6,
            "time": 0.6857636145833328,
            "value": 0.5039370078740157
          },
          {
            "number": 6,
            "time": 0.6944441666666661,
            "value": 0.5039370078740157
          },
          {
            "number": 6,
            "time": 0.7031247187499994,
            "value": 0.5039370078740157
          }
        ],
        "7": [
          {
            "number": 7,
            "time": 0.5989580937499999,
            "value": 0.7874015748031497
          },
          {
            "number": 7,
            "time": 149.99994000000072,
            "value": 0.889763779527559
          },
          {
            "number": 7,
            "time": 232.49990700000035,
            "value": 0.889763779527559
          },
          {
            "number": 7,
            "time": 252.49989900000023,
            "value": 0.6535433070866141
          }
        ],
        "10": [
          {
            "number": 10,
            "time": 0.6076386458333332,
            "value": 0.5039370078740157
          }
        ],
        "32": [
          {
            "number": 32,
            "time": 0.5815969895833333,
            "value": 1
          }
        ],
        "91": [
          {
            "number": 91,
            "time": 0.6163191979166665,
            "value": 0.7795275590551181
          }
        ],
        "93": [
          {
            "number": 93,
            "time": 0.6249997499999997,
            "value": 0
          }
        ],
        "98": [
          {
            "number": 98,
            "time": 0.6423608541666663,
            "value": 0.06299212598425197
          },
          {
            "number": 98,
            "time": 0.6510414062499996,
            "value": 0.07086614173228346
          },
          {
            "number": 98,
            "time": 0.6597219583333329,
            "value": 0.07874015748031496
          },
          {
            "number": 98,
            "time": 0.6684025104166662,
            "value": 0.25196850393700787
          },
          {
            "number": 98,
            "time": 0.6770830624999995,
            "value": 0.25984251968503935
          },
          {
            "number": 98,
            "time": 0.6857636145833328,
            "value": 0.7795275590551181
          },
          {
            "number": 98,
            "time": 0.6944441666666661,
            "value": 0.7874015748031497
          },
          {
            "number": 98,
            "time": 0.7031247187499994,
            "value": 0.8031496062992126
          }
        ],
        "99": [
          {
            "number": 99,
            "time": 0.6423608541666663,
            "value": 0.007874015748031496
          },
          {
            "number": 99,
            "time": 0.6510414062499996,
            "value": 0.007874015748031496
          },
          {
            "number": 99,
            "time": 0.6597219583333329,
            "value": 0.007874015748031496
          },
          {
            "number": 99,
            "time": 0.6684025104166662,
            "value": 0.007874015748031496
          },
          {
            "number": 99,
            "time": 0.6770830624999995,
            "value": 0.007874015748031496
          },
          {
            "number": 99,
            "time": 0.6857636145833328,
            "value": 0.007874015748031496
          },
          {
            "number": 99,
            "time": 0.6944441666666661,
            "value": 0.007874015748031496
          },
          {
            "number": 99,
            "time": 0.7031247187499994,
            "value": 0.007874015748031496
          }
        ],
        "100": [
          {
            "number": 100,
            "time": 0.633680302083333,
            "value": 0
          }
        ],
        "101": [
          {
            "number": 101,
            "time": 0.633680302083333,
            "value": 0
          }
        ]
      },
      "id": 5,
      "name": "Pizzicato",
      "instrumentNumber": 45,
      "instrument": "pizzicato strings",
      "instrumentFamily": "strings",
      "channelNumber": 4,
      "isPercussion": false
    },
    {
      "startTime": 2.543401760416666,
      "duration": 279.6839159041668,
      "length": 62,
      "notes": [
        {
          "name": "D2",
          "midi": 38,
          "time": 2.543401760416666,
          "velocity": 0.9448818897637795,
          "duration": 1.1059023354166664
        },
        {
          "name": "D2",
          "midi": 38,
          "time": 7.5104136624999995,
          "velocity": 0.984251968503937,
          "duration": 1.0555551333333337
        },
        {
          "name": "D2",
          "midi": 38,
          "time": 12.524300545833334,
          "velocity": 0.9448818897637795,
          "duration": 0.18923603541666623
        },
        {
          "name": "D2",
          "midi": 38,
          "time": 17.53818742916667,
          "velocity": 0.8661417322834646,
          "duration": 1.6718743312499988
        },
        {
          "name": "D2",
          "midi": 38,
          "time": 22.508671552083335,
          "velocity": 0.9448818897637795,
          "duration": 1.6562493375000003
        },
        {
          "name": "D2",
          "midi": 38,
          "time": 27.517350104166667,
          "velocity": 0.984251968503937,
          "duration": 2.060763064583334
        },
        {
          "name": "F2",
          "midi": 41,
          "time": 32.52776476666667,
          "velocity": 0.984251968503937,
          "duration": 1.640624343749998
        },
        {
          "name": "A#1",
          "midi": 34,
          "time": 37.5104016625,
          "velocity": 0.937007874015748,
          "duration": 2.1736102416666654
        },
        {
          "name": "D2",
          "midi": 38,
          "time": 45.00866255208333,
          "velocity": 0.9448818897637795,
          "duration": 1.6562493375000003
        },
        {
          "name": "D2",
          "midi": 38,
          "time": 50.01734110416666,
          "velocity": 0.984251968503937,
          "duration": 2.060763064583334
        },
        {
          "name": "F2",
          "midi": 41,
          "time": 55.02775576666666,
          "velocity": 0.984251968503937,
          "duration": 1.640624343749998
        },
        {
          "name": "A#1",
          "midi": 34,
          "time": 60.01039266249999,
          "velocity": 0.937007874015748,
          "duration": 2.1736102416666654
        },
        {
          "name": "D2",
          "midi": 38,
          "time": 65.00865455208331,
          "velocity": 0.9448818897637795,
          "duration": 1.6562493375000003
        },
        {
          "name": "D2",
          "midi": 38,
          "time": 70.01733310416665,
          "velocity": 0.984251968503937,
          "duration": 2.060763064583327
        },
        {
          "name": "F2",
          "midi": 41,
          "time": 75.02774776666665,
          "velocity": 0.984251968503937,
          "duration": 1.6406243437500052
        },
        {
          "name": "A#1",
          "midi": 34,
          "time": 80.01038466249999,
          "velocity": 0.937007874015748,
          "duration": 2.1736102416666654
        },
        {
          "name": "D2",
          "midi": 38,
          "time": 87.50864555208332,
          "velocity": 0.9448818897637795,
          "duration": 1.6562493375000003
        },
        {
          "name": "D2",
          "midi": 38,
          "time": 92.51732410416666,
          "velocity": 0.984251968503937,
          "duration": 2.060763064583327
        },
        {
          "name": "F2",
          "midi": 41,
          "time": 97.52773876666666,
          "velocity": 0.984251968503937,
          "duration": 1.6406243437500052
        },
        {
          "name": "A#1",
          "midi": 34,
          "time": 102.5103756625,
          "velocity": 0.937007874015748,
          "duration": 2.1736102416666654
        },
        {
          "name": "D2",
          "midi": 38,
          "time": 110.64926129583333,
          "velocity": 1,
          "duration": 0.07118052708332812
        },
        {
          "name": "D2",
          "midi": 38,
          "time": 110.86106676666665,
          "velocity": 1,
          "duration": 1.574652147916666
        },
        {
          "name": "D2",
          "midi": 38,
          "time": 115.61106486666665,
          "velocity": 0.9448818897637795,
          "duration": 0.08506941041666494
        },
        {
          "name": "D2",
          "midi": 38,
          "time": 115.81766200624999,
          "velocity": 1,
          "duration": 1.624999349999996
        },
        {
          "name": "D2",
          "midi": 38,
          "time": 120.63189619166666,
          "velocity": 0.8661417322834646,
          "duration": 0.06076386458333616
        },
        {
          "name": "D2",
          "midi": 38,
          "time": 120.82460444791666,
          "velocity": 0.9448818897637795,
          "duration": 1.6319437916666715
        },
        {
          "name": "D2",
          "midi": 38,
          "time": 131.48258629583333,
          "velocity": 1,
          "duration": 0.07118052708332812
        },
        {
          "name": "D2",
          "midi": 38,
          "time": 131.69439176666666,
          "velocity": 1,
          "duration": 1.5746521479166802
        },
        {
          "name": "D2",
          "midi": 38,
          "time": 136.44438986666668,
          "velocity": 0.9448818897637795,
          "duration": 0.08506941041667915
        },
        {
          "name": "D2",
          "midi": 38,
          "time": 136.65098700625003,
          "velocity": 1,
          "duration": 1.624999349999996
        },
        {
          "name": "D2",
          "midi": 38,
          "time": 141.4652211916667,
          "velocity": 0.8661417322834646,
          "duration": 0.06076386458332195
        },
        {
          "name": "D2",
          "midi": 38,
          "time": 141.6579294479167,
          "velocity": 0.9448818897637795,
          "duration": 1.6319437916666573
        },
        {
          "name": "D2",
          "midi": 38,
          "time": 150.00862055208336,
          "velocity": 0.9448818897637795,
          "duration": 1.656249337499986
        },
        {
          "name": "D2",
          "midi": 38,
          "time": 155.01729910416668,
          "velocity": 0.984251968503937,
          "duration": 2.060763064583341
        },
        {
          "name": "F2",
          "midi": 41,
          "time": 160.0277137666667,
          "velocity": 0.984251968503937,
          "duration": 1.6406243437500052
        },
        {
          "name": "A#1",
          "midi": 34,
          "time": 165.01035066250003,
          "velocity": 0.937007874015748,
          "duration": 2.1736102416666654
        },
        {
          "name": "D2",
          "midi": 38,
          "time": 170.00861255208335,
          "velocity": 0.9448818897637795,
          "duration": 1.656249337499986
        },
        {
          "name": "D2",
          "midi": 38,
          "time": 175.01729110416667,
          "velocity": 0.984251968503937,
          "duration": 2.060763064583341
        },
        {
          "name": "F2",
          "midi": 41,
          "time": 180.02770576666668,
          "velocity": 0.984251968503937,
          "duration": 1.6406243437500052
        },
        {
          "name": "A#1",
          "midi": 34,
          "time": 185.01034266250002,
          "velocity": 0.937007874015748,
          "duration": 2.1736102416666654
        },
        {
          "name": "D2",
          "midi": 38,
          "time": 193.14922829583335,
          "velocity": 1,
          "duration": 0.07118052708332812
        },
        {
          "name": "D2",
          "midi": 38,
          "time": 193.36103376666668,
          "velocity": 1,
          "duration": 1.5746521479166802
        },
        {
          "name": "D2",
          "midi": 38,
          "time": 198.1110318666667,
          "velocity": 0.9448818897637795,
          "duration": 0.08506941041667915
        },
        {
          "name": "D2",
          "midi": 38,
          "time": 198.31762900625006,
          "velocity": 1,
          "duration": 1.624999349999996
        },
        {
          "name": "D2",
          "midi": 38,
          "time": 203.13186319166672,
          "velocity": 0.8661417322834646,
          "duration": 0.06076386458332195
        },
        {
          "name": "D2",
          "midi": 38,
          "time": 203.32457144791672,
          "velocity": 0.9448818897637795,
          "duration": 1.6319437916666573
        },
        {
          "name": "D2",
          "midi": 38,
          "time": 213.98255329583338,
          "velocity": 1,
          "duration": 0.07118052708332812
        },
        {
          "name": "D2",
          "midi": 38,
          "time": 214.1943587666667,
          "velocity": 1,
          "duration": 1.5746521479166802
        },
        {
          "name": "D2",
          "midi": 38,
          "time": 218.94435686666674,
          "velocity": 0.9448818897637795,
          "duration": 0.08506941041667915
        },
        {
          "name": "D2",
          "midi": 38,
          "time": 219.1509540062501,
          "velocity": 1,
          "duration": 1.624999349999996
        },
        {
          "name": "D2",
          "midi": 38,
          "time": 223.96518819166675,
          "velocity": 0.8661417322834646,
          "duration": 0.06076386458332195
        },
        {
          "name": "D2",
          "midi": 38,
          "time": 224.15789644791676,
          "velocity": 0.9448818897637795,
          "duration": 1.6319437916666573
        },
        {
          "name": "D2",
          "midi": 38,
          "time": 232.5085875520834,
          "velocity": 0.9448818897637795,
          "duration": 1.656249337499986
        },
        {
          "name": "D2",
          "midi": 38,
          "time": 237.51726610416674,
          "velocity": 0.984251968503937,
          "duration": 2.060763064583341
        },
        {
          "name": "F2",
          "midi": 41,
          "time": 242.52768076666675,
          "velocity": 0.984251968503937,
          "duration": 1.6406243437500052
        },
        {
          "name": "A#1",
          "midi": 34,
          "time": 247.51031766250009,
          "velocity": 0.937007874015748,
          "duration": 2.1736102416666654
        },
        {
          "name": "D2",
          "midi": 38,
          "time": 252.5085795520834,
          "velocity": 0.9448818897637795,
          "duration": 1.656249337499986
        },
        {
          "name": "D2",
          "midi": 38,
          "time": 257.51725810416673,
          "velocity": 0.984251968503937,
          "duration": 2.060763064583341
        },
        {
          "name": "F2",
          "midi": 41,
          "time": 262.52767276666674,
          "velocity": 0.984251968503937,
          "duration": 1.6406243437500052
        },
        {
          "name": "A#1",
          "midi": 34,
          "time": 267.5103096625001,
          "velocity": 0.937007874015748,
          "duration": 2.1736102416666654
        },
        {
          "name": "A#1",
          "midi": 34,
          "time": 272.5103076625001,
          "velocity": 0.937007874015748,
          "duration": 2.1736102416666654
        },
        {
          "name": "A#1",
          "midi": 34,
          "time": 277.5103056625001,
          "velocity": 0.937007874015748,
          "duration": 2.1736102416666654
        }
      ],
      "controlChanges": {
        "6": [
          {
            "number": 6,
            "time": 0.7725691354166664,
            "value": 0.015748031496062992
          },
          {
            "number": 6,
            "time": 0.7812496874999997,
            "value": 0.5039370078740157
          },
          {
            "number": 6,
            "time": 0.789930239583333,
            "value": 0.5039370078740157
          },
          {
            "number": 6,
            "time": 0.7986107916666663,
            "value": 0.5039370078740157
          },
          {
            "number": 6,
            "time": 0.8072913437499996,
            "value": 0.5039370078740157
          },
          {
            "number": 6,
            "time": 0.8159718958333328,
            "value": 0.5039370078740157
          },
          {
            "number": 6,
            "time": 0.8246524479166661,
            "value": 0.5039370078740157
          },
          {
            "number": 6,
            "time": 0.8333329999999994,
            "value": 0.5039370078740157
          },
          {
            "number": 6,
            "time": 0.8420135520833327,
            "value": 0.5039370078740157
          }
        ],
        "7": [
          {
            "number": 7,
            "time": 0.7378469270833332,
            "value": 0.7874015748031497
          },
          {
            "number": 7,
            "time": 109.999956,
            "value": 1
          },
          {
            "number": 7,
            "time": 129.999948,
            "value": 1
          },
          {
            "number": 7,
            "time": 149.99994000000004,
            "value": 0.6062992125984252
          },
          {
            "number": 7,
            "time": 192.49992300000002,
            "value": 1
          },
          {
            "number": 7,
            "time": 212.49991500000004,
            "value": 1
          },
          {
            "number": 7,
            "time": 232.4999070000001,
            "value": 0.6062992125984252
          }
        ],
        "10": [
          {
            "number": 10,
            "time": 0.7465274791666665,
            "value": 0.5039370078740157
          }
        ],
        "32": [
          {
            "number": 32,
            "time": 0.7204858229166666,
            "value": 1
          }
        ],
        "91": [
          {
            "number": 91,
            "time": 0.7552080312499998,
            "value": 0.31496062992125984
          }
        ],
        "93": [
          {
            "number": 93,
            "time": 0.7638885833333331,
            "value": 0
          }
        ],
        "98": [
          {
            "number": 98,
            "time": 0.7812496874999997,
            "value": 0.06299212598425197
          },
          {
            "number": 98,
            "time": 0.789930239583333,
            "value": 0.07086614173228346
          },
          {
            "number": 98,
            "time": 0.7986107916666663,
            "value": 0.07874015748031496
          },
          {
            "number": 98,
            "time": 0.8072913437499996,
            "value": 0.25196850393700787
          },
          {
            "number": 98,
            "time": 0.8159718958333328,
            "value": 0.25984251968503935
          },
          {
            "number": 98,
            "time": 0.8246524479166661,
            "value": 0.7795275590551181
          },
          {
            "number": 98,
            "time": 0.8333329999999994,
            "value": 0.7874015748031497
          },
          {
            "number": 98,
            "time": 0.8420135520833327,
            "value": 0.8031496062992126
          }
        ],
        "99": [
          {
            "number": 99,
            "time": 0.7812496874999997,
            "value": 0.007874015748031496
          },
          {
            "number": 99,
            "time": 0.789930239583333,
            "value": 0.007874015748031496
          },
          {
            "number": 99,
            "time": 0.7986107916666663,
            "value": 0.007874015748031496
          },
          {
            "number": 99,
            "time": 0.8072913437499996,
            "value": 0.007874015748031496
          },
          {
            "number": 99,
            "time": 0.8159718958333328,
            "value": 0.007874015748031496
          },
          {
            "number": 99,
            "time": 0.8246524479166661,
            "value": 0.007874015748031496
          },
          {
            "number": 99,
            "time": 0.8333329999999994,
            "value": 0.007874015748031496
          },
          {
            "number": 99,
            "time": 0.8420135520833327,
            "value": 0.007874015748031496
          }
        ],
        "100": [
          {
            "number": 100,
            "time": 0.7725691354166664,
            "value": 0
          }
        ],
        "101": [
          {
            "number": 101,
            "time": 0.7725691354166664,
            "value": 0
          }
        ]
      },
      "id": 6,
      "name": "Timpani",
      "instrumentNumber": 47,
      "instrument": "timpani",
      "instrumentFamily": "strings",
      "channelNumber": 5,
      "isPercussion": false
    },
    {
      "startTime": 42.29164974999999,
      "duration": 292.3453691729167,
      "length": 404,
      "notes": [
        {
          "name": "E3",
          "midi": 52,
          "time": 42.29164974999999,
          "velocity": 0.8503937007874016,
          "duration": 2.6718739312499906
        },
        {
          "name": "A3",
          "midi": 57,
          "time": 42.470469122916654,
          "velocity": 0.84251968503937,
          "duration": 2.468749012499991
        },
        {
          "name": "A2",
          "midi": 45,
          "time": 43.33678822083331,
          "velocity": 0.8110236220472441,
          "duration": 1.654513227083335
        },
        {
          "name": "E3",
          "midi": 52,
          "time": 48.12671686041665,
          "velocity": 1,
          "duration": 2.4618045708333227
        },
        {
          "name": "A3",
          "midi": 57,
          "time": 48.34025844166665,
          "velocity": 0.984251968503937,
          "duration": 2.2986101916666613
        },
        {
          "name": "A2",
          "midi": 45,
          "time": 48.35067510416665,
          "velocity": 0.6377952755905512,
          "duration": 2.2638879833333263
        },
        {
          "name": "G3",
          "midi": 55,
          "time": 53.12671486041664,
          "velocity": 0.8582677165354331,
          "duration": 2.4618045708333227
        },
        {
          "name": "C4",
          "midi": 60,
          "time": 53.33331199999997,
          "velocity": 0.84251968503937,
          "duration": 2.2986101916666613
        },
        {
          "name": "G3",
          "midi": 55,
          "time": 58.12671286041663,
          "velocity": 0.8661417322834646,
          "duration": 1.8732631395833224
        },
        {
          "name": "C4",
          "midi": 60,
          "time": 58.33330999999996,
          "velocity": 0.8503937007874016,
          "duration": 1.6666659999999922
        },
        {
          "name": "F3",
          "midi": 53,
          "time": 60.61976741874995,
          "velocity": 1,
          "duration": 1.8802075812499908
        },
        {
          "name": "A#3",
          "midi": 58,
          "time": 60.84025344166662,
          "velocity": 0.889763779527559,
          "duration": 1.6597215583333238
        },
        {
          "name": "E3",
          "midi": 52,
          "time": 63.11976641874994,
          "velocity": 1,
          "duration": 1.8802075812499979
        },
        {
          "name": "A3",
          "midi": 57,
          "time": 63.34025244166661,
          "velocity": 0.8818897637795275,
          "duration": 1.659721558333331
        },
        {
          "name": "E4",
          "midi": 64,
          "time": 106.66315177916663,
          "velocity": 1,
          "duration": 3.30208201249998
        },
        {
          "name": "A4",
          "midi": 69,
          "time": 109.06072026458327,
          "velocity": 0.8031496062992126,
          "duration": 0.927082962500009
        },
        {
          "name": "D4",
          "midi": 62,
          "time": 110.02773376666661,
          "velocity": 0.984251968503937,
          "duration": 0.0694444166666699
        },
        {
          "name": "D4",
          "midi": 62,
          "time": 110.23606701666662,
          "velocity": 0.8818897637795275,
          "duration": 0.0763888583333312
        },
        {
          "name": "D4",
          "midi": 62,
          "time": 110.44613637708329,
          "velocity": 0.8346456692913385,
          "duration": 0.07986107916666185
        },
        {
          "name": "D4",
          "midi": 62,
          "time": 110.65794184791662,
          "velocity": 0.8031496062992126,
          "duration": 0.0694444166666699
        },
        {
          "name": "D4",
          "midi": 62,
          "time": 110.8575945458333,
          "velocity": 0.8976377952755905,
          "duration": 0.09027774166666802
        },
        {
          "name": "D4",
          "midi": 62,
          "time": 111.0555111333333,
          "velocity": 0.8188976377952756,
          "duration": 0.09027774166666802
        },
        {
          "name": "D4",
          "midi": 62,
          "time": 111.25689994166663,
          "velocity": 0.8661417322834646,
          "duration": 0.08506941041666494
        },
        {
          "name": "D4",
          "midi": 62,
          "time": 111.46523319166663,
          "velocity": 0.8503937007874016,
          "duration": 0.08333330000000672
        },
        {
          "name": "D4",
          "midi": 62,
          "time": 111.66662199999996,
          "velocity": 0.8818897637795275,
          "duration": 0.08854163124999559
        },
        {
          "name": "D4",
          "midi": 62,
          "time": 111.87148302916663,
          "velocity": 0.8346456692913385,
          "duration": 0.08854163124999559
        },
        {
          "name": "D4",
          "midi": 62,
          "time": 112.08502461041662,
          "velocity": 0.8976377952755905,
          "duration": 0.07118052708332812
        },
        {
          "name": "D4",
          "midi": 62,
          "time": 112.28467730833329,
          "velocity": 0.9448818897637795,
          "duration": 0.10069440416665998
        },
        {
          "name": "G4",
          "midi": 67,
          "time": 112.50516333124995,
          "velocity": 0.9606299212598425,
          "duration": 0.09374996249999867
        },
        {
          "name": "G4",
          "midi": 67,
          "time": 112.72044102291662,
          "velocity": 0.8346456692913385,
          "duration": 0.09895829375000176
        },
        {
          "name": "G4",
          "midi": 67,
          "time": 112.92356594166662,
          "velocity": 0.7401574803149606,
          "duration": 0.09374996249999867
        },
        {
          "name": "G4",
          "midi": 67,
          "time": 113.12842697083329,
          "velocity": 0.8031496062992126,
          "duration": 0.08333330000000672
        },
        {
          "name": "G4",
          "midi": 67,
          "time": 113.3367602208333,
          "velocity": 0.9606299212598425,
          "duration": 0.08333330000000672
        },
        {
          "name": "G4",
          "midi": 67,
          "time": 113.54162124999998,
          "velocity": 0.8031496062992126,
          "duration": 0.08159718958333428
        },
        {
          "name": "G4",
          "midi": 67,
          "time": 113.7586350520833,
          "velocity": 0.984251968503937,
          "duration": 0.08506941041666494
        },
        {
          "name": "G4",
          "midi": 67,
          "time": 113.96523219166664,
          "velocity": 0.8818897637795275,
          "duration": 0.08854163124999559
        },
        {
          "name": "G4",
          "midi": 67,
          "time": 114.17182933124997,
          "velocity": 0.8661417322834646,
          "duration": 0.08680552083333737
        },
        {
          "name": "G4",
          "midi": 67,
          "time": 114.38189869166663,
          "velocity": 0.8188976377952756,
          "duration": 0.08159718958333428
        },
        {
          "name": "G4",
          "midi": 67,
          "time": 114.59023194166663,
          "velocity": 0.8503937007874016,
          "duration": 0.08159718958333428
        },
        {
          "name": "G4",
          "midi": 67,
          "time": 114.79162074999996,
          "velocity": 0.8661417322834646,
          "duration": 0.09201385208332624
        },
        {
          "name": "D4",
          "midi": 62,
          "time": 114.99995399999996,
          "velocity": 0.9448818897637795,
          "duration": 0.0694444166666699
        },
        {
          "name": "D4",
          "midi": 62,
          "time": 115.2013428083333,
          "velocity": 0.8031496062992126,
          "duration": 0.08854163124999559
        },
        {
          "name": "D4",
          "midi": 62,
          "time": 115.41488438958329,
          "velocity": 0.8346456692913385,
          "duration": 0.06770830624999746
        },
        {
          "name": "D4",
          "midi": 62,
          "time": 115.61800930833328,
          "velocity": 0.8188976377952756,
          "duration": 0.07812496875000363
        },
        {
          "name": "D4",
          "midi": 62,
          "time": 115.82460644791662,
          "velocity": 0.8503937007874016,
          "duration": 0.07465274791667298
        },
        {
          "name": "D4",
          "midi": 62,
          "time": 116.0294674770833,
          "velocity": 0.8188976377952756,
          "duration": 0.07986107916666185
        },
        {
          "name": "D4",
          "midi": 62,
          "time": 116.24127294791663,
          "velocity": 0.8661417322834646,
          "duration": 0.07465274791667298
        },
        {
          "name": "D4",
          "midi": 62,
          "time": 116.4513423083333,
          "velocity": 0.8346456692913385,
          "duration": 0.0763888583333312
        },
        {
          "name": "D4",
          "midi": 62,
          "time": 116.66314777916662,
          "velocity": 0.8661417322834646,
          "duration": 0.07291663750000055
        },
        {
          "name": "D4",
          "midi": 62,
          "time": 116.86800880833329,
          "velocity": 0.8503937007874016,
          "duration": 0.07812496875000363
        },
        {
          "name": "D4",
          "midi": 62,
          "time": 117.07981427916663,
          "velocity": 0.8346456692913385,
          "duration": 0.06423608541666681
        },
        {
          "name": "D4",
          "midi": 62,
          "time": 117.27946697708329,
          "velocity": 0.8031496062992126,
          "duration": 0.07812496875000363
        },
        {
          "name": "G4",
          "midi": 67,
          "time": 117.4878002270833,
          "velocity": 0.8661417322834646,
          "duration": 0.09201385208332624
        },
        {
          "name": "G4",
          "midi": 67,
          "time": 117.69092514583329,
          "velocity": 0.7874015748031497,
          "duration": 0.0954860729166711
        },
        {
          "name": "G4",
          "midi": 67,
          "time": 117.90446672708329,
          "velocity": 0.7637795275590551,
          "duration": 0.09374996249999867
        },
        {
          "name": "G4",
          "midi": 67,
          "time": 118.11453608749996,
          "velocity": 0.7716535433070866,
          "duration": 0.08506941041666494
        },
        {
          "name": "G4",
          "midi": 67,
          "time": 118.33328599999996,
          "velocity": 0.8188976377952756,
          "duration": 0.059027754166663726
        },
        {
          "name": "G4",
          "midi": 67,
          "time": 118.53120258749996,
          "velocity": 0.7874015748031497,
          "duration": 0.08506941041666494
        },
        {
          "name": "G4",
          "midi": 67,
          "time": 118.74474416874996,
          "velocity": 0.7716535433070866,
          "duration": 0.08506941041666494
        },
        {
          "name": "G4",
          "midi": 67,
          "time": 118.9513413083333,
          "velocity": 0.7716535433070866,
          "duration": 0.08680552083333737
        },
        {
          "name": "G4",
          "midi": 67,
          "time": 119.16314677916664,
          "velocity": 0.8188976377952756,
          "duration": 0.09027774166666802
        },
        {
          "name": "G4",
          "midi": 67,
          "time": 119.3732161395833,
          "velocity": 0.7401574803149606,
          "duration": 0.09027774166666802
        },
        {
          "name": "G4",
          "midi": 67,
          "time": 119.58849383124998,
          "velocity": 0.8031496062992126,
          "duration": 0.08159718958333428
        },
        {
          "name": "G4",
          "midi": 67,
          "time": 119.79335486041664,
          "velocity": 0.8031496062992126,
          "duration": 0.1076388458333355
        },
        {
          "name": "D4",
          "midi": 62,
          "time": 119.99474366874998,
          "velocity": 0.8503937007874016,
          "duration": 0.08333330000000672
        },
        {
          "name": "D4",
          "midi": 62,
          "time": 120.20828524999999,
          "velocity": 0.7637795275590551,
          "duration": 0.08506941041666494
        },
        {
          "name": "D4",
          "midi": 62,
          "time": 120.42009072083331,
          "velocity": 0.7874015748031497,
          "duration": 0.07465274791667298
        },
        {
          "name": "D4",
          "midi": 62,
          "time": 120.63363230208333,
          "velocity": 0.7480314960629921,
          "duration": 0.06597219583333924
        },
        {
          "name": "D4",
          "midi": 62,
          "time": 120.83849333125,
          "velocity": 0.8503937007874016,
          "duration": 0.08333330000000672
        },
        {
          "name": "D4",
          "midi": 62,
          "time": 121.03814602916668,
          "velocity": 0.7401574803149606,
          "duration": 0.08159718958333428
        },
        {
          "name": "D4",
          "midi": 62,
          "time": 121.23953483750002,
          "velocity": 0.8503937007874016,
          "duration": 0.08159718958333428
        },
        {
          "name": "D4",
          "midi": 62,
          "time": 121.44786808750001,
          "velocity": 0.8346456692913385,
          "duration": 0.07812496875000363
        },
        {
          "name": "D4",
          "midi": 62,
          "time": 121.65446522708335,
          "velocity": 0.8346456692913385,
          "duration": 0.09201385208332624
        },
        {
          "name": "D4",
          "midi": 62,
          "time": 121.8645345875,
          "velocity": 0.8188976377952756,
          "duration": 0.08854163124999559
        },
        {
          "name": "D4",
          "midi": 62,
          "time": 122.08502061041666,
          "velocity": 0.8346456692913385,
          "duration": 0.07812496875000363
        },
        {
          "name": "D4",
          "midi": 62,
          "time": 122.28467330833334,
          "velocity": 0.8031496062992126,
          "duration": 0.08680552083333737
        },
        {
          "name": "G4",
          "midi": 67,
          "time": 122.48606211666667,
          "velocity": 0.8188976377952756,
          "duration": 0.09895829375000176
        },
        {
          "name": "G4",
          "midi": 67,
          "time": 122.70481202916667,
          "velocity": 0.8503937007874016,
          "duration": 0.10069440416665998
        },
        {
          "name": "G4",
          "midi": 67,
          "time": 122.9166175,
          "velocity": 0.8188976377952756,
          "duration": 0.09722218333332933
        },
        {
          "name": "G4",
          "midi": 67,
          "time": 123.13189519166666,
          "velocity": 0.8503937007874016,
          "duration": 0.11284717708333858
        },
        {
          "name": "G3",
          "midi": 55,
          "time": 123.33849233125,
          "velocity": 0.9448818897637795,
          "duration": 0.07465274791667298
        },
        {
          "name": "G3",
          "midi": 55,
          "time": 123.54508947083333,
          "velocity": 0.9448818897637795,
          "duration": 0.08854163124999559
        },
        {
          "name": "G3",
          "midi": 55,
          "time": 123.75342272083333,
          "velocity": 0.8346456692913385,
          "duration": 0.08159718958333428
        },
        {
          "name": "G3",
          "midi": 55,
          "time": 123.96175597083332,
          "velocity": 0.8818897637795275,
          "duration": 0.08854163124999559
        },
        {
          "name": "G3",
          "midi": 55,
          "time": 124.16661699999999,
          "velocity": 0.8188976377952756,
          "duration": 0.0954860729166711
        },
        {
          "name": "G3",
          "midi": 55,
          "time": 124.38710302291666,
          "velocity": 0.8503937007874016,
          "duration": 0.09027774166666802
        },
        {
          "name": "G3",
          "midi": 55,
          "time": 124.60411682499999,
          "velocity": 0.8503937007874016,
          "duration": 0.08506941041666494
        },
        {
          "name": "G3",
          "midi": 55,
          "time": 124.80897785416666,
          "velocity": 0.9448818897637795,
          "duration": 0.10590273541666306
        },
        {
          "name": "D4",
          "midi": 62,
          "time": 125.01036666249999,
          "velocity": 0.8818897637795275,
          "duration": 0.10243051458333241
        },
        {
          "name": "D4",
          "midi": 62,
          "time": 125.22564435416666,
          "velocity": 0.8188976377952756,
          "duration": 0.10069440416665998
        },
        {
          "name": "D4",
          "midi": 62,
          "time": 125.43571371458331,
          "velocity": 0.7637795275590551,
          "duration": 0.09374996249999867
        },
        {
          "name": "D4",
          "midi": 62,
          "time": 125.64231085416665,
          "velocity": 0.7874015748031497,
          "duration": 0.08506941041666494
        },
        {
          "name": "D4",
          "midi": 62,
          "time": 125.85238021458332,
          "velocity": 0.8346456692913385,
          "duration": 0.08854163124999559
        },
        {
          "name": "D4",
          "midi": 62,
          "time": 126.06071346458332,
          "velocity": 0.7480314960629921,
          "duration": 0.08506941041666494
        },
        {
          "name": "D4",
          "midi": 62,
          "time": 126.26383838333331,
          "velocity": 0.7637795275590551,
          "duration": 0.08333330000000672
        },
        {
          "name": "D4",
          "midi": 62,
          "time": 126.47217163333332,
          "velocity": 0.7874015748031497,
          "duration": 0.08854163124999559
        },
        {
          "name": "D4",
          "midi": 62,
          "time": 126.67876877291664,
          "velocity": 0.7874015748031497,
          "duration": 0.09027774166666802
        },
        {
          "name": "D4",
          "midi": 62,
          "time": 126.89231035416664,
          "velocity": 0.7716535433070866,
          "duration": 0.08680552083333737
        },
        {
          "name": "D4",
          "midi": 62,
          "time": 127.0971713833333,
          "velocity": 0.7244094488188977,
          "duration": 0.08506941041666494
        },
        {
          "name": "D4",
          "midi": 62,
          "time": 127.28814352916663,
          "velocity": 0.6535433070866141,
          "duration": 0.10937495624999372
        },
        {
          "name": "A3",
          "midi": 57,
          "time": 127.50342122083329,
          "velocity": 0.8818897637795275,
          "duration": 0.08854163124999559
        },
        {
          "name": "A3",
          "midi": 57,
          "time": 127.71349058124996,
          "velocity": 0.7874015748031497,
          "duration": 0.08680552083333737
        },
        {
          "name": "A3",
          "midi": 57,
          "time": 127.91835161041662,
          "velocity": 0.7244094488188977,
          "duration": 0.08333330000000672
        },
        {
          "name": "A3",
          "midi": 57,
          "time": 128.12494874999996,
          "velocity": 0.7637795275590551,
          "duration": 0.0694444166666699
        },
        {
          "name": "A3",
          "midi": 57,
          "time": 128.33849033124997,
          "velocity": 0.8503937007874016,
          "duration": 0.07118052708332812
        },
        {
          "name": "A3",
          "midi": 57,
          "time": 128.54855969166664,
          "velocity": 0.7165354330708661,
          "duration": 0.07465274791667298
        },
        {
          "name": "A3",
          "midi": 57,
          "time": 128.7534207208333,
          "velocity": 0.7244094488188977,
          "duration": 0.07986107916667606
        },
        {
          "name": "A3",
          "midi": 57,
          "time": 128.9617539708333,
          "velocity": 0.6929133858267716,
          "duration": 0.07118052708332812
        },
        {
          "name": "A3",
          "midi": 57,
          "time": 129.17182333124998,
          "velocity": 0.8031496062992126,
          "duration": 0.07812496874998942
        },
        {
          "name": "A3",
          "midi": 57,
          "time": 129.38015658124996,
          "velocity": 0.7244094488188977,
          "duration": 0.08159718958333428
        },
        {
          "name": "A3",
          "midi": 57,
          "time": 129.5867537208333,
          "velocity": 0.7401574803149606,
          "duration": 0.07465274791667298
        },
        {
          "name": "A3",
          "midi": 57,
          "time": 129.7846703083333,
          "velocity": 0.8188976377952756,
          "duration": 0.10763884583332128
        },
        {
          "name": "D4",
          "midi": 62,
          "time": 129.99647577916662,
          "velocity": 0.8661417322834646,
          "duration": 0.08854163124999559
        },
        {
          "name": "D4",
          "midi": 62,
          "time": 130.20133680833328,
          "velocity": 0.7637795275590551,
          "duration": 0.0954860729166569
        },
        {
          "name": "D4",
          "midi": 62,
          "time": 130.40967005833326,
          "velocity": 0.8188976377952756,
          "duration": 0.08854163124999559
        },
        {
          "name": "D4",
          "midi": 62,
          "time": 130.61626719791659,
          "velocity": 0.7716535433070866,
          "duration": 0.08854163124999559
        },
        {
          "name": "D4",
          "midi": 62,
          "time": 130.8193921166666,
          "velocity": 0.8503937007874016,
          "duration": 0.08680552083333737
        },
        {
          "name": "D4",
          "midi": 62,
          "time": 131.0173087041666,
          "velocity": 0.7401574803149606,
          "duration": 0.09201385208334045
        },
        {
          "name": "D4",
          "midi": 62,
          "time": 131.22911417499995,
          "velocity": 0.7716535433070866,
          "duration": 0.09374996249999867
        },
        {
          "name": "D4",
          "midi": 62,
          "time": 131.44612797708328,
          "velocity": 0.7637795275590551,
          "duration": 0.08506941041667915
        },
        {
          "name": "D4",
          "midi": 62,
          "time": 131.65619733749995,
          "velocity": 0.7874015748031497,
          "duration": 0.08854163124999559
        },
        {
          "name": "D4",
          "midi": 62,
          "time": 131.8610583666666,
          "velocity": 0.7874015748031497,
          "duration": 0.09201385208334045
        },
        {
          "name": "D4",
          "midi": 62,
          "time": 132.08154438958329,
          "velocity": 0.8346456692913385,
          "duration": 0.09895829375000176
        },
        {
          "name": "D4",
          "midi": 62,
          "time": 132.29682208124996,
          "velocity": 0.8188976377952756,
          "duration": 0.10243051458334662
        },
        {
          "name": "G3",
          "midi": 55,
          "time": 132.50689144166662,
          "velocity": 0.8661417322834646,
          "duration": 0.08854163124999559
        },
        {
          "name": "G3",
          "midi": 55,
          "time": 132.71869691249995,
          "velocity": 0.7874015748031497,
          "duration": 0.08506941041667915
        },
        {
          "name": "G3",
          "midi": 55,
          "time": 132.92876627291662,
          "velocity": 0.8188976377952756,
          "duration": 0.08159718958333428
        },
        {
          "name": "G3",
          "midi": 55,
          "time": 133.13362730208328,
          "velocity": 0.8346456692913385,
          "duration": 0.07812496874998942
        },
        {
          "name": "G3",
          "midi": 55,
          "time": 133.33675222083326,
          "velocity": 0.9448818897637795,
          "duration": 0.0833332999999925
        },
        {
          "name": "G3",
          "midi": 55,
          "time": 133.5485576916666,
          "velocity": 0.8346456692913385,
          "duration": 0.07986107916667606
        },
        {
          "name": "G3",
          "midi": 55,
          "time": 133.75515483124994,
          "velocity": 0.8031496062992126,
          "duration": 0.0833332999999925
        },
        {
          "name": "G3",
          "midi": 55,
          "time": 133.96348808124992,
          "velocity": 0.7480314960629921,
          "duration": 0.08159718958333428
        },
        {
          "name": "G3",
          "midi": 55,
          "time": 134.1839741041666,
          "velocity": 0.8661417322834646,
          "duration": 0.07812496874998942
        },
        {
          "name": "G3",
          "midi": 55,
          "time": 134.39230735416658,
          "velocity": 0.8031496062992126,
          "duration": 0.08680552083333737
        },
        {
          "name": "G3",
          "midi": 55,
          "time": 134.59716838333324,
          "velocity": 0.8188976377952756,
          "duration": 0.07812496874998942
        },
        {
          "name": "G3",
          "midi": 55,
          "time": 134.79508497083324,
          "velocity": 0.8818897637795275,
          "duration": 0.10590273541666306
        },
        {
          "name": "D4",
          "midi": 62,
          "time": 135.00689044166657,
          "velocity": 0.9212598425196851,
          "duration": 0.09722218333334354
        },
        {
          "name": "D4",
          "midi": 62,
          "time": 135.21175147083324,
          "velocity": 0.7401574803149606,
          "duration": 0.10416662500000484
        },
        {
          "name": "D4",
          "midi": 62,
          "time": 135.42355694166656,
          "velocity": 0.8346456692913385,
          "duration": 0.0954860729166569
        },
        {
          "name": "D4",
          "midi": 62,
          "time": 135.62668186041654,
          "velocity": 0.8346456692913385,
          "duration": 0.12152772916667232
        },
        {
          "name": "D3",
          "midi": 50,
          "time": 135.8367512208332,
          "velocity": 0.8976377952755905,
          "duration": 0.09027774166665381
        },
        {
          "name": "D3",
          "midi": 50,
          "time": 136.0502928020832,
          "velocity": 0.9212598425196851,
          "duration": 0.0954860729166569
        },
        {
          "name": "D3",
          "midi": 50,
          "time": 136.26209827291652,
          "velocity": 0.8346456692913385,
          "duration": 0.08680552083333737
        },
        {
          "name": "D3",
          "midi": 50,
          "time": 136.47043152291653,
          "velocity": 0.8188976377952756,
          "duration": 0.09201385208334045
        },
        {
          "name": "D3",
          "midi": 50,
          "time": 136.6805008833332,
          "velocity": 0.8346456692913385,
          "duration": 0.09027774166665381
        },
        {
          "name": "D3",
          "midi": 50,
          "time": 136.88362580208317,
          "velocity": 0.8346456692913385,
          "duration": 0.09027774166665381
        },
        {
          "name": "D3",
          "midi": 50,
          "time": 137.08675072083315,
          "velocity": 0.8031496062992126,
          "duration": 0.08159718958333428
        },
        {
          "name": "D3",
          "midi": 50,
          "time": 137.29161174999982,
          "velocity": 0.8661417322834646,
          "duration": 0.10069440416665998
        },
        {
          "name": "G3",
          "midi": 55,
          "time": 137.5155699937498,
          "velocity": 0.8503937007874016,
          "duration": 0.07986107916667606
        },
        {
          "name": "G3",
          "midi": 55,
          "time": 137.72390324374982,
          "velocity": 0.7716535433070866,
          "duration": 0.08506941041667915
        },
        {
          "name": "G3",
          "midi": 55,
          "time": 137.92702816249982,
          "velocity": 0.7716535433070866,
          "duration": 0.07812496874998942
        },
        {
          "name": "G3",
          "midi": 55,
          "time": 138.12147252916648,
          "velocity": 0.8188976377952756,
          "duration": 0.0954860729166569
        },
        {
          "name": "G3",
          "midi": 55,
          "time": 138.3332779999998,
          "velocity": 0.7716535433070866,
          "duration": 0.08159718958333428
        },
        {
          "name": "G3",
          "midi": 55,
          "time": 138.54334736041648,
          "velocity": 0.7874015748031497,
          "duration": 0.10069440416665998
        },
        {
          "name": "G3",
          "midi": 55,
          "time": 138.75688894166646,
          "velocity": 0.7874015748031497,
          "duration": 0.0954860729166569
        },
        {
          "name": "G3",
          "midi": 55,
          "time": 138.97563885416645,
          "velocity": 0.7716535433070866,
          "duration": 0.07986107916667606
        },
        {
          "name": "G3",
          "midi": 55,
          "time": 139.1822359937498,
          "velocity": 0.8031496062992126,
          "duration": 0.09201385208334045
        },
        {
          "name": "G3",
          "midi": 55,
          "time": 139.3957775749998,
          "velocity": 0.7480314960629921,
          "duration": 0.09027774166665381
        },
        {
          "name": "G3",
          "midi": 55,
          "time": 139.60584693541648,
          "velocity": 0.8031496062992126,
          "duration": 0.0763888583333312
        },
        {
          "name": "G3",
          "midi": 55,
          "time": 139.8072357437498,
          "velocity": 0.8346456692913385,
          "duration": 0.10416662500000484
        },
        {
          "name": "D4",
          "midi": 62,
          "time": 140.01209677291646,
          "velocity": 0.9212598425196851,
          "duration": 0.08854163124999559
        },
        {
          "name": "D4",
          "midi": 62,
          "time": 140.22737446458314,
          "velocity": 0.8031496062992126,
          "duration": 0.09374996249999867
        },
        {
          "name": "D4",
          "midi": 62,
          "time": 140.43917993541646,
          "velocity": 0.8031496062992126,
          "duration": 0.09027774166665381
        },
        {
          "name": "D4",
          "midi": 62,
          "time": 140.64056874374978,
          "velocity": 0.8188976377952756,
          "duration": 0.08506941041667915
        },
        {
          "name": "D4",
          "midi": 62,
          "time": 140.8436936624998,
          "velocity": 0.7716535433070866,
          "duration": 0.08506941041667915
        },
        {
          "name": "D4",
          "midi": 62,
          "time": 141.03987413958313,
          "velocity": 0.7244094488188977,
          "duration": 0.08680552083333737
        },
        {
          "name": "D4",
          "midi": 62,
          "time": 141.2447351687498,
          "velocity": 0.7874015748031497,
          "duration": 0.08680552083333737
        },
        {
          "name": "D4",
          "midi": 62,
          "time": 141.4478600874998,
          "velocity": 0.7637795275590551,
          "duration": 0.08159718958333428
        },
        {
          "name": "D4",
          "midi": 62,
          "time": 141.6509850062498,
          "velocity": 0.8188976377952756,
          "duration": 0.09201385208334045
        },
        {
          "name": "D4",
          "midi": 62,
          "time": 141.85931825624982,
          "velocity": 0.7874015748031497,
          "duration": 0.09374996249999867
        },
        {
          "name": "D4",
          "midi": 62,
          "time": 142.07285983749983,
          "velocity": 0.8188976377952756,
          "duration": 0.10937495625000793
        },
        {
          "name": "D4",
          "midi": 62,
          "time": 142.30029030208317,
          "velocity": 0.8188976377952756,
          "duration": 0.10937495625000793
        },
        {
          "name": "G3",
          "midi": 55,
          "time": 142.50688744166652,
          "velocity": 0.8818897637795275,
          "duration": 0.09374996249999867
        },
        {
          "name": "G3",
          "midi": 55,
          "time": 142.71869291249985,
          "velocity": 0.8346456692913385,
          "duration": 0.08680552083333737
        },
        {
          "name": "G3",
          "midi": 55,
          "time": 142.92702616249986,
          "velocity": 0.7874015748031497,
          "duration": 0.08680552083333737
        },
        {
          "name": "G3",
          "midi": 55,
          "time": 143.13535941249987,
          "velocity": 0.8503937007874016,
          "duration": 0.07986107916667606
        },
        {
          "name": "G3",
          "midi": 55,
          "time": 143.34022044166653,
          "velocity": 0.8503937007874016,
          "duration": 0.0833332999999925
        },
        {
          "name": "G3",
          "midi": 55,
          "time": 143.54681758124985,
          "velocity": 0.7716535433070866,
          "duration": 0.07986107916667606
        },
        {
          "name": "G3",
          "midi": 55,
          "time": 143.7534147208332,
          "velocity": 0.7874015748031497,
          "duration": 0.08159718958333428
        },
        {
          "name": "G3",
          "midi": 55,
          "time": 143.96001186041653,
          "velocity": 0.8346456692913385,
          "duration": 0.08159718958333428
        },
        {
          "name": "G3",
          "midi": 55,
          "time": 144.16660899999985,
          "velocity": 0.8503937007874016,
          "duration": 0.09027774166665381
        },
        {
          "name": "G3",
          "midi": 55,
          "time": 144.38015058124984,
          "velocity": 0.8188976377952756,
          "duration": 0.08506941041667915
        },
        {
          "name": "G3",
          "midi": 55,
          "time": 144.59369216249985,
          "velocity": 0.8188976377952756,
          "duration": 0.0833332999999925
        },
        {
          "name": "G3",
          "midi": 55,
          "time": 144.80202541249983,
          "velocity": 0.8188976377952756,
          "duration": 0.07986107916667606
        },
        {
          "name": "A3",
          "midi": 57,
          "time": 145.00341422083318,
          "velocity": 0.9606299212598425,
          "duration": 0.09201385208334045
        },
        {
          "name": "A3",
          "midi": 57,
          "time": 145.2117474708332,
          "velocity": 0.7637795275590551,
          "duration": 0.09201385208334045
        },
        {
          "name": "A3",
          "midi": 57,
          "time": 145.42355294166654,
          "velocity": 0.8503937007874016,
          "duration": 0.08159718958333428
        },
        {
          "name": "A3",
          "midi": 57,
          "time": 145.63188619166655,
          "velocity": 0.8346456692913385,
          "duration": 0.08159718958333428
        },
        {
          "name": "A3",
          "midi": 57,
          "time": 145.84021944166656,
          "velocity": 0.8818897637795275,
          "duration": 0.0763888583333312
        },
        {
          "name": "A3",
          "midi": 57,
          "time": 146.04681658124989,
          "velocity": 0.8661417322834646,
          "duration": 0.07812496874998942
        },
        {
          "name": "A3",
          "midi": 57,
          "time": 146.25514983124987,
          "velocity": 0.8503937007874016,
          "duration": 0.08506941041667915
        },
        {
          "name": "A3",
          "midi": 57,
          "time": 146.47042752291654,
          "velocity": 0.8346456692913385,
          "duration": 0.08506941041667915
        },
        {
          "name": "A3",
          "midi": 57,
          "time": 146.6770246624999,
          "velocity": 0.8346456692913385,
          "duration": 0.08854163124999559
        },
        {
          "name": "A3",
          "midi": 57,
          "time": 146.8853579124999,
          "velocity": 0.7637795275590551,
          "duration": 0.08159718958333428
        },
        {
          "name": "A3",
          "midi": 57,
          "time": 147.10237171458323,
          "velocity": 0.8503937007874016,
          "duration": 0.08159718958333428
        },
        {
          "name": "A3",
          "midi": 57,
          "time": 147.30896885416655,
          "velocity": 0.7401574803149606,
          "duration": 0.08680552083333737
        },
        {
          "name": "A3",
          "midi": 57,
          "time": 147.51382988333322,
          "velocity": 0.7716535433070866,
          "duration": 0.0833332999999925
        },
        {
          "name": "A3",
          "midi": 57,
          "time": 147.7221631333332,
          "velocity": 0.6850393700787402,
          "duration": 0.08854163124999559
        },
        {
          "name": "A3",
          "midi": 57,
          "time": 147.9304963833332,
          "velocity": 0.6377952755905512,
          "duration": 0.10243051458334662
        },
        {
          "name": "A3",
          "midi": 57,
          "time": 148.14056574374987,
          "velocity": 0.5590551181102362,
          "duration": 0.0954860729166569
        },
        {
          "name": "A3",
          "midi": 57,
          "time": 148.35063510416654,
          "velocity": 0.5511811023622047,
          "duration": 0.10069440416665998
        },
        {
          "name": "A3",
          "midi": 57,
          "time": 148.5554961333332,
          "velocity": 0.5196850393700787,
          "duration": 0.09722218333334354
        },
        {
          "name": "A3",
          "midi": 57,
          "time": 148.76730160416656,
          "velocity": 0.5039370078740157,
          "duration": 0.09374996249999867
        },
        {
          "name": "A3",
          "midi": 57,
          "time": 148.97563485416657,
          "velocity": 0.5118110236220472,
          "duration": 0.08159718958333428
        },
        {
          "name": "A3",
          "midi": 57,
          "time": 149.17875977291658,
          "velocity": 0.4881889763779528,
          "duration": 0.0763888583333312
        },
        {
          "name": "A3",
          "midi": 57,
          "time": 149.37841247083324,
          "velocity": 0.5039370078740157,
          "duration": 0.05208331250000242
        },
        {
          "name": "A3",
          "midi": 57,
          "time": 187.51381388333323,
          "velocity": 1,
          "duration": 4.984373006249996
        },
        {
          "name": "E4",
          "midi": 64,
          "time": 188.34193855208323,
          "velocity": 0.9921259842519685,
          "duration": 4.137151122916663
        },
        {
          "name": "A4",
          "midi": 69,
          "time": 190.01207677291657,
          "velocity": 0.9133858267716536,
          "duration": 2.468749012499984
        },
        {
          "name": "D4",
          "midi": 62,
          "time": 192.52770076666656,
          "velocity": 0.984251968503937,
          "duration": 0.0694444166666699
        },
        {
          "name": "D4",
          "midi": 62,
          "time": 192.73603401666657,
          "velocity": 0.8818897637795275,
          "duration": 0.0763888583333312
        },
        {
          "name": "D4",
          "midi": 62,
          "time": 192.94610337708323,
          "velocity": 0.8346456692913385,
          "duration": 0.07986107916667606
        },
        {
          "name": "D4",
          "midi": 62,
          "time": 193.1579088479166,
          "velocity": 0.8031496062992126,
          "duration": 0.0694444166666699
        },
        {
          "name": "D4",
          "midi": 62,
          "time": 193.35756154583325,
          "velocity": 0.8976377952755905,
          "duration": 0.09027774166665381
        },
        {
          "name": "D4",
          "midi": 62,
          "time": 193.55547813333322,
          "velocity": 0.8188976377952756,
          "duration": 0.09027774166665381
        },
        {
          "name": "D4",
          "midi": 62,
          "time": 193.75686694166654,
          "velocity": 0.8661417322834646,
          "duration": 0.08506941041667915
        },
        {
          "name": "D4",
          "midi": 62,
          "time": 193.96520019166655,
          "velocity": 0.8503937007874016,
          "duration": 0.0833332999999925
        },
        {
          "name": "D4",
          "midi": 62,
          "time": 194.16658899999987,
          "velocity": 0.8818897637795275,
          "duration": 0.08854163124999559
        },
        {
          "name": "D4",
          "midi": 62,
          "time": 194.37145002916654,
          "velocity": 0.8346456692913385,
          "duration": 0.08854163124999559
        },
        {
          "name": "D4",
          "midi": 62,
          "time": 194.58499161041652,
          "velocity": 0.8976377952755905,
          "duration": 0.07118052708332812
        },
        {
          "name": "D4",
          "midi": 62,
          "time": 194.78464430833318,
          "velocity": 0.9448818897637795,
          "duration": 0.10069440416665998
        },
        {
          "name": "G4",
          "midi": 67,
          "time": 195.00513033124986,
          "velocity": 0.9606299212598425,
          "duration": 0.09374996249999867
        },
        {
          "name": "G4",
          "midi": 67,
          "time": 195.22040802291653,
          "velocity": 0.8346456692913385,
          "duration": 0.09895829375000176
        },
        {
          "name": "G4",
          "midi": 67,
          "time": 195.42353294166654,
          "velocity": 0.7401574803149606,
          "duration": 0.09374996249999867
        },
        {
          "name": "G4",
          "midi": 67,
          "time": 195.6283939708332,
          "velocity": 0.8031496062992126,
          "duration": 0.0833332999999925
        },
        {
          "name": "G4",
          "midi": 67,
          "time": 195.83672722083318,
          "velocity": 0.9606299212598425,
          "duration": 0.0833332999999925
        },
        {
          "name": "G4",
          "midi": 67,
          "time": 196.04158824999985,
          "velocity": 0.8031496062992126,
          "duration": 0.08159718958333428
        },
        {
          "name": "G4",
          "midi": 67,
          "time": 196.25860205208318,
          "velocity": 0.984251968503937,
          "duration": 0.08506941041667915
        },
        {
          "name": "G4",
          "midi": 67,
          "time": 196.46519919166653,
          "velocity": 0.8818897637795275,
          "duration": 0.08854163124999559
        },
        {
          "name": "G4",
          "midi": 67,
          "time": 196.67179633124985,
          "velocity": 0.8661417322834646,
          "duration": 0.08680552083333737
        },
        {
          "name": "G4",
          "midi": 67,
          "time": 196.88186569166652,
          "velocity": 0.8188976377952756,
          "duration": 0.08159718958333428
        },
        {
          "name": "G4",
          "midi": 67,
          "time": 197.09019894166653,
          "velocity": 0.8503937007874016,
          "duration": 0.08159718958333428
        },
        {
          "name": "G4",
          "midi": 67,
          "time": 197.29158774999988,
          "velocity": 0.8661417322834646,
          "duration": 0.09201385208334045
        },
        {
          "name": "D4",
          "midi": 62,
          "time": 197.4999209999999,
          "velocity": 0.9448818897637795,
          "duration": 0.0694444166666699
        },
        {
          "name": "D4",
          "midi": 62,
          "time": 197.70130980833324,
          "velocity": 0.8031496062992126,
          "duration": 0.08854163124999559
        },
        {
          "name": "D4",
          "midi": 62,
          "time": 197.91485138958322,
          "velocity": 0.8346456692913385,
          "duration": 0.06770830625001167
        },
        {
          "name": "D4",
          "midi": 62,
          "time": 198.11797630833323,
          "velocity": 0.8188976377952756,
          "duration": 0.07812496874998942
        },
        {
          "name": "D4",
          "midi": 62,
          "time": 198.32457344791655,
          "velocity": 0.8503937007874016,
          "duration": 0.07465274791667298
        },
        {
          "name": "D4",
          "midi": 62,
          "time": 198.5294344770832,
          "velocity": 0.8188976377952756,
          "duration": 0.07986107916667606
        },
        {
          "name": "D4",
          "midi": 62,
          "time": 198.74123994791657,
          "velocity": 0.8661417322834646,
          "duration": 0.07465274791667298
        },
        {
          "name": "D4",
          "midi": 62,
          "time": 198.95130930833324,
          "velocity": 0.8346456692913385,
          "duration": 0.0763888583333312
        },
        {
          "name": "D4",
          "midi": 62,
          "time": 199.16311477916656,
          "velocity": 0.8661417322834646,
          "duration": 0.07291663749998634
        },
        {
          "name": "D4",
          "midi": 62,
          "time": 199.36797580833323,
          "velocity": 0.8503937007874016,
          "duration": 0.07812496874998942
        },
        {
          "name": "D4",
          "midi": 62,
          "time": 199.57978127916655,
          "velocity": 0.8346456692913385,
          "duration": 0.06423608541666681
        },
        {
          "name": "D4",
          "midi": 62,
          "time": 199.77943397708322,
          "velocity": 0.8031496062992126,
          "duration": 0.07812496874998942
        },
        {
          "name": "G4",
          "midi": 67,
          "time": 199.9877672270832,
          "velocity": 0.8661417322834646,
          "duration": 0.09201385208334045
        },
        {
          "name": "G4",
          "midi": 67,
          "time": 200.1908921458332,
          "velocity": 0.7874015748031497,
          "duration": 0.0954860729166569
        },
        {
          "name": "G4",
          "midi": 67,
          "time": 200.4044337270832,
          "velocity": 0.7637795275590551,
          "duration": 0.09374996249999867
        },
        {
          "name": "G4",
          "midi": 67,
          "time": 200.61450308749986,
          "velocity": 0.7716535433070866,
          "duration": 0.08506941041667915
        },
        {
          "name": "G4",
          "midi": 67,
          "time": 200.83325299999987,
          "velocity": 0.8188976377952756,
          "duration": 0.059027754166663726
        },
        {
          "name": "G4",
          "midi": 67,
          "time": 201.03116958749987,
          "velocity": 0.7874015748031497,
          "duration": 0.08506941041667915
        },
        {
          "name": "G4",
          "midi": 67,
          "time": 201.2447111687499,
          "velocity": 0.7716535433070866,
          "duration": 0.08506941041667915
        },
        {
          "name": "G4",
          "midi": 67,
          "time": 201.45130830833324,
          "velocity": 0.7716535433070866,
          "duration": 0.08680552083333737
        },
        {
          "name": "G4",
          "midi": 67,
          "time": 201.66311377916657,
          "velocity": 0.8188976377952756,
          "duration": 0.09027774166665381
        },
        {
          "name": "G4",
          "midi": 67,
          "time": 201.87318313958323,
          "velocity": 0.7401574803149606,
          "duration": 0.09027774166665381
        },
        {
          "name": "G4",
          "midi": 67,
          "time": 202.08846083124988,
          "velocity": 0.8031496062992126,
          "duration": 0.08159718958333428
        },
        {
          "name": "G4",
          "midi": 67,
          "time": 202.29332186041654,
          "velocity": 0.8031496062992126,
          "duration": 0.10763884583332128
        },
        {
          "name": "D4",
          "midi": 62,
          "time": 202.49471066874986,
          "velocity": 0.8503937007874016,
          "duration": 0.0833332999999925
        },
        {
          "name": "D4",
          "midi": 62,
          "time": 202.70825224999984,
          "velocity": 0.7637795275590551,
          "duration": 0.08506941041667915
        },
        {
          "name": "D4",
          "midi": 62,
          "time": 202.9200577208332,
          "velocity": 0.7874015748031497,
          "duration": 0.07465274791667298
        },
        {
          "name": "D4",
          "midi": 62,
          "time": 203.1335993020832,
          "velocity": 0.7480314960629921,
          "duration": 0.06597219583332503
        },
        {
          "name": "D4",
          "midi": 62,
          "time": 203.33846033124988,
          "velocity": 0.8503937007874016,
          "duration": 0.0833332999999925
        },
        {
          "name": "D4",
          "midi": 62,
          "time": 203.53811302916654,
          "velocity": 0.7401574803149606,
          "duration": 0.08159718958333428
        },
        {
          "name": "D4",
          "midi": 62,
          "time": 203.7395018374999,
          "velocity": 0.8503937007874016,
          "duration": 0.08159718958333428
        },
        {
          "name": "D4",
          "midi": 62,
          "time": 203.9478350874999,
          "velocity": 0.8346456692913385,
          "duration": 0.07812496874998942
        },
        {
          "name": "D4",
          "midi": 62,
          "time": 204.15443222708322,
          "velocity": 0.8346456692913385,
          "duration": 0.09201385208334045
        },
        {
          "name": "D4",
          "midi": 62,
          "time": 204.3645015874999,
          "velocity": 0.8188976377952756,
          "duration": 0.08854163124999559
        },
        {
          "name": "D4",
          "midi": 62,
          "time": 204.58498761041656,
          "velocity": 0.8346456692913385,
          "duration": 0.07812496874998942
        },
        {
          "name": "D4",
          "midi": 62,
          "time": 204.78464030833322,
          "velocity": 0.8031496062992126,
          "duration": 0.08680552083333737
        },
        {
          "name": "G4",
          "midi": 67,
          "time": 204.98602911666657,
          "velocity": 0.8188976377952756,
          "duration": 0.09895829375000176
        },
        {
          "name": "G4",
          "midi": 67,
          "time": 205.2047790291666,
          "velocity": 0.8503937007874016,
          "duration": 0.10069440416665998
        },
        {
          "name": "G4",
          "midi": 67,
          "time": 205.4165844999999,
          "velocity": 0.8188976377952756,
          "duration": 0.09722218333334354
        },
        {
          "name": "G4",
          "midi": 67,
          "time": 205.63186219166658,
          "velocity": 0.8503937007874016,
          "duration": 0.11284717708332437
        },
        {
          "name": "G3",
          "midi": 55,
          "time": 205.8384593312499,
          "velocity": 0.9448818897637795,
          "duration": 0.07465274791667298
        },
        {
          "name": "G3",
          "midi": 55,
          "time": 206.04505647083326,
          "velocity": 0.9448818897637795,
          "duration": 0.08854163124999559
        },
        {
          "name": "G3",
          "midi": 55,
          "time": 206.25338972083327,
          "velocity": 0.8346456692913385,
          "duration": 0.08159718958333428
        },
        {
          "name": "G3",
          "midi": 55,
          "time": 206.46172297083328,
          "velocity": 0.8818897637795275,
          "duration": 0.08854163124999559
        },
        {
          "name": "G3",
          "midi": 55,
          "time": 206.66658399999994,
          "velocity": 0.8188976377952756,
          "duration": 0.0954860729166569
        },
        {
          "name": "G3",
          "midi": 55,
          "time": 206.8870700229166,
          "velocity": 0.8503937007874016,
          "duration": 0.09027774166665381
        },
        {
          "name": "G3",
          "midi": 55,
          "time": 207.10408382499992,
          "velocity": 0.8503937007874016,
          "duration": 0.08506941041667915
        },
        {
          "name": "G3",
          "midi": 55,
          "time": 207.3089448541666,
          "velocity": 0.9448818897637795,
          "duration": 0.10590273541666306
        },
        {
          "name": "D4",
          "midi": 62,
          "time": 207.51033366249993,
          "velocity": 0.8818897637795275,
          "duration": 0.10243051458334662
        },
        {
          "name": "D4",
          "midi": 62,
          "time": 207.7256113541666,
          "velocity": 0.8188976377952756,
          "duration": 0.10069440416665998
        },
        {
          "name": "D4",
          "midi": 62,
          "time": 207.93568071458327,
          "velocity": 0.7637795275590551,
          "duration": 0.09374996249999867
        },
        {
          "name": "D4",
          "midi": 62,
          "time": 208.1422778541666,
          "velocity": 0.7874015748031497,
          "duration": 0.08506941041667915
        },
        {
          "name": "D4",
          "midi": 62,
          "time": 208.35234721458326,
          "velocity": 0.8346456692913385,
          "duration": 0.08854163124999559
        },
        {
          "name": "D4",
          "midi": 62,
          "time": 208.56068046458327,
          "velocity": 0.7480314960629921,
          "duration": 0.08506941041667915
        },
        {
          "name": "D4",
          "midi": 62,
          "time": 208.76380538333328,
          "velocity": 0.7637795275590551,
          "duration": 0.0833332999999925
        },
        {
          "name": "D4",
          "midi": 62,
          "time": 208.97213863333326,
          "velocity": 0.7874015748031497,
          "duration": 0.08854163124999559
        },
        {
          "name": "D4",
          "midi": 62,
          "time": 209.17873577291658,
          "velocity": 0.7874015748031497,
          "duration": 0.09027774166665381
        },
        {
          "name": "D4",
          "midi": 62,
          "time": 209.39227735416657,
          "velocity": 0.7716535433070866,
          "duration": 0.08680552083333737
        },
        {
          "name": "D4",
          "midi": 62,
          "time": 209.59713838333323,
          "velocity": 0.7244094488188977,
          "duration": 0.08506941041667915
        },
        {
          "name": "D4",
          "midi": 62,
          "time": 209.78811052916657,
          "velocity": 0.6535433070866141,
          "duration": 0.10937495625000793
        },
        {
          "name": "A3",
          "midi": 57,
          "time": 210.00338822083324,
          "velocity": 0.8818897637795275,
          "duration": 0.08854163124999559
        },
        {
          "name": "A3",
          "midi": 57,
          "time": 210.2134575812499,
          "velocity": 0.7874015748031497,
          "duration": 0.08680552083333737
        },
        {
          "name": "A3",
          "midi": 57,
          "time": 210.41831861041658,
          "velocity": 0.7244094488188977,
          "duration": 0.0833332999999925
        },
        {
          "name": "A3",
          "midi": 57,
          "time": 210.6249157499999,
          "velocity": 0.7637795275590551,
          "duration": 0.0694444166666699
        },
        {
          "name": "A3",
          "midi": 57,
          "time": 210.8384573312499,
          "velocity": 0.8503937007874016,
          "duration": 0.07118052708332812
        },
        {
          "name": "A3",
          "midi": 57,
          "time": 211.04852669166658,
          "velocity": 0.7165354330708661,
          "duration": 0.07465274791667298
        },
        {
          "name": "A3",
          "midi": 57,
          "time": 211.25338772083325,
          "velocity": 0.7244094488188977,
          "duration": 0.07986107916667606
        },
        {
          "name": "A3",
          "midi": 57,
          "time": 211.46172097083326,
          "velocity": 0.6929133858267716,
          "duration": 0.07118052708332812
        },
        {
          "name": "A3",
          "midi": 57,
          "time": 211.67179033124992,
          "velocity": 0.8031496062992126,
          "duration": 0.07812496874998942
        },
        {
          "name": "A3",
          "midi": 57,
          "time": 211.8801235812499,
          "velocity": 0.7244094488188977,
          "duration": 0.08159718958333428
        },
        {
          "name": "A3",
          "midi": 57,
          "time": 212.08672072083323,
          "velocity": 0.7401574803149606,
          "duration": 0.07465274791667298
        },
        {
          "name": "A3",
          "midi": 57,
          "time": 212.28463730833323,
          "velocity": 0.8188976377952756,
          "duration": 0.10763884583332128
        },
        {
          "name": "D4",
          "midi": 62,
          "time": 212.49644277916656,
          "velocity": 0.8661417322834646,
          "duration": 0.08854163124999559
        },
        {
          "name": "D4",
          "midi": 62,
          "time": 212.70130380833322,
          "velocity": 0.7637795275590551,
          "duration": 0.0954860729166569
        },
        {
          "name": "D4",
          "midi": 62,
          "time": 212.9096370583332,
          "velocity": 0.8188976377952756,
          "duration": 0.08854163124999559
        },
        {
          "name": "D4",
          "midi": 62,
          "time": 213.11623419791653,
          "velocity": 0.7716535433070866,
          "duration": 0.08854163124999559
        },
        {
          "name": "D4",
          "midi": 62,
          "time": 213.31935911666653,
          "velocity": 0.8503937007874016,
          "duration": 0.08680552083333737
        },
        {
          "name": "D4",
          "midi": 62,
          "time": 213.51727570416654,
          "velocity": 0.7401574803149606,
          "duration": 0.09201385208334045
        },
        {
          "name": "D4",
          "midi": 62,
          "time": 213.7290811749999,
          "velocity": 0.7716535433070866,
          "duration": 0.09374996249999867
        },
        {
          "name": "D4",
          "midi": 62,
          "time": 213.94609497708322,
          "velocity": 0.7637795275590551,
          "duration": 0.08506941041667915
        },
        {
          "name": "D4",
          "midi": 62,
          "time": 214.1561643374999,
          "velocity": 0.7874015748031497,
          "duration": 0.08854163124999559
        },
        {
          "name": "D4",
          "midi": 62,
          "time": 214.36102536666655,
          "velocity": 0.7874015748031497,
          "duration": 0.09201385208334045
        },
        {
          "name": "D4",
          "midi": 62,
          "time": 214.58151138958323,
          "velocity": 0.8346456692913385,
          "duration": 0.09895829375000176
        },
        {
          "name": "D4",
          "midi": 62,
          "time": 214.7967890812499,
          "velocity": 0.8188976377952756,
          "duration": 0.10243051458334662
        },
        {
          "name": "G3",
          "midi": 55,
          "time": 215.00685844166657,
          "velocity": 0.8661417322834646,
          "duration": 0.08854163124999559
        },
        {
          "name": "G3",
          "midi": 55,
          "time": 215.2186639124999,
          "velocity": 0.7874015748031497,
          "duration": 0.08506941041667915
        },
        {
          "name": "G3",
          "midi": 55,
          "time": 215.42873327291656,
          "velocity": 0.8188976377952756,
          "duration": 0.08159718958333428
        },
        {
          "name": "G3",
          "midi": 55,
          "time": 215.63359430208322,
          "velocity": 0.8346456692913385,
          "duration": 0.07812496874998942
        },
        {
          "name": "G3",
          "midi": 55,
          "time": 215.8367192208332,
          "velocity": 0.9448818897637795,
          "duration": 0.0833332999999925
        },
        {
          "name": "G3",
          "midi": 55,
          "time": 216.04852469166653,
          "velocity": 0.8346456692913385,
          "duration": 0.07986107916667606
        },
        {
          "name": "G3",
          "midi": 55,
          "time": 216.25512183124988,
          "velocity": 0.8031496062992126,
          "duration": 0.0833332999999925
        },
        {
          "name": "G3",
          "midi": 55,
          "time": 216.46345508124986,
          "velocity": 0.7480314960629921,
          "duration": 0.08159718958333428
        },
        {
          "name": "G3",
          "midi": 55,
          "time": 216.68394110416654,
          "velocity": 0.8661417322834646,
          "duration": 0.07812496874998942
        },
        {
          "name": "G3",
          "midi": 55,
          "time": 216.89227435416652,
          "velocity": 0.8031496062992126,
          "duration": 0.08680552083333737
        },
        {
          "name": "G3",
          "midi": 55,
          "time": 217.09713538333318,
          "velocity": 0.8188976377952756,
          "duration": 0.07812496874998942
        },
        {
          "name": "G3",
          "midi": 55,
          "time": 217.29505197083319,
          "velocity": 0.8818897637795275,
          "duration": 0.10590273541666306
        },
        {
          "name": "D4",
          "midi": 62,
          "time": 217.5068574416665,
          "velocity": 0.9212598425196851,
          "duration": 0.09722218333334354
        },
        {
          "name": "D4",
          "midi": 62,
          "time": 217.71171847083318,
          "velocity": 0.7401574803149606,
          "duration": 0.10416662500000484
        },
        {
          "name": "D4",
          "midi": 62,
          "time": 217.9235239416665,
          "velocity": 0.8346456692913385,
          "duration": 0.0954860729166569
        },
        {
          "name": "D4",
          "midi": 62,
          "time": 218.12664886041648,
          "velocity": 0.8346456692913385,
          "duration": 0.12152772916667232
        },
        {
          "name": "D3",
          "midi": 50,
          "time": 218.33671822083315,
          "velocity": 0.8976377952755905,
          "duration": 0.09027774166665381
        },
        {
          "name": "D3",
          "midi": 50,
          "time": 218.55025980208313,
          "velocity": 0.9212598425196851,
          "duration": 0.0954860729166569
        },
        {
          "name": "D3",
          "midi": 50,
          "time": 218.76206527291646,
          "velocity": 0.8346456692913385,
          "duration": 0.08680552083333737
        },
        {
          "name": "D3",
          "midi": 50,
          "time": 218.97039852291647,
          "velocity": 0.8188976377952756,
          "duration": 0.09201385208334045
        },
        {
          "name": "D3",
          "midi": 50,
          "time": 219.18046788333314,
          "velocity": 0.8346456692913385,
          "duration": 0.09027774166665381
        },
        {
          "name": "D3",
          "midi": 50,
          "time": 219.38359280208311,
          "velocity": 0.8346456692913385,
          "duration": 0.09027774166665381
        },
        {
          "name": "D3",
          "midi": 50,
          "time": 219.5867177208331,
          "velocity": 0.8031496062992126,
          "duration": 0.08159718958333428
        },
        {
          "name": "D3",
          "midi": 50,
          "time": 219.79157874999976,
          "velocity": 0.8661417322834646,
          "duration": 0.10069440416665998
        },
        {
          "name": "G3",
          "midi": 55,
          "time": 220.01553699374975,
          "velocity": 0.8503937007874016,
          "duration": 0.07986107916667606
        },
        {
          "name": "G3",
          "midi": 55,
          "time": 220.22387024374976,
          "velocity": 0.7716535433070866,
          "duration": 0.08506941041667915
        },
        {
          "name": "G3",
          "midi": 55,
          "time": 220.42699516249976,
          "velocity": 0.7716535433070866,
          "duration": 0.07812496874998942
        },
        {
          "name": "G3",
          "midi": 55,
          "time": 220.62143952916642,
          "velocity": 0.8188976377952756,
          "duration": 0.0954860729166569
        },
        {
          "name": "G3",
          "midi": 55,
          "time": 220.83324499999975,
          "velocity": 0.7716535433070866,
          "duration": 0.08159718958333428
        },
        {
          "name": "G3",
          "midi": 55,
          "time": 221.04331436041642,
          "velocity": 0.7874015748031497,
          "duration": 0.10069440416665998
        },
        {
          "name": "G3",
          "midi": 55,
          "time": 221.2568559416664,
          "velocity": 0.7874015748031497,
          "duration": 0.0954860729166569
        },
        {
          "name": "G3",
          "midi": 55,
          "time": 221.4756058541664,
          "velocity": 0.7716535433070866,
          "duration": 0.07986107916667606
        },
        {
          "name": "G3",
          "midi": 55,
          "time": 221.68220299374974,
          "velocity": 0.8031496062992126,
          "duration": 0.09201385208334045
        },
        {
          "name": "G3",
          "midi": 55,
          "time": 221.89574457499975,
          "velocity": 0.7480314960629921,
          "duration": 0.09027774166665381
        },
        {
          "name": "G3",
          "midi": 55,
          "time": 222.10581393541642,
          "velocity": 0.8031496062992126,
          "duration": 0.0763888583333312
        },
        {
          "name": "G3",
          "midi": 55,
          "time": 222.30720274374974,
          "velocity": 0.8346456692913385,
          "duration": 0.10416662500000484
        },
        {
          "name": "D4",
          "midi": 62,
          "time": 222.5120637729164,
          "velocity": 0.9212598425196851,
          "duration": 0.08854163124999559
        },
        {
          "name": "D4",
          "midi": 62,
          "time": 222.72734146458308,
          "velocity": 0.8031496062992126,
          "duration": 0.09374996249999867
        },
        {
          "name": "D4",
          "midi": 62,
          "time": 222.9391469354164,
          "velocity": 0.8031496062992126,
          "duration": 0.09027774166665381
        },
        {
          "name": "D4",
          "midi": 62,
          "time": 223.14053574374972,
          "velocity": 0.8188976377952756,
          "duration": 0.08506941041667915
        },
        {
          "name": "D4",
          "midi": 62,
          "time": 223.34366066249973,
          "velocity": 0.7716535433070866,
          "duration": 0.08506941041667915
        },
        {
          "name": "D4",
          "midi": 62,
          "time": 223.53984113958307,
          "velocity": 0.7244094488188977,
          "duration": 0.08680552083333737
        },
        {
          "name": "D4",
          "midi": 62,
          "time": 223.74470216874974,
          "velocity": 0.7874015748031497,
          "duration": 0.08680552083333737
        },
        {
          "name": "D4",
          "midi": 62,
          "time": 223.94782708749975,
          "velocity": 0.7637795275590551,
          "duration": 0.08159718958333428
        },
        {
          "name": "D4",
          "midi": 62,
          "time": 224.15095200624975,
          "velocity": 0.8188976377952756,
          "duration": 0.09201385208334045
        },
        {
          "name": "D4",
          "midi": 62,
          "time": 224.35928525624976,
          "velocity": 0.7874015748031497,
          "duration": 0.09374996249999867
        },
        {
          "name": "D4",
          "midi": 62,
          "time": 224.57282683749978,
          "velocity": 0.8188976377952756,
          "duration": 0.10937495625000793
        },
        {
          "name": "D4",
          "midi": 62,
          "time": 224.8002573020831,
          "velocity": 0.8188976377952756,
          "duration": 0.10937495625000793
        },
        {
          "name": "G3",
          "midi": 55,
          "time": 225.00685444166646,
          "velocity": 0.8818897637795275,
          "duration": 0.09374996249999867
        },
        {
          "name": "G3",
          "midi": 55,
          "time": 225.2186599124998,
          "velocity": 0.8346456692913385,
          "duration": 0.08680552083333737
        },
        {
          "name": "G3",
          "midi": 55,
          "time": 225.4269931624998,
          "velocity": 0.7874015748031497,
          "duration": 0.08680552083333737
        },
        {
          "name": "G3",
          "midi": 55,
          "time": 225.6353264124998,
          "velocity": 0.8503937007874016,
          "duration": 0.07986107916667606
        },
        {
          "name": "G3",
          "midi": 55,
          "time": 225.84018744166647,
          "velocity": 0.8503937007874016,
          "duration": 0.0833332999999925
        },
        {
          "name": "G3",
          "midi": 55,
          "time": 226.0467845812498,
          "velocity": 0.7716535433070866,
          "duration": 0.07986107916667606
        },
        {
          "name": "G3",
          "midi": 55,
          "time": 226.25338172083315,
          "velocity": 0.7874015748031497,
          "duration": 0.08159718958333428
        },
        {
          "name": "G3",
          "midi": 55,
          "time": 226.45997886041647,
          "velocity": 0.8346456692913385,
          "duration": 0.08159718958333428
        },
        {
          "name": "G3",
          "midi": 55,
          "time": 226.6665759999998,
          "velocity": 0.8503937007874016,
          "duration": 0.09027774166665381
        },
        {
          "name": "G3",
          "midi": 55,
          "time": 226.88011758124978,
          "velocity": 0.8188976377952756,
          "duration": 0.08506941041667915
        },
        {
          "name": "G3",
          "midi": 55,
          "time": 227.0936591624998,
          "velocity": 0.8188976377952756,
          "duration": 0.0833332999999925
        },
        {
          "name": "G3",
          "midi": 55,
          "time": 227.30199241249977,
          "velocity": 0.8188976377952756,
          "duration": 0.07986107916667606
        },
        {
          "name": "A3",
          "midi": 57,
          "time": 227.50338122083312,
          "velocity": 0.9606299212598425,
          "duration": 0.09201385208334045
        },
        {
          "name": "A3",
          "midi": 57,
          "time": 227.71171447083313,
          "velocity": 0.7637795275590551,
          "duration": 0.09201385208334045
        },
        {
          "name": "A3",
          "midi": 57,
          "time": 227.92351994166648,
          "velocity": 0.8503937007874016,
          "duration": 0.08159718958333428
        },
        {
          "name": "A3",
          "midi": 57,
          "time": 228.1318531916665,
          "velocity": 0.8346456692913385,
          "duration": 0.08159718958333428
        },
        {
          "name": "A3",
          "midi": 57,
          "time": 228.3401864416665,
          "velocity": 0.8818897637795275,
          "duration": 0.0763888583333312
        },
        {
          "name": "A3",
          "midi": 57,
          "time": 228.54678358124983,
          "velocity": 0.8661417322834646,
          "duration": 0.07812496874998942
        },
        {
          "name": "A3",
          "midi": 57,
          "time": 228.7551168312498,
          "velocity": 0.8503937007874016,
          "duration": 0.08506941041667915
        },
        {
          "name": "A3",
          "midi": 57,
          "time": 228.97039452291648,
          "velocity": 0.8346456692913385,
          "duration": 0.08506941041667915
        },
        {
          "name": "A3",
          "midi": 57,
          "time": 229.17699166249983,
          "velocity": 0.8346456692913385,
          "duration": 0.08854163124999559
        },
        {
          "name": "A3",
          "midi": 57,
          "time": 229.38532491249984,
          "velocity": 0.7637795275590551,
          "duration": 0.08159718958333428
        },
        {
          "name": "A3",
          "midi": 57,
          "time": 229.60233871458317,
          "velocity": 0.8503937007874016,
          "duration": 0.08159718958333428
        },
        {
          "name": "A3",
          "midi": 57,
          "time": 229.8089358541665,
          "velocity": 0.7401574803149606,
          "duration": 0.08680552083333737
        },
        {
          "name": "A3",
          "midi": 57,
          "time": 230.01379688333316,
          "velocity": 0.7716535433070866,
          "duration": 0.0833332999999925
        },
        {
          "name": "A3",
          "midi": 57,
          "time": 230.22213013333314,
          "velocity": 0.6850393700787402,
          "duration": 0.08854163124999559
        },
        {
          "name": "A3",
          "midi": 57,
          "time": 230.43046338333315,
          "velocity": 0.6377952755905512,
          "duration": 0.10243051458334662
        },
        {
          "name": "A3",
          "midi": 57,
          "time": 230.64053274374982,
          "velocity": 0.5590551181102362,
          "duration": 0.0954860729166569
        },
        {
          "name": "A3",
          "midi": 57,
          "time": 230.85060210416648,
          "velocity": 0.5511811023622047,
          "duration": 0.10069440416665998
        },
        {
          "name": "A3",
          "midi": 57,
          "time": 231.05546313333315,
          "velocity": 0.5196850393700787,
          "duration": 0.09722218333334354
        },
        {
          "name": "A3",
          "midi": 57,
          "time": 231.2672686041665,
          "velocity": 0.5039370078740157,
          "duration": 0.09374996249999867
        },
        {
          "name": "A3",
          "midi": 57,
          "time": 231.4756018541665,
          "velocity": 0.5118110236220472,
          "duration": 0.08159718958333428
        },
        {
          "name": "A3",
          "midi": 57,
          "time": 231.67872677291652,
          "velocity": 0.4881889763779528,
          "duration": 0.0763888583333312
        },
        {
          "name": "A3",
          "midi": 57,
          "time": 231.87837947083318,
          "velocity": 0.5039370078740157,
          "duration": 0.05208331250000242
        },
        {
          "name": "E3",
          "midi": 52,
          "time": 280.42176283124985,
          "velocity": 0.7795275590551181,
          "duration": 2.074651947916607
        },
        {
          "name": "A3",
          "midi": 57,
          "time": 280.8314848895831,
          "velocity": 0.8503937007874016,
          "duration": 4.9791646750000496
        },
        {
          "name": "F#3",
          "midi": 54,
          "time": 285.00335822083315,
          "velocity": 0.84251968503937,
          "duration": 7.345483172916886
        },
        {
          "name": "A3",
          "midi": 57,
          "time": 285.8314828895832,
          "velocity": 0.6692913385826772,
          "duration": 6.499997400000211
        },
        {
          "name": "F#4",
          "midi": 66,
          "time": 287.4668989020832,
          "velocity": 0.6220472440944882,
          "duration": 4.878470270833532
        }
      ],
      "controlChanges": {
        "6": [
          {
            "number": 6,
            "time": 0.9114579687499996,
            "value": 0.015748031496062992
          },
          {
            "number": 6,
            "time": 0.9201385208333329,
            "value": 0.5039370078740157
          },
          {
            "number": 6,
            "time": 0.9288190729166662,
            "value": 0.5039370078740157
          },
          {
            "number": 6,
            "time": 0.9374996249999995,
            "value": 0.5039370078740157
          },
          {
            "number": 6,
            "time": 0.9461801770833328,
            "value": 0.5039370078740157
          },
          {
            "number": 6,
            "time": 0.9548607291666661,
            "value": 0.5039370078740157
          },
          {
            "number": 6,
            "time": 0.9635412812499994,
            "value": 0.5039370078740157
          },
          {
            "number": 6,
            "time": 0.9722218333333327,
            "value": 0.5039370078740157
          },
          {
            "number": 6,
            "time": 0.980902385416666,
            "value": 0.5039370078740157
          }
        ],
        "7": [
          {
            "number": 7,
            "time": 0.8767357604166665,
            "value": 0.9291338582677166
          },
          {
            "number": 7,
            "time": 41.66664999999999,
            "value": 0.6535433070866141
          },
          {
            "number": 7,
            "time": 42.499982999999986,
            "value": 0.6850393700787402
          },
          {
            "number": 7,
            "time": 42.59199685208332,
            "value": 0.7244094488188977
          },
          {
            "number": 7,
            "time": 42.65796904791665,
            "value": 0.7637795275590551
          },
          {
            "number": 7,
            "time": 42.749982899999985,
            "value": 0.7874015748031497
          },
          {
            "number": 7,
            "time": 42.84199675208332,
            "value": 0.8188976377952756
          },
          {
            "number": 7,
            "time": 42.939218935416655,
            "value": 0.84251968503937
          },
          {
            "number": 7,
            "time": 43.001718910416656,
            "value": 0.8582677165354331
          },
          {
            "number": 7,
            "time": 43.07810776874999,
            "value": 0.8818897637795275
          },
          {
            "number": 7,
            "time": 43.156232737499984,
            "value": 0.9133858267716536
          },
          {
            "number": 7,
            "time": 43.24998269999998,
            "value": 0.9606299212598425
          },
          {
            "number": 7,
            "time": 43.41838541041665,
            "value": 1
          },
          {
            "number": 7,
            "time": 47.499980999999984,
            "value": 0.6535433070866141
          },
          {
            "number": 7,
            "time": 48.33331399999998,
            "value": 0.6850393700787402
          },
          {
            "number": 7,
            "time": 48.42532785208331,
            "value": 0.7244094488188977
          },
          {
            "number": 7,
            "time": 48.491300047916646,
            "value": 0.7637795275590551
          },
          {
            "number": 7,
            "time": 48.58331389999998,
            "value": 0.7874015748031497
          },
          {
            "number": 7,
            "time": 48.67532775208331,
            "value": 0.8188976377952756
          },
          {
            "number": 7,
            "time": 48.77254993541665,
            "value": 0.84251968503937
          },
          {
            "number": 7,
            "time": 48.83504991041665,
            "value": 0.8582677165354331
          },
          {
            "number": 7,
            "time": 48.91143876874998,
            "value": 0.8818897637795275
          },
          {
            "number": 7,
            "time": 48.98956373749998,
            "value": 0.9133858267716536
          },
          {
            "number": 7,
            "time": 49.08331369999998,
            "value": 0.9606299212598425
          },
          {
            "number": 7,
            "time": 49.25171641041664,
            "value": 1
          },
          {
            "number": 7,
            "time": 52.499978999999975,
            "value": 0.6535433070866141
          },
          {
            "number": 7,
            "time": 53.33331199999997,
            "value": 0.6850393700787402
          },
          {
            "number": 7,
            "time": 53.425325852083304,
            "value": 0.7244094488188977
          },
          {
            "number": 7,
            "time": 53.49129804791664,
            "value": 0.7637795275590551
          },
          {
            "number": 7,
            "time": 53.58331189999997,
            "value": 0.7874015748031497
          },
          {
            "number": 7,
            "time": 53.6753257520833,
            "value": 0.8188976377952756
          },
          {
            "number": 7,
            "time": 53.77254793541664,
            "value": 0.84251968503937
          },
          {
            "number": 7,
            "time": 53.83504791041664,
            "value": 0.8582677165354331
          },
          {
            "number": 7,
            "time": 53.91143676874997,
            "value": 0.8818897637795275
          },
          {
            "number": 7,
            "time": 53.98956173749997,
            "value": 0.9133858267716536
          },
          {
            "number": 7,
            "time": 54.08331169999997,
            "value": 0.9606299212598425
          },
          {
            "number": 7,
            "time": 54.25171441041663,
            "value": 1
          },
          {
            "number": 7,
            "time": 57.499976999999966,
            "value": 0.6535433070866141
          },
          {
            "number": 7,
            "time": 58.33330999999996,
            "value": 0.6850393700787402
          },
          {
            "number": 7,
            "time": 58.425323852083295,
            "value": 0.7244094488188977
          },
          {
            "number": 7,
            "time": 58.49129604791663,
            "value": 0.7637795275590551
          },
          {
            "number": 7,
            "time": 58.58330989999996,
            "value": 0.7874015748031497
          },
          {
            "number": 7,
            "time": 58.675323752083294,
            "value": 0.8188976377952756
          },
          {
            "number": 7,
            "time": 58.77254593541663,
            "value": 0.84251968503937
          },
          {
            "number": 7,
            "time": 58.83504591041663,
            "value": 0.8582677165354331
          },
          {
            "number": 7,
            "time": 58.91143476874996,
            "value": 0.8818897637795275
          },
          {
            "number": 7,
            "time": 58.98955973749996,
            "value": 0.9133858267716536
          },
          {
            "number": 7,
            "time": 59.08330969999996,
            "value": 0.9606299212598425
          },
          {
            "number": 7,
            "time": 59.25171241041662,
            "value": 1
          },
          {
            "number": 7,
            "time": 59.999975999999954,
            "value": 0.6535433070866141
          },
          {
            "number": 7,
            "time": 60.83330899999995,
            "value": 0.6850393700787402
          },
          {
            "number": 7,
            "time": 60.92532285208328,
            "value": 0.7244094488188977
          },
          {
            "number": 7,
            "time": 60.991295047916616,
            "value": 0.7637795275590551
          },
          {
            "number": 7,
            "time": 61.08330889999995,
            "value": 0.7874015748031497
          },
          {
            "number": 7,
            "time": 61.17532275208328,
            "value": 0.8188976377952756
          },
          {
            "number": 7,
            "time": 61.27254493541662,
            "value": 0.84251968503937
          },
          {
            "number": 7,
            "time": 61.33504491041662,
            "value": 0.8582677165354331
          },
          {
            "number": 7,
            "time": 61.41143376874995,
            "value": 0.8818897637795275
          },
          {
            "number": 7,
            "time": 61.48955873749995,
            "value": 0.9133858267716536
          },
          {
            "number": 7,
            "time": 61.58330869999995,
            "value": 0.9606299212598425
          },
          {
            "number": 7,
            "time": 61.75171141041661,
            "value": 1
          },
          {
            "number": 7,
            "time": 62.49997499999994,
            "value": 0.6535433070866141
          },
          {
            "number": 7,
            "time": 63.33330799999994,
            "value": 0.6850393700787402
          },
          {
            "number": 7,
            "time": 63.42532185208327,
            "value": 0.7244094488188977
          },
          {
            "number": 7,
            "time": 63.491294047916604,
            "value": 0.7637795275590551
          },
          {
            "number": 7,
            "time": 63.58330789999994,
            "value": 0.7874015748031497
          },
          {
            "number": 7,
            "time": 63.67532175208327,
            "value": 0.8188976377952756
          },
          {
            "number": 7,
            "time": 63.77254393541661,
            "value": 0.84251968503937
          },
          {
            "number": 7,
            "time": 63.83504391041661,
            "value": 0.8582677165354331
          },
          {
            "number": 7,
            "time": 63.91143276874994,
            "value": 0.8818897637795275
          },
          {
            "number": 7,
            "time": 63.989557737499936,
            "value": 0.9133858267716536
          },
          {
            "number": 7,
            "time": 64.08330769999993,
            "value": 0.9606299212598425
          },
          {
            "number": 7,
            "time": 64.2517104104166,
            "value": 1
          },
          {
            "number": 7,
            "time": 105.01558299374994,
            "value": 0.33070866141732286
          },
          {
            "number": 7,
            "time": 106.31419358541662,
            "value": 0.3543307086614173
          },
          {
            "number": 7,
            "time": 106.54683238124996,
            "value": 0.3700787401574803
          },
          {
            "number": 7,
            "time": 106.60759624583329,
            "value": 0.3937007874015748
          },
          {
            "number": 7,
            "time": 106.65447122708329,
            "value": 0.4094488188976378
          },
          {
            "number": 7,
            "time": 106.67009622083329,
            "value": 0.4251968503937008
          },
          {
            "number": 7,
            "time": 106.69961009791662,
            "value": 0.4409448818897638
          },
          {
            "number": 7,
            "time": 106.74648507916662,
            "value": 0.4645669291338583
          },
          {
            "number": 7,
            "time": 106.79336006041662,
            "value": 0.4881889763779528
          },
          {
            "number": 7,
            "time": 106.84023504166662,
            "value": 0.5039370078740157
          },
          {
            "number": 7,
            "time": 106.90273501666661,
            "value": 0.5275590551181102
          },
          {
            "number": 7,
            "time": 106.97738776458328,
            "value": 0.5511811023622047
          },
          {
            "number": 7,
            "time": 107.05551273333329,
            "value": 0.5669291338582677
          },
          {
            "number": 7,
            "time": 107.08676272083329,
            "value": 0.5905511811023622
          },
          {
            "number": 7,
            "time": 107.1180127083333,
            "value": 0.6062992125984252
          },
          {
            "number": 7,
            "time": 107.13190159166663,
            "value": 0.6220472440944882
          },
          {
            "number": 7,
            "time": 107.1492626958333,
            "value": 0.6299212598425197
          },
          {
            "number": 7,
            "time": 107.1648876895833,
            "value": 0.6456692913385826
          },
          {
            "number": 7,
            "time": 107.21002656041662,
            "value": 0.6692913385826772
          },
          {
            "number": 7,
            "time": 107.28815152916663,
            "value": 0.6850393700787402
          },
          {
            "number": 7,
            "time": 107.35065150416662,
            "value": 0.7086614173228346
          },
          {
            "number": 7,
            "time": 107.41141536874996,
            "value": 0.7244094488188977
          },
          {
            "number": 7,
            "time": 107.47391534374995,
            "value": 0.7480314960629921
          },
          {
            "number": 7,
            "time": 107.55204031249995,
            "value": 0.7637795275590551
          },
          {
            "number": 7,
            "time": 107.64405416458328,
            "value": 0.7874015748031497
          },
          {
            "number": 7,
            "time": 107.70481802916662,
            "value": 0.8110236220472441
          },
          {
            "number": 7,
            "time": 107.75169301041662,
            "value": 0.8346456692913385
          },
          {
            "number": 7,
            "time": 107.81245687499995,
            "value": 0.8582677165354331
          },
          {
            "number": 7,
            "time": 107.82808186874995,
            "value": 0.8661417322834646
          },
          {
            "number": 7,
            "time": 107.87495684999995,
            "value": 0.889763779527559
          },
          {
            "number": 7,
            "time": 107.92183183124995,
            "value": 0.905511811023622
          },
          {
            "number": 7,
            "time": 107.98433180624994,
            "value": 0.9291338582677166
          },
          {
            "number": 7,
            "time": 108.02947067708327,
            "value": 0.952755905511811
          },
          {
            "number": 7,
            "time": 108.07634565833327,
            "value": 0.968503937007874
          },
          {
            "number": 7,
            "time": 108.1214845291666,
            "value": 0.9921259842519685
          },
          {
            "number": 7,
            "time": 187.4999249999999,
            "value": 1
          },
          {
            "number": 7,
            "time": 280.24988789999986,
            "value": 0.7874015748031497
          },
          {
            "number": 7,
            "time": 280.3419017520832,
            "value": 0.8188976377952756
          },
          {
            "number": 7,
            "time": 280.4391239354165,
            "value": 0.84251968503937
          },
          {
            "number": 7,
            "time": 280.50162391041647,
            "value": 0.8582677165354331
          },
          {
            "number": 7,
            "time": 280.57801276874983,
            "value": 0.8818897637795275
          },
          {
            "number": 7,
            "time": 280.6561377374998,
            "value": 0.9133858267716536
          },
          {
            "number": 7,
            "time": 280.7498876999998,
            "value": 0.9606299212598425
          },
          {
            "number": 7,
            "time": 280.91829041041643,
            "value": 1
          },
          {
            "number": 7,
            "time": 286.7116908708332,
            "value": 0.8188976377952756
          },
          {
            "number": 7,
            "time": 287.3002323020832,
            "value": 0.7952755905511811
          },
          {
            "number": 7,
            "time": 288.2377319270832,
            "value": 0.7795275590551181
          },
          {
            "number": 7,
            "time": 288.76203727291653,
            "value": 0.7559055118110236
          },
          {
            "number": 7,
            "time": 288.99988439999987,
            "value": 0.7401574803149606
          },
          {
            "number": 7,
            "time": 289.16134266874985,
            "value": 0.7165354330708661
          },
          {
            "number": 7,
            "time": 289.3019676124999,
            "value": 0.7007874015748031
          },
          {
            "number": 7,
            "time": 289.4304397833332,
            "value": 0.6771653543307087
          },
          {
            "number": 7,
            "time": 289.65266191666655,
            "value": 0.6614173228346457
          },
          {
            "number": 7,
            "time": 289.76377298333324,
            "value": 0.6377952755905512
          },
          {
            "number": 7,
            "time": 289.8905090437499,
            "value": 0.6220472440944882
          },
          {
            "number": 7,
            "time": 289.97037012291656,
            "value": 0.5984251968503937
          },
          {
            "number": 7,
            "time": 290.06585619583325,
            "value": 0.5826771653543307
          },
          {
            "number": 7,
            "time": 290.2238422437499,
            "value": 0.5590551181102362
          },
          {
            "number": 7,
            "time": 290.38356440208327,
            "value": 0.5433070866141733
          },
          {
            "number": 7,
            "time": 290.49467546874996,
            "value": 0.5196850393700787
          },
          {
            "number": 7,
            "time": 290.59016154166665,
            "value": 0.5039370078740157
          },
          {
            "number": 7,
            "time": 290.70127260833334,
            "value": 0.48031496062992124
          },
          {
            "number": 7,
            "time": 290.81411978541666,
            "value": 0.4645669291338583
          },
          {
            "number": 7,
            "time": 290.89224475416665,
            "value": 0.4409448818897638
          },
          {
            "number": 7,
            "time": 290.97210583333333,
            "value": 0.4251968503937008
          },
          {
            "number": 7,
            "time": 291.0346058083333,
            "value": 0.4015748031496063
          },
          {
            "number": 7,
            "time": 291.10057800416666,
            "value": 0.3779527559055118
          },
          {
            "number": 7,
            "time": 291.1474529854167,
            "value": 0.36220472440944884
          },
          {
            "number": 7,
            "time": 291.22731406458337,
            "value": 0.33858267716535434
          },
          {
            "number": 7,
            "time": 291.32280013750005,
            "value": 0.3228346456692913
          },
          {
            "number": 7,
            "time": 291.3696751187501,
            "value": 0.2992125984251969
          },
          {
            "number": 7,
            "time": 291.41828621041674,
            "value": 0.28346456692913385
          },
          {
            "number": 7,
            "time": 291.4807861854167,
            "value": 0.25984251968503935
          },
          {
            "number": 7,
            "time": 291.5450222708334,
            "value": 0.23622047244094488
          },
          {
            "number": 7,
            "time": 291.5918972520834,
            "value": 0.2204724409448819
          },
          {
            "number": 7,
            "time": 291.64050834375007,
            "value": 0.1968503937007874
          },
          {
            "number": 7,
            "time": 291.6873833250001,
            "value": 0.1732283464566929
          },
          {
            "number": 7,
            "time": 291.73599441666676,
            "value": 0.14960629921259844
          },
          {
            "number": 7,
            "time": 291.7655082937501,
            "value": 0.13385826771653545
          },
          {
            "number": 7,
            "time": 291.81411938541675,
            "value": 0.11023622047244094
          },
          {
            "number": 7,
            "time": 291.8627304770834,
            "value": 0.08661417322834646
          },
          {
            "number": 7,
            "time": 291.8939804645834,
            "value": 0.06299212598425197
          },
          {
            "number": 7,
            "time": 291.94085544583345,
            "value": 0.03937007874015748
          },
          {
            "number": 7,
            "time": 291.9582165500001,
            "value": 0.031496062992125984
          },
          {
            "number": 7,
            "time": 292.02245263541676,
            "value": 0.007874015748031496
          }
        ],
        "10": [
          {
            "number": 10,
            "time": 0.8854163124999997,
            "value": 0.5039370078740157
          }
        ],
        "32": [
          {
            "number": 32,
            "time": 0.8593746562499999,
            "value": 1
          }
        ],
        "91": [
          {
            "number": 91,
            "time": 0.894096864583333,
            "value": 0.31496062992125984
          }
        ],
        "93": [
          {
            "number": 93,
            "time": 0.9027774166666663,
            "value": 0
          }
        ],
        "98": [
          {
            "number": 98,
            "time": 0.9201385208333329,
            "value": 0.06299212598425197
          },
          {
            "number": 98,
            "time": 0.9288190729166662,
            "value": 0.07086614173228346
          },
          {
            "number": 98,
            "time": 0.9374996249999995,
            "value": 0.07874015748031496
          },
          {
            "number": 98,
            "time": 0.9461801770833328,
            "value": 0.25196850393700787
          },
          {
            "number": 98,
            "time": 0.9548607291666661,
            "value": 0.25984251968503935
          },
          {
            "number": 98,
            "time": 0.9635412812499994,
            "value": 0.7795275590551181
          },
          {
            "number": 98,
            "time": 0.9722218333333327,
            "value": 0.7874015748031497
          },
          {
            "number": 98,
            "time": 0.980902385416666,
            "value": 0.8031496062992126
          }
        ],
        "99": [
          {
            "number": 99,
            "time": 0.9201385208333329,
            "value": 0.007874015748031496
          },
          {
            "number": 99,
            "time": 0.9288190729166662,
            "value": 0.007874015748031496
          },
          {
            "number": 99,
            "time": 0.9374996249999995,
            "value": 0.007874015748031496
          },
          {
            "number": 99,
            "time": 0.9461801770833328,
            "value": 0.007874015748031496
          },
          {
            "number": 99,
            "time": 0.9548607291666661,
            "value": 0.007874015748031496
          },
          {
            "number": 99,
            "time": 0.9635412812499994,
            "value": 0.007874015748031496
          },
          {
            "number": 99,
            "time": 0.9722218333333327,
            "value": 0.007874015748031496
          },
          {
            "number": 99,
            "time": 0.980902385416666,
            "value": 0.007874015748031496
          }
        ],
        "100": [
          {
            "number": 100,
            "time": 0.9114579687499996,
            "value": 0
          }
        ],
        "101": [
          {
            "number": 101,
            "time": 0.9114579687499996,
            "value": 0
          }
        ]
      },
      "id": 7,
      "name": "PolySynth",
      "instrumentNumber": 90,
      "instrument": "pad 3 (polysynth)",
      "instrumentFamily": "synth pad",
      "channelNumber": 6,
      "isPercussion": false
    },
    {
      "startTime": 2.4999989999999994,
      "duration": 292.4009247062502,
      "length": 166,
      "notes": [
        {
          "name": "D2",
          "midi": 38,
          "time": 2.4999989999999994,
          "velocity": 0.9606299212598425,
          "duration": 4.18228999375
        },
        {
          "name": "D1",
          "midi": 26,
          "time": 2.4999989999999994,
          "velocity": 0.9606299212598425,
          "duration": 4.18228999375
        },
        {
          "name": "D2",
          "midi": 38,
          "time": 7.5208303249999995,
          "velocity": 0.8976377952755905,
          "duration": 4.229164974999999
        },
        {
          "name": "D1",
          "midi": 26,
          "time": 7.5208303249999995,
          "velocity": 0.8976377952755905,
          "duration": 4.229164974999999
        },
        {
          "name": "D2",
          "midi": 38,
          "time": 12.508675552083332,
          "velocity": 0.9448818897637795,
          "duration": 4.467012102083334
        },
        {
          "name": "D1",
          "midi": 26,
          "time": 12.508675552083332,
          "velocity": 0.9448818897637795,
          "duration": 4.467012102083334
        },
        {
          "name": "D2",
          "midi": 38,
          "time": 17.51561799375,
          "velocity": 0.952755905511811,
          "duration": 4.934025804166666
        },
        {
          "name": "D1",
          "midi": 26,
          "time": 17.51561799375,
          "velocity": 0.952755905511811,
          "duration": 4.934025804166666
        },
        {
          "name": "D2",
          "midi": 38,
          "time": 22.515615993749996,
          "velocity": 1,
          "duration": 4.916664699999998
        },
        {
          "name": "D1",
          "midi": 26,
          "time": 22.515615993749996,
          "velocity": 1,
          "duration": 4.916664699999998
        },
        {
          "name": "D2",
          "midi": 38,
          "time": 27.51214177291666,
          "velocity": 1,
          "duration": 2.477429564583332
        },
        {
          "name": "D1",
          "midi": 26,
          "time": 27.51214177291666,
          "velocity": 1,
          "duration": 2.477429564583332
        },
        {
          "name": "C2",
          "midi": 36,
          "time": 30.01214077291666,
          "velocity": 0.8503937007874016,
          "duration": 2.4739573437500013
        },
        {
          "name": "C1",
          "midi": 24,
          "time": 30.01214077291666,
          "velocity": 0.8503937007874016,
          "duration": 2.4739573437500013
        },
        {
          "name": "F2",
          "midi": 41,
          "time": 32.51387588333333,
          "velocity": 0.937007874015748,
          "duration": 2.467012902083333
        },
        {
          "name": "F1",
          "midi": 29,
          "time": 32.51387588333333,
          "velocity": 0.937007874015748,
          "duration": 2.467012902083333
        },
        {
          "name": "C2",
          "midi": 36,
          "time": 35.019083214583326,
          "velocity": 0.7952755905511811,
          "duration": 2.4652767916666676
        },
        {
          "name": "C1",
          "midi": 24,
          "time": 35.019083214583326,
          "velocity": 0.7952755905511811,
          "duration": 2.4652767916666676
        },
        {
          "name": "A#2",
          "midi": 46,
          "time": 37.513873883333325,
          "velocity": 0.7480314960629921,
          "duration": 2.4861101166666657
        },
        {
          "name": "A#1",
          "midi": 34,
          "time": 37.513873883333325,
          "velocity": 0.7480314960629921,
          "duration": 2.4861101166666657
        },
        {
          "name": "A2",
          "midi": 45,
          "time": 40.005192331249994,
          "velocity": 0.6771653543307087,
          "duration": 4.968748012500001
        },
        {
          "name": "A1",
          "midi": 33,
          "time": 40.005192331249994,
          "velocity": 0.6771653543307087,
          "duration": 4.968748012500001
        },
        {
          "name": "D2",
          "midi": 38,
          "time": 45.01560699375,
          "velocity": 1,
          "duration": 4.916664699999998
        },
        {
          "name": "D1",
          "midi": 26,
          "time": 45.01560699375,
          "velocity": 1,
          "duration": 4.916664699999998
        },
        {
          "name": "D2",
          "midi": 38,
          "time": 50.012132772916665,
          "velocity": 1,
          "duration": 2.477429564583332
        },
        {
          "name": "D1",
          "midi": 26,
          "time": 50.012132772916665,
          "velocity": 1,
          "duration": 2.477429564583332
        },
        {
          "name": "C2",
          "midi": 36,
          "time": 52.51213177291666,
          "velocity": 0.8503937007874016,
          "duration": 2.4739573437500013
        },
        {
          "name": "C1",
          "midi": 24,
          "time": 52.51213177291666,
          "velocity": 0.8503937007874016,
          "duration": 2.4739573437500013
        },
        {
          "name": "F2",
          "midi": 41,
          "time": 55.01386688333333,
          "velocity": 0.937007874015748,
          "duration": 2.467012902083333
        },
        {
          "name": "F1",
          "midi": 29,
          "time": 55.01386688333333,
          "velocity": 0.937007874015748,
          "duration": 2.467012902083333
        },
        {
          "name": "C2",
          "midi": 36,
          "time": 57.51907421458333,
          "velocity": 0.7952755905511811,
          "duration": 2.4652767916666676
        },
        {
          "name": "C1",
          "midi": 24,
          "time": 57.51907421458333,
          "velocity": 0.7952755905511811,
          "duration": 2.4652767916666676
        },
        {
          "name": "A#2",
          "midi": 46,
          "time": 60.013864883333326,
          "velocity": 0.889763779527559,
          "duration": 2.482637895833335
        },
        {
          "name": "A#1",
          "midi": 34,
          "time": 60.013864883333326,
          "velocity": 0.889763779527559,
          "duration": 2.482637895833335
        },
        {
          "name": "A2",
          "midi": 45,
          "time": 62.505183331249995,
          "velocity": 0.7952755905511811,
          "duration": 2.4947906687499994
        },
        {
          "name": "A1",
          "midi": 33,
          "time": 62.505183331249995,
          "velocity": 0.7952755905511811,
          "duration": 2.4947906687499994
        },
        {
          "name": "D2",
          "midi": 38,
          "time": 65.01559899374999,
          "velocity": 1,
          "duration": 4.916664699999998
        },
        {
          "name": "D1",
          "midi": 26,
          "time": 65.01559899374999,
          "velocity": 1,
          "duration": 4.916664699999998
        },
        {
          "name": "D2",
          "midi": 38,
          "time": 70.01212477291665,
          "velocity": 1,
          "duration": 2.477429564583332
        },
        {
          "name": "D1",
          "midi": 26,
          "time": 70.01212477291665,
          "velocity": 1,
          "duration": 2.477429564583332
        },
        {
          "name": "C2",
          "midi": 36,
          "time": 72.51212377291665,
          "velocity": 0.8503937007874016,
          "duration": 2.4739573437500013
        },
        {
          "name": "C1",
          "midi": 24,
          "time": 72.51212377291665,
          "velocity": 0.8503937007874016,
          "duration": 2.4739573437500013
        },
        {
          "name": "F2",
          "midi": 41,
          "time": 75.01385888333333,
          "velocity": 0.937007874015748,
          "duration": 2.46701290208334
        },
        {
          "name": "F1",
          "midi": 29,
          "time": 75.01385888333333,
          "velocity": 0.937007874015748,
          "duration": 2.46701290208334
        },
        {
          "name": "C2",
          "midi": 36,
          "time": 77.51906621458333,
          "velocity": 0.7952755905511811,
          "duration": 2.4652767916666676
        },
        {
          "name": "C1",
          "midi": 24,
          "time": 77.51906621458333,
          "velocity": 0.7952755905511811,
          "duration": 2.4652767916666676
        },
        {
          "name": "A#2",
          "midi": 46,
          "time": 80.01385688333333,
          "velocity": 0.889763779527559,
          "duration": 2.482637895833335
        },
        {
          "name": "A#1",
          "midi": 34,
          "time": 80.01385688333333,
          "velocity": 0.889763779527559,
          "duration": 2.482637895833335
        },
        {
          "name": "A2",
          "midi": 45,
          "time": 82.50517533125,
          "velocity": 0.7952755905511811,
          "duration": 2.4947906687499994
        },
        {
          "name": "A1",
          "midi": 33,
          "time": 82.50517533125,
          "velocity": 0.7952755905511811,
          "duration": 2.4947906687499994
        },
        {
          "name": "A1",
          "midi": 33,
          "time": 84.999966,
          "velocity": 0.7952755905511811,
          "duration": 2.4739573437500013
        },
        {
          "name": "A2",
          "midi": 45,
          "time": 84.999966,
          "velocity": 0.7952755905511811,
          "duration": 2.4739573437500013
        },
        {
          "name": "D2",
          "midi": 38,
          "time": 87.51558999375,
          "velocity": 1,
          "duration": 4.916664699999998
        },
        {
          "name": "D1",
          "midi": 26,
          "time": 87.51558999375,
          "velocity": 1,
          "duration": 4.916664699999998
        },
        {
          "name": "D2",
          "midi": 38,
          "time": 92.51211577291666,
          "velocity": 1,
          "duration": 2.477429564583332
        },
        {
          "name": "D1",
          "midi": 26,
          "time": 92.51211577291666,
          "velocity": 1,
          "duration": 2.477429564583332
        },
        {
          "name": "C2",
          "midi": 36,
          "time": 95.01211477291666,
          "velocity": 0.8503937007874016,
          "duration": 2.4739573437500013
        },
        {
          "name": "C1",
          "midi": 24,
          "time": 95.01211477291666,
          "velocity": 0.8503937007874016,
          "duration": 2.4739573437500013
        },
        {
          "name": "F2",
          "midi": 41,
          "time": 97.51384988333334,
          "velocity": 0.937007874015748,
          "duration": 2.46701290208334
        },
        {
          "name": "F1",
          "midi": 29,
          "time": 97.51384988333334,
          "velocity": 0.937007874015748,
          "duration": 2.46701290208334
        },
        {
          "name": "C2",
          "midi": 36,
          "time": 100.01905721458334,
          "velocity": 0.7952755905511811,
          "duration": 2.4652767916666676
        },
        {
          "name": "C1",
          "midi": 24,
          "time": 100.01905721458334,
          "velocity": 0.7952755905511811,
          "duration": 2.4652767916666676
        },
        {
          "name": "A#2",
          "midi": 46,
          "time": 102.51384788333334,
          "velocity": 0.889763779527559,
          "duration": 2.482637895833335
        },
        {
          "name": "A#1",
          "midi": 34,
          "time": 102.51384788333334,
          "velocity": 0.889763779527559,
          "duration": 2.482637895833335
        },
        {
          "name": "A2",
          "midi": 45,
          "time": 105.00516633125001,
          "velocity": 0.7952755905511811,
          "duration": 4.968748012500001
        },
        {
          "name": "A1",
          "midi": 33,
          "time": 105.00516633125001,
          "velocity": 0.7952755905511811,
          "duration": 4.968748012500001
        },
        {
          "name": "D2",
          "midi": 38,
          "time": 110.02078932500001,
          "velocity": 0.984251968503937,
          "duration": 2.3940962645833395
        },
        {
          "name": "G1",
          "midi": 31,
          "time": 112.52426054583334,
          "velocity": 0.9448818897637795,
          "duration": 2.137151922916672
        },
        {
          "name": "D2",
          "midi": 38,
          "time": 115.01037066250001,
          "velocity": 0.9212598425196851,
          "duration": 2.166665800000004
        },
        {
          "name": "G1",
          "midi": 31,
          "time": 117.52078632500002,
          "velocity": 0.9606299212598425,
          "duration": 2.081596389583339
        },
        {
          "name": "D2",
          "midi": 38,
          "time": 120.05724364375003,
          "velocity": 1,
          "duration": 2.1128463770833292
        },
        {
          "name": "G1",
          "midi": 31,
          "time": 122.51383988333336,
          "velocity": 0.8976377952755905,
          "duration": 2.001735310416663
        },
        {
          "name": "D2",
          "midi": 38,
          "time": 124.99995000000003,
          "velocity": 0.8976377952755905,
          "duration": 1.7743048458333277
        },
        {
          "name": "A1",
          "midi": 33,
          "time": 127.52425454583336,
          "velocity": 0.984251968503937,
          "duration": 1.4861105166666704
        },
        {
          "name": "D2",
          "midi": 38,
          "time": 130.02078132500003,
          "velocity": 0.984251968503937,
          "duration": 2.3940962645833395
        },
        {
          "name": "G1",
          "midi": 31,
          "time": 132.52425254583338,
          "velocity": 0.9448818897637795,
          "duration": 2.137151922916672
        },
        {
          "name": "D2",
          "midi": 38,
          "time": 135.01036266250006,
          "velocity": 0.9212598425196851,
          "duration": 2.166665800000004
        },
        {
          "name": "G1",
          "midi": 31,
          "time": 137.52077832500007,
          "velocity": 0.9606299212598425,
          "duration": 2.081596389583325
        },
        {
          "name": "D2",
          "midi": 38,
          "time": 140.05723564375006,
          "velocity": 1,
          "duration": 2.1128463770833434
        },
        {
          "name": "G1",
          "midi": 31,
          "time": 142.5138318833334,
          "velocity": 0.8976377952755905,
          "duration": 2.0017353104166773
        },
        {
          "name": "D2",
          "midi": 38,
          "time": 144.9999420000001,
          "velocity": 0.8976377952755905,
          "duration": 1.774304845833342
        },
        {
          "name": "A1",
          "midi": 33,
          "time": 147.52424654583342,
          "velocity": 0.984251968503937,
          "duration": 1.4861105166666562
        },
        {
          "name": "D2",
          "midi": 38,
          "time": 150.01556499375008,
          "velocity": 1,
          "duration": 4.9166647000000125
        },
        {
          "name": "D1",
          "midi": 26,
          "time": 150.01556499375008,
          "velocity": 1,
          "duration": 4.9166647000000125
        },
        {
          "name": "D2",
          "midi": 38,
          "time": 155.01209077291676,
          "velocity": 1,
          "duration": 2.477429564583332
        },
        {
          "name": "D1",
          "midi": 26,
          "time": 155.01209077291676,
          "velocity": 1,
          "duration": 2.477429564583332
        },
        {
          "name": "C2",
          "midi": 36,
          "time": 157.51208977291677,
          "velocity": 0.8503937007874016,
          "duration": 2.473957343749987
        },
        {
          "name": "C1",
          "midi": 24,
          "time": 157.51208977291677,
          "velocity": 0.8503937007874016,
          "duration": 2.473957343749987
        },
        {
          "name": "F2",
          "midi": 41,
          "time": 160.01382488333343,
          "velocity": 0.937007874015748,
          "duration": 2.467012902083326
        },
        {
          "name": "F1",
          "midi": 29,
          "time": 160.01382488333343,
          "velocity": 0.937007874015748,
          "duration": 2.467012902083326
        },
        {
          "name": "C2",
          "midi": 36,
          "time": 162.51903221458343,
          "velocity": 0.7952755905511811,
          "duration": 2.4652767916666676
        },
        {
          "name": "C1",
          "midi": 24,
          "time": 162.51903221458343,
          "velocity": 0.7952755905511811,
          "duration": 2.4652767916666676
        },
        {
          "name": "A#2",
          "midi": 46,
          "time": 165.01382288333343,
          "velocity": 0.889763779527559,
          "duration": 2.482637895833335
        },
        {
          "name": "A#1",
          "midi": 34,
          "time": 165.01382288333343,
          "velocity": 0.889763779527559,
          "duration": 2.482637895833335
        },
        {
          "name": "A1",
          "midi": 33,
          "time": 167.4999330000001,
          "velocity": 0.7952755905511811,
          "duration": 2.473957343749987
        },
        {
          "name": "A2",
          "midi": 45,
          "time": 167.4999330000001,
          "velocity": 0.7952755905511811,
          "duration": 2.473957343749987
        },
        {
          "name": "D2",
          "midi": 38,
          "time": 170.0155569937501,
          "velocity": 1,
          "duration": 4.9166647000000125
        },
        {
          "name": "D1",
          "midi": 26,
          "time": 170.0155569937501,
          "velocity": 1,
          "duration": 4.9166647000000125
        },
        {
          "name": "D2",
          "midi": 38,
          "time": 175.01208277291678,
          "velocity": 1,
          "duration": 2.477429564583332
        },
        {
          "name": "D1",
          "midi": 26,
          "time": 175.01208277291678,
          "velocity": 1,
          "duration": 2.477429564583332
        },
        {
          "name": "C2",
          "midi": 36,
          "time": 177.5120817729168,
          "velocity": 0.8503937007874016,
          "duration": 2.473957343749987
        },
        {
          "name": "C1",
          "midi": 24,
          "time": 177.5120817729168,
          "velocity": 0.8503937007874016,
          "duration": 2.473957343749987
        },
        {
          "name": "F2",
          "midi": 41,
          "time": 180.01381688333345,
          "velocity": 0.937007874015748,
          "duration": 2.467012902083326
        },
        {
          "name": "F1",
          "midi": 29,
          "time": 180.01381688333345,
          "velocity": 0.937007874015748,
          "duration": 2.467012902083326
        },
        {
          "name": "C2",
          "midi": 36,
          "time": 182.51902421458345,
          "velocity": 0.7952755905511811,
          "duration": 2.4652767916666676
        },
        {
          "name": "C1",
          "midi": 24,
          "time": 182.51902421458345,
          "velocity": 0.7952755905511811,
          "duration": 2.4652767916666676
        },
        {
          "name": "A#2",
          "midi": 46,
          "time": 185.01381488333345,
          "velocity": 0.889763779527559,
          "duration": 2.482637895833335
        },
        {
          "name": "A#1",
          "midi": 34,
          "time": 185.01381488333345,
          "velocity": 0.889763779527559,
          "duration": 2.482637895833335
        },
        {
          "name": "A2",
          "midi": 45,
          "time": 187.5051333312501,
          "velocity": 0.7952755905511811,
          "duration": 4.9687480124999865
        },
        {
          "name": "A1",
          "midi": 33,
          "time": 187.5051333312501,
          "velocity": 0.7952755905511811,
          "duration": 4.9687480124999865
        },
        {
          "name": "D2",
          "midi": 38,
          "time": 192.5207563250001,
          "velocity": 0.984251968503937,
          "duration": 2.3940962645833395
        },
        {
          "name": "G1",
          "midi": 31,
          "time": 195.02422754583344,
          "velocity": 0.9448818897637795,
          "duration": 2.137151922916672
        },
        {
          "name": "D2",
          "midi": 38,
          "time": 197.51033766250012,
          "velocity": 0.9212598425196851,
          "duration": 2.166665800000004
        },
        {
          "name": "G1",
          "midi": 31,
          "time": 200.02075332500013,
          "velocity": 0.9606299212598425,
          "duration": 2.081596389583325
        },
        {
          "name": "D2",
          "midi": 38,
          "time": 202.55721064375012,
          "velocity": 1,
          "duration": 2.1128463770833434
        },
        {
          "name": "G1",
          "midi": 31,
          "time": 205.01380688333347,
          "velocity": 0.8976377952755905,
          "duration": 2.0017353104166773
        },
        {
          "name": "D2",
          "midi": 38,
          "time": 207.49991700000015,
          "velocity": 0.8976377952755905,
          "duration": 1.774304845833342
        },
        {
          "name": "A1",
          "midi": 33,
          "time": 210.02422154583348,
          "velocity": 0.984251968503937,
          "duration": 1.4861105166666562
        },
        {
          "name": "D2",
          "midi": 38,
          "time": 212.52074832500014,
          "velocity": 0.984251968503937,
          "duration": 2.3940962645833395
        },
        {
          "name": "G1",
          "midi": 31,
          "time": 215.0242195458335,
          "velocity": 0.9448818897637795,
          "duration": 2.137151922916672
        },
        {
          "name": "D2",
          "midi": 38,
          "time": 217.51032966250017,
          "velocity": 0.9212598425196851,
          "duration": 2.166665800000004
        },
        {
          "name": "G1",
          "midi": 31,
          "time": 220.02074532500018,
          "velocity": 0.9606299212598425,
          "duration": 2.081596389583325
        },
        {
          "name": "D2",
          "midi": 38,
          "time": 222.55720264375017,
          "velocity": 1,
          "duration": 2.1128463770833434
        },
        {
          "name": "G1",
          "midi": 31,
          "time": 225.01379888333352,
          "velocity": 0.8976377952755905,
          "duration": 2.0017353104166773
        },
        {
          "name": "D2",
          "midi": 38,
          "time": 227.4999090000002,
          "velocity": 0.8976377952755905,
          "duration": 1.774304845833342
        },
        {
          "name": "A1",
          "midi": 33,
          "time": 230.02421354583353,
          "velocity": 0.984251968503937,
          "duration": 1.4861105166666562
        },
        {
          "name": "D2",
          "midi": 38,
          "time": 232.5155319937502,
          "velocity": 1,
          "duration": 4.9166647000000125
        },
        {
          "name": "D1",
          "midi": 26,
          "time": 232.5155319937502,
          "velocity": 1,
          "duration": 4.9166647000000125
        },
        {
          "name": "D2",
          "midi": 38,
          "time": 237.51205777291688,
          "velocity": 1,
          "duration": 2.477429564583332
        },
        {
          "name": "D1",
          "midi": 26,
          "time": 237.51205777291688,
          "velocity": 1,
          "duration": 2.477429564583332
        },
        {
          "name": "C2",
          "midi": 36,
          "time": 240.01205677291688,
          "velocity": 0.8503937007874016,
          "duration": 2.473957343749987
        },
        {
          "name": "C1",
          "midi": 24,
          "time": 240.01205677291688,
          "velocity": 0.8503937007874016,
          "duration": 2.473957343749987
        },
        {
          "name": "F2",
          "midi": 41,
          "time": 242.51379188333354,
          "velocity": 0.937007874015748,
          "duration": 2.467012902083326
        },
        {
          "name": "F1",
          "midi": 29,
          "time": 242.51379188333354,
          "velocity": 0.937007874015748,
          "duration": 2.467012902083326
        },
        {
          "name": "C2",
          "midi": 36,
          "time": 245.01899921458354,
          "velocity": 0.7952755905511811,
          "duration": 2.4652767916666676
        },
        {
          "name": "C1",
          "midi": 24,
          "time": 245.01899921458354,
          "velocity": 0.7952755905511811,
          "duration": 2.4652767916666676
        },
        {
          "name": "A#2",
          "midi": 46,
          "time": 247.51378988333354,
          "velocity": 0.889763779527559,
          "duration": 2.482637895833335
        },
        {
          "name": "A#1",
          "midi": 34,
          "time": 247.51378988333354,
          "velocity": 0.889763779527559,
          "duration": 2.482637895833335
        },
        {
          "name": "A1",
          "midi": 33,
          "time": 249.99990000000022,
          "velocity": 0.7952755905511811,
          "duration": 2.473957343749987
        },
        {
          "name": "A2",
          "midi": 45,
          "time": 249.99990000000022,
          "velocity": 0.7952755905511811,
          "duration": 2.473957343749987
        },
        {
          "name": "D2",
          "midi": 38,
          "time": 252.5155239937502,
          "velocity": 1,
          "duration": 4.9166647000000125
        },
        {
          "name": "D1",
          "midi": 26,
          "time": 252.5155239937502,
          "velocity": 1,
          "duration": 4.9166647000000125
        },
        {
          "name": "D2",
          "midi": 38,
          "time": 257.5120497729169,
          "velocity": 1,
          "duration": 2.4774295645833604
        },
        {
          "name": "D1",
          "midi": 26,
          "time": 257.5120497729169,
          "velocity": 1,
          "duration": 2.4774295645833604
        },
        {
          "name": "C2",
          "midi": 36,
          "time": 260.0120487729169,
          "velocity": 0.8503937007874016,
          "duration": 2.473957343749987
        },
        {
          "name": "C1",
          "midi": 24,
          "time": 260.0120487729169,
          "velocity": 0.8503937007874016,
          "duration": 2.473957343749987
        },
        {
          "name": "F2",
          "midi": 41,
          "time": 262.51378388333353,
          "velocity": 0.937007874015748,
          "duration": 2.467012902083354
        },
        {
          "name": "F1",
          "midi": 29,
          "time": 262.51378388333353,
          "velocity": 0.937007874015748,
          "duration": 2.467012902083354
        },
        {
          "name": "C2",
          "midi": 36,
          "time": 265.01899121458354,
          "velocity": 0.7952755905511811,
          "duration": 2.4652767916666676
        },
        {
          "name": "C1",
          "midi": 24,
          "time": 265.01899121458354,
          "velocity": 0.7952755905511811,
          "duration": 2.4652767916666676
        },
        {
          "name": "A#2",
          "midi": 46,
          "time": 267.51378188333354,
          "velocity": 0.889763779527559,
          "duration": 2.4826378958333066
        },
        {
          "name": "A#1",
          "midi": 34,
          "time": 267.51378188333354,
          "velocity": 0.889763779527559,
          "duration": 2.4826378958333066
        },
        {
          "name": "A2",
          "midi": 45,
          "time": 270.00510033125016,
          "velocity": 0.7952755905511811,
          "duration": 2.4947906687499994
        },
        {
          "name": "A1",
          "midi": 33,
          "time": 270.00510033125016,
          "velocity": 0.7952755905511811,
          "duration": 2.4947906687499994
        },
        {
          "name": "A#2",
          "midi": 46,
          "time": 272.5137798833335,
          "velocity": 0.889763779527559,
          "duration": 2.4826378958333066
        },
        {
          "name": "A#1",
          "midi": 34,
          "time": 272.5137798833335,
          "velocity": 0.889763779527559,
          "duration": 2.4826378958333066
        },
        {
          "name": "A2",
          "midi": 45,
          "time": 275.0050983312501,
          "velocity": 0.7952755905511811,
          "duration": 2.4947906687499994
        },
        {
          "name": "A1",
          "midi": 33,
          "time": 275.0050983312501,
          "velocity": 0.7952755905511811,
          "duration": 2.4947906687499994
        },
        {
          "name": "A#2",
          "midi": 46,
          "time": 277.51377788333343,
          "velocity": 0.889763779527559,
          "duration": 2.4826378958333066
        },
        {
          "name": "A#1",
          "midi": 34,
          "time": 277.51377788333343,
          "velocity": 0.889763779527559,
          "duration": 2.4826378958333066
        },
        {
          "name": "A2",
          "midi": 45,
          "time": 280.00509633125006,
          "velocity": 0.7952755905511811,
          "duration": 2.4947906687499994
        },
        {
          "name": "A1",
          "midi": 33,
          "time": 280.00509633125006,
          "velocity": 0.7952755905511811,
          "duration": 2.4947906687499994
        },
        {
          "name": "D1",
          "midi": 26,
          "time": 282.52072032500007,
          "velocity": 0.8188976377952756,
          "duration": 4.598956493749995
        },
        {
          "name": "D2",
          "midi": 38,
          "time": 282.5294008770834,
          "velocity": 0.7401574803149606,
          "duration": 4.970484122916673
        },
        {
          "name": "D2",
          "midi": 38,
          "time": 287.49988500000006,
          "velocity": 0.7244094488188977,
          "duration": 4.954859129166778
        },
        {
          "name": "D1",
          "midi": 26,
          "time": 287.49988500000006,
          "velocity": 0.7401574803149606,
          "duration": 4.901039706250117
        }
      ],
      "controlChanges": {
        "6": [
          {
            "number": 6,
            "time": 1.050346802083333,
            "value": 0.015748031496062992
          },
          {
            "number": 6,
            "time": 1.0590273541666664,
            "value": 0.5039370078740157
          },
          {
            "number": 6,
            "time": 1.0677079062499997,
            "value": 0.5039370078740157
          },
          {
            "number": 6,
            "time": 1.076388458333333,
            "value": 0.5039370078740157
          },
          {
            "number": 6,
            "time": 1.0850690104166663,
            "value": 0.5039370078740157
          },
          {
            "number": 6,
            "time": 1.0937495624999996,
            "value": 0.5039370078740157
          },
          {
            "number": 6,
            "time": 1.1024301145833328,
            "value": 0.5039370078740157
          },
          {
            "number": 6,
            "time": 1.1111106666666661,
            "value": 0.8188976377952756
          },
          {
            "number": 6,
            "time": 1.1197912187499994,
            "value": 0.5826771653543307
          }
        ],
        "7": [
          {
            "number": 7,
            "time": 1.01562459375,
            "value": 0.7874015748031497
          },
          {
            "number": 7,
            "time": 149.99994000000007,
            "value": 0.8818897637795275
          },
          {
            "number": 7,
            "time": 232.49990700000018,
            "value": 0.8818897637795275
          },
          {
            "number": 7,
            "time": 286.7741908458334,
            "value": 0.905511811023622
          },
          {
            "number": 7,
            "time": 287.10926015625006,
            "value": 0.8818897637795275
          },
          {
            "number": 7,
            "time": 287.3783572708334,
            "value": 0.8661417322834646
          },
          {
            "number": 7,
            "time": 287.8887737333334,
            "value": 0.84251968503937
          },
          {
            "number": 7,
            "time": 288.03113478750004,
            "value": 0.8267716535433071
          },
          {
            "number": 7,
            "time": 288.23773192708336,
            "value": 0.8031496062992126
          },
          {
            "number": 7,
            "time": 288.34884299375005,
            "value": 0.7874015748031497
          },
          {
            "number": 7,
            "time": 288.5085651520834,
            "value": 0.7637795275590551
          },
          {
            "number": 7,
            "time": 288.63530121250005,
            "value": 0.7480314960629921
          },
          {
            "number": 7,
            "time": 288.73078728541674,
            "value": 0.7244094488188977
          },
          {
            "number": 7,
            "time": 288.8575233458334,
            "value": 0.7007874015748031
          },
          {
            "number": 7,
            "time": 288.95300941875007,
            "value": 0.6850393700787402
          },
          {
            "number": 7,
            "time": 289.06412048541677,
            "value": 0.6614173228346457
          },
          {
            "number": 7,
            "time": 289.15960655833345,
            "value": 0.6456692913385826
          },
          {
            "number": 7,
            "time": 289.25509263125014,
            "value": 0.6220472440944882
          },
          {
            "number": 7,
            "time": 289.3505787041668,
            "value": 0.6062992125984252
          },
          {
            "number": 7,
            "time": 289.47905087500015,
            "value": 0.5826771653543307
          },
          {
            "number": 7,
            "time": 289.57280083750015,
            "value": 0.5669291338582677
          },
          {
            "number": 7,
            "time": 289.6995368979168,
            "value": 0.5433070866141733
          },
          {
            "number": 7,
            "time": 289.84363406250014,
            "value": 0.5275590551181102
          },
          {
            "number": 7,
            "time": 289.93738402500014,
            "value": 0.5039370078740157
          },
          {
            "number": 7,
            "time": 290.01898121458345,
            "value": 0.4881889763779528
          },
          {
            "number": 7,
            "time": 290.1457172750001,
            "value": 0.4645669291338583
          },
          {
            "number": 7,
            "time": 290.2412033479168,
            "value": 0.44881889763779526
          },
          {
            "number": 7,
            "time": 290.3696755187501,
            "value": 0.4251968503937008
          },
          {
            "number": 7,
            "time": 290.5276615666668,
            "value": 0.4094488188976378
          },
          {
            "number": 7,
            "time": 290.6387726333335,
            "value": 0.3858267716535433
          },
          {
            "number": 7,
            "time": 290.71689760208346,
            "value": 0.3700787401574803
          },
          {
            "number": 7,
            "time": 290.79675868125014,
            "value": 0.3464566929133858
          },
          {
            "number": 7,
            "time": 290.8609947666668,
            "value": 0.3228346456692913
          },
          {
            "number": 7,
            "time": 290.9252308520835,
            "value": 0.30708661417322836
          },
          {
            "number": 7,
            "time": 290.98773082708345,
            "value": 0.28346456692913385
          },
          {
            "number": 7,
            "time": 291.0519669125001,
            "value": 0.25984251968503935
          },
          {
            "number": 7,
            "time": 291.1630779791668,
            "value": 0.2440944881889764
          },
          {
            "number": 7,
            "time": 291.2273140645835,
            "value": 0.2204724409448819
          },
          {
            "number": 7,
            "time": 291.28981403958346,
            "value": 0.2047244094488189
          },
          {
            "number": 7,
            "time": 291.40092510625016,
            "value": 0.18110236220472442
          },
          {
            "number": 7,
            "time": 291.4651611916668,
            "value": 0.16535433070866143
          },
          {
            "number": 7,
            "time": 291.5137722833335,
            "value": 0.14173228346456693
          },
          {
            "number": 7,
            "time": 291.5606472645835,
            "value": 0.11023622047244094
          },
          {
            "number": 7,
            "time": 291.60752224583354,
            "value": 0.08661417322834646
          },
          {
            "number": 7,
            "time": 291.6561333375002,
            "value": 0.06299212598425197
          },
          {
            "number": 7,
            "time": 291.7186333125002,
            "value": 0.03937007874015748
          },
          {
            "number": 7,
            "time": 291.8158554958335,
            "value": 0.023622047244094488
          },
          {
            "number": 7,
            "time": 292.06932761666684,
            "value": 0
          }
        ],
        "10": [
          {
            "number": 10,
            "time": 1.0243051458333332,
            "value": 0.5039370078740157
          }
        ],
        "32": [
          {
            "number": 32,
            "time": 0.9982634895833333,
            "value": 1
          }
        ],
        "91": [
          {
            "number": 91,
            "time": 1.0329856979166665,
            "value": 0.31496062992125984
          }
        ],
        "93": [
          {
            "number": 93,
            "time": 1.0416662499999998,
            "value": 0
          }
        ],
        "98": [
          {
            "number": 98,
            "time": 1.0590273541666664,
            "value": 0.06299212598425197
          },
          {
            "number": 98,
            "time": 1.0677079062499997,
            "value": 0.07086614173228346
          },
          {
            "number": 98,
            "time": 1.076388458333333,
            "value": 0.07874015748031496
          },
          {
            "number": 98,
            "time": 1.0850690104166663,
            "value": 0.25196850393700787
          },
          {
            "number": 98,
            "time": 1.0937495624999996,
            "value": 0.25984251968503935
          },
          {
            "number": 98,
            "time": 1.1024301145833328,
            "value": 0.7795275590551181
          },
          {
            "number": 98,
            "time": 1.1111106666666661,
            "value": 0.7874015748031497
          },
          {
            "number": 98,
            "time": 1.1197912187499994,
            "value": 0.8031496062992126
          }
        ],
        "99": [
          {
            "number": 99,
            "time": 1.0590273541666664,
            "value": 0.007874015748031496
          },
          {
            "number": 99,
            "time": 1.0677079062499997,
            "value": 0.007874015748031496
          },
          {
            "number": 99,
            "time": 1.076388458333333,
            "value": 0.007874015748031496
          },
          {
            "number": 99,
            "time": 1.0850690104166663,
            "value": 0.007874015748031496
          },
          {
            "number": 99,
            "time": 1.0937495624999996,
            "value": 0.007874015748031496
          },
          {
            "number": 99,
            "time": 1.1024301145833328,
            "value": 0.007874015748031496
          },
          {
            "number": 99,
            "time": 1.1111106666666661,
            "value": 0.007874015748031496
          },
          {
            "number": 99,
            "time": 1.1197912187499994,
            "value": 0.007874015748031496
          }
        ],
        "100": [
          {
            "number": 100,
            "time": 1.050346802083333,
            "value": 0
          }
        ],
        "101": [
          {
            "number": 101,
            "time": 1.050346802083333,
            "value": 0
          }
        ]
      },
      "id": 8,
      "name": "Santur",
      "instrumentNumber": 15,
      "instrument": "dulcimer",
      "instrumentFamily": "chromatic percussion",
      "channelNumber": 7,
      "isPercussion": false
    },
    {
      "startTime": 106.25169361041665,
      "duration": 292.46863301250266,
      "length": 912,
      "notes": [
        {
          "name": "A4",
          "midi": 69,
          "time": 106.25169361041665,
          "velocity": 1,
          "duration": 0.07118052708332812
        },
        {
          "name": "A4",
          "midi": 69,
          "time": 106.35759634583331,
          "velocity": 0.7401574803149606,
          "duration": 0.07291663750000055
        },
        {
          "name": "A4",
          "midi": 69,
          "time": 106.46349908124998,
          "velocity": 0.84251968503937,
          "duration": 0.07291663750000055
        },
        {
          "name": "A4",
          "midi": 69,
          "time": 106.56766570624998,
          "velocity": 0.7716535433070866,
          "duration": 0.06770830624999746
        },
        {
          "name": "A4",
          "midi": 69,
          "time": 106.67356844166665,
          "velocity": 1,
          "duration": 0.07118052708332812
        },
        {
          "name": "A4",
          "midi": 69,
          "time": 106.77599895624998,
          "velocity": 0.7322834645669292,
          "duration": 0.0694444166666699
        },
        {
          "name": "A4",
          "midi": 69,
          "time": 106.87842947083332,
          "velocity": 0.84251968503937,
          "duration": 0.07291663750000055
        },
        {
          "name": "A4",
          "midi": 69,
          "time": 106.98259609583333,
          "velocity": 0.8661417322834646,
          "duration": 0.07118052708334233
        },
        {
          "name": "A4",
          "midi": 69,
          "time": 107.08849883125,
          "velocity": 1,
          "duration": 0.07291663750000055
        },
        {
          "name": "A4",
          "midi": 69,
          "time": 107.19092934583334,
          "velocity": 0.8661417322834646,
          "duration": 0.07118052708334233
        },
        {
          "name": "A4",
          "midi": 69,
          "time": 107.29335986041669,
          "velocity": 0.8661417322834646,
          "duration": 0.07118052708332812
        },
        {
          "name": "A4",
          "midi": 69,
          "time": 107.39752648541668,
          "velocity": 0.8818897637795275,
          "duration": 0.07465274791667298
        },
        {
          "name": "A4",
          "midi": 69,
          "time": 107.50169311041668,
          "velocity": 1,
          "duration": 0.06597219583333924
        },
        {
          "name": "A4",
          "midi": 69,
          "time": 107.60585973541669,
          "velocity": 0.8267716535433071,
          "duration": 0.0694444166666699
        },
        {
          "name": "A4",
          "midi": 69,
          "time": 107.71002636041669,
          "velocity": 0.84251968503937,
          "duration": 0.06770830624999746
        },
        {
          "name": "A4",
          "midi": 69,
          "time": 107.81419298541668,
          "velocity": 0.8031496062992126,
          "duration": 0.06770830624999746
        },
        {
          "name": "A4",
          "midi": 69,
          "time": 107.91662350000001,
          "velocity": 1,
          "duration": 0.0694444166666699
        },
        {
          "name": "A4",
          "midi": 69,
          "time": 108.02079012500002,
          "velocity": 0.8267716535433071,
          "duration": 0.0694444166666699
        },
        {
          "name": "A4",
          "midi": 69,
          "time": 108.12322063958335,
          "velocity": 0.84251968503937,
          "duration": 0.07118052708332812
        },
        {
          "name": "A4",
          "midi": 69,
          "time": 108.22912337500001,
          "velocity": 0.8031496062992126,
          "duration": 0.0694444166666699
        },
        {
          "name": "A4",
          "midi": 69,
          "time": 108.33155388958335,
          "velocity": 1,
          "duration": 0.07118052708332812
        },
        {
          "name": "A4",
          "midi": 69,
          "time": 108.43919273541667,
          "velocity": 0.8267716535433071,
          "duration": 0.0694444166666699
        },
        {
          "name": "A4",
          "midi": 69,
          "time": 108.54335936041667,
          "velocity": 0.8661417322834646,
          "duration": 0.0694444166666699
        },
        {
          "name": "A4",
          "midi": 69,
          "time": 108.64926209583334,
          "velocity": 0.8267716535433071,
          "duration": 0.0694444166666699
        },
        {
          "name": "A4",
          "midi": 69,
          "time": 108.75516483125,
          "velocity": 1,
          "duration": 0.0694444166666699
        },
        {
          "name": "A4",
          "midi": 69,
          "time": 108.85933145625,
          "velocity": 0.8503937007874016,
          "duration": 0.0694444166666699
        },
        {
          "name": "A4",
          "midi": 69,
          "time": 108.96349808125001,
          "velocity": 0.8661417322834646,
          "duration": 0.06770830624999746
        },
        {
          "name": "A4",
          "midi": 69,
          "time": 109.06766470625,
          "velocity": 0.84251968503937,
          "duration": 0.06770830624999746
        },
        {
          "name": "A4",
          "midi": 69,
          "time": 109.17183133124999,
          "velocity": 1,
          "duration": 0.07118052708332812
        },
        {
          "name": "A4",
          "midi": 69,
          "time": 109.27599795624998,
          "velocity": 0.84251968503937,
          "duration": 0.0694444166666699
        },
        {
          "name": "A4",
          "midi": 69,
          "time": 109.37842847083331,
          "velocity": 0.8661417322834646,
          "duration": 0.0694444166666699
        },
        {
          "name": "A4",
          "midi": 69,
          "time": 109.48259509583332,
          "velocity": 0.8503937007874016,
          "duration": 0.06770830624999746
        },
        {
          "name": "A4",
          "midi": 69,
          "time": 109.58502561041665,
          "velocity": 1,
          "duration": 0.07118052708332812
        },
        {
          "name": "A4",
          "midi": 69,
          "time": 109.69092834583331,
          "velocity": 0.8818897637795275,
          "duration": 0.0694444166666699
        },
        {
          "name": "A4",
          "midi": 69,
          "time": 109.79509497083332,
          "velocity": 0.8661417322834646,
          "duration": 0.0694444166666699
        },
        {
          "name": "A4",
          "midi": 69,
          "time": 109.89752548541665,
          "velocity": 0.8661417322834646,
          "duration": 0.07118052708332812
        },
        {
          "name": "A4",
          "midi": 69,
          "time": 110.00169211041666,
          "velocity": 1,
          "duration": 0.06597219583333924
        },
        {
          "name": "A4",
          "midi": 69,
          "time": 110.10585873541666,
          "velocity": 0.8267716535433071,
          "duration": 0.0694444166666699
        },
        {
          "name": "A4",
          "midi": 69,
          "time": 110.21002536041667,
          "velocity": 0.84251968503937,
          "duration": 0.06770830624999746
        },
        {
          "name": "A4",
          "midi": 69,
          "time": 110.31419198541666,
          "velocity": 0.8031496062992126,
          "duration": 0.06770830624999746
        },
        {
          "name": "A4",
          "midi": 69,
          "time": 110.41662249999999,
          "velocity": 1,
          "duration": 0.0694444166666699
        },
        {
          "name": "A4",
          "midi": 69,
          "time": 110.520789125,
          "velocity": 0.8267716535433071,
          "duration": 0.0694444166666699
        },
        {
          "name": "A4",
          "midi": 69,
          "time": 110.62321963958333,
          "velocity": 0.84251968503937,
          "duration": 0.07118052708332812
        },
        {
          "name": "A4",
          "midi": 69,
          "time": 110.72912237499999,
          "velocity": 0.8031496062992126,
          "duration": 0.0694444166666699
        },
        {
          "name": "A4",
          "midi": 69,
          "time": 110.83155288958332,
          "velocity": 1,
          "duration": 0.07118052708332812
        },
        {
          "name": "A4",
          "midi": 69,
          "time": 110.93919173541664,
          "velocity": 0.8267716535433071,
          "duration": 0.0694444166666699
        },
        {
          "name": "A4",
          "midi": 69,
          "time": 111.04335836041665,
          "velocity": 0.8661417322834646,
          "duration": 0.0694444166666699
        },
        {
          "name": "A4",
          "midi": 69,
          "time": 111.14926109583331,
          "velocity": 0.8267716535433071,
          "duration": 0.0694444166666699
        },
        {
          "name": "A4",
          "midi": 69,
          "time": 111.25516383124997,
          "velocity": 1,
          "duration": 0.0694444166666699
        },
        {
          "name": "A4",
          "midi": 69,
          "time": 111.35933045624998,
          "velocity": 0.8503937007874016,
          "duration": 0.0694444166666699
        },
        {
          "name": "A4",
          "midi": 69,
          "time": 111.46349708124998,
          "velocity": 0.8661417322834646,
          "duration": 0.06770830624999746
        },
        {
          "name": "A4",
          "midi": 69,
          "time": 111.56766370624997,
          "velocity": 0.84251968503937,
          "duration": 0.06770830624999746
        },
        {
          "name": "A4",
          "midi": 69,
          "time": 111.67183033124996,
          "velocity": 1,
          "duration": 0.07118052708332812
        },
        {
          "name": "A4",
          "midi": 69,
          "time": 111.77599695624995,
          "velocity": 0.84251968503937,
          "duration": 0.0694444166666699
        },
        {
          "name": "A4",
          "midi": 69,
          "time": 111.87842747083329,
          "velocity": 0.8661417322834646,
          "duration": 0.0694444166666699
        },
        {
          "name": "A4",
          "midi": 69,
          "time": 111.98259409583329,
          "velocity": 0.8503937007874016,
          "duration": 0.06770830624999746
        },
        {
          "name": "A4",
          "midi": 69,
          "time": 112.08502461041662,
          "velocity": 1,
          "duration": 0.07118052708332812
        },
        {
          "name": "A4",
          "midi": 69,
          "time": 112.19092734583329,
          "velocity": 0.8818897637795275,
          "duration": 0.0694444166666699
        },
        {
          "name": "A4",
          "midi": 69,
          "time": 112.29509397083329,
          "velocity": 0.8661417322834646,
          "duration": 0.0694444166666699
        },
        {
          "name": "A4",
          "midi": 69,
          "time": 112.39752448541662,
          "velocity": 0.8661417322834646,
          "duration": 0.07118052708332812
        },
        {
          "name": "A4",
          "midi": 69,
          "time": 112.50169111041662,
          "velocity": 1,
          "duration": 0.06597219583333924
        },
        {
          "name": "A4",
          "midi": 69,
          "time": 112.60585773541662,
          "velocity": 0.8267716535433071,
          "duration": 0.0694444166666699
        },
        {
          "name": "A4",
          "midi": 69,
          "time": 112.71002436041663,
          "velocity": 0.84251968503937,
          "duration": 0.06770830624999746
        },
        {
          "name": "A4",
          "midi": 69,
          "time": 112.81419098541662,
          "velocity": 0.8031496062992126,
          "duration": 0.06770830624999746
        },
        {
          "name": "A4",
          "midi": 69,
          "time": 112.91662149999995,
          "velocity": 1,
          "duration": 0.0694444166666699
        },
        {
          "name": "A4",
          "midi": 69,
          "time": 113.02078812499995,
          "velocity": 0.8267716535433071,
          "duration": 0.0694444166666699
        },
        {
          "name": "A4",
          "midi": 69,
          "time": 113.12321863958329,
          "velocity": 0.84251968503937,
          "duration": 0.07118052708332812
        },
        {
          "name": "A4",
          "midi": 69,
          "time": 113.22912137499995,
          "velocity": 0.8031496062992126,
          "duration": 0.0694444166666699
        },
        {
          "name": "A4",
          "midi": 69,
          "time": 113.33155188958328,
          "velocity": 1,
          "duration": 0.07118052708332812
        },
        {
          "name": "A4",
          "midi": 69,
          "time": 113.4391907354166,
          "velocity": 0.8267716535433071,
          "duration": 0.0694444166666699
        },
        {
          "name": "A4",
          "midi": 69,
          "time": 113.5433573604166,
          "velocity": 0.8661417322834646,
          "duration": 0.0694444166666699
        },
        {
          "name": "A4",
          "midi": 69,
          "time": 113.64926009583327,
          "velocity": 0.8267716535433071,
          "duration": 0.0694444166666699
        },
        {
          "name": "A4",
          "midi": 69,
          "time": 113.75516283124993,
          "velocity": 1,
          "duration": 0.0694444166666699
        },
        {
          "name": "A4",
          "midi": 69,
          "time": 113.85932945624994,
          "velocity": 0.8503937007874016,
          "duration": 0.0694444166666699
        },
        {
          "name": "A4",
          "midi": 69,
          "time": 113.96349608124994,
          "velocity": 0.8661417322834646,
          "duration": 0.06770830624999746
        },
        {
          "name": "A4",
          "midi": 69,
          "time": 114.06766270624993,
          "velocity": 0.84251968503937,
          "duration": 0.06770830624999746
        },
        {
          "name": "A4",
          "midi": 69,
          "time": 114.17182933124992,
          "velocity": 1,
          "duration": 0.07118052708332812
        },
        {
          "name": "A4",
          "midi": 69,
          "time": 114.27599595624991,
          "velocity": 0.84251968503937,
          "duration": 0.0694444166666699
        },
        {
          "name": "A4",
          "midi": 69,
          "time": 114.37842647083325,
          "velocity": 0.8661417322834646,
          "duration": 0.0694444166666699
        },
        {
          "name": "A4",
          "midi": 69,
          "time": 114.48259309583325,
          "velocity": 0.8503937007874016,
          "duration": 0.06770830624999746
        },
        {
          "name": "A4",
          "midi": 69,
          "time": 114.58502361041658,
          "velocity": 1,
          "duration": 0.07118052708332812
        },
        {
          "name": "A4",
          "midi": 69,
          "time": 114.69092634583325,
          "velocity": 0.8818897637795275,
          "duration": 0.0694444166666699
        },
        {
          "name": "A4",
          "midi": 69,
          "time": 114.79509297083325,
          "velocity": 0.8661417322834646,
          "duration": 0.0694444166666699
        },
        {
          "name": "A4",
          "midi": 69,
          "time": 114.89752348541658,
          "velocity": 0.8661417322834646,
          "duration": 0.07118052708332812
        },
        {
          "name": "A4",
          "midi": 69,
          "time": 115.00169011041658,
          "velocity": 1,
          "duration": 0.06597219583333924
        },
        {
          "name": "A4",
          "midi": 69,
          "time": 115.10585673541658,
          "velocity": 0.8267716535433071,
          "duration": 0.0694444166666699
        },
        {
          "name": "A4",
          "midi": 69,
          "time": 115.21002336041659,
          "velocity": 0.84251968503937,
          "duration": 0.06770830624999746
        },
        {
          "name": "A4",
          "midi": 69,
          "time": 115.31418998541658,
          "velocity": 0.8031496062992126,
          "duration": 0.06770830624999746
        },
        {
          "name": "A4",
          "midi": 69,
          "time": 115.41662049999991,
          "velocity": 1,
          "duration": 0.0694444166666699
        },
        {
          "name": "A4",
          "midi": 69,
          "time": 115.52078712499991,
          "velocity": 0.8267716535433071,
          "duration": 0.0694444166666699
        },
        {
          "name": "A4",
          "midi": 69,
          "time": 115.62321763958325,
          "velocity": 0.84251968503937,
          "duration": 0.07118052708332812
        },
        {
          "name": "A4",
          "midi": 69,
          "time": 115.72912037499991,
          "velocity": 0.8031496062992126,
          "duration": 0.0694444166666699
        },
        {
          "name": "A4",
          "midi": 69,
          "time": 115.83155088958324,
          "velocity": 1,
          "duration": 0.07118052708332812
        },
        {
          "name": "A4",
          "midi": 69,
          "time": 115.93918973541656,
          "velocity": 0.8267716535433071,
          "duration": 0.0694444166666699
        },
        {
          "name": "A4",
          "midi": 69,
          "time": 116.04335636041657,
          "velocity": 0.8661417322834646,
          "duration": 0.0694444166666699
        },
        {
          "name": "A4",
          "midi": 69,
          "time": 116.14925909583323,
          "velocity": 0.8267716535433071,
          "duration": 0.0694444166666699
        },
        {
          "name": "A4",
          "midi": 69,
          "time": 116.2551618312499,
          "velocity": 1,
          "duration": 0.0694444166666699
        },
        {
          "name": "A4",
          "midi": 69,
          "time": 116.3593284562499,
          "velocity": 0.8503937007874016,
          "duration": 0.0694444166666699
        },
        {
          "name": "A4",
          "midi": 69,
          "time": 116.4634950812499,
          "velocity": 0.8661417322834646,
          "duration": 0.06770830624999746
        },
        {
          "name": "A4",
          "midi": 69,
          "time": 116.5676617062499,
          "velocity": 0.84251968503937,
          "duration": 0.06770830624999746
        },
        {
          "name": "A4",
          "midi": 69,
          "time": 116.67182833124988,
          "velocity": 1,
          "duration": 0.07118052708332812
        },
        {
          "name": "A4",
          "midi": 69,
          "time": 116.77599495624987,
          "velocity": 0.84251968503937,
          "duration": 0.0694444166666699
        },
        {
          "name": "A4",
          "midi": 69,
          "time": 116.8784254708332,
          "velocity": 0.8661417322834646,
          "duration": 0.0694444166666699
        },
        {
          "name": "A4",
          "midi": 69,
          "time": 116.98259209583321,
          "velocity": 0.8503937007874016,
          "duration": 0.06770830624999746
        },
        {
          "name": "A4",
          "midi": 69,
          "time": 117.08502261041654,
          "velocity": 1,
          "duration": 0.07118052708332812
        },
        {
          "name": "A4",
          "midi": 69,
          "time": 117.19092534583321,
          "velocity": 0.8818897637795275,
          "duration": 0.0694444166666699
        },
        {
          "name": "A4",
          "midi": 69,
          "time": 117.29509197083321,
          "velocity": 0.8661417322834646,
          "duration": 0.0694444166666699
        },
        {
          "name": "A4",
          "midi": 69,
          "time": 117.39752248541654,
          "velocity": 0.8661417322834646,
          "duration": 0.07118052708332812
        },
        {
          "name": "A4",
          "midi": 69,
          "time": 117.50168911041654,
          "velocity": 1,
          "duration": 0.06597219583333924
        },
        {
          "name": "A4",
          "midi": 69,
          "time": 117.60585573541654,
          "velocity": 0.8267716535433071,
          "duration": 0.0694444166666699
        },
        {
          "name": "A4",
          "midi": 69,
          "time": 117.71002236041654,
          "velocity": 0.84251968503937,
          "duration": 0.06770830624999746
        },
        {
          "name": "A4",
          "midi": 69,
          "time": 117.81418898541654,
          "velocity": 0.8031496062992126,
          "duration": 0.06770830624999746
        },
        {
          "name": "A4",
          "midi": 69,
          "time": 117.91661949999987,
          "velocity": 1,
          "duration": 0.0694444166666699
        },
        {
          "name": "A4",
          "midi": 69,
          "time": 118.02078612499987,
          "velocity": 0.8267716535433071,
          "duration": 0.0694444166666699
        },
        {
          "name": "A4",
          "midi": 69,
          "time": 118.1232166395832,
          "velocity": 0.84251968503937,
          "duration": 0.07118052708332812
        },
        {
          "name": "A4",
          "midi": 69,
          "time": 118.22911937499987,
          "velocity": 0.8031496062992126,
          "duration": 0.0694444166666699
        },
        {
          "name": "A4",
          "midi": 69,
          "time": 118.3315498895832,
          "velocity": 1,
          "duration": 0.07118052708332812
        },
        {
          "name": "A4",
          "midi": 69,
          "time": 118.43918873541652,
          "velocity": 0.8267716535433071,
          "duration": 0.0694444166666699
        },
        {
          "name": "A4",
          "midi": 69,
          "time": 118.54335536041653,
          "velocity": 0.8661417322834646,
          "duration": 0.0694444166666699
        },
        {
          "name": "A4",
          "midi": 69,
          "time": 118.64925809583319,
          "velocity": 0.8267716535433071,
          "duration": 0.0694444166666699
        },
        {
          "name": "A4",
          "midi": 69,
          "time": 118.75516083124985,
          "velocity": 1,
          "duration": 0.0694444166666699
        },
        {
          "name": "A4",
          "midi": 69,
          "time": 118.85932745624986,
          "velocity": 0.8503937007874016,
          "duration": 0.0694444166666699
        },
        {
          "name": "A4",
          "midi": 69,
          "time": 118.96349408124986,
          "velocity": 0.8661417322834646,
          "duration": 0.06770830624999746
        },
        {
          "name": "A4",
          "midi": 69,
          "time": 119.06766070624985,
          "velocity": 0.84251968503937,
          "duration": 0.06770830624999746
        },
        {
          "name": "A4",
          "midi": 69,
          "time": 119.17182733124984,
          "velocity": 1,
          "duration": 0.07118052708332812
        },
        {
          "name": "A4",
          "midi": 69,
          "time": 119.27599395624983,
          "velocity": 0.84251968503937,
          "duration": 0.0694444166666699
        },
        {
          "name": "A4",
          "midi": 69,
          "time": 119.37842447083317,
          "velocity": 0.8661417322834646,
          "duration": 0.0694444166666699
        },
        {
          "name": "A4",
          "midi": 69,
          "time": 119.48259109583317,
          "velocity": 0.8503937007874016,
          "duration": 0.06770830624999746
        },
        {
          "name": "A4",
          "midi": 69,
          "time": 119.5850216104165,
          "velocity": 1,
          "duration": 0.07118052708332812
        },
        {
          "name": "A4",
          "midi": 69,
          "time": 119.69092434583317,
          "velocity": 0.8818897637795275,
          "duration": 0.0694444166666699
        },
        {
          "name": "A4",
          "midi": 69,
          "time": 119.79509097083317,
          "velocity": 0.8661417322834646,
          "duration": 0.0694444166666699
        },
        {
          "name": "A4",
          "midi": 69,
          "time": 119.8975214854165,
          "velocity": 0.8661417322834646,
          "duration": 0.07118052708332812
        },
        {
          "name": "A4",
          "midi": 69,
          "time": 120.0016881104165,
          "velocity": 1,
          "duration": 0.06597219583333924
        },
        {
          "name": "A4",
          "midi": 69,
          "time": 120.1058547354165,
          "velocity": 0.8267716535433071,
          "duration": 0.0694444166666699
        },
        {
          "name": "A4",
          "midi": 69,
          "time": 120.2100213604165,
          "velocity": 0.84251968503937,
          "duration": 0.06770830624999746
        },
        {
          "name": "A4",
          "midi": 69,
          "time": 120.3141879854165,
          "velocity": 0.8031496062992126,
          "duration": 0.06770830624999746
        },
        {
          "name": "A4",
          "midi": 69,
          "time": 120.41661849999983,
          "velocity": 1,
          "duration": 0.0694444166666699
        },
        {
          "name": "A4",
          "midi": 69,
          "time": 120.52078512499983,
          "velocity": 0.8267716535433071,
          "duration": 0.0694444166666699
        },
        {
          "name": "A4",
          "midi": 69,
          "time": 120.62321563958317,
          "velocity": 0.84251968503937,
          "duration": 0.07118052708332812
        },
        {
          "name": "A4",
          "midi": 69,
          "time": 120.72911837499983,
          "velocity": 0.8031496062992126,
          "duration": 0.0694444166666699
        },
        {
          "name": "A4",
          "midi": 69,
          "time": 120.83154888958316,
          "velocity": 1,
          "duration": 0.07118052708332812
        },
        {
          "name": "A4",
          "midi": 69,
          "time": 120.93918773541648,
          "velocity": 0.8267716535433071,
          "duration": 0.0694444166666699
        },
        {
          "name": "A4",
          "midi": 69,
          "time": 121.04335436041649,
          "velocity": 0.8661417322834646,
          "duration": 0.0694444166666699
        },
        {
          "name": "A4",
          "midi": 69,
          "time": 121.14925709583315,
          "velocity": 0.8267716535433071,
          "duration": 0.0694444166666699
        },
        {
          "name": "A4",
          "midi": 69,
          "time": 121.25515983124981,
          "velocity": 1,
          "duration": 0.0694444166666699
        },
        {
          "name": "A4",
          "midi": 69,
          "time": 121.35932645624982,
          "velocity": 0.8503937007874016,
          "duration": 0.0694444166666699
        },
        {
          "name": "A4",
          "midi": 69,
          "time": 121.46349308124982,
          "velocity": 0.8661417322834646,
          "duration": 0.06770830624999746
        },
        {
          "name": "A4",
          "midi": 69,
          "time": 121.56765970624981,
          "velocity": 0.84251968503937,
          "duration": 0.06770830624999746
        },
        {
          "name": "A4",
          "midi": 69,
          "time": 121.6718263312498,
          "velocity": 1,
          "duration": 0.07118052708332812
        },
        {
          "name": "A4",
          "midi": 69,
          "time": 121.7759929562498,
          "velocity": 0.84251968503937,
          "duration": 0.0694444166666699
        },
        {
          "name": "A4",
          "midi": 69,
          "time": 121.87842347083313,
          "velocity": 0.8661417322834646,
          "duration": 0.0694444166666699
        },
        {
          "name": "A4",
          "midi": 69,
          "time": 121.98259009583313,
          "velocity": 0.8503937007874016,
          "duration": 0.06770830624999746
        },
        {
          "name": "A4",
          "midi": 69,
          "time": 122.08502061041646,
          "velocity": 1,
          "duration": 0.07118052708332812
        },
        {
          "name": "A4",
          "midi": 69,
          "time": 122.19092334583313,
          "velocity": 0.8818897637795275,
          "duration": 0.0694444166666699
        },
        {
          "name": "A4",
          "midi": 69,
          "time": 122.29508997083313,
          "velocity": 0.8661417322834646,
          "duration": 0.0694444166666699
        },
        {
          "name": "A4",
          "midi": 69,
          "time": 122.39752048541646,
          "velocity": 0.8661417322834646,
          "duration": 0.07118052708332812
        },
        {
          "name": "A4",
          "midi": 69,
          "time": 122.50168711041646,
          "velocity": 1,
          "duration": 0.06597219583333924
        },
        {
          "name": "A4",
          "midi": 69,
          "time": 122.60585373541646,
          "velocity": 0.8267716535433071,
          "duration": 0.0694444166666699
        },
        {
          "name": "A4",
          "midi": 69,
          "time": 122.71002036041646,
          "velocity": 0.84251968503937,
          "duration": 0.06770830624999746
        },
        {
          "name": "A4",
          "midi": 69,
          "time": 122.81418698541646,
          "velocity": 0.8031496062992126,
          "duration": 0.06770830624999746
        },
        {
          "name": "A4",
          "midi": 69,
          "time": 122.91661749999979,
          "velocity": 1,
          "duration": 0.0694444166666699
        },
        {
          "name": "A4",
          "midi": 69,
          "time": 123.02078412499979,
          "velocity": 0.8267716535433071,
          "duration": 0.0694444166666699
        },
        {
          "name": "A4",
          "midi": 69,
          "time": 123.12321463958313,
          "velocity": 0.84251968503937,
          "duration": 0.07118052708332812
        },
        {
          "name": "A4",
          "midi": 69,
          "time": 123.22911737499979,
          "velocity": 0.8031496062992126,
          "duration": 0.0694444166666699
        },
        {
          "name": "A4",
          "midi": 69,
          "time": 123.33154788958312,
          "velocity": 1,
          "duration": 0.07118052708332812
        },
        {
          "name": "A4",
          "midi": 69,
          "time": 123.43918673541644,
          "velocity": 0.8267716535433071,
          "duration": 0.0694444166666699
        },
        {
          "name": "A4",
          "midi": 69,
          "time": 123.54335336041645,
          "velocity": 0.8661417322834646,
          "duration": 0.0694444166666699
        },
        {
          "name": "A4",
          "midi": 69,
          "time": 123.64925609583311,
          "velocity": 0.8267716535433071,
          "duration": 0.0694444166666699
        },
        {
          "name": "A4",
          "midi": 69,
          "time": 123.75515883124977,
          "velocity": 1,
          "duration": 0.0694444166666699
        },
        {
          "name": "A4",
          "midi": 69,
          "time": 123.85932545624978,
          "velocity": 0.8503937007874016,
          "duration": 0.0694444166666699
        },
        {
          "name": "A4",
          "midi": 69,
          "time": 123.96349208124978,
          "velocity": 0.8661417322834646,
          "duration": 0.06770830624999746
        },
        {
          "name": "A4",
          "midi": 69,
          "time": 124.06765870624977,
          "velocity": 0.84251968503937,
          "duration": 0.06770830624999746
        },
        {
          "name": "A4",
          "midi": 69,
          "time": 124.17182533124976,
          "velocity": 1,
          "duration": 0.07118052708332812
        },
        {
          "name": "A4",
          "midi": 69,
          "time": 124.27599195624975,
          "velocity": 0.84251968503937,
          "duration": 0.0694444166666699
        },
        {
          "name": "A4",
          "midi": 69,
          "time": 124.37842247083309,
          "velocity": 0.8661417322834646,
          "duration": 0.0694444166666699
        },
        {
          "name": "A4",
          "midi": 69,
          "time": 124.48258909583309,
          "velocity": 0.8503937007874016,
          "duration": 0.06770830624999746
        },
        {
          "name": "A4",
          "midi": 69,
          "time": 124.58501961041642,
          "velocity": 1,
          "duration": 0.07118052708332812
        },
        {
          "name": "A4",
          "midi": 69,
          "time": 124.69092234583309,
          "velocity": 0.8818897637795275,
          "duration": 0.0694444166666699
        },
        {
          "name": "A4",
          "midi": 69,
          "time": 124.79508897083309,
          "velocity": 0.8661417322834646,
          "duration": 0.0694444166666699
        },
        {
          "name": "A4",
          "midi": 69,
          "time": 124.89751948541642,
          "velocity": 0.8661417322834646,
          "duration": 0.07118052708332812
        },
        {
          "name": "A4",
          "midi": 69,
          "time": 125.00168611041641,
          "velocity": 1,
          "duration": 0.06597219583333924
        },
        {
          "name": "A4",
          "midi": 69,
          "time": 125.10585273541642,
          "velocity": 0.8267716535433071,
          "duration": 0.0694444166666699
        },
        {
          "name": "A4",
          "midi": 69,
          "time": 125.21001936041642,
          "velocity": 0.84251968503937,
          "duration": 0.06770830624999746
        },
        {
          "name": "A4",
          "midi": 69,
          "time": 125.31418598541642,
          "velocity": 0.8031496062992126,
          "duration": 0.06770830624999746
        },
        {
          "name": "A4",
          "midi": 69,
          "time": 125.41661649999975,
          "velocity": 1,
          "duration": 0.0694444166666699
        },
        {
          "name": "A4",
          "midi": 69,
          "time": 125.52078312499975,
          "velocity": 0.8267716535433071,
          "duration": 0.0694444166666699
        },
        {
          "name": "A4",
          "midi": 69,
          "time": 125.62321363958308,
          "velocity": 0.84251968503937,
          "duration": 0.07118052708332812
        },
        {
          "name": "A4",
          "midi": 69,
          "time": 125.72911637499975,
          "velocity": 0.8031496062992126,
          "duration": 0.0694444166666699
        },
        {
          "name": "A4",
          "midi": 69,
          "time": 125.83154688958308,
          "velocity": 1,
          "duration": 0.07118052708332812
        },
        {
          "name": "A4",
          "midi": 69,
          "time": 125.9391857354164,
          "velocity": 0.8267716535433071,
          "duration": 0.0694444166666699
        },
        {
          "name": "A4",
          "midi": 69,
          "time": 126.0433523604164,
          "velocity": 0.8661417322834646,
          "duration": 0.0694444166666699
        },
        {
          "name": "A4",
          "midi": 69,
          "time": 126.14925509583307,
          "velocity": 0.8267716535433071,
          "duration": 0.0694444166666699
        },
        {
          "name": "A4",
          "midi": 69,
          "time": 126.25515783124973,
          "velocity": 1,
          "duration": 0.0694444166666699
        },
        {
          "name": "A4",
          "midi": 69,
          "time": 126.35932445624974,
          "velocity": 0.8503937007874016,
          "duration": 0.0694444166666699
        },
        {
          "name": "A4",
          "midi": 69,
          "time": 126.46349108124974,
          "velocity": 0.8661417322834646,
          "duration": 0.06770830624999746
        },
        {
          "name": "A4",
          "midi": 69,
          "time": 126.56765770624973,
          "velocity": 0.84251968503937,
          "duration": 0.06770830624999746
        },
        {
          "name": "A4",
          "midi": 69,
          "time": 126.67182433124972,
          "velocity": 1,
          "duration": 0.07118052708332812
        },
        {
          "name": "A4",
          "midi": 69,
          "time": 126.77599095624971,
          "velocity": 0.84251968503937,
          "duration": 0.0694444166666699
        },
        {
          "name": "A4",
          "midi": 69,
          "time": 126.87842147083305,
          "velocity": 0.8661417322834646,
          "duration": 0.0694444166666699
        },
        {
          "name": "A4",
          "midi": 69,
          "time": 126.98258809583305,
          "velocity": 0.8503937007874016,
          "duration": 0.06770830624999746
        },
        {
          "name": "A4",
          "midi": 69,
          "time": 127.08501861041638,
          "velocity": 1,
          "duration": 0.07118052708332812
        },
        {
          "name": "A4",
          "midi": 69,
          "time": 127.19092134583305,
          "velocity": 0.8818897637795275,
          "duration": 0.0694444166666699
        },
        {
          "name": "A4",
          "midi": 69,
          "time": 127.29508797083305,
          "velocity": 0.8661417322834646,
          "duration": 0.0694444166666699
        },
        {
          "name": "A4",
          "midi": 69,
          "time": 127.39751848541638,
          "velocity": 0.8661417322834646,
          "duration": 0.07118052708332812
        },
        {
          "name": "A4",
          "midi": 69,
          "time": 127.50168511041637,
          "velocity": 1,
          "duration": 0.06597219583333924
        },
        {
          "name": "A4",
          "midi": 69,
          "time": 127.60585173541638,
          "velocity": 0.8267716535433071,
          "duration": 0.0694444166666699
        },
        {
          "name": "A4",
          "midi": 69,
          "time": 127.71001836041638,
          "velocity": 0.84251968503937,
          "duration": 0.06770830624999746
        },
        {
          "name": "A4",
          "midi": 69,
          "time": 127.81418498541638,
          "velocity": 0.8031496062992126,
          "duration": 0.06770830624999746
        },
        {
          "name": "A4",
          "midi": 69,
          "time": 127.91661549999971,
          "velocity": 1,
          "duration": 0.0694444166666699
        },
        {
          "name": "A4",
          "midi": 69,
          "time": 128.0207821249997,
          "velocity": 0.8267716535433071,
          "duration": 0.0694444166666699
        },
        {
          "name": "A4",
          "midi": 69,
          "time": 128.12321263958304,
          "velocity": 0.84251968503937,
          "duration": 0.07118052708332812
        },
        {
          "name": "A4",
          "midi": 69,
          "time": 128.2291153749997,
          "velocity": 0.8031496062992126,
          "duration": 0.0694444166666699
        },
        {
          "name": "A4",
          "midi": 69,
          "time": 128.33154588958305,
          "velocity": 1,
          "duration": 0.07118052708332812
        },
        {
          "name": "A4",
          "midi": 69,
          "time": 128.43918473541638,
          "velocity": 0.8267716535433071,
          "duration": 0.0694444166666699
        },
        {
          "name": "A4",
          "midi": 69,
          "time": 128.54335136041638,
          "velocity": 0.8661417322834646,
          "duration": 0.0694444166666699
        },
        {
          "name": "A4",
          "midi": 69,
          "time": 128.64925409583304,
          "velocity": 0.8267716535433071,
          "duration": 0.0694444166666699
        },
        {
          "name": "A4",
          "midi": 69,
          "time": 128.7551568312497,
          "velocity": 1,
          "duration": 0.0694444166666699
        },
        {
          "name": "A4",
          "midi": 69,
          "time": 128.8593234562497,
          "velocity": 0.8503937007874016,
          "duration": 0.0694444166666699
        },
        {
          "name": "A4",
          "midi": 69,
          "time": 128.96349008124972,
          "velocity": 0.8661417322834646,
          "duration": 0.06770830625001167
        },
        {
          "name": "A4",
          "midi": 69,
          "time": 129.06765670624972,
          "velocity": 0.84251968503937,
          "duration": 0.06770830625001167
        },
        {
          "name": "A4",
          "midi": 69,
          "time": 129.17182333124973,
          "velocity": 1,
          "duration": 0.07118052708332812
        },
        {
          "name": "A4",
          "midi": 69,
          "time": 129.27598995624973,
          "velocity": 0.84251968503937,
          "duration": 0.0694444166666699
        },
        {
          "name": "A4",
          "midi": 69,
          "time": 129.37842047083308,
          "velocity": 0.8661417322834646,
          "duration": 0.0694444166666699
        },
        {
          "name": "A4",
          "midi": 69,
          "time": 129.48258709583308,
          "velocity": 0.8503937007874016,
          "duration": 0.06770830625001167
        },
        {
          "name": "A4",
          "midi": 69,
          "time": 129.58501761041643,
          "velocity": 1,
          "duration": 0.07118052708332812
        },
        {
          "name": "A4",
          "midi": 69,
          "time": 129.6909203458331,
          "velocity": 0.8818897637795275,
          "duration": 0.0694444166666699
        },
        {
          "name": "A4",
          "midi": 69,
          "time": 129.7950869708331,
          "velocity": 0.8661417322834646,
          "duration": 0.0694444166666699
        },
        {
          "name": "A4",
          "midi": 69,
          "time": 129.89751748541644,
          "velocity": 0.8661417322834646,
          "duration": 0.07118052708332812
        },
        {
          "name": "A4",
          "midi": 69,
          "time": 130.00168411041642,
          "velocity": 1,
          "duration": 0.06597219583332503
        },
        {
          "name": "A4",
          "midi": 69,
          "time": 130.10585073541642,
          "velocity": 0.8267716535433071,
          "duration": 0.0694444166666699
        },
        {
          "name": "A4",
          "midi": 69,
          "time": 130.21001736041643,
          "velocity": 0.84251968503937,
          "duration": 0.06770830625001167
        },
        {
          "name": "A4",
          "midi": 69,
          "time": 130.31418398541643,
          "velocity": 0.8031496062992126,
          "duration": 0.06770830625001167
        },
        {
          "name": "A4",
          "midi": 69,
          "time": 130.41661449999978,
          "velocity": 1,
          "duration": 0.0694444166666699
        },
        {
          "name": "A4",
          "midi": 69,
          "time": 130.5207811249998,
          "velocity": 0.8267716535433071,
          "duration": 0.0694444166666699
        },
        {
          "name": "A4",
          "midi": 69,
          "time": 130.62321163958313,
          "velocity": 0.84251968503937,
          "duration": 0.07118052708332812
        },
        {
          "name": "A4",
          "midi": 69,
          "time": 130.7291143749998,
          "velocity": 0.8031496062992126,
          "duration": 0.0694444166666699
        },
        {
          "name": "A4",
          "midi": 69,
          "time": 130.83154488958314,
          "velocity": 1,
          "duration": 0.07118052708332812
        },
        {
          "name": "A4",
          "midi": 69,
          "time": 130.93918373541646,
          "velocity": 0.8267716535433071,
          "duration": 0.0694444166666699
        },
        {
          "name": "A4",
          "midi": 69,
          "time": 131.04335036041647,
          "velocity": 0.8661417322834646,
          "duration": 0.0694444166666699
        },
        {
          "name": "A4",
          "midi": 69,
          "time": 131.14925309583313,
          "velocity": 0.8267716535433071,
          "duration": 0.0694444166666699
        },
        {
          "name": "A4",
          "midi": 69,
          "time": 131.2551558312498,
          "velocity": 1,
          "duration": 0.0694444166666699
        },
        {
          "name": "A4",
          "midi": 69,
          "time": 131.3593224562498,
          "velocity": 0.8503937007874016,
          "duration": 0.0694444166666699
        },
        {
          "name": "A4",
          "midi": 69,
          "time": 131.4634890812498,
          "velocity": 0.8661417322834646,
          "duration": 0.06770830625001167
        },
        {
          "name": "A4",
          "midi": 69,
          "time": 131.5676557062498,
          "velocity": 0.84251968503937,
          "duration": 0.06770830625001167
        },
        {
          "name": "A4",
          "midi": 69,
          "time": 131.6718223312498,
          "velocity": 1,
          "duration": 0.07118052708332812
        },
        {
          "name": "A4",
          "midi": 69,
          "time": 131.77598895624982,
          "velocity": 0.84251968503937,
          "duration": 0.0694444166666699
        },
        {
          "name": "A4",
          "midi": 69,
          "time": 131.87841947083317,
          "velocity": 0.8661417322834646,
          "duration": 0.0694444166666699
        },
        {
          "name": "A4",
          "midi": 69,
          "time": 131.98258609583317,
          "velocity": 0.8503937007874016,
          "duration": 0.06770830625001167
        },
        {
          "name": "A4",
          "midi": 69,
          "time": 132.08501661041652,
          "velocity": 1,
          "duration": 0.07118052708332812
        },
        {
          "name": "A4",
          "midi": 69,
          "time": 132.19091934583318,
          "velocity": 0.8818897637795275,
          "duration": 0.0694444166666699
        },
        {
          "name": "A4",
          "midi": 69,
          "time": 132.29508597083318,
          "velocity": 0.8661417322834646,
          "duration": 0.0694444166666699
        },
        {
          "name": "A4",
          "midi": 69,
          "time": 132.39751648541653,
          "velocity": 0.8661417322834646,
          "duration": 0.07118052708332812
        },
        {
          "name": "A4",
          "midi": 69,
          "time": 132.50168311041654,
          "velocity": 1,
          "duration": 0.06597219583332503
        },
        {
          "name": "A4",
          "midi": 69,
          "time": 132.60584973541654,
          "velocity": 0.8267716535433071,
          "duration": 0.0694444166666699
        },
        {
          "name": "A4",
          "midi": 69,
          "time": 132.71001636041655,
          "velocity": 0.84251968503937,
          "duration": 0.06770830625001167
        },
        {
          "name": "A4",
          "midi": 69,
          "time": 132.81418298541655,
          "velocity": 0.8031496062992126,
          "duration": 0.06770830625001167
        },
        {
          "name": "A4",
          "midi": 69,
          "time": 132.9166134999999,
          "velocity": 1,
          "duration": 0.0694444166666699
        },
        {
          "name": "A4",
          "midi": 69,
          "time": 133.0207801249999,
          "velocity": 0.8267716535433071,
          "duration": 0.0694444166666699
        },
        {
          "name": "A4",
          "midi": 69,
          "time": 133.12321063958325,
          "velocity": 0.84251968503937,
          "duration": 0.07118052708332812
        },
        {
          "name": "A4",
          "midi": 69,
          "time": 133.2291133749999,
          "velocity": 0.8031496062992126,
          "duration": 0.0694444166666699
        },
        {
          "name": "A4",
          "midi": 69,
          "time": 133.33154388958326,
          "velocity": 1,
          "duration": 0.07118052708332812
        },
        {
          "name": "A4",
          "midi": 69,
          "time": 133.43918273541658,
          "velocity": 0.8267716535433071,
          "duration": 0.0694444166666699
        },
        {
          "name": "A4",
          "midi": 69,
          "time": 133.54334936041658,
          "velocity": 0.8661417322834646,
          "duration": 0.0694444166666699
        },
        {
          "name": "A4",
          "midi": 69,
          "time": 133.64925209583325,
          "velocity": 0.8267716535433071,
          "duration": 0.0694444166666699
        },
        {
          "name": "A4",
          "midi": 69,
          "time": 133.7551548312499,
          "velocity": 1,
          "duration": 0.0694444166666699
        },
        {
          "name": "A4",
          "midi": 69,
          "time": 133.85932145624992,
          "velocity": 0.8503937007874016,
          "duration": 0.0694444166666699
        },
        {
          "name": "A4",
          "midi": 69,
          "time": 133.96348808124992,
          "velocity": 0.8661417322834646,
          "duration": 0.06770830625001167
        },
        {
          "name": "A4",
          "midi": 69,
          "time": 134.06765470624993,
          "velocity": 0.84251968503937,
          "duration": 0.06770830625001167
        },
        {
          "name": "A4",
          "midi": 69,
          "time": 134.17182133124993,
          "velocity": 1,
          "duration": 0.07118052708332812
        },
        {
          "name": "A4",
          "midi": 69,
          "time": 134.27598795624993,
          "velocity": 0.84251968503937,
          "duration": 0.0694444166666699
        },
        {
          "name": "A4",
          "midi": 69,
          "time": 134.37841847083328,
          "velocity": 0.8661417322834646,
          "duration": 0.0694444166666699
        },
        {
          "name": "A4",
          "midi": 69,
          "time": 134.4825850958333,
          "velocity": 0.8503937007874016,
          "duration": 0.06770830625001167
        },
        {
          "name": "A4",
          "midi": 69,
          "time": 134.58501561041663,
          "velocity": 1,
          "duration": 0.07118052708332812
        },
        {
          "name": "A4",
          "midi": 69,
          "time": 134.6909183458333,
          "velocity": 0.8818897637795275,
          "duration": 0.0694444166666699
        },
        {
          "name": "A4",
          "midi": 69,
          "time": 134.7950849708333,
          "velocity": 0.8661417322834646,
          "duration": 0.0694444166666699
        },
        {
          "name": "A4",
          "midi": 69,
          "time": 134.89751548541665,
          "velocity": 0.8661417322834646,
          "duration": 0.07118052708332812
        },
        {
          "name": "A4",
          "midi": 69,
          "time": 135.00168211041665,
          "velocity": 1,
          "duration": 0.06597219583332503
        },
        {
          "name": "A4",
          "midi": 69,
          "time": 135.10584873541666,
          "velocity": 0.8267716535433071,
          "duration": 0.0694444166666699
        },
        {
          "name": "A4",
          "midi": 69,
          "time": 135.21001536041666,
          "velocity": 0.84251968503937,
          "duration": 0.06770830625001167
        },
        {
          "name": "A4",
          "midi": 69,
          "time": 135.31418198541667,
          "velocity": 0.8031496062992126,
          "duration": 0.06770830625001167
        },
        {
          "name": "A4",
          "midi": 69,
          "time": 135.4166125,
          "velocity": 1,
          "duration": 0.0694444166666699
        },
        {
          "name": "A4",
          "midi": 69,
          "time": 135.52077912500002,
          "velocity": 0.8267716535433071,
          "duration": 0.0694444166666699
        },
        {
          "name": "A4",
          "midi": 69,
          "time": 135.62320963958337,
          "velocity": 0.84251968503937,
          "duration": 0.07118052708332812
        },
        {
          "name": "A4",
          "midi": 69,
          "time": 135.72911237500003,
          "velocity": 0.8031496062992126,
          "duration": 0.0694444166666699
        },
        {
          "name": "A4",
          "midi": 69,
          "time": 135.83154288958337,
          "velocity": 1,
          "duration": 0.07118052708332812
        },
        {
          "name": "A4",
          "midi": 69,
          "time": 135.9391817354167,
          "velocity": 0.8267716535433071,
          "duration": 0.0694444166666699
        },
        {
          "name": "A4",
          "midi": 69,
          "time": 136.0433483604167,
          "velocity": 0.8661417322834646,
          "duration": 0.0694444166666699
        },
        {
          "name": "A4",
          "midi": 69,
          "time": 136.14925109583336,
          "velocity": 0.8267716535433071,
          "duration": 0.0694444166666699
        },
        {
          "name": "A4",
          "midi": 69,
          "time": 136.25515383125003,
          "velocity": 1,
          "duration": 0.0694444166666699
        },
        {
          "name": "A4",
          "midi": 69,
          "time": 136.35932045625003,
          "velocity": 0.8503937007874016,
          "duration": 0.0694444166666699
        },
        {
          "name": "A4",
          "midi": 69,
          "time": 136.46348708125004,
          "velocity": 0.8661417322834646,
          "duration": 0.06770830625001167
        },
        {
          "name": "A4",
          "midi": 69,
          "time": 136.56765370625004,
          "velocity": 0.84251968503937,
          "duration": 0.06770830625001167
        },
        {
          "name": "A4",
          "midi": 69,
          "time": 136.67182033125005,
          "velocity": 1,
          "duration": 0.07118052708332812
        },
        {
          "name": "A4",
          "midi": 69,
          "time": 136.77598695625005,
          "velocity": 0.84251968503937,
          "duration": 0.0694444166666699
        },
        {
          "name": "A4",
          "midi": 69,
          "time": 136.8784174708334,
          "velocity": 0.8661417322834646,
          "duration": 0.0694444166666699
        },
        {
          "name": "A4",
          "midi": 69,
          "time": 136.9825840958334,
          "velocity": 0.8503937007874016,
          "duration": 0.06770830625001167
        },
        {
          "name": "A4",
          "midi": 69,
          "time": 137.08501461041675,
          "velocity": 1,
          "duration": 0.07118052708332812
        },
        {
          "name": "A4",
          "midi": 69,
          "time": 137.1909173458334,
          "velocity": 0.8818897637795275,
          "duration": 0.0694444166666699
        },
        {
          "name": "A4",
          "midi": 69,
          "time": 137.29508397083342,
          "velocity": 0.8661417322834646,
          "duration": 0.0694444166666699
        },
        {
          "name": "A4",
          "midi": 69,
          "time": 137.39751448541676,
          "velocity": 0.8661417322834646,
          "duration": 0.07118052708332812
        },
        {
          "name": "A4",
          "midi": 69,
          "time": 137.50168111041677,
          "velocity": 1,
          "duration": 0.06597219583332503
        },
        {
          "name": "A4",
          "midi": 69,
          "time": 137.60584773541677,
          "velocity": 0.8267716535433071,
          "duration": 0.0694444166666699
        },
        {
          "name": "A4",
          "midi": 69,
          "time": 137.71001436041678,
          "velocity": 0.84251968503937,
          "duration": 0.06770830625001167
        },
        {
          "name": "A4",
          "midi": 69,
          "time": 137.81418098541678,
          "velocity": 0.8031496062992126,
          "duration": 0.06770830625001167
        },
        {
          "name": "A4",
          "midi": 69,
          "time": 137.91661150000013,
          "velocity": 1,
          "duration": 0.0694444166666699
        },
        {
          "name": "A4",
          "midi": 69,
          "time": 138.02077812500013,
          "velocity": 0.8267716535433071,
          "duration": 0.0694444166666699
        },
        {
          "name": "A4",
          "midi": 69,
          "time": 138.12320863958348,
          "velocity": 0.84251968503937,
          "duration": 0.07118052708332812
        },
        {
          "name": "A4",
          "midi": 69,
          "time": 138.22911137500014,
          "velocity": 0.8031496062992126,
          "duration": 0.0694444166666699
        },
        {
          "name": "A4",
          "midi": 69,
          "time": 138.3315418895835,
          "velocity": 1,
          "duration": 0.07118052708332812
        },
        {
          "name": "A4",
          "midi": 69,
          "time": 138.4391807354168,
          "velocity": 0.8267716535433071,
          "duration": 0.0694444166666699
        },
        {
          "name": "A4",
          "midi": 69,
          "time": 138.54334736041682,
          "velocity": 0.8661417322834646,
          "duration": 0.0694444166666699
        },
        {
          "name": "A4",
          "midi": 69,
          "time": 138.64925009583348,
          "velocity": 0.8267716535433071,
          "duration": 0.0694444166666699
        },
        {
          "name": "A4",
          "midi": 69,
          "time": 138.75515283125014,
          "velocity": 1,
          "duration": 0.0694444166666699
        },
        {
          "name": "A4",
          "midi": 69,
          "time": 138.85931945625015,
          "velocity": 0.8503937007874016,
          "duration": 0.0694444166666699
        },
        {
          "name": "A4",
          "midi": 69,
          "time": 138.96348608125015,
          "velocity": 0.8661417322834646,
          "duration": 0.06770830625001167
        },
        {
          "name": "A4",
          "midi": 69,
          "time": 139.06765270625016,
          "velocity": 0.84251968503937,
          "duration": 0.06770830625001167
        },
        {
          "name": "A4",
          "midi": 69,
          "time": 139.17181933125016,
          "velocity": 1,
          "duration": 0.07118052708332812
        },
        {
          "name": "A4",
          "midi": 69,
          "time": 139.27598595625017,
          "velocity": 0.84251968503937,
          "duration": 0.0694444166666699
        },
        {
          "name": "A4",
          "midi": 69,
          "time": 139.3784164708335,
          "velocity": 0.8661417322834646,
          "duration": 0.0694444166666699
        },
        {
          "name": "A4",
          "midi": 69,
          "time": 139.48258309583352,
          "velocity": 0.8503937007874016,
          "duration": 0.06770830625001167
        },
        {
          "name": "A4",
          "midi": 69,
          "time": 139.58501361041687,
          "velocity": 1,
          "duration": 0.07118052708332812
        },
        {
          "name": "A4",
          "midi": 69,
          "time": 139.69091634583353,
          "velocity": 0.8818897637795275,
          "duration": 0.0694444166666699
        },
        {
          "name": "A4",
          "midi": 69,
          "time": 139.79508297083353,
          "velocity": 0.8661417322834646,
          "duration": 0.0694444166666699
        },
        {
          "name": "A4",
          "midi": 69,
          "time": 139.89751348541688,
          "velocity": 0.8661417322834646,
          "duration": 0.07118052708332812
        },
        {
          "name": "A4",
          "midi": 69,
          "time": 140.00168011041688,
          "velocity": 1,
          "duration": 0.06597219583332503
        },
        {
          "name": "A4",
          "midi": 69,
          "time": 140.1058467354169,
          "velocity": 0.8267716535433071,
          "duration": 0.0694444166666699
        },
        {
          "name": "A4",
          "midi": 69,
          "time": 140.2100133604169,
          "velocity": 0.84251968503937,
          "duration": 0.06770830625001167
        },
        {
          "name": "A4",
          "midi": 69,
          "time": 140.3141799854169,
          "velocity": 0.8031496062992126,
          "duration": 0.06770830625001167
        },
        {
          "name": "A4",
          "midi": 69,
          "time": 140.41661050000025,
          "velocity": 1,
          "duration": 0.0694444166666699
        },
        {
          "name": "A4",
          "midi": 69,
          "time": 140.52077712500025,
          "velocity": 0.8267716535433071,
          "duration": 0.0694444166666699
        },
        {
          "name": "A4",
          "midi": 69,
          "time": 140.6232076395836,
          "velocity": 0.84251968503937,
          "duration": 0.07118052708332812
        },
        {
          "name": "A4",
          "midi": 69,
          "time": 140.72911037500026,
          "velocity": 0.8031496062992126,
          "duration": 0.0694444166666699
        },
        {
          "name": "A4",
          "midi": 69,
          "time": 140.8315408895836,
          "velocity": 1,
          "duration": 0.07118052708332812
        },
        {
          "name": "A4",
          "midi": 69,
          "time": 140.93917973541693,
          "velocity": 0.8267716535433071,
          "duration": 0.0694444166666699
        },
        {
          "name": "A4",
          "midi": 69,
          "time": 141.04334636041693,
          "velocity": 0.8661417322834646,
          "duration": 0.0694444166666699
        },
        {
          "name": "A4",
          "midi": 69,
          "time": 141.1492490958336,
          "velocity": 0.8267716535433071,
          "duration": 0.0694444166666699
        },
        {
          "name": "A4",
          "midi": 69,
          "time": 141.25515183125026,
          "velocity": 1,
          "duration": 0.0694444166666699
        },
        {
          "name": "A4",
          "midi": 69,
          "time": 141.35931845625026,
          "velocity": 0.8503937007874016,
          "duration": 0.0694444166666699
        },
        {
          "name": "A4",
          "midi": 69,
          "time": 141.46348508125027,
          "velocity": 0.8661417322834646,
          "duration": 0.06770830625001167
        },
        {
          "name": "A4",
          "midi": 69,
          "time": 141.56765170625027,
          "velocity": 0.84251968503937,
          "duration": 0.06770830625001167
        },
        {
          "name": "A4",
          "midi": 69,
          "time": 141.67181833125028,
          "velocity": 1,
          "duration": 0.07118052708332812
        },
        {
          "name": "A4",
          "midi": 69,
          "time": 141.77598495625028,
          "velocity": 0.84251968503937,
          "duration": 0.0694444166666699
        },
        {
          "name": "A4",
          "midi": 69,
          "time": 141.87841547083363,
          "velocity": 0.8661417322834646,
          "duration": 0.0694444166666699
        },
        {
          "name": "A4",
          "midi": 69,
          "time": 141.98258209583364,
          "velocity": 0.8503937007874016,
          "duration": 0.06770830625001167
        },
        {
          "name": "A4",
          "midi": 69,
          "time": 142.08501261041698,
          "velocity": 1,
          "duration": 0.07118052708332812
        },
        {
          "name": "A4",
          "midi": 69,
          "time": 142.19091534583364,
          "velocity": 0.8818897637795275,
          "duration": 0.0694444166666699
        },
        {
          "name": "A4",
          "midi": 69,
          "time": 142.29508197083365,
          "velocity": 0.8661417322834646,
          "duration": 0.0694444166666699
        },
        {
          "name": "A4",
          "midi": 69,
          "time": 142.397512485417,
          "velocity": 0.8661417322834646,
          "duration": 0.07118052708332812
        },
        {
          "name": "A4",
          "midi": 69,
          "time": 142.501679110417,
          "velocity": 1,
          "duration": 0.06597219583332503
        },
        {
          "name": "A4",
          "midi": 69,
          "time": 142.605845735417,
          "velocity": 0.8267716535433071,
          "duration": 0.0694444166666699
        },
        {
          "name": "A4",
          "midi": 69,
          "time": 142.710012360417,
          "velocity": 0.84251968503937,
          "duration": 0.06770830625001167
        },
        {
          "name": "A4",
          "midi": 69,
          "time": 142.81417898541702,
          "velocity": 0.8031496062992126,
          "duration": 0.06770830625001167
        },
        {
          "name": "A4",
          "midi": 69,
          "time": 142.91660950000036,
          "velocity": 1,
          "duration": 0.0694444166666699
        },
        {
          "name": "A4",
          "midi": 69,
          "time": 143.02077612500037,
          "velocity": 0.8267716535433071,
          "duration": 0.0694444166666699
        },
        {
          "name": "A4",
          "midi": 69,
          "time": 143.1232066395837,
          "velocity": 0.84251968503937,
          "duration": 0.07118052708332812
        },
        {
          "name": "A4",
          "midi": 69,
          "time": 143.22910937500038,
          "velocity": 0.8031496062992126,
          "duration": 0.0694444166666699
        },
        {
          "name": "A4",
          "midi": 69,
          "time": 143.33153988958372,
          "velocity": 1,
          "duration": 0.07118052708332812
        },
        {
          "name": "A4",
          "midi": 69,
          "time": 143.43917873541704,
          "velocity": 0.8267716535433071,
          "duration": 0.0694444166666699
        },
        {
          "name": "A4",
          "midi": 69,
          "time": 143.54334536041705,
          "velocity": 0.8661417322834646,
          "duration": 0.0694444166666699
        },
        {
          "name": "A4",
          "midi": 69,
          "time": 143.6492480958337,
          "velocity": 0.8267716535433071,
          "duration": 0.0694444166666699
        },
        {
          "name": "A4",
          "midi": 69,
          "time": 143.75515083125038,
          "velocity": 1,
          "duration": 0.0694444166666699
        },
        {
          "name": "A4",
          "midi": 69,
          "time": 143.85931745625038,
          "velocity": 0.8503937007874016,
          "duration": 0.0694444166666699
        },
        {
          "name": "A4",
          "midi": 69,
          "time": 143.96348408125039,
          "velocity": 0.8661417322834646,
          "duration": 0.06770830625001167
        },
        {
          "name": "A4",
          "midi": 69,
          "time": 144.0676507062504,
          "velocity": 0.84251968503937,
          "duration": 0.06770830625001167
        },
        {
          "name": "A4",
          "midi": 69,
          "time": 144.1718173312504,
          "velocity": 1,
          "duration": 0.07118052708332812
        },
        {
          "name": "A4",
          "midi": 69,
          "time": 144.2759839562504,
          "velocity": 0.84251968503937,
          "duration": 0.0694444166666699
        },
        {
          "name": "A4",
          "midi": 69,
          "time": 144.37841447083375,
          "velocity": 0.8661417322834646,
          "duration": 0.0694444166666699
        },
        {
          "name": "A4",
          "midi": 69,
          "time": 144.48258109583375,
          "velocity": 0.8503937007874016,
          "duration": 0.06770830625001167
        },
        {
          "name": "A4",
          "midi": 69,
          "time": 144.5850116104171,
          "velocity": 1,
          "duration": 0.07118052708332812
        },
        {
          "name": "A4",
          "midi": 69,
          "time": 144.69091434583376,
          "velocity": 0.8818897637795275,
          "duration": 0.0694444166666699
        },
        {
          "name": "A4",
          "midi": 69,
          "time": 144.79508097083377,
          "velocity": 0.8661417322834646,
          "duration": 0.0694444166666699
        },
        {
          "name": "A4",
          "midi": 69,
          "time": 144.8975114854171,
          "velocity": 0.8661417322834646,
          "duration": 0.07118052708332812
        },
        {
          "name": "A4",
          "midi": 69,
          "time": 145.00167811041712,
          "velocity": 1,
          "duration": 0.06597219583332503
        },
        {
          "name": "A4",
          "midi": 69,
          "time": 145.10584473541712,
          "velocity": 0.8267716535433071,
          "duration": 0.0694444166666699
        },
        {
          "name": "A4",
          "midi": 69,
          "time": 145.21001136041713,
          "velocity": 0.84251968503937,
          "duration": 0.06770830625001167
        },
        {
          "name": "A4",
          "midi": 69,
          "time": 145.31417798541713,
          "velocity": 0.8031496062992126,
          "duration": 0.06770830625001167
        },
        {
          "name": "A4",
          "midi": 69,
          "time": 145.41660850000048,
          "velocity": 1,
          "duration": 0.0694444166666699
        },
        {
          "name": "A4",
          "midi": 69,
          "time": 145.52077512500048,
          "velocity": 0.8267716535433071,
          "duration": 0.0694444166666699
        },
        {
          "name": "A4",
          "midi": 69,
          "time": 145.62320563958383,
          "velocity": 0.84251968503937,
          "duration": 0.07118052708332812
        },
        {
          "name": "A4",
          "midi": 69,
          "time": 145.7291083750005,
          "velocity": 0.8031496062992126,
          "duration": 0.0694444166666699
        },
        {
          "name": "A4",
          "midi": 69,
          "time": 145.83153888958384,
          "velocity": 1,
          "duration": 0.07118052708332812
        },
        {
          "name": "A4",
          "midi": 69,
          "time": 145.93917773541716,
          "velocity": 0.8267716535433071,
          "duration": 0.0694444166666699
        },
        {
          "name": "A4",
          "midi": 69,
          "time": 146.04334436041717,
          "velocity": 0.8661417322834646,
          "duration": 0.0694444166666699
        },
        {
          "name": "A4",
          "midi": 69,
          "time": 146.14924709583383,
          "velocity": 0.8267716535433071,
          "duration": 0.0694444166666699
        },
        {
          "name": "A4",
          "midi": 69,
          "time": 146.2551498312505,
          "velocity": 1,
          "duration": 0.0694444166666699
        },
        {
          "name": "A4",
          "midi": 69,
          "time": 146.3593164562505,
          "velocity": 0.8503937007874016,
          "duration": 0.0694444166666699
        },
        {
          "name": "A4",
          "midi": 69,
          "time": 146.4634830812505,
          "velocity": 0.8661417322834646,
          "duration": 0.06770830625001167
        },
        {
          "name": "A4",
          "midi": 69,
          "time": 146.5676497062505,
          "velocity": 0.84251968503937,
          "duration": 0.06770830625001167
        },
        {
          "name": "A4",
          "midi": 69,
          "time": 146.6718163312505,
          "velocity": 1,
          "duration": 0.07118052708332812
        },
        {
          "name": "A4",
          "midi": 69,
          "time": 146.77598295625052,
          "velocity": 0.84251968503937,
          "duration": 0.0694444166666699
        },
        {
          "name": "A4",
          "midi": 69,
          "time": 146.87841347083386,
          "velocity": 0.8661417322834646,
          "duration": 0.0694444166666699
        },
        {
          "name": "A4",
          "midi": 69,
          "time": 146.98258009583387,
          "velocity": 0.8503937007874016,
          "duration": 0.06770830625001167
        },
        {
          "name": "A4",
          "midi": 69,
          "time": 147.0850106104172,
          "velocity": 1,
          "duration": 0.07118052708332812
        },
        {
          "name": "A4",
          "midi": 69,
          "time": 147.19091334583388,
          "velocity": 0.8818897637795275,
          "duration": 0.0694444166666699
        },
        {
          "name": "A4",
          "midi": 69,
          "time": 147.29507997083388,
          "velocity": 0.8661417322834646,
          "duration": 0.0694444166666699
        },
        {
          "name": "A4",
          "midi": 69,
          "time": 147.39751048541723,
          "velocity": 0.8661417322834646,
          "duration": 0.07118052708332812
        },
        {
          "name": "A4",
          "midi": 69,
          "time": 147.50167711041723,
          "velocity": 1,
          "duration": 0.06597219583332503
        },
        {
          "name": "A4",
          "midi": 69,
          "time": 147.60584373541724,
          "velocity": 0.8267716535433071,
          "duration": 0.0694444166666699
        },
        {
          "name": "A4",
          "midi": 69,
          "time": 147.71001036041724,
          "velocity": 0.84251968503937,
          "duration": 0.06770830625001167
        },
        {
          "name": "A4",
          "midi": 69,
          "time": 147.81417698541725,
          "velocity": 0.8031496062992126,
          "duration": 0.06770830625001167
        },
        {
          "name": "A4",
          "midi": 69,
          "time": 147.9166075000006,
          "velocity": 1,
          "duration": 0.0694444166666699
        },
        {
          "name": "A4",
          "midi": 69,
          "time": 148.0207741250006,
          "velocity": 0.8267716535433071,
          "duration": 0.0694444166666699
        },
        {
          "name": "A4",
          "midi": 69,
          "time": 148.12320463958395,
          "velocity": 0.84251968503937,
          "duration": 0.07118052708332812
        },
        {
          "name": "A4",
          "midi": 69,
          "time": 148.2291073750006,
          "velocity": 0.8031496062992126,
          "duration": 0.0694444166666699
        },
        {
          "name": "A4",
          "midi": 69,
          "time": 148.33153788958396,
          "velocity": 1,
          "duration": 0.07118052708332812
        },
        {
          "name": "A4",
          "midi": 69,
          "time": 148.43917673541728,
          "velocity": 0.8267716535433071,
          "duration": 0.0694444166666699
        },
        {
          "name": "A4",
          "midi": 69,
          "time": 148.54334336041728,
          "velocity": 0.8661417322834646,
          "duration": 0.0694444166666699
        },
        {
          "name": "A4",
          "midi": 69,
          "time": 148.64924609583394,
          "velocity": 0.8267716535433071,
          "duration": 0.0694444166666699
        },
        {
          "name": "A4",
          "midi": 69,
          "time": 148.7551488312506,
          "velocity": 1,
          "duration": 0.0694444166666699
        },
        {
          "name": "A4",
          "midi": 69,
          "time": 148.8593154562506,
          "velocity": 0.8503937007874016,
          "duration": 0.0694444166666699
        },
        {
          "name": "A4",
          "midi": 69,
          "time": 148.96348208125062,
          "velocity": 0.8661417322834646,
          "duration": 0.06770830625001167
        },
        {
          "name": "A4",
          "midi": 69,
          "time": 149.06764870625062,
          "velocity": 0.84251968503937,
          "duration": 0.06770830625001167
        },
        {
          "name": "A4",
          "midi": 69,
          "time": 149.17181533125063,
          "velocity": 1,
          "duration": 0.07118052708332812
        },
        {
          "name": "A4",
          "midi": 69,
          "time": 149.27598195625063,
          "velocity": 0.84251968503937,
          "duration": 0.0694444166666699
        },
        {
          "name": "A4",
          "midi": 69,
          "time": 149.37841247083398,
          "velocity": 0.8661417322834646,
          "duration": 0.0694444166666699
        },
        {
          "name": "A4",
          "midi": 69,
          "time": 149.48257909583398,
          "velocity": 0.8503937007874016,
          "duration": 0.06770830625001167
        },
        {
          "name": "A4",
          "midi": 69,
          "time": 149.58500961041733,
          "velocity": 1,
          "duration": 0.07118052708332812
        },
        {
          "name": "A4",
          "midi": 69,
          "time": 149.690912345834,
          "velocity": 0.8818897637795275,
          "duration": 0.0694444166666699
        },
        {
          "name": "A4",
          "midi": 69,
          "time": 149.795078970834,
          "velocity": 0.8661417322834646,
          "duration": 0.0694444166666699
        },
        {
          "name": "A4",
          "midi": 69,
          "time": 149.89750948541734,
          "velocity": 0.8661417322834646,
          "duration": 0.07118052708332812
        },
        {
          "name": "A4",
          "midi": 69,
          "time": 188.75166061041736,
          "velocity": 1,
          "duration": 0.07118052708332812
        },
        {
          "name": "A4",
          "midi": 69,
          "time": 188.85756334583402,
          "velocity": 0.7401574803149606,
          "duration": 0.07291663749998634
        },
        {
          "name": "A4",
          "midi": 69,
          "time": 188.9634660812507,
          "velocity": 0.84251968503937,
          "duration": 0.07291663749998634
        },
        {
          "name": "A4",
          "midi": 69,
          "time": 189.06763270625066,
          "velocity": 0.7716535433070866,
          "duration": 0.06770830625001167
        },
        {
          "name": "A4",
          "midi": 69,
          "time": 189.17353544166735,
          "velocity": 1,
          "duration": 0.07118052708332812
        },
        {
          "name": "A4",
          "midi": 69,
          "time": 189.27596595625067,
          "velocity": 0.7322834645669292,
          "duration": 0.0694444166666699
        },
        {
          "name": "A4",
          "midi": 69,
          "time": 189.378396470834,
          "velocity": 0.84251968503937,
          "duration": 0.07291663749998634
        },
        {
          "name": "A4",
          "midi": 69,
          "time": 189.48256309583397,
          "velocity": 0.8661417322834646,
          "duration": 0.07118052708332812
        },
        {
          "name": "A4",
          "midi": 69,
          "time": 189.58846583125063,
          "velocity": 1,
          "duration": 0.07291663749998634
        },
        {
          "name": "A4",
          "midi": 69,
          "time": 189.69089634583395,
          "velocity": 0.8661417322834646,
          "duration": 0.07118052708332812
        },
        {
          "name": "A4",
          "midi": 69,
          "time": 189.79332686041727,
          "velocity": 0.8661417322834646,
          "duration": 0.07118052708332812
        },
        {
          "name": "A4",
          "midi": 69,
          "time": 189.89749348541727,
          "velocity": 0.8818897637795275,
          "duration": 0.07465274791667298
        },
        {
          "name": "A4",
          "midi": 69,
          "time": 190.00166011041728,
          "velocity": 1,
          "duration": 0.06597219583335345
        },
        {
          "name": "A4",
          "midi": 69,
          "time": 190.1058267354173,
          "velocity": 0.8267716535433071,
          "duration": 0.0694444166666699
        },
        {
          "name": "A4",
          "midi": 69,
          "time": 190.20999336041731,
          "velocity": 0.84251968503937,
          "duration": 0.06770830624998325
        },
        {
          "name": "A4",
          "midi": 69,
          "time": 190.3141599854173,
          "velocity": 0.8031496062992126,
          "duration": 0.06770830625001167
        },
        {
          "name": "A4",
          "midi": 69,
          "time": 190.41659050000064,
          "velocity": 1,
          "duration": 0.0694444166666699
        },
        {
          "name": "A4",
          "midi": 69,
          "time": 190.52075712500064,
          "velocity": 0.8267716535433071,
          "duration": 0.0694444166666699
        },
        {
          "name": "A4",
          "midi": 69,
          "time": 190.623187639584,
          "velocity": 0.84251968503937,
          "duration": 0.07118052708335654
        },
        {
          "name": "A4",
          "midi": 69,
          "time": 190.72909037500068,
          "velocity": 0.8031496062992126,
          "duration": 0.06944441666664147
        },
        {
          "name": "A4",
          "midi": 69,
          "time": 190.831520889584,
          "velocity": 1,
          "duration": 0.07118052708332812
        },
        {
          "name": "A4",
          "midi": 69,
          "time": 190.93915973541732,
          "velocity": 0.8267716535433071,
          "duration": 0.0694444166666699
        },
        {
          "name": "A4",
          "midi": 69,
          "time": 191.04332636041732,
          "velocity": 0.8661417322834646,
          "duration": 0.0694444166666699
        },
        {
          "name": "A4",
          "midi": 69,
          "time": 191.149229095834,
          "velocity": 0.8267716535433071,
          "duration": 0.0694444166666699
        },
        {
          "name": "A4",
          "midi": 69,
          "time": 191.25513183125065,
          "velocity": 1,
          "duration": 0.0694444166666699
        },
        {
          "name": "A4",
          "midi": 69,
          "time": 191.35929845625066,
          "velocity": 0.8503937007874016,
          "duration": 0.0694444166666699
        },
        {
          "name": "A4",
          "midi": 69,
          "time": 191.46346508125066,
          "velocity": 0.8661417322834646,
          "duration": 0.06770830625001167
        },
        {
          "name": "A4",
          "midi": 69,
          "time": 191.56763170625067,
          "velocity": 0.84251968503937,
          "duration": 0.06770830625001167
        },
        {
          "name": "A4",
          "midi": 69,
          "time": 191.67179833125067,
          "velocity": 1,
          "duration": 0.07118052708332812
        },
        {
          "name": "A4",
          "midi": 69,
          "time": 191.77596495625068,
          "velocity": 0.84251968503937,
          "duration": 0.0694444166666699
        },
        {
          "name": "A4",
          "midi": 69,
          "time": 191.87839547083402,
          "velocity": 0.8661417322834646,
          "duration": 0.0694444166666699
        },
        {
          "name": "A4",
          "midi": 69,
          "time": 191.98256209583403,
          "velocity": 0.8503937007874016,
          "duration": 0.06770830625001167
        },
        {
          "name": "A4",
          "midi": 69,
          "time": 192.08499261041737,
          "velocity": 1,
          "duration": 0.07118052708332812
        },
        {
          "name": "A4",
          "midi": 69,
          "time": 192.19089534583404,
          "velocity": 0.8818897637795275,
          "duration": 0.0694444166666699
        },
        {
          "name": "A4",
          "midi": 69,
          "time": 192.29506197083404,
          "velocity": 0.8661417322834646,
          "duration": 0.0694444166666699
        },
        {
          "name": "A4",
          "midi": 69,
          "time": 192.3974924854174,
          "velocity": 0.8661417322834646,
          "duration": 0.07118052708332812
        },
        {
          "name": "A4",
          "midi": 69,
          "time": 192.50165911041736,
          "velocity": 1,
          "duration": 0.06597219583332503
        },
        {
          "name": "A4",
          "midi": 69,
          "time": 192.60582573541737,
          "velocity": 0.8267716535433071,
          "duration": 0.0694444166666699
        },
        {
          "name": "A4",
          "midi": 69,
          "time": 192.70999236041737,
          "velocity": 0.84251968503937,
          "duration": 0.06770830625001167
        },
        {
          "name": "A4",
          "midi": 69,
          "time": 192.81415898541738,
          "velocity": 0.8031496062992126,
          "duration": 0.06770830625001167
        },
        {
          "name": "A4",
          "midi": 69,
          "time": 192.91658950000073,
          "velocity": 1,
          "duration": 0.0694444166666699
        },
        {
          "name": "A4",
          "midi": 69,
          "time": 193.02075612500073,
          "velocity": 0.8267716535433071,
          "duration": 0.0694444166666699
        },
        {
          "name": "A4",
          "midi": 69,
          "time": 193.12318663958408,
          "velocity": 0.84251968503937,
          "duration": 0.07118052708332812
        },
        {
          "name": "A4",
          "midi": 69,
          "time": 193.22908937500074,
          "velocity": 0.8031496062992126,
          "duration": 0.0694444166666699
        },
        {
          "name": "A4",
          "midi": 69,
          "time": 193.3315198895841,
          "velocity": 1,
          "duration": 0.07118052708332812
        },
        {
          "name": "A4",
          "midi": 69,
          "time": 193.4391587354174,
          "velocity": 0.8267716535433071,
          "duration": 0.0694444166666699
        },
        {
          "name": "A4",
          "midi": 69,
          "time": 193.5433253604174,
          "velocity": 0.8661417322834646,
          "duration": 0.0694444166666699
        },
        {
          "name": "A4",
          "midi": 69,
          "time": 193.64922809583408,
          "velocity": 0.8267716535433071,
          "duration": 0.0694444166666699
        },
        {
          "name": "A4",
          "midi": 69,
          "time": 193.75513083125074,
          "velocity": 1,
          "duration": 0.0694444166666699
        },
        {
          "name": "A4",
          "midi": 69,
          "time": 193.85929745625074,
          "velocity": 0.8503937007874016,
          "duration": 0.0694444166666699
        },
        {
          "name": "A4",
          "midi": 69,
          "time": 193.96346408125075,
          "velocity": 0.8661417322834646,
          "duration": 0.06770830625001167
        },
        {
          "name": "A4",
          "midi": 69,
          "time": 194.06763070625075,
          "velocity": 0.84251968503937,
          "duration": 0.06770830625001167
        },
        {
          "name": "A4",
          "midi": 69,
          "time": 194.17179733125076,
          "velocity": 1,
          "duration": 0.07118052708332812
        },
        {
          "name": "A4",
          "midi": 69,
          "time": 194.27596395625076,
          "velocity": 0.84251968503937,
          "duration": 0.0694444166666699
        },
        {
          "name": "A4",
          "midi": 69,
          "time": 194.3783944708341,
          "velocity": 0.8661417322834646,
          "duration": 0.0694444166666699
        },
        {
          "name": "A4",
          "midi": 69,
          "time": 194.48256109583411,
          "velocity": 0.8503937007874016,
          "duration": 0.06770830625001167
        },
        {
          "name": "A4",
          "midi": 69,
          "time": 194.58499161041746,
          "velocity": 1,
          "duration": 0.07118052708332812
        },
        {
          "name": "A4",
          "midi": 69,
          "time": 194.69089434583412,
          "velocity": 0.8818897637795275,
          "duration": 0.0694444166666699
        },
        {
          "name": "A4",
          "midi": 69,
          "time": 194.79506097083413,
          "velocity": 0.8661417322834646,
          "duration": 0.0694444166666699
        },
        {
          "name": "A4",
          "midi": 69,
          "time": 194.89749148541748,
          "velocity": 0.8661417322834646,
          "duration": 0.07118052708332812
        },
        {
          "name": "A4",
          "midi": 69,
          "time": 195.00165811041748,
          "velocity": 1,
          "duration": 0.06597219583332503
        },
        {
          "name": "A4",
          "midi": 69,
          "time": 195.10582473541749,
          "velocity": 0.8267716535433071,
          "duration": 0.0694444166666699
        },
        {
          "name": "A4",
          "midi": 69,
          "time": 195.2099913604175,
          "velocity": 0.84251968503937,
          "duration": 0.06770830625001167
        },
        {
          "name": "A4",
          "midi": 69,
          "time": 195.3141579854175,
          "velocity": 0.8031496062992126,
          "duration": 0.06770830625001167
        },
        {
          "name": "A4",
          "midi": 69,
          "time": 195.41658850000084,
          "velocity": 1,
          "duration": 0.0694444166666699
        },
        {
          "name": "A4",
          "midi": 69,
          "time": 195.52075512500085,
          "velocity": 0.8267716535433071,
          "duration": 0.0694444166666699
        },
        {
          "name": "A4",
          "midi": 69,
          "time": 195.6231856395842,
          "velocity": 0.84251968503937,
          "duration": 0.07118052708332812
        },
        {
          "name": "A4",
          "midi": 69,
          "time": 195.72908837500086,
          "velocity": 0.8031496062992126,
          "duration": 0.0694444166666699
        },
        {
          "name": "A4",
          "midi": 69,
          "time": 195.8315188895842,
          "velocity": 1,
          "duration": 0.07118052708332812
        },
        {
          "name": "A4",
          "midi": 69,
          "time": 195.93915773541752,
          "velocity": 0.8267716535433071,
          "duration": 0.0694444166666699
        },
        {
          "name": "A4",
          "midi": 69,
          "time": 196.04332436041753,
          "velocity": 0.8661417322834646,
          "duration": 0.0694444166666699
        },
        {
          "name": "A4",
          "midi": 69,
          "time": 196.1492270958342,
          "velocity": 0.8267716535433071,
          "duration": 0.0694444166666699
        },
        {
          "name": "A4",
          "midi": 69,
          "time": 196.25512983125085,
          "velocity": 1,
          "duration": 0.0694444166666699
        },
        {
          "name": "A4",
          "midi": 69,
          "time": 196.35929645625086,
          "velocity": 0.8503937007874016,
          "duration": 0.0694444166666699
        },
        {
          "name": "A4",
          "midi": 69,
          "time": 196.46346308125086,
          "velocity": 0.8661417322834646,
          "duration": 0.06770830625001167
        },
        {
          "name": "A4",
          "midi": 69,
          "time": 196.56762970625087,
          "velocity": 0.84251968503937,
          "duration": 0.06770830625001167
        },
        {
          "name": "A4",
          "midi": 69,
          "time": 196.67179633125087,
          "velocity": 1,
          "duration": 0.07118052708332812
        },
        {
          "name": "A4",
          "midi": 69,
          "time": 196.77596295625088,
          "velocity": 0.84251968503937,
          "duration": 0.0694444166666699
        },
        {
          "name": "A4",
          "midi": 69,
          "time": 196.87839347083423,
          "velocity": 0.8661417322834646,
          "duration": 0.0694444166666699
        },
        {
          "name": "A4",
          "midi": 69,
          "time": 196.98256009583423,
          "velocity": 0.8503937007874016,
          "duration": 0.06770830625001167
        },
        {
          "name": "A4",
          "midi": 69,
          "time": 197.08499061041758,
          "velocity": 1,
          "duration": 0.07118052708332812
        },
        {
          "name": "A4",
          "midi": 69,
          "time": 197.19089334583424,
          "velocity": 0.8818897637795275,
          "duration": 0.0694444166666699
        },
        {
          "name": "A4",
          "midi": 69,
          "time": 197.29505997083425,
          "velocity": 0.8661417322834646,
          "duration": 0.0694444166666699
        },
        {
          "name": "A4",
          "midi": 69,
          "time": 197.3974904854176,
          "velocity": 0.8661417322834646,
          "duration": 0.07118052708332812
        },
        {
          "name": "A4",
          "midi": 69,
          "time": 197.5016571104176,
          "velocity": 1,
          "duration": 0.06597219583332503
        },
        {
          "name": "A4",
          "midi": 69,
          "time": 197.6058237354176,
          "velocity": 0.8267716535433071,
          "duration": 0.0694444166666699
        },
        {
          "name": "A4",
          "midi": 69,
          "time": 197.7099903604176,
          "velocity": 0.84251968503937,
          "duration": 0.06770830625001167
        },
        {
          "name": "A4",
          "midi": 69,
          "time": 197.8141569854176,
          "velocity": 0.8031496062992126,
          "duration": 0.06770830625001167
        },
        {
          "name": "A4",
          "midi": 69,
          "time": 197.91658750000096,
          "velocity": 1,
          "duration": 0.0694444166666699
        },
        {
          "name": "A4",
          "midi": 69,
          "time": 198.02075412500096,
          "velocity": 0.8267716535433071,
          "duration": 0.0694444166666699
        },
        {
          "name": "A4",
          "midi": 69,
          "time": 198.1231846395843,
          "velocity": 0.84251968503937,
          "duration": 0.07118052708332812
        },
        {
          "name": "A4",
          "midi": 69,
          "time": 198.22908737500097,
          "velocity": 0.8031496062992126,
          "duration": 0.0694444166666699
        },
        {
          "name": "A4",
          "midi": 69,
          "time": 198.33151788958432,
          "velocity": 1,
          "duration": 0.07118052708332812
        },
        {
          "name": "A4",
          "midi": 69,
          "time": 198.43915673541764,
          "velocity": 0.8267716535433071,
          "duration": 0.0694444166666699
        },
        {
          "name": "A4",
          "midi": 69,
          "time": 198.54332336041765,
          "velocity": 0.8661417322834646,
          "duration": 0.0694444166666699
        },
        {
          "name": "A4",
          "midi": 69,
          "time": 198.6492260958343,
          "velocity": 0.8267716535433071,
          "duration": 0.0694444166666699
        },
        {
          "name": "A4",
          "midi": 69,
          "time": 198.75512883125097,
          "velocity": 1,
          "duration": 0.0694444166666699
        },
        {
          "name": "A4",
          "midi": 69,
          "time": 198.85929545625098,
          "velocity": 0.8503937007874016,
          "duration": 0.0694444166666699
        },
        {
          "name": "A4",
          "midi": 69,
          "time": 198.96346208125098,
          "velocity": 0.8661417322834646,
          "duration": 0.06770830625001167
        },
        {
          "name": "A4",
          "midi": 69,
          "time": 199.06762870625099,
          "velocity": 0.84251968503937,
          "duration": 0.06770830625001167
        },
        {
          "name": "A4",
          "midi": 69,
          "time": 199.171795331251,
          "velocity": 1,
          "duration": 0.07118052708332812
        },
        {
          "name": "A4",
          "midi": 69,
          "time": 199.275961956251,
          "velocity": 0.84251968503937,
          "duration": 0.0694444166666699
        },
        {
          "name": "A4",
          "midi": 69,
          "time": 199.37839247083434,
          "velocity": 0.8661417322834646,
          "duration": 0.0694444166666699
        },
        {
          "name": "A4",
          "midi": 69,
          "time": 199.48255909583435,
          "velocity": 0.8503937007874016,
          "duration": 0.06770830625001167
        },
        {
          "name": "A4",
          "midi": 69,
          "time": 199.5849896104177,
          "velocity": 1,
          "duration": 0.07118052708332812
        },
        {
          "name": "A4",
          "midi": 69,
          "time": 199.69089234583436,
          "velocity": 0.8818897637795275,
          "duration": 0.0694444166666699
        },
        {
          "name": "A4",
          "midi": 69,
          "time": 199.79505897083436,
          "velocity": 0.8661417322834646,
          "duration": 0.0694444166666699
        },
        {
          "name": "A4",
          "midi": 69,
          "time": 199.8974894854177,
          "velocity": 0.8661417322834646,
          "duration": 0.07118052708332812
        },
        {
          "name": "A4",
          "midi": 69,
          "time": 200.0016561104177,
          "velocity": 1,
          "duration": 0.06597219583332503
        },
        {
          "name": "A4",
          "midi": 69,
          "time": 200.10582273541772,
          "velocity": 0.8267716535433071,
          "duration": 0.0694444166666699
        },
        {
          "name": "A4",
          "midi": 69,
          "time": 200.20998936041772,
          "velocity": 0.84251968503937,
          "duration": 0.06770830625001167
        },
        {
          "name": "A4",
          "midi": 69,
          "time": 200.31415598541773,
          "velocity": 0.8031496062992126,
          "duration": 0.06770830625001167
        },
        {
          "name": "A4",
          "midi": 69,
          "time": 200.41658650000107,
          "velocity": 1,
          "duration": 0.0694444166666699
        },
        {
          "name": "A4",
          "midi": 69,
          "time": 200.52075312500108,
          "velocity": 0.8267716535433071,
          "duration": 0.0694444166666699
        },
        {
          "name": "A4",
          "midi": 69,
          "time": 200.62318363958443,
          "velocity": 0.84251968503937,
          "duration": 0.07118052708332812
        },
        {
          "name": "A4",
          "midi": 69,
          "time": 200.7290863750011,
          "velocity": 0.8031496062992126,
          "duration": 0.0694444166666699
        },
        {
          "name": "A4",
          "midi": 69,
          "time": 200.83151688958444,
          "velocity": 1,
          "duration": 0.07118052708332812
        },
        {
          "name": "A4",
          "midi": 69,
          "time": 200.93915573541776,
          "velocity": 0.8267716535433071,
          "duration": 0.0694444166666699
        },
        {
          "name": "A4",
          "midi": 69,
          "time": 201.04332236041776,
          "velocity": 0.8661417322834646,
          "duration": 0.0694444166666699
        },
        {
          "name": "A4",
          "midi": 69,
          "time": 201.14922509583442,
          "velocity": 0.8267716535433071,
          "duration": 0.0694444166666699
        },
        {
          "name": "A4",
          "midi": 69,
          "time": 201.2551278312511,
          "velocity": 1,
          "duration": 0.0694444166666699
        },
        {
          "name": "A4",
          "midi": 69,
          "time": 201.3592944562511,
          "velocity": 0.8503937007874016,
          "duration": 0.0694444166666699
        },
        {
          "name": "A4",
          "midi": 69,
          "time": 201.4634610812511,
          "velocity": 0.8661417322834646,
          "duration": 0.06770830625001167
        },
        {
          "name": "A4",
          "midi": 69,
          "time": 201.5676277062511,
          "velocity": 0.84251968503937,
          "duration": 0.06770830625001167
        },
        {
          "name": "A4",
          "midi": 69,
          "time": 201.6717943312511,
          "velocity": 1,
          "duration": 0.07118052708332812
        },
        {
          "name": "A4",
          "midi": 69,
          "time": 201.7759609562511,
          "velocity": 0.84251968503937,
          "duration": 0.0694444166666699
        },
        {
          "name": "A4",
          "midi": 69,
          "time": 201.87839147083446,
          "velocity": 0.8661417322834646,
          "duration": 0.0694444166666699
        },
        {
          "name": "A4",
          "midi": 69,
          "time": 201.98255809583446,
          "velocity": 0.8503937007874016,
          "duration": 0.06770830625001167
        },
        {
          "name": "A4",
          "midi": 69,
          "time": 202.0849886104178,
          "velocity": 1,
          "duration": 0.07118052708332812
        },
        {
          "name": "A4",
          "midi": 69,
          "time": 202.19089134583447,
          "velocity": 0.8818897637795275,
          "duration": 0.0694444166666699
        },
        {
          "name": "A4",
          "midi": 69,
          "time": 202.29505797083448,
          "velocity": 0.8661417322834646,
          "duration": 0.0694444166666699
        },
        {
          "name": "A4",
          "midi": 69,
          "time": 202.39748848541782,
          "velocity": 0.8661417322834646,
          "duration": 0.07118052708332812
        },
        {
          "name": "A4",
          "midi": 69,
          "time": 202.50165511041783,
          "velocity": 1,
          "duration": 0.06597219583332503
        },
        {
          "name": "A4",
          "midi": 69,
          "time": 202.60582173541783,
          "velocity": 0.8267716535433071,
          "duration": 0.0694444166666699
        },
        {
          "name": "A4",
          "midi": 69,
          "time": 202.70998836041784,
          "velocity": 0.84251968503937,
          "duration": 0.06770830625001167
        },
        {
          "name": "A4",
          "midi": 69,
          "time": 202.81415498541784,
          "velocity": 0.8031496062992126,
          "duration": 0.06770830625001167
        },
        {
          "name": "A4",
          "midi": 69,
          "time": 202.9165855000012,
          "velocity": 1,
          "duration": 0.0694444166666699
        },
        {
          "name": "A4",
          "midi": 69,
          "time": 203.0207521250012,
          "velocity": 0.8267716535433071,
          "duration": 0.0694444166666699
        },
        {
          "name": "A4",
          "midi": 69,
          "time": 203.12318263958454,
          "velocity": 0.84251968503937,
          "duration": 0.07118052708332812
        },
        {
          "name": "A4",
          "midi": 69,
          "time": 203.2290853750012,
          "velocity": 0.8031496062992126,
          "duration": 0.0694444166666699
        },
        {
          "name": "A4",
          "midi": 69,
          "time": 203.33151588958455,
          "velocity": 1,
          "duration": 0.07118052708332812
        },
        {
          "name": "A4",
          "midi": 69,
          "time": 203.43915473541787,
          "velocity": 0.8267716535433071,
          "duration": 0.0694444166666699
        },
        {
          "name": "A4",
          "midi": 69,
          "time": 203.54332136041788,
          "velocity": 0.8661417322834646,
          "duration": 0.0694444166666699
        },
        {
          "name": "A4",
          "midi": 69,
          "time": 203.64922409583454,
          "velocity": 0.8267716535433071,
          "duration": 0.0694444166666699
        },
        {
          "name": "A4",
          "midi": 69,
          "time": 203.7551268312512,
          "velocity": 1,
          "duration": 0.0694444166666699
        },
        {
          "name": "A4",
          "midi": 69,
          "time": 203.8592934562512,
          "velocity": 0.8503937007874016,
          "duration": 0.0694444166666699
        },
        {
          "name": "A4",
          "midi": 69,
          "time": 203.9634600812512,
          "velocity": 0.8661417322834646,
          "duration": 0.06770830625001167
        },
        {
          "name": "A4",
          "midi": 69,
          "time": 204.06762670625122,
          "velocity": 0.84251968503937,
          "duration": 0.06770830625001167
        },
        {
          "name": "A4",
          "midi": 69,
          "time": 204.17179333125122,
          "velocity": 1,
          "duration": 0.07118052708332812
        },
        {
          "name": "A4",
          "midi": 69,
          "time": 204.27595995625123,
          "velocity": 0.84251968503937,
          "duration": 0.0694444166666699
        },
        {
          "name": "A4",
          "midi": 69,
          "time": 204.37839047083457,
          "velocity": 0.8661417322834646,
          "duration": 0.0694444166666699
        },
        {
          "name": "A4",
          "midi": 69,
          "time": 204.48255709583458,
          "velocity": 0.8503937007874016,
          "duration": 0.06770830625001167
        },
        {
          "name": "A4",
          "midi": 69,
          "time": 204.58498761041793,
          "velocity": 1,
          "duration": 0.07118052708332812
        },
        {
          "name": "A4",
          "midi": 69,
          "time": 204.6908903458346,
          "velocity": 0.8818897637795275,
          "duration": 0.0694444166666699
        },
        {
          "name": "A4",
          "midi": 69,
          "time": 204.7950569708346,
          "velocity": 0.8661417322834646,
          "duration": 0.0694444166666699
        },
        {
          "name": "A4",
          "midi": 69,
          "time": 204.89748748541794,
          "velocity": 0.8661417322834646,
          "duration": 0.07118052708332812
        },
        {
          "name": "A4",
          "midi": 69,
          "time": 205.00165411041795,
          "velocity": 1,
          "duration": 0.06597219583332503
        },
        {
          "name": "A4",
          "midi": 69,
          "time": 205.10582073541795,
          "velocity": 0.8267716535433071,
          "duration": 0.0694444166666699
        },
        {
          "name": "A4",
          "midi": 69,
          "time": 205.20998736041795,
          "velocity": 0.84251968503937,
          "duration": 0.06770830625001167
        },
        {
          "name": "A4",
          "midi": 69,
          "time": 205.31415398541796,
          "velocity": 0.8031496062992126,
          "duration": 0.06770830625001167
        },
        {
          "name": "A4",
          "midi": 69,
          "time": 205.4165845000013,
          "velocity": 1,
          "duration": 0.0694444166666699
        },
        {
          "name": "A4",
          "midi": 69,
          "time": 205.5207511250013,
          "velocity": 0.8267716535433071,
          "duration": 0.0694444166666699
        },
        {
          "name": "A4",
          "midi": 69,
          "time": 205.62318163958466,
          "velocity": 0.84251968503937,
          "duration": 0.07118052708332812
        },
        {
          "name": "A4",
          "midi": 69,
          "time": 205.72908437500132,
          "velocity": 0.8031496062992126,
          "duration": 0.0694444166666699
        },
        {
          "name": "A4",
          "midi": 69,
          "time": 205.83151488958467,
          "velocity": 1,
          "duration": 0.07118052708332812
        },
        {
          "name": "A4",
          "midi": 69,
          "time": 205.939153735418,
          "velocity": 0.8267716535433071,
          "duration": 0.0694444166666699
        },
        {
          "name": "A4",
          "midi": 69,
          "time": 206.043320360418,
          "velocity": 0.8661417322834646,
          "duration": 0.0694444166666699
        },
        {
          "name": "A4",
          "midi": 69,
          "time": 206.14922309583466,
          "velocity": 0.8267716535433071,
          "duration": 0.0694444166666699
        },
        {
          "name": "A4",
          "midi": 69,
          "time": 206.25512583125132,
          "velocity": 1,
          "duration": 0.0694444166666699
        },
        {
          "name": "A4",
          "midi": 69,
          "time": 206.35929245625132,
          "velocity": 0.8503937007874016,
          "duration": 0.0694444166666699
        },
        {
          "name": "A4",
          "midi": 69,
          "time": 206.46345908125133,
          "velocity": 0.8661417322834646,
          "duration": 0.06770830625001167
        },
        {
          "name": "A4",
          "midi": 69,
          "time": 206.56762570625133,
          "velocity": 0.84251968503937,
          "duration": 0.06770830625001167
        },
        {
          "name": "A4",
          "midi": 69,
          "time": 206.67179233125134,
          "velocity": 1,
          "duration": 0.07118052708332812
        },
        {
          "name": "A4",
          "midi": 69,
          "time": 206.77595895625134,
          "velocity": 0.84251968503937,
          "duration": 0.0694444166666699
        },
        {
          "name": "A4",
          "midi": 69,
          "time": 206.8783894708347,
          "velocity": 0.8661417322834646,
          "duration": 0.0694444166666699
        },
        {
          "name": "A4",
          "midi": 69,
          "time": 206.9825560958347,
          "velocity": 0.8503937007874016,
          "duration": 0.06770830625001167
        },
        {
          "name": "A4",
          "midi": 69,
          "time": 207.08498661041804,
          "velocity": 1,
          "duration": 0.07118052708332812
        },
        {
          "name": "A4",
          "midi": 69,
          "time": 207.1908893458347,
          "velocity": 0.8818897637795275,
          "duration": 0.0694444166666699
        },
        {
          "name": "A4",
          "midi": 69,
          "time": 207.2950559708347,
          "velocity": 0.8661417322834646,
          "duration": 0.0694444166666699
        },
        {
          "name": "A4",
          "midi": 69,
          "time": 207.39748648541806,
          "velocity": 0.8661417322834646,
          "duration": 0.07118052708332812
        },
        {
          "name": "A4",
          "midi": 69,
          "time": 207.50165311041806,
          "velocity": 1,
          "duration": 0.06597219583332503
        },
        {
          "name": "A4",
          "midi": 69,
          "time": 207.60581973541807,
          "velocity": 0.8267716535433071,
          "duration": 0.0694444166666699
        },
        {
          "name": "A4",
          "midi": 69,
          "time": 207.70998636041807,
          "velocity": 0.84251968503937,
          "duration": 0.06770830625001167
        },
        {
          "name": "A4",
          "midi": 69,
          "time": 207.81415298541808,
          "velocity": 0.8031496062992126,
          "duration": 0.06770830625001167
        },
        {
          "name": "A4",
          "midi": 69,
          "time": 207.91658350000142,
          "velocity": 1,
          "duration": 0.0694444166666699
        },
        {
          "name": "A4",
          "midi": 69,
          "time": 208.02075012500143,
          "velocity": 0.8267716535433071,
          "duration": 0.0694444166666699
        },
        {
          "name": "A4",
          "midi": 69,
          "time": 208.12318063958477,
          "velocity": 0.84251968503937,
          "duration": 0.07118052708332812
        },
        {
          "name": "A4",
          "midi": 69,
          "time": 208.22908337500144,
          "velocity": 0.8031496062992126,
          "duration": 0.0694444166666699
        },
        {
          "name": "A4",
          "midi": 69,
          "time": 208.33151388958478,
          "velocity": 1,
          "duration": 0.07118052708332812
        },
        {
          "name": "A4",
          "midi": 69,
          "time": 208.4391527354181,
          "velocity": 0.8267716535433071,
          "duration": 0.0694444166666699
        },
        {
          "name": "A4",
          "midi": 69,
          "time": 208.5433193604181,
          "velocity": 0.8661417322834646,
          "duration": 0.0694444166666699
        },
        {
          "name": "A4",
          "midi": 69,
          "time": 208.64922209583477,
          "velocity": 0.8267716535433071,
          "duration": 0.0694444166666699
        },
        {
          "name": "A4",
          "midi": 69,
          "time": 208.75512483125144,
          "velocity": 1,
          "duration": 0.0694444166666699
        },
        {
          "name": "A4",
          "midi": 69,
          "time": 208.85929145625144,
          "velocity": 0.8503937007874016,
          "duration": 0.0694444166666699
        },
        {
          "name": "A4",
          "midi": 69,
          "time": 208.96345808125145,
          "velocity": 0.8661417322834646,
          "duration": 0.06770830625001167
        },
        {
          "name": "A4",
          "midi": 69,
          "time": 209.06762470625145,
          "velocity": 0.84251968503937,
          "duration": 0.06770830625001167
        },
        {
          "name": "A4",
          "midi": 69,
          "time": 209.17179133125146,
          "velocity": 1,
          "duration": 0.07118052708332812
        },
        {
          "name": "A4",
          "midi": 69,
          "time": 209.27595795625146,
          "velocity": 0.84251968503937,
          "duration": 0.0694444166666699
        },
        {
          "name": "A4",
          "midi": 69,
          "time": 209.3783884708348,
          "velocity": 0.8661417322834646,
          "duration": 0.0694444166666699
        },
        {
          "name": "A4",
          "midi": 69,
          "time": 209.4825550958348,
          "velocity": 0.8503937007874016,
          "duration": 0.06770830625001167
        },
        {
          "name": "A4",
          "midi": 69,
          "time": 209.58498561041816,
          "velocity": 1,
          "duration": 0.07118052708332812
        },
        {
          "name": "A4",
          "midi": 69,
          "time": 209.69088834583482,
          "velocity": 0.8818897637795275,
          "duration": 0.0694444166666699
        },
        {
          "name": "A4",
          "midi": 69,
          "time": 209.79505497083483,
          "velocity": 0.8661417322834646,
          "duration": 0.0694444166666699
        },
        {
          "name": "A4",
          "midi": 69,
          "time": 209.89748548541817,
          "velocity": 0.8661417322834646,
          "duration": 0.07118052708332812
        },
        {
          "name": "A4",
          "midi": 69,
          "time": 210.00165211041818,
          "velocity": 1,
          "duration": 0.06597219583332503
        },
        {
          "name": "A4",
          "midi": 69,
          "time": 210.10581873541818,
          "velocity": 0.8267716535433071,
          "duration": 0.0694444166666699
        },
        {
          "name": "A4",
          "midi": 69,
          "time": 210.2099853604182,
          "velocity": 0.84251968503937,
          "duration": 0.06770830625001167
        },
        {
          "name": "A4",
          "midi": 69,
          "time": 210.3141519854182,
          "velocity": 0.8031496062992126,
          "duration": 0.06770830625001167
        },
        {
          "name": "A4",
          "midi": 69,
          "time": 210.41658250000154,
          "velocity": 1,
          "duration": 0.0694444166666699
        },
        {
          "name": "A4",
          "midi": 69,
          "time": 210.52074912500154,
          "velocity": 0.8267716535433071,
          "duration": 0.0694444166666699
        },
        {
          "name": "A4",
          "midi": 69,
          "time": 210.6231796395849,
          "velocity": 0.84251968503937,
          "duration": 0.07118052708332812
        },
        {
          "name": "A4",
          "midi": 69,
          "time": 210.72908237500155,
          "velocity": 0.8031496062992126,
          "duration": 0.0694444166666699
        },
        {
          "name": "A4",
          "midi": 69,
          "time": 210.8315128895849,
          "velocity": 1,
          "duration": 0.07118052708332812
        },
        {
          "name": "A4",
          "midi": 69,
          "time": 210.93915173541822,
          "velocity": 0.8267716535433071,
          "duration": 0.0694444166666699
        },
        {
          "name": "A4",
          "midi": 69,
          "time": 211.04331836041823,
          "velocity": 0.8661417322834646,
          "duration": 0.0694444166666699
        },
        {
          "name": "A4",
          "midi": 69,
          "time": 211.1492210958349,
          "velocity": 0.8267716535433071,
          "duration": 0.0694444166666699
        },
        {
          "name": "A4",
          "midi": 69,
          "time": 211.25512383125155,
          "velocity": 1,
          "duration": 0.0694444166666699
        },
        {
          "name": "A4",
          "midi": 69,
          "time": 211.35929045625156,
          "velocity": 0.8503937007874016,
          "duration": 0.0694444166666699
        },
        {
          "name": "A4",
          "midi": 69,
          "time": 211.46345708125156,
          "velocity": 0.8661417322834646,
          "duration": 0.06770830625001167
        },
        {
          "name": "A4",
          "midi": 69,
          "time": 211.56762370625157,
          "velocity": 0.84251968503937,
          "duration": 0.06770830625001167
        },
        {
          "name": "A4",
          "midi": 69,
          "time": 211.67179033125157,
          "velocity": 1,
          "duration": 0.07118052708332812
        },
        {
          "name": "A4",
          "midi": 69,
          "time": 211.77595695625158,
          "velocity": 0.84251968503937,
          "duration": 0.0694444166666699
        },
        {
          "name": "A4",
          "midi": 69,
          "time": 211.87838747083492,
          "velocity": 0.8661417322834646,
          "duration": 0.0694444166666699
        },
        {
          "name": "A4",
          "midi": 69,
          "time": 211.98255409583493,
          "velocity": 0.8503937007874016,
          "duration": 0.06770830625001167
        },
        {
          "name": "A4",
          "midi": 69,
          "time": 212.08498461041827,
          "velocity": 1,
          "duration": 0.07118052708332812
        },
        {
          "name": "A4",
          "midi": 69,
          "time": 212.19088734583494,
          "velocity": 0.8818897637795275,
          "duration": 0.0694444166666699
        },
        {
          "name": "A4",
          "midi": 69,
          "time": 212.29505397083494,
          "velocity": 0.8661417322834646,
          "duration": 0.0694444166666699
        },
        {
          "name": "A4",
          "midi": 69,
          "time": 212.3974844854183,
          "velocity": 0.8661417322834646,
          "duration": 0.07118052708332812
        },
        {
          "name": "A4",
          "midi": 69,
          "time": 212.50165111041827,
          "velocity": 1,
          "duration": 0.06597219583332503
        },
        {
          "name": "A4",
          "midi": 69,
          "time": 212.60581773541827,
          "velocity": 0.8267716535433071,
          "duration": 0.0694444166666699
        },
        {
          "name": "A4",
          "midi": 69,
          "time": 212.70998436041828,
          "velocity": 0.84251968503937,
          "duration": 0.06770830625001167
        },
        {
          "name": "A4",
          "midi": 69,
          "time": 212.81415098541828,
          "velocity": 0.8031496062992126,
          "duration": 0.06770830625001167
        },
        {
          "name": "A4",
          "midi": 69,
          "time": 212.91658150000163,
          "velocity": 1,
          "duration": 0.0694444166666699
        },
        {
          "name": "A4",
          "midi": 69,
          "time": 213.02074812500163,
          "velocity": 0.8267716535433071,
          "duration": 0.0694444166666699
        },
        {
          "name": "A4",
          "midi": 69,
          "time": 213.12317863958498,
          "velocity": 0.84251968503937,
          "duration": 0.07118052708332812
        },
        {
          "name": "A4",
          "midi": 69,
          "time": 213.22908137500164,
          "velocity": 0.8031496062992126,
          "duration": 0.0694444166666699
        },
        {
          "name": "A4",
          "midi": 69,
          "time": 213.331511889585,
          "velocity": 1,
          "duration": 0.07118052708332812
        },
        {
          "name": "A4",
          "midi": 69,
          "time": 213.4391507354183,
          "velocity": 0.8267716535433071,
          "duration": 0.0694444166666699
        },
        {
          "name": "A4",
          "midi": 69,
          "time": 213.5433173604183,
          "velocity": 0.8661417322834646,
          "duration": 0.0694444166666699
        },
        {
          "name": "A4",
          "midi": 69,
          "time": 213.64922009583498,
          "velocity": 0.8267716535433071,
          "duration": 0.0694444166666699
        },
        {
          "name": "A4",
          "midi": 69,
          "time": 213.75512283125164,
          "velocity": 1,
          "duration": 0.0694444166666699
        },
        {
          "name": "A4",
          "midi": 69,
          "time": 213.85928945625164,
          "velocity": 0.8503937007874016,
          "duration": 0.0694444166666699
        },
        {
          "name": "A4",
          "midi": 69,
          "time": 213.96345608125165,
          "velocity": 0.8661417322834646,
          "duration": 0.06770830625001167
        },
        {
          "name": "A4",
          "midi": 69,
          "time": 214.06762270625165,
          "velocity": 0.84251968503937,
          "duration": 0.06770830625001167
        },
        {
          "name": "A4",
          "midi": 69,
          "time": 214.17178933125166,
          "velocity": 1,
          "duration": 0.07118052708332812
        },
        {
          "name": "A4",
          "midi": 69,
          "time": 214.27595595625166,
          "velocity": 0.84251968503937,
          "duration": 0.0694444166666699
        },
        {
          "name": "A4",
          "midi": 69,
          "time": 214.378386470835,
          "velocity": 0.8661417322834646,
          "duration": 0.0694444166666699
        },
        {
          "name": "A4",
          "midi": 69,
          "time": 214.48255309583502,
          "velocity": 0.8503937007874016,
          "duration": 0.06770830625001167
        },
        {
          "name": "A4",
          "midi": 69,
          "time": 214.58498361041836,
          "velocity": 1,
          "duration": 0.07118052708332812
        },
        {
          "name": "A4",
          "midi": 69,
          "time": 214.69088634583503,
          "velocity": 0.8818897637795275,
          "duration": 0.0694444166666699
        },
        {
          "name": "A4",
          "midi": 69,
          "time": 214.79505297083503,
          "velocity": 0.8661417322834646,
          "duration": 0.0694444166666699
        },
        {
          "name": "A4",
          "midi": 69,
          "time": 214.89748348541838,
          "velocity": 0.8661417322834646,
          "duration": 0.07118052708332812
        },
        {
          "name": "A4",
          "midi": 69,
          "time": 215.00165011041838,
          "velocity": 1,
          "duration": 0.06597219583332503
        },
        {
          "name": "A4",
          "midi": 69,
          "time": 215.1058167354184,
          "velocity": 0.8267716535433071,
          "duration": 0.0694444166666699
        },
        {
          "name": "A4",
          "midi": 69,
          "time": 215.2099833604184,
          "velocity": 0.84251968503937,
          "duration": 0.06770830625001167
        },
        {
          "name": "A4",
          "midi": 69,
          "time": 215.3141499854184,
          "velocity": 0.8031496062992126,
          "duration": 0.06770830625001167
        },
        {
          "name": "A4",
          "midi": 69,
          "time": 215.41658050000174,
          "velocity": 1,
          "duration": 0.0694444166666699
        },
        {
          "name": "A4",
          "midi": 69,
          "time": 215.52074712500175,
          "velocity": 0.8267716535433071,
          "duration": 0.0694444166666699
        },
        {
          "name": "A4",
          "midi": 69,
          "time": 215.6231776395851,
          "velocity": 0.84251968503937,
          "duration": 0.07118052708332812
        },
        {
          "name": "A4",
          "midi": 69,
          "time": 215.72908037500176,
          "velocity": 0.8031496062992126,
          "duration": 0.0694444166666699
        },
        {
          "name": "A4",
          "midi": 69,
          "time": 215.8315108895851,
          "velocity": 1,
          "duration": 0.07118052708332812
        },
        {
          "name": "A4",
          "midi": 69,
          "time": 215.93914973541843,
          "velocity": 0.8267716535433071,
          "duration": 0.0694444166666699
        },
        {
          "name": "A4",
          "midi": 69,
          "time": 216.04331636041843,
          "velocity": 0.8661417322834646,
          "duration": 0.0694444166666699
        },
        {
          "name": "A4",
          "midi": 69,
          "time": 216.1492190958351,
          "velocity": 0.8267716535433071,
          "duration": 0.0694444166666699
        },
        {
          "name": "A4",
          "midi": 69,
          "time": 216.25512183125176,
          "velocity": 1,
          "duration": 0.0694444166666699
        },
        {
          "name": "A4",
          "midi": 69,
          "time": 216.35928845625176,
          "velocity": 0.8503937007874016,
          "duration": 0.0694444166666699
        },
        {
          "name": "A4",
          "midi": 69,
          "time": 216.46345508125177,
          "velocity": 0.8661417322834646,
          "duration": 0.06770830625001167
        },
        {
          "name": "A4",
          "midi": 69,
          "time": 216.56762170625177,
          "velocity": 0.84251968503937,
          "duration": 0.06770830625001167
        },
        {
          "name": "A4",
          "midi": 69,
          "time": 216.67178833125178,
          "velocity": 1,
          "duration": 0.07118052708332812
        },
        {
          "name": "A4",
          "midi": 69,
          "time": 216.77595495625178,
          "velocity": 0.84251968503937,
          "duration": 0.0694444166666699
        },
        {
          "name": "A4",
          "midi": 69,
          "time": 216.87838547083513,
          "velocity": 0.8661417322834646,
          "duration": 0.0694444166666699
        },
        {
          "name": "A4",
          "midi": 69,
          "time": 216.98255209583513,
          "velocity": 0.8503937007874016,
          "duration": 0.06770830625001167
        },
        {
          "name": "A4",
          "midi": 69,
          "time": 217.08498261041848,
          "velocity": 1,
          "duration": 0.07118052708332812
        },
        {
          "name": "A4",
          "midi": 69,
          "time": 217.19088534583514,
          "velocity": 0.8818897637795275,
          "duration": 0.0694444166666699
        },
        {
          "name": "A4",
          "midi": 69,
          "time": 217.29505197083515,
          "velocity": 0.8661417322834646,
          "duration": 0.0694444166666699
        },
        {
          "name": "A4",
          "midi": 69,
          "time": 217.3974824854185,
          "velocity": 0.8661417322834646,
          "duration": 0.07118052708332812
        },
        {
          "name": "A4",
          "midi": 69,
          "time": 217.5016491104185,
          "velocity": 1,
          "duration": 0.06597219583332503
        },
        {
          "name": "A4",
          "midi": 69,
          "time": 217.6058157354185,
          "velocity": 0.8267716535433071,
          "duration": 0.0694444166666699
        },
        {
          "name": "A4",
          "midi": 69,
          "time": 217.7099823604185,
          "velocity": 0.84251968503937,
          "duration": 0.06770830625001167
        },
        {
          "name": "A4",
          "midi": 69,
          "time": 217.8141489854185,
          "velocity": 0.8031496062992126,
          "duration": 0.06770830625001167
        },
        {
          "name": "A4",
          "midi": 69,
          "time": 217.91657950000186,
          "velocity": 1,
          "duration": 0.0694444166666699
        },
        {
          "name": "A4",
          "midi": 69,
          "time": 218.02074612500186,
          "velocity": 0.8267716535433071,
          "duration": 0.0694444166666699
        },
        {
          "name": "A4",
          "midi": 69,
          "time": 218.1231766395852,
          "velocity": 0.84251968503937,
          "duration": 0.07118052708332812
        },
        {
          "name": "A4",
          "midi": 69,
          "time": 218.22907937500187,
          "velocity": 0.8031496062992126,
          "duration": 0.0694444166666699
        },
        {
          "name": "A4",
          "midi": 69,
          "time": 218.33150988958522,
          "velocity": 1,
          "duration": 0.07118052708332812
        },
        {
          "name": "A4",
          "midi": 69,
          "time": 218.43914873541854,
          "velocity": 0.8267716535433071,
          "duration": 0.0694444166666699
        },
        {
          "name": "A4",
          "midi": 69,
          "time": 218.54331536041855,
          "velocity": 0.8661417322834646,
          "duration": 0.0694444166666699
        },
        {
          "name": "A4",
          "midi": 69,
          "time": 218.6492180958352,
          "velocity": 0.8267716535433071,
          "duration": 0.0694444166666699
        },
        {
          "name": "A4",
          "midi": 69,
          "time": 218.75512083125187,
          "velocity": 1,
          "duration": 0.0694444166666699
        },
        {
          "name": "A4",
          "midi": 69,
          "time": 218.85928745625188,
          "velocity": 0.8503937007874016,
          "duration": 0.0694444166666699
        },
        {
          "name": "A4",
          "midi": 69,
          "time": 218.96345408125188,
          "velocity": 0.8661417322834646,
          "duration": 0.06770830625001167
        },
        {
          "name": "A4",
          "midi": 69,
          "time": 219.0676207062519,
          "velocity": 0.84251968503937,
          "duration": 0.06770830625001167
        },
        {
          "name": "A4",
          "midi": 69,
          "time": 219.1717873312519,
          "velocity": 1,
          "duration": 0.07118052708332812
        },
        {
          "name": "A4",
          "midi": 69,
          "time": 219.2759539562519,
          "velocity": 0.84251968503937,
          "duration": 0.0694444166666699
        },
        {
          "name": "A4",
          "midi": 69,
          "time": 219.37838447083524,
          "velocity": 0.8661417322834646,
          "duration": 0.0694444166666699
        },
        {
          "name": "A4",
          "midi": 69,
          "time": 219.48255109583525,
          "velocity": 0.8503937007874016,
          "duration": 0.06770830625001167
        },
        {
          "name": "A4",
          "midi": 69,
          "time": 219.5849816104186,
          "velocity": 1,
          "duration": 0.07118052708332812
        },
        {
          "name": "A4",
          "midi": 69,
          "time": 219.69088434583526,
          "velocity": 0.8818897637795275,
          "duration": 0.0694444166666699
        },
        {
          "name": "A4",
          "midi": 69,
          "time": 219.79505097083526,
          "velocity": 0.8661417322834646,
          "duration": 0.0694444166666699
        },
        {
          "name": "A4",
          "midi": 69,
          "time": 219.8974814854186,
          "velocity": 0.8661417322834646,
          "duration": 0.07118052708332812
        },
        {
          "name": "A4",
          "midi": 69,
          "time": 220.0016481104186,
          "velocity": 1,
          "duration": 0.06597219583332503
        },
        {
          "name": "A4",
          "midi": 69,
          "time": 220.10581473541862,
          "velocity": 0.8267716535433071,
          "duration": 0.0694444166666699
        },
        {
          "name": "A4",
          "midi": 69,
          "time": 220.20998136041862,
          "velocity": 0.84251968503937,
          "duration": 0.06770830625001167
        },
        {
          "name": "A4",
          "midi": 69,
          "time": 220.31414798541863,
          "velocity": 0.8031496062992126,
          "duration": 0.06770830625001167
        },
        {
          "name": "A4",
          "midi": 69,
          "time": 220.41657850000198,
          "velocity": 1,
          "duration": 0.0694444166666699
        },
        {
          "name": "A4",
          "midi": 69,
          "time": 220.52074512500198,
          "velocity": 0.8267716535433071,
          "duration": 0.0694444166666699
        },
        {
          "name": "A4",
          "midi": 69,
          "time": 220.62317563958533,
          "velocity": 0.84251968503937,
          "duration": 0.07118052708332812
        },
        {
          "name": "A4",
          "midi": 69,
          "time": 220.729078375002,
          "velocity": 0.8031496062992126,
          "duration": 0.0694444166666699
        },
        {
          "name": "A4",
          "midi": 69,
          "time": 220.83150888958534,
          "velocity": 1,
          "duration": 0.07118052708332812
        },
        {
          "name": "A4",
          "midi": 69,
          "time": 220.93914773541866,
          "velocity": 0.8267716535433071,
          "duration": 0.0694444166666699
        },
        {
          "name": "A4",
          "midi": 69,
          "time": 221.04331436041866,
          "velocity": 0.8661417322834646,
          "duration": 0.0694444166666699
        },
        {
          "name": "A4",
          "midi": 69,
          "time": 221.14921709583533,
          "velocity": 0.8267716535433071,
          "duration": 0.0694444166666699
        },
        {
          "name": "A4",
          "midi": 69,
          "time": 221.255119831252,
          "velocity": 1,
          "duration": 0.0694444166666699
        },
        {
          "name": "A4",
          "midi": 69,
          "time": 221.359286456252,
          "velocity": 0.8503937007874016,
          "duration": 0.0694444166666699
        },
        {
          "name": "A4",
          "midi": 69,
          "time": 221.463453081252,
          "velocity": 0.8661417322834646,
          "duration": 0.06770830625001167
        },
        {
          "name": "A4",
          "midi": 69,
          "time": 221.567619706252,
          "velocity": 0.84251968503937,
          "duration": 0.06770830625001167
        },
        {
          "name": "A4",
          "midi": 69,
          "time": 221.671786331252,
          "velocity": 1,
          "duration": 0.07118052708332812
        },
        {
          "name": "A4",
          "midi": 69,
          "time": 221.775952956252,
          "velocity": 0.84251968503937,
          "duration": 0.0694444166666699
        },
        {
          "name": "A4",
          "midi": 69,
          "time": 221.87838347083536,
          "velocity": 0.8661417322834646,
          "duration": 0.0694444166666699
        },
        {
          "name": "A4",
          "midi": 69,
          "time": 221.98255009583536,
          "velocity": 0.8503937007874016,
          "duration": 0.06770830625001167
        },
        {
          "name": "A4",
          "midi": 69,
          "time": 222.0849806104187,
          "velocity": 1,
          "duration": 0.07118052708332812
        },
        {
          "name": "A4",
          "midi": 69,
          "time": 222.19088334583537,
          "velocity": 0.8818897637795275,
          "duration": 0.0694444166666699
        },
        {
          "name": "A4",
          "midi": 69,
          "time": 222.29504997083538,
          "velocity": 0.8661417322834646,
          "duration": 0.0694444166666699
        },
        {
          "name": "A4",
          "midi": 69,
          "time": 222.39748048541873,
          "velocity": 0.8661417322834646,
          "duration": 0.07118052708332812
        },
        {
          "name": "A4",
          "midi": 69,
          "time": 222.50164711041873,
          "velocity": 1,
          "duration": 0.06597219583332503
        },
        {
          "name": "A4",
          "midi": 69,
          "time": 222.60581373541874,
          "velocity": 0.8267716535433071,
          "duration": 0.0694444166666699
        },
        {
          "name": "A4",
          "midi": 69,
          "time": 222.70998036041874,
          "velocity": 0.84251968503937,
          "duration": 0.06770830625001167
        },
        {
          "name": "A4",
          "midi": 69,
          "time": 222.81414698541874,
          "velocity": 0.8031496062992126,
          "duration": 0.06770830625001167
        },
        {
          "name": "A4",
          "midi": 69,
          "time": 222.9165775000021,
          "velocity": 1,
          "duration": 0.0694444166666699
        },
        {
          "name": "A4",
          "midi": 69,
          "time": 223.0207441250021,
          "velocity": 0.8267716535433071,
          "duration": 0.0694444166666699
        },
        {
          "name": "A4",
          "midi": 69,
          "time": 223.12317463958544,
          "velocity": 0.84251968503937,
          "duration": 0.07118052708332812
        },
        {
          "name": "A4",
          "midi": 69,
          "time": 223.2290773750021,
          "velocity": 0.8031496062992126,
          "duration": 0.0694444166666699
        },
        {
          "name": "A4",
          "midi": 69,
          "time": 223.33150788958545,
          "velocity": 1,
          "duration": 0.07118052708332812
        },
        {
          "name": "A4",
          "midi": 69,
          "time": 223.43914673541877,
          "velocity": 0.8267716535433071,
          "duration": 0.0694444166666699
        },
        {
          "name": "A4",
          "midi": 69,
          "time": 223.54331336041878,
          "velocity": 0.8661417322834646,
          "duration": 0.0694444166666699
        },
        {
          "name": "A4",
          "midi": 69,
          "time": 223.64921609583544,
          "velocity": 0.8267716535433071,
          "duration": 0.0694444166666699
        },
        {
          "name": "A4",
          "midi": 69,
          "time": 223.7551188312521,
          "velocity": 1,
          "duration": 0.0694444166666699
        },
        {
          "name": "A4",
          "midi": 69,
          "time": 223.8592854562521,
          "velocity": 0.8503937007874016,
          "duration": 0.0694444166666699
        },
        {
          "name": "A4",
          "midi": 69,
          "time": 223.96345208125211,
          "velocity": 0.8661417322834646,
          "duration": 0.06770830625001167
        },
        {
          "name": "A4",
          "midi": 69,
          "time": 224.06761870625212,
          "velocity": 0.84251968503937,
          "duration": 0.06770830625001167
        },
        {
          "name": "A4",
          "midi": 69,
          "time": 224.17178533125212,
          "velocity": 1,
          "duration": 0.07118052708332812
        },
        {
          "name": "A4",
          "midi": 69,
          "time": 224.27595195625213,
          "velocity": 0.84251968503937,
          "duration": 0.0694444166666699
        },
        {
          "name": "A4",
          "midi": 69,
          "time": 224.37838247083548,
          "velocity": 0.8661417322834646,
          "duration": 0.0694444166666699
        },
        {
          "name": "A4",
          "midi": 69,
          "time": 224.48254909583548,
          "velocity": 0.8503937007874016,
          "duration": 0.06770830625001167
        },
        {
          "name": "A4",
          "midi": 69,
          "time": 224.58497961041883,
          "velocity": 1,
          "duration": 0.07118052708332812
        },
        {
          "name": "A4",
          "midi": 69,
          "time": 224.6908823458355,
          "velocity": 0.8818897637795275,
          "duration": 0.0694444166666699
        },
        {
          "name": "A4",
          "midi": 69,
          "time": 224.7950489708355,
          "velocity": 0.8661417322834646,
          "duration": 0.0694444166666699
        },
        {
          "name": "A4",
          "midi": 69,
          "time": 224.89747948541884,
          "velocity": 0.8661417322834646,
          "duration": 0.07118052708332812
        },
        {
          "name": "A4",
          "midi": 69,
          "time": 225.00164611041885,
          "velocity": 1,
          "duration": 0.06597219583332503
        },
        {
          "name": "A4",
          "midi": 69,
          "time": 225.10581273541885,
          "velocity": 0.8267716535433071,
          "duration": 0.0694444166666699
        },
        {
          "name": "A4",
          "midi": 69,
          "time": 225.20997936041886,
          "velocity": 0.84251968503937,
          "duration": 0.06770830625001167
        },
        {
          "name": "A4",
          "midi": 69,
          "time": 225.31414598541886,
          "velocity": 0.8031496062992126,
          "duration": 0.06770830625001167
        },
        {
          "name": "A4",
          "midi": 69,
          "time": 225.4165765000022,
          "velocity": 1,
          "duration": 0.0694444166666699
        },
        {
          "name": "A4",
          "midi": 69,
          "time": 225.5207431250022,
          "velocity": 0.8267716535433071,
          "duration": 0.0694444166666699
        },
        {
          "name": "A4",
          "midi": 69,
          "time": 225.62317363958556,
          "velocity": 0.84251968503937,
          "duration": 0.07118052708332812
        },
        {
          "name": "A4",
          "midi": 69,
          "time": 225.72907637500222,
          "velocity": 0.8031496062992126,
          "duration": 0.0694444166666699
        },
        {
          "name": "A4",
          "midi": 69,
          "time": 225.83150688958557,
          "velocity": 1,
          "duration": 0.07118052708332812
        },
        {
          "name": "A4",
          "midi": 69,
          "time": 225.9391457354189,
          "velocity": 0.8267716535433071,
          "duration": 0.0694444166666699
        },
        {
          "name": "A4",
          "midi": 69,
          "time": 226.0433123604189,
          "velocity": 0.8661417322834646,
          "duration": 0.0694444166666699
        },
        {
          "name": "A4",
          "midi": 69,
          "time": 226.14921509583556,
          "velocity": 0.8267716535433071,
          "duration": 0.0694444166666699
        },
        {
          "name": "A4",
          "midi": 69,
          "time": 226.25511783125222,
          "velocity": 1,
          "duration": 0.0694444166666699
        },
        {
          "name": "A4",
          "midi": 69,
          "time": 226.35928445625223,
          "velocity": 0.8503937007874016,
          "duration": 0.0694444166666699
        },
        {
          "name": "A4",
          "midi": 69,
          "time": 226.46345108125223,
          "velocity": 0.8661417322834646,
          "duration": 0.06770830625001167
        },
        {
          "name": "A4",
          "midi": 69,
          "time": 226.56761770625224,
          "velocity": 0.84251968503937,
          "duration": 0.06770830625001167
        },
        {
          "name": "A4",
          "midi": 69,
          "time": 226.67178433125224,
          "velocity": 1,
          "duration": 0.07118052708332812
        },
        {
          "name": "A4",
          "midi": 69,
          "time": 226.77595095625225,
          "velocity": 0.84251968503937,
          "duration": 0.0694444166666699
        },
        {
          "name": "A4",
          "midi": 69,
          "time": 226.8783814708356,
          "velocity": 0.8661417322834646,
          "duration": 0.0694444166666699
        },
        {
          "name": "A4",
          "midi": 69,
          "time": 226.9825480958356,
          "velocity": 0.8503937007874016,
          "duration": 0.06770830625001167
        },
        {
          "name": "A4",
          "midi": 69,
          "time": 227.08497861041894,
          "velocity": 1,
          "duration": 0.07118052708332812
        },
        {
          "name": "A4",
          "midi": 69,
          "time": 227.1908813458356,
          "velocity": 0.8818897637795275,
          "duration": 0.0694444166666699
        },
        {
          "name": "A4",
          "midi": 69,
          "time": 227.2950479708356,
          "velocity": 0.8661417322834646,
          "duration": 0.0694444166666699
        },
        {
          "name": "A4",
          "midi": 69,
          "time": 227.39747848541896,
          "velocity": 0.8661417322834646,
          "duration": 0.07118052708332812
        },
        {
          "name": "A4",
          "midi": 69,
          "time": 227.50164511041896,
          "velocity": 1,
          "duration": 0.06597219583332503
        },
        {
          "name": "A4",
          "midi": 69,
          "time": 227.60581173541897,
          "velocity": 0.8267716535433071,
          "duration": 0.0694444166666699
        },
        {
          "name": "A4",
          "midi": 69,
          "time": 227.70997836041897,
          "velocity": 0.84251968503937,
          "duration": 0.06770830625001167
        },
        {
          "name": "A4",
          "midi": 69,
          "time": 227.81414498541898,
          "velocity": 0.8031496062992126,
          "duration": 0.06770830625001167
        },
        {
          "name": "A4",
          "midi": 69,
          "time": 227.91657550000232,
          "velocity": 1,
          "duration": 0.0694444166666699
        },
        {
          "name": "A4",
          "midi": 69,
          "time": 228.02074212500233,
          "velocity": 0.8267716535433071,
          "duration": 0.0694444166666699
        },
        {
          "name": "A4",
          "midi": 69,
          "time": 228.12317263958568,
          "velocity": 0.84251968503937,
          "duration": 0.07118052708332812
        },
        {
          "name": "A4",
          "midi": 69,
          "time": 228.22907537500234,
          "velocity": 0.8031496062992126,
          "duration": 0.0694444166666699
        },
        {
          "name": "A4",
          "midi": 69,
          "time": 228.33150588958569,
          "velocity": 1,
          "duration": 0.07118052708332812
        },
        {
          "name": "A4",
          "midi": 69,
          "time": 228.439144735419,
          "velocity": 0.8267716535433071,
          "duration": 0.0694444166666699
        },
        {
          "name": "A4",
          "midi": 69,
          "time": 228.543311360419,
          "velocity": 0.8661417322834646,
          "duration": 0.0694444166666699
        },
        {
          "name": "A4",
          "midi": 69,
          "time": 228.64921409583567,
          "velocity": 0.8267716535433071,
          "duration": 0.0694444166666699
        },
        {
          "name": "A4",
          "midi": 69,
          "time": 228.75511683125234,
          "velocity": 1,
          "duration": 0.0694444166666699
        },
        {
          "name": "A4",
          "midi": 69,
          "time": 228.85928345625234,
          "velocity": 0.8503937007874016,
          "duration": 0.0694444166666699
        },
        {
          "name": "A4",
          "midi": 69,
          "time": 228.96345008125235,
          "velocity": 0.8661417322834646,
          "duration": 0.06770830625001167
        },
        {
          "name": "A4",
          "midi": 69,
          "time": 229.06761670625235,
          "velocity": 0.84251968503937,
          "duration": 0.06770830625001167
        },
        {
          "name": "A4",
          "midi": 69,
          "time": 229.17178333125236,
          "velocity": 1,
          "duration": 0.07118052708332812
        },
        {
          "name": "A4",
          "midi": 69,
          "time": 229.27594995625236,
          "velocity": 0.84251968503937,
          "duration": 0.0694444166666699
        },
        {
          "name": "A4",
          "midi": 69,
          "time": 229.3783804708357,
          "velocity": 0.8661417322834646,
          "duration": 0.0694444166666699
        },
        {
          "name": "A4",
          "midi": 69,
          "time": 229.4825470958357,
          "velocity": 0.8503937007874016,
          "duration": 0.06770830625001167
        },
        {
          "name": "A4",
          "midi": 69,
          "time": 229.58497761041906,
          "velocity": 1,
          "duration": 0.07118052708332812
        },
        {
          "name": "A4",
          "midi": 69,
          "time": 229.69088034583572,
          "velocity": 0.8818897637795275,
          "duration": 0.0694444166666699
        },
        {
          "name": "A4",
          "midi": 69,
          "time": 229.79504697083573,
          "velocity": 0.8661417322834646,
          "duration": 0.0694444166666699
        },
        {
          "name": "A4",
          "midi": 69,
          "time": 229.89747748541907,
          "velocity": 0.8661417322834646,
          "duration": 0.07118052708332812
        },
        {
          "name": "A4",
          "midi": 69,
          "time": 230.00164411041908,
          "velocity": 1,
          "duration": 0.06597219583332503
        },
        {
          "name": "A4",
          "midi": 69,
          "time": 230.10581073541908,
          "velocity": 0.8267716535433071,
          "duration": 0.0694444166666699
        },
        {
          "name": "A4",
          "midi": 69,
          "time": 230.2099773604191,
          "velocity": 0.84251968503937,
          "duration": 0.06770830625001167
        },
        {
          "name": "A4",
          "midi": 69,
          "time": 230.3141439854191,
          "velocity": 0.8031496062992126,
          "duration": 0.06770830625001167
        },
        {
          "name": "A4",
          "midi": 69,
          "time": 230.41657450000244,
          "velocity": 1,
          "duration": 0.0694444166666699
        },
        {
          "name": "A4",
          "midi": 69,
          "time": 230.52074112500244,
          "velocity": 0.8267716535433071,
          "duration": 0.0694444166666699
        },
        {
          "name": "A4",
          "midi": 69,
          "time": 230.6231716395858,
          "velocity": 0.84251968503937,
          "duration": 0.07118052708332812
        },
        {
          "name": "A4",
          "midi": 69,
          "time": 230.72907437500245,
          "velocity": 0.8031496062992126,
          "duration": 0.0694444166666699
        },
        {
          "name": "A4",
          "midi": 69,
          "time": 230.8315048895858,
          "velocity": 1,
          "duration": 0.07118052708332812
        },
        {
          "name": "A4",
          "midi": 69,
          "time": 230.93914373541912,
          "velocity": 0.8267716535433071,
          "duration": 0.0694444166666699
        },
        {
          "name": "A4",
          "midi": 69,
          "time": 231.04331036041913,
          "velocity": 0.8661417322834646,
          "duration": 0.0694444166666699
        },
        {
          "name": "A4",
          "midi": 69,
          "time": 231.1492130958358,
          "velocity": 0.8267716535433071,
          "duration": 0.0694444166666699
        },
        {
          "name": "A4",
          "midi": 69,
          "time": 231.25511583125245,
          "velocity": 1,
          "duration": 0.0694444166666699
        },
        {
          "name": "A4",
          "midi": 69,
          "time": 231.35928245625246,
          "velocity": 0.8503937007874016,
          "duration": 0.0694444166666699
        },
        {
          "name": "A4",
          "midi": 69,
          "time": 231.46344908125246,
          "velocity": 0.8661417322834646,
          "duration": 0.06770830625001167
        },
        {
          "name": "A4",
          "midi": 69,
          "time": 231.56761570625247,
          "velocity": 0.84251968503937,
          "duration": 0.06770830625001167
        },
        {
          "name": "A4",
          "midi": 69,
          "time": 231.67178233125247,
          "velocity": 1,
          "duration": 0.07118052708332812
        },
        {
          "name": "A4",
          "midi": 69,
          "time": 231.77594895625248,
          "velocity": 0.84251968503937,
          "duration": 0.0694444166666699
        },
        {
          "name": "A4",
          "midi": 69,
          "time": 231.87837947083582,
          "velocity": 0.8661417322834646,
          "duration": 0.0694444166666699
        },
        {
          "name": "A4",
          "midi": 69,
          "time": 231.98254609583583,
          "velocity": 0.8503937007874016,
          "duration": 0.06770830625001167
        },
        {
          "name": "A4",
          "midi": 69,
          "time": 232.08497661041918,
          "velocity": 1,
          "duration": 0.07118052708332812
        },
        {
          "name": "A4",
          "midi": 69,
          "time": 232.19087934583584,
          "velocity": 0.8818897637795275,
          "duration": 0.0694444166666699
        },
        {
          "name": "A4",
          "midi": 69,
          "time": 232.29504597083584,
          "velocity": 0.8661417322834646,
          "duration": 0.0694444166666699
        },
        {
          "name": "A4",
          "midi": 69,
          "time": 232.3974764854192,
          "velocity": 0.8661417322834646,
          "duration": 0.07118052708332812
        },
        {
          "name": "D4",
          "midi": 62,
          "time": 285.00162211041925,
          "velocity": 1,
          "duration": 0.06597219583335345
        },
        {
          "name": "D4",
          "midi": 62,
          "time": 285.10578873541925,
          "velocity": 0.8267716535433071,
          "duration": 0.0694444166666699
        },
        {
          "name": "D4",
          "midi": 62,
          "time": 285.20995536041926,
          "velocity": 0.84251968503937,
          "duration": 0.06770830624998325
        },
        {
          "name": "D4",
          "midi": 62,
          "time": 285.3141219854192,
          "velocity": 0.8031496062992126,
          "duration": 0.06770830624998325
        },
        {
          "name": "D4",
          "midi": 62,
          "time": 285.4165525000025,
          "velocity": 1,
          "duration": 0.0694444166666699
        },
        {
          "name": "D4",
          "midi": 62,
          "time": 285.52071912500253,
          "velocity": 0.8267716535433071,
          "duration": 0.0694444166666699
        },
        {
          "name": "D4",
          "midi": 62,
          "time": 285.62314963958585,
          "velocity": 0.84251968503937,
          "duration": 0.07118052708335654
        },
        {
          "name": "D4",
          "midi": 62,
          "time": 285.72905237500254,
          "velocity": 0.8031496062992126,
          "duration": 0.0694444166666699
        },
        {
          "name": "D4",
          "midi": 62,
          "time": 285.83148288958586,
          "velocity": 1,
          "duration": 0.0711805270832997
        },
        {
          "name": "D4",
          "midi": 62,
          "time": 285.9391217354191,
          "velocity": 0.8267716535433071,
          "duration": 0.0694444166666699
        },
        {
          "name": "D4",
          "midi": 62,
          "time": 286.0432883604191,
          "velocity": 0.8661417322834646,
          "duration": 0.0694444166666699
        },
        {
          "name": "D4",
          "midi": 62,
          "time": 286.1491910958358,
          "velocity": 0.8267716535433071,
          "duration": 0.0694444166666699
        },
        {
          "name": "D4",
          "midi": 62,
          "time": 286.2550938312525,
          "velocity": 1,
          "duration": 0.0694444166666699
        },
        {
          "name": "D4",
          "midi": 62,
          "time": 286.3592604562525,
          "velocity": 0.8503937007874016,
          "duration": 0.0694444166666699
        },
        {
          "name": "D4",
          "midi": 62,
          "time": 286.4634270812525,
          "velocity": 0.8661417322834646,
          "duration": 0.06770830624998325
        },
        {
          "name": "D4",
          "midi": 62,
          "time": 286.5675937062525,
          "velocity": 0.84251968503937,
          "duration": 0.06770830624998325
        },
        {
          "name": "D4",
          "midi": 62,
          "time": 286.67176033125253,
          "velocity": 1,
          "duration": 0.0711805270832997
        },
        {
          "name": "D4",
          "midi": 62,
          "time": 286.7759269562525,
          "velocity": 0.84251968503937,
          "duration": 0.0694444166666699
        },
        {
          "name": "D4",
          "midi": 62,
          "time": 286.8783574708358,
          "velocity": 0.8661417322834646,
          "duration": 0.0694444166666699
        },
        {
          "name": "D4",
          "midi": 62,
          "time": 286.9825240958358,
          "velocity": 0.8503937007874016,
          "duration": 0.0677083062500401
        },
        {
          "name": "D4",
          "midi": 62,
          "time": 287.0849546104192,
          "velocity": 1,
          "duration": 0.0711805270832997
        },
        {
          "name": "D4",
          "midi": 62,
          "time": 287.1908573458358,
          "velocity": 0.8818897637795275,
          "duration": 0.0694444166666699
        },
        {
          "name": "D4",
          "midi": 62,
          "time": 287.2950239708358,
          "velocity": 0.8661417322834646,
          "duration": 0.06944441666661305
        },
        {
          "name": "D4",
          "midi": 62,
          "time": 287.3974544854191,
          "velocity": 0.8661417322834646,
          "duration": 0.07118052708335654
        },
        {
          "name": "D4",
          "midi": 62,
          "time": 287.5016211104191,
          "velocity": 1,
          "duration": 0.06597219583335345
        },
        {
          "name": "D4",
          "midi": 62,
          "time": 287.6057877354191,
          "velocity": 0.8267716535433071,
          "duration": 0.0694444166666699
        },
        {
          "name": "D4",
          "midi": 62,
          "time": 287.7099543604191,
          "velocity": 0.84251968503937,
          "duration": 0.06770830624998325
        },
        {
          "name": "D4",
          "midi": 62,
          "time": 287.8141209854191,
          "velocity": 0.8031496062992126,
          "duration": 0.06770830624998325
        },
        {
          "name": "D4",
          "midi": 62,
          "time": 287.9165515000024,
          "velocity": 1,
          "duration": 0.0694444166666699
        },
        {
          "name": "D4",
          "midi": 62,
          "time": 288.0207181250024,
          "velocity": 0.8267716535433071,
          "duration": 0.0694444166666699
        },
        {
          "name": "D4",
          "midi": 62,
          "time": 288.12314863958574,
          "velocity": 0.84251968503937,
          "duration": 0.07118052708335654
        },
        {
          "name": "D4",
          "midi": 62,
          "time": 288.2290513750024,
          "velocity": 0.8031496062992126,
          "duration": 0.0694444166666699
        },
        {
          "name": "D4",
          "midi": 62,
          "time": 288.33148188958575,
          "velocity": 1,
          "duration": 0.07118052708335654
        },
        {
          "name": "D4",
          "midi": 62,
          "time": 288.4391207354191,
          "velocity": 0.8267716535433071,
          "duration": 0.0694444166666699
        },
        {
          "name": "D4",
          "midi": 62,
          "time": 288.54328736041913,
          "velocity": 0.8661417322834646,
          "duration": 0.0694444166666699
        },
        {
          "name": "D4",
          "midi": 62,
          "time": 288.6491900958358,
          "velocity": 0.8267716535433071,
          "duration": 0.0694444166666699
        },
        {
          "name": "D4",
          "midi": 62,
          "time": 288.7550928312525,
          "velocity": 1,
          "duration": 0.0694444166666699
        },
        {
          "name": "D4",
          "midi": 62,
          "time": 288.8592594562525,
          "velocity": 0.8503937007874016,
          "duration": 0.0694444166666699
        },
        {
          "name": "D4",
          "midi": 62,
          "time": 288.9634260812525,
          "velocity": 0.8661417322834646,
          "duration": 0.06770830624998325
        },
        {
          "name": "D4",
          "midi": 62,
          "time": 289.0675927062525,
          "velocity": 0.84251968503937,
          "duration": 0.0677083062500401
        },
        {
          "name": "D4",
          "midi": 62,
          "time": 289.1717593312526,
          "velocity": 1,
          "duration": 0.0711805270832997
        },
        {
          "name": "D4",
          "midi": 62,
          "time": 289.27592595625254,
          "velocity": 0.84251968503937,
          "duration": 0.0694444166666699
        },
        {
          "name": "D4",
          "midi": 62,
          "time": 289.37835647083585,
          "velocity": 0.8661417322834646,
          "duration": 0.0694444166666699
        },
        {
          "name": "D4",
          "midi": 62,
          "time": 289.48252309583586,
          "velocity": 0.8503937007874016,
          "duration": 0.06770830624998325
        },
        {
          "name": "D4",
          "midi": 62,
          "time": 289.5849536104192,
          "velocity": 1,
          "duration": 0.07118052708335654
        },
        {
          "name": "D4",
          "midi": 62,
          "time": 289.69085634583587,
          "velocity": 0.8818897637795275,
          "duration": 0.0694444166666699
        },
        {
          "name": "D4",
          "midi": 62,
          "time": 289.7950229708359,
          "velocity": 0.8661417322834646,
          "duration": 0.0694444166666699
        },
        {
          "name": "D4",
          "midi": 62,
          "time": 289.8974534854192,
          "velocity": 0.8661417322834646,
          "duration": 0.07118052708335654
        },
        {
          "name": "D4",
          "midi": 62,
          "time": 290.0016201104192,
          "velocity": 1,
          "duration": 0.06597219583335345
        },
        {
          "name": "D4",
          "midi": 62,
          "time": 290.1057867354192,
          "velocity": 0.8267716535433071,
          "duration": 0.0694444166666699
        },
        {
          "name": "D4",
          "midi": 62,
          "time": 290.2099533604192,
          "velocity": 0.84251968503937,
          "duration": 0.0677083062500401
        },
        {
          "name": "D4",
          "midi": 62,
          "time": 290.31411998541927,
          "velocity": 0.8031496062992126,
          "duration": 0.0677083062500401
        },
        {
          "name": "D4",
          "midi": 62,
          "time": 290.41655050000264,
          "velocity": 1,
          "duration": 0.0694444166666699
        },
        {
          "name": "D4",
          "midi": 62,
          "time": 290.52071712500265,
          "velocity": 0.8267716535433071,
          "duration": 0.0694444166666699
        },
        {
          "name": "D4",
          "midi": 62,
          "time": 290.62314763958597,
          "velocity": 0.84251968503937,
          "duration": 0.07118052708335654
        },
        {
          "name": "D4",
          "midi": 62,
          "time": 290.72905037500266,
          "velocity": 0.8031496062992126,
          "duration": 0.0694444166666699
        },
        {
          "name": "D4",
          "midi": 62,
          "time": 290.831480889586,
          "velocity": 1,
          "duration": 0.07118052708335654
        },
        {
          "name": "D4",
          "midi": 62,
          "time": 290.93911973541935,
          "velocity": 0.8267716535433071,
          "duration": 0.0694444166666699
        },
        {
          "name": "D4",
          "midi": 62,
          "time": 291.04328636041936,
          "velocity": 0.8661417322834646,
          "duration": 0.0694444166666699
        },
        {
          "name": "D4",
          "midi": 62,
          "time": 291.14918909583605,
          "velocity": 0.8267716535433071,
          "duration": 0.0694444166666699
        },
        {
          "name": "D4",
          "midi": 62,
          "time": 291.25509183125274,
          "velocity": 1,
          "duration": 0.0694444166666699
        },
        {
          "name": "D4",
          "midi": 62,
          "time": 291.35925845625275,
          "velocity": 0.8503937007874016,
          "duration": 0.0694444166666699
        },
        {
          "name": "D4",
          "midi": 62,
          "time": 291.46342508125275,
          "velocity": 0.8661417322834646,
          "duration": 0.06770830624998325
        },
        {
          "name": "D4",
          "midi": 62,
          "time": 291.56759170625276,
          "velocity": 0.84251968503937,
          "duration": 0.06770830624998325
        },
        {
          "name": "D4",
          "midi": 62,
          "time": 291.67175833125276,
          "velocity": 1,
          "duration": 0.07118052708324285
        },
        {
          "name": "D4",
          "midi": 62,
          "time": 291.77592495625265,
          "velocity": 0.84251968503937,
          "duration": 0.0694444166666699
        },
        {
          "name": "D4",
          "midi": 62,
          "time": 291.87835547083597,
          "velocity": 0.8661417322834646,
          "duration": 0.0694444166666699
        },
        {
          "name": "D4",
          "midi": 62,
          "time": 291.982522095836,
          "velocity": 0.8503937007874016,
          "duration": 0.06770830624998325
        },
        {
          "name": "D4",
          "midi": 62,
          "time": 292.0849526104193,
          "velocity": 1,
          "duration": 0.07118052708335654
        },
        {
          "name": "D4",
          "midi": 62,
          "time": 292.190855345836,
          "velocity": 0.8818897637795275,
          "duration": 0.0694444166666699
        },
        {
          "name": "D4",
          "midi": 62,
          "time": 292.295021970836,
          "velocity": 0.8661417322834646,
          "duration": 0.0694444166666699
        },
        {
          "name": "D4",
          "midi": 62,
          "time": 292.3974524854193,
          "velocity": 0.8661417322834646,
          "duration": 0.07118052708335654
        }
      ],
      "controlChanges": {
        "6": [
          {
            "number": 6,
            "time": 1.1892356354166664,
            "value": 0.015748031496062992
          },
          {
            "number": 6,
            "time": 1.1979161874999997,
            "value": 0.5039370078740157
          },
          {
            "number": 6,
            "time": 1.206596739583333,
            "value": 0.5039370078740157
          },
          {
            "number": 6,
            "time": 1.2152772916666663,
            "value": 0.5039370078740157
          },
          {
            "number": 6,
            "time": 1.2239578437499996,
            "value": 0.5039370078740157
          },
          {
            "number": 6,
            "time": 1.232638395833333,
            "value": 0.5039370078740157
          },
          {
            "number": 6,
            "time": 1.2413189479166662,
            "value": 0.5039370078740157
          },
          {
            "number": 6,
            "time": 1.2499994999999995,
            "value": 0.5039370078740157
          },
          {
            "number": 6,
            "time": 1.2586800520833328,
            "value": 0.5039370078740157
          }
        ],
        "7": [
          {
            "number": 7,
            "time": 1.1545134270833333,
            "value": 0.7874015748031497
          },
          {
            "number": 7,
            "time": 104.99995799999999,
            "value": 0.5039370078740157
          },
          {
            "number": 7,
            "time": 105.91836041041665,
            "value": 0.5196850393700787
          },
          {
            "number": 7,
            "time": 106.13363810208332,
            "value": 0.5433070866141733
          },
          {
            "number": 7,
            "time": 106.19613807708332,
            "value": 0.5590551181102362
          },
          {
            "number": 7,
            "time": 106.33676302083332,
            "value": 0.5826771653543307
          },
          {
            "number": 7,
            "time": 106.56592959583331,
            "value": 0.5984251968503937
          },
          {
            "number": 7,
            "time": 106.85933225624998,
            "value": 0.6220472440944882
          },
          {
            "number": 7,
            "time": 106.98433220625,
            "value": 0.6377952755905512
          },
          {
            "number": 7,
            "time": 107.15447102708335,
            "value": 0.6614173228346457
          },
          {
            "number": 7,
            "time": 107.23085988541668,
            "value": 0.6850393700787402
          },
          {
            "number": 7,
            "time": 107.35585983541668,
            "value": 0.7007874015748031
          },
          {
            "number": 7,
            "time": 107.43224869375001,
            "value": 0.7244094488188977
          },
          {
            "number": 7,
            "time": 107.47912367500001,
            "value": 0.7480314960629921
          },
          {
            "number": 7,
            "time": 107.53988753958335,
            "value": 0.7637795275590551
          },
          {
            "number": 7,
            "time": 107.7412763479167,
            "value": 0.7874015748031497
          },
          {
            "number": 7,
            "time": 107.81766520625001,
            "value": 0.8110236220472441
          },
          {
            "number": 7,
            "time": 107.89579017500002,
            "value": 0.8267716535433071
          },
          {
            "number": 7,
            "time": 108.03467900833336,
            "value": 0.8503937007874016
          },
          {
            "number": 7,
            "time": 108.12669286041668,
            "value": 0.8661417322834646
          },
          {
            "number": 7,
            "time": 108.23606781666668,
            "value": 0.889763779527559
          },
          {
            "number": 7,
            "time": 108.29683168125001,
            "value": 0.9133858267716536
          },
          {
            "number": 7,
            "time": 108.34370666250001,
            "value": 0.9291338582677166
          },
          {
            "number": 7,
            "time": 108.39058164375001,
            "value": 0.952755905511811
          },
          {
            "number": 7,
            "time": 108.45828995000001,
            "value": 0.9763779527559056
          },
          {
            "number": 7,
            "time": 108.56072046458334,
            "value": 1
          },
          {
            "number": 7,
            "time": 109.99995599999998,
            "value": 0.8267716535433071
          },
          {
            "number": 7,
            "time": 129.99994799999976,
            "value": 0.8267716535433071
          },
          {
            "number": 7,
            "time": 187.49992500000067,
            "value": 0.5039370078740157
          },
          {
            "number": 7,
            "time": 188.41832741041733,
            "value": 0.5196850393700787
          },
          {
            "number": 7,
            "time": 188.633605102084,
            "value": 0.5433070866141733
          },
          {
            "number": 7,
            "time": 188.696105077084,
            "value": 0.5590551181102362
          },
          {
            "number": 7,
            "time": 188.836730020834,
            "value": 0.5826771653543307
          },
          {
            "number": 7,
            "time": 189.065896595834,
            "value": 0.5984251968503937
          },
          {
            "number": 7,
            "time": 189.35929925625067,
            "value": 0.6220472440944882
          },
          {
            "number": 7,
            "time": 189.48429920625063,
            "value": 0.6377952755905512
          },
          {
            "number": 7,
            "time": 189.65443802708396,
            "value": 0.6614173228346457
          },
          {
            "number": 7,
            "time": 189.7308268854173,
            "value": 0.6850393700787402
          },
          {
            "number": 7,
            "time": 189.85582683541728,
            "value": 0.7007874015748031
          },
          {
            "number": 7,
            "time": 189.9322156937506,
            "value": 0.7244094488188977
          },
          {
            "number": 7,
            "time": 189.9790906750006,
            "value": 0.7480314960629921
          },
          {
            "number": 7,
            "time": 190.03985453958396,
            "value": 0.7637795275590551
          },
          {
            "number": 7,
            "time": 190.2412433479173,
            "value": 0.7874015748031497
          },
          {
            "number": 7,
            "time": 190.31763220625064,
            "value": 0.8110236220472441
          },
          {
            "number": 7,
            "time": 190.39575717500063,
            "value": 0.8267716535433071
          },
          {
            "number": 7,
            "time": 190.53464600833397,
            "value": 0.8503937007874016
          },
          {
            "number": 7,
            "time": 190.62665986041733,
            "value": 0.8661417322834646
          },
          {
            "number": 7,
            "time": 190.73603481666734,
            "value": 0.889763779527559
          },
          {
            "number": 7,
            "time": 190.79679868125066,
            "value": 0.9133858267716536
          },
          {
            "number": 7,
            "time": 190.84367366250066,
            "value": 0.9291338582677166
          },
          {
            "number": 7,
            "time": 190.89054864375066,
            "value": 0.952755905511811
          },
          {
            "number": 7,
            "time": 190.95825695000065,
            "value": 0.9763779527559056
          },
          {
            "number": 7,
            "time": 191.060687464584,
            "value": 1
          },
          {
            "number": 7,
            "time": 192.4999230000007,
            "value": 0.8267716535433071
          },
          {
            "number": 7,
            "time": 212.4999150000016,
            "value": 0.8267716535433071
          },
          {
            "number": 7,
            "time": 284.8991915958359,
            "value": 0.007874015748031496
          },
          {
            "number": 7,
            "time": 284.99988600000256,
            "value": 0
          },
          {
            "number": 7,
            "time": 285.28113588750256,
            "value": 0.023622047244094488
          },
          {
            "number": 7,
            "time": 285.3905108437525,
            "value": 0.047244094488188976
          },
          {
            "number": 7,
            "time": 285.45648303958586,
            "value": 0.07086614173228346
          },
          {
            "number": 7,
            "time": 285.5814829895859,
            "value": 0.08661417322834646
          },
          {
            "number": 7,
            "time": 285.7099551604192,
            "value": 0.11023622047244094
          },
          {
            "number": 7,
            "time": 285.7741912458359,
            "value": 0.12598425196850394
          },
          {
            "number": 7,
            "time": 285.82280233750254,
            "value": 0.14960629921259844
          },
          {
            "number": 7,
            "time": 285.8696773187525,
            "value": 0.16535433070866143
          },
          {
            "number": 7,
            "time": 285.9165523000025,
            "value": 0.1889763779527559
          },
          {
            "number": 7,
            "time": 285.96342728125245,
            "value": 0.2047244094488189
          },
          {
            "number": 7,
            "time": 286.0120383729191,
            "value": 0.2283464566929134
          },
          {
            "number": 7,
            "time": 286.07453834791914,
            "value": 0.2440944881889764
          },
          {
            "number": 7,
            "time": 286.1561355375025,
            "value": 0.2677165354330709
          },
          {
            "number": 7,
            "time": 286.2186355125025,
            "value": 0.28346456692913385
          },
          {
            "number": 7,
            "time": 286.28287159791915,
            "value": 0.30708661417322836
          },
          {
            "number": 7,
            "time": 286.3609965666692,
            "value": 0.3228346456692913
          },
          {
            "number": 7,
            "time": 286.4391215354192,
            "value": 0.3464566929133858
          },
          {
            "number": 7,
            "time": 286.48773262708585,
            "value": 0.36220472440944884
          },
          {
            "number": 7,
            "time": 286.5363437187525,
            "value": 0.3858267716535433
          },
          {
            "number": 7,
            "time": 286.58495481041916,
            "value": 0.4094488188976378
          },
          {
            "number": 7,
            "time": 286.6318297916692,
            "value": 0.4330708661417323
          },
          {
            "number": 7,
            "time": 286.68044088333585,
            "value": 0.44881889763779526
          },
          {
            "number": 7,
            "time": 286.7429408583358,
            "value": 0.47244094488188976
          },
          {
            "number": 7,
            "time": 286.7915519500025,
            "value": 0.4881889763779528
          },
          {
            "number": 7,
            "time": 286.85405192500247,
            "value": 0.5118110236220472
          },
          {
            "number": 7,
            "time": 286.91828801041913,
            "value": 0.5354330708661418
          },
          {
            "number": 7,
            "time": 286.9825240958358,
            "value": 0.5511811023622047
          },
          {
            "number": 7,
            "time": 287.0293990770858,
            "value": 0.5748031496062992
          },
          {
            "number": 7,
            "time": 287.0936351625025,
            "value": 0.5984251968503937
          },
          {
            "number": 7,
            "time": 287.14224625416915,
            "value": 0.6220472440944882
          },
          {
            "number": 7,
            "time": 287.1891212354191,
            "value": 0.6377952755905512
          },
          {
            "number": 7,
            "time": 287.25162121041916,
            "value": 0.6614173228346457
          },
          {
            "number": 7,
            "time": 287.3471072833358,
            "value": 0.6850393700787402
          },
          {
            "number": 7,
            "time": 287.5224544354191,
            "value": 0.7007874015748031
          },
          {
            "number": 7,
            "time": 287.63356550208573,
            "value": 0.7244094488188977
          },
          {
            "number": 7,
            "time": 287.7134265812524,
            "value": 0.7401574803149606
          },
          {
            "number": 7,
            "time": 287.7932876604191,
            "value": 0.7637795275590551
          },
          {
            "number": 7,
            "time": 287.9043987270857,
            "value": 0.7795275590551181
          },
          {
            "number": 7,
            "time": 289.0172455041692,
            "value": 0.7637795275590551
          },
          {
            "number": 7,
            "time": 289.0797454791692,
            "value": 0.7401574803149606
          },
          {
            "number": 7,
            "time": 289.1283565708359,
            "value": 0.7244094488188977
          },
          {
            "number": 7,
            "time": 289.1769676625026,
            "value": 0.7007874015748031
          },
          {
            "number": 7,
            "time": 289.23946763750257,
            "value": 0.6771653543307087
          },
          {
            "number": 7,
            "time": 289.30196761250255,
            "value": 0.6614173228346457
          },
          {
            "number": 7,
            "time": 289.38356480208586,
            "value": 0.6377952755905512
          },
          {
            "number": 7,
            "time": 289.47731476458586,
            "value": 0.6220472440944882
          },
          {
            "number": 7,
            "time": 289.6682869104192,
            "value": 0.5984251968503937
          },
          {
            "number": 7,
            "time": 289.79675908125256,
            "value": 0.5826771653543307
          },
          {
            "number": 7,
            "time": 289.9078701479192,
            "value": 0.5590551181102362
          },
          {
            "number": 7,
            "time": 290.0033562208359,
            "value": 0.5354330708661418
          },
          {
            "number": 7,
            "time": 290.1144672875025,
            "value": 0.5196850393700787
          },
          {
            "number": 7,
            "time": 290.17696726250256,
            "value": 0.49606299212598426
          },
          {
            "number": 7,
            "time": 290.2412033479192,
            "value": 0.48031496062992124
          },
          {
            "number": 7,
            "time": 290.28807832916925,
            "value": 0.4566929133858268
          },
          {
            "number": 7,
            "time": 290.3557866354193,
            "value": 0.4330708661417323
          },
          {
            "number": 7,
            "time": 290.51030046250264,
            "value": 0.41732283464566927
          },
          {
            "number": 7,
            "time": 290.6057865354193,
            "value": 0.3937007874015748
          },
          {
            "number": 7,
            "time": 290.748147589586,
            "value": 0.3779527559055118
          },
          {
            "number": 7,
            "time": 290.94085584583604,
            "value": 0.3543307086614173
          },
          {
            "number": 7,
            "time": 291.0207169250027,
            "value": 0.33858267716535434
          },
          {
            "number": 7,
            "time": 291.1144668875027,
            "value": 0.31496062992125984
          },
          {
            "number": 7,
            "time": 291.1787029729194,
            "value": 0.2992125984251969
          },
          {
            "number": 7,
            "time": 291.24293905833605,
            "value": 0.2755905511811024
          },
          {
            "number": 7,
            "time": 291.3228001375027,
            "value": 0.25984251968503935
          },
          {
            "number": 7,
            "time": 291.38530011250276,
            "value": 0.23622047244094488
          },
          {
            "number": 7,
            "time": 291.4339112041694,
            "value": 0.2125984251968504
          },
          {
            "number": 7,
            "time": 291.4807861854194,
            "value": 0.1968503937007874
          },
          {
            "number": 7,
            "time": 291.52939727708605,
            "value": 0.1732283464566929
          },
          {
            "number": 7,
            "time": 291.5762722583361,
            "value": 0.14960629921259844
          },
          {
            "number": 7,
            "time": 291.5918972520861,
            "value": 0.13385826771653545
          },
          {
            "number": 7,
            "time": 291.6092583562527,
            "value": 0.12598425196850394
          },
          {
            "number": 7,
            "time": 291.62314723958605,
            "value": 0.11023622047244094
          },
          {
            "number": 7,
            "time": 291.64050834375274,
            "value": 0.10236220472440945
          },
          {
            "number": 7,
            "time": 291.65613333750275,
            "value": 0.08661417322834646
          },
          {
            "number": 7,
            "time": 291.67175833125276,
            "value": 0.07086614173228346
          },
          {
            "number": 7,
            "time": 291.6891194354194,
            "value": 0.05511811023622047
          },
          {
            "number": 7,
            "time": 291.7030083187527,
            "value": 0.047244094488188976
          },
          {
            "number": 7,
            "time": 291.72036942291936,
            "value": 0.031496062992125984
          },
          {
            "number": 7,
            "time": 291.78286939791934,
            "value": 0.015748031496062992
          }
        ],
        "10": [
          {
            "number": 10,
            "time": 1.1631939791666666,
            "value": 0.5039370078740157
          }
        ],
        "32": [
          {
            "number": 32,
            "time": 1.1371523229166667,
            "value": 1
          }
        ],
        "91": [
          {
            "number": 91,
            "time": 1.1718745312499999,
            "value": 0.31496062992125984
          }
        ],
        "93": [
          {
            "number": 93,
            "time": 1.1805550833333331,
            "value": 0
          }
        ],
        "98": [
          {
            "number": 98,
            "time": 1.1979161874999997,
            "value": 0.06299212598425197
          },
          {
            "number": 98,
            "time": 1.206596739583333,
            "value": 0.07086614173228346
          },
          {
            "number": 98,
            "time": 1.2152772916666663,
            "value": 0.07874015748031496
          },
          {
            "number": 98,
            "time": 1.2239578437499996,
            "value": 0.25196850393700787
          },
          {
            "number": 98,
            "time": 1.232638395833333,
            "value": 0.25984251968503935
          },
          {
            "number": 98,
            "time": 1.2413189479166662,
            "value": 0.7795275590551181
          },
          {
            "number": 98,
            "time": 1.2499994999999995,
            "value": 0.7874015748031497
          },
          {
            "number": 98,
            "time": 1.2586800520833328,
            "value": 0.8031496062992126
          }
        ],
        "99": [
          {
            "number": 99,
            "time": 1.1979161874999997,
            "value": 0.007874015748031496
          },
          {
            "number": 99,
            "time": 1.206596739583333,
            "value": 0.007874015748031496
          },
          {
            "number": 99,
            "time": 1.2152772916666663,
            "value": 0.007874015748031496
          },
          {
            "number": 99,
            "time": 1.2239578437499996,
            "value": 0.007874015748031496
          },
          {
            "number": 99,
            "time": 1.232638395833333,
            "value": 0.007874015748031496
          },
          {
            "number": 99,
            "time": 1.2413189479166662,
            "value": 0.007874015748031496
          },
          {
            "number": 99,
            "time": 1.2499994999999995,
            "value": 0.007874015748031496
          },
          {
            "number": 99,
            "time": 1.2586800520833328,
            "value": 0.007874015748031496
          }
        ],
        "100": [
          {
            "number": 100,
            "time": 1.1892356354166664,
            "value": 0
          }
        ],
        "101": [
          {
            "number": 101,
            "time": 1.1892356354166664,
            "value": 0
          }
        ]
      },
      "id": 9,
      "name": "Breath Noise",
      "instrumentNumber": 121,
      "instrument": "breath noise",
      "instrumentFamily": "sound effects",
      "channelNumber": 8,
      "isPercussion": false
    },
    {
      "startTime": 2.4999989999999994,
      "duration": 292.4998830000006,
      "length": 1118,
      "notes": [
        {
          "name": "C2",
          "midi": 36,
          "time": 2.4999989999999994,
          "velocity": 1,
          "duration": 0.8263885583333335
        },
        {
          "name": "D2",
          "midi": 38,
          "time": 2.4999989999999994,
          "velocity": 0.6850393700787402,
          "duration": 0.35243041458333346
        },
        {
          "name": "E2",
          "midi": 40,
          "time": 2.9131932791666664,
          "velocity": 0.49606299212598426,
          "duration": 0.16493048958333345
        },
        {
          "name": "D2",
          "midi": 38,
          "time": 3.1197904187499996,
          "velocity": 0.5118110236220472,
          "duration": 0.18576381458333335
        },
        {
          "name": "E2",
          "midi": 40,
          "time": 3.3281236687499995,
          "velocity": 0.6535433070866141,
          "duration": 0.2934026604166666
        },
        {
          "name": "D2",
          "midi": 38,
          "time": 3.7447901687499994,
          "velocity": 0.5039370078740157,
          "duration": 0.22222213333333318
        },
        {
          "name": "E2",
          "midi": 40,
          "time": 3.9531234187499993,
          "velocity": 0.5118110236220472,
          "duration": 0.16666659999999967
        },
        {
          "name": "D2",
          "midi": 38,
          "time": 4.161456668749999,
          "velocity": 0.5118110236220472,
          "duration": 0.41666649999999983
        },
        {
          "name": "E2",
          "midi": 40,
          "time": 4.579859279166666,
          "velocity": 0.5196850393700787,
          "duration": 0.42013872083333315
        },
        {
          "name": "C2",
          "midi": 36,
          "time": 4.999997999999999,
          "velocity": 1,
          "duration": 0.8385413312500001
        },
        {
          "name": "D2",
          "midi": 38,
          "time": 4.999997999999999,
          "velocity": 0.6850393700787402,
          "duration": 0.3958331749999999
        },
        {
          "name": "E2",
          "midi": 40,
          "time": 5.4149283895833324,
          "velocity": 0.5196850393700787,
          "duration": 0.1840277041666667
        },
        {
          "name": "D2",
          "midi": 38,
          "time": 5.623261639583332,
          "velocity": 0.5196850393700787,
          "duration": 0.19444436666666665
        },
        {
          "name": "E2",
          "midi": 40,
          "time": 5.831594889583332,
          "velocity": 0.6614173228346457,
          "duration": 0.3958331749999999
        },
        {
          "name": "D2",
          "midi": 38,
          "time": 6.246525279166666,
          "velocity": 0.5039370078740157,
          "duration": 0.18055548333333338
        },
        {
          "name": "E2",
          "midi": 40,
          "time": 6.454858529166666,
          "velocity": 0.5118110236220472,
          "duration": 0.22048602291666697
        },
        {
          "name": "D2",
          "midi": 38,
          "time": 6.663191779166666,
          "velocity": 0.5118110236220472,
          "duration": 0.44618037708333347
        },
        {
          "name": "E2",
          "midi": 40,
          "time": 7.081594389583333,
          "velocity": 0.49606299212598426,
          "duration": 0.41840261041666693
        },
        {
          "name": "C2",
          "midi": 36,
          "time": 7.499997,
          "velocity": 1,
          "duration": 0.8315968895833334
        },
        {
          "name": "D2",
          "midi": 38,
          "time": 7.499997,
          "velocity": 0.6614173228346457,
          "duration": 0.39756928541666703
        },
        {
          "name": "E2",
          "midi": 40,
          "time": 7.9166635,
          "velocity": 0.5039370078740157,
          "duration": 0.17534715208333296
        },
        {
          "name": "D2",
          "midi": 38,
          "time": 8.12499675,
          "velocity": 0.49606299212598426,
          "duration": 0.2048610291666666
        },
        {
          "name": "E2",
          "midi": 40,
          "time": 8.33333,
          "velocity": 0.6692913385826772,
          "duration": 0.40624983750000077
        },
        {
          "name": "D2",
          "midi": 38,
          "time": 8.749996500000002,
          "velocity": 0.49606299212598426,
          "duration": 0.16666659999999922
        },
        {
          "name": "E2",
          "midi": 40,
          "time": 8.956593639583334,
          "velocity": 0.5039370078740157,
          "duration": 0.19270825625000043
        },
        {
          "name": "D2",
          "midi": 38,
          "time": 9.166663000000002,
          "velocity": 0.5118110236220472,
          "duration": 0.3489581937500006
        },
        {
          "name": "E2",
          "midi": 40,
          "time": 9.581593389583336,
          "velocity": 0.5118110236220472,
          "duration": 0.1840277041666667
        },
        {
          "name": "D2",
          "midi": 38,
          "time": 9.78819052916667,
          "velocity": 0.5196850393700787,
          "duration": 0.1805554833333325
        },
        {
          "name": "C2",
          "midi": 36,
          "time": 9.999996000000003,
          "velocity": 1,
          "duration": 0.8315968895833343
        },
        {
          "name": "D2",
          "midi": 38,
          "time": 9.999996000000003,
          "velocity": 0.6850393700787402,
          "duration": 0.3958331749999999
        },
        {
          "name": "E2",
          "midi": 40,
          "time": 10.414926389583336,
          "velocity": 0.5196850393700787,
          "duration": 0.1840277041666667
        },
        {
          "name": "D2",
          "midi": 38,
          "time": 10.623259639583337,
          "velocity": 0.5196850393700787,
          "duration": 0.19444436666666753
        },
        {
          "name": "E2",
          "midi": 40,
          "time": 10.831592889583337,
          "velocity": 0.6614173228346457,
          "duration": 0.3958331749999999
        },
        {
          "name": "D2",
          "midi": 38,
          "time": 11.24652327916667,
          "velocity": 0.5039370078740157,
          "duration": 0.1805554833333325
        },
        {
          "name": "E2",
          "midi": 40,
          "time": 11.454856529166669,
          "velocity": 0.5118110236220472,
          "duration": 0.22048602291666697
        },
        {
          "name": "D2",
          "midi": 38,
          "time": 11.66318977916667,
          "velocity": 0.5118110236220472,
          "duration": 0.44618037708333347
        },
        {
          "name": "E2",
          "midi": 40,
          "time": 12.081592389583337,
          "velocity": 0.49606299212598426,
          "duration": 0.41840261041666693
        },
        {
          "name": "C2",
          "midi": 36,
          "time": 12.499995000000004,
          "velocity": 1,
          "duration": 0.826388558333333
        },
        {
          "name": "D2",
          "midi": 38,
          "time": 12.499995000000004,
          "velocity": 0.6850393700787402,
          "duration": 0.352430414583333
        },
        {
          "name": "E2",
          "midi": 40,
          "time": 12.91318927916667,
          "velocity": 0.49606299212598426,
          "duration": 0.1649304895833339
        },
        {
          "name": "D2",
          "midi": 38,
          "time": 13.119786418750003,
          "velocity": 0.5118110236220472,
          "duration": 0.1857638145833338
        },
        {
          "name": "E2",
          "midi": 40,
          "time": 13.328119668750004,
          "velocity": 0.6535433070866141,
          "duration": 0.2934026604166675
        },
        {
          "name": "D2",
          "midi": 38,
          "time": 13.744786168750005,
          "velocity": 0.5039370078740157,
          "duration": 0.22222213333333407
        },
        {
          "name": "E2",
          "midi": 40,
          "time": 13.953119418750006,
          "velocity": 0.5118110236220472,
          "duration": 0.16666659999999922
        },
        {
          "name": "D2",
          "midi": 38,
          "time": 14.161452668750005,
          "velocity": 0.5118110236220472,
          "duration": 0.41666649999999983
        },
        {
          "name": "E2",
          "midi": 40,
          "time": 14.579855279166672,
          "velocity": 0.5196850393700787,
          "duration": 0.42013872083333403
        },
        {
          "name": "C2",
          "midi": 36,
          "time": 14.999994000000006,
          "velocity": 1,
          "duration": 0.838541331250001
        },
        {
          "name": "D2",
          "midi": 38,
          "time": 14.999994000000006,
          "velocity": 0.6850393700787402,
          "duration": 0.3958331749999999
        },
        {
          "name": "E2",
          "midi": 40,
          "time": 15.414924389583339,
          "velocity": 0.5196850393700787,
          "duration": 0.1840277041666667
        },
        {
          "name": "D2",
          "midi": 38,
          "time": 15.62325763958334,
          "velocity": 0.5196850393700787,
          "duration": 0.19444436666666753
        },
        {
          "name": "E2",
          "midi": 40,
          "time": 15.83159088958334,
          "velocity": 0.6614173228346457,
          "duration": 0.3958331750000017
        },
        {
          "name": "D2",
          "midi": 38,
          "time": 16.246521279166675,
          "velocity": 0.5039370078740157,
          "duration": 0.1805554833333325
        },
        {
          "name": "E2",
          "midi": 40,
          "time": 16.454854529166674,
          "velocity": 0.5118110236220472,
          "duration": 0.22048602291666697
        },
        {
          "name": "D2",
          "midi": 38,
          "time": 16.663187779166673,
          "velocity": 0.5118110236220472,
          "duration": 0.44618037708333347
        },
        {
          "name": "E2",
          "midi": 40,
          "time": 17.08159038958334,
          "velocity": 0.49606299212598426,
          "duration": 0.41840261041666693
        },
        {
          "name": "C2",
          "midi": 36,
          "time": 17.499993000000007,
          "velocity": 1,
          "duration": 0.8315968895833308
        },
        {
          "name": "D2",
          "midi": 38,
          "time": 17.499993000000007,
          "velocity": 0.6614173228346457,
          "duration": 0.39756928541666525
        },
        {
          "name": "E2",
          "midi": 40,
          "time": 17.916659500000005,
          "velocity": 0.5039370078740157,
          "duration": 0.17534715208333296
        },
        {
          "name": "D2",
          "midi": 38,
          "time": 18.124992750000004,
          "velocity": 0.49606299212598426,
          "duration": 0.20486102916666837
        },
        {
          "name": "E2",
          "midi": 40,
          "time": 18.333326000000003,
          "velocity": 0.6692913385826772,
          "duration": 0.406249837499999
        },
        {
          "name": "D2",
          "midi": 38,
          "time": 18.7499925,
          "velocity": 0.49606299212598426,
          "duration": 0.16666659999999922
        },
        {
          "name": "E2",
          "midi": 40,
          "time": 18.956589639583335,
          "velocity": 0.5039370078740157,
          "duration": 0.19270825625000043
        },
        {
          "name": "D2",
          "midi": 38,
          "time": 19.166659000000003,
          "velocity": 0.5118110236220472,
          "duration": 0.3489581937500006
        },
        {
          "name": "E2",
          "midi": 40,
          "time": 19.581589389583336,
          "velocity": 0.5118110236220472,
          "duration": 0.1840277041666667
        },
        {
          "name": "D2",
          "midi": 38,
          "time": 19.78818652916667,
          "velocity": 0.5196850393700787,
          "duration": 0.1805554833333325
        },
        {
          "name": "C2",
          "midi": 36,
          "time": 19.999992000000002,
          "velocity": 1,
          "duration": 0.8315968895833308
        },
        {
          "name": "D2",
          "midi": 38,
          "time": 19.999992000000002,
          "velocity": 0.6850393700787402,
          "duration": 0.3958331749999999
        },
        {
          "name": "E2",
          "midi": 40,
          "time": 20.414922389583335,
          "velocity": 0.5196850393700787,
          "duration": 0.1840277041666667
        },
        {
          "name": "D2",
          "midi": 38,
          "time": 20.623255639583334,
          "velocity": 0.5196850393700787,
          "duration": 0.19444436666666576
        },
        {
          "name": "E2",
          "midi": 40,
          "time": 20.831588889583333,
          "velocity": 0.6614173228346457,
          "duration": 0.3958331749999999
        },
        {
          "name": "D2",
          "midi": 38,
          "time": 21.246519279166666,
          "velocity": 0.5039370078740157,
          "duration": 0.1805554833333325
        },
        {
          "name": "E2",
          "midi": 40,
          "time": 21.454852529166665,
          "velocity": 0.5118110236220472,
          "duration": 0.22048602291666697
        },
        {
          "name": "D2",
          "midi": 38,
          "time": 21.663185779166664,
          "velocity": 0.5118110236220472,
          "duration": 0.44618037708333347
        },
        {
          "name": "E2",
          "midi": 40,
          "time": 22.08158838958333,
          "velocity": 0.49606299212598426,
          "duration": 0.41840261041666693
        },
        {
          "name": "C2",
          "midi": 36,
          "time": 22.499990999999998,
          "velocity": 1,
          "duration": 0.8263885583333348
        },
        {
          "name": "D2",
          "midi": 38,
          "time": 22.499990999999998,
          "velocity": 0.6850393700787402,
          "duration": 0.3524304145833348
        },
        {
          "name": "E2",
          "midi": 40,
          "time": 22.913185279166665,
          "velocity": 0.49606299212598426,
          "duration": 0.1649304895833339
        },
        {
          "name": "D2",
          "midi": 38,
          "time": 23.11978241875,
          "velocity": 0.5118110236220472,
          "duration": 0.18576381458333202
        },
        {
          "name": "E2",
          "midi": 40,
          "time": 23.328115668749998,
          "velocity": 0.6535433070866141,
          "duration": 0.2934026604166675
        },
        {
          "name": "D2",
          "midi": 38,
          "time": 23.74478216875,
          "velocity": 0.5039370078740157,
          "duration": 0.2222221333333323
        },
        {
          "name": "E2",
          "midi": 40,
          "time": 23.95311541875,
          "velocity": 0.5118110236220472,
          "duration": 0.16666659999999922
        },
        {
          "name": "D2",
          "midi": 38,
          "time": 24.161448668749998,
          "velocity": 0.5118110236220472,
          "duration": 0.4166665000000016
        },
        {
          "name": "E2",
          "midi": 40,
          "time": 24.579851279166665,
          "velocity": 0.5196850393700787,
          "duration": 0.42013872083333226
        },
        {
          "name": "C2",
          "midi": 36,
          "time": 24.999989999999997,
          "velocity": 1,
          "duration": 0.8385413312499992
        },
        {
          "name": "D2",
          "midi": 38,
          "time": 24.999989999999997,
          "velocity": 0.6850393700787402,
          "duration": 0.3958331749999999
        },
        {
          "name": "E2",
          "midi": 40,
          "time": 25.41492038958333,
          "velocity": 0.5196850393700787,
          "duration": 0.1840277041666667
        },
        {
          "name": "D2",
          "midi": 38,
          "time": 25.62325363958333,
          "velocity": 0.5196850393700787,
          "duration": 0.19444436666666576
        },
        {
          "name": "E2",
          "midi": 40,
          "time": 25.831586889583328,
          "velocity": 0.6614173228346457,
          "duration": 0.3958331750000035
        },
        {
          "name": "D2",
          "midi": 38,
          "time": 26.246517279166664,
          "velocity": 0.5039370078740157,
          "duration": 0.1805554833333325
        },
        {
          "name": "E2",
          "midi": 40,
          "time": 26.454850529166663,
          "velocity": 0.5118110236220472,
          "duration": 0.22048602291666697
        },
        {
          "name": "D2",
          "midi": 38,
          "time": 26.663183779166662,
          "velocity": 0.5118110236220472,
          "duration": 0.44618037708333347
        },
        {
          "name": "E2",
          "midi": 40,
          "time": 27.08158638958333,
          "velocity": 0.49606299212598426,
          "duration": 0.41840261041666693
        },
        {
          "name": "C2",
          "midi": 36,
          "time": 27.499988999999996,
          "velocity": 1,
          "duration": 0.8315968895833308
        },
        {
          "name": "D2",
          "midi": 38,
          "time": 27.499988999999996,
          "velocity": 0.6614173228346457,
          "duration": 0.39756928541666525
        },
        {
          "name": "E2",
          "midi": 40,
          "time": 27.916655499999994,
          "velocity": 0.5039370078740157,
          "duration": 0.17534715208333296
        },
        {
          "name": "D2",
          "midi": 38,
          "time": 28.124988749999993,
          "velocity": 0.49606299212598426,
          "duration": 0.20486102916666837
        },
        {
          "name": "E2",
          "midi": 40,
          "time": 28.333321999999992,
          "velocity": 0.6692913385826772,
          "duration": 0.406249837499999
        },
        {
          "name": "D2",
          "midi": 38,
          "time": 28.74998849999999,
          "velocity": 0.49606299212598426,
          "duration": 0.16666659999999922
        },
        {
          "name": "E2",
          "midi": 40,
          "time": 28.956585639583324,
          "velocity": 0.5039370078740157,
          "duration": 0.19270825625000043
        },
        {
          "name": "D2",
          "midi": 38,
          "time": 29.16665499999999,
          "velocity": 0.5118110236220472,
          "duration": 0.3489581937500006
        },
        {
          "name": "E2",
          "midi": 40,
          "time": 29.581585389583324,
          "velocity": 0.5118110236220472,
          "duration": 0.1840277041666667
        },
        {
          "name": "D2",
          "midi": 38,
          "time": 29.788182529166658,
          "velocity": 0.5196850393700787,
          "duration": 0.1805554833333325
        },
        {
          "name": "C2",
          "midi": 36,
          "time": 29.99998799999999,
          "velocity": 1,
          "duration": 0.8315968895833308
        },
        {
          "name": "D2",
          "midi": 38,
          "time": 29.99998799999999,
          "velocity": 0.6850393700787402,
          "duration": 0.3958331749999999
        },
        {
          "name": "E2",
          "midi": 40,
          "time": 30.414918389583324,
          "velocity": 0.5196850393700787,
          "duration": 0.1840277041666667
        },
        {
          "name": "D2",
          "midi": 38,
          "time": 30.623251639583323,
          "velocity": 0.5196850393700787,
          "duration": 0.19444436666666576
        },
        {
          "name": "E2",
          "midi": 40,
          "time": 30.831584889583322,
          "velocity": 0.6614173228346457,
          "duration": 0.3958331749999999
        },
        {
          "name": "D2",
          "midi": 38,
          "time": 31.246515279166655,
          "velocity": 0.5039370078740157,
          "duration": 0.1805554833333325
        },
        {
          "name": "E2",
          "midi": 40,
          "time": 31.454848529166654,
          "velocity": 0.5118110236220472,
          "duration": 0.22048602291666697
        },
        {
          "name": "D2",
          "midi": 38,
          "time": 31.663181779166653,
          "velocity": 0.5118110236220472,
          "duration": 0.44618037708333347
        },
        {
          "name": "E2",
          "midi": 40,
          "time": 32.08158438958332,
          "velocity": 0.49606299212598426,
          "duration": 0.4184026104166634
        },
        {
          "name": "C2",
          "midi": 36,
          "time": 32.49998699999998,
          "velocity": 1,
          "duration": 0.8263885583333348
        },
        {
          "name": "D2",
          "midi": 38,
          "time": 32.49998699999998,
          "velocity": 0.6850393700787402,
          "duration": 0.35243041458333124
        },
        {
          "name": "E2",
          "midi": 40,
          "time": 32.91318127916665,
          "velocity": 0.49606299212598426,
          "duration": 0.1649304895833339
        },
        {
          "name": "D2",
          "midi": 38,
          "time": 33.11977841874999,
          "velocity": 0.5118110236220472,
          "duration": 0.18576381458333202
        },
        {
          "name": "E2",
          "midi": 40,
          "time": 33.32811166874998,
          "velocity": 0.6535433070866141,
          "duration": 0.2934026604166675
        },
        {
          "name": "D2",
          "midi": 38,
          "time": 33.74477816874998,
          "velocity": 0.5039370078740157,
          "duration": 0.2222221333333394
        },
        {
          "name": "E2",
          "midi": 40,
          "time": 33.953111418749984,
          "velocity": 0.5118110236220472,
          "duration": 0.16666660000000633
        },
        {
          "name": "D2",
          "midi": 38,
          "time": 34.16144466874999,
          "velocity": 0.5118110236220472,
          "duration": 0.41666649999999805
        },
        {
          "name": "E2",
          "midi": 40,
          "time": 34.57984727916666,
          "velocity": 0.5196850393700787,
          "duration": 0.4201387208333358
        },
        {
          "name": "C2",
          "midi": 36,
          "time": 34.99998599999999,
          "velocity": 1,
          "duration": 0.8385413312500063
        },
        {
          "name": "D2",
          "midi": 38,
          "time": 34.99998599999999,
          "velocity": 0.6850393700787402,
          "duration": 0.3958331749999999
        },
        {
          "name": "E2",
          "midi": 40,
          "time": 35.414916389583325,
          "velocity": 0.5196850393700787,
          "duration": 0.1840277041666667
        },
        {
          "name": "D2",
          "midi": 38,
          "time": 35.62324963958333,
          "velocity": 0.5196850393700787,
          "duration": 0.19444436666666576
        },
        {
          "name": "E2",
          "midi": 40,
          "time": 35.83158288958333,
          "velocity": 0.6614173228346457,
          "duration": 0.3958331749999999
        },
        {
          "name": "D2",
          "midi": 38,
          "time": 36.24651327916666,
          "velocity": 0.5039370078740157,
          "duration": 0.18055548333333604
        },
        {
          "name": "E2",
          "midi": 40,
          "time": 36.454846529166666,
          "velocity": 0.5118110236220472,
          "duration": 0.22048602291666697
        },
        {
          "name": "D2",
          "midi": 38,
          "time": 36.66317977916667,
          "velocity": 0.5118110236220472,
          "duration": 0.4461803770833299
        },
        {
          "name": "E2",
          "midi": 40,
          "time": 37.08158238958333,
          "velocity": 0.49606299212598426,
          "duration": 0.4184026104166634
        },
        {
          "name": "C2",
          "midi": 36,
          "time": 37.499984999999995,
          "velocity": 1,
          "duration": 0.8315968895833308
        },
        {
          "name": "D2",
          "midi": 38,
          "time": 37.499984999999995,
          "velocity": 0.6614173228346457,
          "duration": 0.39756928541666525
        },
        {
          "name": "E2",
          "midi": 40,
          "time": 37.91665149999999,
          "velocity": 0.5039370078740157,
          "duration": 0.17534715208333296
        },
        {
          "name": "D2",
          "midi": 38,
          "time": 38.124984749999996,
          "velocity": 0.49606299212598426,
          "duration": 0.20486102916666482
        },
        {
          "name": "E2",
          "midi": 40,
          "time": 38.33331799999999,
          "velocity": 0.6692913385826772,
          "duration": 0.406249837499999
        },
        {
          "name": "D2",
          "midi": 38,
          "time": 38.74998449999999,
          "velocity": 0.49606299212598426,
          "duration": 0.16666659999999922
        },
        {
          "name": "E2",
          "midi": 40,
          "time": 38.95658163958332,
          "velocity": 0.5039370078740157,
          "duration": 0.19270825625000043
        },
        {
          "name": "D2",
          "midi": 38,
          "time": 39.16665099999999,
          "velocity": 0.5118110236220472,
          "duration": 0.3489581937500006
        },
        {
          "name": "E2",
          "midi": 40,
          "time": 39.58158138958332,
          "velocity": 0.5118110236220472,
          "duration": 0.1840277041666667
        },
        {
          "name": "D2",
          "midi": 38,
          "time": 39.78817852916665,
          "velocity": 0.5196850393700787,
          "duration": 0.18055548333333604
        },
        {
          "name": "C2",
          "midi": 36,
          "time": 39.99998399999998,
          "velocity": 1,
          "duration": 0.8315968895833379
        },
        {
          "name": "D2",
          "midi": 38,
          "time": 39.99998399999998,
          "velocity": 0.6850393700787402,
          "duration": 0.3958331749999999
        },
        {
          "name": "E2",
          "midi": 40,
          "time": 40.414914389583316,
          "velocity": 0.5196850393700787,
          "duration": 0.1840277041666667
        },
        {
          "name": "D2",
          "midi": 38,
          "time": 40.62324763958332,
          "velocity": 0.5196850393700787,
          "duration": 0.19444436666666576
        },
        {
          "name": "E2",
          "midi": 40,
          "time": 40.83158088958332,
          "velocity": 0.6614173228346457,
          "duration": 0.3958331749999999
        },
        {
          "name": "D2",
          "midi": 38,
          "time": 41.246511279166654,
          "velocity": 0.5039370078740157,
          "duration": 0.18055548333333604
        },
        {
          "name": "E2",
          "midi": 40,
          "time": 41.45484452916666,
          "velocity": 0.5118110236220472,
          "duration": 0.22048602291666697
        },
        {
          "name": "D2",
          "midi": 38,
          "time": 41.66317777916666,
          "velocity": 0.5118110236220472,
          "duration": 0.4461803770833299
        },
        {
          "name": "E2",
          "midi": 40,
          "time": 42.08158038958332,
          "velocity": 0.49606299212598426,
          "duration": 0.4184026104166634
        },
        {
          "name": "C2",
          "midi": 36,
          "time": 42.499982999999986,
          "velocity": 1,
          "duration": 0.8315968895833379
        },
        {
          "name": "D2",
          "midi": 38,
          "time": 42.499982999999986,
          "velocity": 0.6850393700787402,
          "duration": 0.3958331749999999
        },
        {
          "name": "E2",
          "midi": 40,
          "time": 42.91491338958332,
          "velocity": 0.5196850393700787,
          "duration": 0.1840277041666667
        },
        {
          "name": "D2",
          "midi": 38,
          "time": 43.12324663958332,
          "velocity": 0.5196850393700787,
          "duration": 0.19444436666666576
        },
        {
          "name": "E2",
          "midi": 40,
          "time": 43.331579889583324,
          "velocity": 0.6614173228346457,
          "duration": 0.3958331749999999
        },
        {
          "name": "D2",
          "midi": 38,
          "time": 43.74651027916666,
          "velocity": 0.5039370078740157,
          "duration": 0.18055548333333604
        },
        {
          "name": "E2",
          "midi": 40,
          "time": 43.95484352916666,
          "velocity": 0.5118110236220472,
          "duration": 0.22048602291666697
        },
        {
          "name": "D2",
          "midi": 38,
          "time": 44.16317677916666,
          "velocity": 0.5118110236220472,
          "duration": 0.4461803770833299
        },
        {
          "name": "E2",
          "midi": 40,
          "time": 44.581579389583325,
          "velocity": 0.49606299212598426,
          "duration": 0.4184026104166634
        },
        {
          "name": "C2",
          "midi": 36,
          "time": 44.99998199999999,
          "velocity": 1,
          "duration": 0.8263885583333348
        },
        {
          "name": "D2",
          "midi": 38,
          "time": 44.99998199999999,
          "velocity": 0.6850393700787402,
          "duration": 0.35243041458333124
        },
        {
          "name": "E2",
          "midi": 40,
          "time": 45.413176279166656,
          "velocity": 0.49606299212598426,
          "duration": 0.1649304895833339
        },
        {
          "name": "D2",
          "midi": 38,
          "time": 45.61977341874999,
          "velocity": 0.5118110236220472,
          "duration": 0.18576381458333202
        },
        {
          "name": "E2",
          "midi": 40,
          "time": 45.82810666874999,
          "velocity": 0.6535433070866141,
          "duration": 0.2934026604166675
        },
        {
          "name": "D2",
          "midi": 38,
          "time": 46.24477316874999,
          "velocity": 0.5039370078740157,
          "duration": 0.2222221333333394
        },
        {
          "name": "E2",
          "midi": 40,
          "time": 46.45310641874999,
          "velocity": 0.5118110236220472,
          "duration": 0.16666660000000633
        },
        {
          "name": "D2",
          "midi": 38,
          "time": 46.66143966875,
          "velocity": 0.5118110236220472,
          "duration": 0.41666649999999805
        },
        {
          "name": "E2",
          "midi": 40,
          "time": 47.07984227916666,
          "velocity": 0.5196850393700787,
          "duration": 0.4201387208333358
        },
        {
          "name": "C2",
          "midi": 36,
          "time": 47.499981,
          "velocity": 1,
          "duration": 0.8385413312500063
        },
        {
          "name": "D2",
          "midi": 38,
          "time": 47.499981,
          "velocity": 0.6850393700787402,
          "duration": 0.3958331749999999
        },
        {
          "name": "E2",
          "midi": 40,
          "time": 47.91491138958333,
          "velocity": 0.5196850393700787,
          "duration": 0.1840277041666667
        },
        {
          "name": "D2",
          "midi": 38,
          "time": 48.12324463958333,
          "velocity": 0.5196850393700787,
          "duration": 0.19444436666666576
        },
        {
          "name": "E2",
          "midi": 40,
          "time": 48.331577889583336,
          "velocity": 0.6614173228346457,
          "duration": 0.3958331749999999
        },
        {
          "name": "D2",
          "midi": 38,
          "time": 48.74650827916667,
          "velocity": 0.5039370078740157,
          "duration": 0.18055548333333604
        },
        {
          "name": "E2",
          "midi": 40,
          "time": 48.95484152916667,
          "velocity": 0.5118110236220472,
          "duration": 0.22048602291666697
        },
        {
          "name": "D2",
          "midi": 38,
          "time": 49.163174779166674,
          "velocity": 0.5118110236220472,
          "duration": 0.4461803770833299
        },
        {
          "name": "E2",
          "midi": 40,
          "time": 49.58157738958334,
          "velocity": 0.49606299212598426,
          "duration": 0.4184026104166634
        },
        {
          "name": "C2",
          "midi": 36,
          "time": 49.99998,
          "velocity": 1,
          "duration": 0.8315968895833308
        },
        {
          "name": "D2",
          "midi": 38,
          "time": 49.99998,
          "velocity": 0.6614173228346457,
          "duration": 0.39756928541666525
        },
        {
          "name": "E2",
          "midi": 40,
          "time": 50.4166465,
          "velocity": 0.5039370078740157,
          "duration": 0.17534715208333296
        },
        {
          "name": "D2",
          "midi": 38,
          "time": 50.62497975,
          "velocity": 0.49606299212598426,
          "duration": 0.20486102916666482
        },
        {
          "name": "E2",
          "midi": 40,
          "time": 50.833313,
          "velocity": 0.6692913385826772,
          "duration": 0.406249837499999
        },
        {
          "name": "D2",
          "midi": 38,
          "time": 51.249979499999995,
          "velocity": 0.49606299212598426,
          "duration": 0.16666659999999922
        },
        {
          "name": "E2",
          "midi": 40,
          "time": 51.456576639583325,
          "velocity": 0.5039370078740157,
          "duration": 0.19270825625000043
        },
        {
          "name": "D2",
          "midi": 38,
          "time": 51.66664599999999,
          "velocity": 0.5118110236220472,
          "duration": 0.3489581937500006
        },
        {
          "name": "E2",
          "midi": 40,
          "time": 52.081576389583326,
          "velocity": 0.5118110236220472,
          "duration": 0.1840277041666667
        },
        {
          "name": "D2",
          "midi": 38,
          "time": 52.288173529166656,
          "velocity": 0.5196850393700787,
          "duration": 0.18055548333333604
        },
        {
          "name": "C2",
          "midi": 36,
          "time": 52.49997899999999,
          "velocity": 1,
          "duration": 0.8315968895833379
        },
        {
          "name": "D2",
          "midi": 38,
          "time": 52.49997899999999,
          "velocity": 0.6850393700787402,
          "duration": 0.3958331749999999
        },
        {
          "name": "E2",
          "midi": 40,
          "time": 52.91490938958332,
          "velocity": 0.5196850393700787,
          "duration": 0.1840277041666667
        },
        {
          "name": "D2",
          "midi": 38,
          "time": 53.123242639583324,
          "velocity": 0.5196850393700787,
          "duration": 0.19444436666666576
        },
        {
          "name": "E2",
          "midi": 40,
          "time": 53.33157588958333,
          "velocity": 0.6614173228346457,
          "duration": 0.3958331749999999
        },
        {
          "name": "D2",
          "midi": 38,
          "time": 53.74650627916666,
          "velocity": 0.5039370078740157,
          "duration": 0.18055548333333604
        },
        {
          "name": "E2",
          "midi": 40,
          "time": 53.95483952916666,
          "velocity": 0.5118110236220472,
          "duration": 0.22048602291666697
        },
        {
          "name": "D2",
          "midi": 38,
          "time": 54.163172779166665,
          "velocity": 0.5118110236220472,
          "duration": 0.4461803770833299
        },
        {
          "name": "E2",
          "midi": 40,
          "time": 54.58157538958333,
          "velocity": 0.49606299212598426,
          "duration": 0.4184026104166634
        },
        {
          "name": "C2",
          "midi": 36,
          "time": 54.99997799999999,
          "velocity": 1,
          "duration": 0.8263885583333348
        },
        {
          "name": "D2",
          "midi": 38,
          "time": 54.99997799999999,
          "velocity": 0.6850393700787402,
          "duration": 0.35243041458333124
        },
        {
          "name": "E2",
          "midi": 40,
          "time": 55.41317227916666,
          "velocity": 0.49606299212598426,
          "duration": 0.1649304895833339
        },
        {
          "name": "D2",
          "midi": 38,
          "time": 55.619769418749996,
          "velocity": 0.5118110236220472,
          "duration": 0.18576381458333202
        },
        {
          "name": "E2",
          "midi": 40,
          "time": 55.82810266874999,
          "velocity": 0.6535433070866141,
          "duration": 0.2934026604166675
        },
        {
          "name": "D2",
          "midi": 38,
          "time": 56.24476916874999,
          "velocity": 0.5039370078740157,
          "duration": 0.2222221333333394
        },
        {
          "name": "E2",
          "midi": 40,
          "time": 56.45310241874999,
          "velocity": 0.5118110236220472,
          "duration": 0.16666660000000633
        },
        {
          "name": "D2",
          "midi": 38,
          "time": 56.66143566875,
          "velocity": 0.5118110236220472,
          "duration": 0.41666649999999805
        },
        {
          "name": "E2",
          "midi": 40,
          "time": 57.079838279166665,
          "velocity": 0.5196850393700787,
          "duration": 0.4201387208333358
        },
        {
          "name": "C2",
          "midi": 36,
          "time": 57.499977,
          "velocity": 1,
          "duration": 0.8385413312500063
        },
        {
          "name": "D2",
          "midi": 38,
          "time": 57.499977,
          "velocity": 0.6850393700787402,
          "duration": 0.3958331749999999
        },
        {
          "name": "E2",
          "midi": 40,
          "time": 57.914907389583334,
          "velocity": 0.5196850393700787,
          "duration": 0.1840277041666667
        },
        {
          "name": "D2",
          "midi": 38,
          "time": 58.12324063958334,
          "velocity": 0.5196850393700787,
          "duration": 0.19444436666666576
        },
        {
          "name": "E2",
          "midi": 40,
          "time": 58.33157388958334,
          "velocity": 0.6614173228346457,
          "duration": 0.3958331749999999
        },
        {
          "name": "D2",
          "midi": 38,
          "time": 58.74650427916667,
          "velocity": 0.5039370078740157,
          "duration": 0.18055548333333604
        },
        {
          "name": "E2",
          "midi": 40,
          "time": 58.954837529166674,
          "velocity": 0.5118110236220472,
          "duration": 0.22048602291666697
        },
        {
          "name": "D2",
          "midi": 38,
          "time": 59.16317077916668,
          "velocity": 0.5118110236220472,
          "duration": 0.4461803770833299
        },
        {
          "name": "E2",
          "midi": 40,
          "time": 59.58157338958334,
          "velocity": 0.49606299212598426,
          "duration": 0.4184026104166634
        },
        {
          "name": "C2",
          "midi": 36,
          "time": 59.999976000000004,
          "velocity": 1,
          "duration": 0.8315968895833308
        },
        {
          "name": "D2",
          "midi": 38,
          "time": 59.999976000000004,
          "velocity": 0.6614173228346457,
          "duration": 0.39756928541666525
        },
        {
          "name": "E2",
          "midi": 40,
          "time": 60.4166425,
          "velocity": 0.5039370078740157,
          "duration": 0.17534715208333296
        },
        {
          "name": "D2",
          "midi": 38,
          "time": 60.624975750000004,
          "velocity": 0.49606299212598426,
          "duration": 0.20486102916666482
        },
        {
          "name": "E2",
          "midi": 40,
          "time": 60.833309,
          "velocity": 0.6692913385826772,
          "duration": 0.406249837499999
        },
        {
          "name": "D2",
          "midi": 38,
          "time": 61.2499755,
          "velocity": 0.49606299212598426,
          "duration": 0.16666659999999922
        },
        {
          "name": "E2",
          "midi": 40,
          "time": 61.45657263958333,
          "velocity": 0.5039370078740157,
          "duration": 0.19270825625000043
        },
        {
          "name": "D2",
          "midi": 38,
          "time": 61.666641999999996,
          "velocity": 0.5118110236220472,
          "duration": 0.3489581937500006
        },
        {
          "name": "E2",
          "midi": 40,
          "time": 62.08157238958333,
          "velocity": 0.5118110236220472,
          "duration": 0.1840277041666667
        },
        {
          "name": "D2",
          "midi": 38,
          "time": 62.28816952916666,
          "velocity": 0.5196850393700787,
          "duration": 0.18055548333333604
        },
        {
          "name": "C2",
          "midi": 36,
          "time": 62.49997499999999,
          "velocity": 1,
          "duration": 0.8315968895833379
        },
        {
          "name": "D2",
          "midi": 38,
          "time": 62.49997499999999,
          "velocity": 0.6850393700787402,
          "duration": 0.3958331749999999
        },
        {
          "name": "E2",
          "midi": 40,
          "time": 62.914905389583325,
          "velocity": 0.5196850393700787,
          "duration": 0.1840277041666667
        },
        {
          "name": "D2",
          "midi": 38,
          "time": 63.12323863958333,
          "velocity": 0.5196850393700787,
          "duration": 0.19444436666666576
        },
        {
          "name": "E2",
          "midi": 40,
          "time": 63.33157188958333,
          "velocity": 0.6614173228346457,
          "duration": 0.3958331749999999
        },
        {
          "name": "D2",
          "midi": 38,
          "time": 63.74650227916666,
          "velocity": 0.5039370078740157,
          "duration": 0.18055548333333604
        },
        {
          "name": "E2",
          "midi": 40,
          "time": 63.954835529166665,
          "velocity": 0.5118110236220472,
          "duration": 0.22048602291666697
        },
        {
          "name": "D2",
          "midi": 38,
          "time": 64.16316877916667,
          "velocity": 0.5118110236220472,
          "duration": 0.446180377083337
        },
        {
          "name": "E2",
          "midi": 40,
          "time": 64.58157138958333,
          "velocity": 0.49606299212598426,
          "duration": 0.4184026104166776
        },
        {
          "name": "C2",
          "midi": 36,
          "time": 64.99997400000001,
          "velocity": 1,
          "duration": 0.8263885583333348
        },
        {
          "name": "D2",
          "midi": 38,
          "time": 64.99997400000001,
          "velocity": 0.6850393700787402,
          "duration": 0.35243041458333835
        },
        {
          "name": "E2",
          "midi": 40,
          "time": 65.41316827916668,
          "velocity": 0.49606299212598426,
          "duration": 0.1649304895833268
        },
        {
          "name": "D2",
          "midi": 38,
          "time": 65.61976541875,
          "velocity": 0.5118110236220472,
          "duration": 0.18576381458333913
        },
        {
          "name": "E2",
          "midi": 40,
          "time": 65.82809866875002,
          "velocity": 0.6535433070866141,
          "duration": 0.2934026604166604
        },
        {
          "name": "D2",
          "midi": 38,
          "time": 66.24476516875,
          "velocity": 0.5039370078740157,
          "duration": 0.2222221333333323
        },
        {
          "name": "E2",
          "midi": 40,
          "time": 66.45309841875,
          "velocity": 0.5118110236220472,
          "duration": 0.16666659999999922
        },
        {
          "name": "D2",
          "midi": 38,
          "time": 66.66143166875,
          "velocity": 0.5118110236220472,
          "duration": 0.41666650000000516
        },
        {
          "name": "E2",
          "midi": 40,
          "time": 67.07983427916668,
          "velocity": 0.5196850393700787,
          "duration": 0.4201387208333358
        },
        {
          "name": "C2",
          "midi": 36,
          "time": 67.49997300000001,
          "velocity": 1,
          "duration": 0.8385413312500134
        },
        {
          "name": "D2",
          "midi": 38,
          "time": 67.49997300000001,
          "velocity": 0.6850393700787402,
          "duration": 0.39583317500000703
        },
        {
          "name": "E2",
          "midi": 40,
          "time": 67.91490338958336,
          "velocity": 0.5196850393700787,
          "duration": 0.1840277041666667
        },
        {
          "name": "D2",
          "midi": 38,
          "time": 68.12323663958335,
          "velocity": 0.5196850393700787,
          "duration": 0.19444436666667286
        },
        {
          "name": "E2",
          "midi": 40,
          "time": 68.33156988958336,
          "velocity": 0.6614173228346457,
          "duration": 0.3958331749999928
        },
        {
          "name": "D2",
          "midi": 38,
          "time": 68.7465002791667,
          "velocity": 0.5039370078740157,
          "duration": 0.18055548333333604
        },
        {
          "name": "E2",
          "midi": 40,
          "time": 68.9548335291667,
          "velocity": 0.5118110236220472,
          "duration": 0.22048602291665986
        },
        {
          "name": "D2",
          "midi": 38,
          "time": 69.1631667791667,
          "velocity": 0.5118110236220472,
          "duration": 0.446180377083337
        },
        {
          "name": "E2",
          "midi": 40,
          "time": 69.58156938958336,
          "velocity": 0.49606299212598426,
          "duration": 0.4184026104166776
        },
        {
          "name": "C2",
          "midi": 36,
          "time": 69.99997200000004,
          "velocity": 1,
          "duration": 0.8315968895833379
        },
        {
          "name": "D2",
          "midi": 38,
          "time": 69.99997200000004,
          "velocity": 0.6614173228346457,
          "duration": 0.39756928541666525
        },
        {
          "name": "E2",
          "midi": 40,
          "time": 70.41663850000005,
          "velocity": 0.5039370078740157,
          "duration": 0.17534715208333296
        },
        {
          "name": "D2",
          "midi": 38,
          "time": 70.62497175000004,
          "velocity": 0.49606299212598426,
          "duration": 0.20486102916666482
        },
        {
          "name": "E2",
          "midi": 40,
          "time": 70.83330500000005,
          "velocity": 0.6692913385826772,
          "duration": 0.406249837499999
        },
        {
          "name": "D2",
          "midi": 38,
          "time": 71.24997150000006,
          "velocity": 0.49606299212598426,
          "duration": 0.16666659999999922
        },
        {
          "name": "E2",
          "midi": 40,
          "time": 71.4565686395834,
          "velocity": 0.5039370078740157,
          "duration": 0.19270825625000043
        },
        {
          "name": "D2",
          "midi": 38,
          "time": 71.66663800000006,
          "velocity": 0.5118110236220472,
          "duration": 0.3489581937499935
        },
        {
          "name": "E2",
          "midi": 40,
          "time": 72.0815683895834,
          "velocity": 0.5118110236220472,
          "duration": 0.1840277041666667
        },
        {
          "name": "D2",
          "midi": 38,
          "time": 72.28816552916673,
          "velocity": 0.5196850393700787,
          "duration": 0.18055548333333604
        },
        {
          "name": "C2",
          "midi": 36,
          "time": 72.49997100000007,
          "velocity": 1,
          "duration": 0.8315968895833521
        },
        {
          "name": "D2",
          "midi": 38,
          "time": 72.49997100000007,
          "velocity": 0.6850393700787402,
          "duration": 0.39583317500000703
        },
        {
          "name": "E2",
          "midi": 40,
          "time": 72.91490138958342,
          "velocity": 0.5196850393700787,
          "duration": 0.1840277041666667
        },
        {
          "name": "D2",
          "midi": 38,
          "time": 73.12323463958342,
          "velocity": 0.5196850393700787,
          "duration": 0.19444436666667286
        },
        {
          "name": "E2",
          "midi": 40,
          "time": 73.33156788958343,
          "velocity": 0.6614173228346457,
          "duration": 0.39583317500000703
        },
        {
          "name": "D2",
          "midi": 38,
          "time": 73.74649827916677,
          "velocity": 0.5039370078740157,
          "duration": 0.18055548333333604
        },
        {
          "name": "E2",
          "midi": 40,
          "time": 73.95483152916678,
          "velocity": 0.5118110236220472,
          "duration": 0.22048602291665986
        },
        {
          "name": "D2",
          "midi": 38,
          "time": 74.16316477916678,
          "velocity": 0.5118110236220472,
          "duration": 0.446180377083337
        },
        {
          "name": "E2",
          "midi": 40,
          "time": 74.58156738958344,
          "velocity": 0.49606299212598426,
          "duration": 0.4184026104166776
        },
        {
          "name": "C2",
          "midi": 36,
          "time": 74.99997000000012,
          "velocity": 1,
          "duration": 0.8263885583333348
        },
        {
          "name": "D2",
          "midi": 38,
          "time": 74.99997000000012,
          "velocity": 0.6850393700787402,
          "duration": 0.35243041458333835
        },
        {
          "name": "E2",
          "midi": 40,
          "time": 75.41316427916679,
          "velocity": 0.49606299212598426,
          "duration": 0.1649304895833268
        },
        {
          "name": "D2",
          "midi": 38,
          "time": 75.61976141875012,
          "velocity": 0.5118110236220472,
          "duration": 0.18576381458333913
        },
        {
          "name": "E2",
          "midi": 40,
          "time": 75.82809466875013,
          "velocity": 0.6535433070866141,
          "duration": 0.2934026604166604
        },
        {
          "name": "D2",
          "midi": 38,
          "time": 76.24476116875012,
          "velocity": 0.5039370078740157,
          "duration": 0.2222221333333323
        },
        {
          "name": "E2",
          "midi": 40,
          "time": 76.45309441875011,
          "velocity": 0.5118110236220472,
          "duration": 0.16666659999999922
        },
        {
          "name": "D2",
          "midi": 38,
          "time": 76.66142766875011,
          "velocity": 0.5118110236220472,
          "duration": 0.41666650000000516
        },
        {
          "name": "E2",
          "midi": 40,
          "time": 77.07983027916679,
          "velocity": 0.5196850393700787,
          "duration": 0.4201387208333358
        },
        {
          "name": "C2",
          "midi": 36,
          "time": 77.49996900000012,
          "velocity": 1,
          "duration": 0.8385413312500134
        },
        {
          "name": "D2",
          "midi": 38,
          "time": 77.49996900000012,
          "velocity": 0.6850393700787402,
          "duration": 0.39583317500000703
        },
        {
          "name": "E2",
          "midi": 40,
          "time": 77.91489938958347,
          "velocity": 0.5196850393700787,
          "duration": 0.1840277041666667
        },
        {
          "name": "D2",
          "midi": 38,
          "time": 78.12323263958346,
          "velocity": 0.5196850393700787,
          "duration": 0.19444436666667286
        },
        {
          "name": "E2",
          "midi": 40,
          "time": 78.33156588958347,
          "velocity": 0.6614173228346457,
          "duration": 0.3958331749999928
        },
        {
          "name": "D2",
          "midi": 38,
          "time": 78.7464962791668,
          "velocity": 0.5039370078740157,
          "duration": 0.18055548333333604
        },
        {
          "name": "E2",
          "midi": 40,
          "time": 78.95482952916682,
          "velocity": 0.5118110236220472,
          "duration": 0.22048602291665986
        },
        {
          "name": "D2",
          "midi": 38,
          "time": 79.16316277916681,
          "velocity": 0.5118110236220472,
          "duration": 0.446180377083337
        },
        {
          "name": "E2",
          "midi": 40,
          "time": 79.58156538958347,
          "velocity": 0.49606299212598426,
          "duration": 0.4184026104166776
        },
        {
          "name": "C2",
          "midi": 36,
          "time": 79.99996800000015,
          "velocity": 1,
          "duration": 0.8315968895833379
        },
        {
          "name": "D2",
          "midi": 38,
          "time": 79.99996800000015,
          "velocity": 0.6614173228346457,
          "duration": 0.39756928541666525
        },
        {
          "name": "E2",
          "midi": 40,
          "time": 80.41663450000016,
          "velocity": 0.5039370078740157,
          "duration": 0.17534715208333296
        },
        {
          "name": "D2",
          "midi": 38,
          "time": 80.62496775000015,
          "velocity": 0.49606299212598426,
          "duration": 0.20486102916666482
        },
        {
          "name": "E2",
          "midi": 40,
          "time": 80.83330100000016,
          "velocity": 0.6692913385826772,
          "duration": 0.406249837499999
        },
        {
          "name": "D2",
          "midi": 38,
          "time": 81.24996750000017,
          "velocity": 0.49606299212598426,
          "duration": 0.16666659999999922
        },
        {
          "name": "E2",
          "midi": 40,
          "time": 81.4565646395835,
          "velocity": 0.5039370078740157,
          "duration": 0.19270825625000043
        },
        {
          "name": "D2",
          "midi": 38,
          "time": 81.66663400000017,
          "velocity": 0.5118110236220472,
          "duration": 0.3489581937499935
        },
        {
          "name": "E2",
          "midi": 40,
          "time": 82.0815643895835,
          "velocity": 0.5118110236220472,
          "duration": 0.1840277041666667
        },
        {
          "name": "D2",
          "midi": 38,
          "time": 82.28816152916684,
          "velocity": 0.5196850393700787,
          "duration": 0.18055548333333604
        },
        {
          "name": "C2",
          "midi": 36,
          "time": 82.49996700000018,
          "velocity": 1,
          "duration": 0.8315968895833521
        },
        {
          "name": "D2",
          "midi": 38,
          "time": 82.49996700000018,
          "velocity": 0.6850393700787402,
          "duration": 0.39583317500000703
        },
        {
          "name": "E2",
          "midi": 40,
          "time": 82.91489738958353,
          "velocity": 0.5196850393700787,
          "duration": 0.1840277041666667
        },
        {
          "name": "D2",
          "midi": 38,
          "time": 83.12323063958353,
          "velocity": 0.5196850393700787,
          "duration": 0.19444436666667286
        },
        {
          "name": "E2",
          "midi": 40,
          "time": 83.33156388958353,
          "velocity": 0.6614173228346457,
          "duration": 0.39583317500000703
        },
        {
          "name": "D2",
          "midi": 38,
          "time": 83.74649427916688,
          "velocity": 0.5039370078740157,
          "duration": 0.18055548333333604
        },
        {
          "name": "E2",
          "midi": 40,
          "time": 83.95482752916689,
          "velocity": 0.5118110236220472,
          "duration": 0.22048602291665986
        },
        {
          "name": "D2",
          "midi": 38,
          "time": 84.16316077916689,
          "velocity": 0.5118110236220472,
          "duration": 0.446180377083337
        },
        {
          "name": "E2",
          "midi": 40,
          "time": 84.58156338958355,
          "velocity": 0.49606299212598426,
          "duration": 0.4184026104166776
        },
        {
          "name": "C2",
          "midi": 36,
          "time": 84.99996600000023,
          "velocity": 1,
          "duration": 0.8315968895833521
        },
        {
          "name": "D2",
          "midi": 38,
          "time": 84.99996600000023,
          "velocity": 0.6850393700787402,
          "duration": 0.39583317500000703
        },
        {
          "name": "E2",
          "midi": 40,
          "time": 85.41489638958357,
          "velocity": 0.5196850393700787,
          "duration": 0.1840277041666667
        },
        {
          "name": "D2",
          "midi": 38,
          "time": 85.62322963958357,
          "velocity": 0.5196850393700787,
          "duration": 0.19444436666667286
        },
        {
          "name": "E2",
          "midi": 40,
          "time": 85.83156288958358,
          "velocity": 0.6614173228346457,
          "duration": 0.39583317500000703
        },
        {
          "name": "D2",
          "midi": 38,
          "time": 86.24649327916693,
          "velocity": 0.5039370078740157,
          "duration": 0.18055548333333604
        },
        {
          "name": "E2",
          "midi": 40,
          "time": 86.45482652916694,
          "velocity": 0.5118110236220472,
          "duration": 0.22048602291665986
        },
        {
          "name": "D2",
          "midi": 38,
          "time": 86.66315977916693,
          "velocity": 0.5118110236220472,
          "duration": 0.446180377083337
        },
        {
          "name": "E2",
          "midi": 40,
          "time": 87.0815623895836,
          "velocity": 0.49606299212598426,
          "duration": 0.4184026104166776
        },
        {
          "name": "C2",
          "midi": 36,
          "time": 87.49996500000027,
          "velocity": 1,
          "duration": 0.8263885583333348
        },
        {
          "name": "D2",
          "midi": 38,
          "time": 87.49996500000027,
          "velocity": 0.6850393700787402,
          "duration": 0.35243041458333835
        },
        {
          "name": "E2",
          "midi": 40,
          "time": 87.91315927916695,
          "velocity": 0.49606299212598426,
          "duration": 0.1649304895833268
        },
        {
          "name": "D2",
          "midi": 38,
          "time": 88.11975641875027,
          "velocity": 0.5118110236220472,
          "duration": 0.18576381458333913
        },
        {
          "name": "E2",
          "midi": 40,
          "time": 88.32808966875028,
          "velocity": 0.6535433070866141,
          "duration": 0.2934026604166604
        },
        {
          "name": "D2",
          "midi": 38,
          "time": 88.74475616875027,
          "velocity": 0.5039370078740157,
          "duration": 0.2222221333333323
        },
        {
          "name": "E2",
          "midi": 40,
          "time": 88.95308941875027,
          "velocity": 0.5118110236220472,
          "duration": 0.16666659999999922
        },
        {
          "name": "D2",
          "midi": 38,
          "time": 89.16142266875026,
          "velocity": 0.5118110236220472,
          "duration": 0.41666650000000516
        },
        {
          "name": "E2",
          "midi": 40,
          "time": 89.57982527916694,
          "velocity": 0.5196850393700787,
          "duration": 0.4201387208333358
        },
        {
          "name": "C2",
          "midi": 36,
          "time": 89.99996400000028,
          "velocity": 1,
          "duration": 0.8385413312500134
        },
        {
          "name": "D2",
          "midi": 38,
          "time": 89.99996400000028,
          "velocity": 0.6850393700787402,
          "duration": 0.39583317500000703
        },
        {
          "name": "E2",
          "midi": 40,
          "time": 90.41489438958362,
          "velocity": 0.5196850393700787,
          "duration": 0.1840277041666667
        },
        {
          "name": "D2",
          "midi": 38,
          "time": 90.62322763958362,
          "velocity": 0.5196850393700787,
          "duration": 0.19444436666667286
        },
        {
          "name": "E2",
          "midi": 40,
          "time": 90.83156088958363,
          "velocity": 0.6614173228346457,
          "duration": 0.3958331749999928
        },
        {
          "name": "D2",
          "midi": 38,
          "time": 91.24649127916696,
          "velocity": 0.5039370078740157,
          "duration": 0.18055548333333604
        },
        {
          "name": "E2",
          "midi": 40,
          "time": 91.45482452916697,
          "velocity": 0.5118110236220472,
          "duration": 0.22048602291665986
        },
        {
          "name": "D2",
          "midi": 38,
          "time": 91.66315777916697,
          "velocity": 0.5118110236220472,
          "duration": 0.446180377083337
        },
        {
          "name": "E2",
          "midi": 40,
          "time": 92.08156038958363,
          "velocity": 0.49606299212598426,
          "duration": 0.4184026104166776
        },
        {
          "name": "C2",
          "midi": 36,
          "time": 92.4999630000003,
          "velocity": 1,
          "duration": 0.8315968895833379
        },
        {
          "name": "D2",
          "midi": 38,
          "time": 92.4999630000003,
          "velocity": 0.6614173228346457,
          "duration": 0.39756928541666525
        },
        {
          "name": "E2",
          "midi": 40,
          "time": 92.91662950000031,
          "velocity": 0.5039370078740157,
          "duration": 0.17534715208333296
        },
        {
          "name": "D2",
          "midi": 38,
          "time": 93.12496275000031,
          "velocity": 0.49606299212598426,
          "duration": 0.20486102916666482
        },
        {
          "name": "E2",
          "midi": 40,
          "time": 93.33329600000032,
          "velocity": 0.6692913385826772,
          "duration": 0.406249837499999
        },
        {
          "name": "D2",
          "midi": 38,
          "time": 93.74996250000032,
          "velocity": 0.49606299212598426,
          "duration": 0.16666659999999922
        },
        {
          "name": "E2",
          "midi": 40,
          "time": 93.95655963958366,
          "velocity": 0.5039370078740157,
          "duration": 0.19270825625000043
        },
        {
          "name": "D2",
          "midi": 38,
          "time": 94.16662900000033,
          "velocity": 0.5118110236220472,
          "duration": 0.3489581937499935
        },
        {
          "name": "E2",
          "midi": 40,
          "time": 94.58155938958366,
          "velocity": 0.5118110236220472,
          "duration": 0.1840277041666667
        },
        {
          "name": "D2",
          "midi": 38,
          "time": 94.788156529167,
          "velocity": 0.5196850393700787,
          "duration": 0.18055548333333604
        },
        {
          "name": "C2",
          "midi": 36,
          "time": 94.99996200000034,
          "velocity": 1,
          "duration": 0.8315968895833521
        },
        {
          "name": "D2",
          "midi": 38,
          "time": 94.99996200000034,
          "velocity": 0.6850393700787402,
          "duration": 0.39583317500000703
        },
        {
          "name": "E2",
          "midi": 40,
          "time": 95.41489238958368,
          "velocity": 0.5196850393700787,
          "duration": 0.1840277041666667
        },
        {
          "name": "D2",
          "midi": 38,
          "time": 95.62322563958368,
          "velocity": 0.5196850393700787,
          "duration": 0.19444436666667286
        },
        {
          "name": "E2",
          "midi": 40,
          "time": 95.83155888958369,
          "velocity": 0.6614173228346457,
          "duration": 0.39583317500000703
        },
        {
          "name": "D2",
          "midi": 38,
          "time": 96.24648927916704,
          "velocity": 0.5039370078740157,
          "duration": 0.18055548333333604
        },
        {
          "name": "E2",
          "midi": 40,
          "time": 96.45482252916705,
          "velocity": 0.5118110236220472,
          "duration": 0.22048602291665986
        },
        {
          "name": "D2",
          "midi": 38,
          "time": 96.66315577916704,
          "velocity": 0.5118110236220472,
          "duration": 0.446180377083337
        },
        {
          "name": "E2",
          "midi": 40,
          "time": 97.0815583895837,
          "velocity": 0.49606299212598426,
          "duration": 0.4184026104166776
        },
        {
          "name": "C2",
          "midi": 36,
          "time": 97.49996100000038,
          "velocity": 1,
          "duration": 0.8263885583333348
        },
        {
          "name": "D2",
          "midi": 38,
          "time": 97.49996100000038,
          "velocity": 0.6850393700787402,
          "duration": 0.35243041458333835
        },
        {
          "name": "E2",
          "midi": 40,
          "time": 97.91315527916706,
          "velocity": 0.49606299212598426,
          "duration": 0.1649304895833268
        },
        {
          "name": "D2",
          "midi": 38,
          "time": 98.11975241875038,
          "velocity": 0.5118110236220472,
          "duration": 0.18576381458333913
        },
        {
          "name": "E2",
          "midi": 40,
          "time": 98.32808566875039,
          "velocity": 0.6535433070866141,
          "duration": 0.2934026604166604
        },
        {
          "name": "D2",
          "midi": 38,
          "time": 98.74475216875038,
          "velocity": 0.5039370078740157,
          "duration": 0.2222221333333323
        },
        {
          "name": "E2",
          "midi": 40,
          "time": 98.95308541875038,
          "velocity": 0.5118110236220472,
          "duration": 0.16666659999999922
        },
        {
          "name": "D2",
          "midi": 38,
          "time": 99.16141866875037,
          "velocity": 0.5118110236220472,
          "duration": 0.41666650000000516
        },
        {
          "name": "E2",
          "midi": 40,
          "time": 99.57982127916705,
          "velocity": 0.5196850393700787,
          "duration": 0.4201387208333358
        },
        {
          "name": "C2",
          "midi": 36,
          "time": 99.99996000000039,
          "velocity": 1,
          "duration": 0.8385413312500134
        },
        {
          "name": "D2",
          "midi": 38,
          "time": 99.99996000000039,
          "velocity": 0.6850393700787402,
          "duration": 0.39583317500000703
        },
        {
          "name": "E2",
          "midi": 40,
          "time": 100.41489038958373,
          "velocity": 0.5196850393700787,
          "duration": 0.1840277041666667
        },
        {
          "name": "D2",
          "midi": 38,
          "time": 100.62322363958373,
          "velocity": 0.5196850393700787,
          "duration": 0.19444436666667286
        },
        {
          "name": "E2",
          "midi": 40,
          "time": 100.83155688958374,
          "velocity": 0.6614173228346457,
          "duration": 0.3958331749999928
        },
        {
          "name": "D2",
          "midi": 38,
          "time": 101.24648727916707,
          "velocity": 0.5039370078740157,
          "duration": 0.18055548333333604
        },
        {
          "name": "E2",
          "midi": 40,
          "time": 101.45482052916708,
          "velocity": 0.5118110236220472,
          "duration": 0.22048602291665986
        },
        {
          "name": "D2",
          "midi": 38,
          "time": 101.66315377916708,
          "velocity": 0.5118110236220472,
          "duration": 0.446180377083337
        },
        {
          "name": "E2",
          "midi": 40,
          "time": 102.08155638958374,
          "velocity": 0.49606299212598426,
          "duration": 0.4184026104166776
        },
        {
          "name": "C2",
          "midi": 36,
          "time": 102.49995900000042,
          "velocity": 1,
          "duration": 0.8315968895833379
        },
        {
          "name": "D2",
          "midi": 38,
          "time": 102.49995900000042,
          "velocity": 0.6614173228346457,
          "duration": 0.39756928541666525
        },
        {
          "name": "E2",
          "midi": 40,
          "time": 102.91662550000042,
          "velocity": 0.5039370078740157,
          "duration": 0.17534715208333296
        },
        {
          "name": "D2",
          "midi": 38,
          "time": 103.12495875000042,
          "velocity": 0.49606299212598426,
          "duration": 0.20486102916666482
        },
        {
          "name": "E2",
          "midi": 40,
          "time": 103.33329200000043,
          "velocity": 0.6692913385826772,
          "duration": 0.406249837499999
        },
        {
          "name": "D2",
          "midi": 38,
          "time": 103.74995850000043,
          "velocity": 0.49606299212598426,
          "duration": 0.16666659999999922
        },
        {
          "name": "E2",
          "midi": 40,
          "time": 103.95655563958377,
          "velocity": 0.5039370078740157,
          "duration": 0.19270825625000043
        },
        {
          "name": "D2",
          "midi": 38,
          "time": 104.16662500000044,
          "velocity": 0.5118110236220472,
          "duration": 0.3489581937499935
        },
        {
          "name": "E2",
          "midi": 40,
          "time": 104.58155538958377,
          "velocity": 0.5118110236220472,
          "duration": 0.1840277041666667
        },
        {
          "name": "D2",
          "midi": 38,
          "time": 104.7881525291671,
          "velocity": 0.5196850393700787,
          "duration": 0.18055548333333604
        },
        {
          "name": "C2",
          "midi": 36,
          "time": 104.99995800000045,
          "velocity": 1,
          "duration": 0.8315968895833521
        },
        {
          "name": "D2",
          "midi": 38,
          "time": 104.99995800000045,
          "velocity": 0.6850393700787402,
          "duration": 0.39583317500000703
        },
        {
          "name": "E2",
          "midi": 40,
          "time": 105.4148883895838,
          "velocity": 0.5196850393700787,
          "duration": 0.1840277041666667
        },
        {
          "name": "D2",
          "midi": 38,
          "time": 105.62322163958379,
          "velocity": 0.5196850393700787,
          "duration": 0.19444436666667286
        },
        {
          "name": "E2",
          "midi": 40,
          "time": 105.8315548895838,
          "velocity": 0.6614173228346457,
          "duration": 0.39583317500000703
        },
        {
          "name": "D2",
          "midi": 38,
          "time": 106.24648527916715,
          "velocity": 0.5039370078740157,
          "duration": 0.18055548333333604
        },
        {
          "name": "E2",
          "midi": 40,
          "time": 106.45481852916716,
          "velocity": 0.5118110236220472,
          "duration": 0.22048602291665986
        },
        {
          "name": "D2",
          "midi": 38,
          "time": 106.66315177916715,
          "velocity": 0.5118110236220472,
          "duration": 0.446180377083337
        },
        {
          "name": "E2",
          "midi": 40,
          "time": 107.08155438958381,
          "velocity": 0.49606299212598426,
          "duration": 0.4184026104166776
        },
        {
          "name": "C2",
          "midi": 36,
          "time": 107.49995700000049,
          "velocity": 1,
          "duration": 0.8315968895833521
        },
        {
          "name": "D2",
          "midi": 38,
          "time": 107.49995700000049,
          "velocity": 0.6850393700787402,
          "duration": 0.39583317500000703
        },
        {
          "name": "E2",
          "midi": 40,
          "time": 107.91488738958384,
          "velocity": 0.5196850393700787,
          "duration": 0.1840277041666667
        },
        {
          "name": "D2",
          "midi": 38,
          "time": 108.12322063958383,
          "velocity": 0.5196850393700787,
          "duration": 0.19444436666667286
        },
        {
          "name": "E2",
          "midi": 40,
          "time": 108.33155388958384,
          "velocity": 0.6614173228346457,
          "duration": 0.39583317500000703
        },
        {
          "name": "D2",
          "midi": 38,
          "time": 108.74648427916719,
          "velocity": 0.5039370078740157,
          "duration": 0.18055548333333604
        },
        {
          "name": "E2",
          "midi": 40,
          "time": 108.9548175291672,
          "velocity": 0.5118110236220472,
          "duration": 0.22048602291665986
        },
        {
          "name": "D2",
          "midi": 38,
          "time": 109.1631507791672,
          "velocity": 0.5118110236220472,
          "duration": 0.446180377083337
        },
        {
          "name": "E2",
          "midi": 40,
          "time": 109.58155338958386,
          "velocity": 0.49606299212598426,
          "duration": 0.4184026104166776
        },
        {
          "name": "D2",
          "midi": 38,
          "time": 109.99995600000054,
          "velocity": 0.6850393700787402,
          "duration": 0.35243041458333835
        },
        {
          "name": "C2",
          "midi": 36,
          "time": 109.99995600000054,
          "velocity": 1,
          "duration": 0.3819442916666702
        },
        {
          "name": "B3",
          "midi": 59,
          "time": 109.99995600000054,
          "velocity": 0.9921259842519685,
          "duration": 0.41493038958334694
        },
        {
          "name": "E2",
          "midi": 40,
          "time": 110.41315027916721,
          "velocity": 0.49606299212598426,
          "duration": 0.164930489583341
        },
        {
          "name": "D2",
          "midi": 38,
          "time": 110.61974741875055,
          "velocity": 0.5118110236220472,
          "duration": 0.18576381458333913
        },
        {
          "name": "C2",
          "midi": 36,
          "time": 110.63363630208389,
          "velocity": 1,
          "duration": 0.18923603541666978
        },
        {
          "name": "E2",
          "midi": 40,
          "time": 110.82808066875056,
          "velocity": 0.6535433070866141,
          "duration": 0.2934026604166604
        },
        {
          "name": "C2",
          "midi": 36,
          "time": 110.84023344166722,
          "velocity": 1,
          "duration": 0.9010413062499794
        },
        {
          "name": "D2",
          "midi": 38,
          "time": 111.24474716875055,
          "velocity": 0.5039370078740157,
          "duration": 0.2222221333333323
        },
        {
          "name": "E2",
          "midi": 40,
          "time": 111.45308041875055,
          "velocity": 0.5118110236220472,
          "duration": 0.16666659999999922
        },
        {
          "name": "D2",
          "midi": 38,
          "time": 111.66141366875054,
          "velocity": 0.5118110236220472,
          "duration": 0.41666649999999095
        },
        {
          "name": "E2",
          "midi": 40,
          "time": 112.0798162791672,
          "velocity": 0.5196850393700787,
          "duration": 0.4201387208333358
        },
        {
          "name": "C2",
          "midi": 36,
          "time": 112.49995500000054,
          "velocity": 1,
          "duration": 0.8385413312500134
        },
        {
          "name": "D2",
          "midi": 38,
          "time": 112.49995500000054,
          "velocity": 0.6850393700787402,
          "duration": 0.39583317500000703
        },
        {
          "name": "E2",
          "midi": 40,
          "time": 112.91488538958389,
          "velocity": 0.5196850393700787,
          "duration": 0.1840277041666667
        },
        {
          "name": "D2",
          "midi": 38,
          "time": 113.12321863958388,
          "velocity": 0.5196850393700787,
          "duration": 0.19444436666667286
        },
        {
          "name": "E2",
          "midi": 40,
          "time": 113.33155188958389,
          "velocity": 0.6614173228346457,
          "duration": 0.3958331749999928
        },
        {
          "name": "D2",
          "midi": 38,
          "time": 113.74648227916722,
          "velocity": 0.5039370078740157,
          "duration": 0.18055548333333604
        },
        {
          "name": "E2",
          "midi": 40,
          "time": 113.95481552916723,
          "velocity": 0.5118110236220472,
          "duration": 0.22048602291665986
        },
        {
          "name": "D2",
          "midi": 38,
          "time": 114.16314877916723,
          "velocity": 0.5118110236220472,
          "duration": 0.446180377083337
        },
        {
          "name": "E2",
          "midi": 40,
          "time": 114.5815513895839,
          "velocity": 0.49606299212598426,
          "duration": 0.4184026104166776
        },
        {
          "name": "D2",
          "midi": 38,
          "time": 114.99995400000057,
          "velocity": 0.6614173228346457,
          "duration": 0.39756928541666525
        },
        {
          "name": "C2",
          "midi": 36,
          "time": 114.99995400000057,
          "velocity": 1,
          "duration": 0.3819442916666702
        },
        {
          "name": "B3",
          "midi": 59,
          "time": 114.99995400000057,
          "velocity": 0.9921259842519685,
          "duration": 0.4149303895833327
        },
        {
          "name": "E2",
          "midi": 40,
          "time": 115.41662050000058,
          "velocity": 0.5039370078740157,
          "duration": 0.17534715208333296
        },
        {
          "name": "D2",
          "midi": 38,
          "time": 115.62495375000057,
          "velocity": 0.49606299212598426,
          "duration": 0.20486102916666482
        },
        {
          "name": "C2",
          "midi": 36,
          "time": 115.6336343020839,
          "velocity": 1,
          "duration": 0.18923603541666978
        },
        {
          "name": "E2",
          "midi": 40,
          "time": 115.83328700000057,
          "velocity": 0.6692913385826772,
          "duration": 0.406249837499999
        },
        {
          "name": "C2",
          "midi": 36,
          "time": 115.84023144166723,
          "velocity": 1,
          "duration": 0.901041306250022
        },
        {
          "name": "D2",
          "midi": 38,
          "time": 116.24995350000057,
          "velocity": 0.49606299212598426,
          "duration": 0.16666659999999922
        },
        {
          "name": "E2",
          "midi": 40,
          "time": 116.45655063958391,
          "velocity": 0.5039370078740157,
          "duration": 0.19270825625000043
        },
        {
          "name": "D2",
          "midi": 38,
          "time": 116.66662000000058,
          "velocity": 0.5118110236220472,
          "duration": 0.3489581937500077
        },
        {
          "name": "E2",
          "midi": 40,
          "time": 117.08155038958392,
          "velocity": 0.5118110236220472,
          "duration": 0.1840277041666667
        },
        {
          "name": "D2",
          "midi": 38,
          "time": 117.28814752916726,
          "velocity": 0.5196850393700787,
          "duration": 0.18055548333333604
        },
        {
          "name": "C2",
          "midi": 36,
          "time": 117.4999530000006,
          "velocity": 1,
          "duration": 0.8315968895833521
        },
        {
          "name": "D2",
          "midi": 38,
          "time": 117.4999530000006,
          "velocity": 0.6850393700787402,
          "duration": 0.39583317500000703
        },
        {
          "name": "E2",
          "midi": 40,
          "time": 117.91488338958395,
          "velocity": 0.5196850393700787,
          "duration": 0.1840277041666667
        },
        {
          "name": "D2",
          "midi": 38,
          "time": 118.12321663958394,
          "velocity": 0.5196850393700787,
          "duration": 0.19444436666667286
        },
        {
          "name": "E2",
          "midi": 40,
          "time": 118.33154988958395,
          "velocity": 0.6614173228346457,
          "duration": 0.39583317500000703
        },
        {
          "name": "D2",
          "midi": 38,
          "time": 118.7464802791673,
          "velocity": 0.5039370078740157,
          "duration": 0.18055548333333604
        },
        {
          "name": "E2",
          "midi": 40,
          "time": 118.95481352916731,
          "velocity": 0.5118110236220472,
          "duration": 0.22048602291665986
        },
        {
          "name": "D2",
          "midi": 38,
          "time": 119.1631467791673,
          "velocity": 0.5118110236220472,
          "duration": 0.446180377083337
        },
        {
          "name": "E2",
          "midi": 40,
          "time": 119.58154938958397,
          "velocity": 0.49606299212598426,
          "duration": 0.4184026104166776
        },
        {
          "name": "D2",
          "midi": 38,
          "time": 119.99995200000065,
          "velocity": 0.6850393700787402,
          "duration": 0.35243041458333835
        },
        {
          "name": "C2",
          "midi": 36,
          "time": 119.99995200000065,
          "velocity": 1,
          "duration": 0.3819442916666702
        },
        {
          "name": "B3",
          "midi": 59,
          "time": 119.99995200000065,
          "velocity": 0.9921259842519685,
          "duration": 0.41493038958334694
        },
        {
          "name": "E2",
          "midi": 40,
          "time": 120.41314627916732,
          "velocity": 0.49606299212598426,
          "duration": 0.164930489583341
        },
        {
          "name": "D2",
          "midi": 38,
          "time": 120.61974341875066,
          "velocity": 0.5118110236220472,
          "duration": 0.18576381458333913
        },
        {
          "name": "C2",
          "midi": 36,
          "time": 120.633632302084,
          "velocity": 1,
          "duration": 0.18923603541666978
        },
        {
          "name": "E2",
          "midi": 40,
          "time": 120.82807666875067,
          "velocity": 0.6535433070866141,
          "duration": 0.2934026604166604
        },
        {
          "name": "C2",
          "midi": 36,
          "time": 120.84022944166733,
          "velocity": 1,
          "duration": 0.9010413062499794
        },
        {
          "name": "D2",
          "midi": 38,
          "time": 121.24474316875066,
          "velocity": 0.5039370078740157,
          "duration": 0.2222221333333323
        },
        {
          "name": "E2",
          "midi": 40,
          "time": 121.45307641875065,
          "velocity": 0.5118110236220472,
          "duration": 0.16666659999999922
        },
        {
          "name": "D2",
          "midi": 38,
          "time": 121.66140966875065,
          "velocity": 0.5118110236220472,
          "duration": 0.41666649999999095
        },
        {
          "name": "E2",
          "midi": 40,
          "time": 122.07981227916731,
          "velocity": 0.5196850393700787,
          "duration": 0.4201387208333358
        },
        {
          "name": "C2",
          "midi": 36,
          "time": 122.49995100000065,
          "velocity": 1,
          "duration": 0.8385413312500134
        },
        {
          "name": "D2",
          "midi": 38,
          "time": 122.49995100000065,
          "velocity": 0.6850393700787402,
          "duration": 0.39583317500000703
        },
        {
          "name": "E2",
          "midi": 40,
          "time": 122.914881389584,
          "velocity": 0.5196850393700787,
          "duration": 0.1840277041666667
        },
        {
          "name": "D2",
          "midi": 38,
          "time": 123.12321463958399,
          "velocity": 0.5196850393700787,
          "duration": 0.19444436666667286
        },
        {
          "name": "E2",
          "midi": 40,
          "time": 123.331547889584,
          "velocity": 0.6614173228346457,
          "duration": 0.3958331749999928
        },
        {
          "name": "D2",
          "midi": 38,
          "time": 123.74647827916733,
          "velocity": 0.5039370078740157,
          "duration": 0.18055548333333604
        },
        {
          "name": "E2",
          "midi": 40,
          "time": 123.95481152916734,
          "velocity": 0.5118110236220472,
          "duration": 0.22048602291665986
        },
        {
          "name": "D2",
          "midi": 38,
          "time": 124.16314477916734,
          "velocity": 0.5118110236220472,
          "duration": 0.446180377083337
        },
        {
          "name": "E2",
          "midi": 40,
          "time": 124.581547389584,
          "velocity": 0.49606299212598426,
          "duration": 0.4184026104166776
        },
        {
          "name": "C2",
          "midi": 36,
          "time": 124.99647777916735,
          "velocity": 1,
          "duration": 0.8263885583333348
        },
        {
          "name": "C2",
          "midi": 36,
          "time": 124.99995000000068,
          "velocity": 1,
          "duration": 0.8315968895833379
        },
        {
          "name": "D2",
          "midi": 38,
          "time": 124.99995000000068,
          "velocity": 0.6614173228346457,
          "duration": 0.39756928541666525
        },
        {
          "name": "B3",
          "midi": 59,
          "time": 124.99995000000068,
          "velocity": 0.5826771653543307,
          "duration": 0.4149303895833327
        },
        {
          "name": "E2",
          "midi": 40,
          "time": 125.41661650000069,
          "velocity": 0.5039370078740157,
          "duration": 0.17534715208333296
        },
        {
          "name": "D2",
          "midi": 38,
          "time": 125.62494975000068,
          "velocity": 0.49606299212598426,
          "duration": 0.20486102916666482
        },
        {
          "name": "E2",
          "midi": 40,
          "time": 125.83328300000069,
          "velocity": 0.6692913385826772,
          "duration": 0.406249837499999
        },
        {
          "name": "D2",
          "midi": 38,
          "time": 126.2499495000007,
          "velocity": 0.49606299212598426,
          "duration": 0.16666659999999922
        },
        {
          "name": "E2",
          "midi": 40,
          "time": 126.45654663958403,
          "velocity": 0.5039370078740157,
          "duration": 0.19270825625000043
        },
        {
          "name": "D2",
          "midi": 38,
          "time": 126.6666160000007,
          "velocity": 0.5118110236220472,
          "duration": 0.3489581937499935
        },
        {
          "name": "E2",
          "midi": 40,
          "time": 127.08154638958403,
          "velocity": 0.5118110236220472,
          "duration": 0.1840277041666667
        },
        {
          "name": "D2",
          "midi": 38,
          "time": 127.28814352916737,
          "velocity": 0.5196850393700787,
          "duration": 0.18055548333333604
        },
        {
          "name": "C2",
          "midi": 36,
          "time": 127.49994900000071,
          "velocity": 1,
          "duration": 0.8315968895833095
        },
        {
          "name": "D2",
          "midi": 38,
          "time": 127.49994900000071,
          "velocity": 0.6850393700787402,
          "duration": 0.39583317500000703
        },
        {
          "name": "E2",
          "midi": 40,
          "time": 127.91487938958406,
          "velocity": 0.5196850393700787,
          "duration": 0.18402770416665248
        },
        {
          "name": "D2",
          "midi": 38,
          "time": 128.12321263958404,
          "velocity": 0.5196850393700787,
          "duration": 0.19444436666665865
        },
        {
          "name": "E2",
          "midi": 40,
          "time": 128.33154588958402,
          "velocity": 0.6614173228346457,
          "duration": 0.39583317500000703
        },
        {
          "name": "D2",
          "midi": 38,
          "time": 128.74647627916735,
          "velocity": 0.5039370078740157,
          "duration": 0.18055548333333604
        },
        {
          "name": "E2",
          "midi": 40,
          "time": 128.95480952916736,
          "velocity": 0.5118110236220472,
          "duration": 0.22048602291667407
        },
        {
          "name": "D2",
          "midi": 38,
          "time": 129.16314277916737,
          "velocity": 0.5118110236220472,
          "duration": 0.44618037708335123
        },
        {
          "name": "E2",
          "midi": 40,
          "time": 129.58154538958405,
          "velocity": 0.49606299212598426,
          "duration": 0.4184026104166776
        },
        {
          "name": "D2",
          "midi": 38,
          "time": 129.99994800000073,
          "velocity": 0.6850393700787402,
          "duration": 0.35243041458332414
        },
        {
          "name": "C2",
          "midi": 36,
          "time": 129.99994800000073,
          "velocity": 1,
          "duration": 0.381944291666656
        },
        {
          "name": "B3",
          "midi": 59,
          "time": 129.99994800000073,
          "velocity": 0.9921259842519685,
          "duration": 0.4149303895833043
        },
        {
          "name": "E2",
          "midi": 40,
          "time": 130.41314227916737,
          "velocity": 0.49606299212598426,
          "duration": 0.1649304895833268
        },
        {
          "name": "D2",
          "midi": 38,
          "time": 130.6197394187507,
          "velocity": 0.5118110236220472,
          "duration": 0.1857638145833107
        },
        {
          "name": "C2",
          "midi": 36,
          "time": 130.63362830208402,
          "velocity": 1,
          "duration": 0.18923603541665557
        },
        {
          "name": "E2",
          "midi": 40,
          "time": 130.82807266875068,
          "velocity": 0.6535433070866141,
          "duration": 0.2934026604166604
        },
        {
          "name": "C2",
          "midi": 36,
          "time": 130.84022544166734,
          "velocity": 1,
          "duration": 0.9010413062499936
        },
        {
          "name": "D2",
          "midi": 38,
          "time": 131.24473916875067,
          "velocity": 0.5039370078740157,
          "duration": 0.2222221333333323
        },
        {
          "name": "E2",
          "midi": 40,
          "time": 131.45307241875068,
          "velocity": 0.5118110236220472,
          "duration": 0.166666599999985
        },
        {
          "name": "D2",
          "midi": 38,
          "time": 131.66140566875066,
          "velocity": 0.5118110236220472,
          "duration": 0.41666650000001937
        },
        {
          "name": "E2",
          "midi": 40,
          "time": 132.07980827916734,
          "velocity": 0.5196850393700787,
          "duration": 0.4201387208333358
        },
        {
          "name": "C2",
          "midi": 36,
          "time": 132.49994700000067,
          "velocity": 1,
          "duration": 0.8385413312499566
        },
        {
          "name": "D2",
          "midi": 38,
          "time": 132.49994700000067,
          "velocity": 0.6850393700787402,
          "duration": 0.39583317500000703
        },
        {
          "name": "E2",
          "midi": 40,
          "time": 132.914877389584,
          "velocity": 0.5196850393700787,
          "duration": 0.18402770416665248
        },
        {
          "name": "D2",
          "midi": 38,
          "time": 133.123210639584,
          "velocity": 0.5196850393700787,
          "duration": 0.19444436666665865
        },
        {
          "name": "E2",
          "midi": 40,
          "time": 133.33154388958397,
          "velocity": 0.6614173228346457,
          "duration": 0.39583317500000703
        },
        {
          "name": "D2",
          "midi": 38,
          "time": 133.7464742791673,
          "velocity": 0.5039370078740157,
          "duration": 0.18055548333333604
        },
        {
          "name": "E2",
          "midi": 40,
          "time": 133.9548075291673,
          "velocity": 0.5118110236220472,
          "duration": 0.22048602291667407
        },
        {
          "name": "D2",
          "midi": 38,
          "time": 134.16314077916732,
          "velocity": 0.5118110236220472,
          "duration": 0.44618037708335123
        },
        {
          "name": "E2",
          "midi": 40,
          "time": 134.581543389584,
          "velocity": 0.49606299212598426,
          "duration": 0.4184026104166776
        },
        {
          "name": "D2",
          "midi": 38,
          "time": 134.99994600000068,
          "velocity": 0.6614173228346457,
          "duration": 0.39756928541666525
        },
        {
          "name": "C2",
          "midi": 36,
          "time": 134.99994600000068,
          "velocity": 1,
          "duration": 0.381944291666656
        },
        {
          "name": "B3",
          "midi": 59,
          "time": 134.99994600000068,
          "velocity": 0.9921259842519685,
          "duration": 0.4149303895833327
        },
        {
          "name": "E2",
          "midi": 40,
          "time": 135.41661250000067,
          "velocity": 0.5039370078740157,
          "duration": 0.17534715208333296
        },
        {
          "name": "D2",
          "midi": 38,
          "time": 135.62494575000068,
          "velocity": 0.49606299212598426,
          "duration": 0.2048610291666364
        },
        {
          "name": "C2",
          "midi": 36,
          "time": 135.633626302084,
          "velocity": 1,
          "duration": 0.18923603541665557
        },
        {
          "name": "E2",
          "midi": 40,
          "time": 135.83327900000066,
          "velocity": 0.6692913385826772,
          "duration": 0.4062498374999848
        },
        {
          "name": "C2",
          "midi": 36,
          "time": 135.84022344166732,
          "velocity": 1,
          "duration": 0.901041306250022
        },
        {
          "name": "D2",
          "midi": 38,
          "time": 136.24994550000065,
          "velocity": 0.49606299212598426,
          "duration": 0.16666660000001343
        },
        {
          "name": "E2",
          "midi": 40,
          "time": 136.456542639584,
          "velocity": 0.5039370078740157,
          "duration": 0.19270825625000043
        },
        {
          "name": "D2",
          "midi": 38,
          "time": 136.66661200000067,
          "velocity": 0.5118110236220472,
          "duration": 0.3489581937500077
        },
        {
          "name": "E2",
          "midi": 40,
          "time": 137.081542389584,
          "velocity": 0.5118110236220472,
          "duration": 0.18402770416665248
        },
        {
          "name": "D2",
          "midi": 38,
          "time": 137.28813952916732,
          "velocity": 0.5196850393700787,
          "duration": 0.18055548333333604
        },
        {
          "name": "C2",
          "midi": 36,
          "time": 137.49994500000065,
          "velocity": 1,
          "duration": 0.8315968895832953
        },
        {
          "name": "D2",
          "midi": 38,
          "time": 137.49994500000065,
          "velocity": 0.6850393700787402,
          "duration": 0.39583317500000703
        },
        {
          "name": "E2",
          "midi": 40,
          "time": 137.91487538958398,
          "velocity": 0.5196850393700787,
          "duration": 0.18402770416665248
        },
        {
          "name": "D2",
          "midi": 38,
          "time": 138.12320863958396,
          "velocity": 0.5196850393700787,
          "duration": 0.19444436666665865
        },
        {
          "name": "E2",
          "midi": 40,
          "time": 138.33154188958395,
          "velocity": 0.6614173228346457,
          "duration": 0.39583317500000703
        },
        {
          "name": "D2",
          "midi": 38,
          "time": 138.74647227916728,
          "velocity": 0.5039370078740157,
          "duration": 0.18055548333333604
        },
        {
          "name": "E2",
          "midi": 40,
          "time": 138.9548055291673,
          "velocity": 0.5118110236220472,
          "duration": 0.22048602291667407
        },
        {
          "name": "D2",
          "midi": 38,
          "time": 139.1631387791673,
          "velocity": 0.5118110236220472,
          "duration": 0.44618037708335123
        },
        {
          "name": "E2",
          "midi": 40,
          "time": 139.58154138958398,
          "velocity": 0.49606299212598426,
          "duration": 0.4184026104166776
        },
        {
          "name": "D2",
          "midi": 38,
          "time": 139.99994400000065,
          "velocity": 0.6850393700787402,
          "duration": 0.35243041458332414
        },
        {
          "name": "C2",
          "midi": 36,
          "time": 139.99994400000065,
          "velocity": 1,
          "duration": 0.381944291666656
        },
        {
          "name": "B3",
          "midi": 59,
          "time": 139.99994400000065,
          "velocity": 0.9921259842519685,
          "duration": 0.4149303895833043
        },
        {
          "name": "E2",
          "midi": 40,
          "time": 140.4131382791673,
          "velocity": 0.49606299212598426,
          "duration": 0.1649304895833268
        },
        {
          "name": "D2",
          "midi": 38,
          "time": 140.61973541875062,
          "velocity": 0.5118110236220472,
          "duration": 0.1857638145833107
        },
        {
          "name": "C2",
          "midi": 36,
          "time": 140.63362430208394,
          "velocity": 1,
          "duration": 0.18923603541665557
        },
        {
          "name": "E2",
          "midi": 40,
          "time": 140.8280686687506,
          "velocity": 0.6535433070866141,
          "duration": 0.2934026604166604
        },
        {
          "name": "C2",
          "midi": 36,
          "time": 140.84022144166727,
          "velocity": 1,
          "duration": 0.9010413062499936
        },
        {
          "name": "D2",
          "midi": 38,
          "time": 141.2447351687506,
          "velocity": 0.5039370078740157,
          "duration": 0.2222221333333323
        },
        {
          "name": "E2",
          "midi": 40,
          "time": 141.4530684187506,
          "velocity": 0.5118110236220472,
          "duration": 0.166666599999985
        },
        {
          "name": "D2",
          "midi": 38,
          "time": 141.66140166875059,
          "velocity": 0.5118110236220472,
          "duration": 0.41666650000001937
        },
        {
          "name": "E2",
          "midi": 40,
          "time": 142.07980427916726,
          "velocity": 0.5196850393700787,
          "duration": 0.4201387208333358
        },
        {
          "name": "C2",
          "midi": 36,
          "time": 142.4999430000006,
          "velocity": 1,
          "duration": 0.8385413312499566
        },
        {
          "name": "D2",
          "midi": 38,
          "time": 142.4999430000006,
          "velocity": 0.6850393700787402,
          "duration": 0.39583317500000703
        },
        {
          "name": "E2",
          "midi": 40,
          "time": 142.91487338958393,
          "velocity": 0.5196850393700787,
          "duration": 0.18402770416665248
        },
        {
          "name": "D2",
          "midi": 38,
          "time": 143.1232066395839,
          "velocity": 0.5196850393700787,
          "duration": 0.19444436666665865
        },
        {
          "name": "E2",
          "midi": 40,
          "time": 143.3315398895839,
          "velocity": 0.6614173228346457,
          "duration": 0.39583317500000703
        },
        {
          "name": "D2",
          "midi": 38,
          "time": 143.74647027916723,
          "velocity": 0.5039370078740157,
          "duration": 0.18055548333333604
        },
        {
          "name": "E2",
          "midi": 40,
          "time": 143.95480352916724,
          "velocity": 0.5118110236220472,
          "duration": 0.22048602291667407
        },
        {
          "name": "D2",
          "midi": 38,
          "time": 144.16313677916725,
          "velocity": 0.5118110236220472,
          "duration": 0.44618037708335123
        },
        {
          "name": "E2",
          "midi": 40,
          "time": 144.58153938958392,
          "velocity": 0.49606299212598426,
          "duration": 0.4184026104166776
        },
        {
          "name": "C2",
          "midi": 36,
          "time": 144.99646977916726,
          "velocity": 1,
          "duration": 0.826388558333349
        },
        {
          "name": "C2",
          "midi": 36,
          "time": 144.9999420000006,
          "velocity": 1,
          "duration": 0.8315968895833237
        },
        {
          "name": "D2",
          "midi": 38,
          "time": 144.9999420000006,
          "velocity": 0.6614173228346457,
          "duration": 0.39756928541666525
        },
        {
          "name": "B3",
          "midi": 59,
          "time": 144.9999420000006,
          "velocity": 0.9921259842519685,
          "duration": 0.4149303895833327
        },
        {
          "name": "E2",
          "midi": 40,
          "time": 145.4166085000006,
          "velocity": 0.5039370078740157,
          "duration": 0.17534715208333296
        },
        {
          "name": "D2",
          "midi": 38,
          "time": 145.6249417500006,
          "velocity": 0.49606299212598426,
          "duration": 0.20486102916666482
        },
        {
          "name": "E2",
          "midi": 40,
          "time": 145.83327500000058,
          "velocity": 0.6692913385826772,
          "duration": 0.4062498375000132
        },
        {
          "name": "D2",
          "midi": 38,
          "time": 146.2499415000006,
          "velocity": 0.49606299212598426,
          "duration": 0.16666660000001343
        },
        {
          "name": "E2",
          "midi": 40,
          "time": 146.45653863958395,
          "velocity": 0.5039370078740157,
          "duration": 0.19270825625000043
        },
        {
          "name": "D2",
          "midi": 38,
          "time": 146.66660800000062,
          "velocity": 0.5118110236220472,
          "duration": 0.3489581937500077
        },
        {
          "name": "E2",
          "midi": 40,
          "time": 147.08153838958395,
          "velocity": 0.5118110236220472,
          "duration": 0.18402770416665248
        },
        {
          "name": "D2",
          "midi": 38,
          "time": 147.28813552916728,
          "velocity": 0.5196850393700787,
          "duration": 0.18055548333333604
        },
        {
          "name": "C2",
          "midi": 36,
          "time": 147.4999410000006,
          "velocity": 1,
          "duration": 0.8315968895832953
        },
        {
          "name": "D2",
          "midi": 38,
          "time": 147.4999410000006,
          "velocity": 0.6850393700787402,
          "duration": 0.39583317500000703
        },
        {
          "name": "E2",
          "midi": 40,
          "time": 147.91487138958394,
          "velocity": 0.5196850393700787,
          "duration": 0.18402770416665248
        },
        {
          "name": "D2",
          "midi": 38,
          "time": 148.12320463958392,
          "velocity": 0.5196850393700787,
          "duration": 0.19444436666665865
        },
        {
          "name": "E2",
          "midi": 40,
          "time": 148.3315378895839,
          "velocity": 0.6614173228346457,
          "duration": 0.39583317500000703
        },
        {
          "name": "D2",
          "midi": 38,
          "time": 148.74646827916723,
          "velocity": 0.5039370078740157,
          "duration": 0.18055548333333604
        },
        {
          "name": "E2",
          "midi": 40,
          "time": 148.95480152916724,
          "velocity": 0.5118110236220472,
          "duration": 0.22048602291667407
        },
        {
          "name": "D2",
          "midi": 38,
          "time": 149.16313477916725,
          "velocity": 0.5118110236220472,
          "duration": 0.44618037708335123
        },
        {
          "name": "E2",
          "midi": 40,
          "time": 149.58153738958393,
          "velocity": 0.49606299212598426,
          "duration": 0.4184026104166776
        },
        {
          "name": "C2",
          "midi": 36,
          "time": 149.9999400000006,
          "velocity": 1,
          "duration": 0.8263885583333206
        },
        {
          "name": "D2",
          "midi": 38,
          "time": 149.9999400000006,
          "velocity": 0.6850393700787402,
          "duration": 0.35243041458332414
        },
        {
          "name": "E2",
          "midi": 40,
          "time": 150.41313427916725,
          "velocity": 0.49606299212598426,
          "duration": 0.1649304895833268
        },
        {
          "name": "D2",
          "midi": 38,
          "time": 150.61973141875058,
          "velocity": 0.5118110236220472,
          "duration": 0.18576381458333913
        },
        {
          "name": "E2",
          "midi": 40,
          "time": 150.82806466875059,
          "velocity": 0.6535433070866141,
          "duration": 0.2934026604166604
        },
        {
          "name": "D2",
          "midi": 38,
          "time": 151.24473116875058,
          "velocity": 0.5039370078740157,
          "duration": 0.2222221333333323
        },
        {
          "name": "E2",
          "midi": 40,
          "time": 151.45306441875059,
          "velocity": 0.5118110236220472,
          "duration": 0.166666599999985
        },
        {
          "name": "D2",
          "midi": 38,
          "time": 151.66139766875057,
          "velocity": 0.5118110236220472,
          "duration": 0.41666649999999095
        },
        {
          "name": "E2",
          "midi": 40,
          "time": 152.07980027916722,
          "velocity": 0.5196850393700787,
          "duration": 0.4201387208333358
        },
        {
          "name": "C2",
          "midi": 36,
          "time": 152.49993900000055,
          "velocity": 1,
          "duration": 0.8385413312499566
        },
        {
          "name": "D2",
          "midi": 38,
          "time": 152.49993900000055,
          "velocity": 0.6850393700787402,
          "duration": 0.39583317500000703
        },
        {
          "name": "E2",
          "midi": 40,
          "time": 152.91486938958388,
          "velocity": 0.5196850393700787,
          "duration": 0.18402770416665248
        },
        {
          "name": "D2",
          "midi": 38,
          "time": 153.12320263958387,
          "velocity": 0.5196850393700787,
          "duration": 0.19444436666665865
        },
        {
          "name": "E2",
          "midi": 40,
          "time": 153.33153588958385,
          "velocity": 0.6614173228346457,
          "duration": 0.39583317500000703
        },
        {
          "name": "D2",
          "midi": 38,
          "time": 153.74646627916718,
          "velocity": 0.5039370078740157,
          "duration": 0.18055548333333604
        },
        {
          "name": "E2",
          "midi": 40,
          "time": 153.9547995291672,
          "velocity": 0.5118110236220472,
          "duration": 0.22048602291667407
        },
        {
          "name": "D2",
          "midi": 38,
          "time": 154.1631327791672,
          "velocity": 0.5118110236220472,
          "duration": 0.44618037708335123
        },
        {
          "name": "E2",
          "midi": 40,
          "time": 154.58153538958388,
          "velocity": 0.49606299212598426,
          "duration": 0.4184026104166776
        },
        {
          "name": "C2",
          "midi": 36,
          "time": 154.99993800000055,
          "velocity": 1,
          "duration": 0.8315968895833237
        },
        {
          "name": "D2",
          "midi": 38,
          "time": 154.99993800000055,
          "velocity": 0.6614173228346457,
          "duration": 0.39756928541666525
        },
        {
          "name": "E2",
          "midi": 40,
          "time": 155.41660450000055,
          "velocity": 0.5039370078740157,
          "duration": 0.17534715208333296
        },
        {
          "name": "D2",
          "midi": 38,
          "time": 155.62493775000056,
          "velocity": 0.49606299212598426,
          "duration": 0.20486102916666482
        },
        {
          "name": "E2",
          "midi": 40,
          "time": 155.83327100000054,
          "velocity": 0.6692913385826772,
          "duration": 0.4062498375000132
        },
        {
          "name": "D2",
          "midi": 38,
          "time": 156.24993750000056,
          "velocity": 0.49606299212598426,
          "duration": 0.16666660000001343
        },
        {
          "name": "E2",
          "midi": 40,
          "time": 156.4565346395839,
          "velocity": 0.5039370078740157,
          "duration": 0.19270825625000043
        },
        {
          "name": "D2",
          "midi": 38,
          "time": 156.66660400000058,
          "velocity": 0.5118110236220472,
          "duration": 0.3489581937500077
        },
        {
          "name": "E2",
          "midi": 40,
          "time": 157.0815343895839,
          "velocity": 0.5118110236220472,
          "duration": 0.18402770416665248
        },
        {
          "name": "D2",
          "midi": 38,
          "time": 157.28813152916723,
          "velocity": 0.5196850393700787,
          "duration": 0.18055548333333604
        },
        {
          "name": "C2",
          "midi": 36,
          "time": 157.49993700000056,
          "velocity": 1,
          "duration": 0.8315968895832953
        },
        {
          "name": "D2",
          "midi": 38,
          "time": 157.49993700000056,
          "velocity": 0.6850393700787402,
          "duration": 0.39583317500000703
        },
        {
          "name": "E2",
          "midi": 40,
          "time": 157.9148673895839,
          "velocity": 0.5196850393700787,
          "duration": 0.18402770416665248
        },
        {
          "name": "D2",
          "midi": 38,
          "time": 158.12320063958387,
          "velocity": 0.5196850393700787,
          "duration": 0.19444436666665865
        },
        {
          "name": "E2",
          "midi": 40,
          "time": 158.33153388958385,
          "velocity": 0.6614173228346457,
          "duration": 0.39583317500000703
        },
        {
          "name": "D2",
          "midi": 38,
          "time": 158.74646427916718,
          "velocity": 0.5039370078740157,
          "duration": 0.18055548333333604
        },
        {
          "name": "E2",
          "midi": 40,
          "time": 158.9547975291672,
          "velocity": 0.5118110236220472,
          "duration": 0.22048602291667407
        },
        {
          "name": "D2",
          "midi": 38,
          "time": 159.1631307791672,
          "velocity": 0.5118110236220472,
          "duration": 0.44618037708335123
        },
        {
          "name": "E2",
          "midi": 40,
          "time": 159.58153338958388,
          "velocity": 0.49606299212598426,
          "duration": 0.4184026104166776
        },
        {
          "name": "C2",
          "midi": 36,
          "time": 159.99993600000056,
          "velocity": 1,
          "duration": 0.8263885583333206
        },
        {
          "name": "D2",
          "midi": 38,
          "time": 159.99993600000056,
          "velocity": 0.6850393700787402,
          "duration": 0.35243041458332414
        },
        {
          "name": "E2",
          "midi": 40,
          "time": 160.4131302791672,
          "velocity": 0.49606299212598426,
          "duration": 0.1649304895833268
        },
        {
          "name": "D2",
          "midi": 38,
          "time": 160.61972741875053,
          "velocity": 0.5118110236220472,
          "duration": 0.18576381458333913
        },
        {
          "name": "E2",
          "midi": 40,
          "time": 160.82806066875054,
          "velocity": 0.6535433070866141,
          "duration": 0.2934026604166604
        },
        {
          "name": "D2",
          "midi": 38,
          "time": 161.24472716875053,
          "velocity": 0.5039370078740157,
          "duration": 0.2222221333333323
        },
        {
          "name": "E2",
          "midi": 40,
          "time": 161.45306041875054,
          "velocity": 0.5118110236220472,
          "duration": 0.166666599999985
        },
        {
          "name": "D2",
          "midi": 38,
          "time": 161.66139366875052,
          "velocity": 0.5118110236220472,
          "duration": 0.41666649999999095
        },
        {
          "name": "E2",
          "midi": 40,
          "time": 162.07979627916717,
          "velocity": 0.5196850393700787,
          "duration": 0.4201387208333358
        },
        {
          "name": "C2",
          "midi": 36,
          "time": 162.4999350000005,
          "velocity": 1,
          "duration": 0.8385413312499566
        },
        {
          "name": "D2",
          "midi": 38,
          "time": 162.4999350000005,
          "velocity": 0.6850393700787402,
          "duration": 0.39583317500000703
        },
        {
          "name": "E2",
          "midi": 40,
          "time": 162.91486538958384,
          "velocity": 0.5196850393700787,
          "duration": 0.18402770416665248
        },
        {
          "name": "D2",
          "midi": 38,
          "time": 163.12319863958382,
          "velocity": 0.5196850393700787,
          "duration": 0.19444436666665865
        },
        {
          "name": "E2",
          "midi": 40,
          "time": 163.3315318895838,
          "velocity": 0.6614173228346457,
          "duration": 0.39583317500000703
        },
        {
          "name": "D2",
          "midi": 38,
          "time": 163.74646227916713,
          "velocity": 0.5039370078740157,
          "duration": 0.18055548333333604
        },
        {
          "name": "E2",
          "midi": 40,
          "time": 163.95479552916714,
          "velocity": 0.5118110236220472,
          "duration": 0.22048602291667407
        },
        {
          "name": "D2",
          "midi": 38,
          "time": 164.16312877916715,
          "velocity": 0.5118110236220472,
          "duration": 0.44618037708335123
        },
        {
          "name": "E2",
          "midi": 40,
          "time": 164.58153138958383,
          "velocity": 0.49606299212598426,
          "duration": 0.4184026104166776
        },
        {
          "name": "C2",
          "midi": 36,
          "time": 164.9999340000005,
          "velocity": 1,
          "duration": 0.8315968895833237
        },
        {
          "name": "D2",
          "midi": 38,
          "time": 164.9999340000005,
          "velocity": 0.6614173228346457,
          "duration": 0.39756928541666525
        },
        {
          "name": "E2",
          "midi": 40,
          "time": 165.4166005000005,
          "velocity": 0.5039370078740157,
          "duration": 0.17534715208333296
        },
        {
          "name": "D2",
          "midi": 38,
          "time": 165.6249337500005,
          "velocity": 0.49606299212598426,
          "duration": 0.20486102916666482
        },
        {
          "name": "E2",
          "midi": 40,
          "time": 165.8332670000005,
          "velocity": 0.6692913385826772,
          "duration": 0.4062498375000132
        },
        {
          "name": "D2",
          "midi": 38,
          "time": 166.2499335000005,
          "velocity": 0.49606299212598426,
          "duration": 0.16666660000001343
        },
        {
          "name": "E2",
          "midi": 40,
          "time": 166.45653063958386,
          "velocity": 0.5039370078740157,
          "duration": 0.19270825625000043
        },
        {
          "name": "D2",
          "midi": 38,
          "time": 166.66660000000053,
          "velocity": 0.5118110236220472,
          "duration": 0.3489581937500077
        },
        {
          "name": "E2",
          "midi": 40,
          "time": 167.08153038958386,
          "velocity": 0.5118110236220472,
          "duration": 0.18402770416665248
        },
        {
          "name": "D2",
          "midi": 38,
          "time": 167.28812752916718,
          "velocity": 0.5196850393700787,
          "duration": 0.18055548333333604
        },
        {
          "name": "C2",
          "midi": 36,
          "time": 167.4999330000005,
          "velocity": 1,
          "duration": 0.8315968895832953
        },
        {
          "name": "D2",
          "midi": 38,
          "time": 167.4999330000005,
          "velocity": 0.6850393700787402,
          "duration": 0.39583317500000703
        },
        {
          "name": "E2",
          "midi": 40,
          "time": 167.91486338958384,
          "velocity": 0.5196850393700787,
          "duration": 0.18402770416665248
        },
        {
          "name": "D2",
          "midi": 38,
          "time": 168.12319663958382,
          "velocity": 0.5196850393700787,
          "duration": 0.19444436666665865
        },
        {
          "name": "E2",
          "midi": 40,
          "time": 168.3315298895838,
          "velocity": 0.6614173228346457,
          "duration": 0.39583317500000703
        },
        {
          "name": "D2",
          "midi": 38,
          "time": 168.74646027916714,
          "velocity": 0.5039370078740157,
          "duration": 0.18055548333333604
        },
        {
          "name": "E2",
          "midi": 40,
          "time": 168.95479352916715,
          "velocity": 0.5118110236220472,
          "duration": 0.22048602291667407
        },
        {
          "name": "D2",
          "midi": 38,
          "time": 169.16312677916716,
          "velocity": 0.5118110236220472,
          "duration": 0.44618037708335123
        },
        {
          "name": "E2",
          "midi": 40,
          "time": 169.58152938958384,
          "velocity": 0.49606299212598426,
          "duration": 0.4184026104166776
        },
        {
          "name": "C2",
          "midi": 36,
          "time": 169.9999320000005,
          "velocity": 1,
          "duration": 0.8263885583333206
        },
        {
          "name": "D2",
          "midi": 38,
          "time": 169.9999320000005,
          "velocity": 0.6850393700787402,
          "duration": 0.35243041458332414
        },
        {
          "name": "E2",
          "midi": 40,
          "time": 170.41312627916716,
          "velocity": 0.49606299212598426,
          "duration": 0.1649304895833268
        },
        {
          "name": "D2",
          "midi": 38,
          "time": 170.61972341875048,
          "velocity": 0.5118110236220472,
          "duration": 0.18576381458333913
        },
        {
          "name": "E2",
          "midi": 40,
          "time": 170.8280566687505,
          "velocity": 0.6535433070866141,
          "duration": 0.2934026604166604
        },
        {
          "name": "D2",
          "midi": 38,
          "time": 171.24472316875048,
          "velocity": 0.5039370078740157,
          "duration": 0.2222221333333323
        },
        {
          "name": "E2",
          "midi": 40,
          "time": 171.4530564187505,
          "velocity": 0.5118110236220472,
          "duration": 0.166666599999985
        },
        {
          "name": "D2",
          "midi": 38,
          "time": 171.66138966875047,
          "velocity": 0.5118110236220472,
          "duration": 0.41666649999999095
        },
        {
          "name": "E2",
          "midi": 40,
          "time": 172.07979227916712,
          "velocity": 0.5196850393700787,
          "duration": 0.4201387208333358
        },
        {
          "name": "C2",
          "midi": 36,
          "time": 172.49993100000046,
          "velocity": 1,
          "duration": 0.8385413312499566
        },
        {
          "name": "D2",
          "midi": 38,
          "time": 172.49993100000046,
          "velocity": 0.6850393700787402,
          "duration": 0.39583317500000703
        },
        {
          "name": "E2",
          "midi": 40,
          "time": 172.9148613895838,
          "velocity": 0.5196850393700787,
          "duration": 0.18402770416665248
        },
        {
          "name": "D2",
          "midi": 38,
          "time": 173.12319463958377,
          "velocity": 0.5196850393700787,
          "duration": 0.19444436666665865
        },
        {
          "name": "E2",
          "midi": 40,
          "time": 173.33152788958375,
          "velocity": 0.6614173228346457,
          "duration": 0.39583317500000703
        },
        {
          "name": "D2",
          "midi": 38,
          "time": 173.7464582791671,
          "velocity": 0.5039370078740157,
          "duration": 0.18055548333333604
        },
        {
          "name": "E2",
          "midi": 40,
          "time": 173.9547915291671,
          "velocity": 0.5118110236220472,
          "duration": 0.22048602291667407
        },
        {
          "name": "D2",
          "midi": 38,
          "time": 174.1631247791671,
          "velocity": 0.5118110236220472,
          "duration": 0.44618037708335123
        },
        {
          "name": "E2",
          "midi": 40,
          "time": 174.58152738958378,
          "velocity": 0.49606299212598426,
          "duration": 0.4184026104166776
        },
        {
          "name": "C2",
          "midi": 36,
          "time": 174.99993000000046,
          "velocity": 1,
          "duration": 0.8315968895833237
        },
        {
          "name": "D2",
          "midi": 38,
          "time": 174.99993000000046,
          "velocity": 0.6614173228346457,
          "duration": 0.39756928541666525
        },
        {
          "name": "E2",
          "midi": 40,
          "time": 175.41659650000045,
          "velocity": 0.5039370078740157,
          "duration": 0.17534715208333296
        },
        {
          "name": "D2",
          "midi": 38,
          "time": 175.62492975000046,
          "velocity": 0.49606299212598426,
          "duration": 0.20486102916666482
        },
        {
          "name": "E2",
          "midi": 40,
          "time": 175.83326300000044,
          "velocity": 0.6692913385826772,
          "duration": 0.4062498375000132
        },
        {
          "name": "D2",
          "midi": 38,
          "time": 176.24992950000046,
          "velocity": 0.49606299212598426,
          "duration": 0.16666660000001343
        },
        {
          "name": "E2",
          "midi": 40,
          "time": 176.4565266395838,
          "velocity": 0.5039370078740157,
          "duration": 0.19270825625000043
        },
        {
          "name": "D2",
          "midi": 38,
          "time": 176.66659600000048,
          "velocity": 0.5118110236220472,
          "duration": 0.3489581937500077
        },
        {
          "name": "E2",
          "midi": 40,
          "time": 177.08152638958381,
          "velocity": 0.5118110236220472,
          "duration": 0.18402770416665248
        },
        {
          "name": "D2",
          "midi": 38,
          "time": 177.28812352916714,
          "velocity": 0.5196850393700787,
          "duration": 0.18055548333333604
        },
        {
          "name": "C2",
          "midi": 36,
          "time": 177.49992900000046,
          "velocity": 1,
          "duration": 0.8315968895832953
        },
        {
          "name": "D2",
          "midi": 38,
          "time": 177.49992900000046,
          "velocity": 0.6850393700787402,
          "duration": 0.39583317500000703
        },
        {
          "name": "E2",
          "midi": 40,
          "time": 177.9148593895838,
          "velocity": 0.5196850393700787,
          "duration": 0.18402770416665248
        },
        {
          "name": "D2",
          "midi": 38,
          "time": 178.12319263958378,
          "velocity": 0.5196850393700787,
          "duration": 0.19444436666665865
        },
        {
          "name": "E2",
          "midi": 40,
          "time": 178.33152588958376,
          "velocity": 0.6614173228346457,
          "duration": 0.39583317500000703
        },
        {
          "name": "D2",
          "midi": 38,
          "time": 178.7464562791671,
          "velocity": 0.5039370078740157,
          "duration": 0.18055548333333604
        },
        {
          "name": "E2",
          "midi": 40,
          "time": 178.9547895291671,
          "velocity": 0.5118110236220472,
          "duration": 0.22048602291667407
        },
        {
          "name": "D2",
          "midi": 38,
          "time": 179.1631227791671,
          "velocity": 0.5118110236220472,
          "duration": 0.44618037708335123
        },
        {
          "name": "E2",
          "midi": 40,
          "time": 179.5815253895838,
          "velocity": 0.49606299212598426,
          "duration": 0.4184026104166776
        },
        {
          "name": "C2",
          "midi": 36,
          "time": 179.99992800000047,
          "velocity": 1,
          "duration": 0.8263885583333206
        },
        {
          "name": "D2",
          "midi": 38,
          "time": 179.99992800000047,
          "velocity": 0.6850393700787402,
          "duration": 0.35243041458332414
        },
        {
          "name": "E2",
          "midi": 40,
          "time": 180.4131222791671,
          "velocity": 0.49606299212598426,
          "duration": 0.1649304895833268
        },
        {
          "name": "D2",
          "midi": 38,
          "time": 180.61971941875044,
          "velocity": 0.5118110236220472,
          "duration": 0.18576381458333913
        },
        {
          "name": "E2",
          "midi": 40,
          "time": 180.82805266875044,
          "velocity": 0.6535433070866141,
          "duration": 0.2934026604166604
        },
        {
          "name": "D2",
          "midi": 38,
          "time": 181.24471916875044,
          "velocity": 0.5039370078740157,
          "duration": 0.2222221333333323
        },
        {
          "name": "E2",
          "midi": 40,
          "time": 181.45305241875045,
          "velocity": 0.5118110236220472,
          "duration": 0.166666599999985
        },
        {
          "name": "D2",
          "midi": 38,
          "time": 181.66138566875043,
          "velocity": 0.5118110236220472,
          "duration": 0.41666649999999095
        },
        {
          "name": "E2",
          "midi": 40,
          "time": 182.07978827916708,
          "velocity": 0.5196850393700787,
          "duration": 0.4201387208333358
        },
        {
          "name": "C2",
          "midi": 36,
          "time": 182.4999270000004,
          "velocity": 1,
          "duration": 0.8385413312499566
        },
        {
          "name": "D2",
          "midi": 38,
          "time": 182.4999270000004,
          "velocity": 0.6850393700787402,
          "duration": 0.39583317500000703
        },
        {
          "name": "E2",
          "midi": 40,
          "time": 182.91485738958374,
          "velocity": 0.5196850393700787,
          "duration": 0.18402770416665248
        },
        {
          "name": "D2",
          "midi": 38,
          "time": 183.12319063958373,
          "velocity": 0.5196850393700787,
          "duration": 0.19444436666665865
        },
        {
          "name": "E2",
          "midi": 40,
          "time": 183.3315238895837,
          "velocity": 0.6614173228346457,
          "duration": 0.39583317500000703
        },
        {
          "name": "D2",
          "midi": 38,
          "time": 183.74645427916704,
          "velocity": 0.5039370078740157,
          "duration": 0.18055548333333604
        },
        {
          "name": "E2",
          "midi": 40,
          "time": 183.95478752916705,
          "velocity": 0.5118110236220472,
          "duration": 0.22048602291667407
        },
        {
          "name": "D2",
          "midi": 38,
          "time": 184.16312077916706,
          "velocity": 0.5118110236220472,
          "duration": 0.44618037708335123
        },
        {
          "name": "E2",
          "midi": 40,
          "time": 184.58152338958374,
          "velocity": 0.49606299212598426,
          "duration": 0.4184026104166776
        },
        {
          "name": "C2",
          "midi": 36,
          "time": 184.9999260000004,
          "velocity": 1,
          "duration": 0.8315968895833237
        },
        {
          "name": "D2",
          "midi": 38,
          "time": 184.9999260000004,
          "velocity": 0.6614173228346457,
          "duration": 0.39756928541666525
        },
        {
          "name": "E2",
          "midi": 40,
          "time": 185.4165925000004,
          "velocity": 0.5039370078740157,
          "duration": 0.17534715208333296
        },
        {
          "name": "D2",
          "midi": 38,
          "time": 185.62492575000041,
          "velocity": 0.49606299212598426,
          "duration": 0.20486102916666482
        },
        {
          "name": "E2",
          "midi": 40,
          "time": 185.8332590000004,
          "velocity": 0.6692913385826772,
          "duration": 0.4062498375000132
        },
        {
          "name": "D2",
          "midi": 38,
          "time": 186.24992550000042,
          "velocity": 0.49606299212598426,
          "duration": 0.16666660000001343
        },
        {
          "name": "E2",
          "midi": 40,
          "time": 186.45652263958377,
          "velocity": 0.5039370078740157,
          "duration": 0.19270825625000043
        },
        {
          "name": "D2",
          "midi": 38,
          "time": 186.66659200000043,
          "velocity": 0.5118110236220472,
          "duration": 0.3489581937500077
        },
        {
          "name": "E2",
          "midi": 40,
          "time": 187.08152238958377,
          "velocity": 0.5118110236220472,
          "duration": 0.18402770416665248
        },
        {
          "name": "D2",
          "midi": 38,
          "time": 187.2881195291671,
          "velocity": 0.5196850393700787,
          "duration": 0.18055548333333604
        },
        {
          "name": "C2",
          "midi": 36,
          "time": 187.49992500000042,
          "velocity": 1,
          "duration": 0.8315968895832953
        },
        {
          "name": "D2",
          "midi": 38,
          "time": 187.49992500000042,
          "velocity": 0.6850393700787402,
          "duration": 0.39583317500000703
        },
        {
          "name": "E2",
          "midi": 40,
          "time": 187.91485538958375,
          "velocity": 0.5196850393700787,
          "duration": 0.18402770416665248
        },
        {
          "name": "D2",
          "midi": 38,
          "time": 188.12318863958373,
          "velocity": 0.5196850393700787,
          "duration": 0.19444436666665865
        },
        {
          "name": "E2",
          "midi": 40,
          "time": 188.3315218895837,
          "velocity": 0.6614173228346457,
          "duration": 0.39583317500000703
        },
        {
          "name": "D2",
          "midi": 38,
          "time": 188.74645227916704,
          "velocity": 0.5039370078740157,
          "duration": 0.18055548333333604
        },
        {
          "name": "E2",
          "midi": 40,
          "time": 188.95478552916705,
          "velocity": 0.5118110236220472,
          "duration": 0.22048602291667407
        },
        {
          "name": "D2",
          "midi": 38,
          "time": 189.16311877916706,
          "velocity": 0.5118110236220472,
          "duration": 0.44618037708335123
        },
        {
          "name": "E2",
          "midi": 40,
          "time": 189.58152138958374,
          "velocity": 0.49606299212598426,
          "duration": 0.4184026104166776
        },
        {
          "name": "C2",
          "midi": 36,
          "time": 189.99992400000042,
          "velocity": 1,
          "duration": 0.8315968895832953
        },
        {
          "name": "D2",
          "midi": 38,
          "time": 189.99992400000042,
          "velocity": 0.6850393700787402,
          "duration": 0.39583317500000703
        },
        {
          "name": "E2",
          "midi": 40,
          "time": 190.41485438958375,
          "velocity": 0.5196850393700787,
          "duration": 0.18402770416665248
        },
        {
          "name": "D2",
          "midi": 38,
          "time": 190.62318763958373,
          "velocity": 0.5196850393700787,
          "duration": 0.19444436666665865
        },
        {
          "name": "E2",
          "midi": 40,
          "time": 190.83152088958371,
          "velocity": 0.6614173228346457,
          "duration": 0.39583317500000703
        },
        {
          "name": "D2",
          "midi": 38,
          "time": 191.24645127916705,
          "velocity": 0.5039370078740157,
          "duration": 0.18055548333333604
        },
        {
          "name": "E2",
          "midi": 40,
          "time": 191.45478452916706,
          "velocity": 0.5118110236220472,
          "duration": 0.22048602291667407
        },
        {
          "name": "D2",
          "midi": 38,
          "time": 191.66311777916707,
          "velocity": 0.5118110236220472,
          "duration": 0.44618037708335123
        },
        {
          "name": "E2",
          "midi": 40,
          "time": 192.08152038958374,
          "velocity": 0.49606299212598426,
          "duration": 0.4184026104166776
        },
        {
          "name": "D2",
          "midi": 38,
          "time": 192.49992300000042,
          "velocity": 0.6850393700787402,
          "duration": 0.35243041458332414
        },
        {
          "name": "C2",
          "midi": 36,
          "time": 192.49992300000042,
          "velocity": 1,
          "duration": 0.381944291666656
        },
        {
          "name": "B3",
          "midi": 59,
          "time": 192.49992300000042,
          "velocity": 0.9921259842519685,
          "duration": 0.4149303895833043
        },
        {
          "name": "E2",
          "midi": 40,
          "time": 192.91311727916707,
          "velocity": 0.49606299212598426,
          "duration": 0.1649304895833268
        },
        {
          "name": "D2",
          "midi": 38,
          "time": 193.1197144187504,
          "velocity": 0.5118110236220472,
          "duration": 0.1857638145833107
        },
        {
          "name": "C2",
          "midi": 36,
          "time": 193.1336033020837,
          "velocity": 1,
          "duration": 0.18923603541665557
        },
        {
          "name": "E2",
          "midi": 40,
          "time": 193.32804766875037,
          "velocity": 0.6535433070866141,
          "duration": 0.2934026604166604
        },
        {
          "name": "C2",
          "midi": 36,
          "time": 193.34020044166704,
          "velocity": 1,
          "duration": 0.9010413062499936
        },
        {
          "name": "D2",
          "midi": 38,
          "time": 193.74471416875036,
          "velocity": 0.5039370078740157,
          "duration": 0.2222221333333323
        },
        {
          "name": "E2",
          "midi": 40,
          "time": 193.95304741875037,
          "velocity": 0.5118110236220472,
          "duration": 0.166666599999985
        },
        {
          "name": "D2",
          "midi": 38,
          "time": 194.16138066875035,
          "velocity": 0.5118110236220472,
          "duration": 0.41666650000001937
        },
        {
          "name": "E2",
          "midi": 40,
          "time": 194.57978327916703,
          "velocity": 0.5196850393700787,
          "duration": 0.4201387208333358
        },
        {
          "name": "C2",
          "midi": 36,
          "time": 194.99992200000037,
          "velocity": 1,
          "duration": 0.8385413312499566
        },
        {
          "name": "D2",
          "midi": 38,
          "time": 194.99992200000037,
          "velocity": 0.6850393700787402,
          "duration": 0.39583317500000703
        },
        {
          "name": "E2",
          "midi": 40,
          "time": 195.4148523895837,
          "velocity": 0.5196850393700787,
          "duration": 0.18402770416665248
        },
        {
          "name": "D2",
          "midi": 38,
          "time": 195.62318563958368,
          "velocity": 0.5196850393700787,
          "duration": 0.19444436666665865
        },
        {
          "name": "E2",
          "midi": 40,
          "time": 195.83151888958366,
          "velocity": 0.6614173228346457,
          "duration": 0.39583317500000703
        },
        {
          "name": "D2",
          "midi": 38,
          "time": 196.246449279167,
          "velocity": 0.5039370078740157,
          "duration": 0.18055548333333604
        },
        {
          "name": "E2",
          "midi": 40,
          "time": 196.454782529167,
          "velocity": 0.5118110236220472,
          "duration": 0.22048602291667407
        },
        {
          "name": "D2",
          "midi": 38,
          "time": 196.66311577916701,
          "velocity": 0.5118110236220472,
          "duration": 0.44618037708335123
        },
        {
          "name": "E2",
          "midi": 40,
          "time": 197.0815183895837,
          "velocity": 0.49606299212598426,
          "duration": 0.4184026104166776
        },
        {
          "name": "D2",
          "midi": 38,
          "time": 197.49992100000037,
          "velocity": 0.6614173228346457,
          "duration": 0.39756928541666525
        },
        {
          "name": "C2",
          "midi": 36,
          "time": 197.49992100000037,
          "velocity": 1,
          "duration": 0.381944291666656
        },
        {
          "name": "B3",
          "midi": 59,
          "time": 197.49992100000037,
          "velocity": 0.9921259842519685,
          "duration": 0.4149303895833327
        },
        {
          "name": "E2",
          "midi": 40,
          "time": 197.91658750000036,
          "velocity": 0.5039370078740157,
          "duration": 0.17534715208333296
        },
        {
          "name": "D2",
          "midi": 38,
          "time": 198.12492075000037,
          "velocity": 0.49606299212598426,
          "duration": 0.2048610291666364
        },
        {
          "name": "C2",
          "midi": 36,
          "time": 198.1336013020837,
          "velocity": 1,
          "duration": 0.18923603541665557
        },
        {
          "name": "E2",
          "midi": 40,
          "time": 198.33325400000035,
          "velocity": 0.6692913385826772,
          "duration": 0.4062498374999848
        },
        {
          "name": "C2",
          "midi": 36,
          "time": 198.340198441667,
          "velocity": 1,
          "duration": 0.901041306250022
        },
        {
          "name": "D2",
          "midi": 38,
          "time": 198.74992050000034,
          "velocity": 0.49606299212598426,
          "duration": 0.16666660000001343
        },
        {
          "name": "E2",
          "midi": 40,
          "time": 198.9565176395837,
          "velocity": 0.5039370078740157,
          "duration": 0.19270825625000043
        },
        {
          "name": "D2",
          "midi": 38,
          "time": 199.16658700000036,
          "velocity": 0.5118110236220472,
          "duration": 0.3489581937500077
        },
        {
          "name": "E2",
          "midi": 40,
          "time": 199.5815173895837,
          "velocity": 0.5118110236220472,
          "duration": 0.18402770416665248
        },
        {
          "name": "D2",
          "midi": 38,
          "time": 199.78811452916702,
          "velocity": 0.5196850393700787,
          "duration": 0.18055548333333604
        },
        {
          "name": "C2",
          "midi": 36,
          "time": 199.99992000000034,
          "velocity": 1,
          "duration": 0.8315968895832953
        },
        {
          "name": "D2",
          "midi": 38,
          "time": 199.99992000000034,
          "velocity": 0.6850393700787402,
          "duration": 0.39583317500000703
        },
        {
          "name": "E2",
          "midi": 40,
          "time": 200.41485038958368,
          "velocity": 0.5196850393700787,
          "duration": 0.18402770416665248
        },
        {
          "name": "D2",
          "midi": 38,
          "time": 200.62318363958366,
          "velocity": 0.5196850393700787,
          "duration": 0.19444436666665865
        },
        {
          "name": "E2",
          "midi": 40,
          "time": 200.83151688958364,
          "velocity": 0.6614173228346457,
          "duration": 0.39583317500000703
        },
        {
          "name": "D2",
          "midi": 38,
          "time": 201.24644727916697,
          "velocity": 0.5039370078740157,
          "duration": 0.18055548333333604
        },
        {
          "name": "E2",
          "midi": 40,
          "time": 201.45478052916698,
          "velocity": 0.5118110236220472,
          "duration": 0.22048602291667407
        },
        {
          "name": "D2",
          "midi": 38,
          "time": 201.663113779167,
          "velocity": 0.5118110236220472,
          "duration": 0.44618037708335123
        },
        {
          "name": "E2",
          "midi": 40,
          "time": 202.08151638958367,
          "velocity": 0.49606299212598426,
          "duration": 0.4184026104166776
        },
        {
          "name": "D2",
          "midi": 38,
          "time": 202.49991900000035,
          "velocity": 0.6850393700787402,
          "duration": 0.35243041458332414
        },
        {
          "name": "C2",
          "midi": 36,
          "time": 202.49991900000035,
          "velocity": 1,
          "duration": 0.381944291666656
        },
        {
          "name": "B3",
          "midi": 59,
          "time": 202.49991900000035,
          "velocity": 0.9921259842519685,
          "duration": 0.4149303895833043
        },
        {
          "name": "E2",
          "midi": 40,
          "time": 202.913113279167,
          "velocity": 0.49606299212598426,
          "duration": 0.1649304895833268
        },
        {
          "name": "D2",
          "midi": 38,
          "time": 203.11971041875032,
          "velocity": 0.5118110236220472,
          "duration": 0.1857638145833107
        },
        {
          "name": "C2",
          "midi": 36,
          "time": 203.13359930208364,
          "velocity": 1,
          "duration": 0.18923603541665557
        },
        {
          "name": "E2",
          "midi": 40,
          "time": 203.3280436687503,
          "velocity": 0.6535433070866141,
          "duration": 0.2934026604166604
        },
        {
          "name": "C2",
          "midi": 36,
          "time": 203.34019644166696,
          "velocity": 1,
          "duration": 0.9010413062499936
        },
        {
          "name": "D2",
          "midi": 38,
          "time": 203.7447101687503,
          "velocity": 0.5039370078740157,
          "duration": 0.2222221333333323
        },
        {
          "name": "E2",
          "midi": 40,
          "time": 203.9530434187503,
          "velocity": 0.5118110236220472,
          "duration": 0.166666599999985
        },
        {
          "name": "D2",
          "midi": 38,
          "time": 204.16137666875028,
          "velocity": 0.5118110236220472,
          "duration": 0.41666650000001937
        },
        {
          "name": "E2",
          "midi": 40,
          "time": 204.57977927916696,
          "velocity": 0.5196850393700787,
          "duration": 0.4201387208333358
        },
        {
          "name": "C2",
          "midi": 36,
          "time": 204.9999180000003,
          "velocity": 1,
          "duration": 0.8385413312499566
        },
        {
          "name": "D2",
          "midi": 38,
          "time": 204.9999180000003,
          "velocity": 0.6850393700787402,
          "duration": 0.39583317500000703
        },
        {
          "name": "E2",
          "midi": 40,
          "time": 205.41484838958363,
          "velocity": 0.5196850393700787,
          "duration": 0.18402770416665248
        },
        {
          "name": "D2",
          "midi": 38,
          "time": 205.6231816395836,
          "velocity": 0.5196850393700787,
          "duration": 0.19444436666665865
        },
        {
          "name": "E2",
          "midi": 40,
          "time": 205.8315148895836,
          "velocity": 0.6614173228346457,
          "duration": 0.39583317500000703
        },
        {
          "name": "D2",
          "midi": 38,
          "time": 206.24644527916692,
          "velocity": 0.5039370078740157,
          "duration": 0.18055548333333604
        },
        {
          "name": "E2",
          "midi": 40,
          "time": 206.45477852916693,
          "velocity": 0.5118110236220472,
          "duration": 0.22048602291667407
        },
        {
          "name": "D2",
          "midi": 38,
          "time": 206.66311177916694,
          "velocity": 0.5118110236220472,
          "duration": 0.44618037708335123
        },
        {
          "name": "E2",
          "midi": 40,
          "time": 207.08151438958362,
          "velocity": 0.49606299212598426,
          "duration": 0.4184026104166776
        },
        {
          "name": "C2",
          "midi": 36,
          "time": 207.49644477916695,
          "velocity": 1,
          "duration": 0.826388558333349
        },
        {
          "name": "C2",
          "midi": 36,
          "time": 207.4999170000003,
          "velocity": 1,
          "duration": 0.8315968895833237
        },
        {
          "name": "D2",
          "midi": 38,
          "time": 207.4999170000003,
          "velocity": 0.6614173228346457,
          "duration": 0.39756928541666525
        },
        {
          "name": "B3",
          "midi": 59,
          "time": 207.4999170000003,
          "velocity": 0.5826771653543307,
          "duration": 0.4149303895833327
        },
        {
          "name": "E2",
          "midi": 40,
          "time": 207.91658350000029,
          "velocity": 0.5039370078740157,
          "duration": 0.17534715208333296
        },
        {
          "name": "D2",
          "midi": 38,
          "time": 208.1249167500003,
          "velocity": 0.49606299212598426,
          "duration": 0.20486102916666482
        },
        {
          "name": "E2",
          "midi": 40,
          "time": 208.33325000000028,
          "velocity": 0.6692913385826772,
          "duration": 0.4062498375000132
        },
        {
          "name": "D2",
          "midi": 38,
          "time": 208.7499165000003,
          "velocity": 0.49606299212598426,
          "duration": 0.16666660000001343
        },
        {
          "name": "E2",
          "midi": 40,
          "time": 208.95651363958365,
          "velocity": 0.5039370078740157,
          "duration": 0.19270825625000043
        },
        {
          "name": "D2",
          "midi": 38,
          "time": 209.16658300000032,
          "velocity": 0.5118110236220472,
          "duration": 0.3489581937500077
        },
        {
          "name": "E2",
          "midi": 40,
          "time": 209.58151338958365,
          "velocity": 0.5118110236220472,
          "duration": 0.18402770416665248
        },
        {
          "name": "D2",
          "midi": 38,
          "time": 209.78811052916697,
          "velocity": 0.5196850393700787,
          "duration": 0.18055548333333604
        },
        {
          "name": "C2",
          "midi": 36,
          "time": 209.9999160000003,
          "velocity": 1,
          "duration": 0.8315968895832953
        },
        {
          "name": "D2",
          "midi": 38,
          "time": 209.9999160000003,
          "velocity": 0.6850393700787402,
          "duration": 0.39583317500000703
        },
        {
          "name": "E2",
          "midi": 40,
          "time": 210.41484638958363,
          "velocity": 0.5196850393700787,
          "duration": 0.18402770416665248
        },
        {
          "name": "D2",
          "midi": 38,
          "time": 210.6231796395836,
          "velocity": 0.5196850393700787,
          "duration": 0.19444436666665865
        },
        {
          "name": "E2",
          "midi": 40,
          "time": 210.8315128895836,
          "velocity": 0.6614173228346457,
          "duration": 0.39583317500000703
        },
        {
          "name": "D2",
          "midi": 38,
          "time": 211.24644327916693,
          "velocity": 0.5039370078740157,
          "duration": 0.18055548333333604
        },
        {
          "name": "E2",
          "midi": 40,
          "time": 211.45477652916694,
          "velocity": 0.5118110236220472,
          "duration": 0.22048602291667407
        },
        {
          "name": "D2",
          "midi": 38,
          "time": 211.66310977916694,
          "velocity": 0.5118110236220472,
          "duration": 0.44618037708335123
        },
        {
          "name": "E2",
          "midi": 40,
          "time": 212.08151238958362,
          "velocity": 0.49606299212598426,
          "duration": 0.4184026104166776
        },
        {
          "name": "D2",
          "midi": 38,
          "time": 212.4999150000003,
          "velocity": 0.6850393700787402,
          "duration": 0.35243041458332414
        },
        {
          "name": "C2",
          "midi": 36,
          "time": 212.4999150000003,
          "velocity": 1,
          "duration": 0.381944291666656
        },
        {
          "name": "B3",
          "midi": 59,
          "time": 212.4999150000003,
          "velocity": 0.9921259842519685,
          "duration": 0.4149303895833043
        },
        {
          "name": "E2",
          "midi": 40,
          "time": 212.91310927916695,
          "velocity": 0.49606299212598426,
          "duration": 0.1649304895833268
        },
        {
          "name": "D2",
          "midi": 38,
          "time": 213.11970641875027,
          "velocity": 0.5118110236220472,
          "duration": 0.1857638145833107
        },
        {
          "name": "C2",
          "midi": 36,
          "time": 213.1335953020836,
          "velocity": 1,
          "duration": 0.18923603541665557
        },
        {
          "name": "E2",
          "midi": 40,
          "time": 213.32803966875025,
          "velocity": 0.6535433070866141,
          "duration": 0.2934026604166604
        },
        {
          "name": "C2",
          "midi": 36,
          "time": 213.34019244166691,
          "velocity": 1,
          "duration": 0.9010413062499936
        },
        {
          "name": "D2",
          "midi": 38,
          "time": 213.74470616875024,
          "velocity": 0.5039370078740157,
          "duration": 0.2222221333333323
        },
        {
          "name": "E2",
          "midi": 40,
          "time": 213.95303941875025,
          "velocity": 0.5118110236220472,
          "duration": 0.166666599999985
        },
        {
          "name": "D2",
          "midi": 38,
          "time": 214.16137266875023,
          "velocity": 0.5118110236220472,
          "duration": 0.41666650000001937
        },
        {
          "name": "E2",
          "midi": 40,
          "time": 214.5797752791669,
          "velocity": 0.5196850393700787,
          "duration": 0.4201387208333358
        },
        {
          "name": "C2",
          "midi": 36,
          "time": 214.99991400000025,
          "velocity": 1,
          "duration": 0.8385413312499566
        },
        {
          "name": "D2",
          "midi": 38,
          "time": 214.99991400000025,
          "velocity": 0.6850393700787402,
          "duration": 0.39583317500000703
        },
        {
          "name": "E2",
          "midi": 40,
          "time": 215.41484438958358,
          "velocity": 0.5196850393700787,
          "duration": 0.18402770416665248
        },
        {
          "name": "D2",
          "midi": 38,
          "time": 215.62317763958356,
          "velocity": 0.5196850393700787,
          "duration": 0.19444436666665865
        },
        {
          "name": "E2",
          "midi": 40,
          "time": 215.83151088958354,
          "velocity": 0.6614173228346457,
          "duration": 0.39583317500000703
        },
        {
          "name": "D2",
          "midi": 38,
          "time": 216.24644127916687,
          "velocity": 0.5039370078740157,
          "duration": 0.18055548333333604
        },
        {
          "name": "E2",
          "midi": 40,
          "time": 216.45477452916688,
          "velocity": 0.5118110236220472,
          "duration": 0.22048602291667407
        },
        {
          "name": "D2",
          "midi": 38,
          "time": 216.6631077791669,
          "velocity": 0.5118110236220472,
          "duration": 0.44618037708335123
        },
        {
          "name": "E2",
          "midi": 40,
          "time": 217.08151038958357,
          "velocity": 0.49606299212598426,
          "duration": 0.4184026104166776
        },
        {
          "name": "D2",
          "midi": 38,
          "time": 217.49991300000025,
          "velocity": 0.6614173228346457,
          "duration": 0.39756928541666525
        },
        {
          "name": "C2",
          "midi": 36,
          "time": 217.49991300000025,
          "velocity": 1,
          "duration": 0.381944291666656
        },
        {
          "name": "B3",
          "midi": 59,
          "time": 217.49991300000025,
          "velocity": 0.9921259842519685,
          "duration": 0.4149303895833327
        },
        {
          "name": "E2",
          "midi": 40,
          "time": 217.91657950000024,
          "velocity": 0.5039370078740157,
          "duration": 0.17534715208333296
        },
        {
          "name": "D2",
          "midi": 38,
          "time": 218.12491275000025,
          "velocity": 0.49606299212598426,
          "duration": 0.2048610291666364
        },
        {
          "name": "C2",
          "midi": 36,
          "time": 218.13359330208357,
          "velocity": 1,
          "duration": 0.18923603541665557
        },
        {
          "name": "E2",
          "midi": 40,
          "time": 218.33324600000023,
          "velocity": 0.6692913385826772,
          "duration": 0.4062498374999848
        },
        {
          "name": "C2",
          "midi": 36,
          "time": 218.3401904416669,
          "velocity": 1,
          "duration": 0.901041306250022
        },
        {
          "name": "D2",
          "midi": 38,
          "time": 218.74991250000022,
          "velocity": 0.49606299212598426,
          "duration": 0.16666660000001343
        },
        {
          "name": "E2",
          "midi": 40,
          "time": 218.95650963958357,
          "velocity": 0.5039370078740157,
          "duration": 0.19270825625000043
        },
        {
          "name": "D2",
          "midi": 38,
          "time": 219.16657900000024,
          "velocity": 0.5118110236220472,
          "duration": 0.3489581937500077
        },
        {
          "name": "E2",
          "midi": 40,
          "time": 219.58150938958357,
          "velocity": 0.5118110236220472,
          "duration": 0.18402770416665248
        },
        {
          "name": "D2",
          "midi": 38,
          "time": 219.7881065291669,
          "velocity": 0.5196850393700787,
          "duration": 0.18055548333333604
        },
        {
          "name": "C2",
          "midi": 36,
          "time": 219.99991200000022,
          "velocity": 1,
          "duration": 0.8315968895832953
        },
        {
          "name": "D2",
          "midi": 38,
          "time": 219.99991200000022,
          "velocity": 0.6850393700787402,
          "duration": 0.39583317500000703
        },
        {
          "name": "E2",
          "midi": 40,
          "time": 220.41484238958355,
          "velocity": 0.5196850393700787,
          "duration": 0.18402770416665248
        },
        {
          "name": "D2",
          "midi": 38,
          "time": 220.62317563958354,
          "velocity": 0.5196850393700787,
          "duration": 0.19444436666665865
        },
        {
          "name": "E2",
          "midi": 40,
          "time": 220.83150888958352,
          "velocity": 0.6614173228346457,
          "duration": 0.39583317500000703
        },
        {
          "name": "D2",
          "midi": 38,
          "time": 221.24643927916685,
          "velocity": 0.5039370078740157,
          "duration": 0.18055548333333604
        },
        {
          "name": "E2",
          "midi": 40,
          "time": 221.45477252916686,
          "velocity": 0.5118110236220472,
          "duration": 0.22048602291667407
        },
        {
          "name": "D2",
          "midi": 38,
          "time": 221.66310577916687,
          "velocity": 0.5118110236220472,
          "duration": 0.44618037708335123
        },
        {
          "name": "E2",
          "midi": 40,
          "time": 222.08150838958355,
          "velocity": 0.49606299212598426,
          "duration": 0.4184026104166776
        },
        {
          "name": "D2",
          "midi": 38,
          "time": 222.49991100000022,
          "velocity": 0.6850393700787402,
          "duration": 0.35243041458332414
        },
        {
          "name": "C2",
          "midi": 36,
          "time": 222.49991100000022,
          "velocity": 1,
          "duration": 0.381944291666656
        },
        {
          "name": "B3",
          "midi": 59,
          "time": 222.49991100000022,
          "velocity": 0.9921259842519685,
          "duration": 0.4149303895833043
        },
        {
          "name": "E2",
          "midi": 40,
          "time": 222.91310527916687,
          "velocity": 0.49606299212598426,
          "duration": 0.1649304895833268
        },
        {
          "name": "D2",
          "midi": 38,
          "time": 223.1197024187502,
          "velocity": 0.5118110236220472,
          "duration": 0.1857638145833107
        },
        {
          "name": "C2",
          "midi": 36,
          "time": 223.13359130208352,
          "velocity": 1,
          "duration": 0.18923603541665557
        },
        {
          "name": "E2",
          "midi": 40,
          "time": 223.32803566875018,
          "velocity": 0.6535433070866141,
          "duration": 0.2934026604166604
        },
        {
          "name": "C2",
          "midi": 36,
          "time": 223.34018844166684,
          "velocity": 1,
          "duration": 0.9010413062499936
        },
        {
          "name": "D2",
          "midi": 38,
          "time": 223.74470216875017,
          "velocity": 0.5039370078740157,
          "duration": 0.2222221333333323
        },
        {
          "name": "E2",
          "midi": 40,
          "time": 223.95303541875018,
          "velocity": 0.5118110236220472,
          "duration": 0.166666599999985
        },
        {
          "name": "D2",
          "midi": 38,
          "time": 224.16136866875016,
          "velocity": 0.5118110236220472,
          "duration": 0.41666650000001937
        },
        {
          "name": "E2",
          "midi": 40,
          "time": 224.57977127916683,
          "velocity": 0.5196850393700787,
          "duration": 0.4201387208333358
        },
        {
          "name": "C2",
          "midi": 36,
          "time": 224.99991000000017,
          "velocity": 1,
          "duration": 0.8385413312499566
        },
        {
          "name": "D2",
          "midi": 38,
          "time": 224.99991000000017,
          "velocity": 0.6850393700787402,
          "duration": 0.39583317500000703
        },
        {
          "name": "E2",
          "midi": 40,
          "time": 225.4148403895835,
          "velocity": 0.5196850393700787,
          "duration": 0.18402770416665248
        },
        {
          "name": "D2",
          "midi": 38,
          "time": 225.62317363958348,
          "velocity": 0.5196850393700787,
          "duration": 0.19444436666665865
        },
        {
          "name": "E2",
          "midi": 40,
          "time": 225.83150688958347,
          "velocity": 0.6614173228346457,
          "duration": 0.39583317500000703
        },
        {
          "name": "D2",
          "midi": 38,
          "time": 226.2464372791668,
          "velocity": 0.5039370078740157,
          "duration": 0.18055548333333604
        },
        {
          "name": "E2",
          "midi": 40,
          "time": 226.4547705291668,
          "velocity": 0.5118110236220472,
          "duration": 0.22048602291667407
        },
        {
          "name": "D2",
          "midi": 38,
          "time": 226.66310377916682,
          "velocity": 0.5118110236220472,
          "duration": 0.44618037708335123
        },
        {
          "name": "E2",
          "midi": 40,
          "time": 227.0815063895835,
          "velocity": 0.49606299212598426,
          "duration": 0.4184026104166776
        },
        {
          "name": "C2",
          "midi": 36,
          "time": 227.49643677916683,
          "velocity": 1,
          "duration": 0.826388558333349
        },
        {
          "name": "C2",
          "midi": 36,
          "time": 227.49990900000017,
          "velocity": 1,
          "duration": 0.8315968895833237
        },
        {
          "name": "D2",
          "midi": 38,
          "time": 227.49990900000017,
          "velocity": 0.6614173228346457,
          "duration": 0.39756928541666525
        },
        {
          "name": "B3",
          "midi": 59,
          "time": 227.49990900000017,
          "velocity": 0.9921259842519685,
          "duration": 0.4149303895833327
        },
        {
          "name": "E2",
          "midi": 40,
          "time": 227.91657550000016,
          "velocity": 0.5039370078740157,
          "duration": 0.17534715208333296
        },
        {
          "name": "D2",
          "midi": 38,
          "time": 228.12490875000017,
          "velocity": 0.49606299212598426,
          "duration": 0.20486102916666482
        },
        {
          "name": "E2",
          "midi": 40,
          "time": 228.33324200000015,
          "velocity": 0.6692913385826772,
          "duration": 0.4062498375000132
        },
        {
          "name": "D2",
          "midi": 38,
          "time": 228.74990850000017,
          "velocity": 0.49606299212598426,
          "duration": 0.16666660000001343
        },
        {
          "name": "E2",
          "midi": 40,
          "time": 228.95650563958353,
          "velocity": 0.5039370078740157,
          "duration": 0.19270825625000043
        },
        {
          "name": "D2",
          "midi": 38,
          "time": 229.1665750000002,
          "velocity": 0.5118110236220472,
          "duration": 0.3489581937500077
        },
        {
          "name": "E2",
          "midi": 40,
          "time": 229.58150538958353,
          "velocity": 0.5118110236220472,
          "duration": 0.18402770416665248
        },
        {
          "name": "D2",
          "midi": 38,
          "time": 229.78810252916685,
          "velocity": 0.5196850393700787,
          "duration": 0.18055548333333604
        },
        {
          "name": "C2",
          "midi": 36,
          "time": 229.99990800000018,
          "velocity": 1,
          "duration": 0.8315968895832953
        },
        {
          "name": "D2",
          "midi": 38,
          "time": 229.99990800000018,
          "velocity": 0.6850393700787402,
          "duration": 0.39583317500000703
        },
        {
          "name": "E2",
          "midi": 40,
          "time": 230.4148383895835,
          "velocity": 0.5196850393700787,
          "duration": 0.18402770416665248
        },
        {
          "name": "D2",
          "midi": 38,
          "time": 230.6231716395835,
          "velocity": 0.5196850393700787,
          "duration": 0.19444436666665865
        },
        {
          "name": "E2",
          "midi": 40,
          "time": 230.83150488958347,
          "velocity": 0.6614173228346457,
          "duration": 0.39583317500000703
        },
        {
          "name": "D2",
          "midi": 38,
          "time": 231.2464352791668,
          "velocity": 0.5039370078740157,
          "duration": 0.18055548333333604
        },
        {
          "name": "E2",
          "midi": 40,
          "time": 231.4547685291668,
          "velocity": 0.5118110236220472,
          "duration": 0.22048602291667407
        },
        {
          "name": "D2",
          "midi": 38,
          "time": 231.66310177916682,
          "velocity": 0.5118110236220472,
          "duration": 0.44618037708335123
        },
        {
          "name": "E2",
          "midi": 40,
          "time": 232.0815043895835,
          "velocity": 0.49606299212598426,
          "duration": 0.4184026104166776
        },
        {
          "name": "C2",
          "midi": 36,
          "time": 232.49990700000018,
          "velocity": 1,
          "duration": 0.8263885583333206
        },
        {
          "name": "D2",
          "midi": 38,
          "time": 232.49990700000018,
          "velocity": 0.6850393700787402,
          "duration": 0.35243041458332414
        },
        {
          "name": "E2",
          "midi": 40,
          "time": 232.91310127916682,
          "velocity": 0.49606299212598426,
          "duration": 0.1649304895833268
        },
        {
          "name": "D2",
          "midi": 38,
          "time": 233.11969841875015,
          "velocity": 0.5118110236220472,
          "duration": 0.18576381458333913
        },
        {
          "name": "E2",
          "midi": 40,
          "time": 233.32803166875016,
          "velocity": 0.6535433070866141,
          "duration": 0.2934026604166604
        },
        {
          "name": "D2",
          "midi": 38,
          "time": 233.74469816875015,
          "velocity": 0.5039370078740157,
          "duration": 0.2222221333333323
        },
        {
          "name": "E2",
          "midi": 40,
          "time": 233.95303141875016,
          "velocity": 0.5118110236220472,
          "duration": 0.166666599999985
        },
        {
          "name": "D2",
          "midi": 38,
          "time": 234.16136466875014,
          "velocity": 0.5118110236220472,
          "duration": 0.41666649999999095
        },
        {
          "name": "E2",
          "midi": 40,
          "time": 234.5797672791668,
          "velocity": 0.5196850393700787,
          "duration": 0.4201387208333358
        },
        {
          "name": "C2",
          "midi": 36,
          "time": 234.99990600000012,
          "velocity": 1,
          "duration": 0.8385413312499566
        },
        {
          "name": "D2",
          "midi": 38,
          "time": 234.99990600000012,
          "velocity": 0.6850393700787402,
          "duration": 0.39583317500000703
        },
        {
          "name": "E2",
          "midi": 40,
          "time": 235.41483638958346,
          "velocity": 0.5196850393700787,
          "duration": 0.18402770416665248
        },
        {
          "name": "D2",
          "midi": 38,
          "time": 235.62316963958344,
          "velocity": 0.5196850393700787,
          "duration": 0.19444436666665865
        },
        {
          "name": "E2",
          "midi": 40,
          "time": 235.83150288958342,
          "velocity": 0.6614173228346457,
          "duration": 0.39583317500000703
        },
        {
          "name": "D2",
          "midi": 38,
          "time": 236.24643327916675,
          "velocity": 0.5039370078740157,
          "duration": 0.18055548333333604
        },
        {
          "name": "E2",
          "midi": 40,
          "time": 236.45476652916676,
          "velocity": 0.5118110236220472,
          "duration": 0.22048602291667407
        },
        {
          "name": "D2",
          "midi": 38,
          "time": 236.66309977916677,
          "velocity": 0.5118110236220472,
          "duration": 0.44618037708335123
        },
        {
          "name": "E2",
          "midi": 40,
          "time": 237.08150238958345,
          "velocity": 0.49606299212598426,
          "duration": 0.4184026104166776
        },
        {
          "name": "C2",
          "midi": 36,
          "time": 237.49990500000013,
          "velocity": 1,
          "duration": 0.8315968895833237
        },
        {
          "name": "D2",
          "midi": 38,
          "time": 237.49990500000013,
          "velocity": 0.6614173228346457,
          "duration": 0.39756928541666525
        },
        {
          "name": "E2",
          "midi": 40,
          "time": 237.91657150000012,
          "velocity": 0.5039370078740157,
          "duration": 0.17534715208333296
        },
        {
          "name": "D2",
          "midi": 38,
          "time": 238.12490475000013,
          "velocity": 0.49606299212598426,
          "duration": 0.20486102916666482
        },
        {
          "name": "E2",
          "midi": 40,
          "time": 238.3332380000001,
          "velocity": 0.6692913385826772,
          "duration": 0.4062498375000132
        },
        {
          "name": "D2",
          "midi": 38,
          "time": 238.74990450000013,
          "velocity": 0.49606299212598426,
          "duration": 0.16666660000001343
        },
        {
          "name": "E2",
          "midi": 40,
          "time": 238.95650163958348,
          "velocity": 0.5039370078740157,
          "duration": 0.19270825625000043
        },
        {
          "name": "D2",
          "midi": 38,
          "time": 239.16657100000015,
          "velocity": 0.5118110236220472,
          "duration": 0.3489581937500077
        },
        {
          "name": "E2",
          "midi": 40,
          "time": 239.58150138958348,
          "velocity": 0.5118110236220472,
          "duration": 0.18402770416665248
        },
        {
          "name": "D2",
          "midi": 38,
          "time": 239.7880985291668,
          "velocity": 0.5196850393700787,
          "duration": 0.18055548333333604
        },
        {
          "name": "C2",
          "midi": 36,
          "time": 239.99990400000013,
          "velocity": 1,
          "duration": 0.8315968895832953
        },
        {
          "name": "D2",
          "midi": 38,
          "time": 239.99990400000013,
          "velocity": 0.6850393700787402,
          "duration": 0.39583317500000703
        },
        {
          "name": "E2",
          "midi": 40,
          "time": 240.41483438958346,
          "velocity": 0.5196850393700787,
          "duration": 0.18402770416665248
        },
        {
          "name": "D2",
          "midi": 38,
          "time": 240.62316763958344,
          "velocity": 0.5196850393700787,
          "duration": 0.19444436666665865
        },
        {
          "name": "E2",
          "midi": 40,
          "time": 240.83150088958342,
          "velocity": 0.6614173228346457,
          "duration": 0.39583317500000703
        },
        {
          "name": "D2",
          "midi": 38,
          "time": 241.24643127916676,
          "velocity": 0.5039370078740157,
          "duration": 0.18055548333333604
        },
        {
          "name": "E2",
          "midi": 40,
          "time": 241.45476452916677,
          "velocity": 0.5118110236220472,
          "duration": 0.22048602291667407
        },
        {
          "name": "D2",
          "midi": 38,
          "time": 241.66309777916678,
          "velocity": 0.5118110236220472,
          "duration": 0.44618037708335123
        },
        {
          "name": "E2",
          "midi": 40,
          "time": 242.08150038958345,
          "velocity": 0.49606299212598426,
          "duration": 0.4184026104166776
        },
        {
          "name": "C2",
          "midi": 36,
          "time": 242.49990300000013,
          "velocity": 1,
          "duration": 0.8263885583333206
        },
        {
          "name": "D2",
          "midi": 38,
          "time": 242.49990300000013,
          "velocity": 0.6850393700787402,
          "duration": 0.35243041458332414
        },
        {
          "name": "E2",
          "midi": 40,
          "time": 242.91309727916678,
          "velocity": 0.49606299212598426,
          "duration": 0.1649304895833268
        },
        {
          "name": "D2",
          "midi": 38,
          "time": 243.1196944187501,
          "velocity": 0.5118110236220472,
          "duration": 0.18576381458333913
        },
        {
          "name": "E2",
          "midi": 40,
          "time": 243.3280276687501,
          "velocity": 0.6535433070866141,
          "duration": 0.2934026604166604
        },
        {
          "name": "D2",
          "midi": 38,
          "time": 243.7446941687501,
          "velocity": 0.5039370078740157,
          "duration": 0.2222221333333323
        },
        {
          "name": "E2",
          "midi": 40,
          "time": 243.9530274187501,
          "velocity": 0.5118110236220472,
          "duration": 0.166666599999985
        },
        {
          "name": "D2",
          "midi": 38,
          "time": 244.1613606687501,
          "velocity": 0.5118110236220472,
          "duration": 0.41666649999999095
        },
        {
          "name": "E2",
          "midi": 40,
          "time": 244.57976327916674,
          "velocity": 0.5196850393700787,
          "duration": 0.4201387208333358
        },
        {
          "name": "C2",
          "midi": 36,
          "time": 244.99990200000008,
          "velocity": 1,
          "duration": 0.8385413312499566
        },
        {
          "name": "D2",
          "midi": 38,
          "time": 244.99990200000008,
          "velocity": 0.6850393700787402,
          "duration": 0.39583317500000703
        },
        {
          "name": "E2",
          "midi": 40,
          "time": 245.4148323895834,
          "velocity": 0.5196850393700787,
          "duration": 0.18402770416665248
        },
        {
          "name": "D2",
          "midi": 38,
          "time": 245.6231656395834,
          "velocity": 0.5196850393700787,
          "duration": 0.19444436666665865
        },
        {
          "name": "E2",
          "midi": 40,
          "time": 245.83149888958337,
          "velocity": 0.6614173228346457,
          "duration": 0.39583317500000703
        },
        {
          "name": "D2",
          "midi": 38,
          "time": 246.2464292791667,
          "velocity": 0.5039370078740157,
          "duration": 0.18055548333333604
        },
        {
          "name": "E2",
          "midi": 40,
          "time": 246.45476252916671,
          "velocity": 0.5118110236220472,
          "duration": 0.22048602291667407
        },
        {
          "name": "D2",
          "midi": 38,
          "time": 246.66309577916672,
          "velocity": 0.5118110236220472,
          "duration": 0.44618037708335123
        },
        {
          "name": "E2",
          "midi": 40,
          "time": 247.0814983895834,
          "velocity": 0.49606299212598426,
          "duration": 0.4184026104166776
        },
        {
          "name": "C2",
          "midi": 36,
          "time": 247.49990100000008,
          "velocity": 1,
          "duration": 0.8315968895833237
        },
        {
          "name": "D2",
          "midi": 38,
          "time": 247.49990100000008,
          "velocity": 0.6614173228346457,
          "duration": 0.39756928541666525
        },
        {
          "name": "E2",
          "midi": 40,
          "time": 247.91656750000007,
          "velocity": 0.5039370078740157,
          "duration": 0.17534715208333296
        },
        {
          "name": "D2",
          "midi": 38,
          "time": 248.12490075000008,
          "velocity": 0.49606299212598426,
          "duration": 0.20486102916666482
        },
        {
          "name": "E2",
          "midi": 40,
          "time": 248.33323400000006,
          "velocity": 0.6692913385826772,
          "duration": 0.4062498375000132
        },
        {
          "name": "D2",
          "midi": 38,
          "time": 248.74990050000008,
          "velocity": 0.49606299212598426,
          "duration": 0.16666660000001343
        },
        {
          "name": "E2",
          "midi": 40,
          "time": 248.95649763958343,
          "velocity": 0.5039370078740157,
          "duration": 0.19270825625000043
        },
        {
          "name": "D2",
          "midi": 38,
          "time": 249.1665670000001,
          "velocity": 0.5118110236220472,
          "duration": 0.3489581937500077
        },
        {
          "name": "E2",
          "midi": 40,
          "time": 249.58149738958343,
          "velocity": 0.5118110236220472,
          "duration": 0.18402770416665248
        },
        {
          "name": "D2",
          "midi": 38,
          "time": 249.78809452916676,
          "velocity": 0.5196850393700787,
          "duration": 0.18055548333333604
        },
        {
          "name": "C2",
          "midi": 36,
          "time": 249.99990000000008,
          "velocity": 1,
          "duration": 0.8315968895832953
        },
        {
          "name": "D2",
          "midi": 38,
          "time": 249.99990000000008,
          "velocity": 0.6850393700787402,
          "duration": 0.39583317500000703
        },
        {
          "name": "E2",
          "midi": 40,
          "time": 250.41483038958341,
          "velocity": 0.5196850393700787,
          "duration": 0.18402770416665248
        },
        {
          "name": "D2",
          "midi": 38,
          "time": 250.6231636395834,
          "velocity": 0.5196850393700787,
          "duration": 0.19444436666665865
        },
        {
          "name": "E2",
          "midi": 40,
          "time": 250.83149688958338,
          "velocity": 0.6614173228346457,
          "duration": 0.39583317500000703
        },
        {
          "name": "D2",
          "midi": 38,
          "time": 251.2464272791667,
          "velocity": 0.5039370078740157,
          "duration": 0.18055548333333604
        },
        {
          "name": "E2",
          "midi": 40,
          "time": 251.45476052916672,
          "velocity": 0.5118110236220472,
          "duration": 0.22048602291667407
        },
        {
          "name": "D2",
          "midi": 38,
          "time": 251.66309377916673,
          "velocity": 0.5118110236220472,
          "duration": 0.44618037708335123
        },
        {
          "name": "E2",
          "midi": 40,
          "time": 252.0814963895834,
          "velocity": 0.49606299212598426,
          "duration": 0.4184026104166776
        },
        {
          "name": "C2",
          "midi": 36,
          "time": 252.49989900000008,
          "velocity": 1,
          "duration": 0.8263885583333206
        },
        {
          "name": "D2",
          "midi": 38,
          "time": 252.49989900000008,
          "velocity": 0.6850393700787402,
          "duration": 0.35243041458332414
        },
        {
          "name": "E2",
          "midi": 40,
          "time": 252.91309327916673,
          "velocity": 0.49606299212598426,
          "duration": 0.1649304895833268
        },
        {
          "name": "D2",
          "midi": 38,
          "time": 253.11969041875005,
          "velocity": 0.5118110236220472,
          "duration": 0.18576381458333913
        },
        {
          "name": "E2",
          "midi": 40,
          "time": 253.32802366875006,
          "velocity": 0.6535433070866141,
          "duration": 0.2934026604166604
        },
        {
          "name": "D2",
          "midi": 38,
          "time": 253.74469016875005,
          "velocity": 0.5039370078740157,
          "duration": 0.2222221333333323
        },
        {
          "name": "E2",
          "midi": 40,
          "time": 253.95302341875006,
          "velocity": 0.5118110236220472,
          "duration": 0.166666599999985
        },
        {
          "name": "D2",
          "midi": 38,
          "time": 254.16135666875005,
          "velocity": 0.5118110236220472,
          "duration": 0.41666649999999095
        },
        {
          "name": "E2",
          "midi": 40,
          "time": 254.5797592791667,
          "velocity": 0.5196850393700787,
          "duration": 0.4201387208333358
        },
        {
          "name": "C2",
          "midi": 36,
          "time": 254.99989800000003,
          "velocity": 1,
          "duration": 0.8385413312499566
        },
        {
          "name": "D2",
          "midi": 38,
          "time": 254.99989800000003,
          "velocity": 0.6850393700787402,
          "duration": 0.39583317500000703
        },
        {
          "name": "E2",
          "midi": 40,
          "time": 255.41482838958336,
          "velocity": 0.5196850393700787,
          "duration": 0.18402770416665248
        },
        {
          "name": "D2",
          "midi": 38,
          "time": 255.62316163958334,
          "velocity": 0.5196850393700787,
          "duration": 0.19444436666665865
        },
        {
          "name": "E2",
          "midi": 40,
          "time": 255.83149488958333,
          "velocity": 0.6614173228346457,
          "duration": 0.39583317500000703
        },
        {
          "name": "D2",
          "midi": 38,
          "time": 256.24642527916666,
          "velocity": 0.5039370078740157,
          "duration": 0.18055548333330762
        },
        {
          "name": "E2",
          "midi": 40,
          "time": 256.4547585291666,
          "velocity": 0.5118110236220472,
          "duration": 0.2204860229167025
        },
        {
          "name": "D2",
          "midi": 38,
          "time": 256.6630917791666,
          "velocity": 0.5118110236220472,
          "duration": 0.44618037708335123
        },
        {
          "name": "E2",
          "midi": 40,
          "time": 257.0814943895833,
          "velocity": 0.49606299212598426,
          "duration": 0.41840261041664917
        },
        {
          "name": "C2",
          "midi": 36,
          "time": 257.499897,
          "velocity": 1,
          "duration": 0.8315968895834089
        },
        {
          "name": "D2",
          "midi": 38,
          "time": 257.499897,
          "velocity": 0.6614173228346457,
          "duration": 0.3975692854166937
        },
        {
          "name": "E2",
          "midi": 40,
          "time": 257.9165635,
          "velocity": 0.5039370078740157,
          "duration": 0.17534715208336138
        },
        {
          "name": "D2",
          "midi": 38,
          "time": 258.12489675,
          "velocity": 0.49606299212598426,
          "duration": 0.20486102916669324
        },
        {
          "name": "E2",
          "midi": 40,
          "time": 258.33323000000007,
          "velocity": 0.6692913385826772,
          "duration": 0.4062498375000132
        },
        {
          "name": "D2",
          "midi": 38,
          "time": 258.7498965000001,
          "velocity": 0.49606299212598426,
          "duration": 0.166666599999985
        },
        {
          "name": "E2",
          "midi": 40,
          "time": 258.9564936395834,
          "velocity": 0.5039370078740157,
          "duration": 0.19270825625000043
        },
        {
          "name": "D2",
          "midi": 38,
          "time": 259.16656300000005,
          "velocity": 0.5118110236220472,
          "duration": 0.3489581937499793
        },
        {
          "name": "E2",
          "midi": 40,
          "time": 259.5814933895834,
          "velocity": 0.5118110236220472,
          "duration": 0.1840277041666809
        },
        {
          "name": "D2",
          "midi": 38,
          "time": 259.7880905291667,
          "velocity": 0.5196850393700787,
          "duration": 0.18055548333330762
        },
        {
          "name": "C2",
          "midi": 36,
          "time": 259.99989600000004,
          "velocity": 1,
          "duration": 0.8315968895833521
        },
        {
          "name": "D2",
          "midi": 38,
          "time": 259.99989600000004,
          "velocity": 0.6850393700787402,
          "duration": 0.39583317500000703
        },
        {
          "name": "E2",
          "midi": 40,
          "time": 260.41482638958337,
          "velocity": 0.5196850393700787,
          "duration": 0.1840277041666809
        },
        {
          "name": "D2",
          "midi": 38,
          "time": 260.6231596395834,
          "velocity": 0.5196850393700787,
          "duration": 0.19444436666668707
        },
        {
          "name": "E2",
          "midi": 40,
          "time": 260.8314928895834,
          "velocity": 0.6614173228346457,
          "duration": 0.39583317500000703
        },
        {
          "name": "D2",
          "midi": 38,
          "time": 261.2464232791667,
          "velocity": 0.5039370078740157,
          "duration": 0.18055548333330762
        },
        {
          "name": "E2",
          "midi": 40,
          "time": 261.4547565291667,
          "velocity": 0.5118110236220472,
          "duration": 0.2204860229167025
        },
        {
          "name": "D2",
          "midi": 38,
          "time": 261.6630897791667,
          "velocity": 0.5118110236220472,
          "duration": 0.44618037708335123
        },
        {
          "name": "E2",
          "midi": 40,
          "time": 262.0814923895834,
          "velocity": 0.49606299212598426,
          "duration": 0.41840261041664917
        },
        {
          "name": "C2",
          "midi": 36,
          "time": 262.49989500000004,
          "velocity": 1,
          "duration": 0.8263885583334059
        },
        {
          "name": "D2",
          "midi": 38,
          "time": 262.49989500000004,
          "velocity": 0.6850393700787402,
          "duration": 0.35243041458335256
        },
        {
          "name": "E2",
          "midi": 40,
          "time": 262.91308927916674,
          "velocity": 0.49606299212598426,
          "duration": 0.1649304895833552
        },
        {
          "name": "D2",
          "midi": 38,
          "time": 263.1196864187501,
          "velocity": 0.5118110236220472,
          "duration": 0.1857638145833107
        },
        {
          "name": "E2",
          "midi": 40,
          "time": 263.32801966875013,
          "velocity": 0.6535433070866141,
          "duration": 0.29340266041668883
        },
        {
          "name": "D2",
          "midi": 38,
          "time": 263.74468616875015,
          "velocity": 0.5039370078740157,
          "duration": 0.2222221333333323
        },
        {
          "name": "E2",
          "midi": 40,
          "time": 263.95301941875016,
          "velocity": 0.5118110236220472,
          "duration": 0.166666599999985
        },
        {
          "name": "D2",
          "midi": 38,
          "time": 264.16135266875017,
          "velocity": 0.5118110236220472,
          "duration": 0.41666650000001937
        },
        {
          "name": "E2",
          "midi": 40,
          "time": 264.5797552791669,
          "velocity": 0.5196850393700787,
          "duration": 0.4201387208333358
        },
        {
          "name": "C2",
          "midi": 36,
          "time": 264.9998940000002,
          "velocity": 1,
          "duration": 0.8385413312500418
        },
        {
          "name": "D2",
          "midi": 38,
          "time": 264.9998940000002,
          "velocity": 0.6850393700787402,
          "duration": 0.39583317500000703
        },
        {
          "name": "E2",
          "midi": 40,
          "time": 265.41482438958354,
          "velocity": 0.5196850393700787,
          "duration": 0.1840277041666809
        },
        {
          "name": "D2",
          "midi": 38,
          "time": 265.62315763958355,
          "velocity": 0.5196850393700787,
          "duration": 0.19444436666668707
        },
        {
          "name": "E2",
          "midi": 40,
          "time": 265.83149088958356,
          "velocity": 0.6614173228346457,
          "duration": 0.39583317500000703
        },
        {
          "name": "D2",
          "midi": 38,
          "time": 266.2464212791669,
          "velocity": 0.5039370078740157,
          "duration": 0.18055548333330762
        },
        {
          "name": "E2",
          "midi": 40,
          "time": 266.45475452916685,
          "velocity": 0.5118110236220472,
          "duration": 0.2204860229167025
        },
        {
          "name": "D2",
          "midi": 38,
          "time": 266.66308777916686,
          "velocity": 0.5118110236220472,
          "duration": 0.44618037708335123
        },
        {
          "name": "E2",
          "midi": 40,
          "time": 267.08149038958356,
          "velocity": 0.49606299212598426,
          "duration": 0.41840261041664917
        },
        {
          "name": "C2",
          "midi": 36,
          "time": 267.4998930000002,
          "velocity": 1,
          "duration": 0.8315968895834089
        },
        {
          "name": "D2",
          "midi": 38,
          "time": 267.4998930000002,
          "velocity": 0.6614173228346457,
          "duration": 0.3975692854166937
        },
        {
          "name": "E2",
          "midi": 40,
          "time": 267.91655950000023,
          "velocity": 0.5039370078740157,
          "duration": 0.17534715208336138
        },
        {
          "name": "D2",
          "midi": 38,
          "time": 268.12489275000024,
          "velocity": 0.49606299212598426,
          "duration": 0.20486102916669324
        },
        {
          "name": "E2",
          "midi": 40,
          "time": 268.3332260000003,
          "velocity": 0.6692913385826772,
          "duration": 0.4062498375000132
        },
        {
          "name": "D2",
          "midi": 38,
          "time": 268.7498925000003,
          "velocity": 0.49606299212598426,
          "duration": 0.166666599999985
        },
        {
          "name": "E2",
          "midi": 40,
          "time": 268.95648963958365,
          "velocity": 0.5039370078740157,
          "duration": 0.19270825625000043
        },
        {
          "name": "D2",
          "midi": 38,
          "time": 269.1665590000003,
          "velocity": 0.5118110236220472,
          "duration": 0.3489581937499793
        },
        {
          "name": "E2",
          "midi": 40,
          "time": 269.5814893895836,
          "velocity": 0.5118110236220472,
          "duration": 0.1840277041666809
        },
        {
          "name": "D2",
          "midi": 38,
          "time": 269.78808652916695,
          "velocity": 0.5196850393700787,
          "duration": 0.18055548333330762
        },
        {
          "name": "C2",
          "midi": 36,
          "time": 269.9998920000003,
          "velocity": 1,
          "duration": 0.8315968895833521
        },
        {
          "name": "D2",
          "midi": 38,
          "time": 269.9998920000003,
          "velocity": 0.6850393700787402,
          "duration": 0.39583317500000703
        },
        {
          "name": "E2",
          "midi": 40,
          "time": 270.4148223895836,
          "velocity": 0.5196850393700787,
          "duration": 0.1840277041666809
        },
        {
          "name": "D2",
          "midi": 38,
          "time": 270.6231556395836,
          "velocity": 0.5196850393700787,
          "duration": 0.19444436666668707
        },
        {
          "name": "E2",
          "midi": 40,
          "time": 270.8314888895836,
          "velocity": 0.6614173228346457,
          "duration": 0.39583317500000703
        },
        {
          "name": "D2",
          "midi": 38,
          "time": 271.24641927916696,
          "velocity": 0.5039370078740157,
          "duration": 0.18055548333330762
        },
        {
          "name": "E2",
          "midi": 40,
          "time": 271.4547525291669,
          "velocity": 0.5118110236220472,
          "duration": 0.2204860229167025
        },
        {
          "name": "D2",
          "midi": 38,
          "time": 271.6630857791669,
          "velocity": 0.5118110236220472,
          "duration": 0.44618037708335123
        },
        {
          "name": "E2",
          "midi": 40,
          "time": 272.0814883895836,
          "velocity": 0.49606299212598426,
          "duration": 0.41840261041664917
        },
        {
          "name": "C2",
          "midi": 36,
          "time": 272.4998910000003,
          "velocity": 1,
          "duration": 0.8315968895834089
        },
        {
          "name": "D2",
          "midi": 38,
          "time": 272.4998910000003,
          "velocity": 0.6614173228346457,
          "duration": 0.3975692854166937
        },
        {
          "name": "E2",
          "midi": 40,
          "time": 272.9165575000003,
          "velocity": 0.5039370078740157,
          "duration": 0.17534715208336138
        },
        {
          "name": "D2",
          "midi": 38,
          "time": 273.1248907500003,
          "velocity": 0.49606299212598426,
          "duration": 0.20486102916669324
        },
        {
          "name": "E2",
          "midi": 40,
          "time": 273.33322400000037,
          "velocity": 0.6692913385826772,
          "duration": 0.4062498375000132
        },
        {
          "name": "D2",
          "midi": 38,
          "time": 273.7498905000004,
          "velocity": 0.49606299212598426,
          "duration": 0.166666599999985
        },
        {
          "name": "E2",
          "midi": 40,
          "time": 273.9564876395837,
          "velocity": 0.5039370078740157,
          "duration": 0.19270825625000043
        },
        {
          "name": "D2",
          "midi": 38,
          "time": 274.16655700000035,
          "velocity": 0.5118110236220472,
          "duration": 0.3489581937499793
        },
        {
          "name": "E2",
          "midi": 40,
          "time": 274.5814873895837,
          "velocity": 0.5118110236220472,
          "duration": 0.1840277041666809
        },
        {
          "name": "D2",
          "midi": 38,
          "time": 274.788084529167,
          "velocity": 0.5196850393700787,
          "duration": 0.18055548333330762
        },
        {
          "name": "C2",
          "midi": 36,
          "time": 274.99989000000033,
          "velocity": 1,
          "duration": 0.8315968895833521
        },
        {
          "name": "D2",
          "midi": 38,
          "time": 274.99989000000033,
          "velocity": 0.6850393700787402,
          "duration": 0.39583317500000703
        },
        {
          "name": "E2",
          "midi": 40,
          "time": 275.41482038958367,
          "velocity": 0.5196850393700787,
          "duration": 0.1840277041666809
        },
        {
          "name": "D2",
          "midi": 38,
          "time": 275.6231536395837,
          "velocity": 0.5196850393700787,
          "duration": 0.19444436666668707
        },
        {
          "name": "E2",
          "midi": 40,
          "time": 275.8314868895837,
          "velocity": 0.6614173228346457,
          "duration": 0.39583317500000703
        },
        {
          "name": "D2",
          "midi": 38,
          "time": 276.246417279167,
          "velocity": 0.5039370078740157,
          "duration": 0.18055548333330762
        },
        {
          "name": "E2",
          "midi": 40,
          "time": 276.454750529167,
          "velocity": 0.5118110236220472,
          "duration": 0.2204860229167025
        },
        {
          "name": "D2",
          "midi": 38,
          "time": 276.663083779167,
          "velocity": 0.5118110236220472,
          "duration": 0.44618037708335123
        },
        {
          "name": "E2",
          "midi": 40,
          "time": 277.0814863895837,
          "velocity": 0.49606299212598426,
          "duration": 0.41840261041664917
        },
        {
          "name": "C2",
          "midi": 36,
          "time": 277.49988900000034,
          "velocity": 1,
          "duration": 0.8315968895834089
        },
        {
          "name": "D2",
          "midi": 38,
          "time": 277.49988900000034,
          "velocity": 0.6614173228346457,
          "duration": 0.3975692854166937
        },
        {
          "name": "E2",
          "midi": 40,
          "time": 277.91655550000036,
          "velocity": 0.5039370078740157,
          "duration": 0.17534715208336138
        },
        {
          "name": "D2",
          "midi": 38,
          "time": 278.12488875000037,
          "velocity": 0.49606299212598426,
          "duration": 0.20486102916669324
        },
        {
          "name": "E2",
          "midi": 40,
          "time": 278.33322200000043,
          "velocity": 0.6692913385826772,
          "duration": 0.4062498375000132
        },
        {
          "name": "D2",
          "midi": 38,
          "time": 278.74988850000045,
          "velocity": 0.49606299212598426,
          "duration": 0.166666599999985
        },
        {
          "name": "E2",
          "midi": 40,
          "time": 278.9564856395838,
          "velocity": 0.5039370078740157,
          "duration": 0.19270825625000043
        },
        {
          "name": "D2",
          "midi": 38,
          "time": 279.1665550000004,
          "velocity": 0.5118110236220472,
          "duration": 0.3489581937499793
        },
        {
          "name": "E2",
          "midi": 40,
          "time": 279.58148538958375,
          "velocity": 0.5118110236220472,
          "duration": 0.1840277041666809
        },
        {
          "name": "D2",
          "midi": 38,
          "time": 279.78808252916707,
          "velocity": 0.5196850393700787,
          "duration": 0.18055548333330762
        },
        {
          "name": "C2",
          "midi": 36,
          "time": 279.9998880000004,
          "velocity": 1,
          "duration": 0.8315968895833521
        },
        {
          "name": "D2",
          "midi": 38,
          "time": 279.9998880000004,
          "velocity": 0.6850393700787402,
          "duration": 0.39583317500000703
        },
        {
          "name": "E2",
          "midi": 40,
          "time": 280.41481838958373,
          "velocity": 0.5196850393700787,
          "duration": 0.1840277041666809
        },
        {
          "name": "D2",
          "midi": 38,
          "time": 280.62315163958374,
          "velocity": 0.5196850393700787,
          "duration": 0.19444436666668707
        },
        {
          "name": "E2",
          "midi": 40,
          "time": 280.83148488958375,
          "velocity": 0.6614173228346457,
          "duration": 0.39583317500000703
        },
        {
          "name": "D2",
          "midi": 38,
          "time": 281.2464152791671,
          "velocity": 0.5039370078740157,
          "duration": 0.18055548333330762
        },
        {
          "name": "E2",
          "midi": 40,
          "time": 281.45474852916703,
          "velocity": 0.5118110236220472,
          "duration": 0.2204860229167025
        },
        {
          "name": "D2",
          "midi": 38,
          "time": 281.66308177916704,
          "velocity": 0.5118110236220472,
          "duration": 0.44618037708335123
        },
        {
          "name": "E2",
          "midi": 40,
          "time": 282.08148438958375,
          "velocity": 0.49606299212598426,
          "duration": 0.41840261041664917
        },
        {
          "name": "C2",
          "midi": 36,
          "time": 282.4998870000004,
          "velocity": 1,
          "duration": 0.8315968895834089
        },
        {
          "name": "D2",
          "midi": 38,
          "time": 282.4998870000004,
          "velocity": 0.6614173228346457,
          "duration": 0.3975692854166937
        },
        {
          "name": "E2",
          "midi": 40,
          "time": 282.9165535000004,
          "velocity": 0.5039370078740157,
          "duration": 0.17534715208336138
        },
        {
          "name": "D2",
          "midi": 38,
          "time": 283.1248867500004,
          "velocity": 0.49606299212598426,
          "duration": 0.20486102916669324
        },
        {
          "name": "E2",
          "midi": 40,
          "time": 283.3332200000005,
          "velocity": 0.6692913385826772,
          "duration": 0.4062498375000132
        },
        {
          "name": "D2",
          "midi": 38,
          "time": 283.7498865000005,
          "velocity": 0.49606299212598426,
          "duration": 0.166666599999985
        },
        {
          "name": "E2",
          "midi": 40,
          "time": 283.95648363958384,
          "velocity": 0.5039370078740157,
          "duration": 0.19270825625000043
        },
        {
          "name": "D2",
          "midi": 38,
          "time": 284.1665530000005,
          "velocity": 0.5118110236220472,
          "duration": 0.3489581937499793
        },
        {
          "name": "E2",
          "midi": 40,
          "time": 284.5814833895838,
          "velocity": 0.5118110236220472,
          "duration": 0.1840277041666809
        },
        {
          "name": "D2",
          "midi": 38,
          "time": 284.78808052916713,
          "velocity": 0.5196850393700787,
          "duration": 0.18055548333330762
        },
        {
          "name": "C2",
          "midi": 36,
          "time": 284.99988600000046,
          "velocity": 1,
          "duration": 0.8315968895833521
        },
        {
          "name": "D2",
          "midi": 38,
          "time": 284.99988600000046,
          "velocity": 0.6850393700787402,
          "duration": 0.39583317500000703
        },
        {
          "name": "E2",
          "midi": 40,
          "time": 285.4148163895838,
          "velocity": 0.5196850393700787,
          "duration": 0.1840277041666809
        },
        {
          "name": "D2",
          "midi": 38,
          "time": 285.6231496395838,
          "velocity": 0.5196850393700787,
          "duration": 0.19444436666668707
        },
        {
          "name": "E2",
          "midi": 40,
          "time": 285.8314828895838,
          "velocity": 0.6614173228346457,
          "duration": 0.39583317500000703
        },
        {
          "name": "D2",
          "midi": 38,
          "time": 286.24641327916714,
          "velocity": 0.5039370078740157,
          "duration": 0.18055548333330762
        },
        {
          "name": "E2",
          "midi": 40,
          "time": 286.4547465291671,
          "velocity": 0.5118110236220472,
          "duration": 0.2204860229167025
        },
        {
          "name": "D2",
          "midi": 38,
          "time": 286.6630797791671,
          "velocity": 0.5118110236220472,
          "duration": 0.44618037708335123
        },
        {
          "name": "E2",
          "midi": 40,
          "time": 287.0814823895838,
          "velocity": 0.49606299212598426,
          "duration": 0.41840261041664917
        },
        {
          "name": "C2",
          "midi": 36,
          "time": 287.49988500000046,
          "velocity": 1,
          "duration": 0.8315968895833521
        },
        {
          "name": "D2",
          "midi": 38,
          "time": 287.49988500000046,
          "velocity": 0.6614173228346457,
          "duration": 0.3975692854167505
        },
        {
          "name": "E2",
          "midi": 40,
          "time": 287.91655150000054,
          "velocity": 0.5039370078740157,
          "duration": 0.17534715208330454
        },
        {
          "name": "D2",
          "midi": 38,
          "time": 288.1248847500005,
          "velocity": 0.49606299212598426,
          "duration": 0.2048610291666364
        },
        {
          "name": "E2",
          "midi": 40,
          "time": 288.3332180000005,
          "velocity": 0.6692913385826772,
          "duration": 0.40624983750007004
        },
        {
          "name": "D2",
          "midi": 38,
          "time": 288.7498845000006,
          "velocity": 0.49606299212598426,
          "duration": 0.166666599999985
        },
        {
          "name": "E2",
          "midi": 40,
          "time": 288.9564816395839,
          "velocity": 0.5039370078740157,
          "duration": 0.19270825625005727
        },
        {
          "name": "D2",
          "midi": 38,
          "time": 289.1665510000006,
          "velocity": 0.5118110236220472,
          "duration": 0.3489581937500361
        },
        {
          "name": "E2",
          "midi": 40,
          "time": 289.581481389584,
          "velocity": 0.5118110236220472,
          "duration": 0.1840277041666809
        },
        {
          "name": "D2",
          "midi": 38,
          "time": 289.7880785291673,
          "velocity": 0.5196850393700787,
          "duration": 0.18055548333330762
        },
        {
          "name": "C2",
          "midi": 36,
          "time": 289.99988400000063,
          "velocity": 1,
          "duration": 0.8315968895832384
        },
        {
          "name": "D2",
          "midi": 38,
          "time": 289.99988400000063,
          "velocity": 0.6850393700787402,
          "duration": 0.3958331749999502
        },
        {
          "name": "E2",
          "midi": 40,
          "time": 290.4148143895839,
          "velocity": 0.5196850393700787,
          "duration": 0.1840277041666809
        },
        {
          "name": "D2",
          "midi": 38,
          "time": 290.6231476395839,
          "velocity": 0.5196850393700787,
          "duration": 0.19444436666663023
        },
        {
          "name": "E2",
          "midi": 40,
          "time": 290.8314808895839,
          "velocity": 0.6614173228346457,
          "duration": 0.3958331750000639
        },
        {
          "name": "D2",
          "midi": 38,
          "time": 291.24641127916726,
          "velocity": 0.5039370078740157,
          "duration": 0.18055548333330762
        },
        {
          "name": "E2",
          "midi": 40,
          "time": 291.4547445291672,
          "velocity": 0.5118110236220472,
          "duration": 0.2204860229167025
        },
        {
          "name": "D2",
          "midi": 38,
          "time": 291.6630777791672,
          "velocity": 0.5118110236220472,
          "duration": 0.44618037708335123
        },
        {
          "name": "E2",
          "midi": 40,
          "time": 292.08148038958393,
          "velocity": 0.49606299212598426,
          "duration": 0.41840261041664917
        }
      ],
      "controlChanges": {
        "6": [
          {
            "number": 6,
            "time": 1.310763364583333,
            "value": 0.015748031496062992
          },
          {
            "number": 6,
            "time": 1.3194439166666663,
            "value": 0.5039370078740157
          },
          {
            "number": 6,
            "time": 1.3281244687499996,
            "value": 0.5039370078740157
          },
          {
            "number": 6,
            "time": 1.3368050208333329,
            "value": 0.5039370078740157
          },
          {
            "number": 6,
            "time": 1.3454855729166662,
            "value": 0.5039370078740157
          },
          {
            "number": 6,
            "time": 1.3541661249999994,
            "value": 0.5039370078740157
          },
          {
            "number": 6,
            "time": 1.3628466770833327,
            "value": 0.5039370078740157
          },
          {
            "number": 6,
            "time": 1.371527229166666,
            "value": 0.5039370078740157
          },
          {
            "number": 6,
            "time": 1.3802077812499993,
            "value": 0.5039370078740157
          }
        ],
        "7": [
          {
            "number": 7,
            "time": 1.2760411562499998,
            "value": 0.7086614173228346
          },
          {
            "number": 7,
            "time": 109.99995600000054,
            "value": 1
          },
          {
            "number": 7,
            "time": 114.99995400000057,
            "value": 1
          },
          {
            "number": 7,
            "time": 119.99995200000065,
            "value": 1
          },
          {
            "number": 7,
            "time": 124.99995000000068,
            "value": 1
          },
          {
            "number": 7,
            "time": 129.99994800000073,
            "value": 1
          },
          {
            "number": 7,
            "time": 134.99994600000068,
            "value": 1
          },
          {
            "number": 7,
            "time": 139.99994400000065,
            "value": 1
          },
          {
            "number": 7,
            "time": 144.9999420000006,
            "value": 1
          },
          {
            "number": 7,
            "time": 149.9999400000006,
            "value": 0.6614173228346457
          },
          {
            "number": 7,
            "time": 192.49992300000042,
            "value": 1
          },
          {
            "number": 7,
            "time": 197.49992100000037,
            "value": 1
          },
          {
            "number": 7,
            "time": 202.49991900000035,
            "value": 1
          },
          {
            "number": 7,
            "time": 207.4999170000003,
            "value": 1
          },
          {
            "number": 7,
            "time": 212.4999150000003,
            "value": 1
          },
          {
            "number": 7,
            "time": 217.49991300000025,
            "value": 1
          },
          {
            "number": 7,
            "time": 222.49991100000022,
            "value": 1
          },
          {
            "number": 7,
            "time": 227.49990900000017,
            "value": 1
          },
          {
            "number": 7,
            "time": 232.49990700000018,
            "value": 0.6614173228346457
          },
          {
            "number": 7,
            "time": 252.49989900000008,
            "value": 0.7165354330708661
          },
          {
            "number": 7,
            "time": 287.03287129791715,
            "value": 0.7007874015748031
          },
          {
            "number": 7,
            "time": 287.3210656270838,
            "value": 0.6850393700787402
          },
          {
            "number": 7,
            "time": 287.5259266562505,
            "value": 0.6614173228346457
          },
          {
            "number": 7,
            "time": 287.68564881458383,
            "value": 0.6456692913385826
          },
          {
            "number": 7,
            "time": 287.7967598812505,
            "value": 0.6220472440944882
          },
          {
            "number": 7,
            "time": 287.9078709479172,
            "value": 0.6062992125984252
          },
          {
            "number": 7,
            "time": 288.01898201458386,
            "value": 0.5826771653543307
          },
          {
            "number": 7,
            "time": 288.19432916666716,
            "value": 0.5669291338582677
          },
          {
            "number": 7,
            "time": 288.3210652270838,
            "value": 0.5433070866141733
          },
          {
            "number": 7,
            "time": 288.4634262812505,
            "value": 0.5275590551181102
          },
          {
            "number": 7,
            "time": 288.5745373479172,
            "value": 0.5039370078740157
          },
          {
            "number": 7,
            "time": 288.7498845000006,
            "value": 0.4881889763779528
          },
          {
            "number": 7,
            "time": 288.9408566458339,
            "value": 0.4645669291338583
          },
          {
            "number": 7,
            "time": 289.0519677125006,
            "value": 0.44881889763779526
          },
          {
            "number": 7,
            "time": 289.14745378541727,
            "value": 0.4251968503937008
          },
          {
            "number": 7,
            "time": 289.2741898458339,
            "value": 0.4094488188976378
          },
          {
            "number": 7,
            "time": 289.3540509250006,
            "value": 0.3858267716535433
          },
          {
            "number": 7,
            "time": 289.51377308333394,
            "value": 0.3700787401574803
          },
          {
            "number": 7,
            "time": 289.5936341625007,
            "value": 0.3464566929133858
          },
          {
            "number": 7,
            "time": 289.67175913125067,
            "value": 0.33070866141732286
          },
          {
            "number": 7,
            "time": 289.784606308334,
            "value": 0.30708661417322836
          },
          {
            "number": 7,
            "time": 289.91134236875064,
            "value": 0.29133858267716534
          },
          {
            "number": 7,
            "time": 290.08668952083394,
            "value": 0.2677165354330709
          },
          {
            "number": 7,
            "time": 290.27766166666726,
            "value": 0.25196850393700787
          },
          {
            "number": 7,
            "time": 290.4043977270839,
            "value": 0.2283464566929134
          },
          {
            "number": 7,
            "time": 290.56238377500057,
            "value": 0.2125984251968504
          },
          {
            "number": 7,
            "time": 290.7047448291672,
            "value": 0.1889763779527559
          },
          {
            "number": 7,
            "time": 290.80196701250054,
            "value": 0.16535433070866143
          },
          {
            "number": 7,
            "time": 290.8644669875005,
            "value": 0.14173228346456693
          },
          {
            "number": 7,
            "time": 290.9130780791672,
            "value": 0.11811023622047244
          },
          {
            "number": 7,
            "time": 290.9287030729172,
            "value": 0.11023622047244094
          },
          {
            "number": 7,
            "time": 290.9599530604172,
            "value": 0.08661417322834646
          },
          {
            "number": 7,
            "time": 290.9912030479172,
            "value": 0.07086614173228346
          },
          {
            "number": 7,
            "time": 291.0398141395839,
            "value": 0.047244094488188976
          },
          {
            "number": 7,
            "time": 291.0866891208339,
            "value": 0.023622047244094488
          },
          {
            "number": 7,
            "time": 291.24641127916726,
            "value": 0.007874015748031496
          }
        ],
        "10": [
          {
            "number": 10,
            "time": 1.284721708333333,
            "value": 0.5039370078740157
          }
        ],
        "91": [
          {
            "number": 91,
            "time": 1.2934022604166664,
            "value": 0.5511811023622047
          },
          {
            "number": 91,
            "time": 109.99995600000054,
            "value": 1
          },
          {
            "number": 91,
            "time": 114.99995400000057,
            "value": 1
          },
          {
            "number": 91,
            "time": 119.99995200000065,
            "value": 1
          },
          {
            "number": 91,
            "time": 129.99994800000073,
            "value": 1
          },
          {
            "number": 91,
            "time": 134.99994600000068,
            "value": 1
          },
          {
            "number": 91,
            "time": 139.99994400000065,
            "value": 1
          },
          {
            "number": 91,
            "time": 149.9999400000006,
            "value": 0.5984251968503937
          },
          {
            "number": 91,
            "time": 192.49992300000042,
            "value": 1
          },
          {
            "number": 91,
            "time": 197.49992100000037,
            "value": 1
          },
          {
            "number": 91,
            "time": 202.49991900000035,
            "value": 1
          },
          {
            "number": 91,
            "time": 212.4999150000003,
            "value": 1
          },
          {
            "number": 91,
            "time": 217.49991300000025,
            "value": 1
          },
          {
            "number": 91,
            "time": 222.49991100000022,
            "value": 1
          },
          {
            "number": 91,
            "time": 232.49990700000018,
            "value": 0.5984251968503937
          }
        ],
        "93": [
          {
            "number": 93,
            "time": 1.3020828124999997,
            "value": 0
          }
        ],
        "98": [
          {
            "number": 98,
            "time": 1.3194439166666663,
            "value": 0.06299212598425197
          },
          {
            "number": 98,
            "time": 1.3281244687499996,
            "value": 0.07086614173228346
          },
          {
            "number": 98,
            "time": 1.3368050208333329,
            "value": 0.07874015748031496
          },
          {
            "number": 98,
            "time": 1.3454855729166662,
            "value": 0.25196850393700787
          },
          {
            "number": 98,
            "time": 1.3541661249999994,
            "value": 0.25984251968503935
          },
          {
            "number": 98,
            "time": 1.3628466770833327,
            "value": 0.7795275590551181
          },
          {
            "number": 98,
            "time": 1.371527229166666,
            "value": 0.7874015748031497
          },
          {
            "number": 98,
            "time": 1.3802077812499993,
            "value": 0.8031496062992126
          }
        ],
        "99": [
          {
            "number": 99,
            "time": 1.3194439166666663,
            "value": 0.007874015748031496
          },
          {
            "number": 99,
            "time": 1.3281244687499996,
            "value": 0.007874015748031496
          },
          {
            "number": 99,
            "time": 1.3368050208333329,
            "value": 0.007874015748031496
          },
          {
            "number": 99,
            "time": 1.3454855729166662,
            "value": 0.007874015748031496
          },
          {
            "number": 99,
            "time": 1.3541661249999994,
            "value": 0.007874015748031496
          },
          {
            "number": 99,
            "time": 1.3628466770833327,
            "value": 0.007874015748031496
          },
          {
            "number": 99,
            "time": 1.371527229166666,
            "value": 0.007874015748031496
          },
          {
            "number": 99,
            "time": 1.3802077812499993,
            "value": 0.007874015748031496
          }
        ],
        "100": [
          {
            "number": 100,
            "time": 1.310763364583333,
            "value": 0
          }
        ],
        "101": [
          {
            "number": 101,
            "time": 1.310763364583333,
            "value": 0
          }
        ]
      },
      "id": 10,
      "name": "Orchestral Set",
      "instrumentNumber": 48,
      "instrument": "orchestra kit",
      "instrumentFamily": "drums",
      "channelNumber": 9,
      "isPercussion": true
    },
    {
      "startTime": 2.506943441666666,
      "duration": 7.4999970000000005,
      "length": 1,
      "notes": [
        {
          "name": "C4",
          "midi": 60,
          "time": 2.506943441666666,
          "velocity": 0.5984251968503937,
          "duration": 4.993053558333335
        }
      ],
      "controlChanges": {
        "6": [
          {
            "number": 6,
            "time": 1.4496521979166663,
            "value": 0.015748031496062992
          },
          {
            "number": 6,
            "time": 1.4583327499999996,
            "value": 0.5039370078740157
          },
          {
            "number": 6,
            "time": 1.467013302083333,
            "value": 0.5039370078740157
          },
          {
            "number": 6,
            "time": 1.4756938541666662,
            "value": 0.5039370078740157
          },
          {
            "number": 6,
            "time": 1.4843744062499995,
            "value": 0.5039370078740157
          },
          {
            "number": 6,
            "time": 1.4930549583333328,
            "value": 0.5039370078740157
          },
          {
            "number": 6,
            "time": 1.501735510416666,
            "value": 0.5039370078740157
          },
          {
            "number": 6,
            "time": 1.5104160624999994,
            "value": 0.5039370078740157
          },
          {
            "number": 6,
            "time": 1.5190966145833327,
            "value": 0.5039370078740157
          }
        ],
        "7": [
          {
            "number": 7,
            "time": 1.4149299895833332,
            "value": 0.7874015748031497
          },
          {
            "number": 7,
            "time": 4.611109266666666,
            "value": 0.952755905511811
          },
          {
            "number": 7,
            "time": 4.626734260416667,
            "value": 0.8976377952755905
          },
          {
            "number": 7,
            "time": 4.642359254166667,
            "value": 0.8503937007874016
          },
          {
            "number": 7,
            "time": 4.6579842479166675,
            "value": 0.8031496062992126
          },
          {
            "number": 7,
            "time": 4.673609241666668,
            "value": 0.7637795275590551
          },
          {
            "number": 7,
            "time": 4.689234235416668,
            "value": 0.7401574803149606
          },
          {
            "number": 7,
            "time": 4.7031231187500016,
            "value": 0.7165354330708661
          },
          {
            "number": 7,
            "time": 4.751734210416668,
            "value": 0.7007874015748031
          },
          {
            "number": 7,
            "time": 4.874998050000001,
            "value": 0.6771653543307087
          },
          {
            "number": 7,
            "time": 4.920136920833334,
            "value": 0.6614173228346457
          },
          {
            "number": 7,
            "time": 4.9670119020833345,
            "value": 0.6377952755905512
          },
          {
            "number": 7,
            "time": 5.045136870833335,
            "value": 0.6141732283464567
          },
          {
            "number": 7,
            "time": 5.121525729166668,
            "value": 0.5905511811023622
          },
          {
            "number": 7,
            "time": 5.168400710416668,
            "value": 0.5748031496062992
          },
          {
            "number": 7,
            "time": 5.215275691666668,
            "value": 0.5511811023622047
          },
          {
            "number": 7,
            "time": 5.260414562500001,
            "value": 0.5354330708661418
          },
          {
            "number": 7,
            "time": 5.307289543750001,
            "value": 0.5118110236220472
          },
          {
            "number": 7,
            "time": 5.354164525000002,
            "value": 0.4881889763779528
          },
          {
            "number": 7,
            "time": 5.401039506250002,
            "value": 0.4645669291338583
          },
          {
            "number": 7,
            "time": 5.446178377083335,
            "value": 0.4409448818897638
          },
          {
            "number": 7,
            "time": 5.493053358333335,
            "value": 0.41732283464566927
          },
          {
            "number": 7,
            "time": 5.553817222916669,
            "value": 0.4015748031496063
          },
          {
            "number": 7,
            "time": 5.616317197916668,
            "value": 0.3779527559055118
          },
          {
            "number": 7,
            "time": 5.741317147916669,
            "value": 0.36220472440944884
          },
          {
            "number": 7,
            "time": 5.833331000000002,
            "value": 0.33858267716535434
          },
          {
            "number": 7,
            "time": 5.987844827083335,
            "value": 0.3228346456692913
          },
          {
            "number": 7,
            "time": 6.064233685416668,
            "value": 0.2992125984251969
          },
          {
            "number": 7,
            "time": 6.157983647916668,
            "value": 0.2755905511811024
          },
          {
            "number": 7,
            "time": 6.281247487500001,
            "value": 0.25984251968503935
          },
          {
            "number": 7,
            "time": 6.359372456250001,
            "value": 0.23622047244094488
          },
          {
            "number": 7,
            "time": 6.420136320833334,
            "value": 0.2125984251968504
          },
          {
            "number": 7,
            "time": 6.467011302083335,
            "value": 0.1889763779527559
          },
          {
            "number": 7,
            "time": 6.529511277083334,
            "value": 0.1732283464566929
          },
          {
            "number": 7,
            "time": 6.5746501479166675,
            "value": 0.14960629921259844
          },
          {
            "number": 7,
            "time": 6.6527751166666675,
            "value": 0.13385826771653545
          },
          {
            "number": 7,
            "time": 6.744788968750001,
            "value": 0.11023622047244094
          },
          {
            "number": 7,
            "time": 6.807288943750001,
            "value": 0.08661417322834646
          },
          {
            "number": 7,
            "time": 6.883677802083334,
            "value": 0.06299212598425197
          },
          {
            "number": 7,
            "time": 6.977427764583334,
            "value": 0.03937007874015748
          },
          {
            "number": 7,
            "time": 7.069441616666667,
            "value": 0.023622047244094488
          },
          {
            "number": 7,
            "time": 7.286455418750001,
            "value": 0
          }
        ],
        "10": [
          {
            "number": 10,
            "time": 1.4236105416666665,
            "value": 0.5039370078740157
          }
        ],
        "32": [
          {
            "number": 32,
            "time": 1.3975688854166666,
            "value": 1
          }
        ],
        "91": [
          {
            "number": 91,
            "time": 1.4322910937499997,
            "value": 0.31496062992125984
          }
        ],
        "93": [
          {
            "number": 93,
            "time": 1.440971645833333,
            "value": 0
          }
        ],
        "98": [
          {
            "number": 98,
            "time": 1.4583327499999996,
            "value": 0.06299212598425197
          },
          {
            "number": 98,
            "time": 1.467013302083333,
            "value": 0.07086614173228346
          },
          {
            "number": 98,
            "time": 1.4756938541666662,
            "value": 0.07874015748031496
          },
          {
            "number": 98,
            "time": 1.4843744062499995,
            "value": 0.25196850393700787
          },
          {
            "number": 98,
            "time": 1.4930549583333328,
            "value": 0.25984251968503935
          },
          {
            "number": 98,
            "time": 1.501735510416666,
            "value": 0.7795275590551181
          },
          {
            "number": 98,
            "time": 1.5104160624999994,
            "value": 0.7874015748031497
          },
          {
            "number": 98,
            "time": 1.5190966145833327,
            "value": 0.8031496062992126
          }
        ],
        "99": [
          {
            "number": 99,
            "time": 1.4583327499999996,
            "value": 0.007874015748031496
          },
          {
            "number": 99,
            "time": 1.467013302083333,
            "value": 0.007874015748031496
          },
          {
            "number": 99,
            "time": 1.4756938541666662,
            "value": 0.007874015748031496
          },
          {
            "number": 99,
            "time": 1.4843744062499995,
            "value": 0.007874015748031496
          },
          {
            "number": 99,
            "time": 1.4930549583333328,
            "value": 0.007874015748031496
          },
          {
            "number": 99,
            "time": 1.501735510416666,
            "value": 0.007874015748031496
          },
          {
            "number": 99,
            "time": 1.5104160624999994,
            "value": 0.007874015748031496
          },
          {
            "number": 99,
            "time": 1.5190966145833327,
            "value": 0.007874015748031496
          }
        ],
        "100": [
          {
            "number": 100,
            "time": 1.4496521979166663,
            "value": 0
          }
        ],
        "101": [
          {
            "number": 101,
            "time": 1.4496521979166663,
            "value": 0
          }
        ]
      },
      "id": 11,
      "name": "WindChime",
      "instrumentNumber": 124,
      "instrumentFamily": "drums",
      "channelNumber": 10,
      "isPercussion": true
    },
    {
      "startTime": 112.49821888958333,
      "duration": 230.69782438750008,
      "length": 10,
      "notes": [
        {
          "name": "A5",
          "midi": 81,
          "time": 112.49821888958333,
          "velocity": 1,
          "duration": 0.6996524979166736
        },
        {
          "name": "A5",
          "midi": 81,
          "time": 122.49821488958334,
          "velocity": 1,
          "duration": 0.6996524979166736
        },
        {
          "name": "A5",
          "midi": 81,
          "time": 132.49821088958333,
          "velocity": 1,
          "duration": 0.6996524979166736
        },
        {
          "name": "A5",
          "midi": 81,
          "time": 142.49820688958334,
          "velocity": 1,
          "duration": 0.6996524979166736
        },
        {
          "name": "A5",
          "midi": 81,
          "time": 147.49820488958335,
          "velocity": 1,
          "duration": 0.6996524979166736
        },
        {
          "name": "A5",
          "midi": 81,
          "time": 194.99818588958337,
          "velocity": 1,
          "duration": 0.6996524979166736
        },
        {
          "name": "A5",
          "midi": 81,
          "time": 204.99818188958338,
          "velocity": 1,
          "duration": 0.6996524979166736
        },
        {
          "name": "A5",
          "midi": 81,
          "time": 214.9981778895834,
          "velocity": 1,
          "duration": 0.6996524979166736
        },
        {
          "name": "A5",
          "midi": 81,
          "time": 224.9981738895834,
          "velocity": 1,
          "duration": 0.6996524979166736
        },
        {
          "name": "A5",
          "midi": 81,
          "time": 229.9981718895834,
          "velocity": 1,
          "duration": 0.6996524979166736
        }
      ],
      "controlChanges": {
        "6": [
          {
            "number": 6,
            "time": 1.5885410312499997,
            "value": 0.015748031496062992
          },
          {
            "number": 6,
            "time": 1.597221583333333,
            "value": 0.5039370078740157
          },
          {
            "number": 6,
            "time": 1.6059021354166663,
            "value": 0.5039370078740157
          },
          {
            "number": 6,
            "time": 1.6145826874999996,
            "value": 0.5039370078740157
          },
          {
            "number": 6,
            "time": 1.6232632395833329,
            "value": 0.5039370078740157
          },
          {
            "number": 6,
            "time": 1.6319437916666661,
            "value": 0.5039370078740157
          },
          {
            "number": 6,
            "time": 1.6406243437499994,
            "value": 0.5039370078740157
          },
          {
            "number": 6,
            "time": 1.6493048958333327,
            "value": 0.5039370078740157
          },
          {
            "number": 6,
            "time": 1.657985447916666,
            "value": 0.5039370078740157
          }
        ],
        "7": [
          {
            "number": 7,
            "time": 1.5538188229166665,
            "value": 0.7874015748031497
          }
        ],
        "10": [
          {
            "number": 10,
            "time": 1.5624993749999998,
            "value": 0.5039370078740157
          }
        ],
        "32": [
          {
            "number": 32,
            "time": 1.53645771875,
            "value": 1
          }
        ],
        "91": [
          {
            "number": 91,
            "time": 1.571179927083333,
            "value": 0.31496062992125984
          }
        ],
        "93": [
          {
            "number": 93,
            "time": 1.5798604791666664,
            "value": 0
          }
        ],
        "98": [
          {
            "number": 98,
            "time": 1.597221583333333,
            "value": 0.06299212598425197
          },
          {
            "number": 98,
            "time": 1.6059021354166663,
            "value": 0.07086614173228346
          },
          {
            "number": 98,
            "time": 1.6145826874999996,
            "value": 0.07874015748031496
          },
          {
            "number": 98,
            "time": 1.6232632395833329,
            "value": 0.25196850393700787
          },
          {
            "number": 98,
            "time": 1.6319437916666661,
            "value": 0.25984251968503935
          },
          {
            "number": 98,
            "time": 1.6406243437499994,
            "value": 0.7795275590551181
          },
          {
            "number": 98,
            "time": 1.6493048958333327,
            "value": 0.7874015748031497
          },
          {
            "number": 98,
            "time": 1.657985447916666,
            "value": 0.8031496062992126
          }
        ],
        "99": [
          {
            "number": 99,
            "time": 1.597221583333333,
            "value": 0.007874015748031496
          },
          {
            "number": 99,
            "time": 1.6059021354166663,
            "value": 0.007874015748031496
          },
          {
            "number": 99,
            "time": 1.6145826874999996,
            "value": 0.007874015748031496
          },
          {
            "number": 99,
            "time": 1.6232632395833329,
            "value": 0.007874015748031496
          },
          {
            "number": 99,
            "time": 1.6319437916666661,
            "value": 0.007874015748031496
          },
          {
            "number": 99,
            "time": 1.6406243437499994,
            "value": 0.007874015748031496
          },
          {
            "number": 99,
            "time": 1.6493048958333327,
            "value": 0.007874015748031496
          },
          {
            "number": 99,
            "time": 1.657985447916666,
            "value": 0.007874015748031496
          }
        ],
        "100": [
          {
            "number": 100,
            "time": 1.5885410312499997,
            "value": 0
          }
        ],
        "101": [
          {
            "number": 101,
            "time": 1.5885410312499997,
            "value": 0
          }
        ]
      },
      "id": 12,
      "name": "Glockenspiel",
      "instrumentNumber": 9,
      "instrument": "glockenspiel",
      "instrumentFamily": "chromatic percussion",
      "channelNumber": 11,
      "isPercussion": false
    }
  ]
}

const startMidi = (timeout, noteIndex) => {
  
  midi.tracks[2].notes.forEach(note => {
    setTimeout(() => {
      console.log(note.name)
    }, note.time * 1000)
  })
}

setTimeout(() => {
  startMidi()
}, midi.tracks[2].startTime * 1000)
